<svg width="19" height="19" viewBox="0 0 19 19" fill="none" xmlns="http://www.w3.org/2000/svg">
<path d="M9.07914 0.25C13.9551 0.25 17.908 4.20256 17.908 9.0791C17.908 13.9549 13.9551 17.9078 9.07914 17.9078C4.20291 17.9078 0.25 13.9549 0.25 9.0791C0.25 4.20256 4.20291 0.25 9.07914 0.25Z" stroke="#343C5B" stroke-width="0.5"/>
<path d="M11.5372 13.1586C11.4864 13.0842 11.3891 13.0578 11.3077 13.0963C10.4081 13.5222 9.38704 13.9725 9.18664 14.0118C9.18159 14.0073 9.17357 13.9991 9.16307 13.9848C9.13591 13.948 9.1227 13.9 9.1227 13.8379C9.1227 13.329 9.50679 11.7809 10.2642 9.23692C10.9029 7.09943 10.9768 6.65686 10.9768 6.50992C10.9768 6.28309 10.8899 6.09143 10.7255 5.95562C10.5694 5.82683 10.3512 5.76158 10.077 5.76158C9.62108 5.76158 9.09262 5.93469 8.46143 6.29081C7.84978 6.63603 7.16764 7.22075 6.43409 8.0287C6.37667 8.09198 6.37067 8.18658 6.41963 8.25663C6.46867 8.32672 6.55962 8.35339 6.6387 8.32119C6.89624 8.21608 8.1905 7.6859 8.37916 7.5674C8.53363 7.47056 8.66736 7.42141 8.77664 7.42141C8.78055 7.42141 8.78392 7.42156 8.78674 7.42178C8.78806 7.42902 8.7893 7.44007 8.7893 7.45592C8.7893 7.56743 8.76635 7.69944 8.72138 7.84762C7.61848 11.421 7.08237 13.6116 7.08237 14.5447C7.08237 14.874 7.1739 15.1391 7.35436 15.3326C7.53826 15.5299 7.78632 15.63 8.09165 15.63C8.41703 15.63 8.81305 15.4941 9.30228 15.2145C9.7757 14.9439 10.4983 14.3488 11.5114 13.395C11.577 13.3332 11.588 13.233 11.5372 13.1586Z" fill="#343C5B"/>
<path d="M11.5018 2.80588C11.3216 2.62139 11.091 2.52785 10.8164 2.52785C10.4746 2.52785 10.1769 2.66293 9.93164 2.92936C9.69031 3.19139 9.56793 3.51293 9.56793 3.88502C9.56793 4.179 9.65807 4.42263 9.83582 4.60909C10.016 4.79837 10.2435 4.89433 10.512 4.89433C10.8398 4.89433 11.1359 4.75168 11.392 4.47032C11.6437 4.1939 11.7713 3.86892 11.7713 3.50441C11.7713 3.22429 11.6807 2.9893 11.5018 2.80588Z" fill="#343C5B"/>
</svg>
