<svg width="263" height="72" viewBox="0 0 263 72" fill="none" xmlns="http://www.w3.org/2000/svg">
<path d="M115.184 25.0782C117.882 25.0782 120.17 25.6257 122.047 26.7208C123.925 27.8158 125.235 29.4388 125.978 31.5898C126.76 33.7016 126.838 36.3024 126.213 39.3919L122.751 56.7561H115.418L118.821 39.5679C119.329 37.0259 119.095 35.0509 118.117 33.643C117.139 32.196 115.36 31.4725 112.779 31.4725C110.08 31.4725 107.851 32.2155 106.091 33.7016C104.331 35.1878 103.138 37.456 102.513 40.5065L99.2276 56.7561H91.8951L98.1132 25.4302H105.094L103.334 34.347L102.161 31.5311C103.647 29.302 105.505 27.6789 107.734 26.6621C110.002 25.6062 112.486 25.0782 115.184 25.0782ZM146.19 57.1665C143.648 57.1665 141.321 56.6192 139.209 55.5241C137.136 54.4291 135.474 52.865 134.223 50.831C133.01 48.7583 132.404 46.2751 132.404 43.381C132.404 40.7216 132.834 38.2773 133.695 36.0481C134.594 33.819 135.846 31.8831 137.449 30.2405C139.053 28.598 140.91 27.327 143.022 26.4275C145.173 25.528 147.52 25.0782 150.062 25.0782C152.682 25.0782 154.931 25.5476 156.808 26.4861C158.724 27.4247 160.171 28.8522 161.149 30.7685C162.127 32.6457 162.576 34.9922 162.498 37.808C162.42 41.6797 161.716 45.0823 160.386 48.0152C159.056 50.9093 157.199 53.158 154.813 54.7617C152.428 56.3649 149.553 57.1665 146.19 57.1665ZM148.067 50.8899C150.179 50.8899 152.037 50.4011 153.64 49.4231C155.244 48.4063 156.515 47.0182 157.453 45.2583C158.392 43.4983 158.861 41.4646 158.861 39.1573C158.861 36.7326 158.137 34.8162 156.691 33.4083C155.244 32.0004 153.21 31.2965 150.59 31.2965C148.517 31.2965 146.659 31.8049 145.017 32.8217C143.413 33.7994 142.142 35.1682 141.204 36.9281C140.265 38.688 139.796 40.7216 139.796 43.029C139.796 45.4537 140.519 47.3702 141.966 48.7781C143.413 50.186 145.447 50.8899 148.067 50.8899ZM155.752 56.7561L157.16 49.5991L159.155 41.2691L160.151 32.8804L161.618 25.4302H168.951L162.733 56.7561H155.752ZM186.406 57.1665C183.864 57.1665 181.537 56.6192 179.425 55.5241C177.352 54.4291 175.69 52.865 174.439 50.831C173.227 48.7583 172.62 46.2751 172.62 43.381C172.62 40.7216 173.051 38.2773 173.911 36.0481C174.81 33.819 176.062 31.8831 177.665 30.2405C179.269 28.598 181.126 27.327 183.238 26.4275C185.389 25.528 187.735 25.0782 190.278 25.0782C192.898 25.0782 195.147 25.5476 197.024 26.4861C198.94 27.4247 200.387 28.8522 201.365 30.7685C202.342 32.6457 202.792 34.9922 202.714 37.808C202.636 41.6797 201.932 45.0823 200.602 48.0152C199.273 50.9093 197.415 53.158 195.029 54.7617C192.644 56.3649 189.769 57.1665 186.406 57.1665ZM188.283 50.8899C190.395 50.8899 192.253 50.4011 193.856 49.4231C195.459 48.4063 196.731 47.0182 197.669 45.2583C198.607 43.4983 199.077 41.4646 199.077 39.1573C199.077 36.7326 198.354 34.8162 196.907 33.4083C195.459 32.0004 193.426 31.2965 190.805 31.2965C188.733 31.2965 186.875 31.8049 185.233 32.8217C183.629 33.7994 182.358 35.1682 181.42 36.9281C180.481 38.688 180.012 40.7216 180.012 43.029C180.012 45.4537 180.735 47.3702 182.182 48.7781C183.629 50.186 185.663 50.8899 188.283 50.8899ZM195.968 56.7561L197.376 49.5991L199.37 41.2691L200.368 32.8804L201.834 25.4302H209.167L202.949 56.7561H195.968ZM220.932 56.7561L213.716 25.4302H220.932L227.15 53.0603H223.454L240.76 25.4302H248.151L228.499 56.7561H220.932ZM246.457 56.7561L252.675 25.4302H260.008L253.79 56.7561H246.457ZM258.013 20.2679C256.684 20.2679 255.609 19.8768 254.787 19.0947C254.005 18.2734 253.614 17.2957 253.614 16.1615C253.614 14.8318 254.064 13.7173 254.963 12.8177C255.902 11.9183 257.114 11.4685 258.6 11.4685C259.891 11.4685 260.947 11.8596 261.768 12.6418C262.589 13.3848 263 14.3039 263 15.3989C263 16.8459 262.55 18.0192 261.651 18.9187C260.751 19.8181 259.539 20.2679 258.013 20.2679Z" fill="#100F0D"/>
<path fill-rule="evenodd" clip-rule="evenodd" d="M19.8142 18.9046C22.3362 16.3104 24.9932 16.295 26.8301 17.2634C31.3451 19.6427 32.2281 26.9514 32.6673 32.1799C33.018 36.3566 33.5638 40.0107 34.2501 44.0965C34.9983 48.5507 35.804 56.6624 37.0458 60.4017C37.8243 62.7494 39.2786 64.0817 41.0621 64.9176C46.9679 67.6898 60.3954 69.7872 63.8122 62.4533C61.2894 65.0487 58.6328 65.0632 56.7955 64.0948C52.2806 61.7164 51.3971 54.4072 50.958 49.1786C50.6074 45.0019 50.0618 41.3478 49.3754 37.2611C48.6275 32.8069 47.821 24.6961 46.5803 20.9559C45.8016 18.6087 44.347 17.277 42.5628 16.44C36.6581 13.6684 23.2302 11.5709 19.8142 18.9046Z" fill="url(#paint0_linear_1_23)"/>
<path fill-rule="evenodd" clip-rule="evenodd" d="M10.3769 61.9561L9.43334 63.8541C9.0221 64.6822 9.37109 65.6791 10.1946 66.0984H10.1951C11.0191 66.5177 12.0417 66.16 12.4529 65.332L13.3965 63.434C13.8077 62.6059 13.4592 61.609 12.6353 61.1897L12.6347 61.1888C11.8103 60.7708 10.7886 61.1272 10.3769 61.9561ZM4.39535 65.6158L2.69608 69.0335C2.28458 69.8615 2.63369 70.8598 3.45732 71.2786H3.45783C4.28172 71.6966 5.30392 71.3402 5.71516 70.5122L7.41445 67.0936C7.82578 66.2665 7.47733 65.2686 6.65317 64.8502L6.65282 64.8493C5.8288 64.4305 4.80658 64.7873 4.39535 65.6158ZM2.47137 58.1847L0.173043 62.8088C-0.238196 63.6368 0.110395 64.6342 0.934412 65.0539H0.934922C1.75881 65.4719 2.78102 65.116 3.19225 64.2875L5.49122 59.6634C5.90197 58.8354 5.55387 57.8375 4.72972 57.4187H4.7291C3.90494 57.0003 2.88325 57.3567 2.47137 58.1847ZM32.5146 30.5125C29.16 37.2955 24.6397 46.1999 21.3704 52.8289C21.3437 52.9864 21.2943 53.1418 21.22 53.2909L17.2751 61.228C16.8639 62.056 15.8411 62.4132 15.0172 61.9944C14.1933 61.5742 13.8443 60.5772 14.256 59.7492C15.9522 56.3368 17.4932 53.0863 19.1695 49.714C19.5807 48.8868 19.2321 47.889 18.4082 47.4697H18.4077C17.5838 47.0508 16.5616 47.4076 16.1503 48.2361C14.2856 51.9873 12.4248 55.7415 10.56 59.4927C10.1487 60.3212 9.12615 60.678 8.30262 60.2591H8.30161C7.47825 59.8399 7.12966 58.842 7.5409 58.0149C9.11885 54.8392 10.6641 51.6982 12.2403 48.5278C12.6515 47.6998 12.3026 46.7037 11.4787 46.2835H11.4781C10.6545 45.8642 9.63203 46.2215 9.2207 47.0495C7.91624 49.6739 6.60425 52.1773 5.31162 54.778C4.90025 55.606 3.9681 55.6804 3.05428 55.544H3.05364C2.13982 55.4067 1.88116 54.1268 2.29239 53.2988L3.22543 51.421L3.17585 51.4136C8.03934 41.4041 9.70467 37.9335 14.7969 28.0374C16.1621 25.3842 17.6837 22.0373 19.3236 19.6294C19.5562 19.2882 19.7971 18.9708 20.0438 18.6763C22.4964 16.3103 25.0488 16.3243 26.8303 17.2633C30.8816 19.3986 32.009 25.5033 32.5146 30.5125Z" fill="url(#paint1_linear_1_23)"/>
<path fill-rule="evenodd" clip-rule="evenodd" d="M59.7306 55.8369L57.4318 60.4619C57.02 61.289 57.3693 62.2869 58.1938 62.7053C59.017 63.125 60.0399 62.7669 60.4517 61.9398L62.7497 57.3148C63.1615 56.4877 62.8122 55.4894 61.9886 55.0705H61.9877C61.1641 54.6517 60.1416 55.0089 59.7306 55.8369ZM54.0212 48.6302L53.0783 50.5283C52.666 51.3567 53.0154 52.3537 53.8386 52.7726H53.8394C54.6631 53.1918 55.6856 52.8346 56.0965 52.0066L57.0402 50.1085C57.452 49.2814 57.1031 48.2831 56.2795 47.8643H56.2786C55.455 47.445 54.4325 47.8013 54.0212 48.6302ZM67.5898 17.606L57.7011 16.1253L95.1046 0C85.9797 18.6923 77.7417 36.8138 67.5581 55.0023C67.1644 55.7063 66.0284 56.1097 65.192 55.6548C64.6042 55.3367 64.0014 54.528 64.6064 53.3863L69.7857 43.6093C70.4677 42.3239 70.0123 41.4087 69.3396 41.0031C68.5771 40.5443 67.4943 40.7587 66.7455 42.1721L61.3972 52.267C59.7773 55.3244 57.0129 53.5469 58.3527 50.8684C60.3114 46.954 62.374 43.002 64.4572 39.0708C65.9052 36.3355 62.8918 34.8485 61.417 37.6326L57.7283 44.5948C57.3121 45.3802 56.4159 45.8941 55.7203 45.807C54.7717 45.6873 54.1109 44.6283 54.7717 43.2963C59.0306 34.7274 63.3256 26.1759 67.5898 17.606Z" fill="url(#paint2_linear_1_23)"/>
<defs>
<linearGradient id="paint0_linear_1_23" x1="22.7202" y1="7.62877" x2="63.0774" y2="77.4884" gradientUnits="userSpaceOnUse">
<stop stop-color="#8ED8C6"/>
<stop offset="0.175355" stop-color="#47B4D5"/>
<stop offset="0.683681" stop-color="#356CBE"/>
<stop offset="1" stop-color="#29449D"/>
</linearGradient>
<linearGradient id="paint1_linear_1_23" x1="-8.4622" y1="89.9918" x2="35.911" y2="7.55501" gradientUnits="userSpaceOnUse">
<stop stop-color="#8ED8C6"/>
<stop offset="0.322581" stop-color="#47B4D5"/>
<stop offset="0.698925" stop-color="#356CBE"/>
<stop offset="1" stop-color="#29449D"/>
</linearGradient>
<linearGradient id="paint2_linear_1_23" x1="46.3705" y1="65.3231" x2="87.2309" y2="-9.41111" gradientUnits="userSpaceOnUse">
<stop stop-color="#8ED8C6"/>
<stop offset="0.322581" stop-color="#47B4D5"/>
<stop offset="0.698925" stop-color="#356CBE"/>
<stop offset="1" stop-color="#29449D"/>
</linearGradient>
</defs>
</svg>
