<svg width="21" height="20" viewBox="0 0 21 20" fill="none" xmlns="http://www.w3.org/2000/svg">
<path d="M20.3814 9.86196C20.3814 4.41535 15.8189 0 10.1907 0C4.56253 0 0 4.41535 0 9.86196C0 15.3086 4.56253 19.7239 10.1907 19.7239C15.8189 19.7239 20.3814 15.3086 20.3814 9.86196Z" fill="#F7931A"/>
<path d="M13.0919 9.27411C13.8048 8.88526 14.1901 8.10681 14.0573 7.3259C13.8923 6.12029 12.4072 5.66513 11.2356 5.56936V3.7569H10.0805V5.55339H9.30495V3.7569H8.14987V5.55339H5.82318V6.71115H6.68949C7.07728 6.71115 7.26703 6.82293 7.26703 7.12632V12.1006C7.26703 12.5158 7.0525 12.6436 6.82148 12.6436H5.93868V13.8253H8.18285V15.6617H9.34618V13.8253H10.1217V15.6617H11.2521V13.8253H11.4996C13.8757 13.8253 14.6678 12.6995 14.6678 11.1665C14.6488 10.2626 14.0011 9.48491 13.0919 9.27411ZM9.3049 6.783H10.13C10.7075 6.783 11.8461 6.87882 11.8461 7.78903C11.8857 8.38309 11.441 8.90368 10.8312 8.97871H9.3049V6.783ZM10.5837 12.5317V12.5238H9.3049V10.1284H10.79C11.1365 10.1284 12.4401 10.2402 12.4401 11.1345C12.4401 12.0287 11.8213 12.5317 10.5837 12.5317Z" fill="white"/>
</svg>
