<svg width="21" height="20" viewBox="0 0 21 20" fill="none" xmlns="http://www.w3.org/2000/svg">
<path d="M2.77987 16.3783C3.35956 16.3783 3.89228 16.3752 4.42499 16.3812C4.53909 16.3812 4.60374 16.3525 4.66202 16.248C5.00115 15.6372 5.34946 15.0317 5.69389 14.4241C5.78609 14.2613 5.78503 14.2595 5.59674 14.2591C4.25083 14.2591 2.90457 14.256 1.55866 14.263C1.40358 14.263 1.33152 14.2129 1.26793 14.0762C0.806035 13.0811 0.507817 12.018 0.384788 10.9279C0.368185 10.7845 0.409869 10.7513 0.549406 10.7538C2.04368 10.7608 3.53796 10.7502 5.03188 10.7665C5.90337 10.776 6.7745 10.7665 7.64599 10.7774C7.70498 10.7774 7.75797 10.7891 7.79647 10.7199C8.17764 10.0391 8.56163 9.36053 8.94738 8.67662C8.86861 8.63353 8.79725 8.65295 8.73013 8.6526C6.0263 8.65142 3.32247 8.65142 0.618644 8.6526C0.396445 8.6526 0.401038 8.6526 0.432831 8.44065C0.595961 7.33754 0.942207 6.26943 1.45728 5.28041C1.51309 5.17443 1.57526 5.13204 1.69996 5.13239C2.83251 5.13593 3.96505 5.13239 5.09724 5.12992C6.18809 5.12745 7.2793 5.13451 8.36981 5.1165C9.18795 5.10307 10.0057 5.1165 10.8239 5.10307C10.9323 5.10307 10.9906 5.1331 11.0447 5.22919C11.8623 6.68461 12.6835 8.13791 13.5083 9.58909C13.5733 9.70354 13.5634 9.78338 13.5019 9.89218C12.3176 11.9905 11.1357 14.0903 9.95629 16.1915C9.92767 16.242 9.90188 16.2943 9.87574 16.3437C9.91707 16.3992 9.9683 16.3762 10.0107 16.3762C10.7172 16.3762 11.4219 16.3741 12.1274 16.3808C12.2472 16.3808 12.304 16.3395 12.3574 16.2395C13.1418 14.8067 13.9291 13.3753 14.7192 11.9453C14.75 11.8895 14.7825 11.8344 14.8146 11.7786C14.8853 11.7955 14.8959 11.8545 14.9206 11.8962C15.7934 13.361 16.6663 14.8259 17.5393 16.2907C17.593 16.3805 17.5806 16.4257 17.5156 16.496C15.926 18.2132 13.9866 19.2934 11.665 19.6163C8.42386 20.067 5.61617 19.1291 3.24935 16.8715C3.09427 16.7259 2.95544 16.5649 2.77987 16.3783Z" fill="#04AF76"/>
<path d="M3.09328 3.0165C3.84809 2.23501 4.72577 1.58239 5.69148 1.08454C7.09109 0.365657 8.58007 -0.00420305 10.1521 3.60308e-05C12.9506 0.00780769 15.3319 1.02448 17.3055 3.00767C17.4115 3.11364 17.4171 3.19136 17.3444 3.32136C16.5672 4.71084 15.7938 6.10243 15.0242 7.49615C14.9889 7.55797 14.9535 7.61802 14.9182 7.6802C14.8352 7.65264 14.8211 7.57422 14.7868 7.51699C13.9458 6.08159 13.1072 4.64501 12.2709 3.20726C12.1826 3.05748 12.0907 3.01155 11.9215 3.01155C9.06391 3.0172 6.20618 3.0185 3.34833 3.01544L3.09328 3.0165Z" fill="#04AF76"/>
<path d="M18.7876 5.01326C20.5892 8.11097 20.3574 11.9926 18.8706 14.5424L18.3817 13.6946C17.6457 12.4177 16.9089 11.1411 16.1713 9.8649C16.1077 9.75539 16.1007 9.67732 16.1674 9.5618C17.012 8.10167 17.8525 6.63978 18.689 5.17611C18.718 5.12666 18.749 5.0772 18.7876 5.01326Z" fill="#04AF76"/>
</svg>
