<svg width="21" height="20" viewBox="0 0 21 20" fill="none" xmlns="http://www.w3.org/2000/svg">
<path d="M19.9318 6.61939C20.0495 5.97814 20.1891 5.21814 20.1891 5.21814C20.6706 2.59476 19.1531 0.46814 14.8799 0.46814H2.17208C1.90011 0.46814 1.63839 0.68189 1.59042 0.94314L1.50324 1.41814C1.45528 1.67939 1.60807 1.97251 1.8428 2.0695L4.72498 3.2608L4.10519 6.63716H10.0389L10.4738 4.26814H13.4406C13.9868 4.26814 14.3515 4.69346 14.2553 5.21814L13.9948 6.63716C13.8984 7.16184 13.3777 7.58716 12.8314 7.58716H10.2446H9.8646H3.9308H1.02097C0.703962 7.58716 0.398869 7.83634 0.342944 8.14086L0.284644 8.45845C0.228768 8.76297 0.416027 9.08821 0.700898 9.18116L9.07061 11.9125L11.9143 12.8405C12.4051 13.0006 12.7248 13.5558 12.6285 14.0804L12.5113 14.7181C12.4151 15.2428 11.8943 15.6681 11.3481 15.6681H8.38126L8.88751 12.9101L3.26448 11.0751L1.50269 19.4681H11.3923C15.7118 19.4681 17.899 17.6938 18.3007 15.5051C18.3007 15.5051 18.3973 14.9794 18.5487 14.1547C19.0185 11.595 17.9506 11.1992 17.4999 11.0014C17.1494 10.8476 16.126 10.3426 16.126 10.3426L16.1347 10.2951C16.1347 10.2951 19.4109 9.45752 19.9318 6.61939Z" fill="url(#paint0_linear_1_10)"/>
<defs>
<linearGradient id="paint0_linear_1_10" x1="17.488" y1="0.404824" x2="2.42846" y2="19.8402" gradientUnits="userSpaceOnUse">
<stop stop-color="#50C7AD"/>
<stop offset="1" stop-color="#008F96"/>
</linearGradient>
</defs>
</svg>
