<svg width="33" height="32" viewBox="0 0 33 32" fill="none" xmlns="http://www.w3.org/2000/svg">
<circle cx="16.5224" cy="16.1136" r="15.6066" fill="#F3F4F5"/>
<path d="M21.6109 15.7592L17.2587 10.0372C17.1782 9.93103 17.0653 9.87102 16.947 9.87102H15.0768C14.7049 9.87102 14.5117 10.4128 14.765 10.7456L17.0947 13.8064H10.9481C10.5792 13.8064 10.2798 14.1723 10.2798 14.623V17.6047C10.2798 18.0554 10.5792 18.4212 10.9481 18.4212H17.0943L14.7647 21.4817C14.5114 21.8145 14.7045 22.3563 15.0764 22.3563H16.9466C17.0649 22.3563 17.1779 22.2962 17.2584 22.1901L21.6106 16.4676C21.7626 16.268 21.7626 15.9589 21.6109 15.7592V15.7592Z" fill="#1F304F"/>
</svg>
