<svg width="36" height="36" viewBox="0 0 36 36" fill="none" xmlns="http://www.w3.org/2000/svg">
<path d="M0.943873 13.5179L10.2211 17.8725C10.3144 17.9163 10.4187 17.9307 10.5205 17.9142L13.9068 17.3612C15.8421 17.0452 17.82 17.6892 19.198 19.0841L22.032 21.9531C22.2057 22.1288 22.2928 22.3615 22.2771 22.6081C22.2614 22.8547 22.1458 23.0745 21.9513 23.227C21.6558 23.4585 21.2356 23.4687 20.9294 23.2518L18.1662 21.2941C17.7741 21.0162 17.2517 21.0478 16.8958 21.3707L14.8765 23.2031C14.6676 23.3927 14.6519 23.7157 14.8415 23.9246C15.0311 24.1334 15.354 24.1492 15.563 23.9596L17.5756 22.1276L20.3388 24.0853C20.6618 24.3141 21.0426 24.4279 21.4228 24.4279C21.8341 24.4279 22.2447 24.2949 22.5815 24.0309C23.0022 23.7011 23.2628 23.2061 23.2966 22.6727C23.3305 22.1393 23.1344 21.6153 22.7588 21.2351L20.5119 18.9606C21.7001 18.6658 22.9579 18.7141 24.1252 19.1107L25.3226 19.5176C25.4532 19.562 25.589 19.5839 25.7244 19.5839C25.9369 19.5839 26.1483 19.5299 26.3372 19.4238C26.3396 19.4224 26.3419 19.4211 26.3443 19.4197L35.1728 14.2711C35.4165 14.129 35.4988 13.8162 35.3567 13.5725C35.2146 13.3288 34.9018 13.2466 34.6582 13.3886L25.8342 18.5345C25.7782 18.5651 25.7116 18.5708 25.6513 18.5503L24.4539 18.1435C22.9097 17.6188 21.2284 17.6189 19.6869 18.1375C18.0916 16.6671 15.8946 16.0016 13.7422 16.353L10.5119 16.8806L1.37797 12.5932C1.12258 12.4733 0.818424 12.5832 0.698559 12.8385C0.578694 13.0939 0.688479 13.3981 0.943873 13.5179Z" fill="#100F0D"/>
<path d="M35.448 23.0917C35.3243 22.8382 35.0183 22.7332 34.7649 22.8569L30.2708 25.0522C30.194 25.0897 30.1278 25.1459 30.0784 25.2156L29.7168 25.7254C29.282 26.3384 28.7191 26.8467 28.07 27.217C28.0196 27.1352 27.9621 27.0564 27.8971 26.9815L27.0045 25.9543C26.3543 25.2061 25.2166 25.1263 24.4684 25.7766L24.3949 25.8405C24.0146 26.1709 23.8074 26.6274 23.7806 27.0946C23.7727 27.0939 23.7649 27.0929 23.7571 27.0923C23.2782 27.0588 22.8147 27.2137 22.4522 27.5286L22.3786 27.5926C21.9981 27.9232 21.7909 28.38 21.7642 28.8475C21.2977 28.8086 20.8165 28.95 20.4361 29.2807L20.3624 29.3447C19.9819 29.6753 19.7747 30.1321 19.748 30.5995C19.2813 30.5607 18.8001 30.7022 18.4196 31.0329L18.3461 31.0968C17.9837 31.4118 17.7656 31.8489 17.732 32.328C17.6984 32.807 17.8534 33.2703 18.1683 33.6328L18.5997 34.1292L18.4275 34.2815C18.4244 34.2844 18.4212 34.2871 18.4181 34.29C18.0855 34.5994 17.5345 34.5916 17.2101 34.2745C16.9321 33.9687 16.9233 33.5031 17.1911 33.1875C17.3661 32.9814 17.3501 32.6745 17.1546 32.4877C16.959 32.3009 16.6518 32.2988 16.4538 32.483L16.3989 32.5341C16.0662 32.8435 15.5152 32.8356 15.1909 32.5185C14.9089 32.2086 14.9029 31.7394 15.1782 31.4233C15.3567 31.2183 15.3434 30.9096 15.1482 30.7207C14.953 30.5318 14.6439 30.5288 14.445 30.7139L14.4297 30.728C14.0971 31.0374 13.546 31.0296 13.2217 30.7125C12.943 30.4061 12.9347 29.9399 13.2037 29.6243C13.3615 29.4391 13.3668 29.1682 13.2163 28.9771C13.0658 28.7859 12.8014 28.7275 12.5843 28.8372C12.248 29.0075 11.8397 28.928 11.5913 28.6442C11.3023 28.3139 11.3389 27.7919 11.6723 27.4779L12.2216 26.9915L13.935 25.4366C14.1439 25.247 14.1596 24.924 13.97 24.7151C13.7804 24.5062 13.4574 24.4905 13.2485 24.6801L11.5397 26.2308L10.9898 26.7178C10.9868 26.7206 10.9836 26.7234 10.9806 26.7262C10.699 26.9882 10.5149 27.3199 10.4308 27.6711L10.427 27.6689C9.4905 27.1382 8.67365 26.4436 7.99907 25.6047L7.70785 25.2425C7.66086 25.1841 7.6016 25.1367 7.53425 25.1037L1.38539 22.0957C1.13197 21.9719 0.82604 22.0767 0.702089 22.3301C0.578138 22.5835 0.683087 22.8894 0.936438 23.0134L6.98307 25.9713L7.20299 26.2448C7.95882 27.1847 8.87401 27.9629 9.9233 28.5576L10.5597 28.9183C10.628 29.0598 10.7152 29.1942 10.8226 29.3168C11.1332 29.6717 11.5555 29.8838 11.9991 29.9354C11.9358 30.459 12.0972 31.0035 12.48 31.415C12.4843 31.4195 12.4885 31.4239 12.4928 31.4283C12.8877 31.8232 13.4258 32.0062 13.9532 31.9738C13.9558 32.4219 14.1216 32.8689 14.4492 33.221C14.4534 33.2255 14.4577 33.2299 14.462 33.2342C14.87 33.6423 15.431 33.824 15.9751 33.7759C15.9882 34.2092 16.1533 34.6382 16.4683 34.9769C16.4725 34.9814 16.4768 34.9858 16.4811 34.9902C16.8465 35.3556 17.3346 35.5393 17.8231 35.5393C18.286 35.5393 18.7492 35.3743 19.1087 35.0425L19.2909 34.8813C19.5746 35.1105 19.9206 35.2479 20.292 35.2739C20.335 35.2769 20.3778 35.2784 20.4205 35.2784C20.8533 35.2784 21.2669 35.1243 21.5968 34.8376L21.6705 34.7736C22.051 34.4429 22.2582 33.9861 22.2848 33.5186C22.3348 33.5227 22.385 33.5254 22.4352 33.5254C22.8535 33.5254 23.2735 33.3807 23.6132 33.0854L23.6867 33.0216C24.0673 32.6908 24.2745 32.2341 24.3011 31.7665C24.3511 31.7707 24.4012 31.7733 24.4515 31.7733C24.8697 31.7733 25.2898 31.6286 25.6295 31.3334L25.703 31.2695C26.0654 30.9545 26.2835 30.5173 26.3171 30.0383C26.3177 30.0303 26.3178 30.0224 26.3182 30.0144C26.3679 30.0185 26.4179 30.0212 26.4678 30.0212C26.886 30.0212 27.306 29.8765 27.6457 29.5813L27.7193 29.5173C28.1073 29.1801 28.3151 28.7117 28.335 28.2345C29.215 27.7831 29.9758 27.1259 30.5501 26.3162L30.8363 25.9127L35.2133 23.7747C35.4668 23.6511 35.5719 23.3452 35.448 23.0917ZM21.0007 34.0027L20.927 34.0667C20.7705 34.2026 20.571 34.2696 20.3637 34.2551C20.1569 34.2406 19.9681 34.1464 19.8322 33.9899L18.9395 32.9627C18.8035 32.8063 18.7366 32.6062 18.7511 32.3994C18.7657 32.1926 18.8598 32.0039 19.0163 31.8679L19.0898 31.804C19.2365 31.6765 19.4178 31.614 19.5984 31.614C19.8154 31.614 20.0314 31.7044 20.1846 31.8807L21.0773 32.908C21.3579 33.2309 21.3235 33.722 21.0007 34.0027ZM23.0167 32.2507L22.9432 32.3146C22.6203 32.5952 22.1291 32.5608 21.8484 32.2378L20.9557 31.2105C20.675 30.8875 20.7094 30.3964 21.0323 30.1158L21.106 30.0518C21.429 29.7711 21.9201 29.8055 22.2009 30.1285L23.0935 31.1557C23.3742 31.4788 23.3398 31.9699 23.0167 32.2507ZM25.2982 29.967C25.2836 30.1738 25.1895 30.3626 25.033 30.4986L24.9595 30.5625C24.6364 30.8431 24.1453 30.8088 23.8646 30.4857L22.972 29.4584C22.6912 29.1354 22.7257 28.6442 23.0486 28.3636L23.1223 28.2996C23.2647 28.1759 23.4432 28.1093 23.6302 28.1093C23.6486 28.1093 23.6671 28.11 23.6856 28.1112C23.8924 28.1258 24.0812 28.2199 24.2171 28.3764L25.1098 29.4036C25.2458 29.5602 25.3127 29.7602 25.2982 29.967ZM27.0493 28.7464L26.9757 28.8103C26.6528 29.091 26.1616 29.0566 25.8809 28.7336L24.9882 27.7064C24.8522 27.5499 24.7853 27.3498 24.7998 27.1431C24.8143 26.9363 24.9085 26.7475 25.065 26.6115L25.1385 26.5476C25.4615 26.267 25.9527 26.3014 26.2334 26.6244L27.126 27.6516C27.4068 27.9746 27.3723 28.4657 27.0493 28.7464Z" fill="#100F0D"/>
<path d="M16.2277 14.9435L17.6415 15.462C17.7713 15.5096 17.9077 15.5335 18.0442 15.5335C18.1806 15.5335 18.317 15.5096 18.4469 15.462L19.8606 14.9435C21.1402 14.4743 22.2831 13.6781 23.1658 12.6411C24.0386 11.6157 24.6395 10.377 24.9032 9.05892C24.9586 8.78228 24.7793 8.5132 24.5026 8.45783C24.2257 8.40232 23.9569 8.58185 23.9015 8.85842C23.4332 11.1984 21.75 13.1625 19.5089 13.9843L18.0951 14.5028C18.0622 14.5149 18.0261 14.5149 17.9932 14.5028L16.5794 13.9843C13.8715 12.9913 12.0521 10.3862 12.0521 7.50197V3.06248C12.0521 2.94186 12.138 2.8376 12.2564 2.81458L18.0756 1.68124L23.8324 2.81349C23.9504 2.83671 24.0362 2.94098 24.0362 3.06132V6.78156C24.0362 7.06365 24.2649 7.29235 24.547 7.29235C24.8291 7.29235 25.0578 7.06365 25.0578 6.78156V3.06125C25.0578 2.45403 24.6253 1.92826 24.0295 1.81112L18.1747 0.659597C18.1099 0.646861 18.0433 0.646793 17.9785 0.659393L12.0611 1.8118C11.4639 1.92812 11.0305 2.4541 11.0305 3.06248V7.50211C11.0305 10.813 13.1191 13.8036 16.2277 14.9435Z" fill="#100F0D"/>
<path d="M18.1727 2.7415C18.1079 2.7287 18.0413 2.7287 17.9765 2.7413L13.4867 3.61563C13.2468 3.66235 13.0736 3.87252 13.0736 4.11702V7.50204C13.0736 9.95954 14.6238 12.1792 16.9311 13.0253L17.8682 13.369C17.9249 13.3898 17.9845 13.4001 18.044 13.4001C18.1036 13.4001 18.1632 13.3897 18.2199 13.369L19.1571 13.0253C21.4644 12.1792 23.0146 9.95954 23.0146 7.50204V4.11389C23.0146 3.8698 22.8418 3.65983 22.6023 3.6127L18.1727 2.7415ZM21.993 7.50204C21.993 9.5328 20.712 11.367 18.8054 12.0662L18.0441 12.3454L17.2828 12.0662C15.3762 11.367 14.0952 9.53287 14.0952 7.50211V4.53798L18.0737 3.76321L21.993 4.53403V7.50204Z" fill="#100F0D"/>
<path d="M16.7333 8.44858C16.5278 8.2553 16.2046 8.26531 16.0113 8.47078C15.8181 8.67632 15.828 8.99955 16.0335 9.19283L16.858 9.96814C16.953 10.0575 17.0782 10.1068 17.2078 10.1068C17.2186 10.1068 17.2295 10.1065 17.2404 10.1058C17.3815 10.0968 17.5124 10.0297 17.6023 9.9206L20.2727 6.6758C20.452 6.458 20.4207 6.13607 20.2029 5.95682C19.9851 5.77757 19.6632 5.80883 19.4839 6.02663L17.1602 8.85006L16.7333 8.44858Z" fill="#100F0D"/>
</svg>
