<svg width="24" height="24" viewBox="0 0 24 24" fill="none" xmlns="http://www.w3.org/2000/svg">
<circle cx="12" cy="12" r="11.25" fill="white" stroke="#100F0D" stroke-width="0.5"/>
<path d="M12.9218 12.1352L16.3105 8.74653C16.5279 8.52923 16.5279 8.17737 16.3105 7.96002C16.0932 7.74264 15.7414 7.74259 15.524 7.96L12.1353 11.3487L8.74657 7.96002C8.52926 7.74266 8.17739 7.74259 7.96003 7.95998C7.74266 8.17734 7.74264 8.52915 7.96003 8.74652L11.3487 12.1352L7.96002 15.5239C7.74315 15.7408 7.74315 16.0936 7.96002 16.3105C8.17735 16.5278 8.5292 16.5279 8.74655 16.3105L12.1352 12.9217L15.5239 16.3104C15.7412 16.5278 16.0931 16.5278 16.3105 16.3105C16.5278 16.0931 16.5279 15.7413 16.3105 15.5239L12.9218 12.1352Z" fill="#100F0D"/>
<path d="M12.9219 12.1353L16.3106 8.7466C16.528 8.52929 16.528 8.17743 16.3106 7.96008C16.0933 7.74271 15.7415 7.74265 15.5241 7.96006L12.1354 11.3488V12.9219L15.5241 16.3106C15.7414 16.5279 16.0932 16.5279 16.3106 16.3106C16.528 16.0932 16.528 15.7414 16.3106 15.524L12.9219 12.1353Z" fill="#100F0D"/>
</svg>
