<svg width="29" height="28" viewBox="0 0 29 28" fill="none" xmlns="http://www.w3.org/2000/svg">
<path d="M27.5864 5.44447H25.6581V5.19413C25.6581 4.68823 25.2465 4.27669 24.7406 4.27669H23.1632C22.9281 4.27669 22.7376 4.46717 22.7376 4.70224C22.7376 4.93732 22.9281 5.1278 23.1632 5.1278H24.7406C24.7772 5.1278 24.807 5.15753 24.807 5.19413V21.5941H17.2586C16.2462 21.5941 15.3375 22.0448 14.7209 22.7554V5.97329C14.7312 5.507 15.1188 5.1278 15.5852 5.1278H17.1599C17.395 5.1278 17.5855 4.93732 17.5855 4.70224C17.5855 4.46717 17.395 4.27669 17.1599 4.27669H15.5852C15.076 4.27669 14.6142 4.50444 14.2983 4.86339C13.9832 4.5024 13.5189 4.27669 12.9982 4.27669H3.90716C3.40126 4.27669 2.98972 4.68823 2.98972 5.19413V5.44447H0.999544C0.448365 5.44447 0 5.89283 0 6.44395V25.2696C0 26.4995 1.00057 27.5 2.23048 27.5H26.3555C27.5854 27.5 28.586 26.4995 28.586 25.2696V6.44395C28.5859 5.89283 28.1375 5.44447 27.5864 5.44447ZM3.84083 22.4452H11.3892C12.6347 22.4452 13.6708 23.3576 13.8652 24.5491H4.13827C3.97429 24.5491 3.84089 24.4157 3.84089 24.2517L3.84083 22.4452ZM3.90716 5.1278H12.9982C13.4735 5.1278 13.8559 5.49945 13.8698 5.97426V22.6902C13.2549 22.0171 12.3705 21.5941 11.3891 21.5941H3.84083V5.19413C3.84083 5.15753 3.87062 5.1278 3.90716 5.1278ZM27.7348 25.2696C27.7348 26.0301 27.116 26.6489 26.3554 26.6489H2.23048C1.46992 26.6489 0.85111 26.0302 0.85111 25.2696V6.44395C0.85111 6.36213 0.917667 6.29558 0.999544 6.29558H2.98978V24.2517C2.98978 24.885 3.50499 25.4002 4.13827 25.4002H17.9995C18.2345 25.4002 18.425 25.2097 18.425 24.9747C18.425 24.7396 18.2345 24.5491 17.9995 24.5491H14.7827C14.977 23.3576 16.0131 22.4452 17.2586 22.4452H24.8069V24.2517C24.8069 24.4157 24.6735 24.5491 24.5095 24.5491H19.8131C19.578 24.5491 19.3875 24.7396 19.3875 24.9747C19.3875 25.2097 19.578 25.4002 19.8131 25.4002H24.5095C25.1428 25.4002 25.658 24.885 25.658 24.2517V6.29558H27.5863C27.6681 6.29558 27.7347 6.36213 27.7347 6.44395V25.2696H27.7348Z" fill="#100F0D"/>
<path d="M19.5136 20.5026C19.6703 20.7039 19.9065 20.8194 20.1616 20.8194C20.4167 20.8194 20.6528 20.7039 20.8095 20.5026L21.7136 19.3405C21.8251 19.1971 21.8865 19.0181 21.8865 18.8364V1.45046C21.8865 0.650645 21.2358 0 20.4361 0H19.8872C19.0874 0 18.4367 0.650702 18.4367 1.45046V10.9949C18.4367 11.2299 18.6272 11.4204 18.8623 11.4204C19.0973 11.4204 19.2878 11.2299 19.2878 10.9949V3.00805H21.0355V18.826L20.1617 19.9493L19.2879 18.826V12.8084C19.2879 12.5733 19.0974 12.3829 18.8623 12.3829C18.6272 12.3829 18.4368 12.5733 18.4368 12.8084V18.8364C18.4368 19.018 18.4982 19.197 18.6097 19.3404L19.5136 20.5026ZM19.2878 2.15694V1.45052C19.2878 1.12 19.5566 0.851167 19.8871 0.851167H20.436C20.7665 0.851167 21.0354 1.12 21.0354 1.45052V2.15694H19.2878Z" fill="#100F0D"/>
<path d="M8.75613 15.6713C9.18861 15.6713 9.61394 15.598 10.0203 15.4533C10.2417 15.3745 10.3574 15.1311 10.2785 14.9097C10.1997 14.6883 9.95631 14.5727 9.73491 14.6515C9.42039 14.7634 9.09102 14.8202 8.75608 14.8202C8.10464 14.8202 7.50239 14.6055 7.01624 14.2433L9.05697 12.2026C9.1368 12.1228 9.18163 12.0146 9.18163 11.9017V9.01446C10.5899 9.22111 11.6746 10.4369 11.6746 11.9016C11.6746 12.5739 11.4519 13.206 11.0305 13.7295C10.8832 13.9126 10.9122 14.1804 11.0952 14.3278C11.2784 14.4752 11.5462 14.4462 11.6935 14.2631C12.2301 13.5964 12.5257 12.7578 12.5257 11.9016C12.5257 9.82302 10.8347 8.13197 8.75608 8.13197C6.67749 8.13197 4.98645 9.82302 4.98645 11.9016C4.98645 13.9802 6.67761 15.6713 8.75613 15.6713ZM8.33058 9.01452V11.7254L6.41444 13.6415C6.05227 13.1553 5.83762 12.5531 5.83762 11.9017C5.83762 10.437 6.92239 9.22117 8.33058 9.01452Z" fill="#100F0D"/>
<path d="M5.60805 7.19536H12.1002C12.3352 7.19536 12.5257 7.00489 12.5257 6.76981C12.5257 6.53473 12.3352 6.34425 12.1002 6.34425H5.60805C5.37303 6.34425 5.1825 6.53473 5.1825 6.76981C5.1825 7.00489 5.37303 7.19536 5.60805 7.19536Z" fill="#100F0D"/>
<path d="M12.1002 16.7995H5.60805C5.37303 16.7995 5.1825 16.99 5.1825 17.2251C5.1825 17.4602 5.37303 17.6506 5.60805 17.6506H12.1002C12.3352 17.6506 12.5257 17.4602 12.5257 17.2251C12.5257 16.99 12.3352 16.7995 12.1002 16.7995Z" fill="#100F0D"/>
<path d="M12.1002 18.975H5.60805C5.37303 18.975 5.1825 19.1655 5.1825 19.4006C5.1825 19.6357 5.37303 19.8261 5.60805 19.8261H12.1002C12.3352 19.8261 12.5257 19.6357 12.5257 19.4006C12.5257 19.1655 12.3352 18.975 12.1002 18.975Z" fill="#100F0D"/>
</svg>
