<svg width="41" height="41" viewBox="0 0 41 41" fill="none" xmlns="http://www.w3.org/2000/svg">
<rect width="40.88" height="40.88" rx="5" fill="#4B5BB2"/>
<path d="M20.4003 34.9033C16.4437 34.9033 12.7531 33.3333 10.0083 30.4822C7.26482 27.6327 5.83675 23.8811 5.98737 19.9188C6.27141 12.4359 12.356 6.35137 19.839 6.06734C23.7993 5.91436 27.5529 7.34477 30.4025 10.0882C33.2536 12.833 34.8237 16.5236 34.8237 20.4801C34.8237 24.1178 33.6115 27.4265 31.4102 29.7967C30.4607 30.8193 28.7932 31.3679 27.4439 30.4395C26.1727 29.5644 26.2089 28.0975 26.2353 27.0264C26.239 26.8812 26.2425 26.7376 26.243 26.5973C26.249 25.1913 26.247 23.7849 26.2452 22.3785L26.243 20.2662C26.243 19.8611 26.5713 19.5328 26.9765 19.5328H27.9298L25.6903 17.2933C25.5526 17.1558 25.4755 16.9694 25.4755 16.7749V12.9807H24.7502V14.5827C24.7502 14.8794 24.5715 15.1467 24.2975 15.2602C24.0237 15.3739 23.708 15.3113 23.4983 15.1012L20.6599 12.2629C20.5662 12.1694 20.457 12.1554 20.4003 12.1554C20.3434 12.1554 20.2343 12.1694 20.1406 12.2629L12.8706 19.5328H13.8239C14.229 19.5328 14.5573 19.8611 14.5573 20.2662V27.5004H17.2158V23.5152C17.2158 22.742 17.845 22.113 18.6182 22.113H22.1209C22.8941 22.113 23.5231 22.742 23.5231 23.5152V28.2246C23.5231 28.6297 23.1948 28.958 22.7897 28.958C22.3846 28.958 22.0563 28.6297 22.0563 28.2246V23.5798H18.6826V27.565C18.6826 28.3382 18.0536 28.9672 17.2804 28.9672H14.4929C13.7195 28.9672 13.0905 28.3382 13.0905 27.565V20.9996H12.0974C11.632 20.9996 11.2163 20.7218 11.0381 20.2919C10.86 19.8621 10.9574 19.3716 11.2865 19.0426L19.1035 11.2258C19.4497 10.8794 19.9102 10.6886 20.4003 10.6886C20.8901 10.6886 21.3506 10.8794 21.697 11.2258L23.2834 12.8121V12.2473C23.2834 11.8422 23.6117 11.5139 24.0168 11.5139H26.2089C26.6139 11.5139 26.9422 11.8422 26.9422 12.2473V16.471L29.5138 19.0424C29.843 19.3715 29.9404 19.862 29.7623 20.2918C29.5843 20.7218 29.1685 20.9996 28.7031 20.9996H27.7106L27.7118 22.3765C27.7138 23.7855 27.7158 25.1945 27.7099 26.6034C27.7092 26.7537 27.7054 26.9073 27.7017 27.0626C27.6749 28.1477 27.7001 28.8353 28.2756 29.2312C28.9327 29.6838 29.8273 29.3459 30.3354 28.7986C32.2839 26.7006 33.3569 23.7464 33.3569 20.4801C33.3569 16.9259 31.9464 13.6106 29.3852 11.1449C26.8254 8.68064 23.4552 7.39861 19.8946 7.53294C13.1733 7.78822 7.70827 13.2532 7.45299 19.9744C7.31774 23.5347 8.6007 26.9052 11.065 29.4649C13.5308 32.0261 16.8461 33.4365 20.4003 33.4365C20.8054 33.4365 21.1337 33.765 21.1337 34.1699C21.1337 34.575 20.8054 34.9033 20.4003 34.9033Z" fill="white"/>
</svg>
