<svg width="259" height="42" viewBox="0 0 259 42" fill="none" xmlns="http://www.w3.org/2000/svg">
<path d="M10.077 21.6153C8.60476 22.4308 6.84555 22.1438 5.3053 23.0725C5.14674 20.7168 5.20714 18.565 5.6375 16.4434C5.82626 15.5374 5.6677 14.8503 5.20714 14.0651C2.94207 10.2069 2.06624 6.20527 4.23316 1.96958C4.85983 2.02999 4.52762 2.4528 4.52762 2.74726C4.52762 4.27996 4.76168 5.7749 5.3355 7.2321C5.72055 6.90744 5.4714 6.55258 5.41855 6.24302C5.28264 5.48044 5.22979 4.72542 5.29019 3.9553C5.35059 3.14742 5.26754 2.11304 5.81116 1.65248C6.39253 1.16171 7.09473 2.06773 7.7516 2.32444C10.3941 3.37393 13.0217 2.93602 15.6491 2.30935C19.5979 1.38066 23.5165 0.240578 27.6238 0.0216211C29.1716 -0.0614315 30.6816 0.0895733 32.1464 0.565238C34.6758 1.38066 36.3368 3.08702 37.0843 5.63145C37.2429 6.16751 37.4165 6.46198 38.0054 6.64318C42.9055 8.16078 45.1479 11.8075 45.835 16.6321C46.0917 18.4064 46.0841 20.1808 45.8954 21.9777C45.8048 22.8913 45.5707 23.1253 44.7704 22.6648C44.3476 22.4232 43.736 22.4685 43.5321 21.8795C43.1773 21.3511 43.2377 20.7395 43.1999 20.1506C43.0339 17.5231 41.9316 15.3335 40.1345 13.4535C39.5003 12.7891 39.0398 12.7437 38.3905 13.5064C35.7176 16.6473 32.5541 19.086 28.477 20.1355C26.1591 20.7319 23.8185 21.1397 21.4175 20.815C20.8664 20.7395 19.9452 20.8528 19.8999 20.2261C19.8471 19.5692 20.7682 19.5768 21.3118 19.4408C23.3051 18.9425 25.2153 18.2404 27.0122 17.2588C27.6011 16.9342 28.1674 16.5868 28.7715 15.9149C24.8378 15.56 21.1306 14.7144 17.3555 15.0995C14.3656 15.4015 12.2817 17.1078 10.9906 19.8033C10.7037 20.4148 10.4848 21.0641 10.077 21.6153Z" fill="#1F304F"/>
<path d="M20.5644 24.9147C24.0375 26.1907 27.488 25.6999 30.9687 24.8845C37.2807 23.4121 43.5474 23.9936 49.7763 25.4583C50.5313 25.6395 50.8408 26.085 50.8182 26.8249C50.7956 27.4591 50.7352 28.1008 50.7352 28.7351C50.7352 29.2561 50.6823 29.6487 49.9952 29.5883C49.3837 29.5354 49.3761 30.0337 49.3157 30.449C49.1194 31.876 49.0439 33.3257 48.6664 34.73C47.5943 38.6788 44.5062 41.2459 40.4442 41.5931C38.5717 41.7517 36.7143 41.7819 34.8419 41.563C32.9317 41.3364 31.3537 40.5588 30.1532 39.0412C28.5978 37.0706 27.5182 34.8886 27.3218 32.3441C27.2011 30.7586 26.7405 30.2527 25.3739 30.2754C23.9545 30.298 23.4637 30.8492 23.3655 32.48C23.1994 35.2585 22.0744 37.5538 20.1944 39.6377C16.8497 43.3373 4.78439 42.7408 2.46647 35.8701C1.9002 34.1486 1.55289 32.4121 1.62839 30.6076C1.64349 30.1319 1.70389 29.5883 1.00172 29.626C0.0730422 29.6713 0.0201902 29.1126 0.00508969 28.4105C-0.0402118 25.7981 0.163645 25.5036 2.83643 25.0128C8.65012 23.9407 14.4789 23.6765 20.3153 24.892C20.4058 24.8014 20.4889 24.8165 20.5644 24.9147Z" fill="#1F304F"/>
<path d="M34.5172 3.31351C30.4401 1.19945 26.529 1.86387 22.6407 3.15497C20.0962 4.00814 17.5442 4.75562 14.8111 4.3177C13.6407 4.12894 12.5535 3.74388 11.3682 2.67175C16.6911 3.75143 21.1004 1.32781 25.7665 0.368924C27.654 -0.0161385 29.5491 -0.159593 31.4216 0.482177C32.7882 0.942741 33.8377 1.76572 34.5172 3.31351Z" fill="#FDFEFD"/>
<path d="M12.5912 26.6816C15.2263 26.6665 17.5215 27.0365 19.764 27.7462C21.1004 28.169 21.9158 29.0675 21.8101 30.3208C21.5685 33.1521 20.9267 35.8476 18.7296 37.9088C16.2305 40.257 11.0812 40.6948 7.71381 38.8073C4.42944 36.9726 2.89674 33.4466 3.67442 29.7092C3.89337 28.6447 4.51249 28.0784 5.47137 27.799C7.89499 27.1045 10.3488 26.6288 12.5912 26.6816Z" fill="white"/>
<path d="M46.3259 34.1713C46.4996 36.1042 45.435 37.4331 44.0306 38.4674C41.8108 40.0983 39.2287 39.7208 36.6767 39.6227C32.8562 39.4792 30.6818 37.4331 29.6625 33.9298C29.2171 32.3895 29.436 30.8115 29.5568 29.2562C29.6021 28.6446 29.9796 28.116 30.5912 27.9122C33.8906 26.8476 37.2505 26.3569 40.7085 27.0062C41.4258 28.5464 41.0407 30.1773 41.086 31.7628C41.1464 34.0656 41.1011 34.0505 43.4341 34.0204C44.4081 34.0128 45.3896 33.6806 46.3259 34.1713Z" fill="white"/>
<path d="M46.3258 34.1714C44.7252 34.2167 43.117 34.2318 41.5163 34.3073C40.7839 34.3375 40.6933 33.96 40.7008 33.3635C40.7235 31.2419 40.716 29.1278 40.7235 27.0062C42.6941 29.3091 44.7252 31.5741 46.3258 34.1714Z" fill="#E5E5E5"/>
<path d="M11.9268 33.6353C10.1449 33.6353 8.3555 33.6429 6.57365 33.6278C6.23389 33.6278 5.78842 33.7863 5.77332 33.1294C5.76577 32.5028 6.10553 32.4575 6.57365 32.4575C10.1449 32.4651 13.7162 32.4726 17.2875 32.4575C17.7858 32.4575 18.0802 32.533 18.0727 33.137C18.0651 33.8014 17.6196 33.6202 17.2799 33.6278C15.4905 33.6353 13.7086 33.6353 11.9268 33.6353Z" fill="#1F304F"/>
<path d="M12.0099 36.9498C10.5225 36.9498 9.03505 36.9498 7.54767 36.9498C7.17014 36.9498 6.77755 37.0253 6.79266 36.4062C6.80776 35.8777 7.04938 35.772 7.50991 35.772C10.5301 35.7795 13.5426 35.7795 16.5626 35.772C16.9779 35.772 17.2875 35.8022 17.3101 36.3684C17.3403 37.0857 16.8722 36.9422 16.4721 36.9498C14.9846 36.9573 13.4973 36.9498 12.0099 36.9498Z" fill="#1F304F"/>
<path d="M12.0175 30.2754C10.8322 30.2754 9.63924 30.2679 8.45387 30.2829C8.01592 30.2905 7.73657 30.215 7.73657 29.6714C7.73657 29.1278 8.00837 29.0522 8.45387 29.0522C10.9605 29.0598 13.4672 29.0598 15.9664 29.0522C16.359 29.0522 16.6157 29.1278 16.6308 29.5959C16.6383 30.0715 16.4873 30.2905 15.9739 30.2829C14.645 30.2603 13.3313 30.2754 12.0175 30.2754Z" fill="#1F304F"/>
<path d="M32.9997 37.2292C32.5768 36.4515 32.8864 36.1722 33.6867 36.1722C36.6842 36.1797 39.6816 36.1949 42.6866 36.1646C43.6002 36.1571 43.5171 36.6025 43.2982 37.199C40.3234 37.4708 37.341 37.2821 34.3663 37.2896C33.9208 37.2896 33.4452 37.418 32.9997 37.2292Z" fill="#1F304F"/>
<path d="M35.1819 32.465C36.0728 32.465 36.9637 32.4801 37.8547 32.4575C38.3681 32.4424 38.4965 32.684 38.4965 33.1521C38.5041 33.6504 38.2397 33.6957 37.8547 33.6882C36.0275 33.6806 34.2079 33.6731 32.3808 33.6806C32.0032 33.6806 31.7314 33.6504 31.7314 33.1446C31.7314 32.6764 31.8598 32.4424 32.3732 32.4575C33.317 32.4801 34.2532 32.465 35.1819 32.465Z" fill="#1F304F"/>
<path d="M34.5401 28.8863C35.3027 28.8863 36.0652 28.9014 36.8203 28.8787C37.3186 28.8636 37.4772 29.0674 37.4772 29.5507C37.4696 30.0112 37.2733 30.1094 36.858 30.1018C35.2951 30.0867 33.7247 30.0716 32.1618 30.1018C31.6484 30.1094 31.52 29.9282 31.52 29.445C31.52 28.9769 31.7163 28.8712 32.124 28.8787C32.9319 28.9014 33.7398 28.8938 34.5401 28.8863Z" fill="#1F304F"/>
<path d="M32.9998 37.2293C33.7774 36.8442 34.5627 37.2066 35.3478 37.1991C37.998 37.1689 40.6481 37.1915 43.2983 37.1991C43.2379 37.3954 43.0869 37.418 42.9056 37.418C39.7496 37.418 36.5936 37.418 33.4376 37.4029C33.2942 37.4105 33.1507 37.2972 32.9998 37.2293Z" fill="#1F304F"/>
<path d="M55.2847 31.8705L65.1056 10.0461H69.0963L78.9488 31.8705H74.7087L66.2592 12.1974H67.8804L59.4625 31.8705H55.2847ZM59.8054 26.8197L60.8966 23.6396H72.6821L73.7733 26.8197H59.8054ZM88.8363 32.0887C87.0903 32.0887 85.5315 31.725 84.1596 30.9975C82.8086 30.2492 81.7486 29.2308 80.9795 27.9421C80.2105 26.6534 79.826 25.1881 79.826 23.546C79.826 21.8832 80.2105 20.4179 80.9795 19.15C81.7486 17.8613 82.8086 16.8533 84.1596 16.1258C85.5315 15.3983 87.0903 15.0346 88.8363 15.0346C90.4575 15.0346 91.8813 15.3671 93.1076 16.0322C94.3547 16.6766 95.3004 17.6327 95.9448 18.9006L92.9517 20.6465C92.4529 19.8567 91.8397 19.2747 91.1122 18.9006C90.4056 18.5265 89.6365 18.3394 88.8051 18.3394C87.849 18.3394 86.9864 18.5472 86.2174 18.9629C85.4483 19.3786 84.8455 19.9814 84.4091 20.7712C83.9726 21.5403 83.7543 22.4652 83.7543 23.546C83.7543 24.6269 83.9726 25.5622 84.4091 26.352C84.8455 27.1211 85.4483 27.7135 86.2174 28.1292C86.9864 28.5449 87.849 28.7527 88.8051 28.7527C89.6365 28.7527 90.4056 28.5656 91.1122 28.1915C91.8397 27.8174 92.4529 27.2354 92.9517 26.4456L95.9448 28.1915C95.3004 29.4386 94.3547 30.4051 93.1076 31.091C91.8813 31.7562 90.4575 32.0887 88.8363 32.0887ZM106.709 32.0887C104.963 32.0887 103.404 31.725 102.032 30.9975C100.681 30.2492 99.621 29.2308 98.8519 27.9421C98.0829 26.6534 97.6983 25.1881 97.6983 23.546C97.6983 21.8832 98.0829 20.4179 98.8519 19.15C99.621 17.8613 100.681 16.8533 102.032 16.1258C103.404 15.3983 104.963 15.0346 106.709 15.0346C108.33 15.0346 109.754 15.3671 110.98 16.0322C112.227 16.6766 113.173 17.6327 113.817 18.9006L110.824 20.6465C110.325 19.8567 109.712 19.2747 108.985 18.9006C108.278 18.5265 107.509 18.3394 106.677 18.3394C105.721 18.3394 104.859 18.5472 104.09 18.9629C103.321 19.3786 102.718 19.9814 102.281 20.7712C101.845 21.5403 101.627 22.4652 101.627 23.546C101.627 24.6269 101.845 25.5622 102.281 26.352C102.718 27.1211 103.321 27.7135 104.09 28.1292C104.859 28.5449 105.721 28.7527 106.677 28.7527C107.509 28.7527 108.278 28.5656 108.985 28.1915C109.712 27.8174 110.325 27.2354 110.824 26.4456L113.817 28.1915C113.173 29.4386 112.227 30.4051 110.98 31.091C109.754 31.7562 108.33 32.0887 106.709 32.0887ZM124.425 32.0887C122.721 32.0887 121.203 31.725 119.873 30.9975C118.543 30.2492 117.493 29.2308 116.724 27.9421C115.955 26.6534 115.571 25.1881 115.571 23.546C115.571 21.8832 115.955 20.4179 116.724 19.15C117.493 17.8613 118.543 16.8533 119.873 16.1258C121.203 15.3983 122.721 15.0346 124.425 15.0346C126.15 15.0346 127.678 15.3983 129.008 16.1258C130.359 16.8533 131.409 17.8509 132.157 19.1188C132.926 20.3867 133.311 21.8625 133.311 23.546C133.311 25.1881 132.926 26.6534 132.157 27.9421C131.409 29.2308 130.359 30.2492 129.008 30.9975C127.678 31.725 126.15 32.0887 124.425 32.0887ZM124.425 28.7527C125.381 28.7527 126.233 28.5449 126.982 28.1292C127.73 27.7135 128.312 27.1107 128.728 26.3209C129.164 25.531 129.382 24.6061 129.382 23.546C129.382 22.4652 129.164 21.5403 128.728 20.7712C128.312 19.9814 127.73 19.3786 126.982 18.9629C126.233 18.5472 125.392 18.3394 124.456 18.3394C123.5 18.3394 122.648 18.5472 121.9 18.9629C121.172 19.3786 120.59 19.9814 120.154 20.7712C119.717 21.5403 119.499 22.4652 119.499 23.546C119.499 24.6061 119.717 25.531 120.154 26.3209C120.59 27.1107 121.172 27.7135 121.9 28.1292C122.648 28.5449 123.49 28.7527 124.425 28.7527ZM144.084 32.0887C142.67 32.0887 141.423 31.8289 140.342 31.3093C139.262 30.7689 138.42 29.9582 137.817 28.8774C137.214 27.7758 136.913 26.3936 136.913 24.7308V15.2216H140.81V24.2008C140.81 25.6973 141.143 26.8197 141.808 27.568C142.494 28.2954 143.46 28.6592 144.707 28.6592C145.622 28.6592 146.412 28.4721 147.077 28.098C147.763 27.7238 148.293 27.1627 148.667 26.4144C149.062 25.6661 149.259 24.7412 149.259 23.6396V15.2216H153.156V31.8705H149.446V27.3809L150.101 28.7527C149.54 29.8335 148.719 30.6649 147.638 31.2469C146.557 31.8081 145.372 32.0887 144.084 32.0887ZM167.705 15.0346C169.036 15.0346 170.22 15.2944 171.26 15.814C172.32 16.3336 173.151 17.1339 173.754 18.2147C174.356 19.2747 174.658 20.6465 174.658 22.3301V31.8705H170.761V22.829C170.761 21.3532 170.407 20.2516 169.701 19.5241C169.015 18.7967 168.048 18.4329 166.801 18.4329C165.887 18.4329 165.076 18.62 164.369 18.9941C163.663 19.3682 163.112 19.9294 162.717 20.6777C162.343 21.4052 162.156 22.3301 162.156 23.4525V31.8705H158.258V15.2216H161.969V19.7112L161.314 18.3394C161.896 17.2793 162.738 16.4687 163.839 15.9075C164.962 15.3256 166.25 15.0346 167.705 15.0346ZM185.869 32.0887C184.04 32.0887 182.626 31.6211 181.628 30.6857C180.631 29.7296 180.132 28.3266 180.132 26.4767V11.5427H184.029V26.3832C184.029 27.173 184.227 27.7862 184.622 28.2227C185.037 28.6592 185.609 28.8774 186.336 28.8774C187.209 28.8774 187.937 28.6488 188.519 28.1915L189.61 30.9663C189.153 31.3405 188.591 31.6211 187.926 31.8081C187.261 31.9952 186.575 32.0887 185.869 32.0887ZM177.388 18.4641V15.3463H188.488V18.4641H177.388ZM203.073 31.8705V28.5033L202.855 27.7862V21.8936C202.855 20.7505 202.512 19.8671 201.826 19.2435C201.14 18.5992 200.101 18.277 198.708 18.277C197.773 18.277 196.848 18.4225 195.933 18.7135C195.04 19.0045 194.281 19.4098 193.658 19.9294L192.13 17.0923C193.024 16.4064 194.084 15.8971 195.31 15.5646C196.557 15.2112 197.846 15.0346 199.176 15.0346C201.587 15.0346 203.447 15.6165 204.757 16.7805C206.087 17.9237 206.752 19.7008 206.752 22.1119V31.8705H203.073ZM197.835 32.0887C196.588 32.0887 195.497 31.8809 194.562 31.4652C193.626 31.0287 192.899 30.4363 192.379 29.688C191.88 28.919 191.631 28.0564 191.631 27.1003C191.631 26.165 191.849 25.3232 192.286 24.5749C192.743 23.8266 193.481 23.2343 194.499 22.7978C195.518 22.3613 196.869 22.1431 198.552 22.1431H203.385V24.7308H198.833C197.503 24.7308 196.609 24.949 196.152 25.3855C195.694 25.8012 195.466 26.3209 195.466 26.9444C195.466 27.6511 195.746 28.2123 196.308 28.628C196.869 29.0437 197.648 29.2516 198.646 29.2516C199.602 29.2516 200.454 29.0333 201.202 28.5968C201.972 28.1603 202.522 27.516 202.855 26.6638L203.51 29.0021C203.136 29.979 202.46 30.7377 201.483 31.2781C200.527 31.8185 199.311 32.0887 197.835 32.0887ZM221.201 15.0346C222.531 15.0346 223.716 15.2944 224.755 15.814C225.815 16.3336 226.646 17.1339 227.249 18.2147C227.852 19.2747 228.153 20.6465 228.153 22.3301V31.8705H224.256V22.829C224.256 21.3532 223.903 20.2516 223.196 19.5241C222.51 18.7967 221.543 18.4329 220.296 18.4329C219.382 18.4329 218.571 18.62 217.864 18.9941C217.158 19.3682 216.607 19.9294 216.212 20.6777C215.838 21.4052 215.651 22.3301 215.651 23.4525V31.8705H211.754V15.2216H215.464V19.7112L214.809 18.3394C215.391 17.2793 216.233 16.4687 217.334 15.9075C218.457 15.3256 219.746 15.0346 221.201 15.0346ZM239.364 32.0887C237.535 32.0887 236.121 31.6211 235.124 30.6857C234.126 29.7296 233.627 28.3266 233.627 26.4767V11.5427H237.524V26.3832C237.524 27.173 237.722 27.7862 238.117 28.2227C238.532 28.6592 239.104 28.8774 239.832 28.8774C240.705 28.8774 241.432 28.6488 242.014 28.1915L243.105 30.9663C242.648 31.3405 242.087 31.6211 241.422 31.8081C240.756 31.9952 240.071 32.0887 239.364 32.0887ZM230.884 18.4641V15.3463H241.983V18.4641H230.884ZM251.455 32.0887C250.063 32.0887 248.722 31.912 247.433 31.5587C246.165 31.1846 245.157 30.7377 244.409 30.2181L245.906 27.2562C246.654 27.7342 247.548 28.1292 248.587 28.4409C249.626 28.7527 250.665 28.9086 251.705 28.9086C252.931 28.9086 253.814 28.7423 254.355 28.4098C254.916 28.0772 255.197 27.6303 255.197 27.0691C255.197 26.6118 255.01 26.2689 254.635 26.0403C254.261 25.7908 253.773 25.6038 253.17 25.4791C252.567 25.3544 251.892 25.24 251.143 25.1361C250.416 25.0322 249.678 24.8971 248.93 24.7308C248.202 24.5437 247.537 24.2839 246.935 23.9514C246.332 23.598 245.843 23.1303 245.469 22.5484C245.095 21.9664 244.908 21.1973 244.908 20.2412C244.908 19.1812 245.209 18.2666 245.812 17.4976C246.415 16.7078 247.257 16.105 248.338 15.6893C249.439 15.2528 250.738 15.0346 252.235 15.0346C253.357 15.0346 254.49 15.1593 255.633 15.4087C256.776 15.6581 257.722 16.0115 258.47 16.4687L256.974 19.4306C256.184 18.9525 255.384 18.6304 254.573 18.4641C253.783 18.277 252.993 18.1835 252.204 18.1835C251.019 18.1835 250.135 18.3602 249.553 18.7135C248.992 19.0669 248.712 19.5137 248.712 20.0542C248.712 20.553 248.899 20.9271 249.273 21.1766C249.647 21.426 250.135 21.6234 250.738 21.7689C251.341 21.9144 252.006 22.0391 252.734 22.1431C253.482 22.2262 254.22 22.3613 254.947 22.5484C255.675 22.7354 256.34 22.9952 256.943 23.3278C257.566 23.6396 258.065 24.0865 258.439 24.6684C258.813 25.2504 259 26.0091 259 26.9444C259 27.9837 258.688 28.8878 258.065 29.6569C257.462 30.4259 256.6 31.0287 255.477 31.4652C254.355 31.8809 253.014 32.0887 251.455 32.0887Z" fill="#1F304F"/>
</svg>
