<svg viewBox="0 0 9 10" fill="none" xmlns="http://www.w3.org/2000/svg">
	<path d="M5.03414 9.2374C5.03587 9.2382 5.03784 9.23831 5.03966 9.23778C5.04148 9.23724 5.04305 9.23601 5.04407 9.23441C5.08031 9.20116 5.11705 9.1684 5.1523 9.13516L5.38214 8.90624L5.53655 8.75237L5.69844 8.59197L5.85184 8.44007L6.0117 8.28118L6.32249 7.97188L6.48733 7.80758L6.63628 7.65862L6.79908 7.49625L6.95499 7.3404L7.09401 7.20186C7.10731 7.1877 7.12212 7.17503 7.13821 7.16413C7.1435 7.16044 7.14916 7.15729 7.1551 7.15472C7.16178 7.15162 7.16926 7.15066 7.17653 7.15189C7.18374 7.15317 7.19048 7.15654 7.19577 7.16167C7.20368 7.16867 7.21036 7.17685 7.21565 7.18599C7.2241 7.20085 7.23201 7.21576 7.23949 7.23115C7.29855 7.35231 7.36012 7.47193 7.42864 7.58812C7.47829 7.6745 7.5319 7.7599 7.5885 7.84232C7.63815 7.91528 7.68781 7.98877 7.74393 8.05878C7.79999 8.1288 7.84815 8.19283 7.90379 8.25739C7.95937 8.3219 8.00304 8.37353 8.05766 8.42864C8.11228 8.48374 8.16044 8.53591 8.21458 8.58705L8.30689 8.67294C8.32014 8.68476 8.33185 8.69828 8.34168 8.71314C8.34713 8.72115 8.35071 8.73035 8.3521 8.73997C8.3536 8.75295 8.35023 8.76605 8.34264 8.77669C8.33366 8.78919 8.32313 8.80052 8.31137 8.81046C8.27214 8.8452 8.22992 8.87695 8.18925 8.90972C8.10534 8.97674 8.01843 9.04029 7.93056 9.10186C7.82666 9.17433 7.72009 9.24285 7.61084 9.30742C7.50854 9.36797 7.40448 9.42473 7.29855 9.4777C6.99449 9.62981 6.67535 9.74959 6.34633 9.83516C6.24703 9.86129 6.14639 9.88417 6.04446 9.90368C5.97396 9.91725 5.90315 9.92949 5.83195 9.94039C5.76493 9.95033 5.69791 9.95926 5.63041 9.96722C5.59219 9.97171 5.55344 9.97519 5.51475 9.97866C5.4606 9.9831 5.407 9.98759 5.35285 9.99106C5.3125 9.99373 5.27212 9.99571 5.23174 9.99699C5.10662 10.001 4.9835 10.001 4.8564 9.99699C4.78689 9.99699 4.71739 9.99154 4.64838 9.98513C4.60419 9.98112 4.56001 9.97813 4.51582 9.97369C4.47163 9.9692 4.4195 9.96273 4.37135 9.95632C4.32319 9.94985 4.2785 9.9429 4.23233 9.93596C4.15339 9.92404 4.07495 9.90913 3.99651 9.89277C3.85352 9.86332 3.71203 9.82741 3.57202 9.78502C3.39575 9.73211 3.22254 9.66947 3.0532 9.59737C2.94696 9.55199 2.84237 9.50319 2.73943 9.45087C2.6365 9.3986 2.53075 9.34018 2.42218 9.27562C2.31627 9.21175 2.213 9.14408 2.11238 9.07257C2.0025 8.99448 1.89575 8.91175 1.79216 8.82436C1.74251 8.78118 1.69286 8.73649 1.64322 8.69181C1.59357 8.64708 1.52853 8.58903 1.4759 8.53537C1.42327 8.48176 1.36916 8.42516 1.31703 8.3691C1.2649 8.31298 1.21029 8.24793 1.15766 8.18636C1.10504 8.12479 1.05588 8.05878 1.00624 7.99422C0.949641 7.92025 0.897508 7.84531 0.845381 7.76685C0.793249 7.68839 0.738636 7.59956 0.687503 7.51415C0.630405 7.41934 0.579764 7.32099 0.529622 7.22271C0.472527 7.11148 0.422383 6.99684 0.373729 6.88166C0.311173 6.7327 0.260036 6.58374 0.211878 6.43083C0.158229 6.25665 0.11496 6.07941 0.0822981 5.9001C0.0703826 5.83757 0.0624387 5.77402 0.05102 5.71143C0.0410905 5.65734 0.0356293 5.60272 0.0291751 5.54858C0.0242103 5.50838 0.020735 5.46819 0.0177562 5.42795C0.0132879 5.36589 0.00931608 5.30384 0.00484781 5.24178C0.00484781 5.23781 0.00484781 5.23384 0.00484781 5.22986C0.00484781 5.141 -0.00160637 5.05213 0.000379528 4.96326C0.00236543 4.87439 0.00385488 4.79198 0.0098126 4.70658C0.0157703 4.62119 0.021728 4.54225 0.032154 4.45834C0.0371187 4.41813 0.041587 4.37792 0.0470482 4.3382C0.0797781 4.09929 0.129552 3.86303 0.195991 3.63122C0.242163 3.47582 0.295286 3.32142 0.354366 3.17148C0.404013 3.0558 0.450186 2.94062 0.506288 2.82842C0.555937 2.72515 0.610053 2.62188 0.668636 2.52259C0.718284 2.43769 0.767931 2.35279 0.82304 2.27088C0.87815 2.18896 0.925312 2.11796 0.980421 2.04398C1.03553 1.97001 1.07972 1.90795 1.13632 1.8454C1.19291 1.78284 1.23908 1.72277 1.29221 1.66319C1.34533 1.60362 1.3915 1.55248 1.44661 1.49886C1.5459 1.39592 1.65099 1.29779 1.76187 1.20445C1.86381 1.1174 1.96907 1.03465 2.07763 0.956209C2.17958 0.882399 2.28433 0.812399 2.3919 0.746204C2.49384 0.683644 2.59793 0.624895 2.70418 0.569951C2.85834 0.490163 3.01661 0.418572 3.17832 0.355476C3.33552 0.293773 3.49576 0.240085 3.65841 0.194618C3.79908 0.155562 3.94123 0.122464 4.08488 0.0953232C4.16828 0.0797669 4.25186 0.0660309 4.3356 0.0541154C4.40759 0.0436896 4.47958 0.0352499 4.55206 0.0273063C4.59525 0.0223415 4.63894 0.0188657 4.68214 0.0158868C4.74966 0.0109221 4.81768 0.00645376 4.88519 0.00347493C4.95271 0.000496081 5.00932 0 5.07187 0C5.13443 0 5.19797 0 5.26103 0C5.33351 0.00231688 5.40598 0.00645419 5.47851 0.0124118C5.53709 0.0173766 5.59615 0.0223412 5.65424 0.0292918C5.71234 0.0362425 5.77589 0.0446828 5.83644 0.0536194C5.90593 0.0640453 5.97498 0.0764569 6.04398 0.090358C6.13896 0.109224 6.23329 0.131069 6.32698 0.155893C6.53992 0.212342 6.74879 0.283339 6.952 0.368384C7.05627 0.412074 7.15905 0.459074 7.26033 0.509383C7.36958 0.563666 7.47663 0.621752 7.58155 0.683644C7.68647 0.745542 7.78941 0.810742 7.89037 0.879256C7.99956 0.953232 8.10582 1.0282 8.20961 1.11161L8.2816 1.1687C8.29427 1.17875 8.30582 1.19024 8.31586 1.20296C8.32297 1.21131 8.32709 1.22178 8.32768 1.23273C8.32821 1.24369 8.32506 1.25452 8.3188 1.26353C8.31095 1.27588 8.30181 1.28736 8.29149 1.29779C8.27215 1.31765 8.25328 1.3375 8.23345 1.35587C8.20464 1.38268 8.17685 1.41098 8.149 1.43928C8.07027 1.51938 7.99411 1.60213 7.92062 1.68752C7.86803 1.74859 7.8179 1.81214 7.76723 1.87519C7.71063 1.94668 7.65804 2.02164 7.60587 2.09612C7.55376 2.17059 7.49962 2.25797 7.449 2.34088C7.39192 2.43372 7.34125 2.53003 7.29064 2.62685C7.26579 2.6765 7.24099 2.72614 7.21913 2.77232C7.21218 2.78671 7.20421 2.80111 7.1963 2.81501C7.1916 2.82353 7.18535 2.8311 7.17792 2.83736C7.17284 2.842 7.16659 2.84516 7.15985 2.84647C7.15312 2.84779 7.14612 2.84721 7.1397 2.8448C7.12827 2.84095 7.11752 2.83525 7.1079 2.82792C7.09251 2.816 7.07765 2.80409 7.06274 2.79118C6.98679 2.72565 6.90833 2.66359 6.82741 2.60451C6.72522 2.52938 6.61897 2.45993 6.50919 2.39649C6.41271 2.34032 6.31325 2.28944 6.21127 2.24406C6.02522 2.1616 5.83083 2.09951 5.63142 2.05888C5.55462 2.04333 5.47733 2.03108 5.39957 2.02214C5.25337 2.00559 5.10611 2.00078 4.95917 2.00774C4.84536 2.0131 4.73196 2.0252 4.61958 2.04398C4.46273 2.06999 4.30793 2.10716 4.15637 2.1552C3.9915 2.20677 3.83056 2.27015 3.67479 2.34485C3.57724 2.39163 3.48213 2.44333 3.38981 2.49975C3.26921 2.57397 3.15421 2.65693 3.04576 2.74799C3.00356 2.78324 2.96285 2.81997 2.92263 2.85771C2.8551 2.92149 2.79097 2.98877 2.73049 3.05928C2.67588 3.12233 2.62574 3.18836 2.57708 3.25787C2.51879 3.34024 2.46509 3.42576 2.41622 3.51405C2.35752 3.62003 2.30561 3.72964 2.26083 3.84222C2.19006 4.01915 2.13474 4.20187 2.0955 4.38834C2.0816 4.45222 2.06952 4.51643 2.05926 4.58097C2.04983 4.64055 2.04288 4.70112 2.03742 4.7612C2.02652 4.87371 2.02238 4.98678 2.02501 5.09979C2.02501 5.16681 2.03047 5.23384 2.03692 5.29838C2.04338 5.3629 2.05231 5.43639 2.06323 5.50491C2.07416 5.57343 2.08706 5.6335 2.10246 5.69705C2.16563 5.96311 2.26591 6.21902 2.40034 6.45713C2.44999 6.54254 2.49963 6.62693 2.55722 6.70539C2.60687 6.77439 2.65652 6.84291 2.71113 6.90747C2.76574 6.97198 2.81043 7.02164 2.86008 7.07524C2.96134 7.17973 3.06985 7.27696 3.18477 7.36621C3.28173 7.44136 3.3832 7.51047 3.48861 7.57321C3.78467 7.74959 4.10849 7.8745 4.44631 7.94259C4.52128 7.95798 4.59525 7.9699 4.6732 7.97984C4.73642 7.9878 4.79997 7.99326 4.86385 7.99625C4.88569 7.99625 4.90754 7.99625 4.92938 7.99625C4.9461 7.99582 4.9628 7.99764 4.97903 8.0017C4.99095 8.00485 5.00181 8.01111 5.01053 8.01982C5.01925 8.02853 5.02551 8.03943 5.02868 8.05135C5.03431 8.07166 5.03665 8.09277 5.03563 8.11389C5.03265 8.21319 5.03315 8.3095 5.03315 8.40683C5.03315 8.67423 5.03315 8.94168 5.03315 9.20913C5.03212 9.21853 5.03246 9.2281 5.03414 9.2374Z" fill="#166AB3" />
	<path d="M5.0882 6.87669C5.0729 6.87691 5.05761 6.87573 5.04252 6.87322C5.02965 6.87194 5.01667 6.87194 5.0038 6.87322C4.96607 6.87322 4.92833 6.86825 4.8906 6.8643C4.87322 6.8643 4.85535 6.86082 4.83798 6.85831C4.8206 6.85585 4.80273 6.85483 4.78535 6.85184C4.75109 6.84639 4.71733 6.84046 4.68307 6.83351C4.62449 6.82159 4.5669 6.80769 4.5098 6.79081C4.4486 6.77295 4.38843 6.75179 4.32959 6.72726C4.27696 6.70492 4.22483 6.68156 4.17419 6.65478C4.10813 6.61929 4.04399 6.58033 3.98206 6.53811C3.94382 6.51229 3.90758 6.48396 3.87184 6.45521L3.79885 6.39513C3.78956 6.38722 3.78077 6.37878 3.77254 6.3698C3.75194 6.34896 3.73363 6.32603 3.71793 6.30128C3.69672 6.26675 3.68539 6.2271 3.68516 6.18658C3.68432 6.16082 3.68871 6.13517 3.69807 6.11112C3.70811 6.08632 3.72402 6.06435 3.74442 6.04703C3.76483 6.02977 3.78913 6.01769 3.81524 6.01181C3.84226 6.00497 3.87039 6.00363 3.89795 6.00786C3.92551 6.01213 3.95192 6.02191 3.9756 6.03666C3.99144 6.04612 4.00611 6.05746 4.01929 6.07039C4.04659 6.09674 4.0734 6.12352 4.1022 6.14837C4.15909 6.1985 4.21966 6.24431 4.28341 6.28541C4.33104 6.3155 4.38083 6.34206 4.43235 6.36483C4.47738 6.38439 4.52366 6.40101 4.57087 6.41448C4.61406 6.42688 4.65776 6.43928 4.70144 6.44922C4.74288 6.45906 4.78481 6.46665 4.82705 6.47205C4.84542 6.47205 4.86379 6.47755 4.88166 6.48049H4.88663C4.91791 6.48049 4.94918 6.48845 4.98046 6.48594C4.99983 6.48594 5.01869 6.49043 5.03806 6.48995C5.07578 6.48995 5.11401 6.48744 5.15125 6.4845C5.21612 6.47915 5.28051 6.46905 5.34388 6.45419C5.41598 6.43714 5.48653 6.41422 5.55489 6.38567C5.59657 6.3683 5.63682 6.34794 5.67653 6.32662C5.72688 6.29909 5.77557 6.26879 5.8225 6.23575C5.86354 6.20727 5.90325 6.17702 5.94163 6.14489C5.97936 6.11363 6.01662 6.08135 6.05531 6.05104C6.09107 6.02122 6.13634 6.00518 6.18294 6.00588C6.21624 6.00615 6.24863 6.0171 6.27525 6.03715C6.3078 6.06114 6.33447 6.0922 6.35323 6.12801C6.36467 6.14992 6.37006 6.17456 6.36873 6.1993C6.36744 6.224 6.35948 6.24789 6.34575 6.26852C6.33035 6.29316 6.31223 6.31598 6.29166 6.3365C6.2683 6.36136 6.242 6.38616 6.21966 6.4085C6.20325 6.42389 6.1854 6.43832 6.17001 6.4527C6.15462 6.46708 6.12682 6.48894 6.10496 6.50631C6.05146 6.54762 5.9954 6.58562 5.93719 6.61999C5.89064 6.64757 5.84275 6.67274 5.79369 6.69546C5.7535 6.71432 5.71229 6.73073 5.67108 6.74511C5.59497 6.77402 5.51699 6.79775 5.43773 6.81614C5.38359 6.82902 5.32899 6.83896 5.27438 6.84789C5.24757 6.85184 5.22075 6.85879 5.19395 6.86376C5.15923 6.87162 5.12379 6.87595 5.0882 6.87669Z" fill="#A6C7E3" />
</svg>
