<svg viewBox="0 0 171 25" fill="none" xmlns="http://www.w3.org/2000/svg">
	<path d="M28.1261 13.6852C27.899 13.8389 27.6812 14.0059 27.474 14.1855C25.7463 15.9082 24.0802 17.6876 22.2874 19.347C20.4331 21.0739 18.2381 22.3941 15.8434 23.2227C9.66128 25.3474 3.5525 22.6857 1.01426 17.184C-0.5267 13.8486 -0.264871 10.4432 1.48121 7.2295C3.17059 4.11924 5.79555 2.10966 9.23769 1.22578C12.6281 0.356906 15.7884 1.00231 18.7536 2.77507C20.7098 3.94246 22.4092 5.44339 24.1002 7.09942C23.4882 7.66644 22.8962 8.21678 22.3008 8.76712C21.8138 9.21573 21.3152 9.64933 20.8415 10.1113C20.5514 10.3948 20.3646 10.3664 20.0444 10.1013C18.7369 9.01894 17.4728 7.84655 16.0419 6.95933C13.8489 5.60349 11.4974 5.40337 9.11928 6.63747C6.68777 7.89825 5.28357 10.9735 5.72718 13.6418C6.44929 17.9662 10.9588 20.2142 15.2447 18.2263C17.6662 17.1023 19.6458 15.3912 21.512 13.5267C23.3147 11.729 25.0575 9.87281 26.8986 8.11672C28.7815 6.3206 30.6293 4.44777 32.7039 2.90182C39.7349 -2.36478 49.7144 1.20076 51.5306 9.97287C52.1489 12.9899 51.5562 16.1292 49.8804 18.7131C48.2047 21.2971 45.5802 23.1187 42.5734 23.7848C36.1527 25.2157 30.2224 21.405 28.5513 15.4229C28.4062 14.9009 28.2945 14.3756 28.1261 13.6852ZM33.1142 12.1842C32.9474 15.7414 36.0093 19.0685 39.885 19.0768C41.2434 19.094 42.5762 18.7073 43.7145 17.9659C44.8528 17.2244 45.7452 16.1616 46.2786 14.9122C46.8119 13.6628 46.9622 12.2831 46.7103 10.9482C46.4584 9.61329 45.8157 8.38327 44.8637 7.41416C43.9117 6.44505 42.6933 5.78053 41.3631 5.50488C40.0329 5.22923 38.6508 5.35488 37.3921 5.86589C36.1334 6.37689 35.0548 7.25023 34.2932 8.37513C33.5316 9.50002 33.1212 10.8258 33.1142 12.1842Z" fill="#009EFC" />
	<path d="M129.395 15.6314C129.28 16.6447 128.919 17.6144 128.343 18.4565C125.923 22.0904 122.531 23.9315 118.143 24.0216C114.331 24.1 111.228 22.6524 108.773 19.8223C107.128 17.9774 106.202 15.6015 106.166 13.1298C106.124 11.0235 106.276 8.94056 107.193 7.02103C108.889 3.47383 111.686 1.30249 115.59 0.640413C118.502 0.140102 121.31 0.450294 123.929 1.91287C127.441 3.87909 129.247 6.94932 129.627 10.9068C129.691 11.5639 129.702 12.2259 129.757 12.883C129.792 13.3116 129.604 13.435 129.197 13.43C127.975 13.4133 126.752 13.43 125.528 13.43C121.179 13.43 116.829 13.43 112.478 13.43C112.048 13.43 111.753 13.475 111.931 14.027C113.424 18.6532 118.769 20.3493 122.193 17.4542C122.703 17.0239 123.062 16.4169 123.512 15.9099C123.642 15.7631 123.845 15.5847 124.012 15.5763C125.735 15.5547 127.459 15.5663 129.182 15.5763C129.255 15.5865 129.327 15.605 129.395 15.6314ZM112.607 8.62703H123.355C121.939 6.73919 120.205 5.77526 118.018 5.69688C115.732 5.6135 114.008 6.65414 112.607 8.62703Z" fill="#009EFC" />
	<path d="M80.9388 16.642C80.9388 14.6591 80.8871 12.6745 80.9488 10.6933C81.0939 5.98205 85.0196 1.47759 89.6625 0.625394C95.4211 -0.430261 100.598 2.66666 102.337 8.2718C102.622 9.19042 102.774 10.1451 102.789 11.1069C102.839 15.1094 102.807 19.1235 102.822 23.131C102.822 23.5513 102.704 23.6947 102.279 23.688C100.636 23.663 98.9916 23.6513 97.349 23.6713C96.8487 23.6713 96.7002 23.5196 96.7019 23.0193C96.7186 19.2519 96.7019 15.4829 96.7136 11.7156C96.7252 8.88051 94.804 6.77254 91.9873 6.58409C89.6358 6.42732 87.161 8.53363 87.0676 10.9284C86.9709 13.43 87.0459 15.9316 87.0376 18.4331C87.0376 19.9957 87.0042 21.5584 87.0042 23.121C87.0042 23.5062 86.8641 23.6563 86.4756 23.653C84.7712 23.643 83.0684 23.6363 81.364 23.653C80.8471 23.653 80.8404 23.3728 80.8404 23.0009C80.8404 20.8779 80.8404 18.7533 80.8404 16.6303L80.9388 16.642Z" fill="#009EFC" />
	<path d="M76.9412 16.8438C76.9412 18.9084 76.9296 20.973 76.9512 23.0376C76.9512 23.5112 76.8028 23.6663 76.3342 23.6597C74.7515 23.638 73.1656 23.6313 71.5829 23.6597C71.0426 23.6697 70.8558 23.5212 70.8591 22.9542C70.8791 19.2052 70.8591 15.4496 70.8591 11.7089C70.8591 9.48254 69.7134 7.71978 67.7088 6.89927C64.9355 5.76357 61.485 7.73312 61.2148 10.7216C61.028 12.7913 61.1048 14.8909 61.0881 16.9672C61.0725 18.9684 61.0764 20.973 61.0998 22.9809C61.0998 23.5112 60.9213 23.6763 60.4026 23.6663C58.8 23.6363 57.1957 23.6413 55.5913 23.6447C55.2445 23.6447 55.0193 23.5829 55.0227 23.156C55.046 19.0068 54.8926 14.8492 55.111 10.7116C55.4446 4.45442 60.7812 -0.0266905 67.0184 0.450272C71.758 0.812163 76.024 4.70624 76.7294 9.45586C76.9729 11.1085 76.8962 12.8096 76.9396 14.489C76.9629 15.2695 76.9396 16.0533 76.9396 16.8338L76.9412 16.8438Z" fill="#009EFC" />
	<path d="M153.657 11.1152C152.975 11.1152 152.293 11.0985 151.613 11.1152C151.196 11.1286 150.991 11.0202 150.871 10.5632C150.655 9.73257 150.274 8.95374 149.751 8.27287C149.229 7.59201 148.575 7.02297 147.829 6.59948C147.082 6.176 146.258 5.90668 145.406 5.8075C144.553 5.70831 143.689 5.78127 142.866 6.02206C140.241 6.76419 138.384 9.34245 138.413 12.2009C138.449 15.9282 141.501 18.9618 145.2 18.8717C147.302 18.8233 148.984 17.9011 150.128 16.1133C150.389 15.7064 150.66 15.548 151.139 15.558C152.602 15.5863 154.066 15.588 155.528 15.558C156.12 15.5446 156.195 15.7681 156.067 16.2784C155.54 18.2797 154.329 19.834 152.802 21.1431C150.327 23.2661 147.415 24.0466 144.175 24.0199C139.63 23.9815 134.382 20.6545 133.246 15.2978C132.014 9.48087 133.928 3.98747 139.662 1.54262C144.203 -0.393582 148.714 0.111732 152.65 3.37709C154.833 5.18488 155.947 7.61138 156.361 10.3814C156.442 10.9284 156.287 11.1502 155.705 11.1136C155.023 11.0835 154.339 11.1169 153.657 11.1152Z" fill="#009EFC" />
	<path d="M166.062 0.788811C166.062 2.06127 166.062 3.23866 166.062 4.41606C166.062 5.63848 165.972 5.54176 167.207 5.54343C168.25 5.54343 169.292 5.56177 170.333 5.53509C170.811 5.52174 171.01 5.65349 171 6.17048C170.973 7.81317 170.976 9.45585 171 11.0985C171 11.5638 170.833 11.6772 170.399 11.6689C169.197 11.6455 167.994 11.6889 166.794 11.6455C166.218 11.6255 166.042 11.794 166.045 12.381C166.07 15.8465 166.057 19.3136 166.057 22.7791C166.057 23.6813 166.057 23.683 165.129 23.683C163.628 23.683 162.127 23.653 160.627 23.698C159.996 23.7164 159.858 23.4946 159.861 22.9042C159.884 19.2186 159.874 15.5313 159.874 11.8457C159.874 8.40186 159.888 4.9564 159.861 1.50592C159.861 0.922227 160.028 0.76046 160.603 0.770466C162.383 0.80382 164.165 0.788811 166.062 0.788811Z" fill="#009EFC" />
</svg>
