<svg viewBox="0 0 37 37" fill="none" xmlns="http://www.w3.org/2000/svg">
	<path d="M36.75 18.5C36.75 28.5792 28.5792 36.75 18.5 36.75C8.4208 36.75 0.25 28.5792 0.25 18.5C0.25 8.4208 8.4208 0.25 18.5 0.25C28.5792 0.25 36.75 8.4208 36.75 18.5Z" fill="white" stroke="#EEEEEE" stroke-width="0.5" />
	<path d="M18.2691 11.0979L11.0952 18.4306C11.0341 18.4932 10.9998 18.5781 11 18.6666V24.6661C10.9997 24.8502 11.1454 24.9997 11.3255 25C11.4123 25.0002 11.4956 24.9649 11.557 24.9021L18.5 17.8047L25.443 24.9021C25.5702 25.0324 25.7767 25.0327 25.9042 24.9027C25.9657 24.84 26.0002 24.7548 26 24.6661V18.6666C26.0002 18.5781 25.9659 18.4932 25.9048 18.4306L18.7309 11.0979C18.6037 10.9676 18.3972 10.9673 18.2697 11.0973C18.2695 11.0975 18.2693 11.0977 18.2691 11.0979Z" fill="#3EA254" fill-opacity="0.17" />
</svg>
