<svg viewBox="0 0 9 9" fill="none" xmlns="http://www.w3.org/2000/svg">
	<path d="M7.39286 4.5C7.21533 4.5 7.07142 4.64391 7.07142 4.82143V8.03571C7.07142 8.21324 6.92751 8.35714 6.74999 8.35714H0.964286C0.78676 8.35714 0.642851 8.21324 0.642851 8.03571V1.60714C0.642851 1.42961 0.78676 1.2857 0.964286 1.2857H4.82143C4.99896 1.2857 5.14287 1.1418 5.14287 0.964269C5.14287 0.786742 4.99896 0.642853 4.82143 0.642853H0.964286C0.431725 0.642853 0 1.07458 0 1.60714V8.03571C0 8.56827 0.431725 9 0.964286 9H6.75C7.28257 9 7.71429 8.56827 7.71429 8.03571V4.82141C7.71429 4.64391 7.57038 4.5 7.39286 4.5Z" fill="black" />
	<path d="M8.63979 0.360445C8.40901 0.129619 8.09597 -3.25821e-05 7.76956 5.08532e-06C7.44297 -0.000936601 7.12961 0.128941 6.89946 0.360652L2.66559 4.59417C2.63046 4.62956 2.60396 4.67258 2.58812 4.71985L1.94527 6.64842C1.88917 6.81685 1.98023 6.99886 2.14866 7.05495C2.18133 7.06583 2.21556 7.07139 2.24998 7.07143C2.28449 7.07137 2.31878 7.06583 2.35155 7.05504L4.28013 6.41219C4.32749 6.39637 4.37053 6.36974 4.4058 6.33441L8.63966 2.10055C9.1202 1.62006 9.12026 0.840987 8.63979 0.360445Z" fill="black" />
</svg>
