<svg viewBox="0 0 10 10" fill="none" xmlns="http://www.w3.org/2000/svg">
	<path d="M5.00072 10C7.76214 10 10.0007 7.76142 10.0007 5C10.0007 2.23858 7.76214 0 5.00072 0C2.2393 0 0.000720978 2.23858 0.000720978 5C0.000720978 7.76142 2.2393 10 5.00072 10Z" fill="#27273D" />
	<path d="M9.69097 3.26406H0.310307C1.01636 1.3582 2.84956 0 5.00073 0C7.15191 0 8.98511 1.3582 9.69097 3.26406Z" fill="#E88032" />
	<path d="M9.69096 6.73574H0.3103C-0.103433 5.61549 -0.103433 4.38431 0.3103 3.26406H9.69096C9.76056 3.45183 9.81867 3.64365 9.86499 3.83847C10.0932 4.80033 10.0327 5.80812 9.69096 6.73574Z" fill="white" />
	<path d="M5.00073 10C3.97912 10 2.98199 9.68723 2.14346 9.10366C1.30492 8.52009 0.665193 7.69374 0.310307 6.73575H9.69097C9.61832 6.93245 9.53318 7.12431 9.43608 7.31016C9.01351 8.12129 8.37654 8.80098 7.59451 9.27525C6.81248 9.74951 5.91534 10.0002 5.00073 10Z" fill="#00B564" />
	<path d="M5.00073 6.55975C5.86217 6.55975 6.5605 5.86142 6.5605 4.99999C6.5605 4.13855 5.86217 3.44022 5.00073 3.44022C4.1393 3.44022 3.44097 4.13855 3.44097 4.99999C3.44097 5.86142 4.1393 6.55975 5.00073 6.55975Z" fill="#3E436D" />
	<path d="M6.22846 4.87305L6.15561 4.85684C6.15561 4.85098 6.15424 4.84512 6.15346 4.83946L6.21947 4.80469C6.23066 4.79892 6.23953 4.7895 6.24461 4.77798C6.24969 4.76647 6.25068 4.75356 6.2474 4.74141L6.20971 4.60039C6.20644 4.58823 6.19912 4.57754 6.18897 4.57009C6.17882 4.56264 6.16643 4.55886 6.15385 4.55938L6.07943 4.5625C6.07729 4.55704 6.07514 4.55157 6.07279 4.5461L6.12748 4.4959C6.13678 4.48743 6.1429 4.47602 6.14482 4.46359C6.14674 4.45115 6.14434 4.43843 6.13803 4.42754L6.06498 4.30098C6.05871 4.29008 6.04889 4.28166 6.03716 4.27711C6.02544 4.27256 6.01251 4.27216 6.00053 4.27598L5.92943 4.29825C5.92592 4.29356 5.92221 4.28907 5.91869 4.28457L5.95873 4.22149C5.96549 4.21084 5.96841 4.19821 5.96703 4.18568C5.96564 4.17315 5.96003 4.16146 5.95111 4.15254L5.84799 4.04942C5.83907 4.0405 5.82739 4.03489 5.81485 4.0335C5.80232 4.03212 5.78969 4.03505 5.77904 4.0418L5.71596 4.08204L5.70229 4.07129L5.72455 4.0002C5.72837 3.98822 5.72797 3.97529 5.72342 3.96356C5.71887 3.95184 5.71045 3.94202 5.69955 3.93575L5.57299 3.8627C5.5621 3.85638 5.54938 3.85399 5.53695 3.8559C5.52451 3.85782 5.5131 3.86394 5.50463 3.87325L5.45443 3.92793L5.43803 3.92129L5.44115 3.84688C5.44167 3.8343 5.4379 3.82191 5.43044 3.81176C5.42299 3.8016 5.4123 3.79429 5.40014 3.79102L5.25912 3.75332C5.247 3.7501 5.23414 3.75111 5.22266 3.75619C5.21119 3.76127 5.2018 3.77011 5.19604 3.78125L5.16127 3.84766L5.14389 3.84551L5.12768 3.77266C5.125 3.76036 5.11819 3.74935 5.10838 3.74146C5.09857 3.73357 5.08636 3.72928 5.07377 3.7293H4.92768C4.91509 3.72928 4.90287 3.73357 4.89307 3.74146C4.88326 3.74935 4.87645 3.76036 4.87377 3.77266L4.85756 3.84551L4.84018 3.84766L4.80541 3.78125C4.79964 3.77007 4.79021 3.7612 4.7787 3.75612C4.76719 3.75104 4.75428 3.75005 4.74213 3.75332L4.60111 3.79102C4.58895 3.79429 4.57826 3.8016 4.57081 3.81176C4.56335 3.82191 4.55958 3.8343 4.5601 3.84688L4.56322 3.92129L4.54682 3.92793L4.49662 3.87325C4.48815 3.86394 4.47674 3.85782 4.4643 3.8559C4.45187 3.85399 4.43915 3.85638 4.42826 3.8627L4.3017 3.93575C4.2908 3.94202 4.28238 3.95184 4.27783 3.96356C4.27328 3.97529 4.27288 3.98822 4.2767 4.0002L4.29897 4.07129L4.28529 4.08204L4.2224 4.04297C4.21176 4.03622 4.19913 4.03329 4.18659 4.03468C4.17406 4.03606 4.16237 4.04167 4.15346 4.05059L4.05033 4.15372C4.04142 4.16263 4.0358 4.17432 4.03442 4.18685C4.03303 4.19938 4.03596 4.21201 4.04272 4.22266L4.08275 4.28575C4.07924 4.29024 4.07553 4.29473 4.07201 4.29942L4.00092 4.27715C3.98894 4.27334 3.97601 4.27373 3.96428 4.27828C3.95256 4.28283 3.94274 4.29125 3.93647 4.30215L3.86342 4.42872C3.8571 4.4396 3.8547 4.45232 3.85662 4.46476C3.85854 4.47719 3.86466 4.4886 3.87397 4.49707L3.92865 4.54727C3.92631 4.55274 3.92416 4.55821 3.92201 4.56368L3.8476 4.56055C3.83501 4.56003 3.82263 4.56381 3.81248 4.57126C3.80232 4.57872 3.79501 4.5894 3.79174 4.60157L3.75404 4.74258C3.75106 4.75457 3.75219 4.76721 3.75726 4.77847C3.76232 4.78973 3.77103 4.79897 3.78197 4.80469L3.84799 4.83926C3.84799 4.84493 3.84662 4.85079 3.84584 4.85665L3.77299 4.87286C3.76069 4.87553 3.74968 4.88234 3.74179 4.89215C3.7339 4.90196 3.72961 4.91417 3.72963 4.92676V5.07286C3.72961 5.08544 3.7339 5.09766 3.74179 5.10747C3.74968 5.11727 3.76069 5.12408 3.77299 5.12676L3.84584 5.14297C3.84584 5.14883 3.84721 5.15469 3.84799 5.16036L3.78197 5.19532C3.77079 5.20109 3.76192 5.21051 3.75684 5.22203C3.75175 5.23354 3.75077 5.24645 3.75404 5.2586L3.79174 5.39961C3.79501 5.41178 3.80232 5.42246 3.81248 5.42992C3.82263 5.43737 3.83501 5.44115 3.8476 5.44063L3.92201 5.4375C3.92416 5.44297 3.92631 5.44844 3.92865 5.45391L3.87397 5.50411C3.86466 5.51258 3.85854 5.52399 3.85662 5.53642C3.8547 5.54886 3.8571 5.56158 3.86342 5.57247L3.93647 5.69903C3.94274 5.70993 3.95256 5.71835 3.96428 5.7229C3.97601 5.72745 3.98894 5.72785 4.00092 5.72403L4.07201 5.70176C4.07553 5.70645 4.07924 5.71094 4.08275 5.71543L4.04369 5.77832C4.03694 5.78897 4.03401 5.8016 4.03539 5.81413C4.03678 5.82667 4.04239 5.83835 4.05131 5.84727L4.15443 5.95039C4.16335 5.95931 4.17504 5.96493 4.18757 5.96631C4.2001 5.96769 4.21273 5.96477 4.22338 5.95801L4.28647 5.91797L4.30014 5.92871L4.27787 5.99981C4.27405 6.01179 4.27445 6.02472 4.279 6.03645C4.28355 6.04817 4.29197 6.05799 4.30287 6.06426L4.42943 6.13731C4.44032 6.14363 4.45304 6.14602 4.46548 6.1441C4.47791 6.14218 4.48932 6.13607 4.49779 6.12676L4.54799 6.07207L4.5644 6.07872L4.56127 6.15313C4.56075 6.16571 4.56453 6.1781 4.57198 6.18825C4.57944 6.1984 4.59012 6.20572 4.60229 6.20899L4.7433 6.24668C4.75529 6.24967 4.76793 6.24853 4.77919 6.24347C4.79045 6.2384 4.79969 6.2297 4.80541 6.21875L4.83998 6.15274L4.85736 6.15489L4.87357 6.22774C4.87625 6.24004 4.88306 6.25105 4.89287 6.25894C4.90268 6.26683 4.91489 6.27112 4.92748 6.2711H5.07357C5.08616 6.27112 5.09838 6.26683 5.10818 6.25894C5.11799 6.25105 5.1248 6.24004 5.12748 6.22774L5.14369 6.15489L5.16107 6.15274L5.19604 6.21875C5.2018 6.22994 5.21123 6.23881 5.22274 6.24389C5.23426 6.24897 5.24716 6.24996 5.25932 6.24668L5.40033 6.20899C5.41249 6.20572 5.42318 6.1984 5.43064 6.18825C5.43809 6.1781 5.44187 6.16571 5.44135 6.15313L5.43822 6.07872L5.45463 6.07207L5.50482 6.12676C5.5133 6.13607 5.5247 6.14218 5.53714 6.1441C5.54958 6.14602 5.5623 6.14363 5.57318 6.13731L5.69975 6.06426C5.71065 6.05799 5.71907 6.04817 5.72362 6.03645C5.72817 6.02472 5.72856 6.01179 5.72475 5.99981L5.70248 5.92871L5.71615 5.91797L5.77924 5.95801C5.78988 5.96477 5.80252 5.96769 5.81505 5.96631C5.82758 5.96493 5.83927 5.95931 5.84818 5.95039L5.95131 5.84727C5.96023 5.83835 5.96584 5.82667 5.96722 5.81413C5.96861 5.8016 5.96568 5.78897 5.95893 5.77832L5.91869 5.71524C5.92221 5.71075 5.92592 5.70625 5.92943 5.70157L6.00053 5.72383C6.01251 5.72765 6.02544 5.72725 6.03716 5.7227C6.04889 5.71816 6.05871 5.70973 6.06498 5.69883L6.13803 5.57227C6.14434 5.56138 6.14674 5.54867 6.14482 5.53623C6.1429 5.52379 6.13678 5.51239 6.12748 5.50391L6.07279 5.45372C6.07514 5.44825 6.07729 5.44278 6.07943 5.43731L6.15385 5.44043C6.16643 5.44095 6.17882 5.43718 6.18897 5.42972C6.19912 5.42227 6.20644 5.41158 6.20971 5.39942L6.2474 5.2584C6.25063 5.24628 6.24962 5.23342 6.24454 5.22195C6.23946 5.21047 6.23062 5.20108 6.21947 5.19532L6.15307 5.16055C6.15307 5.15489 6.15443 5.14903 6.15521 5.14317L6.22807 5.12696C6.24037 5.12428 6.25138 5.11747 6.25926 5.10766C6.26715 5.09785 6.27145 5.08564 6.27143 5.07305V4.92696C6.27147 4.91442 6.26723 4.90225 6.25942 4.89245C6.25161 4.88265 6.24068 4.87581 6.22846 4.87305Z" fill="white" />
	<path d="M5.24057 5.00001C5.24096 5.00456 5.24096 5.00913 5.24057 5.01368C5.24021 5.02624 5.23864 5.03873 5.23588 5.05099C5.23206 5.06874 5.22616 5.08598 5.2183 5.10235C5.21187 5.11607 5.20415 5.12915 5.19526 5.14142C5.18457 5.15581 5.17225 5.16892 5.15854 5.18048C5.14975 5.18834 5.14027 5.1954 5.13022 5.20157C5.11495 5.21139 5.09856 5.21932 5.08139 5.2252C5.06435 5.23157 5.04656 5.23571 5.02846 5.23751C5.01057 5.23985 4.99245 5.23985 4.97455 5.23751C4.96032 5.23609 4.94625 5.23327 4.93256 5.22911C4.91519 5.22407 4.89852 5.21685 4.88295 5.20763C4.87124 5.20107 4.86012 5.19349 4.84975 5.18497C4.8356 5.17358 4.82294 5.16045 4.81205 5.14591C4.80217 5.13387 4.79365 5.12077 4.78666 5.10685C4.7785 5.09061 4.7724 5.07342 4.7685 5.05567C4.765 5.042 4.76297 5.02798 4.76245 5.01388C4.76206 5.00933 4.76206 5.00475 4.76245 5.0002C4.76251 4.98659 4.76369 4.973 4.76596 4.95958C4.76784 4.94739 4.77092 4.93542 4.77514 4.92384C4.78066 4.90656 4.7884 4.89008 4.79819 4.87481C4.80476 4.8635 4.81248 4.8529 4.82123 4.84317C4.8331 4.82941 4.84653 4.81708 4.86127 4.80645C4.8893 4.78612 4.92132 4.77194 4.95522 4.76485C4.96205 4.76368 4.9685 4.7627 4.97475 4.76192C4.981 4.76114 4.99252 4.76036 5.0017 4.76036C5.01088 4.76036 5.01987 4.76036 5.02866 4.76192C5.03943 4.76289 5.05008 4.76485 5.06049 4.76778C5.0782 4.77206 5.09527 4.77863 5.11127 4.78731C5.12438 4.79386 5.13675 4.80179 5.14819 4.81095C5.16284 4.8217 5.17598 4.83438 5.18725 4.84864C5.19543 4.85797 5.20263 4.86811 5.20873 4.87892C5.21805 4.89444 5.22546 4.91103 5.2308 4.92833C5.23417 4.93859 5.23671 4.94911 5.23842 4.95977C5.24021 4.97311 5.24093 4.98656 5.24057 5.00001Z" fill="#3E436D" />
	<path d="M5.24057 5.00001C5.24096 5.00456 5.24096 5.00913 5.24057 5.01368C5.24021 5.02624 5.23864 5.03873 5.23588 5.05099C5.23206 5.06874 5.22616 5.08598 5.2183 5.10235C5.21187 5.11607 5.20415 5.12915 5.19526 5.14142C5.18457 5.15581 5.17225 5.16892 5.15854 5.18048C5.14975 5.18834 5.14027 5.1954 5.13022 5.20157C5.11495 5.21139 5.09856 5.21932 5.08139 5.2252C5.06435 5.23157 5.04656 5.23571 5.02846 5.23751C5.01057 5.23985 4.99245 5.23985 4.97455 5.23751C4.96032 5.23609 4.94625 5.23327 4.93256 5.22911C4.91519 5.22407 4.89852 5.21685 4.88295 5.20763C4.87124 5.20107 4.86012 5.19349 4.84975 5.18497C4.8356 5.17358 4.82294 5.16045 4.81205 5.14591C4.80217 5.13387 4.79365 5.12077 4.78666 5.10685C4.7785 5.09061 4.7724 5.07342 4.7685 5.05567C4.765 5.042 4.76297 5.02798 4.76245 5.01388C4.76206 5.00933 4.76206 5.00475 4.76245 5.0002C4.76251 4.98659 4.76369 4.973 4.76596 4.95958C4.76784 4.94739 4.77092 4.93542 4.77514 4.92384C4.78066 4.90656 4.7884 4.89008 4.79819 4.87481C4.80476 4.8635 4.81248 4.8529 4.82123 4.84317C4.8331 4.82941 4.84653 4.81708 4.86127 4.80645C4.8893 4.78612 4.92132 4.77194 4.95522 4.76485C4.96205 4.76368 4.9685 4.7627 4.97475 4.76192C4.981 4.76114 4.99252 4.76036 5.0017 4.76036C5.01088 4.76036 5.01987 4.76036 5.02866 4.76192C5.03943 4.76289 5.05008 4.76485 5.06049 4.76778C5.0782 4.77206 5.09527 4.77863 5.11127 4.78731C5.12438 4.79386 5.13675 4.80179 5.14819 4.81095C5.16284 4.8217 5.17598 4.83438 5.18725 4.84864C5.19543 4.85797 5.20263 4.86811 5.20873 4.87892C5.21805 4.89444 5.22546 4.91103 5.2308 4.92833C5.23417 4.93859 5.23671 4.94911 5.23842 4.95977C5.24021 4.97311 5.24093 4.98656 5.24057 5.00001Z" fill="#3E436D" />
	<path d="M4.6687 5.01367H3.99897C3.99177 5.01367 3.98487 5.01081 3.97978 5.00572C3.97468 5.00063 3.97182 4.99372 3.97182 4.98652C3.97182 4.97932 3.97468 4.97242 3.97978 4.96733C3.98487 4.96223 3.99177 4.95937 3.99897 4.95937H4.67026C4.66895 4.97287 4.66843 4.98644 4.6687 5V5.01367Z" fill="#3E436D" />
	<path d="M4.69917 5.1416L4.08139 5.39063C4.07822 5.39187 4.07484 5.39254 4.07143 5.39258C4.06512 5.39259 4.059 5.3904 4.05413 5.38639C4.04926 5.38238 4.04594 5.3768 4.04474 5.3706C4.04353 5.36441 4.04453 5.35799 4.04755 5.35245C4.05057 5.3469 4.05542 5.34259 4.06128 5.34024L4.68042 5.09102C4.68532 5.10835 4.69159 5.12527 4.69917 5.1416Z" fill="#3E436D" />
	<path d="M4.05874 4.60625C4.06151 4.59963 4.06676 4.59435 4.07336 4.59155C4.07996 4.58874 4.0874 4.58862 4.09409 4.59121L4.70933 4.83906C4.70043 4.85485 4.69291 4.87138 4.68687 4.88847L4.07397 4.6416C4.06729 4.6389 4.06194 4.63368 4.05908 4.62706C4.05623 4.62044 4.05611 4.61296 4.05874 4.60625Z" fill="#3E436D" />
	<path d="M4.78277 5.25177L4.3066 5.72755C4.30406 5.73015 4.30102 5.73222 4.29766 5.73363C4.29431 5.73504 4.2907 5.73576 4.28706 5.73575C4.28168 5.73575 4.27641 5.73416 4.27193 5.73118C4.26744 5.7282 4.26394 5.72396 4.26185 5.719C4.25976 5.71403 4.25919 5.70856 4.2602 5.70327C4.26121 5.69798 4.26376 5.69311 4.26753 5.68927L4.7439 5.2129C4.75574 5.22693 4.76874 5.23993 4.78277 5.25177Z" fill="#3E436D" />
	<path d="M4.27807 4.30097C4.2754 4.29847 4.27326 4.29545 4.27181 4.29209C4.27035 4.28873 4.2696 4.2851 4.2696 4.28144C4.2696 4.27778 4.27035 4.27416 4.27181 4.2708C4.27326 4.26744 4.2754 4.26441 4.27807 4.26191C4.28315 4.25691 4.28999 4.25411 4.29711 4.25411C4.30424 4.25411 4.31108 4.25691 4.31615 4.26191L4.79311 4.73886C4.77912 4.75018 4.76606 4.76259 4.75404 4.77597L4.27807 4.30097Z" fill="#3E436D" />
	<path d="M4.84702 5.29531C4.86292 5.3039 4.87959 5.31096 4.89682 5.31641L4.65151 5.92539C4.64943 5.93041 4.64591 5.93471 4.64139 5.93773C4.63687 5.94075 4.63156 5.94237 4.62612 5.94238C4.62265 5.94228 4.61922 5.94162 4.61596 5.94043C4.60933 5.93762 4.60407 5.93233 4.60129 5.92568C4.59852 5.91904 4.59846 5.91157 4.60112 5.90488L4.84702 5.29531Z" fill="#3E436D" />
	<path d="M4.6138 4.06681C4.61212 4.06346 4.61116 4.05979 4.61098 4.05605C4.6108 4.0523 4.6114 4.04856 4.61275 4.04507C4.61409 4.04157 4.61615 4.03839 4.61879 4.03573C4.62144 4.03307 4.62461 4.031 4.6281 4.02963C4.63159 4.02827 4.63532 4.02765 4.63907 4.02781C4.64281 4.02797 4.64648 4.02891 4.64984 4.03057C4.6532 4.03223 4.65618 4.03458 4.65858 4.03745C4.66099 4.04033 4.66276 4.04367 4.6638 4.04728L4.91771 4.67794C4.90016 4.68233 4.88303 4.68828 4.86654 4.69571L4.6138 4.06681Z" fill="#3E436D" />
	<path d="M5.00072 4.66797C4.99154 4.66797 4.98256 4.66797 4.97377 4.66895V3.99824C4.97377 3.9911 4.97661 3.98424 4.98166 3.97918C4.98672 3.97413 4.99357 3.97129 5.00072 3.97129C5.00787 3.97129 5.01473 3.97413 5.01978 3.97918C5.02484 3.98424 5.02768 3.9911 5.02768 3.99824V4.66797C5.01889 4.66797 5.0099 4.66797 5.00072 4.66797Z" fill="#3E436D" />
	<path d="M5.00072 5.33301C5.0099 5.33301 5.01889 5.33301 5.02768 5.33203V6.00176C5.02768 6.00891 5.02484 6.01576 5.01978 6.02082C5.01473 6.02587 5.00787 6.02871 5.00072 6.02871C4.99357 6.02871 4.98672 6.02587 4.98166 6.02082C4.97661 6.01576 4.97377 6.00891 4.97377 6.00176V5.33203C4.98256 5.33203 4.99154 5.33301 5.00072 5.33301Z" fill="#3E436D" />
	<path d="M5.14526 4.6998C5.12894 4.69196 5.11203 4.68543 5.09468 4.68027L5.34995 4.04667C5.35097 4.04303 5.35274 4.03964 5.35515 4.03672C5.35756 4.0338 5.36056 4.03141 5.36394 4.02972C5.36733 4.02802 5.37103 4.02706 5.37481 4.02688C5.3786 4.0267 5.38237 4.02731 5.3859 4.02868C5.38943 4.03005 5.39264 4.03214 5.39531 4.03482C5.39799 4.0375 5.40007 4.04071 5.40143 4.04425C5.40279 4.04778 5.4034 4.05156 5.40321 4.05534C5.40302 4.05912 5.40204 4.06282 5.40034 4.06621L5.14526 4.6998Z" fill="#3E436D" />
	<path d="M5.41285 5.90488C5.41421 5.9082 5.41491 5.91176 5.41489 5.91535C5.41487 5.91894 5.41414 5.92249 5.41274 5.92579C5.41135 5.9291 5.4093 5.93209 5.40674 5.9346C5.40418 5.93712 5.40114 5.9391 5.39781 5.94043C5.39456 5.94167 5.39113 5.94234 5.38765 5.94238C5.38227 5.94234 5.37702 5.94071 5.37257 5.93768C5.36812 5.93466 5.36466 5.93038 5.36265 5.92539L5.11578 5.3125C5.13274 5.30638 5.14915 5.2988 5.1648 5.28984L5.41285 5.90488Z" fill="#3E436D" />
	<path d="M5.21381 4.74395L5.6853 4.27246C5.69048 4.26741 5.69745 4.26463 5.70469 4.26472C5.71192 4.26481 5.71882 4.26777 5.72387 4.27295C5.72892 4.27813 5.73171 4.28511 5.73162 4.29234C5.73153 4.29957 5.72856 4.30648 5.72338 4.31153L5.25229 4.78282C5.24059 4.76879 5.22772 4.75579 5.21381 4.74395Z" fill="#3E436D" />
	<path d="M5.73316 5.67969C5.73834 5.68487 5.74125 5.6919 5.74125 5.69922C5.74125 5.70655 5.73834 5.71357 5.73316 5.71875C5.72798 5.72393 5.72095 5.72684 5.71363 5.72684C5.7063 5.72684 5.69928 5.72393 5.6941 5.71875L5.2232 5.24786C5.23658 5.23584 5.24899 5.22278 5.26031 5.20879L5.73316 5.67969Z" fill="#3E436D" />
	<path d="M5.29369 4.84374L5.91869 4.59159C5.92519 4.58977 5.93213 4.59043 5.93816 4.59345C5.9442 4.59647 5.94889 4.60163 5.95133 4.60792C5.95377 4.61421 5.95378 4.62118 5.95135 4.62748C5.94893 4.63378 5.94425 4.63895 5.93822 4.64198L5.31322 4.89354C5.30827 4.87637 5.30173 4.8597 5.29369 4.84374Z" fill="#3E436D" />
	<path d="M5.96771 5.37558C5.96565 5.38054 5.96219 5.38479 5.95775 5.38781C5.95331 5.39083 5.94808 5.39248 5.94271 5.39257C5.93918 5.39248 5.93568 5.39182 5.93236 5.39061L5.30423 5.13671C5.31159 5.12021 5.31766 5.10317 5.3224 5.08573L5.95287 5.33964C5.95621 5.34101 5.95926 5.34303 5.96182 5.34558C5.96438 5.34813 5.96641 5.35117 5.96779 5.35451C5.96917 5.35785 5.96987 5.36143 5.96986 5.36505C5.96985 5.36867 5.96912 5.37224 5.96771 5.37558Z" fill="#3E436D" />
	<path d="M6.02982 4.98633C6.02982 4.99358 6.02694 5.00054 6.02182 5.00566C6.01669 5.01079 6.00973 5.01367 6.00248 5.01367H5.33275C5.33275 5.00918 5.33275 5.00449 5.33275 5C5.3327 4.98642 5.33185 4.97286 5.33022 4.95938H6.0015C6.00515 4.95922 6.00879 4.9598 6.01221 4.96108C6.01563 4.96236 6.01875 4.96432 6.02139 4.96683C6.02404 4.96935 6.02615 4.97237 6.02759 4.97572C6.02904 4.97907 6.0298 4.98268 6.02982 4.98633Z" fill="#3E436D" />
</svg>
