<svg viewBox="0 0 213 36" fill="none" xmlns="http://www.w3.org/2000/svg">
	<path d="M8.98743 32.1655L24.0559 23.3584C24.3506 23.1889 24.5262 23.0181 24.5158 22.6345C24.5067 22.2799 24.2839 22.1868 24.0623 22.0348C23.7767 21.8407 23.5881 22.0587 23.3873 22.1745C19.2101 24.578 15.0349 26.9848 10.8616 29.3947C9.88143 29.9602 8.89545 30.5152 7.92436 31.0955C7.5415 31.3245 7.2908 31.2708 6.77707 30.849L0.910362 27.4566C0.224313 27.1946 -0.00242535 27.007 0.00340508 26.5011C0.0189529 23.9846 0.0131224 21.4681 0.00923552 18.9522C0.00923552 18.6721 0.0157137 18.4412 0.315657 18.2697C3.75302 16.3037 7.09189 14.3235 10.5241 12.3472L10.8642 12.1389C10.8694 14.3384 10.8273 17.2496 10.8499 19.4536L10.8668 20.008C9.7823 20.6006 8.23079 21.5431 7.13788 22.1182C6.67084 22.3634 6.6462 22.7736 6.82241 23.0446C7.01675 23.3396 7.35685 23.6417 7.87251 23.3416C12.0449 20.913 16.2275 18.5022 20.4203 16.109C20.3821 14.8262 20.4002 13.5641 20.4002 12.1454L28.6807 16.917C29.4069 17.3356 30.1266 17.7651 30.8619 18.1675C31.132 18.3156 31.2422 18.4864 31.2409 18.8047C31.2275 21.4049 31.2275 24.0051 31.2409 26.6052C31.2409 26.8912 31.1541 27.0523 30.9014 27.1971C25.906 30.0682 20.6477 33.1035 15.6594 35.9875L8.98743 32.1655Z" fill="#292929" />
	<path d="M15.6121 0C20.5232 2.84643 25.8704 5.9277 30.7874 8.76506C30.9914 8.8828 31.2408 8.94881 31.2357 9.29101C31.2221 11.7603 31.2285 14.2302 31.2285 16.8017L18.9944 9.75031C18.9944 10.9607 19.006 12.0585 18.9905 13.1563C18.9801 13.8854 18.8843 15.3073 18.8843 15.3073C18.8843 15.3073 17.711 16.0636 17.0943 16.42C15.5201 17.3303 13.9452 18.2385 12.2894 19.1947L12.2648 9.74C8.55533 11.9052 4.24599 14.3712 0.526176 16.5145C0.386246 16.5947 0.239837 16.6626 0.00791612 16.7816C0.00791612 15.9407 0.00791612 15.1741 0.00791612 14.4069C0.00791612 12.7895 0.0189291 11.1781 0.00014221 9.56403C-0.00439256 9.18751 0.0986114 8.96304 0.440663 8.76699C5.36543 5.94387 10.2833 3.10951 15.1942 0.263942L15.6121 0Z" fill="#292929" />
	<path d="M42.5222 13.5171L37.1136 13.4867L37.1319 10.3455L51.8604 10.4282L51.8422 13.5695L46.4337 13.5391L46.3555 27.0557L42.444 27.0338L42.5222 13.5171ZM63.0235 27.4349C61.2692 27.4251 59.6859 27.0433 58.2738 26.2897C56.8775 25.5362 55.7807 24.5068 54.9834 23.2013C54.2023 21.8802 53.8164 20.4025 53.8259 18.7685C53.8353 17.1344 54.2382 15.6691 55.0345 14.3727C55.8469 13.0605 56.9554 12.0354 58.36 11.2976C59.7811 10.56 61.3685 10.1961 63.1236 10.2059C64.8779 10.2158 66.4529 10.5974 67.8492 11.3509C69.2455 12.1044 70.3417 13.1419 71.1392 14.4631C71.9367 15.7685 72.3306 17.2382 72.321 18.8723C72.3113 20.5064 71.9008 21.9796 71.0882 23.2918C70.2762 24.5881 69.1676 25.6052 67.7623 26.343C66.3577 27.0807 64.7786 27.4447 63.0235 27.4349ZM63.0429 24.1509C64.0404 24.1565 64.9435 23.9395 65.7506 23.4998C66.5585 23.0442 67.1897 22.4131 67.645 21.6066C68.1169 20.8002 68.3556 19.8813 68.3611 18.8501C68.3673 17.8189 68.139 16.8975 67.6767 16.0857C67.2311 15.2741 66.6067 14.6439 65.8044 14.1952C65.0021 13.7306 64.1025 13.4955 63.1043 13.4899C62.106 13.4843 61.2037 13.7092 60.3958 14.1648C59.5887 14.6045 58.9492 15.2276 58.478 16.034C58.0227 16.8406 57.7915 17.7595 57.786 18.7907C57.7798 19.8219 57.9999 20.7433 58.4456 21.5549C58.9078 22.3666 59.5404 23.0048 60.342 23.4694C61.1443 23.9181 62.0446 24.1453 63.0429 24.1509ZM82.6146 20.715L80.3318 23.0343L80.3069 27.2464L76.4202 27.2245L76.5161 10.5667L80.4035 10.5885L80.3587 18.3701L87.8886 10.6306L92.2348 10.655L85.1899 18.0403L92.5487 27.3151L87.9852 27.2895L82.6146 20.715ZM108.605 24.3116L108.587 27.4052L95.5 27.3317L95.5966 10.6739L108.37 10.7456L108.352 13.8392L99.4661 13.7893L99.4454 17.4064L107.292 17.4505L107.275 20.4489L99.4274 20.4049L99.4054 24.2599L108.605 24.3116ZM128.504 10.8587L128.408 27.5165L125.196 27.4985L116.828 17.3375L116.769 27.4512L112.906 27.4295L113.003 10.7716L116.238 10.7898L124.582 20.9506L124.641 10.837L128.504 10.8587ZM139.165 27.8625C137.829 27.855 136.534 27.6732 135.281 27.3172C134.044 26.9453 133.048 26.4717 132.295 25.8963L133.64 23.0005C134.361 23.5281 135.22 23.9534 136.216 24.2763C137.212 24.5992 138.209 24.7634 139.208 24.769C140.318 24.7753 141.14 24.6213 141.673 24.3069C142.206 23.9768 142.474 23.5419 142.478 23.0026C142.48 22.606 142.32 22.2798 142 22.0242C141.696 21.7527 141.294 21.5363 140.796 21.3749C140.315 21.2136 139.655 21.0353 138.82 20.8402C137.534 20.5316 136.481 20.2242 135.662 19.9182C134.843 19.6121 134.137 19.1243 133.546 18.4546C132.97 17.785 132.686 16.895 132.692 15.7845C132.697 14.8168 132.968 13.9457 133.504 13.1713C134.04 12.3811 134.84 11.7589 135.905 11.3048C136.986 10.8508 138.299 10.6281 139.844 10.6368C140.923 10.6429 141.977 10.7757 143.005 11.0353C144.034 11.2949 144.934 11.6649 145.703 12.1452L144.479 15.0654C142.923 14.184 141.364 13.739 139.802 13.7303C138.708 13.7241 137.894 13.8941 137.361 14.2401C136.843 14.5862 136.583 15.0448 136.58 15.616C136.577 16.1871 136.872 16.6171 137.466 16.906C138.076 17.1792 139 17.4541 140.238 17.7307C141.524 18.0393 142.577 18.3467 143.396 18.6528C144.215 18.9588 144.913 19.4387 145.488 20.0924C146.08 20.7462 146.373 21.6283 146.366 22.7388C146.361 23.6907 146.082 24.5617 145.53 25.3519C144.995 26.1263 144.186 26.7404 143.105 27.1945C142.024 27.6485 140.711 27.8712 139.165 27.8625ZM175.86 11.1246L170.235 27.7514L166.033 27.7278L162.38 16.4272L158.476 27.6853L154.299 27.6619L148.842 10.9729L152.898 10.9957L156.646 22.7252L160.697 11.0395L164.319 11.0598L168.114 22.8847L172.117 11.1036L175.86 11.1246ZM189.74 24.2913L181.893 24.2472L180.376 27.8083L176.368 27.7858L183.997 11.1703L187.86 11.192L195.321 27.8923L191.216 27.8692L189.74 24.2913ZM188.526 21.3574L185.882 14.9647L183.166 21.3272L188.526 21.3574ZM205.695 11.2922C207.192 11.3006 208.486 11.5538 209.577 12.0517C210.685 12.5497 211.535 13.2525 212.125 14.1602C212.715 15.0678 213.007 16.1404 213 17.3778C212.992 18.5994 212.689 19.6686 212.088 20.5854C211.487 21.4863 210.629 22.1795 209.516 22.6651C208.419 23.1349 207.121 23.3656 205.624 23.3572L202.221 23.338L202.194 27.9308L198.282 27.9089L198.379 11.2511L205.695 11.2922ZM205.426 20.2147C206.601 20.2214 207.495 19.9805 208.11 19.4921C208.725 18.9879 209.034 18.2757 209.04 17.3555C209.045 16.4196 208.743 15.7039 208.135 15.2087C207.526 14.6976 206.634 14.4387 205.459 14.4321L202.272 14.4143L202.238 20.1969L205.426 20.2147Z" fill="#292929" />
</svg>
