<svg width="184" height="31" viewBox="0 0 184 31" fill="none" xmlns="http://www.w3.org/2000/svg">
<path d="M119.52 12.2C120.44 12.2 121.213 12.3867 121.84 12.76C122.48 13.1333 122.933 13.6867 123.2 14.42C123.467 15.14 123.493 16.0267 123.28 17.08L122.1 23H119.6L120.76 17.14C120.933 16.2733 120.853 15.6 120.52 15.12C120.187 14.6267 119.58 14.38 118.7 14.38C117.78 14.38 117.02 14.6333 116.42 15.14C115.82 15.6467 115.413 16.42 115.2 17.46L114.08 23H111.58L114.54 8.16H117.04L115.6 15.36L115.08 14.4C115.587 13.64 116.22 13.0867 116.98 12.74C117.753 12.38 118.6 12.2 119.52 12.2ZM125.271 23L127.391 12.32H129.891L127.771 23H125.271ZM129.211 10.56C128.758 10.56 128.391 10.4267 128.111 10.16C127.845 9.88 127.711 9.54667 127.711 9.16C127.711 8.70667 127.865 8.32667 128.171 8.02C128.491 7.71333 128.905 7.56 129.411 7.56C129.851 7.56 130.211 7.69333 130.491 7.96C130.771 8.21333 130.911 8.52667 130.911 8.9C130.911 9.39333 130.758 9.79333 130.451 10.1C130.145 10.4067 129.731 10.56 129.211 10.56ZM134.693 23.14C133.759 23.14 132.886 23.0267 132.073 22.8C131.259 22.5733 130.633 22.3 130.193 21.98L131.233 20.06C131.673 20.3667 132.219 20.62 132.873 20.82C133.539 21.0067 134.233 21.1 134.953 21.1C135.779 21.1 136.386 20.9867 136.773 20.76C137.173 20.5333 137.373 20.22 137.373 19.82C137.373 19.5267 137.233 19.3067 136.953 19.16C136.673 19.0133 136.313 18.8933 135.873 18.8C135.446 18.7067 134.979 18.6067 134.473 18.5C133.979 18.3933 133.513 18.2467 133.073 18.06C132.646 17.8733 132.293 17.6 132.013 17.24C131.733 16.88 131.593 16.4 131.593 15.8C131.593 15.04 131.806 14.3933 132.233 13.86C132.659 13.3267 133.253 12.92 134.013 12.64C134.786 12.3467 135.673 12.2 136.673 12.2C137.393 12.2 138.099 12.28 138.793 12.44C139.486 12.6 140.059 12.8267 140.513 13.12L139.593 15.04C139.113 14.7333 138.593 14.52 138.033 14.4C137.486 14.28 136.953 14.22 136.433 14.22C135.619 14.22 135.013 14.3467 134.613 14.6C134.226 14.84 134.033 15.1467 134.033 15.52C134.033 15.8133 134.173 16.04 134.453 16.2C134.733 16.36 135.086 16.4933 135.513 16.6C135.953 16.6933 136.419 16.7933 136.913 16.9C137.419 16.9933 137.886 17.1333 138.313 17.32C138.753 17.5067 139.113 17.78 139.393 18.14C139.673 18.4867 139.813 18.9533 139.813 19.54C139.813 20.3133 139.593 20.9733 139.153 21.52C138.726 22.0533 138.126 22.46 137.353 22.74C136.579 23.0067 135.693 23.14 134.693 23.14ZM145.346 23.14C144.652 23.14 144.052 22.9933 143.546 22.7C143.052 22.3933 142.692 21.9667 142.466 21.42C142.252 20.86 142.219 20.2 142.366 19.44L144.266 9.96H146.766L144.866 19.42C144.786 19.9133 144.839 20.3133 145.026 20.62C145.212 20.9267 145.566 21.08 146.086 21.08C146.326 21.08 146.566 21.0467 146.806 20.98C147.059 20.9 147.286 20.7933 147.486 20.66L147.926 22.5C147.552 22.74 147.139 22.9067 146.686 23C146.232 23.0933 145.786 23.14 145.346 23.14ZM141.646 14.4L142.046 12.4H149.146L148.746 14.4H141.646ZM154.751 23.14C153.711 23.14 152.797 22.9467 152.011 22.56C151.237 22.16 150.637 21.6133 150.211 20.92C149.784 20.2133 149.571 19.3867 149.571 18.44C149.571 17.24 149.844 16.1733 150.391 15.24C150.937 14.2933 151.684 13.5533 152.631 13.02C153.591 12.4733 154.684 12.2 155.911 12.2C156.964 12.2 157.877 12.3933 158.651 12.78C159.437 13.1533 160.044 13.6933 160.471 14.4C160.897 15.0933 161.111 15.92 161.111 16.88C161.111 18.0667 160.837 19.1333 160.291 20.08C159.744 21.0267 158.991 21.7733 158.031 22.32C157.084 22.8667 155.991 23.14 154.751 23.14ZM154.911 21C155.631 21 156.264 20.8333 156.811 20.5C157.357 20.1533 157.791 19.68 158.111 19.08C158.431 18.48 158.591 17.7867 158.591 17C158.591 16.1733 158.344 15.52 157.851 15.04C157.357 14.56 156.664 14.32 155.771 14.32C155.064 14.32 154.431 14.4933 153.871 14.84C153.324 15.1733 152.891 15.64 152.571 16.24C152.251 16.84 152.091 17.5333 152.091 18.32C152.091 19.16 152.337 19.82 152.831 20.3C153.324 20.7667 154.017 21 154.911 21ZM162.361 23L164.481 12.32H166.861L166.261 15.36L166.041 14.48C166.535 13.6133 167.161 13.02 167.921 12.7C168.681 12.3667 169.608 12.2 170.701 12.2L170.241 14.58C170.135 14.5533 170.035 14.54 169.941 14.54C169.848 14.5267 169.741 14.52 169.621 14.52C168.648 14.52 167.841 14.78 167.201 15.3C166.561 15.8067 166.135 16.62 165.921 17.74L164.861 23H162.361ZM171.333 27.02C170.799 27.02 170.279 26.9333 169.773 26.76C169.253 26.5867 168.839 26.36 168.533 26.08L169.773 24.26C169.999 24.46 170.253 24.62 170.533 24.74C170.826 24.8733 171.159 24.94 171.533 24.94C171.946 24.94 172.313 24.8267 172.633 24.6C172.966 24.3867 173.299 24.0133 173.633 23.48L174.573 22.02L174.813 21.76L180.693 12.32H183.193L175.833 23.94C175.339 24.7133 174.866 25.3267 174.413 25.78C173.959 26.2333 173.486 26.5533 172.993 26.74C172.513 26.9267 171.959 27.02 171.333 27.02ZM174.073 23.38L171.453 12.32H173.953L176.053 21.54L174.073 23.38Z" fill="#100F0D"/>
<path d="M40.5498 11.4367C41.4998 11.4367 42.3052 11.6295 42.9661 12.015C43.627 12.4005 44.0881 12.9719 44.3497 13.7291C44.6251 14.4726 44.6527 15.3881 44.4324 16.4758L43.2139 22.5888H40.6324L41.8303 16.5377C42.0092 15.6428 41.9266 14.9476 41.5825 14.4519C41.2381 13.9425 40.6118 13.6878 39.703 13.6878C38.7531 13.6878 37.9683 13.9494 37.3487 14.4726C36.7292 14.9957 36.3093 15.7943 36.089 16.8682L34.9325 22.5888H32.3511L34.5401 11.5606H36.9977L36.3782 14.6997L35.9651 13.7085C36.4883 12.9237 37.1423 12.3523 37.9271 11.9943C38.7255 11.6226 39.5999 11.4367 40.5498 11.4367ZM51.4653 22.7333C50.5704 22.7333 49.7512 22.5406 49.0077 22.1551C48.278 21.7695 47.6928 21.2189 47.2523 20.5029C46.8255 19.7732 46.6122 18.899 46.6122 17.8801C46.6122 16.9439 46.7635 16.0834 47.0665 15.2986C47.3831 14.5139 47.8237 13.8324 48.3881 13.2541C48.9527 12.6759 49.6066 12.2284 50.3501 11.9117C51.1074 11.5951 51.9334 11.4367 52.8283 11.4367C53.7507 11.4367 54.5425 11.602 55.2033 11.9324C55.878 12.2628 56.3874 12.7653 56.7315 13.44C57.0757 14.1008 57.234 14.9269 57.2066 15.9182C57.179 17.2812 56.9312 18.4791 56.4631 19.5116C55.9949 20.5304 55.341 21.3221 54.5011 21.8866C53.6613 22.4511 52.6493 22.7333 51.4653 22.7333ZM52.1262 20.5236C52.8697 20.5236 53.5236 20.3515 54.0881 20.0072C54.6526 19.6493 55.1001 19.1606 55.4305 18.541C55.7609 17.9214 55.9261 17.2055 55.9261 16.3932C55.9261 15.5396 55.6713 14.8649 55.1621 14.3693C54.6526 13.8737 53.9366 13.6258 53.0142 13.6258C52.2845 13.6258 51.6306 13.8048 51.0522 14.1628C50.4878 14.507 50.0403 14.9889 49.71 15.6084C49.3794 16.228 49.2143 16.9439 49.2143 17.7562C49.2143 18.6098 49.469 19.2845 49.9784 19.7801C50.4878 20.2758 51.2037 20.5236 52.1262 20.5236ZM54.8315 22.5888L55.3272 20.0692L56.0294 17.1367L56.3804 14.1834L56.8968 11.5606H59.4782L57.2891 22.5888H54.8315ZM65.6231 22.7333C64.7282 22.7333 63.9091 22.5406 63.1656 22.1551C62.4358 21.7695 61.8508 21.2189 61.4101 20.5029C60.9834 19.7732 60.77 18.899 60.77 17.8801C60.77 16.9439 60.9215 16.0834 61.2243 15.2986C61.541 14.5139 61.9815 13.8324 62.5461 13.2541C63.1105 12.6759 63.7644 12.2284 64.5079 11.9117C65.2652 11.5951 66.0912 11.4367 66.9861 11.4367C67.9087 11.4367 68.7003 11.602 69.3612 11.9324C70.0357 12.2628 70.5452 12.7653 70.8893 13.44C71.2335 14.1008 71.392 14.9269 71.3644 15.9182C71.3368 17.2812 71.089 18.4791 70.6209 19.5116C70.1528 20.5304 69.4987 21.3221 68.6589 21.8866C67.8191 22.4511 66.8072 22.7333 65.6231 22.7333ZM66.284 20.5236C67.0275 20.5236 67.6814 20.3515 68.246 20.0072C68.8104 19.6493 69.2579 19.1606 69.5883 18.541C69.9187 17.9214 70.0839 17.2055 70.0839 16.3932C70.0839 15.5396 69.8293 14.8649 69.3198 14.3693C68.8104 13.8737 68.0945 13.6258 67.172 13.6258C66.4423 13.6258 65.7884 13.8048 65.2102 14.1628C64.6456 14.507 64.1981 14.9889 63.8678 15.6084C63.5374 16.228 63.3721 16.9439 63.3721 17.7562C63.3721 18.6098 63.6267 19.2845 64.1362 19.7801C64.6456 20.2758 65.3615 20.5236 66.284 20.5236ZM68.9893 22.5888L69.4851 20.0692L70.1872 17.1367L70.5384 14.1834L71.0546 11.5606H73.636L71.4469 22.5888H68.9893ZM77.7777 22.5888L75.2375 11.5606H77.7777L79.9668 21.2877H78.6657L84.7581 11.5606H87.3602L80.4418 22.5888H77.7777ZM86.7639 22.5888L88.953 11.5606H91.5345L89.3453 22.5888H86.7639ZM90.8322 9.74329C90.3642 9.74329 89.9856 9.60561 89.6964 9.33025C89.421 9.04112 89.2834 8.69692 89.2834 8.29765C89.2834 7.82954 89.4418 7.43716 89.7584 7.12049C90.0888 6.80384 90.5156 6.64551 91.0389 6.64551C91.4932 6.64551 91.8649 6.78319 92.1541 7.05853C92.4431 7.32013 92.5878 7.64368 92.5878 8.02918C92.5878 8.53859 92.4295 8.95164 92.1127 9.26829C91.7961 9.58495 91.3692 9.74329 90.8322 9.74329Z" fill="#100F0D"/>
<path fill-rule="evenodd" clip-rule="evenodd" d="M6.97559 9.26333C7.86344 8.35008 8.7988 8.34465 9.44549 8.68558C11.035 9.52319 11.3458 12.0962 11.5004 13.9368C11.6239 15.4072 11.8161 16.6936 12.0577 18.132C12.3211 19.7001 12.6047 22.5558 13.0419 23.8722C13.3159 24.6987 13.8279 25.1677 14.4558 25.462C16.5349 26.4379 21.262 27.1763 22.4648 24.5945C21.5767 25.5081 20.6415 25.5133 19.9947 25.1723C18.4052 24.335 18.0942 21.7618 17.9396 19.9211C17.8161 18.4508 17.6241 17.1644 17.3825 15.7256C17.1191 14.1576 16.8352 11.3022 16.3984 9.98549C16.1243 9.15918 15.6122 8.69037 14.9841 8.39567C12.9054 7.41995 8.17816 6.68155 6.97559 9.26333Z" fill="url(#paint0_linear_1_275)"/>
<path fill-rule="evenodd" clip-rule="evenodd" d="M3.65314 24.4195L3.32096 25.0876C3.17619 25.3791 3.29904 25.7301 3.58895 25.8777H3.58914C3.87923 26.0253 4.23922 25.8994 4.384 25.6079L4.71617 24.9397C4.86095 24.6482 4.73823 24.2972 4.44818 24.1496L4.448 24.1493C4.15777 24.0022 3.79808 24.1276 3.65314 24.4195ZM1.54736 25.7078L0.94914 26.911C0.804276 27.2025 0.927177 27.5539 1.21713 27.7014H1.21731C1.50736 27.8485 1.86722 27.7231 2.01199 27.4316L2.61022 26.2281C2.75503 25.9369 2.63236 25.5856 2.34222 25.4383L2.34209 25.438C2.052 25.2905 1.69213 25.4162 1.54736 25.7078ZM0.870032 23.0917L0.060919 24.7196C-0.0838557 25.0111 0.0388642 25.3623 0.328955 25.51H0.329135C0.61918 25.6572 0.979043 25.5319 1.12382 25.2402L1.93316 23.6123C2.07776 23.3208 1.95521 22.9695 1.66507 22.8221H1.66486C1.37472 22.6748 1.01503 22.8002 0.870032 23.0917ZM11.4466 13.3499C10.2656 15.7378 8.67428 18.8726 7.52335 21.2063C7.51393 21.2617 7.49657 21.3164 7.47041 21.3689L6.08161 24.1631C5.93684 24.4546 5.57678 24.5804 5.28674 24.4329C4.99669 24.285 4.8738 23.934 5.01875 23.6425C5.61589 22.4412 6.15841 21.2969 6.74852 20.1097C6.89329 19.8185 6.77057 19.4672 6.48053 19.3196H6.48034C6.1903 19.1721 5.83044 19.2977 5.68562 19.5894C5.02917 20.91 4.37408 22.2316 3.71759 23.5522C3.57281 23.8439 3.21282 23.9695 2.9229 23.822H2.92254C2.63268 23.6744 2.50996 23.3231 2.65474 23.032C3.21025 21.914 3.75425 20.8082 4.30912 19.6921C4.4539 19.4006 4.33106 19.0499 4.04101 18.902H4.04082C3.75087 18.7544 3.39091 18.8802 3.2461 19.1717C2.78687 20.0956 2.32499 20.9769 1.86993 21.8924C1.72511 22.1839 1.39695 22.2101 1.07524 22.1621H1.07502C0.753312 22.1138 0.662252 21.6632 0.807026 21.3717L1.1355 20.7106L1.11804 20.708C2.83021 17.1842 3.41648 15.9624 5.20917 12.4786C5.68977 11.5445 6.22547 10.3662 6.80278 9.51856C6.88468 9.39842 6.96947 9.28669 7.05633 9.18301C7.91974 8.35008 8.8183 8.355 9.44548 8.68558C10.8717 9.43729 11.2686 11.5864 11.4466 13.3499Z" fill="url(#paint1_linear_1_275)"/>
<path fill-rule="evenodd" clip-rule="evenodd" d="M21.0278 22.2652L20.2185 23.8933C20.0735 24.1845 20.1965 24.5358 20.4868 24.6831C20.7766 24.8309 21.1367 24.7048 21.2816 24.4136L22.0906 22.7854C22.2356 22.4942 22.1126 22.1428 21.8227 21.9953H21.8224C21.5324 21.8479 21.1724 21.9737 21.0278 22.2652ZM19.0178 19.7281L18.6859 20.3963C18.5407 20.6879 18.6637 21.0389 18.9535 21.1863H18.9538C19.2438 21.334 19.6037 21.2082 19.7484 20.9167L20.0806 20.2485C20.2256 19.9573 20.1028 19.6059 19.8128 19.4584H19.8125C19.5226 19.3108 19.1626 19.4363 19.0178 19.7281ZM23.7946 8.80614L20.3133 8.28486L33.481 2.60803C30.2686 9.18856 27.3685 15.5682 23.7834 21.9713C23.6448 22.2192 23.2449 22.3612 22.9504 22.201C22.7435 22.089 22.5313 21.8044 22.7443 21.4024L24.5676 17.9605C24.8077 17.508 24.6474 17.1857 24.4106 17.043C24.1421 16.8815 23.761 16.9569 23.4973 17.4545L21.6145 21.0084C21.0442 22.0847 20.071 21.459 20.5427 20.516C21.2322 19.1379 21.9584 17.7467 22.6918 16.3627C23.2015 15.3998 22.1407 14.8763 21.6215 15.8564L20.3229 18.3074C20.1764 18.5839 19.8608 18.7648 19.616 18.7341C19.282 18.692 19.0494 18.3192 19.282 17.8503C20.7814 14.8336 22.2934 11.8231 23.7946 8.80614Z" fill="url(#paint2_linear_1_275)"/>
<line x1="101.5" y1="30.0109" x2="101.5" y2="1.52588e-05" stroke="black"/>
<defs>
<linearGradient id="paint0_linear_1_275" x1="7.99861" y1="5.29374" x2="22.2062" y2="29.8875" gradientUnits="userSpaceOnUse">
<stop stop-color="#8ED8C6"/>
<stop offset="0.175355" stop-color="#47B4D5"/>
<stop offset="0.683681" stop-color="#356CBE"/>
<stop offset="1" stop-color="#29449D"/>
</linearGradient>
<linearGradient id="paint1_linear_1_275" x1="-2.97907" y1="34.2893" x2="12.6423" y2="5.26782" gradientUnits="userSpaceOnUse">
<stop stop-color="#8ED8C6"/>
<stop offset="0.322581" stop-color="#47B4D5"/>
<stop offset="0.698925" stop-color="#356CBE"/>
<stop offset="1" stop-color="#29449D"/>
</linearGradient>
<linearGradient id="paint2_linear_1_275" x1="16.3244" y1="25.6047" x2="30.7091" y2="-0.705101" gradientUnits="userSpaceOnUse">
<stop stop-color="#8ED8C6"/>
<stop offset="0.322581" stop-color="#47B4D5"/>
<stop offset="0.698925" stop-color="#356CBE"/>
<stop offset="1" stop-color="#29449D"/>
</linearGradient>
</defs>
</svg>
