<svg viewBox="0 0 35 39" fill="none" xmlns="http://www.w3.org/2000/svg">
<path d="M32.5099 16.423L25.9662 12.6436L19.2671 19.3428L25.9658 26.0415L32.5321 22.2495C33.5561 21.6274 34.1671 20.5406 34.1671 19.3428C34.1671 18.1449 33.5556 17.0582 32.5099 16.423Z" fill="#FFCE00"/>
<path d="M19.2673 19.3428L1.02009 0.964188C0.385433 1.59885 0 2.46003 0 3.41202V35.2175C0 36.1695 0.385433 37.0306 1.02009 37.6658L19.2673 19.3428Z" fill="url(#paint0_linear)"/>
<path d="M19.2675 19.3428L25.9667 12.6436L25.9773 12.6329L17.0013 7.46487L5.16877 0.510655C4.10327 -0.146706 2.81125 -0.169406 1.72306 0.442553C1.47383 0.600976 1.24682 0.759882 1.02029 0.963708L19.2675 19.3428Z" fill="#00F076"/>
<path d="M1.02029 37.6653C1.24682 37.8691 1.47383 38.028 1.72306 38.1865C2.26691 38.4811 2.83395 38.64 3.40051 38.64C4.01247 38.64 4.60173 38.4589 5.14607 38.1416L17.0008 31.2207L25.9768 26.0526L25.9662 26.042L19.2675 19.3428L1.02029 37.6653Z" fill="#F63448"/>
<defs>
<linearGradient id="paint0_linear" x1="-8.15495" y1="28.4903" x2="10.1956" y2="10.1392" gradientUnits="userSpaceOnUse">
<stop stop-color="#00E2FF"/>
<stop offset="1" stop-color="#00C5FF"/>
</linearGradient>
</defs>
</svg>
