
<svg width="21" height="21" viewBox="0 0 21 21" fill="none" xmlns="http://www.w3.org/2000/svg">
<circle cx="10.5" cy="10.5" r="10.5" transform="rotate(90 10.5 10.5)" fill="#F3F4F5"/>
<path d="M10.4384 14.6235L14.2882 11.6954C14.3596 11.6412 14.4 11.5652 14.4 11.4856V10.2274C14.4 9.97714 14.0355 9.8472 13.8116 10.0176L11.7523 11.585V7.44962C11.7523 7.20143 11.5061 7 11.2029 7H9.19683C8.89357 7 8.64745 7.20143 8.64745 7.44962V11.5847L6.58838 10.0174C6.36451 9.84697 5.99999 9.97691 5.99999 10.2271V11.4854C5.99999 11.565 6.04037 11.6409 6.11179 11.6951L9.96184 14.6233C10.0962 14.7255 10.3041 14.7255 10.4384 14.6235V14.6235Z" fill="#1F304F"/>
</svg>
