<svg width="59" height="70" viewBox="0 0 59 70" fill="none" xmlns="http://www.w3.org/2000/svg">
<path d="M57.186 57.4471C60.5419 49.6806 59.1971 40.8287 53.5201 34.601C52.6048 33.5981 52.4353 32.919 53.1406 31.6391C61.1276 17.3569 51.4052 0.0770879 35.4003 0.0257129C32.8341 0.0257129 30.2678 0.0659194 27.7016 0.00114238C26.6474 -0.0234282 26.3155 0.34513 26.3155 1.41953C26.3632 5.49154 26.3697 9.56581 26.3155 13.64C26.2981 14.7993 26.6517 15.1567 27.7754 15.1389C31.7299 15.0763 35.6866 15.0987 39.6433 15.1389C40.2943 15.1389 41.3461 14.7949 41.0058 16.2132L40.9881 26.0415C41.1226 27.2968 40.1944 26.9595 39.5977 26.964C35.7474 26.9908 31.897 27.0243 28.0487 26.9484C26.732 26.9216 26.2764 27.3169 26.3133 28.713C26.4001 32.2333 26.3328 35.7603 26.348 39.2828C26.348 41.9187 27.3654 42.9349 29.9663 42.9415C34.1899 42.9415 38.4156 42.9839 42.637 42.9217C43.9059 42.9038 44.3334 43.3681 44.3027 44.6437C44.2378 47.5051 44.2422 50.3685 44.3027 53.2323C44.3267 54.4561 43.8842 54.8695 42.7062 54.8559C38.2702 54.8069 33.8298 54.8827 29.3936 54.8271C21.1722 54.7245 14.8791 48.2868 14.838 39.8211C14.7743 27.2142 14.7794 14.6065 14.8531 1.99806C14.8531 0.392039 14.4193 -0.0301294 12.8878 0.00560964C8.61436 0.106126 4.33658 0.0301804 0.0609849 0.0234794C0.0609849 14.9333 -0.101709 29.8477 0.10437 44.7553C0.275741 57.2639 10.0981 68.0863 22.1896 69.5493C28.0964 70.2641 34.0402 69.967 39.958 69.7504C44.2312 69.594 48.0166 67.7958 51.3898 65.093C51.3898 65.0708 55.9238 60.6546 57.186 57.4471Z" fill="#18191D"/>
</svg>
