<svg viewBox="0 0 20 19" fill="none" xmlns="http://www.w3.org/2000/svg">
<path d="M19.6456 9.10991C19.6456 14.1414 15.5665 18.22 10.5353 18.22C9.52668 18.22 8.55667 18.056 7.64932 17.7532C7.63129 17.7472 7.61327 17.7411 7.59524 17.7349C7.57721 17.729 7.56004 17.7229 7.54287 17.7169C7.52142 17.7096 7.50082 17.7023 7.48108 17.695C7.42442 17.6752 7.36863 17.6547 7.31368 17.6336C7.28536 17.6232 7.25788 17.6126 7.23041 17.6017C7.20896 17.5937 7.18921 17.5856 7.16861 17.5773C7.15401 17.5719 7.14028 17.5665 7.12654 17.5606C7.10594 17.5524 7.08534 17.544 7.0656 17.5356C7.03813 17.5243 7.01066 17.513 6.98319 17.5013C6.95573 17.4899 6.92911 17.4781 6.90164 17.4665C6.87504 17.4547 6.84756 17.4427 6.82095 17.4306C6.79348 17.4187 6.76687 17.4064 6.74026 17.394C6.71793 17.3841 6.69648 17.3741 6.67502 17.3638C6.65528 17.3547 6.63553 17.3452 6.61579 17.3356C6.57716 17.3175 6.5394 17.2989 6.50076 17.2801C6.48102 17.2704 6.46127 17.2605 6.44153 17.2503C6.40376 17.2315 6.36685 17.2123 6.32908 17.193C6.3102 17.1829 6.29045 17.1727 6.27156 17.1626C6.23723 17.1441 6.20204 17.1254 6.1677 17.1065C6.12478 17.0829 6.08186 17.0592 6.03894 17.0347L6.02949 17.0291C6.01061 17.0186 5.99259 17.0081 5.97456 16.9976C5.9634 16.9912 5.95224 16.9847 5.94107 16.9784C5.92134 16.9667 5.90158 16.955 5.88185 16.9434C5.80201 16.8956 5.72305 16.8467 5.64407 16.7966C5.62862 16.7869 5.61316 16.7768 5.59771 16.7668C5.56424 16.7455 5.53161 16.724 5.499 16.7023C5.45435 16.6724 5.40972 16.6421 5.36508 16.6115C5.34105 16.5951 5.31701 16.5784 5.29298 16.5615C5.26894 16.5445 5.24491 16.5276 5.22173 16.5106C5.20026 16.4948 5.17794 16.4792 5.15648 16.4636C5.14962 16.4579 5.14275 16.4526 5.13503 16.4471C5.11614 16.4338 5.09897 16.4204 5.08095 16.4071C5.05777 16.3894 5.03374 16.3721 5.01142 16.3542C4.99682 16.3437 4.98308 16.3331 4.96935 16.3224C4.95133 16.3086 4.9333 16.2941 4.91442 16.2795L4.90584 16.2728C4.88866 16.2596 4.87149 16.2461 4.85518 16.2323C4.83801 16.2189 4.8217 16.2055 4.80454 16.1919C4.75904 16.1551 4.71441 16.118 4.66977 16.0804C4.64917 16.0634 4.62942 16.046 4.60882 16.0287C4.59251 16.0149 4.5762 16.0009 4.56075 15.987C4.54186 15.9708 4.52298 15.9544 4.50409 15.9379C4.45001 15.8895 4.39593 15.8406 4.34185 15.791C4.32297 15.7737 4.30494 15.7562 4.28606 15.7385L4.27661 15.729C4.25601 15.7098 4.23541 15.6905 4.21567 15.6711C4.18648 15.6429 4.15729 15.6144 4.12811 15.5858C4.11609 15.5736 4.10322 15.561 4.09034 15.5485C4.04999 15.5074 4.00879 15.4656 3.96844 15.4238C3.9487 15.4032 3.92896 15.3827 3.91007 15.3621L3.9032 15.3559C3.88689 15.3381 3.87059 15.3202 3.85342 15.3023C3.78989 15.2334 3.72723 15.1637 3.66543 15.0929C3.64825 15.074 3.6328 15.0548 3.61563 15.0355C3.59674 15.0135 3.57786 14.9913 3.55898 14.969C3.52207 14.9244 3.48515 14.8794 3.44824 14.834C3.43279 14.8143 3.41648 14.7947 3.40103 14.7749C3.39673 14.7701 3.39331 14.7652 3.38902 14.7603C3.37185 14.7393 3.3564 14.7182 3.33923 14.6969C3.3212 14.6739 3.30403 14.6508 3.286 14.6276C3.25424 14.5859 3.22334 14.5437 3.19158 14.5013C3.17012 14.4717 3.14865 14.4422 3.1272 14.4122C3.11518 14.3967 3.10402 14.3809 3.09372 14.3651C3.08084 14.3473 3.06797 14.3297 3.05595 14.3117C3.04307 14.2939 3.03105 14.276 3.01904 14.2582C2.99585 14.2244 2.97268 14.1904 2.9495 14.1562C2.92376 14.1173 2.898 14.078 2.87224 14.0385C2.86452 14.0256 2.85593 14.0124 2.84735 13.9993C2.83791 13.9849 2.82933 13.9706 2.81989 13.9562C2.81045 13.9415 2.80101 13.9265 2.79242 13.9117C2.77611 13.8855 2.76065 13.8597 2.74434 13.8338C2.72889 13.8079 2.71344 13.782 2.69713 13.756C2.69198 13.7461 2.68597 13.7365 2.68082 13.727C2.66452 13.6996 2.6482 13.6721 2.63275 13.6446C2.61987 13.6222 2.607 13.5999 2.59499 13.5775C2.58554 13.5608 2.5761 13.5439 2.56665 13.5271C2.53747 13.4757 2.50999 13.4241 2.48253 13.3722C2.47308 13.3547 2.46364 13.3369 2.4542 13.319C2.44304 13.2971 2.43103 13.275 2.41986 13.2528C2.40784 13.2294 2.39583 13.206 2.38381 13.182C2.3778 13.1685 2.37008 13.1549 2.36407 13.1412C2.33144 13.0762 2.30055 13.0112 2.26964 12.9454C2.25848 12.9212 2.24733 12.8971 2.23617 12.8729C2.22758 12.8518 2.21728 12.831 2.20869 12.8098C2.19753 12.7851 2.18637 12.7603 2.17521 12.7355C2.15204 12.6812 2.12886 12.6267 2.10654 12.5722C2.09882 12.5529 2.09109 12.5337 2.08337 12.5146C2.05933 12.4559 2.03616 12.3968 2.01383 12.3378C2.00182 12.306 1.98981 12.2741 1.97864 12.2422C1.96233 12.1987 1.94688 12.1553 1.93228 12.1118C1.9237 12.0894 1.91598 12.067 1.90825 12.0444C1.90568 12.036 1.9031 12.0277 1.89967 12.0194C1.8928 11.998 1.88593 11.9767 1.87906 11.9552C1.87305 11.9388 1.86791 11.9224 1.86276 11.9056C1.84387 11.8479 1.82583 11.7896 1.80867 11.7312C1.80352 11.7146 1.79837 11.6982 1.79322 11.6815C1.78721 11.6601 1.78121 11.6387 1.7752 11.6172C1.76232 11.5738 1.7503 11.5302 1.73828 11.4865C1.73313 11.4665 1.72798 11.4465 1.72283 11.4265C1.71596 11.401 1.70909 11.3758 1.70308 11.3503C1.69707 11.3278 1.69193 11.3052 1.68592 11.2825C1.68421 11.2744 1.68249 11.2662 1.67991 11.2581C1.67476 11.2334 1.66875 11.2086 1.66274 11.1837C1.66017 11.1746 1.65846 11.1652 1.65674 11.1561C1.64987 11.1302 1.64471 11.1041 1.6387 11.078C1.6224 11.0025 1.60609 10.9265 1.59149 10.8501C1.58892 10.8342 1.58548 10.8183 1.58291 10.8025C1.57862 10.7808 1.57433 10.7589 1.5709 10.7372C1.56918 10.7281 1.56745 10.7191 1.56574 10.7098C1.56144 10.6857 1.55716 10.6614 1.55287 10.637C1.55029 10.622 1.54772 10.6067 1.54514 10.5918C1.54085 10.5601 1.5357 10.5284 1.53055 10.4963C1.52454 10.459 1.51939 10.4214 1.51423 10.3839C1.50908 10.3512 1.5048 10.3188 1.50051 10.2862C1.49965 10.2766 1.49792 10.2672 1.49706 10.2577C1.49363 10.2264 1.48935 10.195 1.48591 10.1638C1.48591 10.1598 1.48505 10.1558 1.48505 10.1517C1.48076 10.1222 1.47819 10.0928 1.47475 10.0634C1.47046 10.0237 1.46702 9.98389 1.46359 9.94402C1.46102 9.92046 1.4593 9.89661 1.45758 9.87286C1.45672 9.86513 1.45587 9.8574 1.45501 9.84948C1.4533 9.82678 1.45157 9.80379 1.44985 9.7808C1.44814 9.76058 1.44729 9.74064 1.44643 9.72032C1.44214 9.67177 1.43955 9.62283 1.43698 9.57409C1.43526 9.53732 1.43355 9.50049 1.43183 9.46384V9.458C1.43098 9.42522 1.43012 9.39268 1.42926 9.35998C1.4284 9.3495 1.42839 9.33886 1.42839 9.32838C1.42753 9.29481 1.42667 9.26126 1.42667 9.2276C1.42582 9.18838 1.42582 9.14914 1.42582 9.10991C1.42582 8.71487 1.45071 8.32567 1.49964 7.94419L0 7.06363H11.5989C12.7268 7.06363 13.6411 7.97827 13.6411 9.10622C13.6411 9.67005 13.4127 10.1809 13.0428 10.5502C12.6736 10.9201 12.162 11.1487 11.5989 11.1487H9.42967L10.5584 9.10991H7.70168V9.11009L6.34281 11.1487L4.65431 13.6812H11.8461C12.1062 13.6812 12.3612 13.6595 12.6092 13.6176C13.2968 13.5023 13.932 13.2333 14.4789 12.8472L14.4969 12.8347C14.7037 12.6869 14.8986 12.5221 15.0781 12.3424C15.9056 11.5152 16.4172 10.3724 16.4172 9.11009C16.4172 6.58575 14.3699 4.53877 11.8461 4.53877H2.65421C4.23111 1.82473 7.17032 0 10.5353 0C15.5665 0 19.6456 4.07867 19.6456 9.10991Z" fill="#162542"/>
</svg>
