<svg width="26" height="26" viewBox="0 0 26 26" fill="none" xmlns="http://www.w3.org/2000/svg">
<path d="M25.4899 12.745C25.4899 19.7837 19.7836 25.49 12.7449 25.49C5.70603 25.49 0 19.7837 0 12.745C0 5.70606 5.70603 5.72205e-06 12.7449 5.72205e-06C19.7836 5.72205e-06 25.4899 5.70606 25.4899 12.745Z" fill="#151E27"/>
<path d="M23.9742 12.745C23.9742 18.947 18.9468 23.9743 12.7449 23.9743C6.54307 23.9743 1.51556 18.947 1.51556 12.745C1.51556 6.54327 6.54307 1.5157 12.7449 1.5157C18.9468 1.5157 23.9742 6.54327 23.9742 12.745Z" fill="#88C8EF"/>
<path d="M20.2029 4.35001C21.966 6.33328 23.037 8.94537 23.037 11.8078C23.037 18.0096 18.0095 23.0372 11.8077 23.0372C8.94529 23.0372 6.33309 21.9661 4.34979 20.2031C6.4067 22.5167 9.40555 23.9743 12.7449 23.9743C18.9469 23.9743 23.9742 18.947 23.9742 12.745C23.9742 9.4057 22.5166 6.40676 20.2029 4.35001Z" fill="#50ADE5"/>
<path d="M18.1736 18.0408C14.5928 18.7829 10.8969 18.7829 7.31622 18.0408C6.18523 17.8093 5.18242 16.995 4.45864 16.0233C3.73531 15.0413 3.29117 13.902 3.28931 12.7829C3.28824 11.6606 3.74122 10.6985 4.48174 9.95174C5.22149 9.21544 6.24882 8.69479 7.37688 8.69525C10.9556 8.69525 14.5343 8.69525 18.1131 8.69525C19.2408 8.69479 20.2684 9.21544 21.0079 9.95174C21.7485 10.6985 22.2016 11.6606 22.2005 12.7829C22.1987 13.902 21.7544 15.0413 21.0313 16.0233C20.3074 16.995 19.3045 17.8093 18.1736 18.0408Z" fill="#151E27"/>
<path d="M4.27315 11.5153C4.43791 11.1355 4.68089 10.7819 4.99507 10.4647C5.31352 10.1481 5.68953 9.88667 6.08283 9.70821C6.50393 9.5175 6.93895 9.4209 7.37688 9.4209H9.62875C9.94967 9.4209 10.1251 9.79438 9.92044 10.0416C8.87522 11.3044 7.60906 13.3614 6.75675 16.5199C6.68766 16.7762 6.38259 16.8846 6.16848 16.7279C6.16698 16.727 6.16546 16.7259 6.16388 16.7247C5.76314 16.4306 5.37508 16.0388 5.04158 15.5914C4.38095 14.6939 4.01636 13.6958 4.01496 12.7822C4.0145 12.3375 4.1014 11.9112 4.27315 11.5153Z" fill="#1E3A51"/>
<path d="M9.53469 14.4331C9.18921 14.4331 8.90923 14.153 8.90923 13.8076C8.90923 13.3144 8.50786 12.913 8.01465 12.913C7.52135 12.913 7.12009 13.3144 7.12009 13.8076C7.12009 14.153 6.84008 14.4331 6.49463 14.4331C6.14927 14.4331 5.86926 14.153 5.86926 13.8076C5.86926 13.2346 6.0924 12.6958 6.49765 12.2906C6.9028 11.8854 7.44164 11.6622 8.01465 11.6622C8.58777 11.6622 9.12642 11.8854 9.53167 12.2906C9.93692 12.6958 10.1601 13.2346 10.1601 13.8076C10.1601 14.153 9.87996 14.4331 9.53469 14.4331Z" fill="#7AD1BB"/>
<path d="M18.9952 14.4331C18.6498 14.4331 18.3697 14.153 18.3697 13.8076C18.3697 13.3144 17.9684 12.913 17.4749 12.913C16.982 12.913 16.5806 13.3144 16.5806 13.8076C16.5806 14.153 16.3005 14.4331 15.9552 14.4331C15.6098 14.4331 15.3295 14.153 15.3295 13.8076C15.3295 13.2346 15.5529 12.6958 15.9581 12.2906C16.3633 11.8854 16.9021 11.6622 17.4749 11.6622C18.0482 11.6622 18.587 11.8854 18.9922 12.2906C19.3974 12.6958 19.6206 13.2346 19.6206 13.8076C19.6206 14.153 19.3405 14.4331 18.9952 14.4331Z" fill="#7AD1BB"/>
</svg>
