<svg width="23" height="22" viewBox="0 0 23 22" fill="none" xmlns="http://www.w3.org/2000/svg">
<path d="M10.1587 0.0320764H0V9.01798L6.07738 7.20353V4.87962H9.91265C10.8929 4.87962 11.7877 5.03656 12.5716 5.33946C12.9495 5.4499 13.363 5.66373 13.7658 5.97036C13.8015 5.99174 13.8372 6.02019 13.8691 6.04884C14.2364 6.31623 14.5607 6.62992 14.8387 6.9899L14.8208 6.99696C14.9885 7.20726 15.1453 7.43189 15.2842 7.67063L15.2877 7.66711C15.3093 7.70281 15.3305 7.74184 15.3448 7.78108C15.744 8.48693 16.0008 9.29949 15.9971 10.1586C16.0149 10.3583 16.022 10.5613 16.022 10.7716C16.022 14.2469 13.8729 16.3786 10.6044 16.6387L6.57293 21.5147H10.1587C17.2803 21.5147 22.16 17.373 22.16 10.7716C22.16 4.17376 17.2803 0.0320764 10.1587 0.0320764" fill="#F47217"/>
<path d="M13.7658 5.97036L6.07738 9.62377L0 12.5144V9.01798L6.07738 7.20352L12.5716 5.33946C12.9495 5.4499 13.363 5.66373 13.7658 5.97036Z" fill="#F47217"/>
<path d="M15.2842 7.67063L6.07738 14.6818L0 19.3083V14.8313L6.07738 11.6201L14.8208 6.99696C14.9885 7.20726 15.1453 7.43189 15.2842 7.67063" fill="#F78E19"/>
<path d="M15.9971 10.1586L10.6044 16.6387L6.57295 21.5147H1.24066L6.8582 16.6671L15.7974 8.95383C15.6869 8.5297 15.5373 8.14106 15.3448 7.78108C15.744 8.48693 16.0008 9.29949 15.9971 10.1586Z" fill="#F47217"/>
<path d="M6.07738 4.87962H0V6.83296L6.07738 5.9766V4.87962Z" fill="#F9A82D"/>
<path d="M15.2842 7.67062L11.9231 10.2298C11.7163 9.78797 11.456 9.35657 11.1319 8.94676L14.8208 6.99695C14.9885 7.20725 15.1453 7.43188 15.2842 7.67062Z" fill="#EE2B21"/>
<path d="M13.7658 5.97036L9.95563 7.78108C9.41026 7.34968 8.76503 6.96831 8.01288 6.64777L12.5716 5.33946C12.9495 5.4499 13.363 5.66373 13.7658 5.97036" fill="#EE2B21"/>
<path d="M12.3935 14.4892C12.5681 13.6766 12.6003 12.7677 12.4363 11.8553L15.7974 8.95384C15.6869 8.5297 15.5372 8.14107 15.3448 7.78109C15.744 8.48694 16.0008 9.2995 15.9971 10.1586L12.3935 14.4892" fill="#EE2B21"/>
</svg>
