<svg width="16" height="21" viewBox="0 0 16 21" fill="none" xmlns="http://www.w3.org/2000/svg">
<path d="M5.31954 10.2194L3.94622 11.5927C3.76847 11.7705 3.46477 11.6445 3.46477 11.3931V8.64691C3.46477 8.39547 3.76847 8.26952 3.94622 8.44727L4.12307 8.62458L5.31954 9.82059C5.42538 9.92644 5.4294 10.0961 5.33159 10.2069L5.31954 10.2194ZM15.4557 0.0832062L13.388 2.151L8.168 7.3705L8.15773 7.38077L8.15728 7.38122C8.04652 7.48081 7.87547 7.47724 7.76918 7.3705L6.57316 6.17448L0.481891 0.0832062C0.303695 -0.0945435 0 0.0313988 0 0.282393V19.7576C0 20.0086 0.303695 20.1345 0.481891 19.9568L11.991 8.44727C12.1687 8.26952 12.4729 8.39547 12.4729 8.64691V15.9744C12.4729 16.1303 12.5992 16.2562 12.7551 16.2562H15.6554C15.8108 16.2562 15.9372 16.1303 15.9372 15.9744V0.282393C15.9372 0.0313988 15.6335 -0.0945435 15.4557 0.0832062Z" fill="#EE2B22"/>
<path d="M5.33169 10.2069C5.37903 10.1529 5.40271 10.0854 5.40226 10.0184C5.40181 9.94652 5.37412 9.87507 5.31963 9.82058L4.12317 8.62457L6.57326 6.17447L7.76928 7.37049C7.77285 7.37451 7.77687 7.37808 7.78044 7.38121C7.78178 7.38255 7.78313 7.38344 7.78447 7.38434C7.78625 7.38612 7.78803 7.38747 7.78982 7.38925C7.79295 7.39193 7.79607 7.39416 7.7992 7.39684C7.84832 7.43347 7.90683 7.45267 7.96533 7.45312C7.96667 7.45312 7.96757 7.45312 7.96891 7.45312C7.9698 7.45312 7.97115 7.45312 7.97204 7.45312C8.03099 7.45267 8.0895 7.43346 8.13862 7.3964C8.14532 7.39148 8.15157 7.38657 8.15738 7.38121L5.33169 10.2069Z" fill="#B82123"/>
</svg>
