<svg width="58" height="58" viewBox="0 0 58 58" fill="none" xmlns="http://www.w3.org/2000/svg">
<path fill-rule="evenodd" clip-rule="evenodd" d="M22.6763 57.3007C20.2087 56.7484 17.8611 55.8808 15.6757 54.744V47.4124V35.1571H22.6763V50.8452" fill="#0093DF"/>
<path fill-rule="evenodd" clip-rule="evenodd" d="M32.4994 57.7857C31.1017 57.9561 29.6744 58.0286 28.2256 57.9898C27.3036 57.9653 26.3931 57.8939 25.4961 57.7857V51.4721V27.7544H32.4994V51.4741" fill="#005CA2"/>
<path fill-rule="evenodd" clip-rule="evenodd" d="M42.3239 54.7381C40.1351 55.8775 37.7871 56.7475 35.3226 57.2997V50.8453V19.8788H42.3239V47.4126" fill="#142955"/>
<path fill-rule="evenodd" clip-rule="evenodd" d="M29.7726 0.0103951C45.7319 0.433113 58.4152 13.7986 57.9896 29.7746C57.7341 39.4331 52.7374 47.8835 45.2905 52.9618V44.8369C49.2786 40.7359 51.7435 35.1487 51.7435 29.0017C51.7435 16.4726 41.5274 6.25654 29.0006 6.25654C16.4713 6.25654 6.25345 16.4726 6.25345 29.0017C6.25345 35.1476 8.71751 40.7349 12.7056 44.8359V52.9657C4.82879 47.5874 -0.259867 38.4414 0.0102535 28.2282C0.432348 12.2687 13.8006 -0.415154 29.7726 0.0103951Z" fill="#142955"/>
</svg>
