<svg width="26" height="26" viewBox="0 0 26 26" fill="none" xmlns="http://www.w3.org/2000/svg">
<path fill-rule="evenodd" clip-rule="evenodd" d="M10.196 10.1963H15.294V15.2942H10.196V10.1963Z" fill="#ED1D24"/>
<path fill-rule="evenodd" clip-rule="evenodd" d="M5.09787 3.62396e-05H20.3921C23.196 3.62396e-05 25.49 2.29414 25.49 5.09804V8.23524H20.3921V6.27445C20.3921 5.62736 19.8627 5.09818 19.2154 5.09818H6.27442C5.62727 5.09818 5.09804 5.62736 5.09804 6.27445V10.1962V19.2158V25.49H5.09787C2.29401 25.49 0 23.1961 0 20.3922V5.09804C0 2.29414 2.29401 3.62396e-05 5.09787 3.62396e-05ZM16.0784 10.1962H25.49V20.3922C25.49 23.1961 23.196 25.49 20.3921 25.49H10.196V20.3922H19.2154C19.8627 20.3922 20.3921 19.8628 20.3921 19.2158V11.8283L16.0784 10.1962Z" fill="#100F0D"/>
</svg>
