<svg width="68" height="70" viewBox="0 0 68 70" fill="none" xmlns="http://www.w3.org/2000/svg">
<path fill-rule="evenodd" clip-rule="evenodd" d="M12.9267 20.3955C15.1127 17.1373 18.0133 14.3768 21.4043 12.3379V2.8375C18.3286 4.14774 15.477 5.87814 12.9267 7.9523C8.23252 11.7707 4.55413 16.7594 2.34014 22.4622C1.31718 25.0896 0.609518 27.871 0.259272 30.7577C0.0910935 32.1518 0 33.5674 0 35.0032C0 36.4327 0.0910935 37.8479 0.259272 39.2422C0.609518 42.1291 1.31718 44.9103 2.34014 47.5378C4.55413 53.2483 8.23252 58.2294 12.9267 62.0478C15.477 64.1217 18.3286 65.8527 21.4043 67.1628C22.6936 67.7092 24.0247 68.1854 25.3839 68.5848L25.8533 67.9544L28.1094 64.9347L30.933 61.1581L34.3308 56.6114V47.5378V39.2422H25.8533V47.5378V59.8062C24.298 59.2243 22.8126 58.5028 21.4043 57.6622C18.0133 55.6233 15.1127 52.8698 12.9267 49.605C12.4782 48.9395 12.0579 48.2457 11.6725 47.5378C10.2853 44.9945 9.30445 42.1991 8.82098 39.2422C8.59678 37.8621 8.48467 36.4471 8.48467 35.0032C8.48467 33.5604 8.59678 32.1379 8.82098 30.7577C9.30445 27.8009 10.2853 25.0057 11.6725 22.4622C12.0579 21.7544 12.4782 21.0611 12.9267 20.3955ZM34.3308 60.1491L33.3643 61.4456L27.605 69.1526C29.777 69.6356 32.0259 69.9164 34.3308 69.9865C34.6884 69.9932 35.0386 70 35.3956 70C35.7464 70 36.1034 69.9932 36.4541 69.9865C38.7592 69.9164 41.0082 69.6356 43.1801 69.1526L37.4206 61.4456L36.4541 60.1491L35.3956 58.7271L34.3308 60.1491ZM27.605 0.847839L33.3643 8.55476L34.3308 9.85111L35.3956 11.273L36.4541 9.85111L37.4206 8.55476L43.1801 0.847839C41.0082 0.371544 38.7592 0.0839157 36.4541 0.0138931C36.1034 0.00695038 35.7464 0 35.3956 0C35.0386 0 34.6884 0.00695038 34.3308 0.0138931C32.0259 0.0839157 29.777 0.371544 27.605 0.847839ZM57.8584 20.4025C55.672 17.1442 52.772 14.3843 49.3806 12.3454V2.84445C52.4566 4.15469 55.3079 5.88509 57.8584 7.96619C60.7937 10.3552 63.3372 13.1996 65.3691 16.3948C66.3154 17.8729 67.1487 19.4354 67.8565 21.0541L66.868 22.4691L61.7747 29.742L61.0536 30.7715L58.1663 34.8915L61.2144 39.2496L61.81 40.0969L67.0295 47.5519L67.919 48.8271C67.1418 50.6275 66.21 52.3512 65.1446 53.9765C63.148 57.0317 60.689 59.757 57.8584 62.0552C55.3079 64.1291 52.4566 65.8595 49.3806 67.1696V57.669C52.772 55.6301 55.672 52.8765 57.8584 49.6118C57.9001 49.5484 57.9423 49.4858 57.9846 49.4225L57.8584 49.2406L56.6743 47.5519L52.989 42.2901C50.3054 46.1227 47.6219 49.962 44.9314 53.7946V59.8129V67.9611L42.6755 64.9415L39.8519 61.1654L36.4541 56.6182V51.5455V51.1179L38.9548 47.5519C41.9677 43.2431 44.8405 39.1445 47.8186 34.8915C44.9105 30.7507 42.0169 26.6169 39.1163 22.4691L36.4541 18.6651V13.3958L42.6755 5.06561L44.9314 2.04581V10.2012V15.9955C47.6502 19.877 50.2846 23.6393 52.989 27.5L56.5129 22.4691L57.8584 20.5495L57.907 20.4795C57.8937 20.4517 57.8792 20.4303 57.8584 20.4025Z" fill="#18191D"/>
</svg>
