<svg viewBox="0 0 19 19" fill="none" xmlns="http://www.w3.org/2000/svg">
<path d="M17.321 5.50572C16.8671 4.43219 16.2171 3.46808 15.3895 2.64043C14.5618 1.81279 13.598 1.16313 12.5243 0.708893C11.4124 0.238602 10.2315 -1.90735e-06 9.01496 -1.90735e-06C7.7984 -1.90735e-06 6.61756 0.238602 5.50563 0.708893C4.43191 1.16313 3.46808 1.81279 2.64043 2.64043C1.81279 3.46808 1.16285 4.43219 0.708894 5.50572C0.238521 6.61772 0 7.79846 0 9.01504C0 10.2316 0.238521 11.4124 0.708894 12.5244C1.16285 13.598 1.81279 14.562 2.64043 15.3896C3.46808 16.2172 4.43191 16.8671 5.50563 17.3212C6.61756 17.7915 7.7984 18.03 9.01496 18.03C10.2315 18.03 11.4124 17.7915 12.5243 17.3212C12.6447 17.2703 12.7637 17.2167 12.8814 17.1609C13.4261 16.9022 13.9404 16.5914 14.4207 16.2308L8.84472 10.646L7.6099 11.881L11.5499 15.8273C10.7602 16.1222 9.90599 16.2834 9.01496 16.2834C5.00711 16.2834 1.74663 13.0229 1.74663 9.01504C1.74663 5.00739 5.00711 1.74663 9.01496 1.74663C12.3895 1.74663 15.2339 4.05795 16.0488 7.18071L14.181 5.30993L12.9459 6.54481L17.7288 11.3352C17.9164 10.6301 18.0166 9.9038 18.0285 9.16354C18.0294 9.11411 18.0299 9.06464 18.0299 9.01504C18.0299 7.79846 17.7913 6.61772 17.321 5.50572Z" fill="#CD2225"/>
<path d="M16.0044 14.7094C16.3819 14.2473 16.7112 13.751 16.9892 13.2238L11.6322 7.8584L10.3972 9.09339L16.0044 14.7094Z" fill="#222128"/>
</svg>
