<svg width="18" height="21" viewBox="0 0 18 21" fill="none" xmlns="http://www.w3.org/2000/svg">
<path fill-rule="evenodd" clip-rule="evenodd" d="M17.8466 10.8138C17.8466 13.4204 17.0173 15.5996 15.355 17.3607C13.6628 19.1467 11.5172 20.04 8.92304 20.04C6.34625 20.04 4.20552 19.1386 2.50411 17.3347C0.83362 15.5741 0 13.403 0 10.8138C0.0168134 9.62111 0.136675 8.70776 0.502231 7.56825C0.534773 7.46791 0.910635 7.51239 1.0484 7.50859C1.66832 7.49123 5.18775 7.33883 5.49907 7.51239C5.95737 7.76784 5.11073 9.08037 4.96321 9.46383C4.34816 11.0622 4.93175 12.6703 5.8592 14.0062C6.64129 14.8994 7.66257 15.348 8.92304 15.348C10.0983 15.348 11.1028 14.8777 11.9278 13.9329C12.7093 13.0315 13.1031 11.9842 13.1031 10.7877C13.0396 9.30492 12.9485 9.44105 12.3372 8.18926C11.9174 7.32907 12.533 7.43483 13.2381 7.47062C14.6201 7.54113 15.938 7.52052 17.3178 7.51835C17.6698 8.53312 17.8466 9.63196 17.8466 10.8138Z" fill="#4CA1DE"/>
<path fill-rule="evenodd" clip-rule="evenodd" d="M8.91382 -1.23978e-05C8.50907 0.388099 6.87772 3.08609 6.56207 3.79521C5.75686 5.60478 7.19926 7.31075 8.91329 7.31075C10.5463 7.31129 12.0767 5.63162 11.3112 3.89237C11.0058 3.19828 9.30676 0.36609 8.91382 -1.23978e-05Z" fill="#61BFED"/>
</svg>
