<svg width="26" height="29" viewBox="0 0 26 29" fill="none" xmlns="http://www.w3.org/2000/svg">
<path d="M15.8103 19.4306L15.8144 19.4276C15.6986 19.1185 15.6543 18.7872 15.6848 18.4586C15.7154 18.1299 15.8199 17.8124 15.9906 17.5299L15.9752 17.5145C15.5098 17.0475 15.0405 16.5841 14.5808 16.1114C14.4966 16.0248 14.4141 15.9707 14.3244 15.9507C13.8826 16.2283 13.3719 16.3767 12.8501 16.379C12.3284 16.3813 11.8164 16.2375 11.3722 15.9639C11.2799 15.9923 11.1948 16.0536 11.1069 16.1456C10.7168 16.5544 10.3199 16.9576 9.91036 17.3462C9.85057 17.4017 9.79424 17.4608 9.7417 17.5232C9.92293 17.8051 10.0369 18.1249 10.0749 18.4578C10.1129 18.7908 10.0738 19.128 9.96064 19.4434C9.96492 19.4468 9.96905 19.4507 9.97346 19.4538C10.4151 19.7815 10.926 20.0211 11.3514 20.3668C11.5461 20.5262 11.7642 20.6547 11.9981 20.7478C12.2453 20.5617 12.5473 20.463 12.8568 20.4672C13.1662 20.4715 13.4654 20.5784 13.7074 20.7712C14.4106 20.3277 15.1115 19.8808 15.8103 19.4306Z" fill="#050505"/>
<path d="M18.7411 16.412C19.073 15.8894 19.4012 15.3645 19.7358 14.8436C19.8145 14.721 19.8995 14.6014 19.9682 14.4766C19.7706 14.2384 19.6579 13.9413 19.6476 13.6321C19.6373 13.3228 19.73 13.0189 19.9112 12.7681C19.909 12.7641 19.907 12.76 19.9048 12.756C19.5297 12.1031 19.0971 11.4836 18.7111 10.8366C18.6941 10.8081 18.6771 10.7815 18.6598 10.7567C18.3426 10.8739 18.0026 10.916 17.6664 10.8795C17.3303 10.8431 17.0072 10.7292 16.7225 10.5468C16.7186 10.5499 16.7146 10.5527 16.7111 10.5559C16.2194 10.994 15.7729 11.4828 15.3017 11.9445C15.2592 11.9846 15.2223 12.0303 15.192 12.0803C15.4777 12.5273 15.6303 13.0463 15.632 13.5768C15.6337 14.1073 15.4844 14.6273 15.2016 15.076C15.2171 15.1796 15.2554 15.2817 15.309 15.3421C15.7102 15.7948 16.1648 16.1998 16.576 16.6442C16.624 16.6969 16.6752 16.7465 16.7293 16.7928C17.0093 16.624 17.3235 16.52 17.6489 16.4887C17.9743 16.4573 18.3026 16.4992 18.6096 16.6115C18.6477 16.5592 18.6893 16.4937 18.7411 16.412Z" fill="#050505"/>
<path d="M12.0011 6.5662C11.3173 6.96762 10.6535 7.40565 9.98599 7.83555C9.93855 7.86604 9.88114 7.90094 9.83228 7.93897C9.91247 8.22261 9.93453 8.51952 9.89713 8.81189C9.85972 9.10426 9.76363 9.38606 9.61462 9.64037C9.64906 9.68478 9.68646 9.72681 9.72659 9.76615C10.1981 10.2465 10.68 10.7168 11.1489 11.1996C11.1801 11.2322 11.2143 11.2617 11.2511 11.2878C11.7215 10.9629 12.2802 10.7901 12.8519 10.7928C13.4236 10.7954 13.9807 10.9734 14.448 11.3027C14.5107 11.264 14.5676 11.2167 14.6171 11.1621C15.0144 10.7413 15.4207 10.3277 15.8443 9.93367C15.8984 9.88427 15.9493 9.83146 15.9967 9.77555C15.84 9.49499 15.7471 9.18333 15.7246 8.86276C15.702 8.54219 15.7505 8.2206 15.8664 7.92088C15.8046 7.86893 15.7383 7.8225 15.6684 7.78214C15.1946 7.49995 14.7329 7.1971 14.2697 6.89753C14.0439 6.75153 13.825 6.58643 13.5859 6.48871C13.3644 6.64052 13.1038 6.72529 12.8354 6.73287C12.567 6.74045 12.302 6.67052 12.0723 6.53144C12.0477 6.54115 12.0238 6.55277 12.0011 6.5662Z" fill="#050505"/>
<path d="M10.4172 15.3406C10.4609 15.2923 10.4939 15.2156 10.5129 15.1329C10.2088 14.6755 10.0463 14.1386 10.0457 13.5893C10.0451 13.0401 10.2063 12.5028 10.5093 12.0447C10.483 12.0067 10.4529 11.9715 10.4194 11.9396C9.94624 11.4804 9.49923 10.9929 9.01064 10.5522C8.95522 10.5022 8.87958 10.4667 8.79696 10.4422C8.29704 10.7209 7.70779 10.7925 7.15568 10.6416C7.10153 10.7044 7.0534 10.7722 7.01195 10.844C6.67136 11.4084 6.31324 11.9623 5.95484 12.5157C5.87749 12.635 5.79744 12.7523 5.73547 12.8738C5.89645 13.1038 5.98436 13.3771 5.98774 13.6578C5.99112 13.9386 5.90981 14.2138 5.75442 14.4477C5.75741 14.4535 5.7604 14.4594 5.76368 14.4649C6.17464 15.1595 6.62235 15.8324 7.04471 16.5202C7.07471 16.57 7.10949 16.6168 7.14856 16.6599C7.44385 16.5505 7.75928 16.5062 8.07328 16.53C8.38729 16.5537 8.69245 16.645 8.9679 16.7977C9.47131 16.3331 9.95792 15.8482 10.4172 15.3406Z" fill="#050505"/>
<path d="M13.4918 2.24483C13.4918 1.62532 13.4975 1.00553 13.4898 0.386169C13.4975 1.00568 13.4922 1.62547 13.4914 2.24483C13.4914 2.40651 13.4862 2.56833 13.4922 2.72915C13.4862 2.56819 13.4914 2.40637 13.4918 2.24483Z" fill="#050505"/>
<path d="M12.269 2.23091C12.27 2.71608 12.2606 3.2014 12.2729 3.6863C12.2606 3.20197 12.2699 2.71608 12.2694 2.23091C12.2694 1.6245 12.2626 1.01796 12.2717 0.41156C12.2626 1.01796 12.269 1.6245 12.269 2.23091Z" fill="#050505"/>
<path d="M5.41895 4.23747C5.53373 4.41788 5.60564 4.62221 5.62914 4.83474C5.65265 5.04728 5.62714 5.26238 5.55456 5.46352C5.92848 5.84143 6.29799 6.22376 6.69143 6.57988C6.70043 6.58795 6.70995 6.59542 6.71992 6.60225C7.12008 6.39287 7.57533 6.31277 8.02293 6.37298C8.47052 6.43319 8.88842 6.63075 9.21903 6.93842C9.41347 6.90424 9.59181 6.79911 9.7797 6.64527C9.86261 6.57746 9.9636 6.53245 10.0504 6.4692C10.4942 6.14698 11.0106 5.92021 11.4142 5.55027C11.3679 5.24861 11.4216 4.94009 11.567 4.67178C11.7124 4.40346 11.9416 4.19006 12.2196 4.06411C12.2568 3.94162 12.2747 3.81407 12.2727 3.68605C12.2604 3.20173 12.2697 2.71584 12.2688 2.23066C12.2688 1.62426 12.2626 1.01772 12.2715 0.411316C12.2758 0.123144 12.1656 -0.0136059 11.8669 0.00106625C11.181 0.0349689 10.4937 0.046792 9.80834 0.0963639C9.65079 0.107617 9.46717 0.198784 9.35336 0.31146C8.03685 1.61429 6.73146 2.92923 5.41895 4.23747Z" fill="#050505"/>
<path d="M13.5174 4.14203C13.7233 4.26633 13.8936 4.44172 14.0118 4.65119C14.13 4.86065 14.192 5.0971 14.1919 5.3376C14.1919 5.36609 14.1909 5.39458 14.1892 5.42307C14.2489 5.51053 14.3143 5.59016 14.3956 5.64671C15.0253 6.08474 15.6738 6.49755 16.3349 6.88601C16.4061 6.92746 16.5059 6.95054 16.6067 6.95381C16.915 6.72669 17.2776 6.58462 17.6581 6.54184C18.0387 6.49906 18.4237 6.55708 18.7748 6.71009C18.891 6.68544 19.0058 6.6343 19.0785 6.56849C19.4738 6.21009 19.8437 5.82392 20.2195 5.44401C20.1454 5.25008 20.1154 5.04209 20.1317 4.83513C20.1479 4.62818 20.21 4.42743 20.3135 4.24745C19.0159 2.94248 17.7252 1.63068 16.4218 0.331551C16.2993 0.209331 16.1013 0.110757 15.9309 0.0976514C15.2472 0.0455155 14.5597 0.0346894 13.874 0.00164152C13.5956 -0.0117486 13.4864 0.113321 13.4894 0.386251C13.4971 1.00576 13.4918 1.62555 13.4914 2.24491C13.4914 2.40659 13.4858 2.56841 13.4914 2.72923C13.5096 3.19832 13.4372 3.68492 13.5174 4.14203Z" fill="#050505"/>
<path d="M25.1687 5.35706C24.3967 5.36063 23.6183 5.30208 22.8538 5.37216C22.7954 5.55327 22.7006 5.72055 22.5753 5.86374C22.45 6.00693 22.2967 6.12303 22.125 6.20492C21.9532 6.2868 21.7665 6.33275 21.5764 6.33996C21.3862 6.34716 21.1966 6.31546 21.0191 6.24679C20.6071 6.62172 20.2336 7.04707 19.8542 7.4576C19.82 7.49683 19.7932 7.5419 19.7751 7.59065C20.011 7.98579 20.116 8.4454 20.0751 8.90381C20.0342 9.36221 19.8494 9.79594 19.5472 10.143C19.5537 10.1541 19.5607 10.1654 19.568 10.1768C19.9985 10.8447 20.4137 11.5225 20.8402 12.1931L20.8467 12.2033C20.9119 12.1939 20.9777 12.1891 21.0436 12.189C21.2467 12.1887 21.4474 12.2328 21.6316 12.3184C21.644 12.3065 21.6567 12.2943 21.6695 12.2816C22.7096 11.2446 23.7458 10.2037 24.7782 9.15886C24.9138 9.02083 25.0488 8.83393 25.0814 8.65117C25.2593 7.67142 25.4049 6.68539 25.5618 5.7025C25.5774 5.4055 25.4046 5.35593 25.1687 5.35706Z" fill="#050505"/>
<path d="M1.79901 5.37411C1.9641 5.37411 2.1292 5.37767 2.29415 5.37411C2.1292 5.3771 1.9641 5.37325 1.79901 5.37339C1.4218 5.37339 1.04403 5.38764 0.667542 5.36926C1.04375 5.38878 1.4218 5.37411 1.79901 5.37411Z" fill="#050505"/>
<path d="M4.05766 12.2585C4.0907 12.2914 4.12276 12.3206 4.15381 12.3462C4.29467 12.3 4.44201 12.2764 4.59027 12.2766C4.65119 12.2766 4.71205 12.2805 4.77246 12.2884C4.80589 12.2467 4.83704 12.2031 4.86576 12.158C5.28143 11.5128 5.70521 10.8713 6.08483 10.2051C6.11394 10.1513 6.13441 10.0932 6.14552 10.033C5.82485 9.69309 5.62173 9.25924 5.56604 8.79527C5.51034 8.3313 5.60501 7.86171 5.83612 7.45555L5.83227 7.45071C5.50464 7.07636 5.131 6.74275 4.78756 6.38235C4.7622 6.35571 4.73656 6.32979 4.71092 6.30415C4.53314 6.36749 4.34437 6.39418 4.15599 6.3826C3.96762 6.37102 3.78353 6.32141 3.61485 6.23677C3.44616 6.15213 3.29636 6.0342 3.17448 5.8901C3.0526 5.746 2.96116 5.57871 2.90568 5.39832C2.72618 5.37583 2.54518 5.36755 2.36438 5.37354C2.34083 5.3743 2.31709 5.37487 2.29315 5.37524C2.1282 5.37824 1.9631 5.37439 1.798 5.37524C1.4208 5.37524 1.04303 5.38949 0.666541 5.37097C0.325663 5.35388 0.194183 5.49219 0.242901 5.82438C0.377799 6.74303 0.497597 7.6641 0.653008 8.57933C0.686626 8.77747 0.808276 8.98986 0.950724 9.13587C1.97763 10.1853 3.0165 11.223 4.05766 12.2585Z" fill="#050505"/>
<path d="M17.3216 20.7766C17.0048 20.6963 16.7102 20.5458 16.4596 20.3361C16.4147 20.3507 16.3716 20.3707 16.3314 20.3955C15.7933 20.727 15.2663 21.0767 14.7287 21.4093C14.5557 21.5164 14.3785 21.6174 14.2302 21.7435C14.2336 21.7832 14.2355 21.8233 14.2355 21.8639C14.2356 22.1157 14.1676 22.3629 14.0386 22.5792C13.9097 22.7955 13.7247 22.9729 13.5031 23.0926C13.4714 23.1729 13.4534 23.258 13.4499 23.3443C13.4291 24.7702 13.4385 26.1966 13.4403 27.6229C13.4403 27.752 13.4563 27.8812 13.4697 28.083C13.6107 28.0196 13.6808 28.0058 13.7268 27.9649C14.873 26.9488 16.0226 25.9365 17.1525 24.9023C17.2793 24.7862 17.3449 24.5462 17.3479 24.361C17.3655 23.2311 17.3605 22.1006 17.3553 20.9707C17.3548 20.9046 17.3434 20.839 17.3216 20.7766Z" fill="#050505"/>
<path d="M11.4414 21.8642C11.4414 21.8166 11.4438 21.7691 11.4485 21.7218C11.4301 21.7052 11.4106 21.6898 11.3901 21.6758C10.7685 21.2503 10.1243 20.8575 9.48972 20.4507C9.43673 20.4168 9.38559 20.3836 9.33417 20.3558C9.06666 20.5876 8.74663 20.7507 8.40185 20.8308C8.38533 20.8991 8.37828 20.9694 8.38091 21.0397C8.40669 22.1161 8.40028 23.1937 8.38433 24.2704C8.37934 24.6092 8.48276 24.8719 8.73005 25.0904C9.77799 26.0166 10.8261 26.9425 11.8743 27.8681C11.9606 27.9442 12.0679 27.9963 12.2589 28.1202C12.2722 27.8522 12.2865 27.6956 12.2874 27.5391C12.2893 26.2466 12.2831 24.9542 12.2914 23.6618C12.2925 23.4824 12.2962 23.3056 12.2696 23.1393C12.0232 23.0294 11.8138 22.8506 11.6668 22.6243C11.5199 22.398 11.4416 22.134 11.4414 21.8642Z" fill="#050505"/>
<path d="M0.512139 4.19888C1.27993 4.18534 2.05058 4.22737 2.81581 4.18463C2.91938 4.17886 3.02254 4.16716 3.12478 4.14959C3.25478 3.97636 3.42336 3.8358 3.61713 3.73905C3.81091 3.6423 4.02456 3.59202 4.24114 3.59219C4.27571 3.59219 4.30994 3.59342 4.34385 3.59589C4.38724 3.56009 4.42955 3.52282 4.47077 3.48407C5.44055 2.56884 6.36362 1.60376 7.30434 0.65819C7.39351 0.567736 7.47229 0.46674 7.59508 0.325859C7.46046 0.300076 7.39793 0.273011 7.33867 0.279136C4.99013 0.520301 2.66638 0.903486 0.382511 1.51017C0.101176 1.58481 -0.0130669 1.75732 0.00117794 2.0415C0.0296675 2.61984 0.0624306 3.19832 0.0711199 3.77709C0.0759632 4.08919 0.202314 4.20386 0.512139 4.19888Z" fill="#050505"/>
<path d="M25.1928 1.47151C23.1398 1.09858 21.0886 0.716532 19.035 0.346168C18.7644 0.297451 18.4855 0.299872 18.1164 0.27124C18.2097 0.416537 18.2312 0.467391 18.2674 0.503715C19.2879 1.52934 20.2798 2.58616 21.3475 3.55937C21.4063 3.55194 21.4655 3.54823 21.5247 3.54825C21.7517 3.5481 21.9752 3.60332 22.176 3.70912C22.3768 3.81491 22.5487 3.96809 22.6769 4.15537C22.7095 4.16021 22.742 4.16444 22.7742 4.16805C23.5861 4.25879 24.4157 4.18899 25.2378 4.19654C25.5005 4.1991 25.6398 4.11178 25.647 3.82916C25.6613 3.26379 25.6791 2.6977 25.7225 2.13403C25.7532 1.72862 25.5721 1.54059 25.1928 1.47151Z" fill="#050505"/>
<path d="M5.68241 18.1338C5.72561 18.1309 5.76809 18.1213 5.80833 18.1053C5.89257 17.8103 6.0382 17.5365 6.23568 17.3018C6.22824 17.2804 6.21869 17.2598 6.20719 17.2404C5.76204 16.5011 5.29695 15.7732 4.82644 15.0498C4.58025 15.0917 4.32734 15.0671 4.09383 14.9786C3.94697 15.1166 3.80651 15.2619 3.66649 15.4069C2.80511 16.2966 2.85724 15.9833 3.32931 17.1686C3.6239 17.9082 4.0038 18.3834 4.75536 18.1372C5.14538 18.1368 5.41475 18.1492 5.68241 18.1338Z" fill="#050505"/>
<path d="M20.6614 18.1362C20.7235 18.1381 20.7857 18.1399 20.8476 18.1399C20.9007 18.1399 20.9539 18.1385 21.0072 18.1369C20.9539 18.1385 20.9006 18.1399 20.8476 18.1399C20.7857 18.1399 20.7235 18.1379 20.6614 18.1362Z" fill="#050505"/>
<path d="M22.5586 15.9079C22.2561 15.6199 21.9706 15.314 21.6724 15.0214C21.6275 14.9768 21.5803 14.9347 21.5309 14.8951C21.3751 14.953 21.2102 14.9826 21.044 14.9824C21.0082 14.9824 20.9727 14.9811 20.9377 14.9784C20.9082 15.0169 20.878 15.0603 20.8467 15.1096C20.4478 15.7347 20.0581 16.3647 19.6599 16.9899C19.6048 17.0765 19.5517 17.158 19.5159 17.2425C19.7342 17.497 19.8908 17.7985 19.9733 18.1235C20.0622 18.1504 20.1635 18.1574 20.282 18.1437C20.3521 18.1362 20.4226 18.1327 20.4931 18.1332C20.5284 18.1332 20.5643 18.1332 20.5994 18.1346L20.6615 18.1363C20.7236 18.1382 20.7857 18.14 20.8477 18.14C20.9008 18.14 20.9539 18.1386 21.0072 18.1371L21.0605 18.1355C21.1782 18.1298 21.2961 18.1326 21.4133 18.1439C21.7762 18.1866 21.9917 18.0442 22.1273 17.703C22.2864 17.3033 22.4874 16.9196 22.67 16.5297C22.779 16.2961 22.7552 16.0949 22.5586 15.9079Z" fill="#050505"/>
<path d="M19.944 19.3033C19.8427 19.631 19.6658 19.9304 19.4274 20.1771C19.1891 20.4238 18.896 20.6111 18.572 20.7236C18.5223 20.8098 18.4865 20.8997 18.4818 20.9862C18.4479 21.5897 18.4667 22.197 18.4715 22.8019C18.4725 22.9273 18.5 23.0525 18.5161 23.1777L18.6255 23.2102C19.6051 22.021 20.4774 20.7594 21.2639 19.294C20.7484 19.2939 20.344 19.2809 19.944 19.3033Z" fill="#050505"/>
<path d="M7.22801 20.7787C6.88924 20.6674 6.58283 20.4749 6.33547 20.2181C6.08811 19.9612 5.9073 19.6478 5.8088 19.3051C5.79949 19.3025 5.78994 19.3009 5.78031 19.3002C5.38303 19.2769 4.98346 19.2903 4.44629 19.2903C5.26138 20.7536 6.1182 22.0237 7.14354 23.2744C7.20494 23.1167 7.23969 23.0687 7.24012 23.0203C7.24568 22.2938 7.25693 21.5673 7.23855 20.8425C7.23779 20.8209 7.23425 20.7994 7.22801 20.7787Z" fill="#050505"/>
<path d="M24.2582 11.295C23.6293 11.9218 22.9994 12.5473 22.3822 13.1852C22.4701 13.4801 22.4586 13.7957 22.3493 14.0834C22.5465 14.4349 22.953 14.6326 23.1993 14.949L23.354 14.9359L24.5345 11.2655L24.4205 11.2068C24.3655 11.2358 24.3 11.2534 24.2582 11.295Z" fill="#050505"/>
<path d="M3.27684 14.1488C3.16336 13.8343 3.16604 13.4897 3.28439 13.177C2.69935 12.5202 2.0525 11.9179 1.42601 11.298C1.40721 11.2793 1.35721 11.2922 1.2243 11.285L2.37044 14.8652L2.54665 14.8965C2.78824 14.6461 3.07271 14.4209 3.27684 14.1488Z" fill="#050505"/>
</svg>
