<svg width="22" height="22" viewBox="0 0 22 22" fill="none" xmlns="http://www.w3.org/2000/svg">
<path d="M22.0003 11.0003C22.0003 4.92454 17.0753 0 11.0003 0C4.92498 0 0 4.92454 0 11.0003C0 17.0751 4.92498 22 11.0003 22C17.0753 22 22.0003 17.0751 22.0003 11.0003Z" fill="#25B7D3"/>
<path d="M13.9785 15.943C13.917 15.8529 13.799 15.8208 13.7005 15.8675C12.6105 16.3835 11.3734 16.929 11.1306 16.9767C11.1245 16.9712 11.1147 16.9613 11.102 16.944C11.0691 16.8995 11.0531 16.8412 11.0531 16.766C11.0531 16.1494 11.5185 14.2738 12.4362 11.1914C13.21 8.60165 13.2995 8.06543 13.2995 7.8874C13.2995 7.61258 13.1943 7.38036 12.9951 7.21581C12.8059 7.05977 12.5415 6.98071 12.2094 6.98071C11.6569 6.98071 11.0167 7.19045 10.2519 7.62193C9.51083 8.0402 8.68435 8.74864 7.79558 9.72756C7.72601 9.80423 7.71873 9.91885 7.77806 10.0037C7.83748 10.0886 7.94767 10.121 8.04349 10.0819C8.35552 9.95459 9.92365 9.31222 10.1522 9.16864C10.3394 9.05132 10.5014 8.99177 10.6338 8.99177C10.6386 8.99177 10.6426 8.99194 10.6461 8.99221C10.6477 9.00099 10.6492 9.01438 10.6492 9.03358C10.6492 9.16869 10.6214 9.32863 10.5669 9.50816C9.23059 13.8377 8.58104 16.4918 8.58104 17.6223C8.58104 18.0213 8.69194 18.3425 8.91058 18.5769C9.1334 18.8161 9.43394 18.9373 9.80388 18.9373C10.1981 18.9373 10.6779 18.7726 11.2707 18.4338C11.8443 18.1061 12.7198 17.385 13.9473 16.2293C14.0268 16.1545 14.04 16.0331 13.9785 15.943Z" fill="white"/>
<path d="M13.9355 3.39957C13.7172 3.17605 13.4377 3.06271 13.1051 3.06271C12.6909 3.06271 12.3302 3.22638 12.0331 3.54918C11.7407 3.86666 11.5924 4.25625 11.5924 4.70706C11.5924 5.06326 11.7016 5.35844 11.917 5.58436C12.1352 5.81369 12.4109 5.92995 12.7362 5.92995C13.1334 5.92995 13.4922 5.75711 13.8025 5.41621C14.1074 5.0813 14.262 4.68755 14.262 4.24592C14.2621 3.90653 14.1522 3.62181 13.9355 3.39957Z" fill="white"/>
</svg>
