<svg width="15" height="15" viewBox="0 0 15 15" fill="none" xmlns="http://www.w3.org/2000/svg">
<g opacity="0.25">
<path d="M14.7083 11.9274L13.0454 10.8187L11.5672 9.8334C11.2819 9.64358 10.8985 9.70581 10.6878 9.97616L9.77312 11.1521C9.57663 11.4073 9.22316 11.4806 8.94139 11.3246C8.32071 10.9793 7.58674 10.6543 5.96729 9.03272C4.34783 7.41119 4.02068 6.6793 3.67542 6.05862C3.51941 5.77685 3.59274 5.42338 3.84791 5.22692L5.02385 4.31219C5.29417 4.10161 5.35643 3.71821 5.16661 3.43289L4.21154 2.00014L3.07258 0.291677C2.87873 0.000879504 2.49066 -0.0864243 2.19096 0.0933102L0.877418 0.881329C0.522432 1.09048 0.261487 1.42821 0.148637 1.8245C-0.210569 3.13415 -0.28299 6.02317 4.34704 10.6532C8.97707 15.2832 11.8658 15.2106 13.1755 14.8513C13.5718 14.7385 13.9095 14.4776 14.1186 14.1226L14.9067 12.8091C15.0864 12.5093 14.9991 12.1213 14.7083 11.9274Z" fill="#334480"/>
<path d="M8.53436 2.32753C10.9613 2.33023 12.9282 4.29703 12.9309 6.72404C12.9309 6.86686 13.0466 6.98267 13.1895 6.98267C13.3323 6.98267 13.4481 6.86689 13.4481 6.72404C13.4451 4.0115 11.2469 1.81329 8.53439 1.8103C8.39157 1.8103 8.27576 1.92608 8.27576 2.06893C8.27573 2.21172 8.39151 2.32753 8.53436 2.32753Z" fill="#334480"/>
<path d="M8.5343 3.87921C10.1047 3.88106 11.3772 5.15364 11.3791 6.724C11.3791 6.86682 11.4949 6.98263 11.6377 6.98263C11.7805 6.98263 11.8963 6.86685 11.8963 6.724C11.8942 4.86809 10.3902 3.36409 8.5343 3.36195C8.39147 3.36195 8.27567 3.47773 8.27567 3.62058C8.27567 3.76343 8.39145 3.87921 8.5343 3.87921Z" fill="#334480"/>
<path d="M8.53436 5.43096C9.24817 5.43181 9.8266 6.01024 9.82745 6.72405C9.82745 6.86687 9.94323 6.98268 10.0861 6.98268C10.2289 6.98268 10.3447 6.8669 10.3447 6.72405C10.3436 5.72471 9.53372 4.91487 8.53439 4.91373C8.39157 4.91373 8.27576 5.02951 8.27576 5.17236C8.27573 5.31518 8.39151 5.43096 8.53436 5.43096Z" fill="#334480"/>
</g>
</svg>
