<svg width="15" height="15" viewBox="0 0 15 15" fill="none" xmlns="http://www.w3.org/2000/svg">
<path d="M7.5 0C3.35791 0 0 3.35791 0 7.5C0 11.6421 3.35791 15 7.5 15C11.6421 15 15 11.6421 15 7.5C14.9954 3.35986 11.6401 0.00463869 7.5 0ZM7.5 14.5C3.63403 14.5 0.5 11.366 0.5 7.5C0.5 3.63403 3.63403 0.5 7.5 0.5C11.366 0.5 14.5 3.63403 14.5 7.5C14.4956 11.3641 11.3641 14.4956 7.5 14.5Z" fill="#334480" fill-opacity="0.25"/>
<path d="M7.5 6.25C6.80969 6.25 6.25 6.80969 6.25 7.5C6.25 8.19031 6.80969 8.75 7.5 8.75C8.19031 8.75 8.75 8.19031 8.75 7.5C8.74915 6.80994 8.19006 6.25085 7.5 6.25ZM7.5 8.25C7.08582 8.25 6.75 7.91418 6.75 7.5C6.75 7.08582 7.08582 6.75 7.5 6.75C7.91418 6.75 8.25 7.08582 8.25 7.5C8.25 7.91418 7.91418 8.25 7.5 8.25Z" fill="#334480" fill-opacity="0.25"/>
<path d="M4.5 6.25C3.80969 6.25 3.25 6.80969 3.25 7.5C3.25 8.19031 3.80969 8.75 4.5 8.75C5.19031 8.75 5.75 8.19031 5.75 7.5C5.74915 6.80994 5.19006 6.25085 4.5 6.25ZM4.5 8.25C4.08582 8.25 3.75 7.91418 3.75 7.5C3.75 7.08582 4.08582 6.75 4.5 6.75C4.91418 6.75 5.25 7.08582 5.25 7.5C5.25 7.91418 4.91418 8.25 4.5 8.25Z" fill="#334480" fill-opacity="0.25"/>
<path d="M10.5001 6.25C9.80975 6.25 9.25006 6.80969 9.25006 7.5C9.25006 8.19031 9.80975 8.75 10.5001 8.75C11.1904 8.75 11.7501 8.19031 11.7501 7.5C11.7492 6.80994 11.1901 6.25085 10.5001 6.25ZM10.5001 8.25C10.0859 8.25 9.75006 7.91418 9.75006 7.5C9.75006 7.08582 10.0859 6.75 10.5001 6.75C10.9142 6.75 11.2501 7.08582 11.2501 7.5C11.2501 7.91418 10.9142 8.25 10.5001 8.25Z" fill="#334480" fill-opacity="0.25"/>
</svg>
