<svg width="67" height="67" viewBox="0 0 67 67" fill="none" xmlns="http://www.w3.org/2000/svg">
<path d="M65.4078 66.48H43.9626C43.6782 66.48 43.4055 66.367 43.2044 66.1659C43.0033 65.9649 42.8904 65.6921 42.8904 65.4077C42.8904 65.1234 43.0033 64.8506 43.2044 64.6495C43.4055 64.4484 43.6782 64.3355 43.9626 64.3355H65.4078C65.6922 64.3355 65.9649 64.4484 66.166 64.6495C66.3671 64.8506 66.48 65.1234 66.48 65.4077C66.48 65.6921 66.3671 65.9649 66.166 66.1659C65.9649 66.367 65.6922 66.48 65.4078 66.48Z" fill="#84E188" fill-opacity="0.25"/>
<path d="M64.3355 54.6852H45.0349C43.8505 54.6852 42.8904 55.6453 42.8904 56.8297V60.0464C42.8904 61.2308 43.8505 62.191 45.0349 62.191H64.3355C65.5199 62.191 66.48 61.2308 66.48 60.0464V56.8297C66.48 55.6453 65.5199 54.6852 64.3355 54.6852Z" fill="#84E188" fill-opacity="0.25"/>
<path d="M64.3355 25.7342H45.0349C43.8505 25.7342 42.8904 26.6943 42.8904 27.8787V31.0955C42.8904 32.2799 43.8505 33.24 45.0349 33.24H64.3355C65.5199 33.24 66.48 32.2799 66.48 31.0955V27.8787C66.48 26.6943 65.5199 25.7342 64.3355 25.7342Z" fill="#84E188" fill-opacity="0.25"/>
<path d="M41.8181 39.6736H16.0839C15.2308 39.6736 14.4126 40.0125 13.8093 40.6157C13.206 41.219 12.8671 42.0372 12.8671 42.8903V45.0348C12.8671 45.888 13.206 46.7062 13.8093 47.3094C14.4126 47.9127 15.2308 48.2516 16.0839 48.2516H41.8181C42.1025 48.2516 42.3752 48.1386 42.5763 47.9376C42.7774 47.7365 42.8904 47.4637 42.8904 47.1794V40.7458C42.8904 40.4614 42.7774 40.1887 42.5763 39.9876C42.3752 39.7865 42.1025 39.6736 41.8181 39.6736Z" fill="#84E188" fill-opacity="0.25"/>
<path d="M45.0349 35.3845V52.5407H64.3355V35.3845H45.0349ZM55.7575 49.3239C55.7575 49.6083 55.6445 49.881 55.4434 50.0821C55.2423 50.2832 54.9696 50.3961 54.6852 50.3961C54.4008 50.3961 54.1281 50.2832 53.927 50.0821C53.7259 49.881 53.6129 49.6083 53.6129 49.3239V38.6013C53.6129 38.3169 53.7259 38.0442 53.927 37.8431C54.1281 37.642 54.4008 37.529 54.6852 37.529C54.9696 37.529 55.2423 37.642 55.4434 37.8431C55.6445 38.0442 55.7575 38.3169 55.7575 38.6013V49.3239Z" fill="#84E188" fill-opacity="0.25"/>
<path d="M37.529 0H9.65032C9.50927 2.98832e-05 9.36961 0.0278904 9.23934 0.0819855C9.10907 0.136081 8.99075 0.215347 8.89116 0.315244L0.313099 8.89331C0.112654 9.09426 6.03016e-05 9.36649 0 9.65032V50.3961C0 51.2493 0.338909 52.0675 0.942171 52.6707C1.54543 53.274 2.36363 53.6129 3.21677 53.6129H37.529C38.3822 53.6129 39.2004 53.274 39.8036 52.6707C40.4069 52.0675 40.7458 51.2493 40.7458 50.3961V3.21677C40.7458 2.36363 40.4069 1.54543 39.8036 0.942171C39.2004 0.338909 38.3822 0 37.529 0ZM8.57806 3.66069V8.57806H3.66069L8.57806 3.66069ZM38.6013 50.3961C38.6013 50.6805 38.4883 50.9532 38.2872 51.1543C38.0861 51.3554 37.8134 51.4684 37.529 51.4684H3.21677C2.93239 51.4684 2.65966 51.3554 2.45857 51.1543C2.25749 50.9532 2.14452 50.6805 2.14452 50.3961V10.7226H9.65032C9.9347 10.7226 10.2074 10.6096 10.4085 10.4085C10.6096 10.2074 10.7226 9.9347 10.7226 9.65032V2.14452H37.529C37.8134 2.14452 38.0861 2.25749 38.2872 2.45857C38.4883 2.65966 38.6013 2.93239 38.6013 3.21677V50.3961Z" fill="#84E188"/>
<path d="M26.8065 7.50581H34.3123C34.5966 7.50581 34.8694 7.39284 35.0705 7.19176C35.2715 6.99067 35.3845 6.71794 35.3845 6.43356C35.3845 6.14918 35.2715 5.87644 35.0705 5.67535C34.8694 5.47427 34.5966 5.3613 34.3123 5.3613H26.8065C26.5221 5.3613 26.2493 5.47427 26.0482 5.67535C25.8472 5.87644 25.7342 6.14918 25.7342 6.43356C25.7342 6.71794 25.8472 6.99067 26.0482 7.19176C26.2493 7.39284 26.5221 7.50581 26.8065 7.50581Z" fill="#84E188"/>
<path d="M26.8065 12.8671H34.3123C34.5966 12.8671 34.8694 12.7541 35.0705 12.5531C35.2715 12.352 35.3845 12.0792 35.3845 11.7949C35.3845 11.5105 35.2715 11.2377 35.0705 11.0367C34.8694 10.8356 34.5966 10.7226 34.3123 10.7226H26.8065C26.5221 10.7226 26.2493 10.8356 26.0482 11.0367C25.8472 11.2377 25.7342 11.5105 25.7342 11.7949C25.7342 12.0792 25.8472 12.352 26.0482 12.5531C26.2493 12.7541 26.5221 12.8671 26.8065 12.8671Z" fill="#84E188"/>
<path d="M28.6368 17.4703C28.4357 17.2693 28.163 17.1564 27.8787 17.1564C27.5944 17.1564 27.3217 17.2693 27.1206 17.4703L5.67547 38.9155C5.47437 39.1165 5.36136 39.3892 5.3613 39.6736V47.1794C5.3613 47.4638 5.47427 47.7365 5.67535 47.9376C5.87644 48.1387 6.14918 48.2516 6.43356 48.2516H13.9394C14.2237 48.2516 14.4964 48.1386 14.6974 47.9375L36.1426 26.4923C36.3436 26.2912 36.4566 26.0185 36.4566 25.7342C36.4566 25.4499 36.3436 25.1772 36.1426 24.9761L28.6368 17.4703ZM13.4954 46.1071H7.50581V40.1175L23.0536 24.5697L29.0432 30.5594L13.4954 46.1071ZM30.5594 29.0432L24.5697 23.0536L27.8787 19.7446L33.8684 25.7342L30.5594 29.0432Z" fill="#84E188"/>
</svg>
