<svg width="67" height="67" viewBox="0 0 67 67" fill="none" xmlns="http://www.w3.org/2000/svg">
<path d="M65.6689 64.3456H62.4536V23.6184H21.7264V64.3456H18.5111C18.2268 64.3456 17.9542 64.4585 17.7532 64.6595C17.5522 64.8605 17.4393 65.1331 17.4393 65.4174C17.4393 65.7016 17.5522 65.9742 17.7532 66.1752C17.9542 66.3762 18.2268 66.4891 18.5111 66.4891H36.7312V56.8432C36.7312 56.559 36.8441 56.2864 37.0451 56.0854C37.2461 55.8844 37.5187 55.7714 37.8029 55.7714H46.3771C46.6613 55.7714 46.9339 55.8844 47.1349 56.0854C47.3359 56.2864 47.4488 56.559 47.4488 56.8432V66.4891H65.6689C65.9531 66.4891 66.2257 66.3762 66.4267 66.1752C66.6277 65.9742 66.7407 65.7016 66.7407 65.4174C66.7407 65.1331 66.6277 64.8605 66.4267 64.6595C66.2257 64.4585 65.9531 64.3456 65.6689 64.3456ZM56.023 46.1255C56.023 46.4098 55.9101 46.6824 55.7091 46.8834C55.5081 47.0844 55.2355 47.1973 54.9512 47.1973H29.2288C28.9445 47.1973 28.6719 47.0844 28.4709 46.8834C28.2699 46.6824 28.157 46.4098 28.157 46.1255V31.1208C28.157 30.8365 28.2699 30.5639 28.4709 30.3629C28.6719 30.1619 28.9445 30.049 29.2288 30.049H54.9512C55.2355 30.049 55.5081 30.1619 55.7091 30.3629C55.9101 30.5639 56.023 30.8365 56.023 31.1208V46.1255Z" fill="#84E188" fill-opacity="0.25"/>
<path d="M20.6546 21.4749H63.5254C64.3781 21.4749 65.1959 21.1361 65.7989 20.5331C66.4019 19.9302 66.7407 19.1123 66.7407 18.2596C66.7407 17.4068 66.4019 16.589 65.7989 15.986C65.1959 15.383 64.3781 15.0443 63.5254 15.0443H20.6546C19.8019 15.0443 18.9841 15.383 18.3811 15.986C17.7781 16.589 17.4393 17.4068 17.4393 18.2596C17.4393 19.1123 17.7781 19.9302 18.3811 20.5331C18.9841 21.1361 19.8019 21.4749 20.6546 21.4749Z" fill="#84E188" fill-opacity="0.25"/>
<path d="M38.8748 39.6949C38.8748 41.1162 39.4393 42.4792 40.4443 43.4842C41.4493 44.4892 42.8123 45.0538 44.2336 45.0538H45.3054V32.1926H38.8748V39.6949Z" fill="#84E188" fill-opacity="0.25"/>
<path d="M47.4489 32.1926H53.8795V45.0538H47.4489V32.1926Z" fill="#84E188" fill-opacity="0.25"/>
<path d="M30.3006 32.1926H36.7312V45.0538H30.3006V32.1926Z" fill="#84E188" fill-opacity="0.25"/>
<path d="M38.8748 57.915H45.3054V66.4891H38.8748V57.915Z" fill="#84E188" fill-opacity="0.25"/>
<path d="M49.5924 16.3915C48.7477 16.3917 47.922 16.6415 47.2188 17.1094C46.5155 17.5773 45.9662 18.2426 45.6397 19.0216L34.7517 17.4397L29.8719 7.55583C30.5378 6.98621 31.0132 6.22619 31.234 5.37813C31.4549 4.53006 31.4105 3.63471 31.1068 2.81265C30.8032 1.99059 30.255 1.28132 29.536 0.780371C28.8169 0.279424 27.9616 0.0108643 27.0853 0.0108643C26.209 0.0108643 25.3537 0.279424 24.6346 0.780371C23.9156 1.28132 23.3674 1.99059 23.0637 2.81265C22.7601 3.63471 22.7157 4.53006 22.9365 5.37813C23.1573 6.22619 23.6327 6.98621 24.2987 7.55583L19.4211 17.4397L8.53085 19.0216C8.23106 18.3062 7.74282 17.6856 7.11813 17.2258C6.49345 16.7661 5.75574 16.4844 4.98359 16.4108C4.21145 16.3372 3.43381 16.4745 2.73354 16.808C2.03327 17.1416 1.43659 17.6588 1.0071 18.3047C0.577605 18.9505 0.331381 19.7008 0.294663 20.4756C0.257946 21.2504 0.43211 22.0206 0.798599 22.7042C1.16509 23.3878 1.71017 23.9591 2.37577 24.3574C3.04136 24.7556 3.80253 24.9658 4.57817 24.9656C5.35985 24.9625 6.12545 24.7433 6.7903 24.3322L14.6807 32.0221L12.8168 42.8867C11.9385 42.956 11.1025 43.2932 10.4217 43.8526C9.74096 44.412 9.2482 45.1668 9.00992 46.0151C8.77165 46.8634 8.79933 47.7644 9.08924 48.5965C9.37914 49.4286 9.91731 50.1517 10.6311 50.6683C11.3449 51.1849 12.2001 51.4701 13.0811 51.4854C13.9621 51.5007 14.8265 51.2453 15.5579 50.7539C16.2892 50.2624 16.8522 49.5584 17.1708 48.7369C17.4894 47.9154 17.5484 47.0159 17.3397 46.1598L27.0853 41.0357L36.8309 46.1598C36.6267 47.0115 36.6883 47.9052 37.0074 48.7208C37.3264 49.5364 37.8876 50.2348 38.6154 50.7219C39.3433 51.209 40.2028 51.4615 41.0784 51.4454C41.9541 51.4294 42.8038 51.1455 43.5133 50.6321C44.2228 50.1187 44.758 49.4002 45.0469 48.5735C45.3358 47.7467 45.3646 46.8513 45.1294 46.0077C44.8942 45.1641 44.4063 44.4128 43.7313 43.8548C43.0563 43.2968 42.2265 42.9589 41.3537 42.8867L39.4899 32.0221L47.3803 24.3322C48.0451 24.7433 48.8107 24.9625 49.5924 24.9656C50.7294 24.9656 51.8199 24.514 52.6238 23.71C53.4278 22.906 53.8795 21.8156 53.8795 20.6786C53.8795 19.5416 53.4278 18.4511 52.6238 17.6471C51.8199 16.8432 50.7294 16.3915 49.5924 16.3915ZM4.57817 22.8221C4.15422 22.8221 3.73979 22.6964 3.38728 22.4608C3.03478 22.2253 2.76004 21.8905 2.5978 21.4988C2.43556 21.1072 2.39311 20.6762 2.47582 20.2604C2.55853 19.8446 2.76268 19.4626 3.06246 19.1628C3.36224 18.8631 3.74418 18.6589 4.15999 18.5762C4.57579 18.4935 5.00678 18.5359 5.39846 18.6982C5.79014 18.8604 6.12492 19.1352 6.36045 19.4877C6.59599 19.8402 6.7217 20.2546 6.7217 20.6786C6.7217 21.2471 6.49587 21.7923 6.09388 22.1943C5.69189 22.5963 5.14667 22.8221 4.57817 22.8221ZM27.0853 2.18306C27.5677 2.18177 28.0364 2.34375 28.4151 2.64265C28.7938 2.94155 29.0602 3.35979 29.171 3.82932C29.2818 4.29886 29.2304 4.79207 29.0253 5.22873C28.8202 5.66539 28.4734 6.01981 28.0413 6.23434H28.0285C28.022 6.23434 28.0188 6.24291 28.0124 6.24613C27.7247 6.39064 27.4072 6.4659 27.0853 6.4659C26.7634 6.4659 26.4459 6.39064 26.1582 6.24613C26.1518 6.24613 26.1486 6.23755 26.1421 6.23434H26.1293C25.6972 6.01981 25.3504 5.66539 25.1453 5.22873C24.9401 4.79207 24.8888 4.29886 24.9996 3.82932C25.1104 3.35979 25.3768 2.94155 25.7555 2.64265C26.1342 2.34375 26.6029 2.18177 27.0853 2.18306ZM13.1748 49.2808C12.7509 49.2808 12.3364 49.1551 11.9839 48.9196C11.6314 48.684 11.3567 48.3493 11.1945 47.9576C11.0322 47.5659 10.9898 47.1349 11.0725 46.7191C11.1552 46.3033 11.3593 45.9214 11.6591 45.6216C11.9589 45.3218 12.3408 45.1176 12.7566 45.0349C13.1724 44.9522 13.6034 44.9947 13.9951 45.1569C14.3868 45.3192 14.7216 45.5939 14.9571 45.9464C15.1926 46.2989 15.3184 46.7133 15.3184 47.1373C15.3184 47.7058 15.0925 48.251 14.6905 48.653C14.2885 49.055 13.7433 49.2808 13.1748 49.2808ZM40.9958 44.9937C41.4197 44.9937 41.8342 45.1195 42.1867 45.355C42.5392 45.5905 42.8139 45.9253 42.9761 46.317C43.1384 46.7087 43.1808 47.1397 43.0981 47.5555C43.0154 47.9713 42.8113 48.3532 42.5115 48.653C42.2117 48.9528 41.8298 49.1569 41.414 49.2396C40.9981 49.3223 40.5672 49.2799 40.1755 49.1177C39.7838 48.9554 39.449 48.6807 39.2135 48.3282C38.978 47.9757 38.8522 47.5612 38.8522 47.1373C38.8522 46.5688 39.0781 46.0236 39.4801 45.6216C39.8821 45.2196 40.4273 44.9937 40.9958 44.9937ZM37.5886 30.8807C37.4643 31.0021 37.3714 31.1518 37.3178 31.317C37.2642 31.4823 37.2516 31.658 37.281 31.8292L39.2391 43.2318C38.7057 43.4751 38.2279 43.8253 37.8351 44.2607L27.5847 38.8718C27.4308 38.7907 27.2593 38.7483 27.0853 38.7483C26.9113 38.7483 26.7398 38.7907 26.5859 38.8718L16.3355 44.2649C15.9427 43.8296 15.4649 43.4794 14.9314 43.236L16.8874 31.8292C16.9169 31.658 16.9042 31.4823 16.8507 31.317C16.7971 31.1518 16.7041 31.0021 16.5798 30.8807L8.28434 22.7942C8.575 22.2877 8.75747 21.7264 8.82023 21.1458L20.2881 19.4803C20.4602 19.4552 20.6236 19.3887 20.7642 19.2863C20.9048 19.184 21.0184 19.049 21.0952 18.893L26.2139 8.52256C26.7914 8.64403 27.3878 8.64403 27.9652 8.52256L33.084 18.893C33.1608 19.049 33.2744 19.184 33.415 19.2863C33.5556 19.3887 33.7189 19.4552 33.891 19.4803L45.3589 21.1458C45.4217 21.7264 45.6042 22.2877 45.8948 22.7942L37.5886 30.8807ZM49.5924 22.8221C49.1685 22.8221 48.754 22.6964 48.4015 22.4608C48.049 22.2253 47.7743 21.8905 47.6121 21.4988C47.4498 21.1072 47.4074 20.6762 47.4901 20.2604C47.5728 19.8446 47.7769 19.4626 48.0767 19.1628C48.3765 18.8631 48.7584 18.6589 49.1742 18.5762C49.59 18.4935 50.021 18.5359 50.4127 18.6982C50.8044 18.8604 51.1392 19.1352 51.3747 19.4877C51.6102 19.8402 51.736 20.2546 51.736 20.6786C51.736 21.2471 51.5101 21.7923 51.1081 22.1943C50.7061 22.5963 50.1609 22.8221 49.5924 22.8221Z" fill="#84E188"/>
</svg>
