<svg width="67" height="67" viewBox="0 0 67 67" fill="none" xmlns="http://www.w3.org/2000/svg">
<path d="M21.5918 59.4417C25.1467 62.7123 29.5208 64.9592 34.2498 65.9439C32.1386 63.2493 30.4144 59.0214 29.3003 53.8006C26.3894 55.1634 23.7713 57.0794 21.5918 59.4417Z" fill="#84E188" fill-opacity="0.25"/>
<path d="M38.631 12.9218C38.3469 12.9325 38.0638 12.9507 37.7818 12.9711C35.1837 14.5956 32.7122 19.4047 31.2914 26.4269C33.6493 27.2835 36.1246 27.7732 38.631 27.8787V12.9218Z" fill="#84E188" fill-opacity="0.25"/>
<path d="M38.631 49.3786V40.7726H30.0637C30.097 44.1455 30.3769 47.5113 30.9011 50.8433C33.3909 49.9747 35.996 49.4811 38.631 49.3786Z" fill="#84E188" fill-opacity="0.25"/>
<path d="M40.7755 66.48C41.0608 66.4682 41.3438 66.451 41.6258 66.4307C44.2239 64.8062 46.6955 59.9971 48.1162 52.9749C45.758 52.1181 43.2823 51.6285 40.7755 51.5231V66.48Z" fill="#84E188" fill-opacity="0.25"/>
<path d="M37.7818 66.4307C38.0638 66.451 38.3469 66.4682 38.631 66.48V51.5231C36.1246 51.6286 33.6493 52.1182 31.2914 52.9749C32.7122 59.9961 35.1837 64.8062 37.7818 66.4307Z" fill="#84E188" fill-opacity="0.25"/>
<path d="M29.3002 25.597C30.4143 20.3729 32.1385 16.1482 34.2498 13.4536C29.5224 14.4406 25.1503 16.6885 21.5971 19.959C23.7751 22.3199 26.3913 24.2348 29.3002 25.597Z" fill="#84E188" fill-opacity="0.25"/>
<path d="M50.1074 53.8049C48.9933 59.0257 47.2681 63.2536 45.1568 65.9482C49.8867 64.9625 54.2613 62.7141 57.8159 59.4417C55.6356 57.0814 53.0176 55.167 50.1074 53.8049Z" fill="#84E188" fill-opacity="0.25"/>
<path d="M38.631 38.6281V30.0232C35.9961 29.9202 33.3911 29.4266 30.9011 28.5585C30.3769 31.8902 30.097 35.2557 30.0637 38.6281H38.631Z" fill="#84E188" fill-opacity="0.25"/>
<path d="M27.9192 38.6281C27.9574 34.9864 28.28 31.3533 28.8843 27.7618C25.5511 26.2841 22.5531 24.1441 20.0724 21.472C15.7117 26.15 13.175 32.2378 12.9237 38.6281H27.9192Z" fill="#84E188" fill-opacity="0.25"/>
<path d="M28.8853 51.64C28.2811 48.0482 27.9584 44.4147 27.9203 40.7726H12.9247C13.1761 47.163 15.7128 53.2508 20.0735 57.9288C22.5545 55.2573 25.5524 53.1178 28.8853 51.64Z" fill="#84E188" fill-opacity="0.25"/>
<path d="M51.4884 40.7726C51.4503 44.4147 51.1276 48.0482 50.5234 51.64C53.8562 53.118 56.854 55.2575 59.3352 57.9288C63.6959 53.2508 66.2327 47.163 66.484 40.7726H51.4884Z" fill="#84E188" fill-opacity="0.25"/>
<path d="M40.7755 40.7726V49.3786C43.4109 49.4811 46.0163 49.9747 48.5065 50.8433C49.0308 47.5113 49.3107 44.1455 49.3439 40.7726H40.7755Z" fill="#84E188" fill-opacity="0.25"/>
<path d="M50.5224 27.7618C51.1266 31.3533 51.4492 34.9864 51.4874 38.6281H66.4829C66.2316 32.2378 63.6949 26.15 59.3342 21.472C56.8533 24.1438 53.8554 26.2837 50.5224 27.7618Z" fill="#84E188" fill-opacity="0.25"/>
<path d="M57.8159 19.959C54.2609 16.6874 49.8864 14.4394 45.1568 13.4536C47.2681 16.1482 48.9933 20.3729 50.1074 25.597C53.0179 24.2348 55.6359 22.32 57.8159 19.959Z" fill="#84E188" fill-opacity="0.25"/>
<path d="M40.7755 30.0232V38.6281H49.3439C49.3106 35.2557 49.0307 31.8902 48.5065 28.5585C46.0162 29.4266 43.4108 29.9202 40.7755 30.0232Z" fill="#84E188" fill-opacity="0.25"/>
<path d="M41.6258 12.9743C41.3438 12.954 41.0608 12.9357 40.7755 12.925V27.8787C43.2823 27.7733 45.758 27.2837 48.1162 26.4269C46.6955 19.4079 44.2239 14.5956 41.6258 12.9743Z" fill="#84E188" fill-opacity="0.25"/>
<path d="M53.5182 18.8439L45.6596 2.14452H47.1822C47.4666 2.14452 47.7394 2.03155 47.9404 1.83046C48.1415 1.62937 48.2545 1.35664 48.2545 1.07226C48.2545 0.787877 48.1415 0.515144 47.9404 0.314057C47.7394 0.11297 47.4666 0 47.1822 0H6.43645C6.15207 0 5.87934 0.11297 5.67825 0.314057C5.47716 0.515144 5.36419 0.787877 5.36419 1.07226C5.36419 1.35664 5.47716 1.62937 5.67825 1.83046C5.87934 2.03155 6.15207 2.14452 6.43645 2.14452H7.96764L0.110132 18.8439C0.0650969 19.0186 -0.0163947 19.4079 0.00290596 19.3006C0.00290596 21.8601 1.01963 24.3147 2.82942 26.1244C4.6392 27.9342 7.0938 28.951 9.65322 28.951C12.2126 28.951 14.6672 27.9342 16.477 26.1244C18.2868 24.3147 19.3035 21.8601 19.3035 19.3006C19.2789 19.1859 19.2274 18.9511 19.1963 18.8439L11.3474 2.14452H21.0084L24.2252 5.36129H23.5926C23.3082 5.36129 23.0355 5.47426 22.8344 5.67534C22.6333 5.87643 22.5203 6.14916 22.5203 6.43355V40.8423C21.0229 41.0967 19.6635 41.8722 18.6825 43.0318C17.7014 44.1914 17.1618 45.6604 17.159 47.1793C17.159 47.4637 17.272 47.7364 17.4731 47.9375C17.6742 48.1386 17.9469 48.2516 18.2313 48.2516H35.3874C35.6718 48.2516 35.9445 48.1386 36.1456 47.9375C36.3467 47.7364 36.4597 47.4637 36.4597 47.1793C36.4568 45.6604 35.9172 44.1914 34.9362 43.0318C33.9552 41.8722 32.5958 41.0967 31.0984 40.8423V6.43355C31.0984 6.14916 30.9854 5.87643 30.7843 5.67534C30.5832 5.47426 30.3105 5.36129 30.0261 5.36129H29.3978L32.6145 2.14452H42.2756L34.4224 18.8439C34.3988 18.9511 34.2991 19.4089 34.3205 19.3006C34.3205 21.8601 35.3372 24.3147 37.147 26.1244C38.9568 27.9342 41.4114 28.951 43.9708 28.951C46.5303 28.951 48.9848 27.9342 50.7946 26.1244C52.6044 24.3147 53.6211 21.8601 53.6211 19.3006C53.5954 19.1859 53.5439 18.9511 53.5182 18.8439ZM9.65322 26.8064C7.84887 26.8042 6.10551 26.153 4.74148 24.9719C3.37745 23.7907 2.48374 22.1584 2.22355 20.3729H17.0872C16.8267 22.159 15.9323 23.7918 14.5674 24.973C13.2025 26.1542 11.4583 26.805 9.65322 26.8064ZM16.5414 18.2284H2.76933L9.65322 3.59099L16.5414 18.2284ZM30.0261 42.8903C30.9767 42.8916 31.8999 43.208 32.6514 43.7901C33.4029 44.3722 33.9401 45.187 34.179 46.1071H19.4429C19.6818 45.1877 20.2186 44.3733 20.9694 43.7913C21.7202 43.2093 22.6426 42.8925 23.5926 42.8903H30.0261ZM28.9539 12.8671V40.7458H24.6648V12.8671H28.9539ZM24.6648 10.7226V7.5058H28.9539V10.7226H24.6648ZM26.8093 4.91737L24.0408 2.14452H29.5865L26.8093 4.91737ZM43.9655 3.59099L50.8579 18.2284H37.0816L43.9655 3.59099ZM43.9655 26.8064C42.1611 26.8042 40.4178 26.153 39.0537 24.9719C37.6897 23.7907 36.796 22.1584 36.5358 20.3729H51.3994C51.1389 22.159 50.2445 23.7918 48.8797 24.973C47.5148 26.1542 45.7705 26.805 43.9655 26.8064Z" fill="#84E188"/>
</svg>
