<svg width="96" height="72" viewBox="0 0 96 72" fill="none" xmlns="http://www.w3.org/2000/svg">
<path fill-rule="evenodd" clip-rule="evenodd" d="M19.8143 18.9046C22.3363 16.3104 24.9932 16.295 26.8302 17.2634C31.3451 19.6427 32.2281 26.9514 32.6673 32.1799C33.018 36.3566 33.5638 40.0107 34.2502 44.0965C34.9983 48.5507 35.804 56.6624 37.0458 60.4017C37.8243 62.7494 39.2787 64.0817 41.0621 64.9176C46.968 67.6898 60.3954 69.7872 63.8122 62.4533C61.2894 65.0487 58.6329 65.0632 56.7956 64.0948C52.2806 61.7164 51.3971 54.4072 50.958 49.1786C50.6074 45.0019 50.0618 41.3478 49.3755 37.2611C48.6275 32.8069 47.8211 24.6961 46.5803 20.9559C45.8016 18.6087 44.3471 17.277 42.5628 16.44C36.6582 13.6684 23.2302 11.5709 19.8143 18.9046Z" fill="url(#paint0_linear_0_1)"/>
<path fill-rule="evenodd" clip-rule="evenodd" d="M10.3769 61.9561L9.43334 63.8541C9.0221 64.6822 9.37109 65.6791 10.1946 66.0984H10.1951C11.0191 66.5177 12.0417 66.16 12.4529 65.332L13.3965 63.434C13.8077 62.6059 13.4592 61.609 12.6353 61.1897L12.6347 61.1888C11.8103 60.7708 10.7886 61.1272 10.3769 61.9561ZM4.39535 65.6158L2.69608 69.0335C2.28458 69.8615 2.63369 70.8598 3.45732 71.2786H3.45783C4.28172 71.6966 5.30392 71.3402 5.71516 70.5122L7.41445 67.0936C7.82578 66.2665 7.47733 65.2686 6.65317 64.8502L6.65282 64.8493C5.8288 64.4305 4.80658 64.7873 4.39535 65.6158ZM2.47137 58.1847L0.173043 62.8088C-0.238196 63.6368 0.110395 64.6342 0.934412 65.0539H0.934922C1.75881 65.4719 2.78102 65.116 3.19225 64.2875L5.49122 59.6634C5.90197 58.8354 5.55387 57.8375 4.72972 57.4187H4.7291C3.90494 57.0003 2.88325 57.3567 2.47137 58.1847ZM32.5146 30.5125C29.16 37.2955 24.6397 46.1999 21.3704 52.8289C21.3437 52.9864 21.2943 53.1418 21.22 53.2909L17.2751 61.228C16.8639 62.056 15.8411 62.4132 15.0172 61.9944C14.1933 61.5742 13.8443 60.5772 14.256 59.7492C15.9522 56.3368 17.4932 53.0863 19.1695 49.714C19.5807 48.8868 19.2321 47.889 18.4082 47.4697H18.4077C17.5838 47.0508 16.5616 47.4076 16.1503 48.2361C14.2856 51.9873 12.4248 55.7415 10.56 59.4927C10.1487 60.3212 9.12615 60.678 8.30262 60.2591H8.30161C7.47825 59.8399 7.12966 58.842 7.5409 58.0149C9.11885 54.8392 10.6641 51.6982 12.2403 48.5278C12.6515 47.6998 12.3026 46.7037 11.4787 46.2835H11.4781C10.6545 45.8642 9.63203 46.2215 9.2207 47.0495C7.91624 49.6739 6.60425 52.1773 5.31162 54.778C4.90025 55.606 3.9681 55.6804 3.05428 55.544H3.05364C2.13982 55.4067 1.88116 54.1268 2.29239 53.2988L3.22543 51.421L3.17585 51.4136C8.03934 41.4041 9.70467 37.9335 14.7969 28.0374C16.1621 25.3842 17.6837 22.0373 19.3236 19.6294C19.5562 19.2882 19.7971 18.9708 20.0438 18.6763C22.4964 16.3103 25.0488 16.3243 26.8303 17.2633C30.8816 19.3986 32.009 25.5033 32.5146 30.5125Z" fill="url(#paint1_linear_0_1)"/>
<path fill-rule="evenodd" clip-rule="evenodd" d="M59.7306 55.8369L57.4318 60.4619C57.02 61.289 57.3693 62.2869 58.1938 62.7053C59.017 63.125 60.0399 62.7669 60.4517 61.9398L62.7497 57.3148C63.1615 56.4877 62.8122 55.4894 61.9885 55.0705H61.9877C61.164 54.6517 60.1416 55.0089 59.7306 55.8369ZM54.0211 48.6302L53.0783 50.5283C52.666 51.3567 53.0154 52.3537 53.8386 52.7726H53.8394C54.6631 53.1918 55.6855 52.8346 56.0965 52.0066L57.0402 50.1085C57.452 49.2814 57.1031 48.2831 56.2795 47.8643H56.2786C55.455 47.445 54.4325 47.8013 54.0211 48.6302ZM67.5898 17.606L57.701 16.1253L95.1046 0C85.9796 18.6923 77.7417 36.8138 67.5581 55.0023C67.1643 55.7063 66.0283 56.1097 65.192 55.6548C64.6042 55.3367 64.0014 54.528 64.6064 53.3863L69.7857 43.6093C70.4676 42.3239 70.0123 41.4087 69.3396 41.0031C68.5771 40.5443 67.4943 40.7587 66.7455 42.1721L61.3972 52.267C59.7773 55.3244 57.0129 53.5469 58.3526 50.8684C60.3114 46.954 62.374 43.002 64.4572 39.0708C65.9052 36.3355 62.8918 34.8485 61.417 37.6326L57.7283 44.5948C57.3121 45.3802 56.4159 45.8941 55.7203 45.807C54.7717 45.6873 54.1109 44.6283 54.7717 43.2963C59.0306 34.7274 63.3256 26.1759 67.5898 17.606Z" fill="url(#paint2_linear_0_1)"/>
<defs>
<linearGradient id="paint0_linear_0_1" x1="22.7202" y1="7.62877" x2="63.0774" y2="77.4884" gradientUnits="userSpaceOnUse">
<stop stop-color="#8ED8C6"/>
<stop offset="0.175355" stop-color="#47B4D5"/>
<stop offset="0.683681" stop-color="#356CBE"/>
<stop offset="1" stop-color="#29449D"/>
</linearGradient>
<linearGradient id="paint1_linear_0_1" x1="-8.4622" y1="89.9918" x2="35.911" y2="7.55501" gradientUnits="userSpaceOnUse">
<stop stop-color="#8ED8C6"/>
<stop offset="0.322581" stop-color="#47B4D5"/>
<stop offset="0.698925" stop-color="#356CBE"/>
<stop offset="1" stop-color="#29449D"/>
</linearGradient>
<linearGradient id="paint2_linear_0_1" x1="46.3705" y1="65.3231" x2="87.2309" y2="-9.41111" gradientUnits="userSpaceOnUse">
<stop stop-color="#8ED8C6"/>
<stop offset="0.322581" stop-color="#47B4D5"/>
<stop offset="0.698925" stop-color="#356CBE"/>
<stop offset="1" stop-color="#29449D"/>
</linearGradient>
</defs>
</svg>
