<svg viewBox="0 0 19 18" fill="none" xmlns="http://www.w3.org/2000/svg">
<path d="M17.8888 5.8275C17.996 5.22 18.1229 4.5 18.1229 4.5C18.5611 2.0147 17.1802 0 13.2914 0H1.72663C1.47913 0 1.24094 0.202501 1.19729 0.450001L1.11796 0.900002C1.07431 1.1475 1.21336 1.4252 1.42697 1.51709L4.04989 2.64569L3.48586 5.84433H8.88581L9.28159 3.6H11.9815C12.4786 3.6 12.8105 4.00293 12.7229 4.5L12.4858 5.84433C12.3982 6.3414 11.9242 6.74433 11.4271 6.74433H9.07301H8.72719H3.32714H0.679071C0.390576 6.74433 0.112927 6.9804 0.0620318 7.2689L0.00897665 7.56977C-0.0418733 7.85826 0.128541 8.16637 0.387786 8.25444L8.00462 10.842L10.5925 11.7211C11.0391 11.8728 11.3301 12.3988 11.2424 12.8958L11.1359 13.5C11.0483 13.9971 10.5743 14.4 10.0772 14.4H7.37728L7.83799 11.7871L2.72077 10.0487L1.11746 18H10.1175C14.0484 18 16.0389 16.3191 16.4045 14.2456C16.4045 14.2456 16.4923 13.7475 16.6301 12.9662C17.0576 10.5412 16.0859 10.1663 15.6757 9.97889C15.3568 9.83318 14.4253 9.35474 14.4253 9.35474L14.4333 9.30974C14.4333 9.30974 17.4148 8.51625 17.8888 5.8275Z" fill="url(#paint0_linear_3_245)"/>
<defs>
<linearGradient id="paint0_linear_3_245" x1="15.6648" y1="-0.0599837" x2="1.265" y2="17.7919" gradientUnits="userSpaceOnUse">
<stop stop-color="#50C7AD"/>
<stop offset="1" stop-color="#008F96"/>
</linearGradient>
</defs>
</svg>
