<svg viewBox="0 0 19 21" fill="none" xmlns="http://www.w3.org/2000/svg">
<path d="M18.8084 20.76L12.8771 18.0981H3.35869C1.51143 18.0981 0 16.5865 0 14.7392V3.35869C0 1.51136 1.51143 0 3.35869 0H15.4497C17.2969 0 18.8084 1.51136 18.8084 3.35869V20.76Z" fill="#4B5BB2"/>
<path d="M10.912 16.0831H7.89642V14.0594H10.912V16.0831Z" fill="#D8DCF2"/>
<path d="M13.9297 11.5735C14.9214 11.5735 15.7324 11.3389 15.7324 9.99585C15.7324 8.66291 14.9214 8.41861 13.9297 8.41861V11.5735Z" fill="#FFFDFE"/>
<path d="M3.75201 10.8023C3.75201 12.7854 5.37421 14.4077 7.35737 14.4077H11.4511C13.4338 14.4077 15.0566 12.7854 15.0566 10.8023V9.77082C15.0566 7.78773 13.4338 6.16547 11.4511 6.16547H7.35737C5.37421 6.16547 3.75201 7.78773 3.75201 9.77082V10.8023Z" fill="#FFFDFE"/>
<path d="M11.451 12.4988C12.6709 12.4988 13.6633 11.5065 13.6633 10.2864C13.6633 9.06676 12.6709 8.07428 11.451 8.07428H7.35734C6.13758 8.07428 5.1452 9.06676 5.1452 10.2864C5.1452 11.5065 6.13758 12.4988 7.35734 12.4988H11.451Z" fill="#D8DCF2"/>
<path d="M10.9814 7.51749C10.9814 6.52587 10.7472 5.71475 9.40393 5.71475C8.07125 5.71475 7.82666 6.52587 7.82666 7.51749H10.9814Z" fill="#FFFDFE"/>
<path d="M8.72272 3.71412C8.72272 3.33732 9.02818 3.03235 9.40393 3.03235C9.78079 3.03235 10.0863 3.33732 10.0863 3.71412C10.0863 4.09091 9.78079 4.39588 9.40393 4.39588C9.02818 4.39588 8.72272 4.09091 8.72272 3.71412Z" fill="#FFFDFE"/>
<path d="M8.93169 3.85343C8.93169 3.47664 9.23716 3.17167 9.6129 3.17167C9.70749 3.17167 9.79765 3.19097 9.87957 3.2258C9.75668 3.10619 9.589 3.03235 9.40393 3.03235C9.02818 3.03235 8.72272 3.33732 8.72272 3.71411C8.72272 3.99652 8.89434 4.23859 9.13864 4.34209C9.01109 4.21832 8.93169 4.04529 8.93169 3.85343Z" fill="#D8DCF2"/>
<path d="M9.17682 5.91679H9.632V4.20709H9.17682V5.91679Z" fill="#FFFDFE"/>
<path d="M7.35737 6.16547H8.17589C6.51713 6.16547 4.5141 7.78773 4.5141 9.77082V10.8023C4.5141 12.7854 6.27562 14.4077 8.2588 14.4077H7.35737C5.37421 14.4077 3.75201 12.7854 3.75201 10.8023V9.77082C3.75201 7.78773 5.37421 6.16547 7.35737 6.16547Z" fill="#D8DCF2"/>
<path d="M4.32982 8.45096C3.60423 8.55 3.07593 8.91191 3.07593 9.99582C3.07593 11.0221 3.55615 11.4031 4.22972 11.5242C4.35218 11.5462 4.44352 8.43541 4.32982 8.45096Z" fill="#D8DCF2"/>
<path d="M8.01285 10.2865C8.01285 9.95926 7.7473 9.69434 7.42072 9.69434C7.09338 9.69434 6.82861 9.95926 6.82861 10.2865C6.82861 10.6139 7.09338 10.8787 7.42072 10.8787C7.7473 10.8787 8.01285 10.6139 8.01285 10.2865Z" fill="#4B5BB2"/>
<path d="M11.9799 10.2865C11.9799 9.95926 11.7151 9.69434 11.3879 9.69434C11.0605 9.69434 10.7957 9.95926 10.7957 10.2865C10.7957 10.6138 11.0605 10.8787 11.3879 10.8787C11.7151 10.8787 11.9799 10.6138 11.9799 10.2865Z" fill="#4B5BB2"/>
<path d="M9.40419 15.4872C7.17848 15.4872 5.93134 16.4882 5.93134 18.1007V18.2844H12.877V18.1007C12.877 16.4882 11.6479 15.4872 9.40419 15.4872Z" fill="white"/>
</svg>
