<svg width="28" height="29" viewBox="0 0 28 29" fill="none" xmlns="http://www.w3.org/2000/svg">
<path d="M14.0917 25.328C17.8869 25.1726 20.9704 23.6332 23.2487 20.5485C23.7393 19.8773 24.1463 19.1489 24.4608 18.3793C24.8011 17.5598 25.572 17.2005 26.3417 17.5171C27.1114 17.8338 27.415 18.6379 27.0711 19.4515C26.053 21.9141 24.3503 24.0334 22.1647 25.5581C20.3122 26.8626 18.2687 27.7177 16.0284 27.9929C11.5217 28.5467 7.57475 27.2967 4.28009 24.1242C2.66224 22.5716 1.44357 20.651 0.727856 18.5259C0.0121389 16.4009 -0.179423 14.1343 0.169483 11.9193C0.461727 9.93998 1.18479 8.04892 2.28765 6.37956C3.73918 4.16368 5.78457 2.40062 8.19028 1.2917C9.72769 0.563888 11.3895 0.135243 13.0872 0.0286347C17.5939 -0.234653 21.3891 1.32017 24.4809 4.5911C25.4499 5.61579 26.1923 6.80415 26.8114 8.07315C27.2407 8.95196 26.8422 9.7608 26.1792 10.081C25.4677 10.4238 24.6636 10.1107 24.2817 9.30538C23.7911 8.26301 23.1466 7.30031 22.3699 6.44954C20.6834 4.62668 18.6174 3.4324 16.179 2.99833C12.5428 2.35079 9.31103 3.26162 6.53346 5.71779C4.81557 7.22757 3.61608 9.23944 3.10479 11.4686C2.60058 13.5199 2.70944 15.6741 3.41789 17.6642C4.42478 20.5259 6.29389 22.6548 8.95405 24.0768C10.182 24.7353 11.5324 25.1338 12.9212 25.2473C13.3097 25.2939 13.7004 25.3208 14.0917 25.328Z" fill="#1F304F"/>
<path d="M13.896 8.50706C15.3556 8.50706 16.8155 8.50706 18.2759 8.50706C19.0302 8.50706 19.5947 9.0277 19.6386 9.75352C19.6548 9.92957 19.636 10.1071 19.5831 10.2758C19.5302 10.4445 19.4443 10.601 19.3305 10.7363C19.2166 10.8716 19.077 10.9829 18.9198 11.0638C18.7626 11.1447 18.5909 11.1935 18.4146 11.2075C18.2902 11.222 18.1651 11.2296 18.0399 11.2301C15.2686 11.2301 12.497 11.2301 9.72495 11.2301C9.28614 11.2301 8.86511 11.1838 8.53185 10.8316C8.33023 10.6361 8.19321 10.3836 8.13915 10.1081C8.0851 9.83248 8.1166 9.54697 8.22943 9.2898C8.33646 9.04933 8.51281 8.84626 8.73593 8.70661C8.95904 8.56695 9.21875 8.49705 9.48182 8.50587C10.9532 8.50508 12.4246 8.50547 13.896 8.50706Z" fill="#1F304F"/>
<path d="M19.6943 14.1171C19.6921 14.4793 19.547 14.8261 19.2905 15.082C19.034 15.3378 18.6868 15.4821 18.3245 15.4833C17.9618 15.4777 17.6153 15.3324 17.3571 15.0776C17.0988 14.8229 16.9488 14.4784 16.9381 14.1159C16.9392 13.936 16.9759 13.7582 17.0462 13.5926C17.1164 13.427 17.2188 13.277 17.3474 13.1513C17.476 13.0256 17.6283 12.9266 17.7954 12.8601C17.9625 12.7936 18.1411 12.7609 18.321 12.7638C18.501 12.7587 18.6802 12.7901 18.8478 12.856C19.0155 12.9219 19.168 13.0211 19.2963 13.1475C19.4246 13.2739 19.526 13.425 19.5944 13.5916C19.6628 13.7582 19.6968 13.937 19.6943 14.1171Z" fill="#1F304F"/>
<path d="M8.15472 18.346C8.15472 17.5644 8.72755 16.956 9.48065 16.9536C9.66301 16.9505 9.84417 16.9838 10.0134 17.0517C10.1827 17.1196 10.3367 17.2207 10.4663 17.349C10.596 17.4773 10.6986 17.6302 10.7683 17.7988C10.8379 17.9674 10.8731 18.1482 10.8718 18.3306C10.8629 18.6863 10.7196 19.0255 10.4707 19.2798C10.2219 19.5342 9.88593 19.6849 9.53046 19.7016C9.35076 19.7042 9.17231 19.6711 9.00551 19.6042C8.83871 19.5373 8.68688 19.4379 8.55886 19.3117C8.43084 19.1856 8.32919 19.0352 8.2598 18.8694C8.19042 18.7036 8.1547 18.5257 8.15472 18.346Z" fill="#1F304F"/>
<path d="M8.15349 14.1086C8.15268 13.7523 8.29065 13.4096 8.53816 13.1532C8.78567 12.8969 9.12327 12.747 9.47942 12.7352C9.66184 12.7346 9.8426 12.77 10.0113 12.8393C10.1801 12.9086 10.3335 13.0105 10.4628 13.1391C10.5922 13.2678 10.6948 13.4207 10.765 13.5891C10.8352 13.7575 10.8715 13.938 10.8718 14.1205C10.868 14.482 10.7216 14.8274 10.4644 15.0816C10.2071 15.3357 9.85996 15.4779 9.4984 15.4772C9.31949 15.4782 9.14221 15.4433 8.97703 15.3746C8.81185 15.3059 8.66213 15.2047 8.53673 15.0771C8.41134 14.9495 8.31281 14.798 8.24698 14.6317C8.18116 14.4653 8.14937 14.2875 8.15349 14.1086Z" fill="#1F304F"/>
<path d="M18.3209 16.9537C18.6853 16.9525 19.0353 17.096 19.2939 17.3528C19.5524 17.6096 19.6984 17.9586 19.6996 18.323C19.7009 18.6874 19.5574 19.0373 19.3006 19.2959C19.0438 19.5544 18.6948 19.7004 18.3304 19.7017C17.5975 19.6957 16.931 19.0577 16.9511 18.3236C16.9713 17.5455 17.5311 16.9846 18.3209 16.9537Z" fill="#1F304F"/>
<path d="M12.5239 18.3237C12.5201 18.1426 12.5526 17.9626 12.6195 17.7943C12.6865 17.626 12.7865 17.4729 12.9137 17.3439C13.0409 17.215 13.1927 17.1128 13.36 17.0436C13.5274 16.9743 13.7069 16.9393 13.8881 16.9407C14.0692 16.942 14.2482 16.9797 14.4145 17.0514C14.5808 17.1232 14.731 17.2275 14.8563 17.3584C14.9815 17.4892 15.0793 17.6438 15.1437 17.8131C15.2082 17.9824 15.238 18.1629 15.2315 18.3439C15.2254 18.7006 15.0808 19.041 14.8282 19.2931C14.5757 19.5452 14.2351 19.6892 13.8783 19.6947C13.6985 19.6965 13.5202 19.6621 13.354 19.5937C13.1878 19.5252 13.037 19.424 12.9107 19.2961C12.7843 19.1682 12.685 19.0162 12.6185 18.8492C12.5521 18.6821 12.5199 18.5034 12.5239 18.3237Z" fill="#1F304F"/>
<path d="M12.5238 14.11C12.5179 13.9299 12.5493 13.7505 12.6162 13.5832C12.683 13.4158 12.7838 13.2641 12.9121 13.1377C13.0405 13.0112 13.1936 12.9127 13.362 12.8484C13.5303 12.784 13.7101 12.7553 13.8901 12.7639C14.0675 12.7612 14.2437 12.7941 14.4081 12.8608C14.5725 12.9275 14.7218 13.0266 14.8472 13.1522C14.9725 13.2778 15.0713 13.4273 15.1378 13.5918C15.2042 13.7564 15.2369 13.9326 15.2338 14.11C15.2338 14.4692 15.0911 14.8137 14.8371 15.0677C14.5831 15.3217 14.2386 15.4644 13.8794 15.4644C13.5202 15.4644 13.1757 15.3217 12.9217 15.0677C12.6677 14.8137 12.525 14.4692 12.525 14.11H12.5238Z" fill="#1F304F"/>
</svg>
