<svg viewBox="0 0 18 21" fill="none" xmlns="http://www.w3.org/2000/svg">
<path d="M8.53069 1.29608C8.53069 1.86084 8.52547 2.38036 8.53452 2.89988C8.53695 3.02793 8.45692 3.05646 8.37689 3.1024L3.84179 5.6993C3.49034 5.90043 3.14236 6.10851 2.78639 6.30129C2.5696 6.41856 2.48296 6.59602 2.48157 6.82986C2.46835 9.01581 2.46069 11.2018 2.43494 13.3874C2.43181 13.6522 2.51115 13.7872 2.73767 13.9201C4.58401 15.0033 6.4199 16.1043 8.26345 17.191C8.43743 17.2954 8.50424 17.4064 8.49659 17.6086C8.47989 18.0523 8.49137 18.4973 8.49137 18.9723L7.15481 18.2068C5.15166 17.0598 3.14782 15.913 1.14327 14.7664C1.02357 14.6968 0.975551 14.6289 0.975203 14.488C0.96662 11.6254 0.954093 8.76272 0.937622 5.90008C0.937622 5.78386 0.937622 5.6913 1.06498 5.61683C3.5082 4.20477 5.94933 2.78969 8.38837 1.37159C8.41099 1.35524 8.43535 1.34445 8.53069 1.29608Z" fill="#555555"/>
<path d="M9.34562 1.26923C9.82756 1.57718 10.2796 1.86948 10.7358 2.15481C10.829 2.21292 10.8054 2.294 10.8054 2.36847C10.8068 3.53254 10.8068 4.69627 10.8054 5.85965V16.1304C10.8054 16.1843 10.8036 16.2386 10.8054 16.2925C10.8123 16.4453 10.8812 16.4849 11.0162 16.4073C11.2501 16.273 11.4853 16.1404 11.7202 16.0072C12.8994 15.337 14.0805 14.6696 15.2563 13.9928C15.3934 13.9141 15.4877 13.9232 15.6168 14.0015C15.9995 14.2388 16.3924 14.4618 16.8145 14.7099L9.26141 19.0798C9.2896 13.127 9.31744 7.21883 9.34562 1.26923Z" fill="#555555"/>
<path d="M0.00748964 6.11683C0.00748964 5.96129 0.0203645 5.80366 0.00505383 5.65055C-0.0346148 5.25212 0.162337 4.99776 0.486993 4.81264L6.76473 1.22854C7.45058 0.837072 8.13782 0.44804 8.82089 0.0520497C8.9305 -0.011281 9.01053 -0.0213721 9.12815 0.0471781C11.9616 1.69865 14.7975 3.34571 17.636 4.98836C17.7498 5.05413 17.8003 5.11746 17.7916 5.25421C17.7689 5.60531 17.7592 5.95711 17.7547 6.30891C17.7547 6.43766 17.6938 6.4481 17.6058 6.40286C17.477 6.33675 17.3879 6.25323 17.3747 6.08064C17.3027 5.13451 17.46 5.36278 16.6311 4.89441C14.1514 3.49626 11.6705 2.09916 9.18834 0.703103C9.00079 0.598712 8.83724 0.598712 8.65699 0.703103C6.02007 2.20866 3.38246 3.71351 0.744143 5.21767C0.601127 5.2991 0.535361 5.41602 0.527706 5.57922C0.507871 5.97764 0.469595 6.37572 0.459851 6.77415C0.454284 7.00346 0.298045 6.88898 0.204093 6.91055C0.0937864 6.93595 0.0301077 6.90498 0.0391549 6.76719C0.0516819 6.55145 0.0426346 6.33466 0.0426346 6.11822L0.00748964 6.11683Z" fill="#555555"/>
<path d="M1.40009 16.0949C1.67846 16.0789 1.90743 16.0712 2.135 16.0507C2.23939 16.0413 2.31594 16.0946 2.39633 16.1408C4.48925 17.3471 6.58137 18.5558 8.67267 19.7667C8.87032 19.8815 9.00881 19.8899 9.21725 19.7667C11.2546 18.5718 13.3017 17.3911 15.3447 16.208C15.431 16.1564 15.5294 16.1285 15.63 16.1269C15.8517 16.1217 16.073 16.105 16.3085 16.0921C16.2779 16.1676 16.2156 16.1833 16.1694 16.2115C13.9154 17.5588 11.6612 18.9064 9.40654 20.2542C9.09128 20.4431 8.7969 20.4515 8.47537 20.2615C6.17993 18.9065 3.88181 17.5553 1.58103 16.208C1.53545 16.1802 1.49091 16.1513 1.40009 16.0949Z" fill="#555555"/>
</svg>
