<svg width="58" height="58" viewBox="0 0 58 58" fill="none" xmlns="http://www.w3.org/2000/svg">
<path fill-rule="evenodd" clip-rule="evenodd" d="M37.3874 23.2497L31.6371 29L37.3874 34.7494C38.5068 33.1145 39.1634 31.1344 39.1634 29C39.1634 26.8647 38.5068 24.8846 37.3874 23.2497ZM48.1384 12.4978C51.9594 16.9246 54.2706 22.6928 54.2706 29C54.2706 34.1398 52.7345 38.9213 50.0987 42.9116H50.0997C50.0573 42.9756 50.015 43.0386 49.9727 43.1016L49.9699 43.1054C49.9209 43.1788 49.8701 43.2521 49.8194 43.3255L49.8118 43.3377C49.7629 43.4083 49.7131 43.4798 49.6632 43.5503L49.6557 43.5607C49.6049 43.6331 49.5541 43.7037 49.5023 43.7751L49.4948 43.7864C49.445 43.8551 49.3942 43.9247 49.3434 43.9934L49.3321 44.0084C49.2803 44.079 49.2277 44.1486 49.175 44.2191L49.1693 44.2248C49.1185 44.2935 49.0659 44.3621 49.0132 44.4299L48.9991 44.4487C48.9473 44.5155 48.8956 44.5813 48.8439 44.6471L48.8335 44.6603C48.7799 44.7281 48.7263 44.7948 48.6727 44.8616L48.6576 44.8795C48.6059 44.9444 48.5541 45.0074 48.5015 45.0714L48.4855 45.0911C48.4319 45.1561 48.3773 45.221 48.3237 45.2849L48.3077 45.3037C48.256 45.3658 48.2033 45.426 48.1506 45.4881L48.1384 45.5013C47.732 45.9726 47.3087 46.4288 46.8685 46.8681C46.4292 47.3083 45.9729 47.7326 45.5017 48.138L46.4207 49.058H46.4216L46.511 49.1483L46.7509 49.3872L48.145 50.7813C48.6125 50.3702 49.0668 49.945 49.5061 49.5057C54.7541 44.2568 58.0004 37.007 58.0004 29C58.0004 20.9921 54.7541 13.7413 49.5061 8.49334C49.0668 8.05404 48.6125 7.62885 48.145 7.21778L46.9371 8.42561L46.7998 8.56294L46.4931 8.86961L45.5026 9.86107L42.7897 12.574L41.4765 13.8853L41.0325 14.3311H41.0316L40.1408 15.222C40.6252 15.6142 41.088 16.0309 41.5283 16.4712C42.0099 16.9528 42.4633 17.4608 42.8857 17.9951L42.896 18.0064C42.9299 18.0496 42.9637 18.0929 42.9976 18.1371L43.0136 18.1569C43.0465 18.1992 43.0785 18.2425 43.1114 18.2857L43.1283 18.3064C43.1613 18.3506 43.1942 18.3949 43.2271 18.4391L43.229 18.4419C43.3701 18.631 43.5065 18.8229 43.6401 19.0185L43.6598 19.0467C43.6871 19.0872 43.7144 19.1276 43.7417 19.1681L43.7689 19.2104C43.7953 19.249 43.8207 19.2885 43.847 19.3271L43.8752 19.3722C43.9016 19.4117 43.926 19.4503 43.9514 19.4907C43.9599 19.5039 43.9684 19.5171 43.9768 19.5302C44.0944 19.7156 44.2092 19.9037 44.3192 20.0937C44.3286 20.1097 44.338 20.1257 44.3475 20.1417C44.3691 20.1793 44.3907 20.2179 44.4124 20.2555C44.4227 20.2753 44.434 20.2941 44.4453 20.3138C44.466 20.3505 44.4867 20.3872 44.5074 20.4239C44.5187 20.4446 44.5299 20.4653 44.5412 20.486C44.5619 20.5227 44.5817 20.5593 44.6014 20.597C44.6118 20.6167 44.6231 20.6374 44.6344 20.6581C44.6541 20.6957 44.6739 20.7334 44.6946 20.771C44.703 20.7879 44.7115 20.8049 44.7209 20.8227C44.7896 20.9535 44.8564 21.0852 44.9213 21.2188C44.9316 21.2413 44.9429 21.2639 44.9542 21.2865C44.9711 21.3213 44.9881 21.3561 45.005 21.3918C45.0172 21.4163 45.0285 21.4417 45.0398 21.4671C45.0567 21.5019 45.0727 21.5358 45.0887 21.5706C45.1009 21.5969 45.1132 21.6223 45.1245 21.6486C45.1404 21.6825 45.1564 21.7173 45.1715 21.7521C45.1837 21.7785 45.1941 21.8038 45.2063 21.8292C45.2213 21.865 45.2373 21.8998 45.2524 21.9346C45.2637 21.96 45.275 21.9863 45.2853 22.0117C45.3389 22.1378 45.3925 22.2648 45.4433 22.3927C45.4556 22.4209 45.4659 22.4482 45.4772 22.4764C45.4913 22.5094 45.5035 22.5432 45.5167 22.5771C45.528 22.6062 45.5393 22.6354 45.5515 22.6655C45.5637 22.6984 45.576 22.7314 45.5882 22.7643C45.5995 22.7944 45.6108 22.8245 45.6221 22.8536C45.6343 22.8875 45.6465 22.9204 45.6588 22.9534C45.67 22.9844 45.6804 23.0145 45.6917 23.0455C45.703 23.0785 45.7152 23.1104 45.7255 23.1434C45.7368 23.1754 45.7481 23.2064 45.7594 23.2384C45.7698 23.2704 45.781 23.3033 45.7923 23.3353C45.8046 23.3738 45.8168 23.4115 45.83 23.45C45.8459 23.4999 45.8629 23.5507 45.8798 23.6015C45.8911 23.6372 45.9024 23.673 45.9137 23.7097C45.9231 23.7407 45.9334 23.7727 45.9428 23.8037C45.9532 23.8376 45.9635 23.8714 45.9729 23.9053C45.9833 23.9364 45.9918 23.9683 46.0021 24.0003C46.0115 24.0332 46.0209 24.0671 46.0313 24.101C46.0397 24.133 46.0491 24.1649 46.0585 24.1979C46.0679 24.2317 46.0773 24.2665 46.0877 24.3013C46.0952 24.3314 46.1037 24.3615 46.1122 24.3935C46.1225 24.4302 46.1319 24.4678 46.1413 24.5064C46.1498 24.5346 46.1564 24.5628 46.1639 24.5901C46.1752 24.6362 46.1874 24.6823 46.1978 24.7275C46.2062 24.7566 46.2128 24.7858 46.2203 24.8159C46.2335 24.8714 46.2467 24.9269 46.2598 24.9833C46.2664 25.0106 46.2721 25.0369 46.2787 25.0652C46.2871 25.1047 46.2965 25.1442 46.305 25.1846C46.3116 25.2138 46.3182 25.2448 46.3238 25.274C46.3323 25.3116 46.3407 25.3492 46.3483 25.3869C46.3539 25.417 46.3605 25.4471 46.3661 25.4781C46.3737 25.5167 46.3821 25.5543 46.3897 25.5938C46.3953 25.623 46.4009 25.6512 46.4066 25.6804C46.4141 25.7208 46.4216 25.7613 46.4282 25.8017C46.4339 25.8299 46.4386 25.8582 46.4442 25.8854C46.4527 25.9334 46.4602 25.9804 46.4687 26.0284C46.4715 26.0491 46.4762 26.0689 46.479 26.0896C46.4903 26.1573 46.5007 26.2241 46.511 26.2918C46.5148 26.3134 46.5176 26.3341 46.5204 26.3567C46.5279 26.4037 46.5345 26.4517 46.542 26.4988C46.5458 26.526 46.5486 26.5524 46.5524 26.5796C46.559 26.622 46.5646 26.6643 46.5693 26.7066C46.574 26.7349 46.5769 26.764 46.5806 26.7922C46.5863 26.8346 46.59 26.876 46.5957 26.9183C46.5985 26.9465 46.6022 26.9738 46.6051 27.0029C46.6107 27.0453 46.6154 27.0886 46.6192 27.1309C46.622 27.1591 46.6258 27.1864 46.6276 27.2127C46.6324 27.2616 46.6371 27.3106 46.6418 27.3585C46.6436 27.3792 46.6455 27.4009 46.6474 27.4225C46.654 27.4921 46.6596 27.5617 46.6653 27.6323C46.6662 27.6454 46.6672 27.6577 46.6672 27.6708C46.6719 27.7282 46.6756 27.7856 46.6794 27.843C46.6813 27.8684 46.6831 27.8947 46.6841 27.9201C46.6869 27.9653 46.6897 28.0114 46.6916 28.0565C46.6935 28.0838 46.6944 28.1111 46.6963 28.1383C46.6982 28.1826 46.7001 28.2268 46.702 28.271C46.7029 28.2992 46.7048 28.3274 46.7048 28.3556C46.7067 28.3999 46.7085 28.4441 46.7095 28.4883C46.7104 28.5156 46.7104 28.5428 46.7114 28.5701C46.7123 28.619 46.7132 28.6679 46.7151 28.7178C46.7151 28.7394 46.7151 28.762 46.7151 28.7836C46.717 28.8561 46.717 28.9276 46.717 29C46.717 33.2208 45.2411 37.0964 42.7775 40.1404L40.0505 37.4134C41.8349 35.0777 42.8941 32.1607 42.8941 29C42.8941 25.8375 41.8349 22.9223 40.0505 20.5857L40.0514 20.5847C39.6742 20.0899 39.2641 19.6215 38.8248 19.1822L38.8172 19.1756C38.3779 18.7363 37.9095 18.3262 37.4147 17.948H37.4138L36.871 18.4927L36.7101 18.6526L34.7507 20.612L32.5928 22.7709L29.0004 26.3633L26.3637 29L29.0004 31.6367L30.8102 33.4456L34.7507 37.387L36.3959 39.0313L36.7261 39.3606L37.4138 40.051L40.1398 42.7771L41.5744 44.2107L41.9036 44.5399L42.7888 45.426C43.2657 45.0253 43.7247 44.6039 44.165 44.1646C45.354 42.9756 46.4038 41.6473 47.288 40.2062V40.2072C49.2916 36.9459 50.4468 33.107 50.4468 29C50.4468 23.7492 48.5588 18.9386 45.4264 15.2097L48.1384 12.4978ZM29.0004 -3.8147e-06C34.9878 -3.8147e-06 40.5528 1.81455 45.1734 4.92442L43.737 6.35988L42.4783 7.62038C38.5764 5.15582 33.9549 3.72977 29.0004 3.72977C22.0222 3.72977 15.7041 6.55836 11.1318 11.131C6.55894 15.7036 3.73052 22.0212 3.73052 29C3.73052 35.9779 6.55894 42.2964 11.1318 46.8681C15.7041 51.4416 22.0222 54.2693 29.0004 54.2693C32.5627 54.2693 35.9519 53.5327 39.0261 52.2026L36.0752 49.2517C33.8608 50.0259 31.479 50.4464 29.0004 50.4464C23.0783 50.4464 17.7166 48.0458 13.8353 44.1646C9.95458 40.2834 7.55351 34.9215 7.55351 29C7.55351 23.0775 9.95458 17.7157 13.8353 13.8345C17.7166 9.9542 23.0783 7.55267 29.0004 7.55267C32.8938 7.55267 36.5455 8.59022 39.693 10.4048L38.2764 11.8214V11.8205L37.7712 12.3256L36.9397 13.1572L34.0452 16.0526L33.6699 16.427L33.3406 16.7571L31.8384 18.2585L31.3887 18.709H31.3878L31.0539 19.043C30.3916 18.9066 29.704 18.836 29.0004 18.836C26.1906 18.836 23.6475 19.9714 21.8091 21.8086C19.9733 23.6457 18.8369 26.1902 18.8369 29C18.8369 31.8098 19.9733 34.3524 21.8091 36.1905C23.6475 38.0267 26.1906 39.163 29.0004 39.163C29.704 39.163 30.3916 39.0925 31.0548 38.957L31.0736 38.9758L33.1958 41.0961L33.3557 41.2579L34.0452 41.9465C32.4809 42.5579 30.7792 42.8937 29.0004 42.8937C25.1685 42.8937 21.6977 41.3379 19.1833 38.8244L19.1762 38.8159C16.6624 36.3024 15.1065 32.8304 15.1065 29C15.1065 25.1677 16.6624 21.6966 19.1762 19.1822L19.1833 19.1756C21.6977 16.6612 25.1685 15.1053 29.0004 15.1053C29.2346 15.1053 29.4679 15.1119 29.7002 15.1232L33.0707 11.7528C31.7641 11.4452 30.401 11.2824 29.0004 11.2824C24.1078 11.2824 19.678 13.2663 16.4721 16.4712C13.2668 19.6779 11.284 24.1076 11.284 29C11.284 33.8915 13.2668 38.3221 16.4721 41.5269C19.678 44.7327 24.1078 46.7166 29.0004 46.7166C31.8553 46.7166 34.5513 46.0412 36.9397 44.8428L37.3742 45.2765L38.3732 46.2764L38.5332 46.4363L39.6921 47.5943L42.4774 50.3806H42.4783L43.2196 51.1218L43.3804 51.2827L45.1715 53.0746C40.5528 56.1854 34.9878 58 29.0004 58C20.9932 58 13.7427 54.7528 8.49437 49.5057C3.24673 44.2568 0 37.007 0 29C0 20.9921 3.24673 13.7413 8.49437 8.49334C13.7427 3.24532 20.9932 -3.8147e-06 29.0004 -3.8147e-06Z" fill="#142955"/>
</svg>
