<svg width="30" height="29" viewBox="0 0 30 29" fill="none" xmlns="http://www.w3.org/2000/svg">
<path d="M22.0363 4.08032V0.661697H25.958V4.58332H22.0363V5.09499H23.0554L26.1219 8.14591C26.2295 8.25344 26.2893 8.39827 26.2893 8.54917V11.2168H25.1514V8.78592L18.2396 1.90704H6.69242V3.84097H17.2024C17.3533 3.84097 17.4981 3.90081 17.6049 4.00747L23.018 9.41986C23.1248 9.52654 23.1846 9.67137 23.1846 9.82227V21.562C24.0908 20.1839 24.7214 18.6082 24.9962 16.9145C25.0657 16.4852 25.1124 16.0499 25.1359 15.6067H23.7292L25.7212 12.247L27.7116 15.6067H26.2746C26.2502 16.1114 26.1982 16.6083 26.1194 17.0966C25.7178 19.5708 24.625 21.8135 23.044 23.6208C20.6367 26.3786 17.0948 28.12 13.1447 28.12C9.61065 28.12 6.40277 26.7255 4.04131 24.4568C3.82969 24.2547 3.62503 24.044 3.42643 23.8273C2.54706 22.8611 1.80818 21.764 1.24621 20.5681C0.445751 18.871 0 16.9761 0 14.9745V10.059C0 9.74508 0.254963 9.49012 0.568901 9.49012H3.27814V4.40988C3.27814 4.09593 3.5331 3.84097 3.84704 3.84097H5.55463V1.33814C5.55463 1.0242 5.80958 0.769228 6.12352 0.769228H18.4737C18.6247 0.769228 18.7687 0.829072 18.8753 0.934874L22.0363 4.08032ZM22.0476 23.031V10.0582L16.9665 4.97878H4.41594V23.2201C4.54949 23.3623 4.68652 23.5002 4.82788 23.6355C6.98642 25.7091 9.91679 26.9831 13.1447 26.9831C16.6769 26.9831 19.8518 25.4576 22.0476 23.031ZM3.27814 10.6279H1.1378V14.9745C1.1378 16.8026 1.54454 18.5336 2.27561 20.0833C2.56179 20.6922 2.89828 21.2732 3.27814 21.8204V10.6279ZM8.74603 19.2724H13.5643V17.6794H8.74603V19.2724ZM8.74603 15.6422H17.7176V14.05H8.74603V15.6422ZM8.74603 12.0138H15.7654V10.4207H8.74603V12.0138ZM28.5467 3.75858H26.8972V5.40719H28.5467V3.75858ZM29.5744 0H26.8972V2.67714H29.5744V0Z" fill="#005597"/>
</svg>
