<svg width="59" height="59" viewBox="0 0 59 59" fill="none" xmlns="http://www.w3.org/2000/svg">
<path d="M58.65 29.27C48.0756 22.0232 37.5012 14.7764 26.9271 7.52916H12.1377C9.34185 7.52916 7.5292 9.13911 7.5292 12.1372L7.52958 16.3575C7.52958 17.6537 8.0034 18.5666 9.19824 19.3852L45.8994 44.5381H32.6107L4.79847 25.4768C1.82053 23.4357 0.00340061 22.1327 0.00265267 17.8526L0.00115989 9.69371C3.7973e-05 4.51795 4.29361 -3.8147e-06 9.31866 -3.8147e-06H29.2297L51.1205 15.003V9.85228C51.1205 8.42221 50.0752 7.09685 48.4537 5.9854L39.7203 -3.8147e-06H49.3321C54.3366 -3.8147e-06 58.6485 4.4813 58.6489 9.63014L58.65 29.27Z" fill="#F78E19"/>
<path d="M0 29.3785C10.574 36.6253 21.1488 43.8725 31.7229 51.1193H46.5127C49.3081 51.1193 51.1208 49.5093 51.1208 46.5112L51.1204 42.2909C51.1204 40.9948 50.6466 40.0823 49.4517 39.2633L12.7509 14.1103H26.0389L53.8519 33.1717C56.8295 35.2128 58.6466 36.5157 58.6473 40.7958L58.6492 48.9547C58.6499 54.1305 54.3564 58.6485 49.331 58.6485H29.4203L7.52954 43.6455V48.7962C7.52954 50.2266 8.57479 51.5516 10.1963 52.663L18.9293 58.6485H9.31825C4.31339 58.6485 0.00149698 54.1672 0.00112301 49.0183L0 29.3785Z" fill="#F14C1C"/>
</svg>
