<svg width="18" height="19" viewBox="0 0 18 19" fill="none" xmlns="http://www.w3.org/2000/svg">
<path fill-rule="evenodd" clip-rule="evenodd" d="M11.0362 14.0829C11.0362 14.0829 7.14789 11.8989 0.034433 8.11975C0.039058 8.42352 0.0423877 8.75263 0.0423877 9.10987C0.0423877 9.50688 0.038318 9.86782 0.032583 10.1988C3.60106 12.1215 5.85344 13.3336 6.71351 13.7963V15.1383C5.82143 14.6584 3.56017 13.4428 0.00520331 11.5354C-0.0443768 14.3128 0.206114 13.8892 4.3949 16.1464C8.69116 18.4615 8.29896 18.8381 11.0701 17.2759C11.0647 16.7098 11.0534 15.551 11.0362 14.0829Z" fill="#6669B0"/>
<path fill-rule="evenodd" clip-rule="evenodd" d="M6.57074 4.01931C12.9623 7.46427 16.6668 9.45763 17.4577 9.883C17.4548 9.64121 17.453 9.38392 17.453 9.11001C17.453 8.74284 17.4564 8.40623 17.4613 8.09591C15.7425 7.16069 13.5031 5.95312 10.7819 4.50647V3.12251C13.4454 4.55321 15.6882 5.76032 17.4892 6.73128C17.542 3.90291 17.3121 4.34333 13.1002 2.07358C8.88116 -0.19999 9.18384 -0.60401 6.57141 0.861969L6.57074 4.01931Z" fill="#6669B0"/>
<path fill-rule="evenodd" clip-rule="evenodd" d="M0.00546011 6.71954C8.00517 11.0151 12.293 13.3422 12.293 13.3422L12.2953 16.5869C12.5439 16.4487 12.8116 16.3021 13.1002 16.1464C17.4323 13.8118 17.5519 14.3455 17.4842 11.2394C16.6115 10.7698 12.4173 8.51363 5.18165 4.63663L5.19424 1.63623C4.94699 1.77356 4.68154 1.91921 4.39497 2.07362C0.18806 4.34039 -0.0463261 3.90322 0.00546011 6.71954Z" fill="#6669B0"/>
</svg>
