<svg width="19" height="19" viewBox="0 0 19 19" fill="none" xmlns="http://www.w3.org/2000/svg">
<path d="M14.1129 3.26168C13.275 2.84931 12.661 3.30246 12.9297 4.1289C13.0234 4.41725 13.2088 4.69516 13.4401 4.92331C13.6682 5.15462 13.9462 5.34006 14.2345 5.43374C15.0609 5.70243 15.5141 5.08836 15.102 4.25051C14.9993 4.04226 14.8537 3.84711 14.6843 3.67915C14.5161 3.50974 14.3212 3.36386 14.1129 3.26168Z" fill="#166AB3"/>
<path d="M6.02173 5.41594C6.37241 6.73793 7.06918 7.00584 8.25569 6.47511C8.27988 6.46416 8.30306 6.45499 8.32598 6.44684C8.32547 6.44583 8.32471 6.44481 8.3242 6.44379C8.78184 6.23623 9.23897 6.07095 9.74322 5.97138C9.90289 5.94616 10.0745 5.99455 10.1751 6.13946C10.1784 6.14404 10.1818 6.14863 10.1853 6.15296C10.4413 6.52885 10.7474 6.90016 11.107 7.25669C13.3343 9.50179 16.1385 9.70764 17.0818 8.1489C17.5534 7.28293 16.5452 6.64981 16.1059 7.07511C15.1952 7.87834 13.494 7.30534 12.27 6.09311C11.9591 5.77885 11.6871 5.42944 11.4699 5.06755C11.4699 5.06755 11.4696 5.06755 11.4694 5.0673C10.8487 3.98215 9.93855 4.23275 9.34721 4.36492C9.34721 4.36492 9.3472 4.36517 9.34746 4.36543C8.85569 4.46882 8.40365 4.61883 7.97301 4.79608C7.97122 4.79684 7.97021 4.79684 7.96842 4.7976C7.76036 4.88776 7.65467 4.77621 7.60705 4.58139C6.86519 1.23707 9.47046 -0.552244 12.9001 0.984688C8.13854 -1.30683 4.99312 1.38732 6.02173 5.41594Z" fill="#166AB3"/>
<path d="M9.24074 7.79671C8.48053 7.06159 7.17233 7.97047 7.98647 9.09108C8.99171 10.1562 10.2816 8.9654 9.40183 7.98946C9.40043 7.98735 9.39878 7.98547 9.39761 7.98336C9.34438 7.92169 9.29209 7.85955 9.24074 7.79671Z" fill="#166AB3"/>
<path d="M9.28787 2.59909C9.08104 3.67544 10.7219 3.63862 10.9916 2.80413C10.9957 2.79033 11.0001 2.77652 11.0044 2.76297C11.0049 2.76093 11.0059 2.75914 11.0062 2.75709C11.0062 2.75709 11.0064 2.75709 11.0067 2.75709C11.0637 2.58631 11.1488 2.42728 11.2662 2.28488C12.0779 1.29699 13.9404 1.78173 15.2627 3.1007C16.0095 3.84929 16.4884 4.77096 16.5845 5.57706C16.5894 5.58422 16.6006 5.78492 16.6009 5.79489C16.7193 6.41692 17.4239 6.7953 17.3648 6.29292C17.1748 4.99875 16.4165 3.7887 15.4921 2.87137C14.5599 1.93207 13.379 1.21493 12.1534 1.01091C10.5429 0.74246 9.56655 1.46037 9.28787 2.59909Z" fill="#166AB3"/>
<path d="M13.5894 10.7106C12.8649 10.5253 12.1497 10.2018 11.4776 9.77834C11.4769 9.77821 11.4761 9.77818 11.4756 9.77811C11.4638 9.76947 11.4516 9.76276 11.4398 9.75483C11.4184 9.7414 11.3973 9.72819 11.3762 9.71442C10.4385 9.18075 9.23261 10.4331 10.3127 11.1463C10.3673 11.1817 10.422 11.2176 10.4774 11.2523C15.7426 14.5319 20.1155 11.1493 17.3789 5.46347C18.9451 8.95812 17.0573 11.5973 13.5894 10.7106Z" fill="#166AB3"/>
<path d="M2.37326 8.94312C2.08624 8.31868 1.18206 8.67768 1.29813 9.37528C1.31408 9.42781 1.3312 9.48033 1.34808 9.53309C1.65362 10.259 2.68395 9.87732 2.41922 9.06998C2.41851 9.0674 2.41757 9.06553 2.4171 9.06318C2.4021 9.02308 2.38756 8.98322 2.37326 8.94312Z" fill="#166AB3"/>
<path d="M1.57907 12.343C1.57907 12.343 1.57907 12.343 1.57883 12.3427C1.85224 12.3068 2.1137 12.2501 2.35686 12.1884C2.35686 12.1884 2.35686 12.1885 2.3571 12.1885C2.50201 12.1528 2.65255 12.2276 2.73861 12.3551C2.73908 12.3554 2.73978 12.3556 2.74048 12.3561C3.17217 12.9934 3.66718 13.5975 4.21142 14.152C4.57159 14.5056 4.9531 14.8381 5.35056 15.1467C6.17267 15.7803 7.01167 14.7835 6.13375 14.1546C6.13375 14.1539 6.13375 14.1534 6.13398 14.153C5.77921 13.8751 5.43545 13.5764 5.10716 13.2563C4.57816 12.7139 4.1052 12.1306 3.69367 11.5229C3.69367 11.523 3.69344 11.5229 3.69344 11.5229C3.69203 11.5204 3.69039 11.5184 3.68898 11.5159C3.66014 11.4735 3.632 11.4307 3.60387 11.3879C3.19093 10.8229 2.6352 10.8628 1.96222 11.0352C1.96222 11.0353 1.96222 11.0352 1.96199 11.0353C1.79081 11.0863 1.60978 11.1364 1.42571 11.1744C1.25852 11.2013 1.02427 11.1532 0.903039 10.8827C0.18246 8.96141 0.091713 6.96709 0.829176 5.31185C0.427968 6.18297 0.153385 7.04213 0.0478657 7.93529C0.0478657 7.93553 0.0478657 7.936 0.0478657 7.93623C-0.0149769 8.46875 -0.0173218 9.01347 0.0490382 9.57999C0.0703765 9.87146 0.0996865 10.1477 0.131342 10.3966C0.195826 10.8792 0.296422 11.3096 0.405459 11.6806C0.646981 12.4178 1.30073 12.3711 1.57883 12.3432C1.57883 12.3432 1.57907 12.3432 1.57907 12.343Z" fill="#166AB3"/>
<path d="M3.47985 14.8836C3.08779 14.4834 2.72738 14.0585 2.40051 13.6162C2.3998 13.6157 2.39933 13.6155 2.39839 13.615C1.94255 12.9327 1.11458 13.4258 1.42973 13.9637C1.46232 14.0172 1.49773 14.0758 1.53665 14.1401C1.8912 14.6813 2.29897 15.1751 2.7452 15.6183C3.18838 16.0643 3.68221 16.472 4.22341 16.8268C4.92757 17.2536 4.94094 17.2616 5.33066 17.4456C5.68989 17.6002 6.6323 18.0541 7.96677 18.2321C8.21556 18.2638 8.49202 18.2931 8.78348 18.3144C9.34977 18.3805 9.89472 18.3782 10.427 18.3156C10.4272 18.3156 10.4275 18.3156 10.4275 18.3156C11.3209 18.2101 12.1805 17.9355 13.0516 17.5343C10.1634 18.8209 6.24258 17.5898 3.47985 14.8836Z" fill="#166AB3"/>
<path d="M1.90918 7.09934C1.90941 7.09934 1.90941 7.09911 1.90965 7.09887C1.62428 5.08674 2.10943 3.20474 3.56911 1.9704C2.30241 2.95525 1.46623 3.85732 1.09996 5.46966C0.951298 6.12388 0.906278 6.7931 0.948251 7.46444C1.04345 8.24247 2.02783 7.75216 1.90918 7.09934Z" fill="#166AB3"/>
<path d="M9.27809 15.9378C9.49456 15.5521 9.69181 15.149 9.86284 14.7208C10.0698 14.2089 10.5425 13.3115 9.3872 12.6212C9.3872 12.6207 9.38745 12.6205 9.38745 12.62C8.66862 12.1714 7.98025 11.627 7.35356 11.0099C6.70514 10.3514 6.13562 9.62502 5.67446 8.86625C5.08097 7.8901 4.68748 6.90586 4.48449 5.96806C4.48424 5.96806 4.48424 5.96806 4.48399 5.96806C4.25853 5.01678 2.97143 5.47395 3.06756 6.44121C3.40413 8.4524 4.5519 10.5269 6.17657 12.1867C6.80226 12.7992 7.48689 13.3432 8.20497 13.8021C8.20497 13.8025 8.20497 13.8028 8.20521 13.8032C8.4097 13.9353 8.4147 13.9793 8.35577 14.1376C8.19873 14.5234 8.00397 14.8833 7.78176 15.2465C7.78176 15.2468 7.78176 15.247 7.78176 15.2472C7.54107 15.6287 7.26867 16.3643 8.20072 16.7916C9.7365 17.3991 11.3562 17.6125 12.894 17.2634C14.5064 16.8971 15.4082 16.0607 16.3932 14.7942C14.7573 16.7283 11.9849 16.9517 9.27809 15.9378Z" fill="#166AB3"/>
<path d="M15.1728 13.886C15.1725 13.886 15.1725 13.8863 15.1723 13.8865C15.1686 13.887 15.1655 13.8879 15.1621 13.8884C15.1275 13.8971 15.0926 13.9053 15.0577 13.9133C14.1947 14.1595 14.0924 15.3317 15.0733 15.0707C17.0598 14.3583 17.8563 12.6566 18.1506 10.5451C17.8795 12.3563 16.7384 13.4914 15.1728 13.886Z" fill="#166AB3"/>
<path d="M4.40306 3.53749C4.40306 3.53749 4.40306 3.53749 4.40306 3.53725C4.71047 1.79501 5.87587 0.503454 7.81813 0.21269C5.6306 0.517524 3.88273 1.36168 3.21937 3.50958C3.00341 4.3338 4.27667 4.24892 4.40306 3.53749Z" fill="#166AB3"/>
<path d="M12.5521 13.9112C12.5488 13.9107 12.5458 13.91 12.5425 13.9098C11.5351 13.7794 10.951 15.1085 12.0081 15.3092C12.0154 15.3104 12.0226 15.3113 12.0299 15.3123C13.0865 15.4124 13.6568 14.1783 12.7097 13.9403C12.6574 13.9311 12.6049 13.9215 12.5521 13.9112Z" fill="#166AB3"/>
</svg>
