<svg viewBox="0 0 18 21" fill="none" xmlns="http://www.w3.org/2000/svg">
<path fill-rule="evenodd" clip-rule="evenodd" d="M6.64024 15.499L8.02836 16.887C8.56457 17.4233 9.44225 17.4234 9.97871 16.887L13.2868 13.5788H17.1169L10.5903 20.1055C9.71752 20.9782 8.28942 20.9782 7.41664 20.1055L4.69916 17.388L6.64024 15.499Z" fill="#F16318"/>
<path fill-rule="evenodd" clip-rule="evenodd" d="M10.2272 6.87467L9.97873 6.62611C9.44227 6.08959 8.56459 6.08959 8.02838 6.62611C6.64324 8.01125 5.25811 9.39639 3.87297 10.7815C3.46646 11.188 3.36798 11.7909 3.57796 12.2923C3.77848 12.7746 5.52475 14.3821 6.03076 14.7728L4.03554 16.7244C2.90855 15.5973 1.78162 14.4703 0.654495 13.3433C-0.218165 12.4706 -0.218165 11.0425 0.654495 10.1697L7.06174 3.77544L3.28637 5.72205e-06H7.11651C10.439 3.3228 13.7946 6.61184 17.1169 9.93425H13.2867L12.1449 8.79222L10.2272 6.87467Z" fill="#1F304F"/>
<path d="M7.41664 20.1055C7.50611 20.195 7.60149 20.2753 7.70143 20.3464C7.60149 20.2753 7.50618 20.195 7.41664 20.1055ZM12.6692 14.1964L9.97871 16.887C9.71048 17.1552 9.35702 17.2893 9.0035 17.2893C8.64999 17.2893 8.29647 17.1551 8.02836 16.887L6.64024 15.499L4.69916 17.388L6.64024 15.499L8.02836 16.887C8.29647 17.1551 8.64999 17.2893 9.0035 17.2893C9.35702 17.2893 9.71048 17.1552 9.97871 16.887L12.6692 14.1964Z" fill="white"/>
<path d="M12.6692 14.1964L9.97871 16.887C9.71048 17.1552 9.35702 17.2893 9.0035 17.2893C8.64999 17.2893 8.29647 17.1551 8.02836 16.887L6.64024 15.499L4.69916 17.388L7.41664 20.1055C7.50618 20.195 7.60149 20.2753 7.70143 20.3464C8.08896 20.6221 8.54604 20.7599 9.00325 20.7599C9.31698 20.7599 9.63071 20.695 9.92192 20.5652C11.5045 18.8785 12.5213 16.6548 12.6692 14.1964Z" fill="#F2721D"/>
<path d="M9.00346 6.22372C8.84399 6.22372 8.68446 6.25101 8.5328 6.30565C8.68446 6.25101 8.84387 6.22372 9.00333 6.22378C9.31611 6.22378 9.62895 6.32881 9.88266 6.53878C9.88253 6.53859 9.8824 6.53847 9.88221 6.53828C9.62858 6.32855 9.31599 6.22372 9.00346 6.22372ZM6.60942 4.2268L0.654494 10.1697C0.218164 10.6061 0 11.1814 0 11.7565C0 11.1814 0.218164 10.6061 0.654494 10.1697L6.60942 4.2268Z" fill="white"/>
<path d="M6.60942 4.22681L0.654494 10.1697C0.218164 10.6061 0 11.1814 0 11.7565C0 12.3318 0.218164 12.907 0.654494 13.3433C1.78162 14.4703 2.90855 15.5973 4.03554 16.7244L6.03076 14.7728C5.52475 14.3821 3.77848 12.7746 3.57795 12.2923C3.50657 12.1219 3.47084 11.9397 3.47071 11.7576C3.47046 11.4038 3.60461 11.0498 3.87297 10.7815C5.2581 9.39639 6.64324 8.01125 8.02838 6.62611C8.17554 6.47889 8.34833 6.37203 8.5328 6.30566C8.68446 6.25102 8.84399 6.22373 9.00346 6.22373C9.31598 6.22373 9.62858 6.32856 9.88221 6.53829C8.9605 5.56714 7.84981 4.77736 6.60942 4.22681Z" fill="#1F304F"/>
</svg>
