<svg width="16" height="19" viewBox="0 0 16 19" fill="none" xmlns="http://www.w3.org/2000/svg">
<path d="M0.0186768 4.14688L5.08606 1.21371L6.57297 0.395523L13.8383 3.59464L15.9665 4.17985L7.95933 8.86204L0.0186768 4.14688Z" fill="white"/>
<path d="M0.0637261 4.1716L7.95767 8.7873L8.00493 18.1599L1.18084 14.1272C1.18084 14.1272 0.00383179 13.0101 0.0433949 11.9128L0.0637261 4.1716Z" fill="white"/>
<path d="M15.9698 4.1716L7.97418 8.83016V18.1627L14.7928 14.1476L16 11.8529L15.9698 4.1716Z" fill="white"/>
<path d="M4.34811 6.71024L10.9222 2.97922L14.4735 5.02441L14.5614 10.8616L15.9978 10.0835V4.16666L9.29405 0.226281C9.29405 0.226281 7.94725 -0.382002 6.57078 0.396073L9.45395 2.0819L2.92163 5.90249L2.91229 8.38893L4.32887 9.2269L4.34811 6.71024Z" fill="#F45D48"/>
<path d="M5.82452 10.0923L5.83441 7.55865L8.00434 6.23658L10.2039 7.51854L10.2336 10.0726L8.00434 11.3941L5.82452 10.0923Z" fill="#F45D48"/>
<path d="M9.44571 5.47334L11.5607 6.69046L11.6305 14.2822L8.00386 16.3521L2.93098 13.464L2.89087 15.1399L8.00111 18.1825L14.8697 14.202C14.8697 14.202 16.0566 13.309 15.9967 11.8523L13.1037 13.4832V5.83271L10.9288 4.62383L9.44571 5.47334Z" fill="#F45D48"/>
<path d="M1.43526 5.02442L6.5455 2.09125L5.08881 1.21207L0.0186824 4.14688L0 12.187C0 12.187 0.0401126 13.5536 1.41658 14.302L1.47647 10.9303L8.00549 14.6762L10.1754 13.4838V11.8282L8.00549 13.075L1.41548 9.21316L1.43526 5.02442Z" fill="#F45D48"/>
</svg>
