<svg width="49" height="45" viewBox="0 0 49 45" fill="none" xmlns="http://www.w3.org/2000/svg">
<path d="M38.075 12.0984C36.3887 3.90373 28.3786 -1.37235 20.184 0.313886C13.167 1.75783 8.12101 7.91982 8.08882 15.0836C8.08882 15.4249 8.10293 15.7744 8.13322 16.144C3.14128 16.6724 -0.477164 21.1475 0.0512392 26.1395C0.541013 30.7664 4.44586 34.2765 9.09866 34.2719H10.1591C10.1348 33.9367 10.1086 33.6034 10.1086 33.262C10.1086 26.0112 15.9866 20.1331 23.2374 20.1331C30.4883 20.1331 36.3662 26.0112 36.3662 33.262C36.3662 33.6033 36.34 33.9366 36.3157 34.2719H37.3761C43.5047 34.2887 48.4865 29.334 48.5033 23.2054C48.5194 17.3248 43.9451 12.4527 38.075 12.0984Z" fill="#BBDEFB"/>
<path d="M23.2376 44.3709C29.3729 44.3709 34.3466 39.3972 34.3466 33.2619C34.3466 27.1266 29.3729 22.1529 23.2376 22.1529C17.1023 22.1529 12.1287 27.1266 12.1287 33.2619C12.1287 39.3972 17.1023 44.3709 23.2376 44.3709Z" fill="#4CAF50"/>
<path d="M23.2377 40.3313C22.68 40.3313 22.2278 39.8791 22.2278 39.3213V27.2024C22.2278 26.6447 22.68 26.1925 23.2377 26.1925C23.7955 26.1925 24.2477 26.6447 24.2477 27.2024V39.3213C24.2476 39.8791 23.7955 40.3313 23.2377 40.3313Z" fill="#FAFAFA"/>
<path d="M27.2771 32.2526C27.009 32.2531 26.7518 32.1471 26.5621 31.9577L23.2374 28.6311L19.9128 31.9577C19.5116 32.3452 18.8722 32.334 18.4847 31.9329C18.1067 31.5415 18.1067 30.9211 18.4847 30.5297L22.5244 26.49C22.9187 26.0957 23.558 26.0957 23.9524 26.49L27.9921 30.5297C28.3859 30.9247 28.3849 31.5641 27.9898 31.9579C27.8006 32.1466 27.5444 32.2525 27.2771 32.2526Z" fill="#FAFAFA"/>
</svg>
