<svg width="26" height="29" viewBox="0 0 26 29" fill="none" xmlns="http://www.w3.org/2000/svg">
<path d="M15.8103 19.9206L15.8144 19.9176C15.6986 19.6085 15.6543 19.2772 15.6848 18.9485C15.7154 18.6199 15.8199 18.3024 15.9906 18.0199L15.9752 18.0045C15.5098 17.5374 15.0405 17.074 14.5808 16.6014C14.4966 16.5148 14.4141 16.4607 14.3244 16.4407C13.8826 16.7183 13.3719 16.8666 12.8501 16.8689C12.3284 16.8713 11.8164 16.7275 11.3722 16.4538C11.2799 16.4823 11.1948 16.5436 11.1069 16.6356C10.7168 17.0444 10.3199 17.4475 9.91036 17.8361C9.85057 17.8917 9.79424 17.9508 9.7417 18.0132C9.92293 18.2951 10.0369 18.6148 10.0749 18.9478C10.1129 19.2807 10.0738 19.618 9.96064 19.9334C9.96492 19.9368 9.96905 19.9407 9.97346 19.9438C10.4151 20.2714 10.926 20.511 11.3514 20.8567C11.5461 21.0162 11.7642 21.1447 11.9981 21.2378C12.2453 21.0517 12.5473 20.953 12.8568 20.9572C13.1662 20.9614 13.4654 21.0684 13.7074 21.2612C14.4106 20.8177 15.1115 20.3708 15.8103 19.9206Z" fill="#050505"/>
<path d="M18.7411 16.902C19.073 16.3794 19.4012 15.8545 19.7358 15.3335C19.8145 15.211 19.8995 15.0914 19.9682 14.9666C19.7706 14.7284 19.6579 14.4313 19.6476 14.1221C19.6373 13.8128 19.73 13.5089 19.9112 13.2581C19.909 13.2541 19.907 13.2499 19.9048 13.246C19.5297 12.5931 19.0971 11.9736 18.7111 11.3266C18.6941 11.2981 18.6771 11.2715 18.6598 11.2467C18.3426 11.3639 18.0026 11.4059 17.6664 11.3695C17.3303 11.3331 17.0072 11.2192 16.7225 11.0367C16.7186 11.0399 16.7146 11.0427 16.7111 11.0458C16.2194 11.484 15.7729 11.9728 15.3017 12.4344C15.2592 12.4746 15.2223 12.5203 15.192 12.5703C15.4777 13.0173 15.6303 13.5363 15.632 14.0668C15.6337 14.5972 15.4844 15.1172 15.2016 15.566C15.2171 15.6696 15.2554 15.7717 15.309 15.8321C15.7102 16.2848 16.1648 16.6898 16.576 17.1342C16.624 17.1869 16.6752 17.2365 16.7293 17.2828C17.0093 17.1139 17.3235 17.01 17.6489 16.9786C17.9743 16.9472 18.3026 16.9892 18.6096 17.1014C18.6477 17.0492 18.6893 16.9836 18.7411 16.902Z" fill="#050505"/>
<path d="M12.0011 7.05622C11.3173 7.45764 10.6535 7.89567 9.98599 8.32557C9.93855 8.35606 9.88114 8.39096 9.83228 8.42899C9.91247 8.71263 9.93453 9.00954 9.89713 9.30191C9.85972 9.59428 9.76363 9.87608 9.61462 10.1304C9.64906 10.1748 9.68646 10.2168 9.72659 10.2562C10.1981 10.7365 10.68 11.2069 11.1489 11.6896C11.1801 11.7222 11.2143 11.7517 11.2511 11.7778C11.7215 11.4529 12.2802 11.2801 12.8519 11.2828C13.4236 11.2854 13.9807 11.4635 14.448 11.7928C14.5107 11.7541 14.5676 11.7067 14.6171 11.6522C15.0144 11.2314 15.4207 10.8177 15.8443 10.4237C15.8984 10.3743 15.9493 10.3215 15.9967 10.2656C15.84 9.98501 15.7471 9.67335 15.7246 9.35278C15.702 9.03222 15.7505 8.71062 15.8664 8.4109C15.8046 8.35895 15.7383 8.31252 15.6684 8.27216C15.1946 7.98997 14.7329 7.68712 14.2697 7.38756C14.0439 7.24155 13.825 7.07645 13.5859 6.97873C13.3644 7.13054 13.1038 7.21531 12.8354 7.22289C12.567 7.23047 12.302 7.16054 12.0723 7.02146C12.0477 7.03117 12.0238 7.04279 12.0011 7.05622Z" fill="#050505"/>
<path d="M10.4172 15.8305C10.4609 15.7822 10.4939 15.7056 10.5129 15.6228C10.2088 15.1654 10.0463 14.6285 10.0457 14.0793C10.0451 13.5301 10.2063 12.9928 10.5093 12.5347C10.483 12.4967 10.4529 12.4614 10.4194 12.4296C9.94624 11.9703 9.49923 11.4829 9.01064 11.0421C8.95522 10.9921 8.87958 10.9567 8.79696 10.9322C8.29704 11.2108 7.70779 11.2824 7.15568 11.1316C7.10153 11.1944 7.0534 11.2622 7.01195 11.334C6.67136 11.8984 6.31324 12.4522 5.95484 13.0056C5.87749 13.125 5.79744 13.2422 5.73547 13.3637C5.89645 13.5938 5.98436 13.867 5.98774 14.1478C5.99112 14.4285 5.90981 14.7038 5.75442 14.9377C5.75741 14.9435 5.7604 14.9493 5.76368 14.9549C6.17464 15.6495 6.62235 16.3224 7.04471 17.0101C7.07471 17.06 7.10949 17.1068 7.14856 17.1499C7.44385 17.0405 7.75928 16.9961 8.07328 17.0199C8.38729 17.0437 8.69245 17.135 8.9679 17.2876C9.47131 16.8231 9.95792 16.3382 10.4172 15.8305Z" fill="#050505"/>
<path d="M13.4918 2.73484C13.4918 2.11533 13.4975 1.49554 13.4898 0.876175C13.4975 1.49568 13.4922 2.11547 13.4914 2.73484C13.4914 2.89651 13.4862 3.05833 13.4922 3.21916C13.4862 3.05819 13.4914 2.89637 13.4918 2.73484Z" fill="#050505"/>
<path d="M12.269 2.72091C12.27 3.20609 12.2606 3.69141 12.2729 4.1763C12.2606 3.69198 12.2699 3.20609 12.2694 2.72091C12.2694 2.11451 12.2626 1.50797 12.2717 0.901566C12.2626 1.50797 12.269 2.11451 12.269 2.72091Z" fill="#050505"/>
<path d="M5.41895 4.72746C5.53373 4.90787 5.60564 5.1122 5.62914 5.32473C5.65265 5.53727 5.62714 5.75237 5.55456 5.95351C5.92848 6.33142 6.29799 6.71375 6.69143 7.06987C6.70043 7.07794 6.70995 7.08541 6.71992 7.09224C7.12008 6.88286 7.57533 6.80276 8.02293 6.86297C8.47052 6.92318 8.88842 7.12074 9.21903 7.42841C9.41347 7.39423 9.59181 7.2891 9.7797 7.13526C9.86261 7.06745 9.9636 7.02244 10.0504 6.95919C10.4942 6.63697 11.0106 6.4102 11.4142 6.04026C11.3679 5.7386 11.4216 5.43008 11.567 5.16177C11.7124 4.89345 11.9416 4.68005 12.2196 4.5541C12.2568 4.43161 12.2747 4.30406 12.2727 4.17604C12.2604 3.69172 12.2697 3.20583 12.2688 2.72065C12.2688 2.11425 12.2626 1.50771 12.2715 0.901307C12.2758 0.613134 12.1656 0.476384 11.8669 0.491056C11.181 0.524959 10.4937 0.536782 9.80834 0.586354C9.65079 0.597608 9.46717 0.688774 9.35336 0.80145C8.03685 2.10428 6.73146 3.41922 5.41895 4.72746Z" fill="#050505"/>
<path d="M13.5174 4.63202C13.7233 4.75632 13.8936 4.93171 14.0118 5.14118C14.13 5.35064 14.192 5.58709 14.1919 5.82759C14.1919 5.85608 14.1909 5.88457 14.1892 5.91306C14.2489 6.00052 14.3143 6.08015 14.3956 6.1367C15.0253 6.57473 15.6738 6.98754 16.3349 7.376C16.4061 7.41745 16.5059 7.44053 16.6067 7.4438C16.915 7.21668 17.2776 7.07461 17.6581 7.03183C18.0387 6.98905 18.4237 7.04707 18.7748 7.20008C18.891 7.17543 19.0058 7.12429 19.0785 7.05848C19.4738 6.70008 19.8437 6.31391 20.2195 5.934C20.1454 5.74007 20.1154 5.53208 20.1317 5.32512C20.1479 5.11817 20.21 4.91742 20.3135 4.73744C19.0159 3.43247 17.7252 2.12067 16.4218 0.821541C16.2993 0.699321 16.1013 0.600747 15.9309 0.587642C15.2472 0.535506 14.5597 0.52468 13.874 0.491632C13.5956 0.478242 13.4864 0.603311 13.4894 0.876241C13.4971 1.49575 13.4918 2.11554 13.4914 2.7349C13.4914 2.89658 13.4858 3.0584 13.4914 3.21923C13.5096 3.68831 13.4372 4.17491 13.5174 4.63202Z" fill="#050505"/>
<path d="M25.1687 5.84704C24.3967 5.8506 23.6183 5.79205 22.8538 5.86214C22.7954 6.04325 22.7006 6.21052 22.5753 6.35372C22.45 6.49691 22.2967 6.61301 22.125 6.69489C21.9532 6.77678 21.7665 6.82273 21.5764 6.82993C21.3862 6.83713 21.1966 6.80543 21.0191 6.73677C20.6071 7.11169 20.2336 7.53704 19.8542 7.94758C19.82 7.9868 19.7932 8.03187 19.7751 8.08062C20.011 8.47577 20.116 8.93538 20.0751 9.39378C20.0342 9.85218 19.8494 10.2859 19.5472 10.633C19.5537 10.6441 19.5607 10.6554 19.568 10.6668C19.9985 11.3347 20.4137 12.0125 20.8402 12.6831L20.8467 12.6932C20.9119 12.6839 20.9777 12.6791 21.0436 12.679C21.2467 12.6787 21.4474 12.7228 21.6316 12.8083C21.644 12.7965 21.6567 12.7843 21.6695 12.7716C22.7096 11.7346 23.7458 10.6936 24.7782 9.64883C24.9138 9.5108 25.0488 9.32391 25.0814 9.14115C25.2593 8.16139 25.4049 7.17537 25.5618 6.19248C25.5774 5.89547 25.4046 5.8459 25.1687 5.84704Z" fill="#050505"/>
<path d="M1.79901 5.86408C1.9641 5.86408 2.1292 5.86764 2.29415 5.86408C2.1292 5.86707 1.9641 5.86323 1.79901 5.86337C1.4218 5.86337 1.04403 5.87761 0.667542 5.85924C1.04375 5.87875 1.4218 5.86408 1.79901 5.86408Z" fill="#050505"/>
<path d="M4.05766 12.7485C4.0907 12.7814 4.12276 12.8106 4.15381 12.8362C4.29467 12.79 4.44201 12.7664 4.59027 12.7666C4.65119 12.7666 4.71205 12.7705 4.77246 12.7784C4.80589 12.7367 4.83704 12.6932 4.86576 12.6481C5.28143 12.0028 5.70521 11.3613 6.08483 10.6951C6.11394 10.6413 6.13441 10.5832 6.14552 10.523C5.82485 10.1831 5.62173 9.74925 5.56604 9.28528C5.51034 8.82131 5.60501 8.35171 5.83612 7.94556L5.83227 7.94072C5.50464 7.56636 5.131 7.23275 4.78756 6.87236C4.7622 6.84572 4.73656 6.81979 4.71092 6.79415C4.53314 6.8575 4.34437 6.88419 4.15599 6.87261C3.96762 6.86103 3.78353 6.81142 3.61485 6.72678C3.44616 6.64213 3.29636 6.52421 3.17448 6.38011C3.0526 6.23601 2.96116 6.06872 2.90568 5.88833C2.72618 5.86584 2.54518 5.85755 2.36438 5.86354C2.34083 5.8643 2.31709 5.86487 2.29315 5.86525C2.1282 5.86824 1.9631 5.8644 1.798 5.86525C1.4208 5.86525 1.04303 5.8795 0.666541 5.86098C0.325663 5.84388 0.194183 5.9822 0.242901 6.31439C0.377799 7.23304 0.497597 8.1541 0.653008 9.06933C0.686626 9.26748 0.808276 9.47987 0.950724 9.62588C1.97763 10.6753 3.0165 11.713 4.05766 12.7485Z" fill="#050505"/>
<path d="M17.3216 21.2666C17.0048 21.1863 16.7102 21.0358 16.4596 20.8261C16.4147 20.8407 16.3716 20.8607 16.3314 20.8855C15.7933 21.217 15.2663 21.5667 14.7287 21.8993C14.5557 22.0064 14.3785 22.1074 14.2302 22.2335C14.2336 22.2732 14.2355 22.3133 14.2355 22.3539C14.2356 22.6057 14.1676 22.8529 14.0386 23.0692C13.9097 23.2855 13.7247 23.4629 13.5031 23.5826C13.4714 23.6629 13.4534 23.748 13.4499 23.8343C13.4291 25.2602 13.4385 26.6866 13.4403 28.1129C13.4403 28.2419 13.4563 28.3711 13.4697 28.573C13.6107 28.5096 13.6808 28.4958 13.7268 28.4549C14.873 27.4388 16.0226 26.4265 17.1525 25.3923C17.2793 25.2762 17.3449 25.0362 17.3479 24.851C17.3655 23.7211 17.3605 22.5906 17.3553 21.4607C17.3548 21.3946 17.3434 21.329 17.3216 21.2666Z" fill="#050505"/>
<path d="M11.4414 22.3542C11.4414 22.3066 11.4438 22.2591 11.4485 22.2118C11.4301 22.1952 11.4106 22.1798 11.3901 22.1657C10.7685 21.7403 10.1243 21.3475 9.48972 20.9407C9.43673 20.9068 9.38559 20.8736 9.33417 20.8458C9.06666 21.0776 8.74663 21.2406 8.40185 21.3207C8.38533 21.3891 8.37828 21.4594 8.38091 21.5297C8.40669 22.6061 8.40028 23.6837 8.38433 24.7604C8.37934 25.0992 8.48276 25.3619 8.73005 25.5804C9.77799 26.5066 10.8261 27.4325 11.8743 28.3581C11.9606 28.4342 12.0679 28.4863 12.2589 28.6102C12.2722 28.3421 12.2865 28.1856 12.2874 28.029C12.2893 26.7366 12.2831 25.4442 12.2914 24.1518C12.2925 23.9724 12.2962 23.7956 12.2696 23.6293C12.0232 23.5194 11.8138 23.3406 11.6668 23.1143C11.5199 22.888 11.4416 22.624 11.4414 22.3542Z" fill="#050505"/>
<path d="M0.512139 4.6889C1.27993 4.67536 2.05058 4.71739 2.81581 4.67465C2.91938 4.66888 3.02254 4.65718 3.12478 4.63961C3.25478 4.46638 3.42336 4.32582 3.61713 4.22907C3.81091 4.13232 4.02456 4.08204 4.24114 4.08221C4.27571 4.08221 4.30994 4.08345 4.34385 4.08591C4.38724 4.05011 4.42955 4.01284 4.47077 3.97409C5.44055 3.05887 6.36362 2.09378 7.30434 1.14821C7.39351 1.05776 7.47229 0.956761 7.59508 0.81588C7.46046 0.790097 7.39793 0.763032 7.33867 0.769157C4.99013 1.01032 2.66638 1.39351 0.382511 2.00019C0.101176 2.07483 -0.0130669 2.24734 0.00117794 2.53152C0.0296675 3.10986 0.0624306 3.68834 0.0711199 4.26711C0.0759632 4.57921 0.202314 4.69388 0.512139 4.6889Z" fill="#050505"/>
<path d="M25.1928 1.96153C23.1398 1.5886 21.0886 1.20655 19.035 0.836189C18.7644 0.787471 18.4855 0.789893 18.1164 0.761261C18.2097 0.906558 18.2312 0.957412 18.2674 0.993736C19.2879 2.01936 20.2798 3.07618 21.3475 4.04939C21.4063 4.04196 21.4655 4.03825 21.5247 4.03828C21.7517 4.03813 21.9752 4.09334 22.176 4.19914C22.3768 4.30493 22.5487 4.45811 22.6769 4.64539C22.7095 4.65023 22.742 4.65446 22.7742 4.65807C23.5861 4.74881 24.4157 4.67901 25.2378 4.68656C25.5005 4.68912 25.6398 4.6018 25.647 4.31918C25.6613 3.75381 25.6791 3.18772 25.7225 2.62405C25.7532 2.21865 25.5721 2.03061 25.1928 1.96153Z" fill="#050505"/>
<path d="M5.68241 18.6238C5.72561 18.6209 5.76809 18.6113 5.80833 18.5953C5.89257 18.3003 6.0382 18.0265 6.23568 17.7918C6.22824 17.7704 6.21869 17.7498 6.20719 17.7304C5.76204 16.9911 5.29695 16.2631 4.82644 15.5398C4.58025 15.5817 4.32734 15.5571 4.09383 15.4686C3.94697 15.6066 3.80651 15.7519 3.66649 15.8969C2.80511 16.7866 2.85724 16.4733 3.32931 17.6586C3.6239 18.3982 4.0038 18.8734 4.75536 18.6272C5.14538 18.6268 5.41475 18.6392 5.68241 18.6238Z" fill="#050505"/>
<path d="M20.6614 18.6262C20.7235 18.6281 20.7857 18.6299 20.8476 18.6299C20.9007 18.6299 20.9539 18.6285 21.0072 18.6269C20.9539 18.6285 20.9006 18.6299 20.8476 18.6299C20.7857 18.6299 20.7235 18.6279 20.6614 18.6262Z" fill="#050505"/>
<path d="M22.5586 16.3978C22.2561 16.1098 21.9706 15.804 21.6724 15.5114C21.6275 15.4668 21.5803 15.4246 21.5309 15.385C21.3751 15.4429 21.2102 15.4725 21.044 15.4724C21.0082 15.4724 20.9727 15.471 20.9377 15.4684C20.9082 15.5068 20.878 15.5503 20.8467 15.5996C20.4478 16.2246 20.0581 16.8547 19.6599 17.4799C19.6048 17.5665 19.5517 17.648 19.5159 17.7324C19.7342 17.987 19.8908 18.2885 19.9733 18.6135C20.0622 18.6404 20.1635 18.6474 20.282 18.6337C20.3521 18.6262 20.4226 18.6227 20.4931 18.6232C20.5284 18.6232 20.5643 18.6232 20.5994 18.6246L20.6615 18.6263C20.7236 18.6282 20.7857 18.63 20.8477 18.63C20.9008 18.63 20.9539 18.6286 21.0072 18.627L21.0605 18.6254C21.1782 18.6197 21.2961 18.6225 21.4133 18.6338C21.7762 18.6766 21.9917 18.5341 22.1273 18.193C22.2864 17.7933 22.4874 17.4095 22.67 17.0196C22.779 16.786 22.7552 16.5849 22.5586 16.3978Z" fill="#050505"/>
<path d="M19.944 19.7933C19.8427 20.121 19.6658 20.4203 19.4274 20.6671C19.1891 20.9138 18.896 21.101 18.572 21.2136C18.5223 21.2998 18.4865 21.3897 18.4818 21.4761C18.4479 22.0797 18.4667 22.6869 18.4715 23.2919C18.4725 23.4173 18.5 23.5425 18.5161 23.6677L18.6255 23.7002C19.6051 22.511 20.4774 21.2494 21.2639 19.784C20.7484 19.7839 20.344 19.7709 19.944 19.7933Z" fill="#050505"/>
<path d="M7.22801 21.2687C6.88924 21.1574 6.58283 20.9649 6.33547 20.7081C6.08811 20.4512 5.9073 20.1378 5.8088 19.7951C5.79949 19.7926 5.78994 19.7909 5.78031 19.7903C5.38303 19.7669 4.98346 19.7803 4.44629 19.7803C5.26138 21.2436 6.1182 22.5137 7.14354 23.7644C7.20494 23.6067 7.23969 23.5587 7.24012 23.5103C7.24568 22.7838 7.25693 22.0573 7.23855 21.3325C7.23779 21.3109 7.23425 21.2894 7.22801 21.2687Z" fill="#050505"/>
<path d="M24.2582 11.785C23.6293 12.4118 22.9994 13.0373 22.3822 13.6752C22.4701 13.9701 22.4586 14.2858 22.3493 14.5734C22.5465 14.9249 22.953 15.1226 23.1993 15.439L23.354 15.4259L24.5345 11.7555L24.4205 11.6969C24.3655 11.7258 24.3 11.7434 24.2582 11.785Z" fill="#050505"/>
<path d="M3.27684 14.6388C3.16336 14.3244 3.16604 13.9797 3.28439 13.667C2.69935 13.0102 2.0525 12.4079 1.42601 11.788C1.40721 11.7693 1.35721 11.7822 1.2243 11.775L2.37044 15.3552L2.54665 15.3865C2.78824 15.1361 3.07271 14.9109 3.27684 14.6388Z" fill="#050505"/>
</svg>
