<svg width="59" height="58" viewBox="0 0 59 58" fill="none" xmlns="http://www.w3.org/2000/svg">
<path d="M58.0715 29.0357C58.0715 13.0254 45.0459 0 29.0353 0C13.0251 0 0 13.0254 0 29.0357C0 34.4713 1.49798 39.7323 4.3431 44.3175L8.61288 42.1651V49.6748C9.0433 50.1008 9.49305 50.5182 9.95606 50.9217V34.0791L14.2251 32.1127V54.014C14.6616 54.2733 15.1114 54.5243 15.5676 54.7633V31.4888L19.8379 29.5288V56.583C20.2767 56.7299 20.7262 56.8673 21.1801 56.9944V21.3777L25.4501 19.4174V57.8505C25.8912 57.9048 26.341 57.9493 26.7924 57.9837V8.47135L28.9193 6.42562L31.0624 8.47041V58C31.5477 57.9667 32.0277 57.922 32.4947 57.8671V19.4174L36.7647 21.3777V57.0304C37.2175 56.9057 37.667 56.7704 38.1072 56.6256V29.5288L42.377 31.4888V54.829C42.8311 54.5934 43.2807 54.3452 43.7195 54.0876V32.112L47.989 34.0826V51.0315C48.4457 50.6374 48.8955 50.2238 49.3324 49.7964V42.4768L53.6017 44.5186C56.529 39.8859 58.0715 34.5551 58.0715 29.0357Z" fill="#3B4859"/>
</svg>
