<svg width="26" height="29" viewBox="0 0 26 29" fill="none" xmlns="http://www.w3.org/2000/svg">
<path fill-rule="evenodd" clip-rule="evenodd" d="M5.03684 7.76465C5.68627 7.76465 6.21806 8.36262 6.21806 9.09358V19.0263C6.21806 19.7576 5.68627 20.3555 5.03684 20.3555C4.38652 20.3555 3.85559 19.7576 3.85559 19.0263V9.09358C3.85559 8.36262 4.38652 7.76465 5.03684 7.76465Z" fill="#0463EF"/>
<path fill-rule="evenodd" clip-rule="evenodd" d="M10.0734 21.0967V23.5032C10.0734 24.234 9.54157 24.8321 8.89187 24.8321C8.24218 24.8321 7.71039 24.234 7.71039 23.5032V20.8402C8.1308 21.1233 8.60321 21.2645 9.12853 21.2645C9.46824 21.2645 9.78288 21.2087 10.0734 21.0967Z" fill="#0463EF"/>
<path fill-rule="evenodd" clip-rule="evenodd" d="M10.0734 20.4082V20.5339C9.78934 20.6729 9.4747 20.7423 9.12853 20.7423C8.59022 20.7423 8.1169 20.5639 7.71039 20.2067V20.0756C8.11038 20.448 8.5837 20.6342 9.12853 20.6342C9.4747 20.6342 9.78934 20.559 10.0734 20.4082Z" fill="#0463EF"/>
<path fill-rule="evenodd" clip-rule="evenodd" d="M10.0734 19.8168V19.9324C9.79677 20.1239 9.48213 20.2198 9.12853 20.2198C8.60508 20.2198 8.16516 20.0186 7.80782 19.6164C7.77345 19.5783 7.74101 19.5391 7.71039 19.4992V19.3177C7.76143 19.3929 7.81803 19.4658 7.87928 19.5355C8.2208 19.9199 8.63758 20.1119 9.12853 20.1119C9.48588 20.1119 9.80142 20.0137 10.0734 19.8168Z" fill="#0463EF"/>
<path fill-rule="evenodd" clip-rule="evenodd" d="M10.0734 8.18552V8.30723C9.79677 8.10777 9.48213 8.0083 9.12853 8.0083C8.63758 8.0083 8.2208 8.20021 7.87928 8.58455C7.81803 8.65436 7.76143 8.7269 7.71039 8.80238V8.63996C7.74379 8.59634 7.77901 8.55404 7.81616 8.51252C8.17906 8.10408 8.61619 7.90015 9.12853 7.90015C9.47845 7.90015 9.79309 7.9952 10.0734 8.18552Z" fill="#0463EF"/>
<path fill-rule="evenodd" clip-rule="evenodd" d="M10.0734 7.59536V7.71082C9.78747 7.56093 9.47192 7.4859 9.12853 7.4859C8.5837 7.4859 8.11038 7.67453 7.71039 8.05132V7.91969C8.1169 7.55821 8.59022 7.37781 9.12853 7.37781C9.47005 7.37781 9.78469 7.4504 10.0734 7.59536Z" fill="#0463EF"/>
<path fill-rule="evenodd" clip-rule="evenodd" d="M8.89187 3.28772C9.54157 3.28772 10.0734 3.88572 10.0734 4.6167V7.0315C9.78004 6.91399 9.4645 6.85524 9.12853 6.85524C8.60321 6.85524 8.1308 6.9981 7.71039 7.28404V4.6167C7.71039 3.88572 8.24218 3.28772 8.89187 3.28772Z" fill="#0463EF"/>
<path fill-rule="evenodd" clip-rule="evenodd" d="M13.9283 19.7276V26.7907C13.9283 27.522 13.3962 28.12 12.7471 28.12C12.097 28.12 11.565 27.522 11.565 26.7907V19.7273L12.7471 18.0585L13.9283 19.7276Z" fill="#0463EF"/>
<path fill-rule="evenodd" clip-rule="evenodd" d="M13.9283 18.7197V18.8825L12.7471 17.2121L11.565 18.8822V18.7056L12.7471 17.0499L13.9283 18.7197Z" fill="#0463EF"/>
<path fill-rule="evenodd" clip-rule="evenodd" d="M13.9283 17.8744V18.0423C13.6075 17.5926 13.2135 17.0397 12.7471 16.3835L11.565 18.035V17.8741L12.7471 16.2036L13.9283 17.8744Z" fill="#0463EF"/>
<path fill-rule="evenodd" clip-rule="evenodd" d="M13.9283 11.422V11.5505C13.6161 11.2303 13.2277 11.0702 12.7623 11.0702C12.2807 11.0702 11.882 11.236 11.565 11.5677V11.4449L11.722 11.3223C12.0313 11.0822 12.3788 10.9621 12.7623 10.9621C13.1573 10.9621 13.5047 11.0822 13.8035 11.3223L13.9283 11.422Z" fill="#0463EF"/>
<path fill-rule="evenodd" clip-rule="evenodd" d="M13.9283 10.7946V10.906C13.5856 10.6671 13.1973 10.5479 12.7623 10.5479C12.3121 10.5479 11.9133 10.671 11.565 10.9175V10.8076C11.9295 10.5623 12.3283 10.4398 12.7623 10.4398C13.1887 10.4398 13.578 10.5581 13.9283 10.7946Z" fill="#0463EF"/>
<path fill-rule="evenodd" clip-rule="evenodd" d="M12.7471 0C13.3962 0 13.9283 0.598007 13.9283 1.32896V8.48783C13.7065 8.93693 13.5951 9.43759 13.5951 9.98934V10.0616C13.3286 9.96535 13.0507 9.91754 12.7623 9.91754C12.4749 9.91754 12.1913 9.96535 11.9143 10.0616V9.98934C11.9143 9.42454 11.7982 8.91317 11.565 8.4559V1.32896C11.565 0.598007 12.097 0 12.7471 0Z" fill="#0463EF"/>
<path fill-rule="evenodd" clip-rule="evenodd" d="M17.7832 20.2957V22.9434C17.7832 23.6744 17.2516 24.2724 16.6019 24.2724C15.9523 24.2724 15.4207 23.6744 15.4207 22.9434V20.5372C15.7114 20.649 16.0254 20.7049 16.3649 20.7049C16.9014 20.7049 17.3735 20.5686 17.7832 20.2957Z" fill="#0463EF"/>
<path fill-rule="evenodd" clip-rule="evenodd" d="M17.7832 19.509V19.6552C17.392 20.0067 16.9199 20.1827 16.3649 20.1827C16.0196 20.1827 15.7046 20.1132 15.4207 19.9744V19.8591C15.7026 20.0027 16.0166 20.0746 16.3649 20.0746C16.9101 20.0746 17.3832 19.8861 17.7832 19.509Z" fill="#0463EF"/>
<path fill-rule="evenodd" clip-rule="evenodd" d="M17.7832 18.7581V18.9268C17.75 18.9712 17.7149 19.0146 17.6778 19.0568C17.3257 19.4593 16.8887 19.6604 16.3649 19.6604C16.0089 19.6604 15.6938 19.5664 15.4207 19.378V19.2572C15.6928 19.454 16.0079 19.5523 16.3649 19.5523C16.8565 19.5523 17.272 19.3603 17.6144 18.9759C17.6759 18.9061 17.7324 18.8335 17.7832 18.7581Z" fill="#0463EF"/>
<path fill-rule="evenodd" clip-rule="evenodd" d="M17.7832 8.09308V8.24269C17.7324 8.16732 17.6759 8.09461 17.6144 8.02491C17.272 7.64057 16.8565 7.4486 16.3649 7.4486C16.0128 7.4486 15.6977 7.55329 15.4207 7.7633V7.62827C15.6987 7.43664 16.0138 7.34045 16.3649 7.34045C16.877 7.34045 17.3121 7.54467 17.67 7.95289C17.71 7.99854 17.7481 8.04527 17.7832 8.09308Z" fill="#0463EF"/>
<path fill-rule="evenodd" clip-rule="evenodd" d="M17.7832 7.36007V7.49164C17.3832 7.11484 16.9101 6.92633 16.3649 6.92633C16.0215 6.92633 15.7065 7.00493 15.4207 7.16214V7.03703C15.7075 6.89111 16.0225 6.81824 16.3649 6.81824C16.9043 6.81824 17.3764 6.9987 17.7832 7.36007Z" fill="#0463EF"/>
<path fill-rule="evenodd" clip-rule="evenodd" d="M16.6019 2.72815C17.2516 2.72815 17.7832 3.32618 17.7832 4.05716V6.7133C17.3657 6.43513 16.8926 6.29573 16.3649 6.29573C16.0293 6.29573 15.7143 6.3563 15.4207 6.47642V4.05716C15.4207 3.32618 15.9523 2.72815 16.6019 2.72815Z" fill="#0463EF"/>
<path fill-rule="evenodd" clip-rule="evenodd" d="M20.4575 7.76453C21.1069 7.76453 21.6384 8.3625 21.6384 9.09352V19.0262C21.6384 19.7574 21.1069 20.3554 20.4575 20.3554C19.8071 20.3554 19.2756 19.7574 19.2756 19.0262V9.09352C19.2756 8.3625 19.8071 7.76453 20.4575 7.76453Z" fill="#0463EF"/>
<path fill-rule="evenodd" clip-rule="evenodd" d="M24.3121 10.7725C24.9615 10.7725 25.4933 11.3704 25.4933 12.1014V16.0184C25.4933 16.7496 24.9615 17.3477 24.3121 17.3477C23.6626 17.3477 23.1308 16.7496 23.1308 16.0184V12.1014C23.1308 11.3704 23.6626 10.7725 24.3121 10.7725Z" fill="#0463EF"/>
<path fill-rule="evenodd" clip-rule="evenodd" d="M1.18206 10.7725C1.83122 10.7725 2.36324 11.3705 2.36324 12.1015V16.0184C2.36324 16.7495 1.83122 17.3476 1.18206 17.3476C0.532017 17.3476 0 16.7495 0 16.0184V12.1015C0 11.3705 0.532017 10.7725 1.18206 10.7725Z" fill="#0463EF"/>
<path fill-rule="evenodd" clip-rule="evenodd" d="M15.6442 9.98935C15.6442 9.76142 15.7142 9.56633 15.852 9.40414C15.9919 9.242 16.1619 9.16101 16.3648 9.16101C16.5678 9.16101 16.7387 9.242 16.8766 9.40414C17.0155 9.56633 17.0854 9.76142 17.0854 9.98935V18.1306C17.0854 18.3589 17.0155 18.554 16.8766 18.7162C16.7387 18.8783 16.5678 18.9592 16.3648 18.9592C16.1298 18.9592 15.9375 18.8571 15.7889 18.6529L12.7464 14.3662L9.70473 18.6529C9.55518 18.8571 9.36292 18.9592 9.12791 18.9592C8.92494 18.9592 8.75208 18.8783 8.60831 18.7162C8.46364 18.554 8.39178 18.3589 8.39178 18.1306V9.98935C8.39178 9.76142 8.46364 9.56633 8.60831 9.40414C8.75208 9.242 8.92494 9.16101 9.12791 9.16101C9.33088 9.16101 9.5047 9.242 9.64841 9.40414C9.79314 9.56633 9.865 9.76142 9.865 9.98935V15.7532L12.186 12.5111C12.3249 12.319 12.5172 12.223 12.7629 12.223C12.9979 12.223 13.1892 12.3249 13.3387 12.5291L15.6442 15.7712V9.98935Z" fill="#3D4353"/>
</svg>
