<svg width="151" height="33" viewBox="0 0 151 33" fill="none" xmlns="http://www.w3.org/2000/svg">
<path d="M6.06317 16.802V32.3564C6.06317 32.7118 6.35134 33 6.7068 33H30.7016C31.057 33 31.3452 32.7118 31.3452 32.3564V17.3316C31.3452 17.0391 31.1081 16.802 30.8156 16.802H6.06317Z" fill="#ECF4FF"/>
<path d="M28.925 16.802V29.9362C28.925 30.2917 28.6369 30.5799 28.2814 30.5799H6.06317V32.3564C6.06317 32.7118 6.35134 33 6.7068 33H30.7016C31.057 33 31.3452 32.7118 31.3452 32.3564V17.3316C31.3452 17.0391 31.1081 16.802 30.8156 16.802H28.925Z" fill="#DDEAFB"/>
<path d="M24.8914 16.802V23.5172C25.0025 23.4615 25.1033 23.385 25.1864 23.2887L30.778 16.802H24.8914Z" fill="#DDEAFB"/>
<path d="M27.4956 16.802L24.8914 19.8231V23.5172C25.0025 23.4615 25.1033 23.385 25.1864 23.2887L30.778 16.802H27.4956Z" fill="#CBE2FF"/>
<path d="M24.6385 23.6196H0.643628C0.288169 23.6196 0 23.3314 0 22.9759V6.37162L0.321814 5.44846H24.9603L25.2821 6.37162V16.802L24.5009 19.7489L25.2218 23.2484C25.1191 23.4677 24.8965 23.6196 24.6385 23.6196Z" fill="#ECF4FF"/>
<path d="M24.9603 5.44846H22.8619V20.5559C22.8619 20.9113 22.5738 21.1995 22.2183 21.1995H6.10352e-05V22.976C6.10352e-05 23.3315 0.28823 23.6196 0.643689 23.6196H24.6384C24.9939 23.6196 25.2821 23.3315 25.2821 22.976V6.37162L24.9603 5.44846Z" fill="#DDEAFB"/>
<path d="M25.282 6.37163H6.10352e-05V0.64453C6.10352e-05 0.288556 0.288617 0 0.644591 0H24.6375C24.9935 0 25.2821 0.288556 25.2821 0.64453V6.37163H25.282Z" fill="#5766CB"/>
<path d="M24.6385 0H22.8619V6.37163H25.2821V0.643628C25.282 0.288169 24.9939 0 24.6385 0V0Z" fill="#3D4FC3"/>
<path d="M3.08531 4.10898C3.60516 4.10898 4.02659 3.68756 4.02659 3.16771C4.02659 2.64786 3.60516 2.22644 3.08531 2.22644C2.56546 2.22644 2.14404 2.64786 2.14404 3.16771C2.14404 3.68756 2.56546 4.10898 3.08531 4.10898Z" fill="#DD636E"/>
<path d="M5.94774 4.10898C6.46759 4.10898 6.88901 3.68756 6.88901 3.16771C6.88901 2.64786 6.46759 2.22644 5.94774 2.22644C5.42789 2.22644 5.00647 2.64786 5.00647 3.16771C5.00647 3.68756 5.42789 4.10898 5.94774 4.10898Z" fill="#FFD064"/>
<path d="M8.81023 4.10898C9.33008 4.10898 9.7515 3.68756 9.7515 3.16771C9.7515 2.64786 9.33008 2.22644 8.81023 2.22644C8.29038 2.22644 7.86896 2.64786 7.86896 3.16771C7.86896 3.68756 8.29038 4.10898 8.81023 4.10898Z" fill="#B1E4F9"/>
<path d="M2.94949 14.843C2.68291 14.843 2.4668 14.6269 2.4668 14.3603V9.5868C2.4668 9.37559 2.60415 9.1888 2.80582 9.12596C3.00743 9.06312 3.22663 9.13866 3.34664 9.31249L5.8052 12.8727L5.77337 9.58254C5.77079 9.31597 5.98477 9.09779 6.25135 9.09521H6.25612C6.5205 9.09521 6.73616 9.3083 6.73868 9.57326L6.78334 14.1945C6.78334 14.47 6.63188 14.6923 6.39746 14.7656C6.16866 14.8369 5.92638 14.7466 5.77994 14.535L3.43217 11.1353V14.3603C3.43217 14.6269 3.21606 14.843 2.94949 14.843Z" fill="#90D8F9"/>
<path d="M10.471 14.843H8.47427C8.20769 14.843 7.99158 14.6269 7.99158 14.3603V9.62154C7.99158 9.3549 8.20769 9.13885 8.47427 9.13885H10.471C10.7376 9.13885 10.9537 9.35497 10.9537 9.62154C10.9537 9.88812 10.7376 10.1042 10.471 10.1042H8.95702V13.8776H10.471C10.7376 13.8776 10.9537 14.0937 10.9537 14.3603C10.9537 14.6268 10.7376 14.843 10.471 14.843Z" fill="#90D8F9"/>
<path d="M10.3238 12.4737H8.47433C8.20775 12.4737 7.99164 12.2576 7.99164 11.991C7.99164 11.7243 8.20775 11.5083 8.47433 11.5083H10.3238C10.5904 11.5083 10.8065 11.7244 10.8065 11.991C10.8065 12.2576 10.5904 12.4737 10.3238 12.4737Z" fill="#90D8F9"/>
<path d="M20.4044 14.8649C19.6292 14.8649 18.8724 14.5406 18.3802 13.9974C18.2011 13.7999 18.2161 13.4947 18.4137 13.3156C18.6113 13.1367 18.9166 13.1517 19.0955 13.3492C19.4078 13.6939 19.8971 13.8995 20.4044 13.8995C20.9268 13.8995 21.2971 13.5748 21.3531 13.2609C21.4086 12.9503 21.1533 12.6662 20.6526 12.4815C19.9145 12.2092 19.2593 11.9176 19.2317 11.9053C19.2085 11.895 19.1861 11.8828 19.1648 11.8689C18.6984 11.5648 18.4582 11.0314 18.5378 10.4769C18.623 9.88288 19.0592 9.39838 19.6761 9.21263C20.9239 8.83693 21.9528 9.68559 21.996 9.72187C22.2001 9.89338 22.2264 10.1979 22.0549 10.402C21.8839 10.6054 21.5809 10.6323 21.3768 10.4625C21.362 10.4506 20.6913 9.91523 19.9545 10.1371C19.6975 10.2144 19.5252 10.3928 19.4934 10.614C19.469 10.7843 19.5329 10.9416 19.6654 11.0414C19.8179 11.1084 20.3807 11.3522 20.9867 11.5758C22.1266 11.9963 22.4144 12.8096 22.3035 13.4306C22.1575 14.2483 21.3411 14.8649 20.4044 14.8649Z" fill="#90D8F9"/>
<path d="M13.2296 14.8649C12.98 14.8649 12.7567 14.7074 12.6731 14.4718C12.6652 14.4497 12.659 14.427 12.6545 14.404L11.7227 9.69336C11.6709 9.43181 11.841 9.17793 12.1025 9.12617C12.364 9.07435 12.618 9.24451 12.6697 9.50606L13.3105 12.7455L14.3257 9.46571C14.4045 9.21112 14.6748 9.06862 14.9295 9.14732C15.1842 9.22621 15.3267 9.49652 15.2479 9.75118L13.793 14.4517C13.7917 14.4559 13.7904 14.4601 13.789 14.4642C13.7081 14.7021 13.485 14.8631 13.2338 14.8649C13.2323 14.8649 13.231 14.8649 13.2296 14.8649Z" fill="#90D8F9"/>
<path d="M16.3396 14.8649C16.09 14.8649 15.8667 14.7073 15.7831 14.4718C15.7808 14.4655 15.7787 14.4589 15.7767 14.4524L14.3255 9.74182C14.247 9.4871 14.3899 9.21691 14.6447 9.13841C14.8993 9.0599 15.1696 9.20286 15.2481 9.45764L16.2609 12.7453L16.904 9.51423C16.9561 9.25275 17.2101 9.08285 17.4716 9.13506C17.7331 9.18707 17.9029 9.44121 17.8509 9.70269L16.9153 14.4032C16.9112 14.4239 16.9057 14.4443 16.8989 14.4643C16.8181 14.7022 16.5949 14.8632 16.3437 14.8649C16.3423 14.8649 16.3409 14.8649 16.3396 14.8649Z" fill="#90D8F9"/>
<path d="M10.7117 17.5165H2.84536C2.57878 17.5165 2.36267 17.3004 2.36267 17.0338C2.36267 16.7672 2.57878 16.5511 2.84536 16.5511H10.7117C10.9783 16.5511 11.1944 16.7672 11.1944 17.0338C11.1944 17.3004 10.9783 17.5165 10.7117 17.5165Z" fill="#90D8F9"/>
<path d="M10.7117 19.7489H2.84536C2.57878 19.7489 2.36267 19.5328 2.36267 19.2663C2.36267 18.9996 2.57878 18.7836 2.84536 18.7836H10.7117C10.9783 18.7836 11.1944 18.9997 11.1944 19.2663C11.1944 19.5328 10.9783 19.7489 10.7117 19.7489Z" fill="#90D8F9"/>
<path d="M21.5469 17.5165H13.6806C13.414 17.5165 13.1979 17.3004 13.1979 17.0338C13.1979 16.7672 13.414 16.5511 13.6806 16.5511H21.5469C21.8135 16.5511 22.0296 16.7672 22.0296 17.0338C22.0296 17.3004 21.8135 17.5165 21.5469 17.5165Z" fill="#90D8F9"/>
<path d="M21.5469 19.7489H13.6806C13.414 19.7489 13.1979 19.5328 13.1979 19.2663C13.1979 18.9996 13.414 18.7836 13.6806 18.7836H21.5469C21.8135 18.7836 22.0296 18.9997 22.0296 19.2663C22.0296 19.5328 21.8135 19.7489 21.5469 19.7489Z" fill="#90D8F9"/>
<path d="M17.2198 26.8384H9.35342C9.08684 26.8384 8.87073 26.6223 8.87073 26.3557C8.87073 26.0891 9.08684 25.873 9.35342 25.873H17.2198C17.4864 25.873 17.7025 26.0891 17.7025 26.3557C17.7025 26.6223 17.4864 26.8384 17.2198 26.8384Z" fill="#90D8F9"/>
<path d="M17.2198 29.0707H9.35342C9.08684 29.0707 8.87073 28.8546 8.87073 28.588C8.87073 28.3215 9.08684 28.1053 9.35342 28.1053H17.2198C17.4864 28.1053 17.7025 28.3215 17.7025 28.588C17.7025 28.8546 17.4864 29.0707 17.2198 29.0707Z" fill="#90D8F9"/>
<path d="M28.055 26.8384H20.1887C19.9221 26.8384 19.706 26.6223 19.706 26.3557C19.706 26.0891 19.9221 25.873 20.1887 25.873H28.055C28.3216 25.873 28.5377 26.0891 28.5377 26.3557C28.5377 26.6223 28.3216 26.8384 28.055 26.8384Z" fill="#90D8F9"/>
<path d="M28.055 29.0707H20.1887C19.9221 29.0707 19.706 28.8546 19.706 28.588C19.706 28.3215 19.9221 28.1053 20.1887 28.1053H28.055C28.3216 28.1053 28.5377 28.3215 28.5377 28.588C28.5377 28.8546 28.3216 29.0707 28.055 29.0707Z" fill="#90D8F9"/>
<path d="M41.875 24L49.75 6.5H52.95L60.85 24H57.45L50.675 8.225H51.975L45.225 24H41.875ZM45.5 19.95L46.375 17.4H55.825L56.7 19.95H45.5ZM68.2314 24.175C67.0981 24.175 66.0981 23.9667 65.2314 23.55C64.3648 23.1167 63.6898 22.4667 63.2064 21.6C62.7231 20.7167 62.4814 19.6083 62.4814 18.275V10.65H65.6064V17.85C65.6064 19.05 65.8731 19.95 66.4064 20.55C66.9564 21.1333 67.7314 21.425 68.7314 21.425C69.4648 21.425 70.0981 21.275 70.6314 20.975C71.1814 20.675 71.6064 20.225 71.9064 19.625C72.2231 19.025 72.3814 18.2833 72.3814 17.4V10.65H75.5064V24H72.5314V20.4L73.0564 21.5C72.6064 22.3667 71.9481 23.0333 71.0814 23.5C70.2148 23.95 69.2648 24.175 68.2314 24.175ZM84.673 24.175C83.2064 24.175 82.073 23.8 81.273 23.05C80.473 22.2833 80.073 21.1583 80.073 19.675V7.7H83.198V19.6C83.198 20.2333 83.3564 20.725 83.673 21.075C84.0064 21.425 84.4647 21.6 85.048 21.6C85.748 21.6 86.3314 21.4167 86.798 21.05L87.673 23.275C87.3064 23.575 86.8564 23.8 86.323 23.95C85.7897 24.1 85.2397 24.175 84.673 24.175ZM77.873 13.25V10.75H86.773V13.25H77.873ZM97.8688 10.5C98.9354 10.5 99.8854 10.7083 100.719 11.125C101.569 11.5417 102.235 12.1833 102.719 13.05C103.202 13.9 103.444 15 103.444 16.35V24H100.319V16.75C100.319 15.5667 100.035 14.6833 99.4688 14.1C98.9188 13.5167 98.1438 13.225 97.1438 13.225C96.4104 13.225 95.7604 13.375 95.1938 13.675C94.6271 13.975 94.1854 14.425 93.8688 15.025C93.5688 15.6083 93.4188 16.35 93.4188 17.25V24H90.2938V5.45H93.4188V14.25L92.7438 13.15C93.2104 12.3 93.8854 11.65 94.7688 11.2C95.6688 10.7333 96.7021 10.5 97.8688 10.5ZM113.482 24.175C112.116 24.175 110.899 23.8833 109.832 23.3C108.766 22.7 107.924 21.8833 107.307 20.85C106.691 19.8167 106.382 18.6417 106.382 17.325C106.382 15.9917 106.691 14.8167 107.307 13.8C107.924 12.7667 108.766 11.9583 109.832 11.375C110.899 10.7917 112.116 10.5 113.482 10.5C114.866 10.5 116.091 10.7917 117.157 11.375C118.241 11.9583 119.082 12.7583 119.682 13.775C120.299 14.7917 120.607 15.975 120.607 17.325C120.607 18.6417 120.299 19.8167 119.682 20.85C119.082 21.8833 118.241 22.7 117.157 23.3C116.091 23.8833 114.866 24.175 113.482 24.175ZM113.482 21.5C114.249 21.5 114.932 21.3333 115.532 21C116.132 20.6667 116.599 20.1833 116.932 19.55C117.282 18.9167 117.457 18.175 117.457 17.325C117.457 16.4583 117.282 15.7167 116.932 15.1C116.599 14.4667 116.132 13.9833 115.532 13.65C114.932 13.3167 114.257 13.15 113.507 13.15C112.741 13.15 112.057 13.3167 111.457 13.65C110.874 13.9833 110.407 14.4667 110.057 15.1C109.707 15.7167 109.532 16.4583 109.532 17.325C109.532 18.175 109.707 18.9167 110.057 19.55C110.407 20.1833 110.874 20.6667 111.457 21C112.057 21.3333 112.732 21.5 113.482 21.5ZM123.646 24V10.65H126.621V14.325L126.271 13.25C126.671 12.35 127.296 11.6667 128.146 11.2C129.012 10.7333 130.087 10.5 131.371 10.5V13.475C131.237 13.4417 131.112 13.425 130.996 13.425C130.879 13.4083 130.762 13.4 130.646 13.4C129.462 13.4 128.521 13.75 127.821 14.45C127.121 15.1333 126.771 16.1583 126.771 17.525V24H123.646ZM138.319 24.175C137.202 24.175 136.127 24.0333 135.094 23.75C134.077 23.45 133.269 23.0917 132.669 22.675L133.869 20.3C134.469 20.6833 135.185 21 136.019 21.25C136.852 21.5 137.685 21.625 138.519 21.625C139.502 21.625 140.21 21.4917 140.644 21.225C141.094 20.9583 141.319 20.6 141.319 20.15C141.319 19.7833 141.169 19.5083 140.869 19.325C140.569 19.125 140.177 18.975 139.694 18.875C139.21 18.775 138.669 18.6833 138.069 18.6C137.485 18.5167 136.894 18.4083 136.294 18.275C135.71 18.125 135.177 17.9167 134.694 17.65C134.21 17.3667 133.819 16.9917 133.519 16.525C133.219 16.0583 133.069 15.4417 133.069 14.675C133.069 13.825 133.31 13.0917 133.794 12.475C134.277 11.8417 134.952 11.3583 135.819 11.025C136.702 10.675 137.744 10.5 138.944 10.5C139.844 10.5 140.752 10.6 141.669 10.8C142.585 11 143.344 11.2833 143.944 11.65L142.744 14.025C142.11 13.6417 141.469 13.3833 140.819 13.25C140.185 13.1 139.552 13.025 138.919 13.025C137.969 13.025 137.26 13.1667 136.794 13.45C136.344 13.7333 136.119 14.0917 136.119 14.525C136.119 14.925 136.269 15.225 136.569 15.425C136.869 15.625 137.26 15.7833 137.744 15.9C138.227 16.0167 138.76 16.1167 139.344 16.2C139.944 16.2667 140.535 16.375 141.119 16.525C141.702 16.675 142.235 16.8833 142.719 17.15C143.219 17.4 143.619 17.7583 143.919 18.225C144.219 18.6917 144.369 19.3 144.369 20.05C144.369 20.8833 144.119 21.6083 143.619 22.225C143.135 22.8417 142.444 23.325 141.544 23.675C140.644 24.0083 139.569 24.175 138.319 24.175Z" fill="#4B9DDC;"/>
</svg>
