<svg width="13" height="12" viewBox="0 0 13 12" fill="none" xmlns="http://www.w3.org/2000/svg">
<path d="M0.129187 6.34062L5.07279 11.8403C5.16426 11.9423 5.29254 12 5.4269 12L7.55123 12C7.97366 12 8.19304 11.4793 7.90534 11.1595L5.25914 8.21753H12.2409C12.6599 8.21753 13 7.86593 13 7.4327L13 4.56691C13 4.13368 12.6599 3.78208 12.2409 3.78208L5.25952 3.78208L7.90572 0.84055C8.19342 0.520733 7.97404 0 7.55161 0L5.42728 0C5.29292 0 5.16464 0.0576849 5.07316 0.159713L0.129567 5.65978C-0.0431261 5.85167 -0.043128 6.14873 0.129187 6.34062Z" fill="#464B4E"/>
</svg>
