<svg width="21" height="25" viewBox="0 0 21 25" fill="none" xmlns="http://www.w3.org/2000/svg">
<path d="M20.0433 20.5168C21.2194 17.7431 20.7481 14.5816 18.7583 12.3575C18.4375 11.9993 18.3782 11.7568 18.6253 11.2997C21.4247 6.1989 18.017 0.0275313 12.4075 0.00918317C11.5081 0.00918317 10.6086 0.0235426 9.70918 0.000407991C9.33968 -0.00836722 9.22335 0.123261 9.22335 0.506977C9.24008 1.96127 9.24236 3.41636 9.22335 4.87145C9.21727 5.28548 9.3412 5.41312 9.73503 5.40673C11.1211 5.3844 12.5079 5.39237 13.8947 5.40673C14.1228 5.40673 14.4915 5.28388 14.3721 5.79045L14.3661 9.30053C14.4132 9.74887 14.0878 9.62841 13.8787 9.63C12.5292 9.63957 11.1796 9.65154 9.83083 9.62442C9.36933 9.61484 9.20966 9.75605 9.22259 10.2546C9.253 11.5119 9.22943 12.7715 9.23475 14.0296C9.23475 14.9709 9.59134 15.3339 10.5029 15.3363C11.9833 15.3363 13.4643 15.3514 14.9439 15.3291C15.3887 15.3227 15.5384 15.4887 15.5278 15.9442C15.505 16.9661 15.5065 17.9888 15.5278 19.0115C15.5362 19.4487 15.3811 19.5962 14.9682 19.5915C13.4134 19.5739 11.857 19.601 10.3022 19.5811C7.42067 19.5444 5.21502 17.2453 5.20057 14.2218C5.17827 9.71935 5.18005 5.2166 5.2059 0.713593C5.2059 0.140014 5.05384 -0.0107605 4.51706 0.00200344C3.01926 0.037902 1.51994 0.0107787 0.0213747 0.00838548C0.0213747 5.33334 -0.0356482 10.6599 0.0365808 15.984C0.0966449 20.4514 3.53931 24.3165 7.77725 24.839C9.84756 25.0943 11.9308 24.9882 14.0049 24.9108C15.5027 24.855 16.8294 24.2128 18.0117 23.2475C18.0117 23.2395 19.6008 21.6624 20.0433 20.5168Z" fill="#18191D"/>
</svg>
