<svg width="23" height="23" viewBox="0 0 23 23" fill="none" xmlns="http://www.w3.org/2000/svg">
<path d="M9.16532 5.13258V7.33226H8.43209H7.69887V5.13258H8.43209H9.16532Z" fill="#B4DD7F"/>
<path d="M6.23241 6.96565V9.89855H5.49919H4.76596V6.96565H5.49919H6.23241Z" fill="#B4DD7F"/>
<path d="M3.29952 8.06548V11.7316H2.56629H1.83307V8.06548H2.56629H3.29952Z" fill="#B4DD7F"/>
<path d="M18.6973 10.4191C18.481 10.4851 18.2537 10.5328 18.0264 10.5695L15.3977 13.1981H12.0982L9.89854 16.131H5.49919L0.366608 21.9968V22.3634H20.8969V9.092C20.2957 9.70424 19.5441 10.1662 18.6973 10.4191Z" fill="#FF826E"/>
<path d="M17.2308 0.366612C20.0647 0.366612 22.3634 2.66528 22.3634 5.49919C22.3634 6.89599 21.8025 8.16447 20.8969 9.092C20.2957 9.70424 19.5441 10.1662 18.6973 10.4191C18.481 10.4851 18.2537 10.5328 18.0264 10.5694C17.7661 10.6098 17.5021 10.6318 17.2308 10.6318C14.3969 10.6318 12.0982 8.33311 12.0982 5.49919C12.0982 2.66528 14.3969 0.366612 17.2308 0.366612Z" fill="#FFC729"/>
<path d="M17.2308 9.16532C19.2556 9.16532 20.8969 7.52394 20.8969 5.49919C20.8969 3.47445 19.2556 1.83307 17.2308 1.83307C15.2061 1.83307 13.5647 3.47445 13.5647 5.49919C13.5647 7.52394 15.2061 9.16532 17.2308 9.16532Z" fill="#FCD770"/>
<path d="M17.5974 8.06548V7.33226C18.2038 7.33226 18.6973 6.8388 18.6973 6.23242C18.6973 5.62604 18.2038 5.13258 17.5974 5.13258H16.8642C16.6618 5.13258 16.4976 4.96834 16.4976 4.76597C16.4976 4.5636 16.6618 4.39935 16.8642 4.39935H17.964V4.76597H18.6973V3.66613H17.5974V2.9329H16.8642V3.66613C16.2578 3.66613 15.7644 4.15959 15.7644 4.76597C15.7644 5.37235 16.2578 5.86581 16.8642 5.86581H17.5974C17.7998 5.86581 17.964 6.03005 17.964 6.23242C17.964 6.43479 17.7998 6.59903 17.5974 6.59903H16.4976V6.23242H15.7644V7.33226H16.8642V8.06548H17.5974Z" fill="black"/>
<path d="M21.2635 5.49919C21.2635 3.27569 19.4543 1.46645 17.2308 1.46645C15.0073 1.46645 13.1981 3.27569 13.1981 5.49919C13.1981 7.7227 15.0073 9.53194 17.2308 9.53194C19.4543 9.53194 21.2635 7.7227 21.2635 5.49919ZM13.9313 5.49919C13.9313 3.67969 15.4113 2.19968 17.2308 2.19968C19.0503 2.19968 20.5303 3.67969 20.5303 5.49919C20.5303 7.31869 19.0503 8.79871 17.2308 8.79871C15.4113 8.79871 13.9313 7.31869 13.9313 5.49919Z" fill="black"/>
<path d="M22.73 5.49919C22.73 2.46694 20.2631 0 17.2308 0C14.1986 0 11.7316 2.46694 11.7316 5.49919C11.7316 7.83378 13.1962 9.82816 15.2533 10.6244L14.5127 11.365H11.5652L8.99888 14.2979H4.60576L0.097519 19.1816L0.636073 19.679L4.92654 15.0311H9.33213L11.8984 12.0982H14.8167L16.0481 10.8668C16.3839 10.9408 16.7311 10.9819 17.0867 10.9911L15.246 12.8315H11.9149L9.71524 15.7644H5.33275L0 21.8589V22.73H21.2635V9.22545C22.1705 8.24439 22.73 6.93742 22.73 5.49919ZM12.4648 5.49919C12.4648 2.87131 14.6029 0.733226 17.2308 0.733226C19.8587 0.733226 21.9968 2.87131 21.9968 5.49919C21.9968 8.12707 19.8587 10.2652 17.2308 10.2652C14.6029 10.2652 12.4648 8.12707 12.4648 5.49919ZM18.3306 10.8877V21.9968H16.8642V12.25L18.2078 10.9064C18.2485 10.899 18.2903 10.8957 18.3306 10.8877ZM15.5495 13.5647L16.131 12.9832V21.9968H14.6645V13.5647H15.5495ZM5.13258 21.9968H3.66613V18.7827L5.13258 17.1069V21.9968ZM5.86581 16.4976H7.33226V21.9968H5.86581V16.4976ZM8.06548 16.4976H9.53193V21.9968H8.06548V16.4976ZM10.2652 16.253L11.7316 14.2979V21.9968H10.2652V16.253ZM12.4648 13.5647H13.9313V21.9968H12.4648V13.5647ZM2.9329 19.6208V21.9968H0.853841L2.9329 19.6208ZM19.0639 21.9968V10.6776C19.5951 10.4888 20.0882 10.2215 20.5303 9.88828V21.9968H19.0639Z" fill="black"/>
<path d="M2.19967 13.5647H2.9329V12.0982H3.66612V7.69887H2.9329V6.23242H2.19967V7.69887H1.46645V12.0982H2.19967V13.5647ZM2.19967 8.4321H2.9329V11.365H2.19967V8.4321Z" fill="black"/>
<path d="M5.13258 11.7316H5.8658V10.2652H6.59903V6.59903H5.8658V5.13258H5.13258V6.59903H4.39935V10.2652H5.13258V11.7316ZM5.13258 7.33226H5.8658V9.53194H5.13258V7.33226Z" fill="black"/>
<path d="M8.06549 9.16532H8.79871V7.69887H9.53194V4.76597H8.79871V3.29952H8.06549V4.76597H7.33226V7.69887H8.06549V9.16532ZM8.06549 5.49919H8.79871V6.96565H8.06549V5.49919Z" fill="black"/>
</svg>
