<svg viewBox="0 0 58 58" fill="none" xmlns="http://www.w3.org/2000/svg">
<path d="M54.778 0H16.1117C15.2574 0.000932499 14.4384 0.340712 13.8343 0.944789C13.2302 1.54887 12.8904 2.3679 12.8895 3.2222V49.063L5.57081 56.3014C5.45642 56.4621 5.38845 56.6511 5.37434 56.8479C5.36023 57.0446 5.40052 57.2414 5.4908 57.4167C5.58108 57.5921 5.71787 57.7392 5.88619 57.842C6.05451 57.9448 6.24787 57.9993 6.4451 57.9995H54.778C55.6323 57.9986 56.4514 57.6588 57.0554 57.0547C57.6595 56.4507 57.9993 55.6316 58.0002 54.7773V3.2222C57.9993 2.3679 57.6595 1.54887 57.0554 0.944789C56.4514 0.340712 55.6323 0.000932499 54.778 0Z" fill="#EFF3FE"/>
<path d="M12.8895 25.7776H3.22288C2.3683 25.7776 1.54872 26.1171 0.944445 26.7213C0.340166 27.3256 0.000685079 28.1452 0.000685079 28.9998V51.331C-0.0222586 52.9233 0.531774 54.4702 1.56046 55.686C2.58915 56.9017 4.023 57.7041 5.59721 57.9451C6.50704 58.0646 7.4319 57.9886 8.31005 57.7223C9.1882 57.4559 9.99943 57.0054 10.6896 56.4006C11.3798 55.7958 11.933 55.0508 12.3123 54.2152C12.6917 53.3797 12.8885 52.4728 12.8895 51.5551V25.7776Z" fill="#BCC2D7"/>
<path d="M34.3708 34.3701C42.0822 34.3701 48.3336 28.1187 48.3336 20.4072C48.3336 12.6958 42.0822 6.4444 34.3708 6.4444C26.6593 6.4444 20.4079 12.6958 20.4079 20.4072C20.4079 28.1187 26.6593 34.3701 34.3708 34.3701Z" fill="#95D6A4"/>
<path d="M36.1702 19.4653C35.9911 19.4021 35.8078 19.3333 35.6253 19.2657V15.9631C35.8279 16.0398 36.0182 16.1458 36.1901 16.2778C36.401 16.467 36.6782 16.5652 36.9612 16.551C37.2442 16.5368 37.5102 16.4113 37.7011 16.2018C37.892 15.9924 37.9923 15.716 37.9804 15.4329C37.9684 15.1498 37.845 14.8829 37.637 14.6903C37.0553 14.2123 36.3641 13.8862 35.6253 13.7412V13.1626C35.6253 12.8777 35.5121 12.6045 35.3107 12.4031C35.1092 12.2017 34.8361 12.0885 34.5512 12.0885C34.2663 12.0885 33.9931 12.2017 33.7917 12.4031C33.5903 12.6045 33.4771 12.8777 33.4771 13.1626V13.8182C32.8096 13.9832 32.2049 14.3398 31.7372 14.8439C31.2696 15.3481 30.9595 15.9779 30.8449 16.6559C30.7167 17.2232 30.7468 17.8148 30.932 18.3661C31.1172 18.9174 31.4502 19.4073 31.8949 19.7822C32.3843 20.1513 32.9153 20.4616 33.4771 20.7068V25.1284C32.9792 25.0407 32.5091 24.8366 32.1052 24.5326C31.8669 24.3775 31.5769 24.3232 31.2987 24.3816C31.0204 24.44 30.7767 24.6064 30.6209 24.8442C30.4652 25.082 30.41 25.3719 30.4677 25.6503C30.5253 25.9287 30.6909 26.1729 30.9283 26.3293C31.6767 26.8711 32.5571 27.2015 33.4771 27.2861V27.9257C33.4771 28.2106 33.5902 28.4838 33.7917 28.6852C33.9931 28.8866 34.2663 28.9998 34.5511 28.9998C34.836 28.9998 35.1092 28.8866 35.3106 28.6852C35.512 28.4838 35.6252 28.2106 35.6252 27.9257V27.1696C36.4167 26.9571 37.131 26.5231 37.6843 25.9185C38.2375 25.314 38.6067 24.564 38.7483 23.7569C38.9132 22.8504 38.7425 21.915 38.268 21.1252C37.7936 20.3355 37.0479 19.7454 36.1702 19.4653ZM32.9558 17.0534C33.0225 16.7039 33.2064 16.3875 33.4771 16.1566V18.2579C33.2536 18.1607 33.0754 17.9822 32.9786 17.7586C32.8818 17.5349 32.8737 17.2828 32.9558 17.0534ZM36.6301 23.4008C36.5774 23.7041 36.4605 23.9926 36.2872 24.2471C36.1139 24.5015 35.8882 24.716 35.6253 24.8761V21.5699C35.9823 21.7069 36.2791 21.966 36.4631 22.3012C36.6471 22.6365 36.7063 23.0261 36.6301 23.4008Z" fill="#EFF3FE"/>
<path d="M47.2596 44.0367H21.482C21.1971 44.0367 20.9239 43.9235 20.7225 43.7221C20.5211 43.5207 20.4079 43.2475 20.4079 42.9626C20.4079 42.6778 20.5211 42.4046 20.7225 42.2031C20.9239 42.0017 21.1971 41.8885 21.482 41.8885H47.2596C47.5444 41.8885 47.8176 42.0017 48.019 42.2031C48.2205 42.4046 48.3336 42.6778 48.3336 42.9626C48.3336 43.2475 48.2205 43.5207 48.019 43.7221C47.8176 43.9235 47.5444 44.0367 47.2596 44.0367Z" fill="#546C8C"/>
<path d="M47.2596 51.5551H21.482C21.1971 51.5551 20.9239 51.442 20.7225 51.2405C20.5211 51.0391 20.4079 50.7659 20.4079 50.4811C20.4079 50.1962 20.5211 49.923 20.7225 49.7216C20.9239 49.5202 21.1971 49.407 21.482 49.407H47.2596C47.5444 49.407 47.8176 49.5202 48.019 49.7216C48.2205 49.923 48.3336 50.1962 48.3336 50.4811C48.3336 50.7659 48.2205 51.0391 48.019 51.2405C47.8176 51.442 47.5444 51.5551 47.2596 51.5551Z" fill="#546C8C"/>
</svg>
