<svg width="18" height="22" viewBox="0 0 18 22" fill="none" xmlns="http://www.w3.org/2000/svg">
<path d="M12.5528 20.3248V12.7685L11.3271 12.1943L10.9944 10.4275H6.65945L6.32679 12.1943L5.14062 12.75V20.3248H12.5528Z" fill="#E2B48A"/>
<path d="M17.6533 21.1507L17.3366 17.1031C17.2851 16.4434 17.0596 15.8091 16.683 15.2649C16.3065 14.7208 15.7925 14.2862 15.1933 14.0054L11.7916 12.4117V13.3961H11.404V13.9127H5.69748V12.4889L2.45999 14.0054C1.8607 14.2861 1.34656 14.7207 0.969951 15.2649C0.593347 15.809 0.367754 16.4433 0.316166 17.1031L0 21.1507H17.6533Z" fill="#BAC2D3"/>
<path d="M9.33224 13.9241H7.70291L7.39258 14.6476L8.32774 15.8377L7.78408 18.4474L8.82524 20.7032L9.99174 18.2769L9.50307 15.7891L10.2436 14.5716L9.33224 13.9241Z" fill="#DA2A47"/>
<path d="M17.3368 17.1031C17.2852 16.4433 17.0597 15.8091 16.6831 15.2649C16.3066 14.7208 15.7925 14.2861 15.1933 14.0054L12.0933 12.5527C11.8405 13.9924 11.2401 15.3117 10.5878 16.6111C10.2853 17.2137 10.0018 17.8142 9.73497 18.4322C9.58614 18.7747 8.82664 20.7759 8.82664 20.7759C8.82664 20.7759 7.59531 17.7109 7.37115 17.1299C7.06731 16.3419 6.83348 15.5219 6.43082 14.7764C6.36182 14.6486 6.28898 14.5229 6.21415 14.3981C5.52915 14.1291 5.17699 13.5481 5.18999 12.7262L2.45999 14.0054C1.8607 14.2861 1.34656 14.7207 0.969951 15.2648C0.593347 15.809 0.367754 16.4433 0.316166 17.1031L0 21.1507H17.6533L17.3368 17.1031Z" fill="#707583"/>
<path d="M17.3368 17.1031C17.2852 16.4433 17.0597 15.8091 16.6831 15.2649C16.3066 14.7208 15.7925 14.2861 15.1933 14.0054L12.0933 12.5527C11.8405 13.9924 11.2401 15.3117 10.5878 16.6111C10.2853 17.2137 10.0018 17.8142 9.73497 18.4322C9.58614 18.7747 8.82664 20.7759 8.82664 20.7759C8.82664 20.7759 7.59531 17.7109 7.37115 17.1299C7.06731 16.3419 6.83348 15.5219 6.43082 14.7764C6.36182 14.6486 6.28898 14.5229 6.21415 14.3981C5.52915 14.1291 5.17699 13.5481 5.18999 12.7262L2.45999 14.0054C1.8607 14.2861 1.34656 14.7207 0.969951 15.2648C0.593347 15.809 0.367754 16.4433 0.316166 17.1031L0 21.1507H17.6533L17.3368 17.1031Z" fill="#384868"/>
<path d="M17.6531 21.1508H15.2631L14.9464 17.1025C14.8944 16.4428 14.6684 15.8088 14.2917 15.2648C13.9149 14.7209 13.4007 14.2865 12.8014 14.0058L11.8564 13.5625C11.9528 13.2303 12.0312 12.8931 12.0914 12.5525L15.1931 14.0058C15.7921 14.2865 16.3061 14.721 16.6826 15.265C17.0591 15.8089 17.2847 16.443 17.3364 17.1025L17.6531 21.1508Z" fill="#2F3A5A"/>
<path d="M13.551 8.14542C13.7279 7.38964 13.5285 6.6967 13.1056 6.59771C12.6827 6.49871 12.1965 7.03115 12.0196 7.78693C11.8426 8.54271 12.042 9.23565 12.4649 9.33464C12.8878 9.43364 13.3741 8.9012 13.551 8.14542Z" fill="#E2B48A"/>
<path d="M5.16226 9.34077C5.58516 9.24177 5.78457 8.54884 5.60765 7.79306C5.43073 7.03727 4.94448 6.50484 4.52158 6.60384C4.09869 6.70283 3.89928 7.39576 4.0762 8.15155C4.25312 8.90733 4.73936 9.43976 5.16226 9.34077Z" fill="#E2B48A"/>
<path d="M8.81036 11.9408C11.0037 11.9408 12.7818 9.49013 12.7818 6.46703C12.7818 3.44392 11.0037 0.99321 8.81036 0.99321C6.61696 0.99321 4.83887 3.44392 4.83887 6.46703C4.83887 9.49013 6.61696 11.9408 8.81036 11.9408Z" fill="#F0C191"/>
<path d="M12.5336 8.35538C12.5336 8.35538 13.9361 5.84956 13.6323 3.86223C13.3285 1.8749 11.9896 1.24757 11.1941 1.24757C11.1941 1.24757 10.1205 -0.342261 7.4673 0.306237C4.81414 0.954736 3.74731 3.86823 4.24931 5.70622C4.75131 7.54422 5.08597 8.38855 5.08597 8.38855C5.08597 8.38855 4.75131 6.03856 5.12781 4.74106C5.5043 3.44356 6.63397 2.41907 7.0733 2.7744C7.51263 3.12973 10.3156 3.0119 10.7758 2.2244C11.3803 2.66739 11.785 3.33166 11.9013 4.07206C12.0513 5.26439 12.7211 5.99656 12.6585 6.85405C12.5958 7.71155 12.5336 8.35538 12.5336 8.35538Z" fill="#2F3A5A"/>
<path d="M11.213 11.5812L8.82715 13.9125L10.9568 15.376L11.9535 12.4842L11.213 11.5812Z" fill="#D9E2E9"/>
<path d="M5.7002 12.4842L6.77986 15.3085L8.82652 13.9125L6.44069 11.5812L5.7002 12.4842Z" fill="#D9E2E9"/>
<path d="M12.5738 12.7784L11.2123 11.5812L11.2095 11.5784C11.2095 11.5784 11.1847 15.155 8.82619 20.7032C6.4672 15.155 6.44286 11.5784 6.44286 11.5784L6.44003 11.5812L5.0787 12.7784L4.83887 14.8022L5.9677 14.6217L5.1212 15.905C5.61203 17.1007 8.82652 20.834 8.82652 20.834C9.33235 20.2755 12.1168 17.0519 12.5503 15.9952L11.6845 14.6217L12.948 14.6577L12.5738 12.7784Z" fill="#43567C"/>
</svg>
