<svg width="21" height="21" viewBox="0 0 21 21" fill="none" xmlns="http://www.w3.org/2000/svg">
<rect x="0.25" y="0.25" width="20.5" height="20.5" rx="4.75" fill="#18191D" stroke="#EEEEEE" stroke-width="0.5"/>
<path d="M12.0341 14.2374C12.0359 14.2382 12.0378 14.2383 12.0397 14.2378C12.0415 14.2372 12.043 14.236 12.0441 14.2344C12.0803 14.2012 12.117 14.1684 12.1523 14.1352L12.3821 13.9062L12.5366 13.7524L12.6984 13.592L12.8518 13.4401L13.0117 13.2812L13.3225 12.9719L13.4873 12.8076L13.6363 12.6586L13.7991 12.4962L13.955 12.3404L14.094 12.2019C14.1073 12.1877 14.1221 12.175 14.1382 12.1641C14.1435 12.1604 14.1492 12.1573 14.1551 12.1547C14.1618 12.1516 14.1693 12.1507 14.1765 12.1519C14.1837 12.1532 14.1905 12.1565 14.1958 12.1617C14.2037 12.1687 14.2104 12.1768 14.2157 12.186C14.2241 12.2008 14.232 12.2158 14.2395 12.2312C14.2985 12.3523 14.3601 12.4719 14.4286 12.5881C14.4783 12.6745 14.5319 12.7599 14.5885 12.8423C14.6382 12.9153 14.6878 12.9888 14.7439 13.0588C14.8 13.1288 14.8481 13.1928 14.9038 13.2574C14.9594 13.3219 15.003 13.3735 15.0577 13.4286C15.1123 13.4837 15.1604 13.5359 15.2146 13.5871L15.3069 13.6729C15.3201 13.6848 15.3318 13.6983 15.3417 13.7131C15.3471 13.7212 15.3507 13.7303 15.3521 13.74C15.3536 13.753 15.3502 13.766 15.3426 13.7767C15.3337 13.7892 15.3231 13.8005 15.3114 13.8105C15.2721 13.8452 15.2299 13.877 15.1892 13.9097C15.1053 13.9767 15.0184 14.0403 14.9306 14.1019C14.8267 14.1743 14.7201 14.2429 14.6108 14.3074C14.5085 14.368 14.4045 14.4247 14.2985 14.4777C13.9945 14.6298 13.6754 14.7496 13.3463 14.8352C13.247 14.8613 13.1464 14.8842 13.0445 14.9037C12.974 14.9173 12.9031 14.9295 12.832 14.9404C12.7649 14.9503 12.6979 14.9593 12.6304 14.9672C12.5922 14.9717 12.5534 14.9752 12.5147 14.9787C12.4606 14.9831 12.407 14.9876 12.3529 14.9911C12.3125 14.9937 12.2721 14.9957 12.2317 14.997C12.1066 15.001 11.9835 15.001 11.8564 14.997C11.7869 14.997 11.7174 14.9915 11.6484 14.9851C11.6042 14.9811 11.56 14.9781 11.5158 14.9737C11.4716 14.9692 11.4195 14.9627 11.3713 14.9563C11.3232 14.9499 11.2785 14.9429 11.2323 14.936C11.1534 14.924 11.0749 14.9091 10.9965 14.8928C10.8535 14.8633 10.712 14.8274 10.572 14.785C10.3957 14.7321 10.2225 14.6695 10.0532 14.5974C9.94696 14.552 9.84237 14.5032 9.73943 14.4509C9.6365 14.3986 9.53075 14.3402 9.42218 14.2756C9.31627 14.2117 9.213 14.1441 9.11238 14.0726C9.0025 13.9945 8.89575 13.9117 8.79216 13.8244C8.74251 13.7812 8.69286 13.7365 8.64322 13.6918C8.59357 13.6471 8.52853 13.589 8.4759 13.5354C8.42327 13.4818 8.36916 13.4252 8.31703 13.3691C8.2649 13.313 8.21029 13.2479 8.15766 13.1864C8.10504 13.1248 8.05588 13.0588 8.00624 12.9942C7.94964 12.9202 7.89751 12.8453 7.84538 12.7669C7.79325 12.6884 7.73864 12.5996 7.6875 12.5142C7.63041 12.4193 7.57976 12.321 7.52962 12.2227C7.47253 12.1115 7.42238 11.9968 7.37373 11.8817C7.31117 11.7327 7.26004 11.5837 7.21188 11.4308C7.15823 11.2566 7.11496 11.0794 7.0823 10.9001C7.07038 10.8376 7.06244 10.774 7.05102 10.7114C7.04109 10.6573 7.03563 10.6027 7.02918 10.5486C7.02421 10.5084 7.02074 10.4682 7.01776 10.4279C7.01329 10.3659 7.00932 10.3038 7.00485 10.2418C7.00485 10.2378 7.00485 10.2338 7.00485 10.2299C7.00485 10.141 6.99839 10.0521 7.00038 9.96326C7.00237 9.87439 7.00385 9.79198 7.00981 9.70658C7.01577 9.62119 7.02173 9.54225 7.03215 9.45834C7.03712 9.41813 7.04159 9.37792 7.04705 9.3382C7.07978 9.09929 7.12955 8.86303 7.19599 8.63122C7.24216 8.47582 7.29529 8.32142 7.35437 8.17148C7.40401 8.0558 7.45019 7.94062 7.50629 7.82842C7.55594 7.72515 7.61005 7.62188 7.66864 7.52259C7.71828 7.43769 7.76793 7.35279 7.82304 7.27088C7.87815 7.18896 7.92531 7.11796 7.98042 7.04398C8.03553 6.97001 8.07972 6.90795 8.13632 6.8454C8.19291 6.78284 8.23908 6.72277 8.29221 6.66319C8.34533 6.60362 8.3915 6.55248 8.44661 6.49886C8.5459 6.39592 8.65099 6.29779 8.76187 6.20445C8.86381 6.1174 8.96907 6.03465 9.07763 5.95621C9.17958 5.8824 9.28433 5.8124 9.3919 5.7462C9.49384 5.68364 9.59793 5.62489 9.70418 5.56995C9.85834 5.49016 10.0166 5.41857 10.1783 5.35548C10.3355 5.29377 10.4958 5.24008 10.6584 5.19462C10.7991 5.15556 10.9412 5.12246 11.0849 5.09532C11.1683 5.07977 11.2519 5.06603 11.3356 5.05412C11.4076 5.04369 11.4796 5.03525 11.5521 5.02731C11.5953 5.02234 11.6389 5.01887 11.6821 5.01589C11.7497 5.01092 11.8177 5.00645 11.8852 5.00347C11.9527 5.0005 12.0093 5 12.0719 5C12.1344 5 12.198 5 12.261 5C12.3335 5.00232 12.406 5.00645 12.4785 5.01241C12.5371 5.01738 12.5961 5.02234 12.6542 5.02929C12.7123 5.03624 12.7759 5.04468 12.8364 5.05362C12.9059 5.06405 12.975 5.07646 13.044 5.09036C13.139 5.10922 13.2333 5.13107 13.327 5.15589C13.5399 5.21234 13.7488 5.28334 13.952 5.36838C14.0563 5.41207 14.1591 5.45907 14.2603 5.50938C14.3696 5.56367 14.4766 5.62175 14.5816 5.68364C14.6865 5.74554 14.7894 5.81074 14.8904 5.87926C14.9996 5.95323 15.1058 6.0282 15.2096 6.11161L15.2816 6.1687C15.2943 6.17875 15.3058 6.19024 15.3159 6.20296C15.323 6.21131 15.3271 6.22178 15.3277 6.23273C15.3282 6.24369 15.3251 6.25452 15.3188 6.26353C15.3109 6.27588 15.3018 6.28736 15.2915 6.29779C15.2721 6.31765 15.2533 6.3375 15.2334 6.35587C15.2046 6.38268 15.1768 6.41098 15.149 6.43928C15.0703 6.51938 14.9941 6.60213 14.9206 6.68752C14.868 6.74859 14.8179 6.81214 14.7672 6.87519C14.7106 6.94668 14.658 7.02164 14.6059 7.09612C14.5538 7.17059 14.4996 7.25797 14.449 7.34088C14.3919 7.43372 14.3413 7.53003 14.2906 7.62685C14.2658 7.6765 14.241 7.72614 14.2191 7.77232C14.2122 7.78671 14.2042 7.80111 14.1963 7.81501C14.1916 7.82353 14.1853 7.8311 14.1779 7.83736C14.1728 7.842 14.1666 7.84516 14.1599 7.84647C14.1531 7.84779 14.1461 7.84721 14.1397 7.8448C14.1283 7.84095 14.1175 7.83525 14.1079 7.82792C14.0925 7.816 14.0777 7.80409 14.0627 7.79118C13.9868 7.72565 13.9083 7.66359 13.8274 7.60451C13.7252 7.52938 13.619 7.45993 13.5092 7.39649C13.4127 7.34032 13.3132 7.28944 13.2113 7.24406C13.0252 7.1616 12.8308 7.09951 12.6314 7.05888C12.5546 7.04333 12.4773 7.03108 12.3996 7.02214C12.2534 7.00559 12.1061 7.00078 11.9592 7.00774C11.8454 7.0131 11.732 7.0252 11.6196 7.04398C11.4627 7.06999 11.3079 7.10716 11.1564 7.1552C10.9915 7.20677 10.8306 7.27015 10.6748 7.34485C10.5772 7.39163 10.4821 7.44333 10.3898 7.49975C10.2692 7.57397 10.1542 7.65693 10.0458 7.74799C10.0036 7.78324 9.96285 7.81997 9.92263 7.85771C9.8551 7.92149 9.79097 7.98877 9.73049 8.05928C9.67588 8.12233 9.62574 8.18836 9.57708 8.25787C9.51879 8.34024 9.46509 8.42576 9.41622 8.51405C9.35752 8.62003 9.30561 8.72964 9.26083 8.84222C9.19006 9.01914 9.13474 9.20187 9.0955 9.38834C9.0816 9.45222 9.06952 9.51643 9.05926 9.58097C9.04983 9.64055 9.04288 9.70112 9.03742 9.7612C9.02652 9.87371 9.02238 9.98678 9.02501 10.0998C9.02501 10.1668 9.03047 10.2338 9.03692 10.2984C9.04338 10.3629 9.05231 10.4364 9.06323 10.5049C9.07416 10.5734 9.08706 10.6335 9.10246 10.6971C9.16563 10.9631 9.26591 11.219 9.40034 11.4571C9.44999 11.5425 9.49963 11.6269 9.55722 11.7054C9.60687 11.7744 9.65652 11.8429 9.71113 11.9075C9.76574 11.972 9.81043 12.0216 9.86008 12.0752C9.96134 12.1797 10.0698 12.277 10.1848 12.3662C10.2817 12.4414 10.3832 12.5105 10.4886 12.5732C10.7847 12.7496 11.1085 12.8745 11.4463 12.9426C11.5213 12.958 11.5953 12.9699 11.6732 12.9798C11.7364 12.9878 11.8 12.9933 11.8638 12.9962C11.8857 12.9962 11.9075 12.9962 11.9294 12.9962C11.9461 12.9958 11.9628 12.9976 11.979 13.0017C11.9909 13.0049 12.0018 13.0111 12.0105 13.0198C12.0192 13.0285 12.0255 13.0394 12.0287 13.0514C12.0343 13.0717 12.0367 13.0928 12.0356 13.1139C12.0327 13.2132 12.0331 13.3095 12.0331 13.4068C12.0331 13.6742 12.0331 13.9417 12.0331 14.2091C12.0321 14.2185 12.0325 14.2281 12.0341 14.2374Z" fill="white"/>
<path d="M12.0883 11.8767C12.073 11.8769 12.0577 11.8757 12.0426 11.8732C12.0297 11.8719 12.0167 11.8719 12.0039 11.8732C11.9661 11.8732 11.9284 11.8683 11.8907 11.8643C11.8733 11.8643 11.8554 11.8608 11.838 11.8583C11.8207 11.8559 11.8028 11.8548 11.7854 11.8518C11.7512 11.8464 11.7174 11.8405 11.6831 11.8335C11.6246 11.8216 11.567 11.8077 11.5099 11.7908C11.4487 11.773 11.3885 11.7518 11.3297 11.7273C11.277 11.7049 11.2249 11.6816 11.1743 11.6548C11.1082 11.6193 11.0441 11.5803 10.9821 11.5381C10.9439 11.5123 10.9077 11.484 10.8719 11.4552L10.7989 11.3951C10.7896 11.3872 10.7808 11.3788 10.7726 11.3698C10.752 11.349 10.7337 11.326 10.718 11.3013C10.6968 11.2668 10.6855 11.2271 10.6852 11.1866C10.6844 11.1608 10.6888 11.1352 10.6981 11.1111C10.7082 11.0863 10.7241 11.0644 10.7445 11.047C10.7649 11.0298 10.7892 11.0177 10.8153 11.0118C10.8423 11.005 10.8705 11.0036 10.898 11.0079C10.9256 11.0121 10.952 11.0219 10.9757 11.0367C10.9915 11.0461 11.0062 11.0575 11.0194 11.0704C11.0467 11.0967 11.0735 11.1235 11.1023 11.1484C11.1592 11.1985 11.2197 11.2443 11.2835 11.2854C11.3311 11.3155 11.3809 11.3421 11.4324 11.3648C11.4775 11.3844 11.5237 11.401 11.5709 11.4145C11.6141 11.4269 11.6578 11.4393 11.7015 11.4492C11.743 11.4591 11.7849 11.4667 11.8271 11.4721C11.8455 11.4721 11.8639 11.4776 11.8817 11.4805H11.8867C11.918 11.4805 11.9493 11.4885 11.9805 11.4859C11.9999 11.4859 12.0188 11.4904 12.0381 11.49C12.0759 11.49 12.1141 11.4874 12.1513 11.4845C12.2162 11.4792 12.2806 11.4691 12.3439 11.4542C12.416 11.4371 12.4866 11.4142 12.555 11.3857C12.5966 11.3683 12.6369 11.3479 12.6766 11.3266C12.7269 11.2991 12.7756 11.2688 12.8226 11.2358C12.8636 11.2073 12.9033 11.177 12.9417 11.1449C12.9794 11.1136 13.0167 11.0814 13.0554 11.051C13.0911 11.0212 13.1364 11.0052 13.183 11.0059C13.2163 11.0062 13.2487 11.0171 13.2753 11.0371C13.3079 11.0611 13.3345 11.0922 13.3533 11.128C13.3647 11.1499 13.3701 11.1746 13.3688 11.1993C13.3675 11.224 13.3595 11.2479 13.3458 11.2685C13.3304 11.2932 13.3123 11.316 13.2917 11.3365C13.2684 11.3614 13.2421 11.3862 13.2197 11.4085C13.2033 11.4239 13.1855 11.4383 13.1701 11.4527C13.1547 11.4671 13.1269 11.4889 13.105 11.5063C13.0515 11.5476 12.9955 11.5856 12.9373 11.62C12.8907 11.6476 12.8428 11.6727 12.7938 11.6955C12.7536 11.7143 12.7124 11.7307 12.6711 11.7451C12.595 11.774 12.5171 11.7978 12.4378 11.8161C12.3837 11.829 12.3291 11.839 12.2744 11.8479C12.2476 11.8518 12.2208 11.8588 12.194 11.8638C12.1593 11.8716 12.1239 11.876 12.0883 11.8767Z" fill="#ECF1F4"/>
</svg>
