<svg width="21" height="10" viewBox="0 0 21 10" fill="none" xmlns="http://www.w3.org/2000/svg">
<path d="M11.4092 5.38542C11.3171 5.44791 11.2287 5.51584 11.1447 5.58885C10.4438 6.28932 9.768 7.01285 9.04077 7.68755C8.28855 8.38973 7.39818 8.92651 6.4268 9.26344C3.91904 10.1273 1.44105 9.04509 0.411427 6.80806C-0.213653 5.45187 -0.107443 4.06721 0.600845 2.76052C1.28613 1.49587 2.35093 0.678772 3.74721 0.319382C5.12252 -0.0339051 6.40448 0.228517 7.60728 0.949331C8.40081 1.424 9.09016 2.03428 9.77612 2.70763C9.52785 2.93818 9.28769 3.16195 9.04618 3.38572C8.84865 3.56813 8.64638 3.74443 8.45425 3.93227C8.33654 4.04754 8.26078 4.03601 8.13089 3.9282C7.60052 3.48811 7.08774 3.01141 6.50731 2.65067C5.61772 2.09938 4.66386 2.01801 3.69918 2.5198C2.71286 3.03243 2.14325 4.28284 2.3232 5.36779C2.61612 7.12609 4.44535 8.04016 6.18394 7.23187C7.16621 6.77484 7.96921 6.07911 8.7262 5.321C9.45749 4.59002 10.1644 3.8353 10.9113 3.12127C11.675 2.39096 12.4246 1.62946 13.2661 1.00087C16.1182 -1.14055 20.1664 0.309211 20.9031 3.87598C21.1539 5.10274 20.9135 6.37916 20.2337 7.42981C19.554 8.48046 18.4894 9.22112 17.2696 9.49196C14.6651 10.0738 12.2595 8.52432 11.5817 6.09199C11.5228 5.87975 11.4775 5.66615 11.4092 5.38542ZM13.4326 4.77514C13.3649 6.22151 14.607 7.57431 16.1791 7.5777C16.7301 7.58468 17.2708 7.42745 17.7325 7.12597C18.1943 6.82449 18.5563 6.39234 18.7726 5.88433C18.989 5.37632 19.0499 4.81534 18.9478 4.27256C18.8456 3.72978 18.5849 3.22965 18.1987 2.8356C17.8125 2.44156 17.3183 2.17136 16.7787 2.05928C16.2391 1.9472 15.6785 1.99829 15.1679 2.20607C14.6573 2.41385 14.2198 2.76895 13.9108 3.22634C13.6019 3.68372 13.4354 4.22278 13.4326 4.77514Z" fill="#009EFC"/>
</svg>
