<svg width="23" height="11" viewBox="0 0 23 11" fill="none" xmlns="http://www.w3.org/2000/svg">
<path d="M0.543844 1.08761C0.84418 1.08761 1.08765 0.844143 1.08765 0.543807C1.08765 0.243471 0.84418 0 0.543844 0C0.243508 0 3.71933e-05 0.243471 3.71933e-05 0.543807C3.71933e-05 0.844143 0.243508 1.08761 0.543844 1.08761Z" fill="#182542"/>
<path d="M2.15881 2.7355C2.45914 2.7355 2.70261 2.49202 2.70261 2.19169C2.70261 1.89135 2.45914 1.64788 2.15881 1.64788C1.85847 1.64788 1.615 1.89135 1.615 2.19169C1.615 2.49202 1.85847 2.7355 2.15881 2.7355Z" fill="#182542"/>
<path d="M2.15881 1.08761C2.45914 1.08761 2.70261 0.844143 2.70261 0.543807C2.70261 0.243471 2.45914 0 2.15881 0C1.85847 0 1.615 0.243471 1.615 0.543807C1.615 0.844143 1.85847 1.08761 2.15881 1.08761Z" fill="#182542"/>
<path d="M3.80676 2.7355C4.1071 2.7355 4.35057 2.49202 4.35057 2.19169C4.35057 1.89135 4.1071 1.64788 3.80676 1.64788C3.50643 1.64788 3.26296 1.89135 3.26296 2.19169C3.26296 2.49202 3.50643 2.7355 3.80676 2.7355Z" fill="#182542"/>
<path d="M3.80676 4.35046C4.1071 4.35046 4.35057 4.10699 4.35057 3.80665C4.35057 3.50631 4.1071 3.26284 3.80676 3.26284C3.50643 3.26284 3.26296 3.50631 3.26296 3.80665C3.26296 4.10699 3.50643 4.35046 3.80676 4.35046Z" fill="#182542"/>
<path d="M3.80676 1.08761C4.1071 1.08761 4.35057 0.844143 4.35057 0.543807C4.35057 0.243471 4.1071 0 3.80676 0C3.50643 0 3.26296 0.243471 3.26296 0.543807C3.26296 0.844143 3.50643 1.08761 3.80676 1.08761Z" fill="#182542"/>
<path d="M5.42173 2.7355C5.72206 2.7355 5.96553 2.49202 5.96553 2.19169C5.96553 1.89135 5.72206 1.64788 5.42173 1.64788C5.12139 1.64788 4.87792 1.89135 4.87792 2.19169C4.87792 2.49202 5.12139 2.7355 5.42173 2.7355Z" fill="#182542"/>
<path d="M5.42173 4.35046C5.72206 4.35046 5.96553 4.10699 5.96553 3.80665C5.96553 3.50631 5.72206 3.26284 5.42173 3.26284C5.12139 3.26284 4.87792 3.50631 4.87792 3.80665C4.87792 4.10699 5.12139 4.35046 5.42173 4.35046Z" fill="#182542"/>
<path d="M5.42173 1.08761C5.72206 1.08761 5.96553 0.844143 5.96553 0.543807C5.96553 0.243471 5.72206 0 5.42173 0C5.12139 0 4.87792 0.243471 4.87792 0.543807C4.87792 0.844143 5.12139 1.08761 5.42173 1.08761Z" fill="#182542"/>
<path d="M7.03669 2.7355C7.33702 2.7355 7.58049 2.49202 7.58049 2.19169C7.58049 1.89135 7.33702 1.64788 7.03669 1.64788C6.73635 1.64788 6.49288 1.89135 6.49288 2.19169C6.49288 2.49202 6.73635 2.7355 7.03669 2.7355Z" fill="#182542"/>
<path d="M7.03669 4.35046C7.33702 4.35046 7.58049 4.10699 7.58049 3.80665C7.58049 3.50631 7.33702 3.26284 7.03669 3.26284C6.73635 3.26284 6.49288 3.50631 6.49288 3.80665C6.49288 4.10699 6.73635 4.35046 7.03669 4.35046Z" fill="#182542"/>
<path d="M5.42173 5.96542C5.72206 5.96542 5.96553 5.72195 5.96553 5.42161C5.96553 5.12128 5.72206 4.87781 5.42173 4.87781C5.12139 4.87781 4.87792 5.12128 4.87792 5.42161C4.87792 5.72195 5.12139 5.96542 5.42173 5.96542Z" fill="#182542"/>
<path d="M7.03669 5.96542C7.33702 5.96542 7.58049 5.72195 7.58049 5.42161C7.58049 5.12128 7.33702 4.87781 7.03669 4.87781C6.73635 4.87781 6.49288 5.12128 6.49288 5.42161C6.49288 5.72195 6.73635 5.96542 7.03669 5.96542Z" fill="#182542"/>
<path d="M3.80676 7.61334C4.10712 7.61334 4.35061 7.36985 4.35061 7.06949C4.35061 6.76914 4.10712 6.52565 3.80676 6.52565C3.50641 6.52565 3.26292 6.76914 3.26292 7.06949C3.26292 7.36985 3.50641 7.61334 3.80676 7.61334Z" fill="#182542"/>
<path d="M5.42173 7.61334C5.72208 7.61334 5.96557 7.36985 5.96557 7.06949C5.96557 6.76914 5.72208 6.52565 5.42173 6.52565C5.12137 6.52565 4.87788 6.76914 4.87788 7.06949C4.87788 7.36985 5.12137 7.61334 5.42173 7.61334Z" fill="#182542"/>
<path d="M7.03665 7.61334C7.33701 7.61334 7.58049 7.36985 7.58049 7.06949C7.58049 6.76914 7.33701 6.52565 7.03665 6.52565C6.73629 6.52565 6.49281 6.76914 6.49281 7.06949C6.49281 7.36985 6.73629 7.61334 7.03665 7.61334Z" fill="#182542"/>
<path d="M2.15881 9.23032C2.45914 9.23032 2.70261 8.98685 2.70261 8.68651C2.70261 8.38618 2.45914 8.1427 2.15881 8.1427C1.85847 8.1427 1.615 8.38618 1.615 8.68651C1.615 8.98685 1.85847 9.23032 2.15881 9.23032Z" fill="#182542"/>
<path d="M3.80676 9.23032C4.1071 9.23032 4.35057 8.98685 4.35057 8.68651C4.35057 8.38618 4.1071 8.1427 3.80676 8.1427C3.50643 8.1427 3.26296 8.38618 3.26296 8.68651C3.26296 8.98685 3.50643 9.23032 3.80676 9.23032Z" fill="#182542"/>
<path d="M5.42173 9.23032C5.72206 9.23032 5.96553 8.98685 5.96553 8.68651C5.96553 8.38618 5.72206 8.1427 5.42173 8.1427C5.12139 8.1427 4.87792 8.38618 4.87792 8.68651C4.87792 8.98685 5.12139 9.23032 5.42173 9.23032Z" fill="#182542"/>
<path d="M7.03669 9.23032C7.33702 9.23032 7.58049 8.98685 7.58049 8.68651C7.58049 8.38618 7.33702 8.1427 7.03669 8.1427C6.73635 8.1427 6.49288 8.38618 6.49288 8.68651C6.49288 8.98685 6.73635 9.23032 7.03669 9.23032Z" fill="#182542"/>
<path d="M8.71962 4.35046C9.01995 4.35046 9.26342 4.10699 9.26342 3.80665C9.26342 3.50631 9.01995 3.26284 8.71962 3.26284C8.41928 3.26284 8.17581 3.50631 8.17581 3.80665C8.17581 4.10699 8.41928 4.35046 8.71962 4.35046Z" fill="#182542"/>
<path d="M8.71962 5.96542C9.01995 5.96542 9.26342 5.72195 9.26342 5.42161C9.26342 5.12128 9.01995 4.87781 8.71962 4.87781C8.41928 4.87781 8.17581 5.12128 8.17581 5.42161C8.17581 5.72195 8.41928 5.96542 8.71962 5.96542Z" fill="#182542"/>
<path d="M8.71962 7.61334C9.01997 7.61334 9.26346 7.36985 9.26346 7.06949C9.26346 6.76914 9.01997 6.52565 8.71962 6.52565C8.41926 6.52565 8.17577 6.76914 8.17577 7.06949C8.17577 7.36985 8.41926 7.61334 8.71962 7.61334Z" fill="#182542"/>
<path d="M0.543844 10.9133C0.8442 10.9133 1.08769 10.6698 1.08769 10.3694C1.08769 10.0691 0.8442 9.8256 0.543844 9.8256C0.243487 9.8256 0 10.0691 0 10.3694C0 10.6698 0.243487 10.9133 0.543844 10.9133Z" fill="#182542"/>
<path d="M2.15881 10.9133C2.45916 10.9133 2.70265 10.6698 2.70265 10.3694C2.70265 10.0691 2.45916 9.8256 2.15881 9.8256C1.85845 9.8256 1.61496 10.0691 1.61496 10.3694C1.61496 10.6698 1.85845 10.9133 2.15881 10.9133Z" fill="#182542"/>
<path d="M3.80676 10.9133C4.10712 10.9133 4.35061 10.6698 4.35061 10.3694C4.35061 10.0691 4.10712 9.8256 3.80676 9.8256C3.50641 9.8256 3.26292 10.0691 3.26292 10.3694C3.26292 10.6698 3.50641 10.9133 3.80676 10.9133Z" fill="#182542"/>
<path d="M5.42173 10.9133C5.72208 10.9133 5.96557 10.6698 5.96557 10.3694C5.96557 10.0691 5.72208 9.8256 5.42173 9.8256C5.12137 9.8256 4.87788 10.0691 4.87788 10.3694C4.87788 10.6698 5.12137 10.9133 5.42173 10.9133Z" fill="#182542"/>
<path d="M10.3366 5.96542C10.6369 5.96542 10.8804 5.72195 10.8804 5.42161C10.8804 5.12128 10.6369 4.87781 10.3366 4.87781C10.0362 4.87781 9.79275 5.12128 9.79275 5.42161C9.79275 5.72195 10.0362 5.96542 10.3366 5.96542Z" fill="#182542"/>
<path d="M11.7024 1.08761C12.0027 1.08761 12.2462 0.844143 12.2462 0.543807C12.2462 0.243471 12.0027 0 11.7024 0C11.402 0 11.1586 0.243471 11.1586 0.543807C11.1586 0.844143 11.402 1.08761 11.7024 1.08761Z" fill="#182542"/>
<path d="M13.3173 2.7355C13.6177 2.7355 13.8612 2.49202 13.8612 2.19169C13.8612 1.89135 13.6177 1.64788 13.3173 1.64788C13.017 1.64788 12.7735 1.89135 12.7735 2.19169C12.7735 2.49202 13.017 2.7355 13.3173 2.7355Z" fill="#182542"/>
<path d="M13.3173 1.08761C13.6177 1.08761 13.8612 0.844143 13.8612 0.543807C13.8612 0.243471 13.6177 0 13.3173 0C13.017 0 12.7735 0.243471 12.7735 0.543807C12.7735 0.844143 13.017 1.08761 13.3173 1.08761Z" fill="#182542"/>
<path d="M14.9653 2.7355C15.2656 2.7355 15.5091 2.49202 15.5091 2.19169C15.5091 1.89135 15.2656 1.64788 14.9653 1.64788C14.665 1.64788 14.4215 1.89135 14.4215 2.19169C14.4215 2.49202 14.665 2.7355 14.9653 2.7355Z" fill="#182542"/>
<path d="M14.9653 4.35046C15.2656 4.35046 15.5091 4.10699 15.5091 3.80665C15.5091 3.50631 15.2656 3.26284 14.9653 3.26284C14.665 3.26284 14.4215 3.50631 14.4215 3.80665C14.4215 4.10699 14.665 4.35046 14.9653 4.35046Z" fill="#182542"/>
<path d="M14.9653 1.08761C15.2656 1.08761 15.5091 0.844143 15.5091 0.543807C15.5091 0.243471 15.2656 0 14.9653 0C14.665 0 14.4215 0.243471 14.4215 0.543807C14.4215 0.844143 14.665 1.08761 14.9653 1.08761Z" fill="#182542"/>
<path d="M16.5803 2.7355C16.8806 2.7355 17.1241 2.49202 17.1241 2.19169C17.1241 1.89135 16.8806 1.64788 16.5803 1.64788C16.2799 1.64788 16.0365 1.89135 16.0365 2.19169C16.0365 2.49202 16.2799 2.7355 16.5803 2.7355Z" fill="#182542"/>
<path d="M16.5803 4.35046C16.8806 4.35046 17.1241 4.10699 17.1241 3.80665C17.1241 3.50631 16.8806 3.26284 16.5803 3.26284C16.2799 3.26284 16.0365 3.50631 16.0365 3.80665C16.0365 4.10699 16.2799 4.35046 16.5803 4.35046Z" fill="#182542"/>
<path d="M16.5803 1.08761C16.8806 1.08761 17.1241 0.844143 17.1241 0.543807C17.1241 0.243471 16.8806 0 16.5803 0C16.2799 0 16.0365 0.243471 16.0365 0.543807C16.0365 0.844143 16.2799 1.08761 16.5803 1.08761Z" fill="#182542"/>
<path d="M18.1952 2.7355C18.4956 2.7355 18.739 2.49202 18.739 2.19169C18.739 1.89135 18.4956 1.64788 18.1952 1.64788C17.8949 1.64788 17.6514 1.89135 17.6514 2.19169C17.6514 2.49202 17.8949 2.7355 18.1952 2.7355Z" fill="#182542"/>
<path d="M18.1952 4.35046C18.4956 4.35046 18.739 4.10699 18.739 3.80665C18.739 3.50631 18.4956 3.26284 18.1952 3.26284C17.8949 3.26284 17.6514 3.50631 17.6514 3.80665C17.6514 4.10699 17.8949 4.35046 18.1952 4.35046Z" fill="#182542"/>
<path d="M16.5803 5.96542C16.8806 5.96542 17.1241 5.72195 17.1241 5.42161C17.1241 5.12128 16.8806 4.87781 16.5803 4.87781C16.2799 4.87781 16.0365 5.12128 16.0365 5.42161C16.0365 5.72195 16.2799 5.96542 16.5803 5.96542Z" fill="#182542"/>
<path d="M18.1952 5.96542C18.4956 5.96542 18.739 5.72195 18.739 5.42161C18.739 5.12128 18.4956 4.87781 18.1952 4.87781C17.8949 4.87781 17.6514 5.12128 17.6514 5.42161C17.6514 5.72195 17.8949 5.96542 18.1952 5.96542Z" fill="#182542"/>
<path d="M14.9653 7.61334C15.2657 7.61334 15.5091 7.36985 15.5091 7.06949C15.5091 6.76914 15.2657 6.52565 14.9653 6.52565C14.6649 6.52565 14.4215 6.76914 14.4215 7.06949C14.4215 7.36985 14.6649 7.61334 14.9653 7.61334Z" fill="#182542"/>
<path d="M16.5803 7.61334C16.8806 7.61334 17.1241 7.36985 17.1241 7.06949C17.1241 6.76914 16.8806 6.52565 16.5803 6.52565C16.2799 6.52565 16.0364 6.76914 16.0364 7.06949C16.0364 7.36985 16.2799 7.61334 16.5803 7.61334Z" fill="#182542"/>
<path d="M18.1952 7.61334C18.4955 7.61334 18.739 7.36985 18.739 7.06949C18.739 6.76914 18.4955 6.52565 18.1952 6.52565C17.8948 6.52565 17.6513 6.76914 17.6513 7.06949C17.6513 7.36985 17.8948 7.61334 18.1952 7.61334Z" fill="#182542"/>
<path d="M13.3173 9.23032C13.6177 9.23032 13.8612 8.98685 13.8612 8.68651C13.8612 8.38618 13.6177 8.1427 13.3173 8.1427C13.017 8.1427 12.7735 8.38618 12.7735 8.68651C12.7735 8.98685 13.017 9.23032 13.3173 9.23032Z" fill="#182542"/>
<path d="M14.9653 9.23032C15.2656 9.23032 15.5091 8.98685 15.5091 8.68651C15.5091 8.38618 15.2656 8.1427 14.9653 8.1427C14.665 8.1427 14.4215 8.38618 14.4215 8.68651C14.4215 8.98685 14.665 9.23032 14.9653 9.23032Z" fill="#182542"/>
<path d="M16.5803 9.23032C16.8806 9.23032 17.1241 8.98685 17.1241 8.68651C17.1241 8.38618 16.8806 8.1427 16.5803 8.1427C16.2799 8.1427 16.0365 8.38618 16.0365 8.68651C16.0365 8.98685 16.2799 9.23032 16.5803 9.23032Z" fill="#182542"/>
<path d="M18.1952 9.23032C18.4956 9.23032 18.739 8.98685 18.739 8.68651C18.739 8.38618 18.4956 8.1427 18.1952 8.1427C17.8949 8.1427 17.6514 8.38618 17.6514 8.68651C17.6514 8.98685 17.8949 9.23032 18.1952 9.23032Z" fill="#182542"/>
<path d="M19.8782 4.35046C20.1785 4.35046 20.422 4.10699 20.422 3.80665C20.422 3.50631 20.1785 3.26284 19.8782 3.26284C19.5778 3.26284 19.3343 3.50631 19.3343 3.80665C19.3343 4.10699 19.5778 4.35046 19.8782 4.35046Z" fill="#182542"/>
<path d="M19.8782 5.96542C20.1785 5.96542 20.422 5.72195 20.422 5.42161C20.422 5.12128 20.1785 4.87781 19.8782 4.87781C19.5778 4.87781 19.3343 5.12128 19.3343 5.42161C19.3343 5.72195 19.5778 5.96542 19.8782 5.96542Z" fill="#182542"/>
<path d="M19.8782 7.61334C20.1785 7.61334 20.422 7.36985 20.422 7.06949C20.422 6.76914 20.1785 6.52565 19.8782 6.52565C19.5778 6.52565 19.3343 6.76914 19.3343 7.06949C19.3343 7.36985 19.5778 7.61334 19.8782 7.61334Z" fill="#182542"/>
<path d="M11.7024 10.9133C12.0027 10.9133 12.2462 10.6698 12.2462 10.3694C12.2462 10.0691 12.0027 9.8256 11.7024 9.8256C11.402 9.8256 11.1585 10.0691 11.1585 10.3694C11.1585 10.6698 11.402 10.9133 11.7024 10.9133Z" fill="#182542"/>
<path d="M13.3173 10.9133C13.6177 10.9133 13.8612 10.6698 13.8612 10.3694C13.8612 10.0691 13.6177 9.8256 13.3173 9.8256C13.017 9.8256 12.7735 10.0691 12.7735 10.3694C12.7735 10.6698 13.017 10.9133 13.3173 10.9133Z" fill="#182542"/>
<path d="M14.9653 10.9133C15.2657 10.9133 15.5091 10.6698 15.5091 10.3694C15.5091 10.0691 15.2657 9.8256 14.9653 9.8256C14.6649 9.8256 14.4215 10.0691 14.4215 10.3694C14.4215 10.6698 14.6649 10.9133 14.9653 10.9133Z" fill="#182542"/>
<path d="M16.5803 10.9133C16.8806 10.9133 17.1241 10.6698 17.1241 10.3694C17.1241 10.0691 16.8806 9.8256 16.5803 9.8256C16.2799 9.8256 16.0364 10.0691 16.0364 10.3694C16.0364 10.6698 16.2799 10.9133 16.5803 10.9133Z" fill="#182542"/>
<path d="M21.4951 5.96542C21.7954 5.96542 22.0389 5.72195 22.0389 5.42161C22.0389 5.12128 21.7954 4.87781 21.4951 4.87781C21.1948 4.87781 20.9513 5.12128 20.9513 5.42161C20.9513 5.72195 21.1948 5.96542 21.4951 5.96542Z" fill="#182542"/>
</svg>
