<svg width="17" height="17" viewBox="0 0 17 17" fill="none" xmlns="http://www.w3.org/2000/svg">
<path d="M13.9643 8.50001C13.629 8.50001 13.3571 8.77183 13.3571 9.10716V15.1786C13.3571 15.5139 13.0853 15.7857 12.75 15.7857H1.82143C1.4861 15.7857 1.21427 15.5139 1.21427 15.1786V3.03572C1.21427 2.70039 1.4861 2.42856 1.82143 2.42856H9.10715C9.44248 2.42856 9.7143 2.15673 9.7143 1.82141C9.7143 1.48608 9.44248 1.21429 9.10715 1.21429H1.82143C0.815481 1.21429 0 2.02977 0 3.03572V15.1786C0 16.1845 0.815481 17 1.82143 17H12.75C13.756 17 14.5714 16.1845 14.5714 15.1786V9.10713C14.5714 8.77183 14.2996 8.50001 13.9643 8.50001Z" fill="#182542"/>
<path d="M16.3198 0.68084C15.8839 0.244835 15.2926 -6.1544e-05 14.676 9.6056e-06C14.0591 -0.00176913 13.4672 0.243555 13.0325 0.681231L5.03519 8.67788C4.96884 8.74472 4.91879 8.82598 4.88887 8.91527L3.67459 12.5581C3.56862 12.8763 3.74062 13.2201 4.05877 13.326C4.12049 13.3466 4.18513 13.3571 4.25016 13.3571C4.31533 13.357 4.38011 13.3466 4.44201 13.3262L8.08487 12.1119C8.17434 12.082 8.25563 12.0317 8.32226 11.965L16.3196 3.9677C17.2272 3.06012 17.2273 1.58853 16.3198 0.68084Z" fill="#182542"/>
</svg>
