<svg width="26" height="26" viewBox="0 0 26 26" fill="none" xmlns="http://www.w3.org/2000/svg">
<g clip-path="url(#clip0_988_5355)">
<path d="M23.9224 4.47461e-08H1.39647C0.625118 0.000386397 -0.000193132 0.626084 4.47461e-08 1.39763V23.9235C0.000386397 24.6949 0.626084 25.3202 1.39763 25.32H23.9224C24.6941 25.3202 25.3198 24.6947 25.32 23.9229C25.32 23.9228 25.32 23.9226 25.32 23.9224V1.39647C25.3196 0.625118 24.6939 -0.000193132 23.9224 4.47461e-08V4.47461e-08Z" fill="#4B2A91"/>
<path d="M17.4817 25.32V15.5283H20.7827L21.2772 11.6957H17.4817V9.25469C17.4817 8.1476 17.789 7.39325 19.3766 7.39325H21.3885V3.97461C21.0385 3.92805 19.8375 3.82393 18.44 3.82393C15.5223 3.82393 13.5254 5.60424 13.5254 8.8751V11.6957H10.2368V15.5283H13.5254V25.32H17.4817Z" fill="white"/>
</g>
<defs>
<clipPath id="clip0_988_5355">
<rect width="25.32" height="25.32" fill="white"/>
</clipPath>
</defs>
</svg>
