<svg width="17" height="12" viewBox="0 0 17 12" fill="none" xmlns="http://www.w3.org/2000/svg">
<path d="M16.1 6.60001H0.7C0.313599 6.60001 0 6.33121 0 6.00001C0 5.66881 0.313599 5.40001 0.7 5.40001H16.1C16.4864 5.40001 16.8 5.66881 16.8 6.00001C16.8 6.33121 16.4864 6.60001 16.1 6.60001Z" fill="#100F0D"/>
<path d="M16.1 1.2H0.7C0.313599 1.2 0 0.931201 0 0.6C0 0.268799 0.313599 0 0.7 0H16.1C16.4864 0 16.8 0.268799 16.8 0.6C16.8 0.931201 16.4864 1.2 16.1 1.2Z" fill="#100F0D"/>
<path d="M16.1 12H0.7C0.313599 12 0 11.7312 0 11.4C0 11.0688 0.313599 10.8 0.7 10.8H16.1C16.4864 10.8 16.8 11.0688 16.8 11.4C16.8 11.7312 16.4864 12 16.1 12Z" fill="#100F0D"/>
</svg>
