<svg width="17" height="17" viewBox="0 0 17 17" fill="none" xmlns="http://www.w3.org/2000/svg">
<path d="M3.10202 6.20403C4.81521 6.20403 6.20403 4.81521 6.20403 3.10202C6.20403 1.38882 4.81521 0 3.10202 0C1.38882 0 0 1.38882 0 3.10202C0 4.81521 1.38882 6.20403 3.10202 6.20403Z" fill="white"/>
<path d="M3.10202 17C4.81521 17 6.20403 15.6112 6.20403 13.898C6.20403 12.1848 4.81521 10.796 3.10202 10.796C1.38882 10.796 0 12.1848 0 13.898C0 15.6112 1.38882 17 3.10202 17Z" fill="white"/>
<path d="M13.8979 6.20403C15.6111 6.20403 16.9999 4.81521 16.9999 3.10202C16.9999 1.38882 15.6111 0 13.8979 0C12.1847 0 10.7959 1.38882 10.7959 3.10202C10.7959 4.81521 12.1847 6.20403 13.8979 6.20403Z" fill="white"/>
<path d="M13.8979 17C15.6111 17 16.9999 15.6112 16.9999 13.898C16.9999 12.1848 15.6111 10.796 13.8979 10.796C12.1847 10.796 10.7959 12.1848 10.7959 13.898C10.7959 15.6112 12.1847 17 13.8979 17Z" fill="white"/>
</svg>
