<svg width="19" height="18" viewBox="0 0 19 18" fill="none" xmlns="http://www.w3.org/2000/svg">
<path fill-rule="evenodd" clip-rule="evenodd" d="M3.24078 13.5593L2.36233 15.0809L2.49966 15.2243C4.20262 17.0025 6.53782 18 8.99997 18C12.3259 18 15.3727 16.1718 16.9405 13.2392L17.0099 13.1094L11.2117 3.06671L8.99997 6.89753L6.78827 3.06671L2.03206 11.3048L1.98822 11.1624C1.77273 10.4623 1.66418 9.73248 1.66418 9.00003C1.66418 4.94842 4.94842 1.66423 8.99997 1.66423C13.0515 1.66423 16.3358 4.94842 16.3358 9.00003C16.3358 9.48566 16.2881 9.97119 16.1929 10.4475L16.1734 10.5453L17.3086 12.5117L17.499 11.9663C17.8316 11.0132 18 10.0093 18 9.00003C18 4.02965 13.9705 0 9.00003 0C4.0296 0 0 4.0296 0 9.00003C0 10.9147 0.602676 12.7658 1.73401 14.3109L1.97388 14.6384L6.78827 6.29966L8.048 8.48152L9.05623 10.2278L9.86177 11.6231H8.13818L8.67804 10.6881L7.74482 9.07162L5.33842 13.2395H12.6616L9.93325 8.514L11.2117 6.2996L15.1129 13.0568L15.0904 13.0904C13.7249 15.1213 11.4477 16.3358 9.00003 16.3358C6.88512 16.3359 4.8786 15.4276 3.48429 13.8371L3.24078 13.5593Z" fill="#182443"/>
</svg>
