<svg width="17" height="17" viewBox="0 0 17 17" fill="none" xmlns="http://www.w3.org/2000/svg">
<path d="M7.89178 4.9323L7.43143 5.39265C7.26702 5.55706 7.00396 5.55706 6.87243 5.39265L5.82019 4.34043C5.75442 4.27466 5.65577 4.2089 5.55713 4.2089H3.64994C3.28823 4.2089 3.12382 4.63636 3.38688 4.89942L5.65577 7.16828L6.01748 7.52998L7.00396 8.51644L7.36566 8.87814L8.15484 9.66731L8.51655 10.029L9.50303 11.0155L9.86473 11.3772L11.2129 12.7253C11.2787 12.7911 11.3773 12.8569 11.476 12.8569H13.3832C13.7449 12.8569 13.9093 12.4294 13.6462 12.1663L11.6404 10.1605C11.476 9.99613 11.476 9.73308 11.6404 9.60155L12.1007 9.1412C12.2652 8.97679 12.5282 8.97679 12.6597 9.1412L15.6192 12.1006C15.8165 12.2979 16.1453 12.2321 16.2768 12.0019C16.7701 10.9497 17.0002 9.76596 17.0002 8.51644C17.0002 6.37911 16.2111 4.43907 14.9286 2.95938C14.6985 2.69633 14.2381 2.86074 14.2381 3.22244V6.11606C14.2381 6.2147 14.2052 6.31335 14.1066 6.37911L12.3638 8.15474L12.0021 8.51644L11.0156 9.5029L10.6868 9.8646L10.1607 10.3907C9.99626 10.5551 9.7332 10.5551 9.60167 10.3907L9.14132 9.93037C8.97691 9.76596 8.97691 9.5029 9.14132 9.37138L9.66744 8.84526L10.0291 8.48356L11.0156 7.4971L11.3773 7.1354L12.7255 5.78724C12.7913 5.72147 12.857 5.62282 12.857 5.52418V3.6499C12.857 3.2882 12.4296 3.12379 12.1665 3.38685L9.86473 5.65571L9.53591 5.98453L8.54943 6.97099L8.18773 7.33269L7.62872 7.89168C7.46431 8.05609 7.20125 8.05609 7.06972 7.89168L6.60937 7.43134C6.44495 7.26693 6.44495 7.00387 6.60937 6.87234L7.13549 6.34623L7.49719 5.98453L8.48367 4.99807L8.84538 4.63636L12.1007 1.38104C12.298 1.18375 12.2323 0.854932 12.0021 0.723404C10.9499 0.263056 9.76609 0 8.51655 0C6.37919 0 4.43912 0.789168 2.95941 2.07157C2.66347 2.30174 2.86076 2.76209 3.22247 2.76209H6.11613C6.21478 2.76209 6.31342 2.79497 6.37919 2.89362L7.82602 4.34043C8.02331 4.50484 8.02331 4.76789 7.89178 4.9323Z" fill="#186AB4"/>
<path d="M8.87827 12.3965L8.51657 12.0348L7.53009 11.0484L7.16838 10.6867L6.34632 9.86461L5.98461 9.53579L4.99814 8.54933L4.63643 8.18763L1.38106 4.93231C1.18377 4.73502 0.854945 4.80078 0.723415 5.03096C0.26306 6.08318 0 7.26693 0 8.51645C0 10.6538 0.78918 12.5938 2.0716 14.0735C2.30177 14.3366 2.76213 14.1722 2.76213 13.8105V10.884C2.76213 10.7853 2.79501 10.6867 2.89366 10.6209L4.34049 9.17409C4.5049 9.00968 4.76796 9.00968 4.89949 9.17409L5.35985 9.63444C5.52426 9.79885 5.52426 10.0619 5.35985 10.1934L4.30761 11.2128C4.24184 11.2785 4.17608 11.3772 4.17608 11.4758V13.383C4.17608 13.7447 4.60355 13.9091 4.86661 13.646L6.87244 11.6402C7.03685 11.4758 7.29991 11.4758 7.43144 11.6402L7.8918 12.1006C8.05621 12.265 8.05621 12.5281 7.8918 12.6596L4.93237 15.619C4.73508 15.8163 4.80084 16.1451 5.03102 16.2766C6.08326 16.7698 7.26703 17 8.51657 17C10.6539 17 12.594 16.2108 14.0737 14.9284C14.3368 14.6983 14.1724 14.2379 13.8106 14.2379H10.8841C10.7855 14.2379 10.6868 14.205 10.621 14.1064L8.87827 12.3965Z" fill="#186AB4"/>
</svg>
