<svg width="15" height="15" viewBox="0 0 15 15" fill="none" xmlns="http://www.w3.org/2000/svg">
<path d="M14.9667 8.20148H0.0337524V8.2017H14.9667V8.20148Z" fill="#C42126"/>
<path d="M14.1884 4.10721H0.811523V4.10743H14.1884V4.10721Z" fill="#C42126"/>
<path d="M14.7198 5.47177H0.279541V5.47199H14.7198V5.47177Z" fill="#C42126"/>
<path d="M3.22344 13.66H11.7766L11.777 13.6595H3.22296L3.22344 13.66Z" fill="#C42126"/>
<path d="M7.49987 0C7.35255 0 7.20641 0.00532008 7.06134 0.0136169H7.93849C7.79329 0.00532008 7.64718 0 7.49987 0Z" fill="#C42126"/>
<path d="M14.9686 6.83664H0.0308838V6.83686H14.9686V6.83664Z" fill="#C42126"/>
<path d="M9.71666 2.74267H13.298C12.8726 2.22482 12.3782 1.76641 11.8305 1.37833H9.14124C9.36376 1.76983 9.55513 2.23179 9.71666 2.74267Z" fill="#E7E7E7"/>
<path d="M9.14118 1.37831H11.8304C10.7187 0.59046 9.38394 0.0970854 7.9385 0.0136108H7.70758C8.38792 0.0992388 8.70041 0.602746 9.14118 1.37831Z" fill="#DC3027"/>
<path d="M14.7203 5.47189C14.5869 4.99631 14.4081 4.54002 14.1883 4.10754H10.0682C10.1517 4.5456 10.2175 5.00315 10.2663 5.47189H14.7203Z" fill="#E7E7E7"/>
<path d="M9.83644 4.10734H14.1882C13.9402 3.61957 13.6423 3.16185 13.2979 2.74277H9.49646C9.63051 3.16708 9.74432 3.62479 9.83644 4.10734Z" fill="#DC3027"/>
<path d="M10.4241 8.20117H14.9661C14.9877 7.97038 14.9999 7.73649 14.9999 7.50013C14.9999 7.27643 14.9882 7.05558 14.969 6.83673H10.4251C10.4399 7.29052 10.4397 7.74764 10.4241 8.20117Z" fill="#E7E7E7"/>
<path d="M14.9691 6.83648C14.928 6.36787 14.8436 5.91196 14.7203 5.47214H10.075C10.1217 5.91893 10.1525 6.37604 10.1675 6.83648H14.9691Z" fill="#DC3027"/>
<path d="M9.98987 10.9304H14.1687C14.3916 10.4984 14.5732 10.0418 14.7094 9.56586H10.1919C10.1422 10.0353 10.0746 10.4928 9.98987 10.9304Z" fill="#E7E7E7"/>
<path d="M14.7095 9.56576C14.8354 9.12606 14.9228 8.67015 14.9662 8.20142H10.2825C10.2665 8.6622 10.2348 9.11919 10.1872 9.56576H14.7095Z" fill="#DC3027"/>
<path d="M11.7771 13.6595C12.3327 13.2729 12.8341 12.814 13.2662 12.2951H9.74733C9.58285 12.8081 9.38756 13.2693 9.16101 13.6595H11.7771Z" fill="#E7E7E7"/>
<path d="M9.61487 12.295H13.2662C13.6146 11.8764 13.917 11.4187 14.1686 10.9304H9.95912C9.8657 11.4133 9.75072 11.8713 9.61487 12.295Z" fill="#DC3027"/>
<path d="M7.22809 14.9947C7.21292 14.9942 7.19779 14.9935 7.18262 14.993C7.19779 14.9935 7.21295 14.9942 7.22809 14.9947Z" fill="#DC3027"/>
<path d="M7.49988 15C9.08992 15 10.5632 14.5037 11.7766 13.6599H9.06221C8.58046 14.4899 8.26261 15 7.49988 15Z" fill="#DC3027"/>
<path d="M7.49986 15C7.40878 15 7.31831 14.9979 7.22809 14.9947C7.31926 14.9977 7.40983 15 7.49986 15Z" fill="#C42126"/>
<path d="M9.38954 1.37833H3.16958C2.62177 1.76641 2.12748 2.22479 1.70197 2.74267H9.96484C9.80331 2.23179 9.61207 1.76983 9.38954 1.37833Z" fill="#F3F4F5"/>
<path d="M3.16956 1.37831H9.38952C8.94865 0.602746 8.38792 0.0992388 7.70758 0.0136108H7.06135C5.61591 0.0970854 4.28117 0.59046 3.16956 1.37831Z" fill="#E73625"/>
<path d="M0.279663 5.47189H10.5028C10.454 5.00306 10.3881 4.5456 10.3047 4.10754H0.811608C0.591806 4.54005 0.413013 4.99631 0.279663 5.47189Z" fill="#F3F4F5"/>
<path d="M1.70199 2.74265C1.35787 3.16173 1.05969 3.61941 0.811829 4.10721H10.3048C10.2127 3.62477 10.0989 3.16708 9.96487 2.74265C9.96487 2.74265 1.70199 2.74265 1.70199 2.74265Z" fill="#E73625"/>
<path d="M0 7.50012C0 7.73649 0.0123185 7.97038 0.0337572 8.20117H10.5945C10.6101 7.7476 10.6103 7.29061 10.5955 6.83682H0.0309071C0.0117168 7.05558 0 7.27643 0 7.50012Z" fill="#F3F4F5"/>
<path d="M0.0308838 6.83648H10.5954C10.5804 6.37595 10.5494 5.91896 10.5029 5.47214H0.279566C0.156286 5.91206 0.0718611 6.36787 0.0308838 6.83648Z" fill="#E73625"/>
<path d="M10.4991 9.56577H0.290466C0.426667 10.0418 0.608436 10.4983 0.831183 10.9303H10.2971C10.3819 10.4928 10.4493 10.0353 10.4991 9.56577Z" fill="#F3F4F5"/>
<path d="M0.290478 9.56576H10.4991C10.5466 9.11919 10.5785 8.66208 10.5945 8.20142H0.0337524C0.0771998 8.67025 0.164728 9.12606 0.290478 9.56576Z" fill="#E73625"/>
<path d="M3.22291 13.6595H9.36662C9.59317 13.2693 9.78856 12.8081 9.95294 12.2951H1.73376C2.16589 12.814 2.66715 13.2729 3.22291 13.6595Z" fill="#F3F4F5"/>
<path d="M0.831299 10.9304C1.08296 11.4187 1.38538 11.8764 1.73378 12.295H9.95296C10.0887 11.8713 10.2037 11.4133 10.2971 10.9304H0.831299Z" fill="#E73625"/>
<path d="M7.18263 14.993C7.1978 14.9935 7.21294 14.9942 7.22811 14.9947C7.31836 14.9978 7.40883 15 7.49988 15C8.26264 15 8.88459 14.4899 9.36643 13.6599H3.22345C4.35546 14.4472 5.71423 14.9318 7.18263 14.993Z" fill="#E73625"/>
<path d="M7.34479 0.00390625C3.50144 0.0820924 0.368928 3.04959 0.0317993 6.82428H7.34492V0.00390625H7.34479Z" fill="#283991"/>
<path d="M1.50065 4.2493L1.61491 4.60112H1.98509L1.68562 4.81867L1.8 5.17075L1.50065 4.95307L1.2014 5.17075L1.31556 4.81867L1.01617 4.60112H1.38636L1.50065 4.2493Z" fill="#EFEFEF"/>
<path d="M1.50065 5.49228L1.61491 5.84432H1.98509L1.68562 6.06188L1.8 6.41395L1.50065 6.19627L1.2014 6.41395L1.31556 6.06188L1.01617 5.84432H1.38636L1.50065 5.49228Z" fill="#EFEFEF"/>
<path d="M2.74388 2.38437L2.85817 2.73632H3.22823L2.92885 2.954L3.04313 3.30582L2.74388 3.08839L2.4445 3.30582L2.55879 2.954L2.25928 2.73632H2.62947L2.74388 2.38437Z" fill="#EFEFEF"/>
<path d="M2.74388 3.62759L2.85817 3.97954H3.22823L2.92885 4.19697L3.04313 4.54904L2.74388 4.33162L2.4445 4.54904L2.55879 4.19697L2.25928 3.97954H2.62947L2.74388 3.62759Z" fill="#EFEFEF"/>
<path d="M2.74388 4.87079L2.85817 5.22286H3.22823L2.92885 5.44016L3.04313 5.79224L2.74388 5.57459L2.4445 5.79224L2.55879 5.44016L2.25928 5.22286H2.62947L2.74388 4.87079Z" fill="#EFEFEF"/>
<path d="M0.556828 5.79224L0.442447 5.44016L0.741828 5.22273H0.371861L0.363564 5.19705C0.322935 5.32271 0.286233 5.44988 0.25238 5.57848L0.257605 5.57459L0.556828 5.79224Z" fill="#EFEFEF"/>
<path d="M1.20132 3.92756L1.50058 3.70991L1.79996 3.92756L1.68558 3.57548L1.98496 3.35783H1.61477L1.50048 3.00601L1.3862 3.35783H1.24977C1.22444 3.39621 1.19993 3.43482 1.17529 3.47377L1.31552 3.57548L1.20132 3.92756Z" fill="#EFEFEF"/>
<path d="M2.74385 1.84524L3.0431 2.06266L2.92882 1.71084L3.22807 1.49319H3.01432C2.83277 1.62892 2.65762 1.77256 2.48934 1.92412L2.44421 2.06266L2.74385 1.84524Z" fill="#EFEFEF"/>
<path d="M3.68768 1.44119L3.98706 1.22354L4.28632 1.44119L4.17203 1.08911L4.47129 0.871684H4.10122L4.08571 0.82431C3.96031 0.888373 3.8362 0.955032 3.71492 1.02597L3.80184 1.08908L3.68768 1.44119Z" fill="#EFEFEF"/>
<path d="M3.98707 1.76297L4.10136 2.1147H4.47142L4.17204 2.33235L4.28633 2.68442L3.98707 2.46674L3.68769 2.68442L3.80198 2.33235L3.5025 2.1147H3.87266L3.98707 1.76297Z" fill="#EFEFEF"/>
<path d="M3.98707 3.00613L4.10136 3.35786H4.47142L4.17204 3.57551L4.28633 3.92758L3.98707 3.7099L3.68769 3.92758L3.80198 3.57551L3.5025 3.35786H3.87266L3.98707 3.00613Z" fill="#EFEFEF"/>
<path d="M3.98707 4.2493L4.10136 4.60112H4.47142L4.17204 4.81867L4.28633 5.17075L3.98707 4.95307L3.68769 5.17075L3.80198 4.81867L3.5025 4.60112H3.87266L3.98707 4.2493Z" fill="#EFEFEF"/>
<path d="M3.98707 5.49228L4.10136 5.84432H4.47142L4.17204 6.06188L4.28633 6.41395L3.98707 6.19627L3.68769 6.41395L3.80198 6.06188L3.5025 5.84432H3.87266L3.98707 5.49228Z" fill="#EFEFEF"/>
<path d="M5.23018 1.1412L5.34446 1.49315H5.71453L5.41527 1.71083L5.52943 2.06266L5.23018 1.84523L4.9307 2.06266L5.04508 1.71083L4.74561 1.49315H5.11576L5.23018 1.1412Z" fill="#EFEFEF"/>
<path d="M5.23018 2.38437L5.34446 2.73632H5.71453L5.41527 2.954L5.52943 3.30582L5.23018 3.08839L4.9307 3.30582L5.04508 2.954L4.74561 2.73632H5.11576L5.23018 2.38437Z" fill="#EFEFEF"/>
<path d="M5.23018 3.62759L5.34446 3.97954H5.71453L5.41527 4.19697L5.52943 4.54904L5.23018 4.33162L4.9307 4.54904L5.04508 4.19697L4.74561 3.97954H5.11576L5.23018 3.62759Z" fill="#EFEFEF"/>
<path d="M5.23018 4.87079L5.34446 5.22286H5.71453L5.41527 5.44016L5.52943 5.79224L5.23018 5.57459L4.9307 5.79224L5.04508 5.44016L4.74561 5.22286H5.11576L5.23018 4.87079Z" fill="#EFEFEF"/>
<path d="M6.4734 0.519745L6.58769 0.871694H6.95775L6.65837 1.08912L6.77266 1.4412L6.4734 1.22352L6.17393 1.4412L6.28831 1.08912L5.98883 0.871694H6.35889L6.4734 0.519745Z" fill="#EFEFEF"/>
<path d="M6.4734 1.76297L6.58769 2.1147H6.95775L6.65837 2.33235L6.77266 2.68442L6.4734 2.46674L6.17393 2.68442L6.28831 2.33235L5.98883 2.1147H6.35889L6.4734 1.76297Z" fill="#EFEFEF"/>
<path d="M6.4734 3.00613L6.58769 3.35786H6.95775L6.65837 3.57551L6.77266 3.92758L6.4734 3.7099L6.17393 3.92758L6.28831 3.57551L5.98883 3.35786H6.35889L6.4734 3.00613Z" fill="#EFEFEF"/>
<path d="M6.4734 4.2493L6.58769 4.60112H6.95775L6.65837 4.81867L6.77266 5.17075L6.4734 4.95307L6.17393 5.17075L6.28831 4.81867L5.98883 4.60112H6.35889L6.4734 4.2493Z" fill="#EFEFEF"/>
<path d="M6.4734 5.49228L6.58769 5.84432H6.95775L6.65837 6.06188L6.77266 6.41395L6.4734 6.19627L6.17393 6.41395L6.28831 6.06188L5.98883 5.84432H6.35889L6.4734 5.49228Z" fill="#EFEFEF"/>
</svg>
