<svg width="193" height="27" viewBox="0 0 193 27" fill="none" xmlns="http://www.w3.org/2000/svg">
<path d="M94.2575 7.7951L93.5299 8.52264C93.2701 8.78248 92.8543 8.78248 92.6465 8.52264L90.9835 6.85969C90.8796 6.75575 90.7237 6.65182 90.5677 6.65182H87.5536C86.9819 6.65182 86.7221 7.32739 87.1379 7.74313L90.7237 11.3289L91.2953 11.9005L92.8543 13.4595L93.426 14.0312L94.6732 15.2784L95.2449 15.85L96.8039 17.4091L97.3756 17.9807L99.5063 20.1114C99.6102 20.2153 99.7661 20.3192 99.922 20.3192H102.936C103.508 20.3192 103.768 19.6437 103.352 19.2279L100.182 16.0579C99.922 15.7981 99.922 15.3823 100.182 15.1745L100.909 14.4469C101.169 14.1871 101.585 14.1871 101.793 14.4469L106.47 19.124C106.782 19.4358 107.301 19.3318 107.509 18.9681C108.289 17.3051 108.653 15.4343 108.653 13.4595C108.653 10.0817 107.405 7.01559 105.379 4.67706C105.015 4.26132 104.287 4.52116 104.287 5.0928V9.66592C104.287 9.82183 104.235 9.97773 104.079 10.0817L101.325 12.8879L100.753 13.4595L99.1945 15.0186L98.6748 15.5902L97.8433 16.4217C97.5834 16.6815 97.1677 16.6815 96.9598 16.4217L96.2323 15.6941C95.9724 15.4343 95.9724 15.0186 96.2323 14.8107L97.0638 13.9792L97.6354 13.4076L99.1945 11.8486L99.7661 11.2769L101.897 9.14625C102.001 9.04232 102.105 8.88641 102.105 8.73051V5.76837C102.105 5.19673 101.429 4.9369 101.013 5.35263L97.3756 8.93838L96.8559 9.45805L95.2968 11.0171L94.7252 11.5887L93.8417 12.4722C93.5819 12.732 93.1662 12.732 92.9583 12.4722L92.2307 11.7446C91.9709 11.4848 91.9709 11.069 92.2307 10.8612L93.0622 10.0297L93.6339 9.45805L95.1929 7.89903L95.7646 7.32739L100.909 2.18263C101.221 1.87082 101.117 1.35115 100.753 1.14328C99.0905 0.415739 97.2197 0 95.2449 0C91.867 0 88.8008 1.24722 86.4623 3.27394C85.9946 3.63771 86.3064 4.36526 86.878 4.36526H91.4512C91.6071 4.36526 91.763 4.41722 91.867 4.57312L94.1535 6.85969C94.4654 7.11952 94.4654 7.53526 94.2575 7.7951Z" fill="#186AB4"/>
<path d="M95.8165 19.5917L95.2449 19.0201L93.6858 17.461L93.1142 16.8894L91.815 15.5902L91.2433 15.0706L89.6843 13.5115L89.1127 12.9399L83.9678 7.79513C83.656 7.48332 83.1363 7.58726 82.9285 7.95103C82.2009 9.61399 81.7852 11.4848 81.7852 13.4596C81.7852 16.8374 83.0324 19.9035 85.0591 22.242C85.4229 22.6578 86.1505 22.3979 86.1505 21.8263V17.2012C86.1505 17.0453 86.2024 16.8894 86.3583 16.7855L88.6449 14.4989C88.9048 14.2391 89.3205 14.2391 89.5284 14.4989L90.256 15.2265C90.5158 15.4863 90.5158 15.902 90.256 16.1099L88.593 17.7209C88.489 17.8248 88.3851 17.9807 88.3851 18.1366V21.1507C88.3851 21.7224 89.0607 21.9822 89.4764 21.5665L92.6465 18.3965C92.9063 18.1366 93.3221 18.1366 93.5299 18.3965L94.2575 19.124C94.5173 19.3838 94.5173 19.7996 94.2575 20.0074L89.5804 24.6845C89.2686 24.9963 89.3725 25.516 89.7363 25.7239C91.3993 26.5034 93.2701 26.8671 95.2449 26.8671C98.6228 26.8671 101.689 25.6199 104.027 23.5932C104.443 23.2294 104.183 22.5019 103.612 22.5019H98.9866C98.8307 22.5019 98.6748 22.4499 98.5708 22.294L95.8165 19.5917Z" fill="#186AB4"/>
<path d="M119.937 19.2148C118.861 19.2148 117.885 18.9842 117.01 18.523C116.145 18.0518 115.461 17.4051 114.958 16.5829C114.466 15.7508 114.219 14.8133 114.219 13.7706C114.219 12.7279 114.466 11.7954 114.958 10.9733C115.461 10.1411 116.145 9.49443 117.01 9.03323C117.885 8.562 118.866 8.32639 119.952 8.32639C120.867 8.32639 121.692 8.4868 122.426 8.80764C123.171 9.12848 123.794 9.58968 124.297 10.1913L122.728 11.635C122.014 10.8129 121.129 10.4018 120.073 10.4018C119.419 10.4018 118.836 10.5472 118.323 10.8379C117.81 11.1187 117.408 11.5147 117.116 12.026C116.834 12.5374 116.693 13.1189 116.693 13.7706C116.693 14.4223 116.834 15.0038 117.116 15.5151C117.408 16.0265 117.81 16.4275 118.323 16.7183C118.836 16.999 119.419 17.1394 120.073 17.1394C121.129 17.1394 122.014 16.7233 122.728 15.8911L124.297 17.3349C123.794 17.9465 123.171 18.4127 122.426 18.7336C121.682 19.0544 120.852 19.2148 119.937 19.2148ZM137.897 8.50686V19.0343H135.453V14.7181H130.655V19.0343H128.211V8.50686H130.655V12.6577H135.453V8.50686H137.897ZM149.614 16.7784H144.71L143.775 19.0343H141.27L145.978 8.50686H148.392L153.114 19.0343H150.549L149.614 16.7784ZM148.844 14.9286L147.17 10.8981L145.495 14.9286H148.844ZM166.159 8.50686V19.0343H164.152L158.887 12.6427V19.0343H156.473V8.50686H158.494L163.745 14.8985V8.50686H166.159ZM178.057 13.6052H180.289V17.8763C179.716 18.3074 179.052 18.6383 178.298 18.8689C177.544 19.0995 176.784 19.2148 176.02 19.2148C174.923 19.2148 173.938 18.9842 173.063 18.523C172.188 18.0518 171.499 17.4051 170.996 16.5829C170.503 15.7508 170.257 14.8133 170.257 13.7706C170.257 12.7279 170.503 11.7954 170.996 10.9733C171.499 10.1411 172.193 9.49443 173.078 9.03323C173.963 8.562 174.959 8.32639 176.065 8.32639C176.99 8.32639 177.83 8.48179 178.585 8.7926C179.339 9.10341 179.973 9.55459 180.486 10.1461L178.917 11.5899C178.162 10.7978 177.252 10.4018 176.186 10.4018C175.512 10.4018 174.913 10.5422 174.39 10.8229C173.867 11.1036 173.46 11.4997 173.168 12.011C172.877 12.5223 172.731 13.1089 172.731 13.7706C172.731 14.4223 172.877 15.0038 173.168 15.5151C173.46 16.0265 173.862 16.4275 174.375 16.7183C174.898 16.999 175.492 17.1394 176.156 17.1394C176.86 17.1394 177.493 16.989 178.057 16.6882V13.6052ZM193 17.0792V19.0343H184.823V8.50686H192.804V10.462H187.252V12.7479H192.155V14.6429H187.252V17.0792H193Z" fill="#186AB4"/>
<path d="M7.81181 13.6052H10.0481V17.8763C9.4739 18.3074 8.80907 18.6383 8.05357 18.8689C7.29808 19.0995 6.53755 19.2148 5.77198 19.2148C4.67399 19.2148 3.68681 18.9842 2.81044 18.523C1.93407 18.0518 1.24405 17.4051 0.740385 16.5829C0.246795 15.7508 0 14.8133 0 13.7706C0 12.7279 0.246795 11.7954 0.740385 10.9733C1.24405 10.1411 1.9391 9.49443 2.82555 9.03323C3.712 8.562 4.70925 8.32639 5.81731 8.32639C6.74405 8.32639 7.58517 8.48179 8.34066 8.7926C9.09616 9.10341 9.73077 9.55459 10.2445 10.1461L8.67308 11.5899C7.91758 10.7978 7.00595 10.4018 5.93819 10.4018C5.26328 10.4018 4.66392 10.5422 4.14011 10.8229C3.6163 11.1036 3.20833 11.4997 2.91621 12.011C2.62408 12.5223 2.47802 13.1089 2.47802 13.7706C2.47802 14.4223 2.62408 15.0038 2.91621 15.5151C3.20833 16.0265 3.61126 16.4275 4.125 16.7183C4.64881 16.999 5.24313 17.1394 5.90797 17.1394C6.6131 17.1394 7.24771 16.989 7.81181 16.6882V13.6052ZM14.5884 8.50686H17.0362V17.0492H22.3398V19.0343H14.5884V8.50686ZM30.9191 19.2148C29.8211 19.2148 28.8289 18.9792 27.9424 18.508C27.066 18.0367 26.376 17.39 25.8724 16.5679C25.3788 15.7357 25.132 14.8033 25.132 13.7706C25.132 12.7379 25.3788 11.8105 25.8724 10.9883C26.376 10.1562 27.066 9.50446 27.9424 9.03323C28.8289 8.562 29.8211 8.32639 30.9191 8.32639C32.0171 8.32639 33.0042 8.562 33.8806 9.03323C34.757 9.50446 35.447 10.1562 35.9507 10.9883C36.4543 11.8105 36.7062 12.7379 36.7062 13.7706C36.7062 14.8033 36.4543 15.7357 35.9507 16.5679C35.447 17.39 34.757 18.0367 33.8806 18.508C33.0042 18.9792 32.0171 19.2148 30.9191 19.2148ZM30.9191 17.1394C31.5436 17.1394 32.1077 16.999 32.6114 16.7183C33.115 16.4275 33.5079 16.0265 33.7899 15.5151C34.0821 15.0038 34.2281 14.4223 34.2281 13.7706C34.2281 13.1189 34.0821 12.5374 33.7899 12.026C33.5079 11.5147 33.115 11.1187 32.6114 10.8379C32.1077 10.5472 31.5436 10.4018 30.9191 10.4018C30.2945 10.4018 29.7304 10.5472 29.2268 10.8379C28.7231 11.1187 28.3252 11.5147 28.0331 12.026C27.751 12.5374 27.61 13.1189 27.61 13.7706C27.61 14.4223 27.751 15.0038 28.0331 15.5151C28.3252 16.0265 28.7231 16.4275 29.2268 16.7183C29.7304 16.999 30.2945 17.1394 30.9191 17.1394ZM48.5788 13.56C49.1832 13.7505 49.6566 14.0714 49.9991 14.5226C50.3416 14.9637 50.5129 15.5101 50.5129 16.1618C50.5129 17.0842 50.1502 17.7961 49.425 18.2974C48.7098 18.7887 47.6621 19.0343 46.2821 19.0343H40.8123V8.50686H45.9799C47.2693 8.50686 48.2565 8.7525 48.9414 9.24378C49.6365 9.73506 49.984 10.4018 49.984 11.244C49.984 11.7553 49.8581 12.2115 49.6063 12.6126C49.3645 13.0136 49.022 13.3294 48.5788 13.56ZM43.245 10.3416V12.8231H45.6777C46.2821 12.8231 46.7404 12.7178 47.0527 12.5073C47.365 12.2967 47.5211 11.9859 47.5211 11.5749C47.5211 11.1638 47.365 10.858 47.0527 10.6575C46.7404 10.4469 46.2821 10.3416 45.6777 10.3416H43.245ZM46.1008 17.1995C46.7455 17.1995 47.229 17.0943 47.5513 16.8837C47.8838 16.6732 48.05 16.3473 48.05 15.9062C48.05 15.0339 47.4002 14.5978 46.1008 14.5978H43.245V17.1995H46.1008ZM61.5982 16.7784H56.6875L55.7507 19.0343H53.2424L57.9567 8.50686H60.3743L65.1037 19.0343H62.535L61.5982 16.7784ZM60.8276 14.9286L59.1504 10.8981L57.4732 14.9286H60.8276ZM68.4676 8.50686H70.9154V17.0492H76.2189V19.0343H68.4676V8.50686Z" fill="#186AB4"/>
</svg>
