<svg width="21" height="20" viewBox="0 0 21 20" fill="none" xmlns="http://www.w3.org/2000/svg">
<path d="M10.0851 13.3006C10.0851 13.2035 10.0064 13.1248 9.90926 13.1248C9.81213 13.1248 9.7334 13.2035 9.7334 13.3006C9.7334 13.3977 9.81213 13.4765 9.90926 13.4765C10.0064 13.4765 10.0851 13.3977 10.0851 13.3006Z" fill="#25B7D3"/>
<path d="M9.95621 13.3795C9.95523 13.3781 9.95334 13.3776 9.95176 13.3783C9.93434 13.3866 9.91456 13.3953 9.91068 13.3961C9.91058 13.396 9.91043 13.3958 9.91022 13.3955C9.9097 13.3948 9.90944 13.3939 9.90944 13.3927C9.90944 13.3828 9.91688 13.3529 9.93155 13.3036C9.94392 13.2622 9.94535 13.2536 9.94535 13.2508C9.94535 13.2464 9.94367 13.2427 9.94049 13.24C9.93746 13.2375 9.93324 13.2363 9.92793 13.2363C9.9191 13.2363 9.90886 13.2396 9.89663 13.2465C9.88479 13.2532 9.87157 13.2645 9.85737 13.2802C9.85625 13.2814 9.85614 13.2832 9.85709 13.2846C9.85804 13.286 9.8598 13.2865 9.86133 13.2858C9.86632 13.2838 9.89139 13.2735 9.89504 13.2712C9.89803 13.2694 9.90062 13.2684 9.90274 13.2684C9.90281 13.2684 9.90288 13.2684 9.90293 13.2684C9.90296 13.2686 9.90298 13.2688 9.90298 13.2691C9.90298 13.2712 9.90254 13.2738 9.90167 13.2767C9.88031 13.3459 9.86992 13.3883 9.86992 13.4064C9.86992 13.4128 9.87169 13.4179 9.87519 13.4217C9.87875 13.4255 9.88356 13.4274 9.88947 13.4274C9.89577 13.4274 9.90344 13.4248 9.91292 13.4194C9.92209 13.4141 9.93609 13.4026 9.95571 13.3841C9.95698 13.3829 9.95719 13.381 9.95621 13.3795Z" fill="white"/>
<path d="M9.95543 13.1791C9.95194 13.1755 9.94747 13.1737 9.94215 13.1737C9.93553 13.1737 9.92976 13.1763 9.92501 13.1815C9.92034 13.1865 9.91797 13.1928 9.91797 13.2C9.91797 13.2057 9.91971 13.2104 9.92316 13.214C9.92665 13.2177 9.93105 13.2195 9.93625 13.2195C9.9426 13.2195 9.94834 13.2167 9.9533 13.2113C9.95817 13.2059 9.96065 13.1997 9.96065 13.1926C9.96065 13.1872 9.95889 13.1826 9.95543 13.1791Z" fill="white"/>
<path d="M0.220703 15.9556L7.05379 19.9008L20.72 12.0105L20.72 4.09582L13.8868 0.150757L0.220703 8.06547V15.9556Z" fill="#2DB357"/>
<path d="M0.220703 8.06538L7.05379 12.0104L20.72 4.09573L20.72 12.0104L7.05379 19.9007L0.220703 15.9555V8.06538Z" fill="#0E834C"/>
<path d="M7.05371 19.9006V12.0104L20.7199 4.0957L20.7199 12.0104L7.05371 19.9006Z" fill="#1A4541"/>
<path d="M13.8866 1.05396L1.92871 7.91845L7.11614 10.8782L19.074 4.01386L13.8866 1.05396ZM7.11522 10.2087L3.09848 7.91687L13.8875 1.72348L17.9042 4.01535L7.11522 10.2087Z" fill="white"/>
<path d="M10.668 7.0726C11.9058 7.0726 12.9092 6.50283 12.9092 5.79997C12.9092 5.09712 11.9058 4.52734 10.668 4.52734C9.43019 4.52734 8.42676 5.09712 8.42676 5.79997C8.42676 6.50283 9.43019 7.0726 10.668 7.0726Z" fill="white"/>
<path d="M14.1356 4.46521C14.6705 4.46521 15.1042 4.219 15.1042 3.91528C15.1042 3.61157 14.6705 3.36536 14.1356 3.36536C13.6006 3.36536 13.167 3.61157 13.167 3.91528C13.167 4.219 13.6006 4.46521 14.1356 4.46521Z" fill="#5EE1EB"/>
<path d="M7.05356 8.50802C7.58851 8.50802 8.02216 8.26177 8.02216 7.958C8.02216 7.65424 7.58851 7.40799 7.05356 7.40799C6.51862 7.40799 6.08496 7.65424 6.08496 7.958C6.08496 8.26177 6.51862 8.50802 7.05356 8.50802Z" fill="#5EE1EB"/>
<path d="M0.220703 9.07947V9.2724L7.05331 13.3188L7.05379 13.126L0.220703 9.07947Z" fill="#2DB357"/>
<path d="M0.220703 10.1389V10.3319L7.05331 14.3782L7.05379 14.1855L0.220703 10.1389Z" fill="#2DB357"/>
<path d="M0.220703 11.1985V11.3914L7.05331 15.4379L7.05379 15.2451L0.220703 11.1985Z" fill="#2DB357"/>
<path d="M0.220703 12.258V12.451L7.05331 16.4974L7.05379 16.3047L0.220703 12.258Z" fill="#2DB357"/>
<path d="M0.220703 13.3176V13.5105L7.05331 17.5569L7.05379 17.3642L0.220703 13.3176Z" fill="#2DB357"/>
<path d="M0.220703 14.3771V14.5701L7.05331 18.6165L7.05379 18.4238L0.220703 14.3771Z" fill="#2DB357"/>
<path d="M20.7209 5.198L7.05513 13.1264L7.05469 13.3187L20.7209 5.38983V5.198Z" fill="#0E834C"/>
<path d="M20.7209 6.25757L7.05513 14.186L7.05469 14.3782L20.7209 6.4494V6.25757Z" fill="#0E834C"/>
<path d="M20.7209 7.31714L7.05513 15.2456L7.05469 15.4379L20.7209 7.50898V7.31714Z" fill="#0E834C"/>
<path d="M20.7209 8.37656L7.05513 16.3051L7.05469 16.4973L20.7209 8.56844V8.37656Z" fill="#0E834C"/>
<path d="M7.05513 17.3647L7.05469 17.5568L20.7209 9.62806V9.4361L7.05513 17.3647Z" fill="#0E834C"/>
<path d="M7.05513 18.4243L7.05469 18.6164L20.7209 10.6876V10.4957L7.05513 18.4243Z" fill="#0E834C"/>
</svg>
