<svg width="27" height="27" viewBox="0 0 27 27" fill="none" xmlns="http://www.w3.org/2000/svg">
<path d="M0.601135 9.0525H6.27897V26.1349H0.601135V9.0525Z" fill="#4B2A91"/>
<path d="M3.47793 0.817444C1.53574 0.817444 0.265869 2.09277 0.265869 3.76902C0.265869 5.40829 1.49795 6.71999 3.40336 6.71999H3.44034C5.42052 6.71999 6.6528 5.40829 6.6528 3.76902C6.61582 2.09277 5.42052 0.817444 3.47793 0.817444Z" fill="#4B2A91"/>
<path d="M20.2157 8.65148C17.2031 8.65148 15.8533 10.3071 15.0987 11.4713V9.05241H9.42065V26.1348H15.0985V16.5952C15.0985 16.0846 15.1355 15.5747 15.2854 15.2096C15.6958 14.1897 16.63 13.1332 18.1986 13.1332C20.2531 13.1332 21.075 14.6997 21.075 16.9962V26.1348H26.7524V16.34C26.7524 11.093 23.9512 8.65148 20.2157 8.65148Z" fill="#4B2A91"/>
</svg>
