<svg width="26" height="20" viewBox="0 0 26 20" fill="none" xmlns="http://www.w3.org/2000/svg">
<path d="M25.32 4.95587L22.3014 6.6113L19.2828 9.47067V19.2828H23.5088C24.5092 19.2828 25.32 18.4744 25.32 17.4769V4.95587Z" fill="#4B2A91"/>
<path d="M0 4.95587L2.18183 5.98525L6.03715 9.47067V19.2828H1.81115C0.81079 19.2828 0 18.4744 0 17.4769V4.95587Z" fill="#4B2A91"/>
<path d="M19.266 1.93729L12.6375 6.89913L6.00902 1.93729L5.40643 5.42561L6.00902 9.45523L12.6375 14.4171L19.266 9.45523L19.8686 5.42561L19.266 1.93729Z" fill="#4B2A91"/>
<path d="M0 2.59008V4.94152L6.03715 9.46121V1.9284L4.15115 0.517655C3.70198 0.18139 3.15622 0 2.59477 0C1.16155 0 0 1.15945 0 2.59008Z" fill="#4B2A91"/>
<path d="M25.32 2.59008V4.94152L19.2828 9.46121V1.9284L21.1688 0.517655C21.618 0.18139 22.1638 0 22.7252 0C24.1584 0 25.32 1.15945 25.32 2.59008Z" fill="#4B2A91"/>
</svg>
