<svg width="19" height="19" viewBox="0 0 19 19" fill="none" xmlns="http://www.w3.org/2000/svg">
<path d="M7.4209 13.1116L12.8209 9.0616L7.4209 5.0116V13.1116Z" fill="black"/>
<path d="M9.2207 0.0615234C4.24822 0.0615234 0.220703 4.08904 0.220703 9.06152C0.220703 14.034 4.24822 18.0615 9.2207 18.0615C14.1932 18.0615 18.2207 14.034 18.2207 9.06152C18.2207 4.089 14.1932 0.0615234 9.2207 0.0615234ZM9.2207 16.2615C5.2517 16.2615 2.02068 13.0305 2.02068 9.06152C2.02068 5.09252 5.2517 1.86154 9.2207 1.86154C13.1897 1.86154 16.4207 5.09252 16.4207 9.06152C16.4207 13.0305 13.1897 16.2615 9.2207 16.2615Z" fill="black"/>
</svg>
