<svg width="22" height="17" viewBox="0 0 22 17" fill="none" xmlns="http://www.w3.org/2000/svg">
<path d="M3.69657 3.81311C3.69657 3.81311 3.53203 14.2324 3.61356 15.7956C3.61356 15.7956 2.27548 8.2271 1.97482 4.71003C1.96273 4.56859 2.04382 4.4365 2.17572 4.38412C2.48901 4.25964 3.09279 4.02422 3.69657 3.81311Z" fill="#CCCCCC"/>
<path d="M3.96491 2.2883C5.27129 1.89518 12.3377 -0.0879649 20.5626 0.362733C20.7739 0.37433 20.9362 0.555442 20.924 0.766642C20.8223 2.54073 20.4107 10.0385 20.5334 13.2522C20.5413 13.4585 20.3866 13.634 20.1806 13.6495C18.2092 13.7978 8.84652 14.5475 3.70181 15.7618C3.62883 15.779 3.5606 15.7251 3.56055 15.6501C3.56037 14.4658 3.56561 6.34982 3.73826 2.57861C3.74448 2.44326 3.83511 2.32734 3.96491 2.2883Z" fill="white"/>
<path d="M6.60645 15.242C11.4812 14.5198 18.7106 13.7601 20.1801 13.6495C20.386 13.634 20.5408 13.4585 20.5329 13.2522C20.4102 10.0385 20.8217 2.54073 20.9235 0.766685C20.9356 0.55544 20.7733 0.374328 20.562 0.362776C19.999 0.331927 17.8286 0.313435 17.2779 0.304077C16.9514 4.16582 15.8782 12.8385 6.60645 15.242Z" fill="#CCCCCC"/>
<path d="M6.43798 14.3402L5.98535 13.9575L8.13443 11.4162L9.30801 12.5601L10.4094 11.1888L10.9896 11.6981L11.7319 10.7722L12.196 11.1409L11.0663 12.5541L10.4829 12.0419L9.36071 13.4392L8.17629 12.2846L6.43798 14.3402Z" fill="#359FB5"/>
<path d="M12.4529 11.7952L11.04 10.5939L12.5298 10.246L12.4529 11.7952Z" fill="#359FB5"/>
<path d="M18.7756 1.69543C18.7745 1.69543 18.7744 1.69543 18.7733 1.69543C12.3021 1.69543 6.04137 3.08827 5.97887 3.10238L5.76758 3.14997V5.86867L6.09398 5.80016C11.327 4.70207 18.4844 4.34258 18.5561 4.33909L18.7865 4.3279L19.078 1.69548H18.7756V1.69543Z" fill="#359FB5"/>
<path d="M18.7728 1.69556C18.2241 1.69556 17.6773 1.70626 17.1352 1.72462C17.0356 2.54846 16.8897 3.47932 16.6592 4.46055C17.8064 4.37682 18.5331 4.34029 18.5556 4.33921L18.7861 4.32802L19.0776 1.6956H18.7752C18.774 1.69556 18.774 1.69556 18.7728 1.69556Z" fill="#0B7A8F"/>
<path d="M3.41942 15.9728C3.49272 16.0309 3.58195 16.0615 3.67352 16.0615C3.70544 16.0615 3.73759 16.0578 3.76951 16.0503C8.91139 14.8367 18.3606 14.0836 20.2025 13.945C20.5679 13.9176 20.8432 13.6084 20.8293 13.2409C20.7057 10.0066 21.1328 2.29637 21.2196 0.783489C21.2299 0.602288 21.1689 0.427981 21.0478 0.292539C20.9266 0.156918 20.7598 0.0767716 20.5784 0.066787C12.3172 -0.386508 5.21836 1.60147 3.87925 2.0044H3.87916C3.6295 2.07966 3.45385 2.30488 3.44199 2.56497C3.42744 2.88255 3.41418 3.23197 3.40192 3.60315C2.86091 3.79671 2.3439 3.99851 2.06683 4.10856C1.81198 4.20966 1.65648 4.46152 1.68003 4.73509C1.70125 4.98341 1.72821 5.25407 1.75901 5.53928C1.28378 5.81491 0.782663 6.1256 0.509182 6.29731C0.280743 6.44077 0.172882 6.71326 0.240804 6.97555C0.899121 9.5143 2.87349 14.6596 3.26679 15.676C3.27404 15.7926 3.32746 15.9 3.41942 15.9728ZM13.0823 14.0143C10.6215 14.2872 7.9312 14.6374 5.64941 15.0569C5.65509 14.2512 5.69302 12.1593 5.91975 9.72071C5.92293 9.6861 5.95007 9.65802 5.98441 9.65377C6.94849 9.53615 10.3152 9.12731 13.1586 8.80637C13.1865 8.80355 13.206 8.81506 13.2173 8.82558C13.2286 8.83619 13.2418 8.85482 13.2404 8.8833C13.1953 9.82835 13.093 12.1546 13.0823 14.0143ZM4.04993 2.57213C5.37261 2.17413 12.3846 0.212259 20.5459 0.658614C20.5772 0.66036 20.597 0.677508 20.606 0.687538C20.6168 0.699761 20.6295 0.720447 20.6278 0.74964C20.5408 2.26718 20.1123 10.0023 20.237 13.2634C20.2388 13.3108 20.2042 13.3505 20.1581 13.354C19.2839 13.4197 16.7017 13.6237 13.6752 13.9494C13.6879 12.113 13.788 9.84115 13.8323 8.91159C13.8417 8.71584 13.7653 8.52685 13.6226 8.39315C13.4801 8.25959 13.2876 8.19579 13.0921 8.21728C10.2462 8.53853 6.87725 8.94764 5.91268 9.0653C5.6036 9.10291 5.35837 9.35544 5.32954 9.66582C5.0891 12.2522 5.05901 14.4531 5.05606 15.1692C4.65349 15.2481 4.26539 15.329 3.89797 15.4124C3.84858 13.0428 3.99173 3.91559 3.99325 3.81771L3.99817 3.5042C4.00923 3.18026 4.0211 2.87324 4.03395 2.5921C4.03431 2.58257 4.04049 2.57482 4.04993 2.57204V2.57213ZM2.28547 4.65951C2.52103 4.56598 2.93246 4.4051 3.38244 4.24047C3.31832 6.52539 3.28873 9.47508 3.27516 11.8387C2.87761 9.22009 2.44822 6.23176 2.37654 5.73159C2.33396 5.35526 2.2976 5.00168 2.27051 4.68454C2.26953 4.67321 2.27521 4.66354 2.28547 4.65951Z" fill="#606060"/>
<path d="M19.08 6.48294L19.061 5.89062C11.5739 6.13062 5.44193 7.24858 5.38086 7.25991L5.48832 7.84274C5.54903 7.83155 11.6396 6.7215 19.08 6.48294Z" fill="#606060"/>
<path d="M14.918 11.9403L14.9396 12.2358L14.9612 12.5315C14.9902 12.5293 17.8748 12.3187 18.9366 12.2573L18.9022 11.6655C17.8361 11.7273 14.947 11.9382 14.918 11.9403Z" fill="#606060"/>
<path d="M14.918 10.1457L14.9396 10.4413L14.9612 10.7369C14.9902 10.7347 17.8748 10.5241 18.9366 10.4627L18.9022 9.87097C17.8361 9.93272 14.947 10.1436 14.918 10.1457Z" fill="#606060"/>
<path d="M18.9825 7.93909C17.9161 8.00092 16.7142 8.09087 16.7021 8.09181L16.7465 8.68274C16.7585 8.68185 17.9555 8.59234 19.0168 8.53078L18.9997 8.235L18.9825 7.93909Z" fill="#606060"/>
</svg>
