<svg width="22" height="22" viewBox="0 0 22 22" fill="none" xmlns="http://www.w3.org/2000/svg">
<path d="M0.570312 3.65146V19.0515H14.5703V0.501465H3.72031L0.570312 3.65146Z" fill="#9BFBFF"/>
<path d="M0.570312 3.65146H3.72031V0.501465" fill="#00D7DF"/>
<path d="M12.8205 20.8015C12.542 20.8015 12.275 20.6908 12.078 20.4939C11.8811 20.297 11.7705 20.0299 11.7705 19.7515V11.0015H13.8705V19.7515C13.8705 20.0299 13.7599 20.297 13.563 20.4939C13.3661 20.6908 13.099 20.8015 12.8205 20.8015Z" fill="#7E543B"/>
<path d="M11.7709 14.1515H10.3709C9.9843 14.1515 9.6709 14.4649 9.6709 14.8515C9.6709 15.2381 9.9843 15.5515 10.3709 15.5515H11.7709C12.1575 15.5515 12.4709 15.2381 12.4709 14.8515C12.4709 14.4649 12.1575 14.1515 11.7709 14.1515Z" fill="#FFCBBE"/>
<path d="M11.4213 15.5515H10.0213C9.63469 15.5515 9.32129 15.8649 9.32129 16.2515C9.32129 16.6381 9.63469 16.9515 10.0213 16.9515H11.4213C11.8079 16.9515 12.1213 16.6381 12.1213 16.2515C12.1213 15.8649 11.8079 15.5515 11.4213 15.5515Z" fill="#FFCBBE"/>
<path d="M11.7709 16.9515H10.3709C9.9843 16.9515 9.6709 17.2649 9.6709 17.6515C9.6709 18.0381 9.9843 18.3515 10.3709 18.3515H11.7709C12.1575 18.3515 12.4709 18.0381 12.4709 17.6515C12.4709 17.2649 12.1575 16.9515 11.7709 16.9515Z" fill="#FFCBBE"/>
<path d="M12.1215 18.3514H10.7215C10.3349 18.3514 10.0215 18.6648 10.0215 19.0514C10.0215 19.438 10.3349 19.7514 10.7215 19.7514H12.1215C12.5081 19.7514 12.8215 19.438 12.8215 19.0514C12.8215 18.6648 12.5081 18.3514 12.1215 18.3514Z" fill="#FFCBBE"/>
<path d="M12.8203 12.7515C15.7198 12.7515 18.0703 10.401 18.0703 7.50146C18.0703 4.60197 15.7198 2.25146 12.8203 2.25146C9.92082 2.25146 7.57031 4.60197 7.57031 7.50146C7.57031 10.401 9.92082 12.7515 12.8203 12.7515Z" fill="#E9E9EA"/>
<path d="M12.8211 11.7015C15.1407 11.7015 17.0211 9.82111 17.0211 7.50151C17.0211 5.18192 15.1407 3.30151 12.8211 3.30151C10.5015 3.30151 8.62109 5.18192 8.62109 7.50151C8.62109 9.82111 10.5015 11.7015 12.8211 11.7015Z" fill="#2488FF"/>
<path d="M13.8711 19.4015H15.9711L17.3711 18.3515H18.4211V14.1515H16.6711L15.6211 12.7515H14.5711" fill="#FFDDCE"/>
<path d="M14.9211 15.5515L13.1711 14.5015H11.2461C11.014 14.5015 10.7915 14.4093 10.6274 14.2452C10.4633 14.0811 10.3711 13.8585 10.3711 13.6265C10.3711 13.3944 10.4633 13.1718 10.6274 13.0077C10.7915 12.8437 11.014 12.7515 11.2461 12.7515H14.9211" fill="#FFDDCE"/>
<path d="M18.4209 13.4515H20.8709V19.0515H18.4209V13.4515Z" fill="#365E7D"/>
<path d="M11.4207 6.80149C11.8073 6.80149 12.1207 6.48809 12.1207 6.10149C12.1207 5.71489 11.8073 5.40149 11.4207 5.40149C11.0341 5.40149 10.7207 5.71489 10.7207 6.10149C10.7207 6.48809 11.0341 6.80149 11.4207 6.80149Z" fill="#F9F7F8"/>
<path d="M14.2205 9.25144C14.6071 9.25144 14.9205 8.93804 14.9205 8.55144C14.9205 8.16484 14.6071 7.85144 14.2205 7.85144C13.8339 7.85144 13.5205 8.16484 13.5205 8.55144C13.5205 8.93804 13.8339 9.25144 14.2205 9.25144Z" fill="#F9F7F8"/>
<path d="M4.07031 12.0515H8.62031V12.7515H4.07031V12.0515Z" fill="black"/>
<path d="M1.9707 5.05148H3.3707V5.75148H1.9707V5.05148Z" fill="black"/>
<path d="M1.9707 6.80148H3.3707V7.50148H1.9707V6.80148Z" fill="black"/>
<path d="M1.9707 8.55148H3.3707V9.25148H1.9707V8.55148Z" fill="black"/>
<path d="M1.9707 10.3015H3.3707V11.0015H1.9707V10.3015Z" fill="black"/>
<path d="M4.07031 13.8015H8.62031V14.5015H4.07031V13.8015Z" fill="black"/>
<path d="M4.07031 15.5515H8.62031V16.2515H4.07031V15.5515Z" fill="black"/>
<path d="M1.9707 12.0515H3.3707V12.7515H1.9707V12.0515Z" fill="black"/>
<path d="M1.9707 13.8015H3.3707V14.5015H1.9707V13.8015Z" fill="black"/>
<path d="M1.9707 15.5515H3.3707V16.2515H1.9707V15.5515Z" fill="black"/>
<path d="M8.27051 7.50154C8.27051 8.40144 8.53736 9.28114 9.03732 10.0294C9.53728 10.7776 10.2479 11.3608 11.0793 11.7052C11.9107 12.0496 12.8256 12.1397 13.7082 11.9641C14.5908 11.7885 15.4015 11.3552 16.0378 10.7189C16.6742 10.0825 17.1075 9.27181 17.2831 8.3892C17.4586 7.50659 17.3685 6.59173 17.0242 5.76033C16.6798 4.92893 16.0966 4.21831 15.3484 3.71835C14.6001 3.21839 13.7204 2.95154 12.8205 2.95154C11.6142 2.95293 10.4577 3.43275 9.60471 4.28574C8.75172 5.13873 8.2719 6.29523 8.27051 7.50154ZM16.6705 7.50154C16.6705 8.263 16.4447 9.00735 16.0217 9.64048C15.5986 10.2736 14.9973 10.7671 14.2938 11.0585C13.5903 11.3499 12.8162 11.4261 12.0694 11.2776C11.3226 11.129 10.6366 10.7623 10.0981 10.2239C9.55971 9.68547 9.19304 8.99946 9.04448 8.25264C8.89593 7.50581 8.97217 6.7317 9.26357 6.02821C9.55497 5.32471 10.0484 4.72342 10.6816 4.30038C11.3147 3.87734 12.0591 3.65154 12.8205 3.65154C13.8412 3.65274 14.8198 4.05875 15.5415 4.78051C16.2633 5.50226 16.6693 6.48082 16.6705 7.50154Z" fill="black"/>
<path d="M20.8707 13.1015H18.4207C18.3279 13.1015 18.2389 13.1384 18.1732 13.204C18.1076 13.2696 18.0707 13.3587 18.0707 13.4515V13.8015H16.8457L15.9007 12.5415C15.8678 12.4983 15.8255 12.4632 15.777 12.4389C15.7284 12.4147 15.675 12.4019 15.6207 12.4015H15.5262C16.4528 11.891 17.2156 11.1282 17.7262 10.2016C18.2368 9.27504 18.4741 8.22269 18.4108 7.16666C18.3474 6.11064 17.9858 5.09423 17.3681 4.23539C16.7503 3.37655 15.9017 2.71049 14.9207 2.31449V0.501489C14.9207 0.408663 14.8838 0.31964 14.8182 0.254002C14.7526 0.188364 14.6635 0.151489 14.5707 0.151489H3.7207C3.62791 0.15218 3.53894 0.188521 3.4722 0.252989L0.322203 3.40299C0.257735 3.46973 0.221394 3.5587 0.220703 3.65149V19.0515C0.220703 19.1443 0.257578 19.2333 0.323216 19.299C0.388853 19.3646 0.477877 19.4015 0.570703 19.4015H9.7337C9.80635 19.6054 9.94007 19.7821 10.1167 19.9073C10.2933 20.0326 10.5042 20.1004 10.7207 20.1015H11.4697C11.5545 20.4311 11.7568 20.7185 12.0384 20.9096C12.3201 21.1008 12.6619 21.1825 12.9995 21.1396C13.3372 21.0966 13.6476 20.9319 13.8724 20.6763C14.0973 20.4207 14.2211 20.0919 14.2207 19.7515H15.9707C16.0465 19.7519 16.1203 19.7273 16.1807 19.6815L17.4862 18.7015H18.0707V19.0515C18.0707 19.1443 18.1076 19.2333 18.1732 19.299C18.2389 19.3646 18.3279 19.4015 18.4207 19.4015H20.8707C20.9635 19.4015 21.0526 19.3646 21.1182 19.299C21.1838 19.2333 21.2207 19.1443 21.2207 19.0515V13.4515C21.2207 13.3587 21.1838 13.2696 21.1182 13.204C21.0526 13.1384 20.9635 13.1015 20.8707 13.1015ZM17.7207 7.50149C17.7207 8.47062 17.4333 9.41798 16.8949 10.2238C16.3565 11.0296 15.5912 11.6576 14.6959 12.0285C13.8005 12.3994 12.8153 12.4964 11.8648 12.3073C10.9143 12.1183 10.0412 11.6516 9.35588 10.9663C8.6706 10.281 8.20392 9.40794 8.01486 8.45743C7.82579 7.50692 7.92282 6.5217 8.29369 5.62634C8.66456 4.73098 9.29261 3.96571 10.0984 3.42729C10.9042 2.88887 11.8516 2.60149 12.8207 2.60149C14.1198 2.60288 15.3654 3.11957 16.284 4.0382C17.2026 4.95683 17.7193 6.20235 17.7207 7.50149ZM3.3707 1.34499V3.30149H1.4142L3.3707 1.34499ZM9.7337 18.7015H0.920703V4.00149H3.7207C3.81353 4.00149 3.90255 3.96461 3.96819 3.89898C4.03383 3.83334 4.0707 3.74431 4.0707 3.65149V0.851489H14.2207V2.08699C13.7641 1.96466 13.2934 1.9023 12.8207 1.90149C11.7716 1.90333 10.7441 2.19952 9.85495 2.75638C8.96583 3.31324 8.25081 4.10842 7.7912 5.05149H4.0707V5.75149H7.5042C7.39195 6.09299 7.3134 6.44467 7.2697 6.80149H4.0707V7.50149H7.2207C7.22225 7.85386 7.25622 8.20535 7.3222 8.55149H4.0707V9.25149H7.5042C7.62646 9.61631 7.78474 9.96804 7.9767 10.3015H4.0707V11.0015H8.4562C9.01682 11.6992 9.73545 12.2535 10.5527 12.6185C10.3885 12.7303 10.2541 12.8806 10.1614 13.0563C10.0686 13.232 10.0203 13.4278 10.0207 13.6265C10.0216 13.7041 10.0298 13.7814 10.0452 13.8575C9.89708 13.9042 9.76135 13.9837 9.64806 14.0899C9.53478 14.1962 9.44682 14.3265 9.3907 14.4714C9.33458 14.6162 9.31174 14.7718 9.32386 14.9267C9.33597 15.0815 9.38274 15.2316 9.4607 15.366C9.31072 15.46 9.18707 15.5906 9.10136 15.7455C9.01566 15.9004 8.97069 16.0745 8.97069 16.2515C8.97069 16.4285 9.01566 16.6026 9.10136 16.7575C9.18707 16.9124 9.31072 17.043 9.4607 17.137C9.36967 17.2932 9.32139 17.4707 9.3207 17.6515C9.3206 17.8285 9.36552 18.0027 9.45124 18.1576C9.53695 18.3125 9.66065 18.443 9.8107 18.537C9.78152 18.5901 9.7558 18.6451 9.7337 18.7015ZM11.2457 14.8515H12.1207C12.1211 14.8982 12.1117 14.9445 12.093 14.9873C12.0743 15.0301 12.0467 15.0685 12.0122 15.1C11.9812 15.1327 11.9437 15.1587 11.9021 15.1762C11.8606 15.1936 11.8158 15.2023 11.7707 15.2015H10.3707C10.2779 15.2015 10.1889 15.1646 10.1232 15.099C10.0576 15.0333 10.0207 14.9443 10.0207 14.8515C10.0203 14.8048 10.0297 14.7585 10.0484 14.7157C10.0671 14.6728 10.0947 14.6344 10.1292 14.603C10.1602 14.5702 10.1977 14.5443 10.2393 14.5268C10.2808 14.5093 10.3256 14.5007 10.3707 14.5015H10.3917C10.6191 14.7262 10.926 14.852 11.2457 14.8515ZM9.6707 16.2515C9.6707 16.1587 9.70758 16.0696 9.77322 16.004C9.83885 15.9384 9.92788 15.9015 10.0207 15.9015H11.4207C11.5135 15.9015 11.6026 15.9384 11.6682 16.004C11.7338 16.0696 11.7707 16.1587 11.7707 16.2515C11.7707 16.3443 11.7338 16.4333 11.6682 16.499C11.6026 16.5646 11.5135 16.6015 11.4207 16.6015H10.0207C9.92788 16.6015 9.83885 16.5646 9.77322 16.499C9.70758 16.4333 9.6707 16.3443 9.6707 16.2515ZM10.0207 17.6515C10.0207 17.5587 10.0576 17.4696 10.1232 17.404C10.1889 17.3384 10.2779 17.3015 10.3707 17.3015H11.7707C11.8635 17.3015 11.9526 17.3384 12.0182 17.404C12.0838 17.4696 12.1207 17.5587 12.1207 17.6515C12.1207 17.7443 12.0838 17.8333 12.0182 17.899C11.9526 17.9646 11.8635 18.0015 11.7707 18.0015H10.3707C10.2779 18.0015 10.1889 17.9646 10.1232 17.899C10.0576 17.8333 10.0207 17.7443 10.0207 17.6515ZM10.7207 19.4015C10.6279 19.4015 10.5389 19.3646 10.4732 19.299C10.4076 19.2333 10.3707 19.1443 10.3707 19.0515C10.3707 18.9587 10.4076 18.8696 10.4732 18.804C10.5389 18.7384 10.6279 18.7015 10.7207 18.7015H12.1207C12.2135 18.7015 12.3026 18.7384 12.3682 18.804C12.4338 18.8696 12.4707 18.9587 12.4707 19.0515C12.4707 19.1443 12.4338 19.2333 12.3682 19.299C12.3026 19.3646 12.2135 19.4015 12.1207 19.4015H10.7207ZM13.5207 19.7515C13.5212 19.9065 13.4702 20.0573 13.3755 20.18C13.2809 20.3028 13.1481 20.3906 12.998 20.4295C12.848 20.4684 12.6892 20.4562 12.5469 20.395C12.4045 20.3337 12.2866 20.2267 12.2117 20.091C12.4303 20.0732 12.6378 19.987 12.8046 19.8446C12.9714 19.7022 13.0892 19.5109 13.1411 19.2978C13.193 19.0847 13.1765 18.8606 13.0938 18.6575C13.0112 18.4543 12.8666 18.2823 12.6807 18.166C12.7717 18.0098 12.82 17.8323 12.8207 17.6515C12.8208 17.4745 12.7759 17.3003 12.6902 17.1454C12.6045 16.9905 12.4808 16.8599 12.3307 16.766C12.4224 16.61 12.4708 16.4324 12.4708 16.2515C12.4708 16.0706 12.4224 15.8929 12.3307 15.737C12.3954 15.6974 12.4553 15.6504 12.5092 15.597C12.6082 15.4998 12.6868 15.3838 12.7403 15.2557C12.7938 15.1277 12.8211 14.9902 12.8207 14.8515H13.0727L13.5207 15.121V19.7515ZM18.0707 18.0015H17.3707C17.2949 18.0011 17.2211 18.0257 17.1607 18.0715L15.8552 19.0515H14.2207V15.541L14.7422 15.8525L15.0992 15.2505L13.3492 14.2005C13.2952 14.1684 13.2335 14.1515 13.1707 14.1515H11.2457C11.1065 14.1515 10.9729 14.0962 10.8745 13.9977C10.776 13.8993 10.7207 13.7657 10.7207 13.6265C10.7207 13.4873 10.776 13.3537 10.8745 13.2553C10.9729 13.1568 11.1065 13.1015 11.2457 13.1015H15.4457L16.3907 14.3615C16.4236 14.4047 16.4659 14.4398 16.5144 14.464C16.563 14.4883 16.6164 14.5011 16.6707 14.5015H18.0707V18.0015ZM20.5207 18.7015H18.7707V13.8015H20.5207V18.7015Z" fill="black"/>
<path d="M10.7988 9.38635L14.3004 4.83425L14.8558 5.26147L11.3542 9.81357L10.7988 9.38635Z" fill="black"/>
<path d="M12.4711 6.10151C12.4711 5.89384 12.4095 5.69084 12.2941 5.51817C12.1788 5.34549 12.0148 5.21091 11.8229 5.13144C11.631 5.05197 11.4199 5.03118 11.2162 5.07169C11.0126 5.1122 10.8255 5.21221 10.6786 5.35905C10.5318 5.5059 10.4318 5.69299 10.3913 5.89667C10.3508 6.10035 10.3715 6.31147 10.451 6.50333C10.5305 6.69519 10.6651 6.85918 10.8377 6.97456C11.0104 7.08993 11.2134 7.15151 11.4211 7.15151C11.6996 7.15151 11.9666 7.04089 12.1636 6.84398C12.3605 6.64706 12.4711 6.37999 12.4711 6.10151ZM11.0711 6.10151C11.0711 6.03229 11.0916 5.96462 11.1301 5.90706C11.1685 5.84951 11.2232 5.80465 11.2872 5.77816C11.3511 5.75167 11.4215 5.74473 11.4894 5.75824C11.5573 5.77174 11.6196 5.80508 11.6686 5.85403C11.7175 5.90297 11.7509 5.96534 11.7644 6.03323C11.7779 6.10113 11.7709 6.1715 11.7445 6.23545C11.718 6.29941 11.6731 6.35407 11.6155 6.39253C11.558 6.43099 11.4903 6.45151 11.4211 6.45151C11.3283 6.45151 11.2392 6.41464 11.1736 6.349C11.108 6.28336 11.0711 6.19434 11.0711 6.10151Z" fill="black"/>
<path d="M13.1709 8.55146C13.1709 8.75914 13.2325 8.96214 13.3479 9.13481C13.4632 9.30748 13.6272 9.44207 13.8191 9.52154C14.0109 9.60101 14.2221 9.6218 14.4257 9.58129C14.6294 9.54078 14.8165 9.44077 14.9634 9.29393C15.1102 9.14708 15.2102 8.95999 15.2507 8.75631C15.2912 8.55263 15.2704 8.34151 15.191 8.14965C15.1115 7.95778 14.9769 7.7938 14.8042 7.67842C14.6316 7.56305 14.4286 7.50146 14.2209 7.50146C13.9424 7.50146 13.6754 7.61209 13.4784 7.809C13.2815 8.00592 13.1709 8.27299 13.1709 8.55146ZM14.5709 8.55146C14.5709 8.62069 14.5504 8.68836 14.5119 8.74591C14.4735 8.80347 14.4188 8.84833 14.3548 8.87482C14.2909 8.90131 14.2205 8.90824 14.1526 8.89474C14.0847 8.88123 14.0224 8.8479 13.9734 8.79895C13.9245 8.75 13.8911 8.68764 13.8776 8.61975C13.8641 8.55185 13.8711 8.48148 13.8975 8.41753C13.924 8.35357 13.9689 8.29891 14.0264 8.26045C14.084 8.22199 14.1517 8.20146 14.2209 8.20146C14.3137 8.20146 14.4027 8.23834 14.4684 8.30398C14.534 8.36961 14.5709 8.45864 14.5709 8.55146Z" fill="black"/>
</svg>
