<svg width="26" height="23" viewBox="0 0 26 23" fill="none" xmlns="http://www.w3.org/2000/svg">
<path d="M25.32 11.4801C25.32 9.94858 24.0812 8.70974 22.5497 8.70974C21.8011 8.70974 21.1246 9.00607 20.627 9.48882C18.7344 8.12075 16.1238 7.23909 13.2167 7.13651L14.4784 1.19692L18.6015 2.07491C18.651 3.12366 19.5096 3.95973 20.57 3.95973C21.6643 3.95973 22.5499 3.07421 22.5499 1.97986C22.5499 0.88552 21.6643 0 20.57 0C19.7909 0 19.1258 0.452226 18.8028 1.10574L14.1971 0.125371C14.0679 0.0987131 13.935 0.121701 13.8247 0.193756C13.7145 0.266004 13.6384 0.376114 13.612 0.505349C13.612 0.505349 12.2286 7.09479 12.2286 7.13284C9.2684 7.20876 6.60837 8.09428 4.68549 9.48129C4.18768 9.0024 3.51504 8.70974 2.77034 8.70974C1.23884 8.70974 0 9.95225 0 11.4801C0 12.6048 0.67264 13.5739 1.63775 14.007C1.59602 14.2808 1.57323 14.5618 1.57323 14.847C1.57323 19.1105 6.53612 22.5649 12.6581 22.5649C18.78 22.5649 23.7429 19.1105 23.7429 14.847C23.7429 14.5657 23.7201 14.2883 23.6784 14.0147C24.6398 13.5815 25.32 12.6125 25.32 11.4801" fill="#4B2A91"/>
<path d="M17.0092 15.4396C15.9185 15.4396 15.0294 14.5504 15.0294 13.4598C15.0294 12.3691 15.9185 11.4799 17.0092 11.4799C18.0999 11.4799 18.9891 12.3691 18.9891 13.4598C18.9891 14.5504 18.0999 15.4396 17.0092 15.4396" fill="white"/>
<path d="M17.3588 18.6889C16.006 20.0378 13.418 20.1442 12.6581 20.1442C11.8981 20.1442 9.30645 20.0378 7.9573 18.6889C7.75601 18.4874 7.75601 18.1644 7.9573 17.9629C8.15879 17.7616 8.48178 17.7616 8.68326 17.9629C9.53439 18.8142 11.3547 19.1183 12.6581 19.1183C13.9577 19.1183 15.7817 18.8142 16.633 17.9629C16.8343 17.7616 17.1573 17.7616 17.3588 17.9629C17.5564 18.1644 17.5564 18.4874 17.3588 18.6889Z" fill="white"/>
<path d="M6.31964 13.46C6.31964 12.3694 7.20883 11.4802 8.2995 11.4802C9.39018 11.4802 10.2794 12.3694 10.2794 13.46C10.2794 14.5505 9.39018 15.4399 8.2995 15.4399C7.20883 15.4397 6.31964 14.5505 6.31964 13.46" fill="white"/>
</svg>
