<svg width="14" height="14" viewBox="0 0 14 14" fill="none" xmlns="http://www.w3.org/2000/svg">
<path d="M5.60005 1.43936C3.78024 3.25916 3.70789 6.14879 5.33935 8.08054L4.6737 8.7462C4.21944 8.5234 3.66168 8.57131 3.2623 8.91994L0.54559 11.2809C-0.141202 11.8622 -0.187358 12.9101 0.451254 13.5487C1.09359 14.1911 2.14205 14.1356 2.71537 13.4592L5.07975 10.738C5.42863 10.3384 5.47654 9.78053 5.2538 9.32626L5.9194 8.66066C7.85118 10.2921 10.7408 10.2198 12.5606 8.39997C14.4798 6.48082 14.4798 3.35853 12.5606 1.43938C10.6415 -0.479762 7.5192 -0.479817 5.60005 1.43936ZM11.4005 7.2398C10.1212 8.51913 8.03949 8.51913 6.76011 7.2398C5.48078 5.96047 5.48078 3.87874 6.76011 2.59941C8.03949 1.32008 10.1212 1.32008 11.4005 2.59941C12.6798 3.87874 12.6799 5.96047 11.4005 7.2398Z" fill="#182542" fill-opacity="0.45"/>
</svg>
