<svg width="20" height="20" viewBox="0 0 20 20" fill="none" xmlns="http://www.w3.org/2000/svg">
<path d="M20.0002 10.0002C20.0002 4.47685 15.523 0 10.0003 0C4.47726 0 0 4.47685 0 10.0002C0 15.5228 4.47726 20 10.0003 20C15.523 20 20.0002 15.5228 20.0002 10.0002Z" fill="#25B7D3"/>
<path d="M12.7077 14.4936C12.6518 14.4117 12.5445 14.3826 12.455 14.425C11.4641 14.8941 10.3394 15.3901 10.1187 15.4334C10.1131 15.4284 10.1043 15.4194 10.0927 15.4037C10.0628 15.3632 10.0482 15.3102 10.0482 15.2418C10.0482 14.6813 10.4713 12.9762 11.3056 10.1741C12.0091 7.81971 12.0904 7.33224 12.0904 7.17039C12.0904 6.92055 11.9947 6.70945 11.8137 6.55986C11.6417 6.418 11.4013 6.34613 11.0994 6.34613C10.5972 6.34613 10.0151 6.5368 9.31988 6.92906C8.64618 7.3093 7.89483 7.95334 7.08686 8.84327C7.02361 8.91296 7.017 9.01717 7.07093 9.09432C7.12495 9.17151 7.22512 9.2009 7.31223 9.16543C7.59589 9.04966 9.02146 8.46568 9.22926 8.33516C9.39941 8.2285 9.54671 8.17436 9.66707 8.17436C9.67139 8.17436 9.67509 8.17452 9.6782 8.17476C9.67965 8.18274 9.68102 8.19492 9.68102 8.21237C9.68102 8.3352 9.65575 8.4806 9.6062 8.64381C8.39142 12.5797 7.80091 14.9926 7.80091 16.0203C7.80091 16.3831 7.90173 16.6751 8.1005 16.8881C8.30306 17.1055 8.57628 17.2157 8.91259 17.2157C9.27099 17.2157 9.70718 17.066 10.246 16.7581C10.7675 16.4601 11.5634 15.8046 12.6793 14.754C12.7516 14.686 12.7636 14.5755 12.7077 14.4936Z" fill="white"/>
<path d="M12.6687 3.09054C12.4702 2.88733 12.2162 2.7843 11.9137 2.7843C11.5373 2.7843 11.2093 2.93309 10.9392 3.22655C10.6734 3.51517 10.5386 3.86933 10.5386 4.27917C10.5386 4.60298 10.6379 4.87132 10.8337 5.0767C11.0321 5.28519 11.2827 5.39088 11.5784 5.39088C11.9395 5.39088 12.2657 5.23375 12.5478 4.92385C12.825 4.61938 12.9655 4.26143 12.9655 3.85994C12.9656 3.55141 12.8657 3.29257 12.6687 3.09054Z" fill="white"/>
</svg>
