<svg width="21" height="21" viewBox="0 0 21 21" fill="none" xmlns="http://www.w3.org/2000/svg">
<path d="M10.5 21C16.299 21 21 16.299 21 10.5C21 4.70101 16.299 0 10.5 0C4.70101 0 0 4.70101 0 10.5C0 16.299 4.70101 21 10.5 21Z" fill="#039BE5"/>
<path d="M4.80498 10.2726L14.9287 6.36918C15.3986 6.19943 15.809 6.48381 15.6567 7.19431L15.6576 7.19343L13.9339 15.3143C13.8061 15.8901 13.464 16.0301 12.9854 15.7588L10.3604 13.8242L9.09423 15.0439C8.95423 15.1839 8.8361 15.3021 8.56485 15.3021L8.75123 12.6307L13.6162 8.23556C13.828 8.04918 13.569 7.94418 13.2899 8.12968L7.27773 11.9149L4.68598 11.1064C4.12335 10.9279 4.1111 10.5438 4.80498 10.2726V10.2726Z" fill="white"/>
</svg>
