<svg width="26" height="26" viewBox="0 0 26 26" fill="none" xmlns="http://www.w3.org/2000/svg">
<path d="M13.0754 25.3333C20.0666 25.3333 25.7341 19.6658 25.7341 12.6746C25.7341 5.68338 20.0666 0.0158691 13.0754 0.0158691C6.08419 0.0158691 0.416687 5.68338 0.416687 12.6746C0.416687 19.6658 6.08419 25.3333 13.0754 25.3333Z" fill="#4B2A91"/>
<path d="M6.20906 12.4003L18.4142 7.69444C18.9807 7.48979 19.4754 7.83264 19.2919 8.68921L19.2929 8.68815L17.2148 18.4786C17.0608 19.1727 16.6483 19.3415 16.0713 19.0145L12.9066 16.6821L11.3801 18.1527C11.2114 18.3214 11.069 18.4639 10.7419 18.4639L10.9666 15.2433L16.8318 9.94453C17.0871 9.71984 16.7749 9.59325 16.4384 9.81689L9.19019 14.3804L6.06559 13.4056C5.38729 13.1904 5.37253 12.7273 6.20906 12.4003Z" fill="white"/>
</svg>
