<svg width="22" height="22" viewBox="0 0 22 22" fill="none" xmlns="http://www.w3.org/2000/svg">
<path d="M20.8877 12.9415V19.9701C20.8877 20.3896 20.5476 20.7297 20.1281 20.7297H9.49396C9.07445 20.7297 8.73438 20.3896 8.73438 19.9701V12.9415C8.73438 12.522 9.07445 12.1819 9.49396 12.1819H20.1281C20.5476 12.1819 20.8877 12.522 20.8877 12.9415Z" fill="#44C7F4"/>
<path d="M20.8877 12.9415V19.9701C20.8877 20.3904 20.5484 20.7297 20.1281 20.7297H9.49396C9.1243 20.7297 8.8154 20.4664 8.74957 20.117C8.74198 20.0765 8.73691 20.0334 8.73691 19.9904C8.73438 19.9828 8.73438 19.9777 8.73438 19.9701V12.9415C8.73438 12.5212 9.07366 12.1819 9.49396 12.1819H20.1281C20.4775 12.1819 20.7712 12.4173 20.8598 12.7389C20.8775 12.8022 20.8877 12.8706 20.8877 12.9415Z" fill="#C8966D"/>
<path d="M20.8881 14.3947V19.97C20.8881 20.3903 20.5488 20.7296 20.1285 20.7296H9.49439C9.12474 20.7296 8.81583 20.4663 8.75 20.1169H12.0846C15.9913 20.1169 19.3765 17.7596 20.8881 14.3947Z" fill="#C28B5E"/>
<path d="M20.8877 12.9415V14.567C19.052 15.4658 16.991 15.9722 14.811 15.9722C13.5932 15.9722 12.4158 15.8152 11.2916 15.519C10.4029 15.286 9.5446 14.9645 8.73438 14.567V12.9415C8.73438 12.5212 9.07366 12.1819 9.49396 12.1819H20.1281C20.323 12.1819 20.5003 12.2528 20.6345 12.3743C20.7914 12.5136 20.8877 12.7161 20.8877 12.9415Z" fill="#DDDDDC"/>
<path d="M20.8884 12.9416V14.5656C19.0536 15.464 16.991 15.9702 14.8103 15.9702C13.5913 15.9702 12.4144 15.8141 11.2924 15.5188C10.4024 15.2868 9.54621 14.9663 8.73633 14.5656V14.1564C9.31841 14.401 9.92159 14.6077 10.5416 14.768C11.6636 15.0633 12.8405 15.2193 14.0594 15.2193C15.6201 15.2193 17.1217 14.962 18.5263 14.4812C19.4965 14.1522 20.1376 13.2158 20.1376 12.1908C20.1376 12.1866 20.1376 12.1866 20.1376 12.1824C20.3274 12.1866 20.5003 12.2541 20.6353 12.3722C20.7914 12.5156 20.8884 12.7181 20.8884 12.9416Z" fill="#C6C6C6"/>
<path d="M20.1285 11.7601H17.739V11.0351C17.739 10.3561 17.1883 9.8035 16.5115 9.8035H15.5322V4.54006C15.5337 4.52562 15.5406 4.51308 15.5406 4.49825C15.5406 4.35614 15.4704 4.23051 15.3627 4.1541L11.3935 0.185098C11.3573 0.148954 11.3147 0.123081 11.2699 0.10256C11.2569 0.0965624 11.2437 0.0929813 11.2302 0.0883752C11.1947 0.0762485 11.1586 0.0690905 11.1212 0.0666989C11.1123 0.0661337 11.1042 0.0615234 11.0952 0.0615234H2.45307C1.22206 0.0615234 0.220703 1.06289 0.220703 2.29389V18.9189C0.220703 20.15 1.22206 21.1515 2.45307 21.1515H20.1285C20.78 21.1515 21.3099 20.6216 21.3099 19.9702V14.5669V12.9415C21.3099 12.29 20.78 11.7601 20.1285 11.7601ZM20.4663 12.9415V14.301C18.6876 15.1302 16.7866 15.5503 14.8115 15.5503C12.8339 15.5503 10.9329 15.1302 9.15656 14.3012V12.9415C9.15656 12.7553 9.30814 12.6037 9.49433 12.6037H20.1285C20.3147 12.6037 20.4663 12.7553 20.4663 12.9415ZM12.7279 11.7601V11.0351C12.7279 10.8211 12.9 10.6471 13.1118 10.6471H14.6886V11.7601H12.7279ZM16.5115 10.6471C16.7232 10.6471 16.8954 10.8211 16.8954 11.0351V11.7601H15.5322V10.6471H16.5115ZM11.517 1.50157L12.8046 2.78901L14.0921 4.07645H11.9846C11.7267 4.07645 11.517 3.86679 11.517 3.60893V1.50157ZM1.0643 18.9189V2.29389C1.0643 1.52814 1.68732 0.905123 2.45307 0.905123H10.6734V3.60893C10.6734 4.33184 11.2616 4.92005 11.9846 4.92005H14.6886V9.8035H13.1118C12.435 9.8035 11.8843 10.3561 11.8843 11.0351V11.7601H9.49433C8.84289 11.7601 8.31296 12.29 8.31296 12.9415V14.5669V19.9702C8.31296 20.0883 8.33566 20.2002 8.3681 20.3079H2.45307C1.68732 20.3079 1.0643 19.6849 1.0643 18.9189ZM20.1285 20.3079C12.5747 20.3079 16.5851 20.3079 9.49433 20.3079C9.30814 20.3079 9.15656 20.1563 9.15656 19.9702V15.2225C10.9426 15.998 12.841 16.3939 14.8115 16.3939C16.7798 16.3939 18.6782 15.9978 20.4663 15.2221V19.9702C20.4663 20.1563 20.3147 20.3079 20.1285 20.3079Z" fill="#293C66"/>
</svg>
