<svg width="26" height="21" viewBox="0 0 26 21" fill="none" xmlns="http://www.w3.org/2000/svg">
<path d="M7.96292 20.3462C17.5182 20.3462 22.7434 12.5191 22.7434 5.73201C22.7434 5.50968 22.7388 5.28831 22.7287 5.06808C23.7429 4.34303 24.6246 3.43825 25.32 2.40836C24.3893 2.81749 23.3875 3.09272 22.3368 3.21707C23.4093 2.58103 24.2328 1.5752 24.6211 0.376085C23.6173 0.964375 22.5058 1.39184 21.3224 1.62276C20.3745 0.62439 19.0248 0 17.5304 0C14.6617 0 12.3353 2.30025 12.3353 5.13569C12.3353 5.5389 12.3809 5.93084 12.4699 6.30693C8.15242 6.09205 4.32386 4.04831 1.76196 0.940309C1.31592 1.69936 1.05861 2.58122 1.05861 3.5221C1.05861 5.30397 1.97581 6.87726 3.37035 7.79752C2.51805 7.77154 1.71753 7.54023 1.01765 7.15517C1.01688 7.17676 1.01688 7.19777 1.01688 7.22069C1.01688 9.70831 2.80743 11.7853 5.18466 12.2559C4.74808 12.3734 4.28871 12.4366 3.81484 12.4366C3.48065 12.4366 3.15495 12.4041 2.83834 12.344C3.49977 14.3848 5.41763 15.8699 7.69131 15.9115C5.91332 17.2894 3.67344 18.1102 1.23923 18.1102C0.82042 18.1102 0.406636 18.0865 0 18.0391C2.29899 19.4961 5.02915 20.3464 7.96311 20.3464" fill="#4B2A91"/>
</svg>
