<svg width="26" height="26" viewBox="0 0 26 26" fill="none" xmlns="http://www.w3.org/2000/svg">
<path d="M13.0786 0.619049H13.0723C6.09255 0.619049 0.416687 6.29649 0.416687 13.2778C0.416687 16.0469 1.30913 18.6134 2.82659 20.6974L1.249 25.4001L6.1147 23.8447C8.11636 25.1707 10.5041 25.9365 13.0786 25.9365C20.0583 25.9365 25.7341 20.2575 25.7341 13.2778C25.7341 6.29807 20.0583 0.619049 13.0786 0.619049Z" fill="#4B2A91"/>
<path d="M20.4443 18.4947C20.1389 19.3571 18.9269 20.0723 17.9601 20.2812C17.2986 20.422 16.4347 20.5344 13.5263 19.3286C9.80625 17.7874 7.41058 14.0072 7.22387 13.7619C7.04506 13.5167 5.72064 11.7603 5.72064 9.94376C5.72064 8.12723 6.64315 7.2427 7.015 6.86294C7.32039 6.55122 7.82516 6.40881 8.30935 6.40881C8.466 6.40881 8.60683 6.41672 8.73342 6.42305C9.10527 6.43887 9.29199 6.46103 9.53725 7.04808C9.84264 7.78386 10.5863 9.60039 10.675 9.78711C10.7651 9.97382 10.8553 10.227 10.7288 10.4723C10.6101 10.7254 10.5056 10.8378 10.3189 11.053C10.1322 11.2682 9.95499 11.4327 9.76827 11.6638C9.59738 11.8647 9.40433 12.0799 9.61953 12.4518C9.83473 12.8157 10.5784 14.0294 11.6734 15.0041C13.0864 16.262 14.2321 16.664 14.6419 16.8349C14.9473 16.9614 15.3112 16.9314 15.5343 16.694C15.8176 16.3886 16.1673 15.8823 16.5233 15.3838C16.7765 15.0262 17.0961 14.9819 17.4316 15.1085C17.7733 15.2272 19.582 16.1212 19.9538 16.3064C20.3257 16.4931 20.5709 16.5817 20.6611 16.7383C20.7497 16.895 20.7497 17.6308 20.4443 18.4947Z" fill="#FAFAFA"/>
</svg>
