<svg width="21" height="22" viewBox="0 0 21 22" fill="none" xmlns="http://www.w3.org/2000/svg">
<path d="M0.448784 21.0916C0.33035 21.0916 0.215134 21.0447 0.129688 20.9583C0.0170465 20.8444 -0.0264007 20.679 0.0159202 20.5243L1.38708 15.5173C0.533426 13.9736 0.083344 12.2274 0.0839876 10.4547C0.0864013 4.68989 4.77774 0 10.5421 0C13.338 0.00112641 15.9651 1.09021 17.9397 3.06625C19.914 5.04246 21.0008 7.66941 21 10.4631C20.9974 16.228 16.3061 20.9183 10.5421 20.9183C10.5421 20.9183 10.5377 20.9183 10.5376 20.9183C8.85391 20.9176 7.18472 20.5073 5.6985 19.7301L0.562552 21.0769C0.524897 21.0867 0.486599 21.0916 0.448784 21.0916V21.0916Z" fill="#E5E5E5"/>
<path d="M0.449219 20.6428L1.86914 15.4576C0.993275 13.94 0.532573 12.2186 0.533217 10.4549C0.53547 4.9376 5.02535 0.448853 10.5425 0.448853C13.2198 0.449979 15.7329 1.49207 17.6226 3.38348C19.5123 5.27488 20.5526 7.78903 20.5516 10.463C20.5492 15.9801 16.0587 20.4695 10.5425 20.4695C10.5422 20.4695 10.5427 20.4695 10.5425 20.4695H10.5382C8.86303 20.4689 7.21718 20.0487 5.75526 19.2514L0.449219 20.6428ZM6.00098 17.44L6.30495 17.62C7.58198 18.3779 9.04615 18.7788 10.5393 18.7796H10.5425C15.1276 18.7796 18.8596 15.0483 18.8615 10.4623C18.8623 8.23992 17.9979 6.1501 16.4272 4.57812C14.8563 3.00613 12.7678 2.13992 10.5456 2.13895C5.95673 2.13895 2.22493 5.86979 2.22316 10.4556C2.22251 12.0271 2.66213 13.5574 3.49504 14.8817L3.69296 15.1965L2.85234 18.2655L6.00098 17.44Z" fill="white"/>
<path d="M0.796814 20.2934L2.16766 15.2875C1.32188 13.8225 0.877272 12.1604 0.877755 10.4581C0.879847 5.13177 5.21444 0.798466 10.5403 0.798466C13.1252 0.799592 15.5514 1.80564 17.3753 3.63155C19.1998 5.45746 20.2039 7.88456 20.203 10.4656C20.2007 15.7921 15.8659 20.1259 10.5408 20.1259C10.5403 20.1259 10.5409 20.1259 10.5408 20.1259H10.5364C8.91937 20.1253 7.33032 19.7194 5.91909 18.9503L0.796814 20.2934Z" fill="#64B161"/>
<path d="M0.4492 20.6428L1.86912 15.4576C0.993256 13.94 0.532554 12.2186 0.533198 10.4549C0.535451 4.93759 5.02533 0.448841 10.5425 0.448841C13.2198 0.449968 15.7328 1.49206 17.6226 3.38346C19.5123 5.27487 20.5526 7.78902 20.5516 10.463C20.5492 15.9801 16.0587 20.4695 10.5425 20.4695C10.5422 20.4695 10.5427 20.4695 10.5425 20.4695H10.5381C8.86301 20.4689 7.21716 20.0487 5.75524 19.2514L0.4492 20.6428ZM6.00096 17.44L6.30493 17.62C7.58196 18.3779 9.04613 18.7788 10.5393 18.7796H10.5425C15.1276 18.7796 18.8596 15.0483 18.8615 10.4623C18.8623 8.23991 17.9979 6.15009 16.4272 4.5781C14.8563 3.00612 12.7678 2.13991 10.5455 2.13894C5.95671 2.13894 2.22491 5.86978 2.22314 10.4556C2.22249 12.0271 2.66212 13.5574 3.49502 14.8817L3.69294 15.1965L2.85232 18.2655L6.00096 17.44Z" fill="white"/>
<path fill-rule="evenodd" clip-rule="evenodd" d="M8.04051 6.27174C7.8532 5.85529 7.65592 5.84693 7.47762 5.83969C7.33183 5.83341 7.16496 5.83373 6.99841 5.83373C6.83171 5.83373 6.56072 5.89649 6.33158 6.14671C6.10227 6.39694 5.45604 7.00198 5.45604 8.23251C5.45604 9.46319 6.35234 10.6522 6.47737 10.8192C6.6024 10.9861 8.20754 13.592 10.7495 14.5945C12.8622 15.4277 13.292 15.262 13.7506 15.2203C14.2092 15.1786 15.2302 14.6152 15.4386 14.0313C15.6472 13.4473 15.6472 12.9469 15.5846 12.8421C15.522 12.738 15.3553 12.6754 15.1052 12.5504C14.8551 12.4253 13.6256 11.8201 13.3963 11.7368C13.167 11.6533 13.0003 11.6117 12.8335 11.8621C12.6667 12.1122 12.1878 12.6754 12.0418 12.8421C11.8959 13.0093 11.7499 13.0302 11.4999 12.905C11.2498 12.7797 10.4443 12.5158 9.48875 11.6637C8.74532 11.0009 8.24326 10.1822 8.09731 9.93178C7.95152 9.68171 8.0949 9.55813 8.20722 9.42151C8.40949 9.17547 8.74886 8.73311 8.83221 8.56641C8.91557 8.39938 8.87389 8.25342 8.81145 8.12823C8.74886 8.0032 8.26273 6.7664 8.04051 6.27174V6.27174Z" fill="white"/>
</svg>
