<svg width="39" height="38" viewBox="0 0 39 38" fill="none" xmlns="http://www.w3.org/2000/svg">
<path d="M38.25 18.9032C38.25 8.86981 29.8476 0.75 19.5 0.75C9.15245 0.75 0.75 8.86981 0.75 18.9032C0.75 28.9366 9.15245 37.0564 19.5 37.0564C29.8476 37.0564 38.25 28.9366 38.25 18.9032Z" fill="white" stroke="#EEEEEE" stroke-width="0.5"/>
<path d="M19.2691 12.0979L12.0952 19.4306C12.0341 19.4932 11.9998 19.5781 12 19.6666V25.6661C11.9997 25.8502 12.1454 25.9997 12.3255 26C12.4123 26.0002 12.4956 25.9649 12.557 25.9021L19.5 18.8047L26.443 25.9021C26.5702 26.0324 26.7767 26.0327 26.9042 25.9027C26.9657 25.84 27.0002 25.7548 27 25.6661V19.6666C27.0002 19.5781 26.9659 19.4932 26.9048 19.4306L19.7309 12.0979C19.6037 11.9676 19.3972 11.9673 19.2697 12.0973C19.2695 12.0975 19.2693 12.0977 19.2691 12.0979Z" fill="#50C7AD" fill-opacity="0.17"/>
</svg>
