<svg width="66" height="54" viewBox="0 0 66 54" fill="none" xmlns="http://www.w3.org/2000/svg">
<path d="M12.9568 27.7921C11.0637 28.8406 8.80183 28.4717 6.82144 29.6657C6.61757 26.6369 6.69523 23.8702 7.24858 21.1423C7.49127 19.9773 7.28741 19.0939 6.69523 18.0843C3.78289 13.1236 2.65679 7.97849 5.44293 2.53241C6.24868 2.61008 5.82153 3.15371 5.82153 3.53232C5.82153 5.503 6.12247 7.42515 6.86027 9.29875C7.35537 8.88132 7.03501 8.42505 6.96705 8.02703C6.79231 7.04654 6.72436 6.07576 6.80202 5.08556C6.87968 4.04683 6.7729 2.71686 7.47186 2.12469C8.21936 1.49368 9.12219 2.65861 9.96676 2.98868C13.3645 4.33806 16.7428 3.77501 20.1211 2.96926C25.1983 1.7752 30.2367 0.309326 35.5177 0.0277996C37.5078 -0.0789862 39.4494 0.11517 41.3327 0.726762C44.5848 1.7752 46.7205 3.96917 47.6816 7.2407C47.8854 7.92995 48.1087 8.30856 48.8659 8.54154C55.1663 10.4928 58.0495 15.1817 58.9329 21.385C59.263 23.6663 59.2533 25.9476 59.0106 28.2581C58.8941 29.4327 58.5932 29.7337 57.5641 29.1415C57.0205 28.8309 56.2342 28.8891 55.972 28.1319C55.5158 27.4523 55.5934 26.666 55.5449 25.9088C55.3313 22.5305 53.914 19.7152 51.6035 17.298C50.7881 16.4437 50.1959 16.3854 49.361 17.3659C45.9245 21.4044 41.8569 24.54 36.6147 25.8894C33.6344 26.6563 30.625 27.1805 27.5379 26.7631C26.8292 26.666 25.6449 26.8116 25.5866 26.0059C25.5187 25.1613 26.703 25.171 27.402 24.9963C29.9648 24.3556 32.4209 23.4527 34.7314 22.1907C35.4886 21.7733 36.2167 21.3267 36.9933 20.4627C31.9355 20.0065 27.169 18.9192 22.3151 19.4143C18.4708 19.8026 15.7914 21.9966 14.1314 25.4622C13.7625 26.2486 13.481 27.0834 12.9568 27.7921Z" fill="#1A6BB4"/>
<path d="M26.4409 32.0344C30.9065 33.675 35.343 33.044 39.8182 31.9956C47.934 30.1026 55.9915 30.8501 64.0004 32.7334C64.9712 32.9664 65.3692 33.5391 65.3401 34.4905C65.311 35.306 65.2333 36.1311 65.2333 36.9466C65.2333 37.6164 65.1653 38.1212 64.2819 38.0436C63.4956 37.9756 63.4859 38.6163 63.4082 39.1502C63.1558 40.985 63.0587 42.8489 62.5733 44.6546C61.1948 49.7317 57.2243 53.0324 52.0015 53.479C49.594 53.6828 47.2059 53.7217 44.7984 53.4401C42.3423 53.1489 40.3133 52.149 38.7698 50.1977C36.77 47.664 35.3818 44.8584 35.1294 41.5869C34.9741 39.5483 34.3819 38.8978 32.6248 38.927C30.7997 38.9561 30.1687 39.6648 30.0425 41.7616C29.8289 45.3341 28.3825 48.2853 25.9652 50.9646C21.6647 55.7215 6.15158 54.9545 3.17129 46.1204C2.4432 43.9071 1.99664 41.6743 2.09372 39.3541C2.11314 38.7425 2.1908 38.0436 1.28797 38.0921C0.0939144 38.1503 0.0259597 37.432 0.00654412 36.5291C-0.0517027 33.1702 0.210408 32.7916 3.64697 32.1606C11.122 30.7821 18.6164 30.4423 26.1205 32.0053C26.237 31.8888 26.3438 31.9082 26.4409 32.0344Z" fill="#1A6BB4"/>
<path d="M44.3809 4.2604C39.1387 1.54221 34.1101 2.3965 29.1105 4.05653C25.839 5.15351 22.5578 6.11459 19.0435 5.55153C17.5388 5.30884 16.1409 4.81374 14.6168 3.43523C21.4608 4.82345 27.1301 1.70724 33.1296 0.474352C35.5565 -0.0207456 37.9932 -0.205194 40.4007 0.619969C42.1578 1.21215 43.5072 2.2703 44.3809 4.2604Z" fill="#FDFEFD"/>
<path d="M16.1895 34.3061C19.5775 34.2866 22.5287 34.7623 25.4119 35.6749C27.1302 36.2185 28.1786 37.3737 28.0427 38.9852C27.732 42.6256 26.9069 46.0913 24.0819 48.7416C20.8686 51.7607 14.2479 52.3237 9.91823 49.8968C5.69533 47.5378 3.72465 43.0042 4.72455 38.1989C5.00608 36.8301 5.80212 36.102 7.03501 35.7428C10.1512 34.8497 13.3062 34.2381 16.1895 34.3061Z" fill="white"/>
<path d="M59.5639 43.9362C59.7872 46.4214 58.4184 48.13 56.6127 49.4599C53.7586 51.5568 50.4386 51.0714 47.1573 50.9452C42.2452 50.7608 39.4493 48.13 38.1388 43.6256C37.566 41.6452 37.8475 39.6162 38.0029 37.6164C38.0611 36.8301 38.5465 36.1505 39.3328 35.8884C43.5751 34.5196 47.8951 33.8886 52.3413 34.7235C53.2635 36.7039 52.7684 38.8008 52.8267 40.8394C52.9043 43.8003 52.8461 43.7809 55.8458 43.742C57.0981 43.7323 58.3601 43.3052 59.5639 43.9362Z" fill="white"/>
<path d="M59.5639 43.9362C57.5059 43.9945 55.4381 44.0139 53.3801 44.111C52.4384 44.1498 52.3219 43.6644 52.3316 42.8975C52.3607 40.1696 52.351 37.4514 52.3607 34.7235C54.8945 37.6844 57.5059 40.5967 59.5639 43.9362Z" fill="#E5E5E5"/>
<path d="M15.3351 43.2469C13.0441 43.2469 10.7434 43.2567 8.45231 43.2372C8.01546 43.2372 7.4427 43.4411 7.42328 42.5965C7.41357 41.7908 7.85042 41.7325 8.45231 41.7325C13.0441 41.7422 17.6359 41.7519 22.2277 41.7325C22.8684 41.7325 23.247 41.8296 23.2373 42.6062C23.2276 43.4605 22.6548 43.2275 22.218 43.2372C19.9172 43.2469 17.6262 43.2469 15.3351 43.2469Z" fill="#1A6BB4"/>
<path d="M15.4419 47.5087C13.5295 47.5087 11.6171 47.5087 9.70463 47.5087C9.21924 47.5087 8.71443 47.6058 8.73385 46.8097C8.75326 46.1302 9.06391 45.9943 9.65609 45.9943C13.5392 46.004 17.4126 46.004 21.2957 45.9943C21.8297 45.9943 22.2277 46.0331 22.2568 46.7612C22.2956 47.6834 21.6938 47.499 21.1793 47.5087C19.2668 47.5184 17.3544 47.5087 15.4419 47.5087Z" fill="#1A6BB4"/>
<path d="M15.4517 38.927C13.9276 38.927 12.3937 38.9173 10.8696 38.9367C10.3065 38.9464 9.94735 38.8493 9.94735 38.1504C9.94735 37.4514 10.2968 37.3543 10.8696 37.3543C14.0926 37.364 17.3156 37.364 20.5289 37.3543C21.0337 37.3543 21.3637 37.4514 21.3831 38.0533C21.3929 38.6649 21.1987 38.9464 20.5386 38.9367C18.83 38.9076 17.1408 38.927 15.4517 38.927Z" fill="#1A6BB4"/>
<path d="M42.4296 47.8679C41.886 46.8679 42.284 46.5088 43.313 46.5088C47.167 46.5185 51.021 46.5379 54.8847 46.4991C56.0594 46.4893 55.9526 47.0621 55.6711 47.829C51.8462 48.1785 48.0116 47.9358 44.1867 47.9455C43.614 47.9455 43.0024 48.1105 42.4296 47.8679Z" fill="#1A6BB4"/>
<path d="M45.2352 41.7423C46.3807 41.7423 47.5263 41.7617 48.6718 41.7325C49.3319 41.7131 49.4969 42.0238 49.4969 42.6257C49.5067 43.2664 49.1669 43.3246 48.6718 43.3149C46.3225 43.3052 43.9829 43.2955 41.6336 43.3052C41.1482 43.3052 40.7988 43.2664 40.7988 42.616C40.7988 42.0141 40.9638 41.7131 41.6239 41.7325C42.8374 41.7617 44.0412 41.7423 45.2352 41.7423Z" fill="#1A6BB4"/>
<path d="M44.41 37.1407C45.3905 37.1407 46.371 37.1601 47.3418 37.131C47.9825 37.1116 48.1863 37.3737 48.1863 37.995C48.1766 38.5872 47.9242 38.7134 47.3903 38.7037C45.3808 38.6843 43.3616 38.6649 41.352 38.7037C40.6919 38.7134 40.5269 38.4804 40.5269 37.8591C40.5269 37.2572 40.7793 37.1213 41.3035 37.131C42.3422 37.1601 43.381 37.1504 44.41 37.1407Z" fill="#1A6BB4"/>
<path d="M42.4297 47.8679C43.4296 47.3728 44.4392 47.8388 45.4488 47.8291C48.8562 47.7902 52.2637 47.8193 55.6711 47.8291C55.5934 48.0815 55.3993 48.1106 55.1663 48.1106C51.1084 48.1106 47.0506 48.1106 42.9927 48.0912C42.8083 48.1009 42.6238 47.9553 42.4297 47.8679Z" fill="#1A6BB4"/>
</svg>
