<svg width="328" height="69" viewBox="0 0 328 69" fill="none" xmlns="http://www.w3.org/2000/svg">
<path d="M72.5427 25.1332H61.9349V17.3871H92.8701V25.1332H82.3117V51.924H72.5427V25.1332ZM106.162 24.7385C110.602 24.7385 113.99 25.7582 116.326 27.7975C118.661 29.804 119.829 32.8959 119.829 37.0731V51.924H111.096V48.4703C109.747 51.0688 107.116 52.368 103.202 52.368C101.129 52.368 99.3366 52.0063 97.8237 51.2826C96.3106 50.5591 95.1594 49.5887 94.37 48.3716C93.6134 47.1217 93.2352 45.7073 93.2352 44.1285C93.2352 41.5958 94.2054 39.6387 96.1462 38.2572C98.0868 36.843 101.08 36.1357 105.126 36.1357H110.454C110.29 33.307 108.399 31.8925 104.78 31.8925C103.498 31.8925 102.198 32.1065 100.883 32.5339C99.5669 32.9287 98.4485 33.488 97.5277 34.2115L94.37 27.8468C95.8502 26.86 97.6427 26.1036 99.7479 25.5772C101.886 25.0181 104.024 24.7385 106.162 24.7385ZM105.817 46.4474C106.902 46.4474 107.856 46.1843 108.678 45.658C109.5 45.1318 110.092 44.3588 110.454 43.3391V41.0202H106.409C103.678 41.0202 102.314 41.9248 102.314 43.7338C102.314 44.5561 102.626 45.2139 103.251 45.7073C103.876 46.2007 104.731 46.4474 105.817 46.4474ZM142.718 51.924L137.932 44.9179L132.801 51.924H122.637L132.801 38.5532L122.933 25.1825H133.492L138.228 31.9419L143.162 25.1825H153.079L143.212 38.2079L153.425 51.924H142.718Z" fill="#1F304F"/>
<path d="M173.907 52.516C170.388 52.516 167.197 51.7596 164.335 50.2465C161.507 48.7006 159.27 46.579 157.625 43.8818C156.013 41.1518 155.208 38.0764 155.208 34.6555C155.208 31.2348 156.013 28.1758 157.625 25.4786C159.27 22.7486 161.507 20.627 164.335 19.1139C167.197 17.568 170.404 16.795 173.956 16.795C176.95 16.795 179.647 17.3213 182.048 18.3739C184.482 19.4264 186.521 20.9394 188.166 22.913L183.035 27.6495C180.699 24.9524 177.805 23.6037 174.351 23.6037C172.213 23.6037 170.305 24.0807 168.628 25.0345C166.95 25.9556 165.634 27.2547 164.681 28.9323C163.76 30.6098 163.299 32.5176 163.299 34.6555C163.299 36.7936 163.76 38.7013 164.681 40.3788C165.634 42.0563 166.95 43.372 168.628 44.3258C170.305 45.2469 172.213 45.7073 174.351 45.7073C177.805 45.7073 180.699 44.3424 183.035 41.6122L188.166 46.3487C186.521 48.3552 184.482 49.8847 182.048 50.9372C179.614 51.9899 176.9 52.516 173.907 52.516ZM209.154 24.9852C212.443 24.9852 215.092 25.9719 217.097 27.9455C219.138 29.919 220.156 32.8466 220.156 36.7277V51.924H212.459V37.9118C212.459 35.8069 211.999 34.2444 211.078 33.2247C210.158 32.1722 208.826 31.6459 207.081 31.6459C205.141 31.6459 203.596 32.2545 202.444 33.4714C201.293 34.6555 200.717 36.4317 200.717 38.7999V51.924H193.021V15.3149H200.717V28.1428C201.737 27.1233 202.97 26.3503 204.417 25.8239C205.866 25.2648 207.444 24.9852 209.154 24.9852ZM237.841 24.9852C241.952 24.9852 245.109 25.9719 247.314 27.9455C249.516 29.8863 250.62 32.83 250.62 36.7771V51.924H243.416V48.6183C241.968 51.0852 239.272 52.3187 235.325 52.3187C233.284 52.3187 231.508 51.9733 229.996 51.2826C228.516 50.5918 227.381 49.638 226.592 48.4209C225.802 47.2041 225.408 45.8226 225.408 44.2765C225.408 41.8096 226.327 39.869 228.171 38.4546C230.045 37.0403 232.923 36.333 236.805 36.333H242.923C242.923 34.6555 242.412 33.3727 241.393 32.4846C240.373 31.5638 238.843 31.1031 236.805 31.1031C235.39 31.1031 233.993 31.3335 232.611 31.7939C231.261 32.2215 230.111 32.8136 229.157 33.5701L226.394 28.1922C227.841 27.1726 229.568 26.3832 231.575 25.8239C233.614 25.2648 235.702 24.9852 237.841 24.9852ZM237.249 47.1381C238.563 47.1381 239.732 46.8421 240.752 46.25C241.77 45.6252 242.495 44.7206 242.923 43.5364V40.8228H237.644C234.486 40.8228 232.907 41.8589 232.907 43.9311C232.907 44.9179 233.284 45.7073 234.042 46.2994C234.831 46.8587 235.899 47.1381 237.249 47.1381ZM257.584 25.3799H265.281V51.924H257.584V25.3799ZM261.433 21.6795C260.02 21.6795 258.867 21.2684 257.979 20.446C257.091 19.6238 256.647 18.6041 256.647 17.3871C256.647 16.1701 257.091 15.1504 257.979 14.3281C258.867 13.5058 260.02 13.0947 261.433 13.0947C262.848 13.0947 263.998 13.4894 264.886 14.2788C265.774 15.0682 266.218 16.055 266.218 17.2391C266.218 18.5219 265.774 19.5909 264.886 20.446C263.998 21.2684 262.848 21.6795 261.433 21.6795ZM288.559 24.9852C291.847 24.9852 294.495 25.9719 296.502 27.9455C298.541 29.919 299.561 32.8466 299.561 36.7277V51.924H291.865V37.9118C291.865 35.8069 291.403 34.2444 290.483 33.2247C289.561 32.1722 288.229 31.6459 286.487 31.6459C284.545 31.6459 282.999 32.2545 281.849 33.4714C280.696 34.6555 280.122 36.4317 280.122 38.7999V51.924H272.425V25.3799H279.777V28.4882C280.795 27.37 282.062 26.5147 283.576 25.9226C285.087 25.2978 286.749 24.9852 288.559 24.9852ZM315.468 52.3187C313.264 52.3187 311.11 52.0556 309.005 51.5293C306.899 50.9702 305.221 50.2794 303.972 49.457L306.538 43.9311C307.722 44.6878 309.153 45.3126 310.83 45.806C312.508 46.2666 314.152 46.4967 315.764 46.4967C319.02 46.4967 320.649 45.6909 320.649 44.0792C320.649 43.3227 320.205 42.78 319.316 42.451C318.428 42.1222 317.063 41.8425 315.221 41.6122C313.05 41.2834 311.258 40.9051 309.843 40.4774C308.428 40.05 307.195 39.2933 306.143 38.2079C305.123 37.1224 304.614 35.5766 304.614 33.5701C304.614 31.8926 305.091 30.4124 306.044 29.1296C307.031 27.814 308.446 26.7943 310.288 26.0706C312.162 25.3471 314.367 24.9852 316.899 24.9852C318.774 24.9852 320.633 25.1991 322.474 25.6266C324.349 26.0213 325.894 26.5806 327.112 27.3041L324.546 32.7807C322.212 31.4651 319.662 30.8071 316.899 30.8071C315.255 30.8071 314.021 31.0374 313.198 31.4979C312.376 31.9585 311.965 32.5505 311.965 33.274C311.965 34.0964 312.409 34.6721 313.297 35.0009C314.185 35.3299 315.6 35.6423 317.54 35.9383C319.711 36.3003 321.487 36.695 322.869 37.1224C324.25 37.5171 325.45 38.2572 326.471 39.3427C327.491 40.4281 328 41.9412 328 43.8818C328 45.5265 327.507 46.9901 326.52 48.2729C325.533 49.5557 324.086 50.5591 322.178 51.2826C320.303 51.9733 318.067 52.3187 315.468 52.3187Z" fill="#F16318"/>
<path d="M24.3951 66.1317C24.6894 66.4259 25.0032 66.6902 25.3317 66.924C25.0032 66.6902 24.6896 66.4259 24.3951 66.1317ZM41.6721 46.6951L32.8223 55.545C31.9401 56.4274 30.7775 56.8685 29.6147 56.8685C28.4519 56.8685 27.2891 56.4272 26.4071 55.545L21.8414 50.9796L15.4567 57.1931L21.8414 50.9796L26.4071 55.545C27.2891 56.4272 28.4519 56.8685 29.6147 56.8685C30.7775 56.8685 31.9401 56.4274 32.8223 55.545L41.6721 46.6951Z" fill="white"/>
<path d="M29.6145 20.4713C29.0899 20.4713 28.5652 20.5609 28.0663 20.7407C28.5652 20.5609 29.0896 20.4713 29.6141 20.4715C30.6429 20.4715 31.6719 20.8169 32.5063 21.5076C32.5059 21.5071 32.5055 21.5065 32.505 21.5059C31.6705 20.8161 30.6423 20.4713 29.6145 20.4713ZM21.7399 13.9029L2.15277 33.4503C0.717592 34.8861 0 36.7781 0 38.6699C0 36.7781 0.717592 34.8861 2.15277 33.4503L21.7399 13.9029Z" fill="white"/>
<path fill-rule="evenodd" clip-rule="evenodd" d="M21.8414 50.9796L26.4071 55.545C28.1709 57.3091 31.0578 57.3097 32.8223 55.545L43.7034 44.6639H56.3015L34.8339 66.1316C31.9632 69.002 27.2658 69.002 24.3951 66.1316L15.4567 57.1931L21.8414 50.9796Z" fill="#F16318"/>
<path fill-rule="evenodd" clip-rule="evenodd" d="M33.6397 22.6124L32.8223 21.7948C31.0578 20.03 28.1709 20.03 26.4071 21.7948C21.8512 26.3509 17.2951 30.9068 12.7391 35.4629C11.402 36.8 11.078 38.7828 11.7687 40.4323C12.4283 42.0188 18.1722 47.3061 19.8366 48.5911L13.2738 55.0104C9.56688 51.3033 5.86015 47.596 2.15278 43.8893C-0.717592 41.0188 -0.717592 36.3214 2.15278 33.4505L23.2278 12.4183L10.8096 0H23.4077C34.3364 10.9294 45.3736 21.7478 56.3015 32.6761H43.7032L39.9474 28.9196L33.6397 22.6124Z" fill="#142039"/>
<path d="M41.6721 46.6951L32.8223 55.545C31.9401 56.4274 30.7775 56.8685 29.6147 56.8685C28.4519 56.8685 27.2891 56.4272 26.4071 55.545L21.8414 50.9796L15.4567 57.1931L24.3951 66.1317C24.6896 66.4259 25.0032 66.6902 25.3317 66.924C26.6065 67.8309 28.1099 68.2842 29.6137 68.2842C30.6457 68.2842 31.6777 68.0707 32.6356 67.6438C37.8412 62.096 41.1856 54.7814 41.6721 46.6951Z" fill="#F2721D"/>
<path d="M21.7399 13.9029L2.15277 33.4505C0.717592 34.886 0 36.7781 0 38.6699C0 40.5621 0.717592 42.454 2.15277 43.8893C5.86014 47.596 9.56688 51.3033 13.2738 55.0104L19.8366 48.5911C18.1722 47.3061 12.4283 42.0188 11.7687 40.4323C11.5339 39.8718 11.4164 39.2726 11.416 38.6734C11.4151 37.5097 11.8564 36.3455 12.7391 35.4629C17.2951 30.9068 21.8512 26.3509 26.4071 21.7948C26.8912 21.3105 27.4596 20.959 28.0663 20.7407C28.5652 20.5611 29.0899 20.4713 29.6145 20.4713C30.6423 20.4713 31.6705 20.8161 32.505 21.5058C29.4732 18.3116 25.8198 15.7138 21.7399 13.9029Z" fill="#1F304F"/>
</svg>
