<svg width="50" height="59" viewBox="0 0 50 59" fill="none" xmlns="http://www.w3.org/2000/svg">
<path opacity="0.25" d="M47.6551 48.4197C50.4516 41.8737 49.3308 34.4126 44.6 29.1637C43.8372 28.3184 43.6962 27.746 44.2837 26.6673C50.9397 14.6294 42.8375 0.0649739 29.5002 0.0216723C27.3617 0.0216723 25.2232 0.0555606 23.0847 0.00096286C22.2061 -0.0197466 21.9295 0.290896 21.9295 1.19647C21.9693 4.62859 21.9747 8.0626 21.9295 11.4966C21.9151 12.4737 22.2097 12.775 23.1461 12.7599C26.4416 12.7072 29.7389 12.726 33.0361 12.7599C33.5784 12.7599 34.4552 12.47 34.1714 13.6655L34.1569 21.9493C34.269 23.0073 33.4953 22.723 32.9982 22.7268C29.7895 22.7494 26.5808 22.7776 23.3739 22.7136C22.2766 22.691 21.897 23.0243 21.9277 24.2009C22 27.168 21.944 30.1408 21.9567 33.1098C21.9567 35.3314 22.8045 36.188 24.9719 36.1936C28.4915 36.1936 32.013 36.2294 35.5308 36.1767C36.5883 36.1616 36.9444 36.5532 36.9191 37.6282C36.8649 40.0399 36.8685 42.4535 36.9191 44.8671C36.939 45.8988 36.5702 46.2471 35.5886 46.2358C31.8918 46.1944 28.1915 46.2584 24.4947 46.2114C17.6435 46.1248 12.3993 40.6989 12.3649 33.5635C12.3119 22.9377 12.3161 12.3112 12.3776 1.68408C12.3776 0.330432 12.0161 -0.0253948 10.7398 0.00472813C7.17862 0.0894488 3.61382 0.0254378 0.0508207 0.0197897C0.0508207 12.5867 -0.0847576 25.1573 0.0869749 37.7224C0.229784 48.2654 8.4151 57.387 18.4913 58.6201C23.4137 59.2226 28.3668 58.9722 33.2982 58.7895C36.8594 58.6578 40.0139 57.1422 42.8249 54.8642C42.8249 54.8453 46.603 51.1233 47.6551 48.4197Z" fill="#18191D"/>
</svg>
