<svg width="65" height="59" viewBox="0 0 65 59" fill="none" xmlns="http://www.w3.org/2000/svg">
<path d="M13.4086 29.5C17.1041 29.5 20.1131 26.491 20.1131 22.7955C20.1131 19.1 17.1041 16.091 13.4086 16.091C9.71308 16.091 6.7041 19.1 6.7041 22.7955C6.7041 26.491 9.71308 29.5 13.4086 29.5Z" fill="#2196F3"/>
<path d="M19.443 32.1818H7.37494C3.30666 32.1818 0 35.4885 0 39.5568V40.8977C0 42.0079 0.901084 42.909 2.01135 42.909H24.8066C25.9169 42.909 26.818 42.0079 26.818 40.8977V39.5568C26.818 35.4885 23.5113 32.1818 19.443 32.1818Z" fill="#2196F3"/>
<path d="M13.4086 16.091C9.71308 16.091 6.7041 19.1 6.7041 22.7955C6.7041 26.491 9.71308 29.5 13.4086 29.5V16.091Z" fill="#1D83D4"/>
<path d="M13.409 32.1818H7.37494C3.30666 32.1818 0 35.4885 0 39.5568V40.8977C0 42.0079 0.901084 42.909 2.01135 42.909H13.409V32.1818Z" fill="#1D83D4"/>
<path d="M51.7857 11.4247C51.3164 11.4247 50.8417 11.2611 50.4609 10.9259C45.3843 6.4741 38.8916 4.02294 32.1818 4.02294C25.8581 4.02294 19.6739 6.24079 14.7662 10.2715C13.9053 10.9768 12.6368 10.8508 11.9342 9.99262C11.2289 9.13445 11.3549 7.86596 12.2131 7.16064C17.8368 2.54259 24.9302 0.000244141 32.1818 0.000244141C39.8678 0.000244141 47.3018 2.8054 53.1132 7.90082C53.9472 8.63295 54.0304 9.90412 53.2982 10.7408C52.9013 11.1914 52.3435 11.4247 51.7857 11.4247Z" fill="#607D8B"/>
<path d="M19.4429 10.7274H12.7384C11.6281 10.7274 10.7271 9.82631 10.7271 8.71605V2.01155C10.7271 1.19897 11.2178 0.464157 11.9687 0.153068C12.7196 -0.15802 13.5858 0.0136147 14.1598 0.590201L20.8642 7.2947C21.4382 7.8686 21.6125 8.73482 21.3014 9.48573C20.9903 10.2366 20.2555 10.7274 19.4429 10.7274Z" fill="#607D8B"/>
<path d="M32.1816 0.000244141C26.9843 0.000244141 21.8701 1.30628 17.3164 3.74672L18.8128 5.24316C23.7688 2.95558 28.3359 2.08668 32.4149 2.08668C45.2876 2.08668 53.2954 10.7382 53.2954 10.7382C54.0275 9.90144 53.9444 8.63027 53.1104 7.89814C47.3016 2.8054 39.8676 0.000244141 32.1816 0.000244141Z" fill="#546D79"/>
<path d="M12.7357 0.000244141C12.4783 0.000244141 12.2154 0.0511984 11.9687 0.153107C11.2178 0.464195 10.7271 1.19901 10.7271 2.01159V8.71609C10.7271 9.12908 10.8531 9.51526 11.065 9.8344C13.736 7.90082 16.324 6.39365 18.8127 5.24316L17.3162 3.74672L14.1598 0.59024C13.7763 0.204061 13.2613 0.000244141 12.7357 0.000244141Z" fill="#546D79"/>
<path d="M12.7387 47.5753C13.208 47.5753 13.6827 47.7389 14.0635 48.0741C19.1401 52.5259 25.6301 54.9771 32.3399 54.9771C38.6636 54.9771 44.8478 52.7592 49.7555 48.7285C50.6164 48.0205 51.8822 48.1465 52.5875 49.0074C53.2928 49.8656 53.1668 51.134 52.3086 51.8394C46.6875 56.4574 39.5942 58.9998 32.3426 58.9998C24.6566 58.9998 17.2226 56.1946 11.4112 51.0992C10.5771 50.3671 10.494 49.0959 11.2261 48.2592C11.623 47.8086 12.1809 47.5753 12.7387 47.5753Z" fill="#607D8B"/>
<path d="M45.0813 48.2726H51.7858C52.896 48.2726 53.7971 49.1737 53.7971 50.2839V56.9884C53.7971 57.801 53.3064 58.5358 52.5554 58.8469C51.8045 59.158 50.9383 58.9864 50.3644 58.4098L43.6599 51.7053C43.086 51.1314 42.9117 50.2652 43.2228 49.5143C43.5339 48.7634 44.2687 48.2726 45.0813 48.2726Z" fill="#607D8B"/>
<path d="M32.3424 58.9998C37.5397 58.9998 42.6539 57.6937 47.2076 55.2533L45.7111 53.7569C40.7552 56.0444 36.1881 56.9133 32.1091 56.9133C19.2364 56.9133 11.2286 48.2619 11.2286 48.2619C10.4965 49.0986 10.5796 50.3697 11.4136 51.1019C17.2224 56.1946 24.6563 58.9998 32.3424 58.9998Z" fill="#546D79"/>
<path d="M51.7881 58.9998C52.0483 58.9998 52.3084 58.9488 52.5578 58.8469C53.3087 58.5359 53.7995 57.801 53.7995 56.9885V50.284C53.7995 49.871 53.6734 49.4848 53.4616 49.1656C50.7905 51.0992 48.2026 52.6064 45.7139 53.7569L47.2103 55.2533L50.3668 58.4098C50.7476 58.796 51.2625 58.9998 51.7881 58.9998Z" fill="#546D79"/>
<path d="M50.9545 29.5C54.65 29.5 57.659 26.491 57.659 22.7955C57.659 19.1 54.65 16.091 50.9545 16.091C47.259 16.091 44.25 19.1 44.25 22.7955C44.25 26.491 47.259 29.5 50.9545 29.5Z" fill="#4CAF50"/>
<path d="M56.988 32.1818H44.9199C40.8516 32.1818 37.5449 35.4885 37.5449 39.5568V40.8977C37.5449 42.0079 38.446 42.909 39.5563 42.909H62.3515C63.4618 42.909 64.3629 42.0079 64.3629 40.8977V39.5568C64.3629 35.4885 61.0562 32.1818 56.988 32.1818Z" fill="#4CAF50"/>
<path d="M50.954 16.091C47.2585 16.091 44.2495 19.1 44.2495 22.7955C44.2495 26.491 47.2585 29.5 50.954 29.5V16.091Z" fill="#429846"/>
<path d="M50.9539 32.1818H44.9199C40.8516 32.1818 37.5449 35.4885 37.5449 39.5568V40.8977C37.5449 42.0079 38.446 42.909 39.5563 42.909H50.9539V32.1818Z" fill="#429846"/>
</svg>
