<svg width="49" height="55" viewBox="0 0 49 55" fill="none" xmlns="http://www.w3.org/2000/svg">
<path d="M24.2762 55C37.6835 55 48.5524 52.3065 48.5524 48.9838C48.5524 45.6611 37.6835 42.9676 24.2762 42.9676C10.8688 42.9676 0 45.6611 0 48.9838C0 52.3065 10.8688 55 24.2762 55Z" fill="#B8CBCD"/>
<path d="M32.5088 3.00997C31.7418 2.19308 30.1977 1.5249 29.0773 1.5249H9.33781C8.21738 1.5249 7.30066 2.44162 7.30066 3.56205V46.2882C7.30066 47.4086 8.21738 48.3268 9.33781 48.3284L40.9136 48.3767C42.034 48.3783 42.9507 47.4631 42.9507 46.3427V16.1664C42.9507 15.046 42.3233 13.4611 41.5563 12.6442L32.5088 3.00997Z" fill="#B2EDA6"/>
<path d="M41.4224 16.2942H29.7088C29.146 16.2942 28.6902 15.8379 28.6902 15.2756V2.54348C28.6902 1.98122 29.146 1.5249 29.7088 1.5249C30.271 1.5249 30.7273 1.98122 30.7273 2.54348V14.2571H41.4224C41.9846 14.2571 42.4409 14.7134 42.4409 15.2756C42.4409 15.8379 41.9846 16.2942 41.4224 16.2942Z" fill="#3C663E"/>
<path d="M14.8299 18.3315C14.6384 18.3315 14.4448 18.2776 14.2727 18.165C13.8021 17.8569 13.6702 17.2254 13.9783 16.7548L20.6475 6.56906C20.9556 6.09847 21.5871 5.96708 22.0577 6.27469C22.5282 6.5828 22.6601 7.21433 22.352 7.68491L15.6829 17.8706C15.4879 18.1691 15.1619 18.3315 14.8299 18.3315Z" fill="#3C663E"/>
<path d="M21.501 18.3313C21.1689 18.3313 20.843 18.1693 20.6479 17.8709L13.9788 7.68513C13.6707 7.21455 13.8026 6.58303 14.2732 6.27491C14.7448 5.96679 15.3758 6.0987 15.6834 6.56928L22.3525 16.755C22.6606 17.2256 22.5287 17.8571 22.0582 18.1652C21.886 18.2773 21.692 18.3313 21.501 18.3313Z" fill="#3C663E"/>
<path d="M12.9027 21.3871H37.3485V42.7771H12.9027V21.3871Z" fill="white"/>
<path d="M37.348 43.7956H12.9022C12.3395 43.7956 11.8837 43.3393 11.8837 42.777V21.387C11.8837 20.8247 12.3395 20.3684 12.9022 20.3684H37.348C37.9103 20.3684 38.3666 20.8247 38.3666 21.387V42.777C38.3666 43.3393 37.9103 43.7956 37.348 43.7956ZM13.9208 41.7585H36.3294V22.4056H13.9208V41.7585Z" fill="#3C663E"/>
<path d="M37.3485 29.5356H12.9027C12.34 29.5356 11.8842 29.0792 11.8842 28.517C11.8842 27.9547 12.34 27.4984 12.9027 27.4984H37.3485C37.9107 27.4984 38.3671 27.9542 38.3671 28.517C38.3671 29.0797 37.9107 29.5356 37.3485 29.5356Z" fill="#3C663E"/>
<path d="M37.3485 36.6656H12.9027C12.34 36.6656 11.8842 36.2092 11.8842 35.647C11.8842 35.0847 12.34 34.6284 12.9027 34.6284H37.3485C37.9107 34.6284 38.3671 35.0847 38.3671 35.647C38.3671 36.2092 37.9107 36.6656 37.3485 36.6656Z" fill="#3C663E"/>
<path d="M25.6349 43.2863C25.0721 43.2863 24.6163 42.83 24.6163 42.2677V21.387C24.6163 20.8247 25.0721 20.3684 25.6349 20.3684C26.1972 20.3684 26.6535 20.8247 26.6535 21.387V42.2677C26.6535 42.83 26.1972 43.2863 25.6349 43.2863Z" fill="#3C663E"/>
<path d="M40.9155 49.907C40.914 49.907 40.9125 49.907 40.911 49.907L9.33519 49.8592C7.37087 49.8561 5.77222 48.2554 5.77222 46.2911V3.56501C5.77222 1.59916 7.37138 0 9.33722 0H29.0767C30.6152 0 32.5694 0.845925 33.6221 1.96687L42.6695 11.601C43.7003 12.6996 44.478 14.6634 44.478 16.1693V46.3451C44.478 47.2954 44.1062 48.1902 43.4314 48.864C42.7576 49.5368 41.8643 49.907 40.9155 49.907ZM40.913 46.8544C41.0923 46.8544 41.2165 46.7576 41.2726 46.7016C41.3286 46.6456 41.4223 46.5249 41.4223 46.3451V16.1693C41.4223 15.4334 40.9456 14.2295 40.4419 13.6927L31.3944 4.0585V4.05799C30.9193 3.55176 29.7708 3.05521 29.0767 3.05521H9.33722C9.06119 3.05521 8.82794 3.28846 8.82794 3.56449V46.2906C8.82794 46.5676 9.05966 46.8534 9.33722 46.8539L40.913 46.8544Z" fill="#3C663E"/>
</svg>
