<svg width="59" height="55" viewBox="0 0 59 55" fill="none" xmlns="http://www.w3.org/2000/svg">
<path d="M56.8309 47.6672H31.1654C30.1534 47.6672 29.3322 46.8459 29.3322 45.834C29.3322 44.822 29.3322 10.1809 29.3322 9.16894C29.3322 8.15699 30.1534 7.33569 31.1654 7.33569H56.8309C57.8429 7.33569 58.6642 8.15699 58.6642 9.16894V45.834C58.6642 46.8459 57.8429 47.6672 56.8309 47.6672Z" fill="#ECEFF1"/>
<path d="M38.499 18.3352H31.166C30.1541 18.3352 29.3328 17.5139 29.3328 16.502C29.3328 15.49 30.1541 14.6687 31.166 14.6687H38.499C39.511 14.6687 40.3323 15.49 40.3323 16.502C40.3323 17.5139 39.511 18.3352 38.499 18.3352Z" fill="#388E3C"/>
<path d="M38.4985 25.6682H31.1655C30.1536 25.6682 29.3323 24.8469 29.3323 23.835C29.3323 22.823 30.1536 22.0017 31.1655 22.0017H38.4985C39.5105 22.0017 40.3318 22.823 40.3318 23.835C40.3318 24.8469 39.5105 25.6682 38.4985 25.6682Z" fill="#388E3C"/>
<path d="M38.4985 33.0012H31.1655C30.1536 33.0012 29.3323 32.1799 29.3323 31.168C29.3323 30.156 30.1536 29.3347 31.1655 29.3347H38.4985C39.5105 29.3347 40.3318 30.156 40.3318 31.168C40.3318 32.1799 39.5105 33.0012 38.4985 33.0012Z" fill="#388E3C"/>
<path d="M38.4985 40.3342H31.1655C30.1536 40.3342 29.3323 39.5129 29.3323 38.501C29.3323 37.489 30.1536 36.6677 31.1655 36.6677H38.4985C39.5105 36.6677 40.3318 37.489 40.3318 38.501C40.3318 39.5129 39.5105 40.3342 38.4985 40.3342Z" fill="#388E3C"/>
<path d="M49.4984 18.3352H45.8319C44.82 18.3352 43.9987 17.5139 43.9987 16.502C43.9987 15.49 44.82 14.6687 45.8319 14.6687H49.4984C50.5104 14.6687 51.3317 15.49 51.3317 16.502C51.3317 17.5139 50.5104 18.3352 49.4984 18.3352Z" fill="#388E3C"/>
<path d="M49.4984 25.6682H45.8319C44.82 25.6682 43.9987 24.8469 43.9987 23.835C43.9987 22.823 44.82 22.0017 45.8319 22.0017H49.4984C50.5104 22.0017 51.3317 22.823 51.3317 23.835C51.3317 24.8469 50.5104 25.6682 49.4984 25.6682Z" fill="#388E3C"/>
<path d="M49.4984 33.0012H45.8319C44.82 33.0012 43.9987 32.1799 43.9987 31.168C43.9987 30.156 44.82 29.3347 45.8319 29.3347H49.4984C50.5104 29.3347 51.3317 30.156 51.3317 31.168C51.3317 32.1799 50.5104 33.0012 49.4984 33.0012Z" fill="#388E3C"/>
<path d="M49.4984 40.3342H45.8319C44.82 40.3342 43.9987 39.5129 43.9987 38.501C43.9987 37.489 44.82 36.6677 45.8319 36.6677H49.4984C50.5104 36.6677 51.3317 37.489 51.3317 38.501C51.3317 39.5129 50.5104 40.3342 49.4984 40.3342Z" fill="#388E3C"/>
<path d="M32.3349 0.424118C31.9169 0.0758004 31.3559 -0.0745262 30.828 0.0354688L1.49593 5.53522C0.626972 5.69655 0 6.45185 0 7.33547V47.667C0 48.547 0.626972 49.3059 1.49593 49.4672L30.828 54.967C30.938 54.989 31.0516 55 31.1653 55C31.5906 55 32.0049 54.8533 32.3349 54.5784C32.7565 54.23 32.9985 53.7094 32.9985 53.1667V1.83572C32.9985 1.28941 32.7565 0.772436 32.3349 0.424118Z" fill="#2E7D32"/>
<path d="M25.2109 33.6282L19.4142 27.0028L25.2769 19.4645C25.9002 18.6652 25.7536 17.5139 24.9579 16.8906C24.1623 16.2673 23.011 16.4139 22.3841 17.2096L16.954 24.1906L12.3782 18.9622C11.7072 18.1922 10.5486 18.1225 9.79329 18.7898C9.03065 19.4571 8.95366 20.6158 9.62096 21.3747L14.6624 27.1385L9.5513 33.7088C8.92799 34.5081 9.07465 35.6594 9.87028 36.2827C10.2076 36.543 10.6072 36.6677 10.9996 36.6677C11.5459 36.6677 12.0849 36.4257 12.4478 35.9601L17.1226 29.947L22.4537 36.0371C22.8167 36.455 23.3227 36.6677 23.8323 36.6677C24.2613 36.6677 24.6903 36.5174 25.0386 36.2131C25.8012 35.5458 25.8782 34.3871 25.2109 33.6282Z" fill="#FAFAFA"/>
</svg>
