<svg width="35" height="21" viewBox="0 0 35 21" fill="none" xmlns="http://www.w3.org/2000/svg">
<path opacity="0.25" d="M18.5116 14.0991L18.7349 13.575L21.4528 7.18322L25.1527 16.3649L25.4581 17.122C23.3484 16.1934 20.931 15.1481 18.5116 14.0991ZM6.96299 12.2663L6.53071 12.0683L8.44184 8.03229L8.87491 8.23132L6.96299 12.2663ZM35 19.6491H31.7591C31.5972 19.5 31.4483 19.3278 31.3127 19.1311C31.2289 19.0098 31.15 18.878 31.0758 18.7379L22.6949 0.62738H22.4406C22.3839 1.2206 21.914 2.43263 21.0292 4.26629L17.1589 12.8908L16.9257 13.4121C16.7901 13.3523 16.6544 13.2936 16.5186 13.2348C15.8888 12.961 15.264 12.689 14.6507 12.4217C14.4592 12.3384 14.2762 12.2862 14.3031 12.074C14.3166 11.9678 14.3255 11.8608 14.3293 11.7556C14.3379 11.4807 14.0211 11.3358 13.8131 11.5196C13.8093 11.5224 13.8055 11.5262 13.8025 11.5281L13.3895 11.3396L13.8785 10.3076C14.1539 10.2621 14.414 10.0716 14.5515 9.78166C14.6565 9.55894 14.67 9.31914 14.6075 9.11257C14.5439 8.90504 14.4033 8.73168 14.2001 8.63873L14.1482 8.61417C14.0173 8.10524 13.6888 7.6731 13.2018 7.44851L10.5213 6.21855C10.0331 5.99488 9.4854 6.02518 9.00607 6.25451L8.95295 6.22988C8.54764 6.04415 8.049 6.25451 7.83799 6.69986C7.76879 6.8449 7.73983 6.99647 7.74485 7.14245C7.75049 7.28835 7.79092 7.42766 7.86213 7.54609L5.77962 11.9422C5.50244 11.9886 5.24256 12.1773 5.10577 12.4682C4.89396 12.9136 5.05086 13.4262 5.45618 13.612L5.50908 13.6356C5.63922 14.1436 5.9675 14.5777 6.45468 14.8013L9.135 16.0313C9.62319 16.2549 10.1719 16.2237 10.6513 15.9963L10.7034 16.0199C11.1087 16.2057 11.6073 15.9953 11.8193 15.5489C11.9559 15.259 11.9366 14.9416 11.796 14.7037L12.2707 13.7011L12.6972 13.8972C12.706 14.1578 13.0101 14.2914 13.2123 14.1124C13.2924 14.0423 13.3692 13.9673 13.4444 13.8878C13.5917 13.7324 13.7486 13.8365 13.9372 13.9275C14.5401 14.2175 15.1524 14.5141 15.7705 14.8136C15.9139 14.8828 16.0584 14.953 16.2028 15.023C16.7304 15.2789 17.2618 15.5357 17.7923 15.7925C20.6313 17.1703 23.4607 18.5442 25.7924 19.6491H16.5532C16.4904 19.5206 16.4578 19.3973 16.4578 19.2798C16.4578 19.0676 16.5041 18.8402 16.5984 18.5994L17.568 16.3184C17.0345 16.0588 16.5003 15.8002 15.9687 15.5423L14.5101 18.7937C14.3727 19.0464 14.217 19.2679 14.0437 19.4591V18.6001C14.0437 18.2838 13.7832 18.0272 13.4617 18.0272H13.4499C13.2368 17.4966 12.7161 17.1481 12.1366 17.1481H3.17796C2.59825 17.1481 2.07747 17.4966 1.86446 18.0272H1.85279C1.53135 18.0272 1.27066 18.2838 1.27066 18.6001V19.6491H0V20.6272H11.8855V20.6274H17.9252V20.6272H24.7263V20.6274H27.8831H33.1641H33.7293V20.6272H35V19.6491Z" fill="#1B3356"/>
</svg>
