<svg width="37" height="46" viewBox="0 0 37 46" fill="none" xmlns="http://www.w3.org/2000/svg">
<g opacity="0.25">
<path d="M18.4074 33.619C17.1468 34.4305 16.3735 35.5268 15.8579 36.8242C14.9869 39.0493 15.052 41.3353 15.4713 43.6354C15.5676 44.1666 15.6922 44.692 15.8084 45.2487H6.68985L7.12467 42.195L6.94621 42.1525C6.47881 42.9513 5.9845 43.7346 5.55251 44.5532C5.26924 45.0971 4.91374 45.3733 4.27779 45.2798C3.88121 45.2218 3.46905 45.2685 2.95208 45.2685C4.40243 43.6482 5.21117 41.8083 5.80179 39.8651C5.90624 39.5142 5.91649 39.142 5.83154 38.7858C5.31173 36.7916 5.64741 35.0183 6.9887 33.4136C7.2054 33.1544 7.10909 32.6332 7.15725 32.2338L6.94904 32.1389C6.74367 32.3995 6.44624 32.6318 6.34992 32.9278C6.0015 33.9929 5.61908 35.0622 5.43496 36.1599C4.90665 39.2858 3.63901 42.093 1.99179 44.7643C1.72127 45.2019 1.43658 45.3676 0.858704 45.2048C3.56395 41.2305 4.833 36.7987 5.33156 31.9462C4.452 32.7961 4.23955 33.8583 4.57381 35.3101C3.91945 35.2988 3.49171 34.9376 3.15745 34.4518C2.36996 33.296 2.39404 32.0128 2.64048 30.714C2.97616 28.9676 4.09933 27.7057 5.29332 26.4947C6.22812 25.5443 7.15158 24.5812 7.71812 23.3475C7.88525 22.9821 8.01131 22.5969 8.18269 22.1507L6.50714 23.3022C6.49014 23.1606 6.47173 23.1181 6.48448 23.1053C7.56657 21.9722 8.00848 20.5927 7.98298 19.0489C7.97024 18.2486 8.17702 17.5376 8.73224 16.9314C8.77544 16.8611 8.80277 16.7823 8.81231 16.7003C8.82185 16.6183 8.81337 16.5353 8.78747 16.4569C8.64515 16.088 8.59589 15.6896 8.64406 15.2971C8.69223 14.9046 8.83634 14.53 9.06366 14.2064C9.1409 14.0442 9.20209 13.8748 9.24637 13.7007C9.52965 12.9925 9.70669 12.2178 10.1188 11.5974C11.0664 10.1655 12.7575 9.93745 14.1484 10.9459C15.9925 9.63152 18.2927 10.4261 19.032 13.2588C19.1561 13.6998 19.3114 14.1315 19.4966 14.5505C19.8138 15.3069 19.8875 16.0774 19.3804 16.7431C19.0178 17.2161 19.0532 17.6509 19.2714 18.0914C19.4724 18.5122 19.7376 18.8993 20.0574 19.2387C20.5404 19.7316 21.0956 20.1536 21.6749 20.655C22.1381 19.9171 22.5332 19.1749 23.0332 18.5135C24.349 16.7629 24.8391 14.8168 24.9424 12.6413C25.0416 10.6131 25.4906 8.59758 25.8333 6.58635C25.975 5.79602 25.7427 5.16999 25.2937 4.5468C24.7272 3.75505 24.0516 3.30748 23.0445 3.5171C22.6947 3.58934 22.3364 3.63183 21.9837 3.68707C22.1409 4.02133 22.2599 4.3825 22.4638 4.67852C23.0615 5.56374 23.7131 6.41356 24.3051 7.30728C24.4692 7.56906 24.5414 7.87802 24.5105 8.18542C24.3902 9.05792 23.953 9.85565 23.2823 10.4265C22.6116 10.9974 21.7543 11.3015 20.8737 11.2808C19.9932 11.2602 19.1511 10.9162 18.5079 10.3145C17.8647 9.71282 17.4654 8.89548 17.3862 8.01829C17.379 7.78041 17.4485 7.54652 17.5845 7.35119C18.2927 6.31252 19.0169 5.28614 19.7572 4.27202C19.9484 4.00858 20.022 3.81171 19.8379 3.48594C19.7086 3.24292 19.6675 2.96257 19.7218 2.69268C19.776 2.42279 19.9222 2.18005 20.1353 2.00585C20.5687 1.63618 21.1509 1.62768 21.6565 1.90387C21.9561 2.06684 22.2857 2.16708 22.6253 2.19848C23.2032 2.24522 23.7881 2.19139 24.3688 2.2183C24.7937 2.23813 24.9354 2.00868 24.9963 1.66168C25.1478 0.82036 25.2526 0.930836 26.0585 0.944999C26.9636 0.960579 27.5415 1.69992 28.3899 1.70558C28.4275 1.70779 28.4632 1.72336 28.4904 1.74949C29.4691 2.73386 30.6844 1.98744 31.7707 2.18856C31.8614 2.20556 31.9846 2.05826 32.0894 1.98461C32.6375 1.60219 33.2366 1.60927 33.6955 2.00443C33.9166 2.1837 34.0665 2.43586 34.1184 2.71567C34.1703 2.99549 34.1208 3.28465 33.9788 3.53127C33.823 3.81454 33.8797 3.99442 34.0482 4.22953C34.7847 5.24648 35.5198 6.26626 36.2209 7.30869C36.3818 7.55102 36.4571 7.84017 36.4348 8.13018C36.3241 8.98847 35.9063 9.77762 35.2587 10.3517C34.6112 10.9257 33.7776 11.2458 32.9122 11.2527C32.0469 11.2596 31.2083 10.9529 30.5516 10.3893C29.8949 9.82563 29.4646 9.04324 29.3402 8.18684C29.3057 7.88004 29.3772 7.57067 29.5428 7.31011C30.251 6.24926 31.0073 5.2224 31.7353 4.17713C31.8217 4.05249 31.9322 3.82729 31.8769 3.75222C31.8215 3.68522 31.753 3.63029 31.6755 3.59082C31.598 3.55136 31.5133 3.5282 31.4265 3.52277C30.6249 3.50011 29.8218 3.51286 29.1335 3.51286C28.2992 5.37537 28.3063 7.24213 28.4494 9.14429C28.6887 12.3339 28.21 15.4457 27.4579 18.5489C26.9027 20.8151 26.2058 23.0175 25.1592 25.101C24.815 25.7837 24.3603 26.4125 23.8943 27.166C24.2173 27.4493 24.5572 27.7864 24.9269 28.0824C25.3787 28.4464 25.8801 28.7523 26.3163 29.1348C27.2426 29.9463 27.3078 30.976 26.5996 31.8882C26.4834 31.3216 26.5359 30.5412 26.1747 30.0965C25.8135 29.6517 25.0274 29.4818 24.2782 29.1234C25.322 30.9874 25.8957 32.7394 24.6733 34.5339C23.9071 35.6571 22.7174 36.0112 21.529 36.0438C21.5715 35.5849 21.7245 35.1359 21.6253 34.752C21.3874 33.8371 20.3322 33.5963 19.6736 34.2761C18.9158 35.0594 18.7246 36.0863 18.5773 37.1089C18.2332 39.494 18.736 42.7247 20.5602 45.2529C19.9937 45.2529 19.4824 45.2855 18.9768 45.2331C18.828 45.2175 18.6722 44.9838 18.5717 44.8195C16.3579 41.1611 16.3976 37.4658 18.4074 33.619ZM12.1952 26.5513C12.1655 27.7864 11.4077 28.5427 10.5707 29.224C9.65458 29.9757 8.92702 30.9312 8.44613 32.0142C8.39786 32.1416 8.35858 32.2722 8.32857 32.4051C9.27753 32.1417 10.1982 31.9519 11.0678 31.6261C12.0394 31.2621 13.0323 30.8783 13.9005 30.3174C14.994 29.6092 15.5534 28.462 15.9018 27.217L13.6045 28.6971L13.4742 28.5385C14.8721 26.8927 15.5421 24.9579 15.8409 22.9396H12.6669C12.3397 24.237 12.2859 25.55 13.2901 26.8941L12.1952 26.5513ZM22.9794 23.7512C23.917 22.2187 24.8702 20.6579 25.8263 19.0985C26.2129 18.4668 26.3192 17.7756 26.2979 17.0476C26.2795 16.3932 26.2158 15.7275 26.2979 15.0845C26.5996 12.8764 26.9749 10.6782 27.2894 8.47152C27.4409 7.40501 27.7341 6.33707 27.4437 5.24506C26.7356 5.35129 26.516 5.24506 26.4905 4.67852C26.4721 4.28194 26.4183 4.00008 25.9721 3.89244C25.8702 3.86695 25.8206 3.62192 25.7384 3.46753C26.203 3.3259 26.7441 3.51852 26.9126 2.90099C26.4976 2.92082 26.1265 2.9194 25.7611 2.96189C25.5642 2.98455 25.2682 3.03129 25.2101 3.15593C25.1393 3.3089 25.2215 3.58084 25.3263 3.75647C25.4467 3.95334 25.6662 4.08931 25.8348 4.25928C25.9764 4.40091 26.1945 4.54255 26.2257 4.70543C26.3574 5.41361 26.5684 6.1487 26.5019 6.85121C26.2781 9.18112 25.9155 11.4983 25.6648 13.8268C25.4863 15.4853 25.1464 17.0702 24.2484 18.5107C23.6819 19.4143 23.1904 20.3661 22.6904 21.3066C22.6017 21.4813 22.5695 21.6793 22.5984 21.8731C22.7032 22.4807 22.8448 23.0954 22.9808 23.7512H22.9794ZM10.9588 18.6537C11.242 19.3973 11.4247 19.9865 11.6768 20.5474C12.1542 21.6026 13.0026 22.1819 14.1555 22.1819C15.3084 22.1819 16.1455 21.5927 16.6369 20.5516C16.8281 20.1466 16.9273 19.7018 17.1227 19.2967C17.3635 18.8024 17.1454 18.5886 16.7134 18.4186C15.4387 17.913 14.1073 17.9087 12.783 18.1084C12.1896 18.1977 11.6202 18.4498 10.9588 18.6537ZM8.44047 38.7023C7.85268 37.1287 8.12604 36.2704 9.47016 35.3682C9.85824 35.1075 10.2761 34.8937 10.6826 34.66C11.657 34.1034 12.657 33.5864 13.6031 32.983C14.5025 32.4336 15.1985 31.6063 15.586 30.6262C14.7107 31.5128 13.6158 32.0213 12.4856 32.4675C11.4573 32.8697 10.4007 33.2068 9.40217 33.6714C8.65521 34.0093 7.95572 34.4435 7.32154 34.9631C6.59212 35.5778 6.61337 36.4545 6.89664 37.3029C7.13458 38.0196 7.58074 38.5309 8.44047 38.7023ZM21.0928 23.9622C19.566 25.4777 19.4342 27.0074 20.6268 28.5711C21.0914 29.1815 21.6027 29.7565 22.0757 30.3599C22.8689 31.3754 23.2655 32.5142 23.0814 33.8158C23.0417 34.0991 22.9879 34.371 22.9284 34.7166C23.7782 34.2606 24.1309 33.6105 24.2215 32.7734C24.3561 31.5242 23.9453 30.452 23.1918 29.486C22.7301 28.8954 22.2485 28.3218 21.7967 27.7255C21.1509 26.8757 20.8166 25.9211 20.9469 24.8375C20.9795 24.5812 21.0319 24.3277 21.0928 23.9622ZM35.4462 7.41634C34.6983 6.39231 33.9788 5.39803 33.2466 4.41083C32.9874 4.06099 32.7282 4.12756 32.4874 4.45473C32.0398 5.07651 31.5823 5.69121 31.1305 6.30875C30.8628 6.67417 30.5966 7.04242 30.326 7.41492L35.4462 7.41634ZM23.5105 7.40642C22.7457 6.35974 22.0276 5.3612 21.2882 4.37825C21.0418 4.05107 20.7812 4.14738 20.5631 4.44765C20.1452 5.02269 19.7246 5.5949 19.3068 6.16994L18.406 7.40642H23.5105ZM16.9584 15.7941C16.2743 14.6752 15.3495 14.0067 14.256 13.5633C14.1858 13.539 14.1095 13.539 14.0393 13.5633C12.9062 13.9712 11.9771 14.6242 11.3482 15.8097C13.1766 15.2563 15.127 15.2509 16.9584 15.7941ZM8.39939 25.1562C7.53117 25.972 6.74509 26.6406 6.04541 27.3884C5.37566 28.0924 4.76503 28.8503 4.21972 29.6546C3.88971 30.1503 3.76082 30.7792 3.54695 31.3358C4.43642 30.4506 5.27207 29.5738 6.15447 28.7509C7.18699 27.7793 7.9844 26.6845 8.39939 25.1562ZM7.57932 30.0497L7.69971 30.1007C7.98298 29.741 8.25776 29.3656 8.56652 29.0257C8.87529 28.6858 9.2747 28.3529 9.5948 27.9932C9.93306 27.6455 10.2371 27.266 10.5027 26.8601C11.099 25.8686 11.0225 24.3772 10.361 23.5232C10.361 25.1973 9.74635 26.6052 8.70249 27.8501C8.46739 28.117 8.26485 28.4108 8.09912 28.7254C7.89092 29.1461 7.74928 29.6036 7.57932 30.0455V30.0497ZM32.8358 8.58483L30.4025 8.38938C30.6858 9.39357 31.4733 10.1131 32.3557 10.1881C32.1092 9.57628 32.2452 9.05506 32.8358 8.58483ZM20.2812 10.2675C19.9979 9.5777 20.1722 9.05082 20.6693 8.59192L18.5065 8.38371C18.6227 9.33692 19.1609 9.92896 20.2812 10.2675ZM8.72374 20.614C9.55939 19.7967 9.68545 18.801 9.50557 17.6212C8.21668 18.4172 8.9107 19.6324 8.72374 20.614ZM13.4459 11.9841C13.3108 11.7097 13.0844 11.4909 12.8054 11.3655C12.5264 11.2402 12.2125 11.216 11.9176 11.2972C11.3383 11.4388 10.8639 11.9657 10.8341 12.5393C11.5664 11.7008 12.4714 11.7192 13.4459 11.9841ZM21.0007 2.59222C20.8024 2.45059 20.6735 2.28346 20.5673 2.2962C20.4976 2.31868 20.4349 2.35879 20.3853 2.41264C20.3356 2.46649 20.3008 2.53226 20.284 2.60355C20.284 2.70553 20.4639 2.88683 20.5758 2.88683C20.6877 2.88683 20.8067 2.73811 21.0007 2.59222ZM32.9973 2.57523C32.7806 2.43359 32.6432 2.27921 32.5285 2.29196C32.4137 2.3047 32.3188 2.49308 32.2154 2.60497C32.3288 2.70695 32.4364 2.88824 32.5568 2.88824C32.6772 2.88824 32.7933 2.73103 32.9973 2.57523Z" fill="#334480"/>
<path d="M12.1966 26.5499L13.2915 26.8955C12.2873 25.5514 12.3411 24.237 12.6683 22.941H15.8423C15.5435 24.9594 14.8735 26.8955 13.4756 28.5399L13.6059 28.6985L15.9032 27.2142C15.5548 28.4592 14.9953 29.605 13.9019 30.3146C13.0379 30.8811 12.0465 31.2593 11.0692 31.6233C10.1995 31.9491 9.27892 32.1389 8.32996 32.4023C8.35996 32.2694 8.39925 32.1388 8.44751 32.0114C8.9284 30.9284 9.65596 29.9728 10.5721 29.2212C11.4077 28.5427 12.1669 27.785 12.1966 26.5499Z" fill="white"/>
<path d="M22.9809 23.7512C22.8392 23.0954 22.6976 22.4765 22.5999 21.8603C22.571 21.6665 22.6031 21.4685 22.6919 21.2938C23.1961 20.3533 23.6834 19.4015 24.2499 18.4979C25.1521 17.0575 25.4906 15.4726 25.6663 13.814C25.917 11.4855 26.2781 9.16978 26.5033 6.83845C26.5713 6.13027 26.3617 5.40368 26.2272 4.69267C26.196 4.52554 25.9779 4.38815 25.8362 4.24652C25.6677 4.07655 25.4482 3.94058 25.3278 3.74371C25.2244 3.57375 25.1408 3.29756 25.2116 3.14317C25.2697 3.01712 25.5657 2.97179 25.7626 2.94913C26.1294 2.90664 26.5005 2.90806 26.9141 2.88823C26.7455 3.50434 26.2059 3.31314 25.7399 3.45477C25.8221 3.61482 25.8702 3.86127 25.9736 3.87968C26.4198 3.98732 26.4736 4.27059 26.492 4.66576C26.5175 5.2323 26.73 5.34136 27.4452 5.2323C27.7285 6.32431 27.4452 7.39225 27.2908 8.45876C26.9764 10.6655 26.5997 12.8636 26.2994 15.0717C26.2116 15.7148 26.2753 16.3805 26.2994 17.0348C26.3192 17.7628 26.2144 18.4512 25.8277 19.0857C24.8731 20.6579 23.9185 22.2187 22.9809 23.7512Z" fill="white"/>
<path d="M10.9586 18.6538C11.6186 18.4498 12.188 18.1977 12.7815 18.107C14.1072 17.9073 15.4315 17.9116 16.7119 18.4172C17.1368 18.5872 17.362 18.8011 17.1212 19.2954C16.9257 19.6976 16.8266 20.1452 16.6354 20.5503C16.1439 21.5913 15.3111 22.1861 14.1539 22.1805C12.9968 22.1748 12.1526 21.6012 11.6767 20.546C11.426 19.9865 11.2419 19.3973 10.9586 18.6538ZM13.2248 20.3605C13.8593 20.8307 14.4811 20.8463 15.0972 20.3605H13.2248ZM13.5817 19.5432C13.984 20.0574 14.4485 20.0389 14.6808 19.5432H13.5817Z" fill="white"/>
<path d="M8.44038 38.7023C7.58207 38.5309 7.12742 38.0182 6.89372 37.3029C6.61045 36.4531 6.59204 35.5764 7.31863 34.9631C7.95324 34.4434 8.65322 34.0092 9.40068 33.6714C10.3992 33.2068 11.4572 32.8711 12.4841 32.4675C13.6172 32.0242 14.7092 31.5157 15.5845 30.6262C15.197 31.6063 14.501 32.4336 13.6016 32.983C12.6583 33.5892 11.6569 34.1062 10.6754 34.6628C10.2689 34.8951 9.85108 35.109 9.46299 35.371C8.12595 36.2704 7.8526 37.1287 8.44038 38.7023Z" fill="white"/>
<path d="M21.0929 23.9622C21.032 24.3262 20.981 24.5812 20.9513 24.839C20.8181 25.9225 21.1524 26.8743 21.8011 27.7269C22.2529 28.3232 22.7345 28.8982 23.1962 29.4874C23.9511 30.4534 24.3604 31.5242 24.2259 32.7748C24.1352 33.6133 23.7783 34.2634 22.9328 34.7181C22.9922 34.3725 23.0461 34.0963 23.0857 33.8173C23.2698 32.5156 22.8747 31.3769 22.0801 30.3613C21.607 29.7566 21.0957 29.1815 20.6312 28.5725C19.4343 27.0074 19.5647 25.4777 21.0929 23.9622Z" fill="white"/>
<path d="M35.4462 7.41633H30.3275C30.598 7.04383 30.8643 6.67557 31.132 6.31015C31.5838 5.69121 32.0399 5.07651 32.4889 4.45614C32.7297 4.1233 32.9889 4.0624 33.248 4.41224C33.9789 5.39802 34.6984 6.3923 35.4462 7.41633Z" fill="white"/>
<path d="M23.5119 7.40643H18.413L19.3067 6.17703C19.7317 5.60341 20.1466 5.02978 20.5631 4.45474C20.7812 4.15306 21.0432 4.05816 21.2882 4.38534C22.029 5.36121 22.7457 6.35974 23.5119 7.40643Z" fill="white"/>
<path d="M16.9584 15.7941C15.1261 15.2486 13.1741 15.2525 11.344 15.8054C11.9785 14.6199 12.902 13.9641 14.0351 13.559C14.1053 13.5348 14.1816 13.5348 14.2518 13.559C15.3495 14.0066 16.2743 14.6751 16.9584 15.7941Z" fill="white"/>
<path d="M8.39932 25.1562C7.98149 26.6873 7.18833 27.7821 6.15439 28.7453C5.27058 29.5696 4.43635 30.4449 3.54688 31.3301C3.76075 30.7735 3.88963 30.1446 4.21964 29.6489C4.76496 28.8447 5.37558 28.0867 6.04533 27.3827C6.74501 26.6363 7.52967 25.9692 8.39932 25.1562Z" fill="white"/>
<path d="M7.57928 30.0455C7.74925 29.6022 7.89088 29.1461 8.09909 28.7212C8.26491 28.407 8.46745 28.1137 8.70246 27.8473C9.74631 26.6009 10.3653 25.1944 10.361 23.5203C11.021 24.3701 11.0989 25.8672 10.5026 26.8572C10.2371 27.2632 9.93303 27.6426 9.59476 27.9903C9.269 28.3501 8.88658 28.6631 8.56649 29.0229C8.24639 29.3826 7.98436 29.7367 7.70109 30.0965L7.57928 30.0455Z" fill="white"/>
<path d="M32.8357 8.58484C32.2465 9.05083 32.1105 9.57629 32.3556 10.1867C31.4732 10.1117 30.6871 9.39217 30.4024 8.38797L32.8357 8.58484Z" fill="white"/>
<path d="M20.2813 10.2675C19.161 9.92894 18.6214 9.33691 18.5067 8.3837L20.6694 8.5919C20.1723 9.05222 19.9938 9.57627 20.2813 10.2675Z" fill="white"/>
<path d="M8.72385 20.6139C8.91223 19.6324 8.2168 18.4158 9.50568 17.6212C9.68414 18.8024 9.5595 19.7981 8.72385 20.6139Z" fill="white"/>
<path d="M13.4457 11.9841C12.4713 11.7249 11.5662 11.7008 10.8354 12.5393C10.8637 11.9728 11.3382 11.4402 11.9189 11.2972C12.2136 11.2163 12.5272 11.2407 12.8058 11.3661C13.0845 11.4914 13.3108 11.71 13.4457 11.9841Z" fill="white"/>
<path d="M21.0007 2.59224C20.8066 2.73387 20.6834 2.901 20.5758 2.89251C20.4681 2.88401 20.2826 2.70413 20.284 2.60923C20.3007 2.53794 20.3356 2.47217 20.3852 2.41832C20.4349 2.36447 20.4976 2.32436 20.5673 2.30188C20.6735 2.28206 20.8024 2.44777 21.0007 2.59224Z" fill="white"/>
<path d="M32.9973 2.57525C32.7933 2.73247 32.6687 2.90243 32.5582 2.89394C32.4477 2.88544 32.3302 2.70981 32.2169 2.61066C32.3203 2.49877 32.4137 2.31465 32.5299 2.29765C32.646 2.28065 32.7806 2.43645 32.9973 2.57525Z" fill="white"/>
<path d="M13.2249 20.3604H15.0973C14.4841 20.8462 13.8623 20.8307 13.2249 20.3604Z" fill="#334480"/>
<path d="M13.5847 19.5446H14.6837C14.4515 20.0403 13.9855 20.0573 13.5847 19.5446Z" fill="#334480"/>
</g>
</svg>
