<svg width="45" height="54" viewBox="0 0 45 54" fill="none" xmlns="http://www.w3.org/2000/svg">
<path fill-rule="evenodd" clip-rule="evenodd" d="M17.2723 40.3153L20.883 43.9257C22.2778 45.3208 24.5608 45.3211 25.9562 43.9257L34.561 35.3207H44.5238L27.5471 52.2976C25.2768 54.5675 21.5621 54.5675 19.2919 52.2976L12.2233 45.229L17.2723 40.3153Z" fill="#F16318"/>
<path fill-rule="evenodd" clip-rule="evenodd" d="M26.6026 17.8821L25.9562 17.2355C24.5608 15.8399 22.2778 15.8399 20.8831 17.2355C17.2801 20.8385 13.6772 24.4415 10.0742 28.0444C9.01681 29.1018 8.76063 30.6699 9.30682 31.9742C9.82842 33.2288 14.3707 37.4102 15.6869 38.4263L10.4971 43.5027C7.56559 40.5711 4.63426 37.6394 1.70244 34.7081C-0.567481 32.438 -0.567481 28.7233 1.70244 26.4529L18.3687 9.82049L8.54837 0H18.5111C27.1536 8.64311 35.8819 17.1984 44.5238 25.8405H34.5609L31.5908 22.8699L26.6026 17.8821Z" fill="#1F304F"/>
<path d="M19.2919 52.2976C19.5246 52.5303 19.7727 52.7393 20.0326 52.9243C19.7727 52.7393 19.5248 52.5303 19.2919 52.2976ZM32.9546 36.9271L25.9562 43.9257C25.2585 44.6234 24.3391 44.9722 23.4195 44.9722C22.5 44.9722 21.5804 44.6232 20.883 43.9257L17.2723 40.3153L12.2233 45.229L17.2723 40.3153L20.883 43.9257C21.5804 44.6232 22.5 44.9722 23.4195 44.9722C24.3391 44.9722 25.2585 44.6234 25.9562 43.9257L32.9546 36.9271Z" fill="white"/>
<path d="M32.9546 36.927L25.9562 43.9256C25.2585 44.6233 24.3391 44.9721 23.4195 44.9721C22.5 44.9721 21.5804 44.6232 20.883 43.9256L17.2723 40.3152L12.2233 45.229L19.2919 52.2975C19.5248 52.5303 19.7727 52.7392 20.0326 52.9243C21.0407 53.6413 22.2296 53.9998 23.4189 53.9998C24.2349 53.9998 25.051 53.831 25.8085 53.4934C29.9251 49.1061 32.5699 43.3217 32.9546 36.927Z" fill="#F2721D"/>
<path d="M23.4194 16.1889C23.0046 16.1889 22.5896 16.2598 22.1951 16.402C22.5896 16.2598 23.0043 16.1889 23.4191 16.189C24.2327 16.189 25.0464 16.4622 25.7063 17.0084C25.706 17.0079 25.7057 17.0076 25.7052 17.0071C25.0454 16.4615 24.2323 16.1889 23.4194 16.1889ZM17.1921 10.9945L1.70244 26.4529C0.567479 27.5882 0 29.0845 0 30.5806C0 29.0845 0.567479 27.5882 1.70244 26.4529L17.1921 10.9945Z" fill="white"/>
<path d="M17.1921 10.9946L1.70244 26.4529C0.567479 27.5882 0 29.0845 0 30.5806C0 32.0769 0.567479 33.573 1.70244 34.7081C4.63426 37.6394 7.56559 40.5711 10.4971 43.5027L15.6869 38.4263C14.3707 37.4102 9.82841 33.2288 9.30682 31.9742C9.12113 31.531 9.0282 31.0571 9.02787 30.5834C9.02721 29.663 9.37614 28.7423 10.0742 28.0444C13.6771 24.4415 17.2801 20.8385 20.8831 17.2355C21.2658 16.8526 21.7153 16.5746 22.1951 16.402C22.5896 16.2599 23.0046 16.1889 23.4194 16.1889C24.2323 16.1889 25.0454 16.4616 25.7052 17.0071C23.3077 14.481 20.4186 12.4266 17.1921 10.9946Z" fill="#1F304F"/>
</svg>
