<svg width="60" height="60" viewBox="0 0 60 60" fill="none" xmlns="http://www.w3.org/2000/svg">
<path d="M59.2962 0H0V59.6723H59.2962V0Z" fill="#002A51"/>
<path d="M53.5296 6.39349H37.6086V19.8072V25.3232H53.5296V6.39349Z" fill="white"/>
<path d="M53.5295 29.8362V27.4856H37.6085V27.8304L19.1803 6.39349H5.73523V13.6018L15.7642 25.3545H5.73523V27.517H17.6133L19.6191 29.8675H5.73523V32.03H21.4682L23.4739 34.3806H5.73523V36.5431H25.323L27.3288 38.8936H5.73523V41.0561H29.1466L40.0844 53.8743H53.5295V46.384V46.2899V46.0392V41.0247H49.1105C48.4837 40.3039 47.8255 39.5831 47.1987 38.8623H53.5295V36.5117H45.1302C44.5974 35.9162 44.0647 35.3208 43.5632 34.7253L43.2498 34.3806H53.5608V32.03H41.244L39.3636 29.8362H53.5295Z" fill="white"/>
<path d="M53.5295 29.8362V27.4856H37.6085V27.8304L19.1803 6.39349H5.73523V13.6018L15.7642 25.3545H5.73523V27.517H17.6133L19.6191 29.8675H5.73523V32.03H21.4682L23.4739 34.3806H5.73523V36.5431H25.323L27.3288 38.8936H5.73523V41.0561H29.1466L40.0844 53.8743H53.5295V46.384V46.2899V46.0392V41.0247H49.1105C48.4837 40.3039 47.8255 39.5831 47.1987 38.8623H53.5295V36.5117H45.1302C44.5974 35.9162 44.0647 35.3208 43.5632 34.7253L43.2498 34.3806H53.5608V32.03H41.244L39.3636 29.8362H53.5295Z" fill="white"/>
</svg>
