<svg width="64" height="59" viewBox="0 0 64 59" fill="none" xmlns="http://www.w3.org/2000/svg">
<path d="M61.0917 37.8188H2.90916C1.30914 37.8188 0 36.5096 0 34.9096V2.90916C0 1.30914 1.30914 0 2.90916 0H61.0918C62.6918 0 64.001 1.30914 64.001 2.90916V34.9096C64.0009 36.5096 62.6917 37.8188 61.0917 37.8188Z" fill="#0E9347"/>
<path d="M53.819 26.1822C50.4734 26.1822 47.4189 27.7823 45.6734 30.4004C44.2188 29.6733 42.6188 29.0914 40.7279 29.0914C35.637 29.0914 31.4187 32.8733 30.6914 37.8188H61.0918C62.5463 37.8188 63.71 36.8006 64.001 35.346C63.4191 30.255 59.0554 26.1822 53.819 26.1822Z" fill="#0D8944"/>
<path d="M55.2735 34.9096H8.72738C8.72738 31.7096 6.10922 29.0914 2.90918 29.0914V8.7275C6.10922 8.7275 8.72738 6.10934 8.72738 2.9093H55.2735C55.2735 6.10934 57.8917 8.7275 61.0917 8.7275V29.0914C57.8917 29.0914 55.2735 31.7096 55.2735 34.9096Z" fill="#3BB54A"/>
<path d="M53.8193 26.1822C50.4737 26.1822 47.4192 27.7822 45.6736 30.4004C44.2191 29.6733 42.6191 29.0914 40.7282 29.0914C36.6554 29.0914 33.1645 31.4187 31.5645 34.9096H55.2739C55.2739 31.7096 57.7467 29.2368 60.9467 29.0914C59.0557 27.3459 56.583 26.1822 53.8193 26.1822Z" fill="#0E9347"/>
<path d="M32.0008 32.0004C38.4275 32.0004 43.6373 26.1394 43.6373 18.9094C43.6373 11.6794 38.4275 5.81833 32.0008 5.81833C25.5741 5.81833 20.3643 11.6794 20.3643 18.9094C20.3643 26.1394 25.5741 32.0004 32.0008 32.0004Z" fill="#0E9347"/>
<path d="M14.5459 21.8185C16.1526 21.8185 17.455 20.5161 17.455 18.9094C17.455 17.3027 16.1526 16.0002 14.5459 16.0002C12.9392 16.0002 11.6367 17.3027 11.6367 18.9094C11.6367 20.5161 12.9392 21.8185 14.5459 21.8185Z" fill="#0E9347"/>
<path d="M49.4555 21.8185C51.0622 21.8185 52.3647 20.5161 52.3647 18.9094C52.3647 17.3027 51.0622 16.0002 49.4555 16.0002C47.8489 16.0002 46.5464 17.3027 46.5464 18.9094C46.5464 20.5161 47.8489 21.8185 49.4555 21.8185Z" fill="#0E9347"/>
<path d="M33.4548 17.4549H30.5457C29.6729 17.4549 29.0912 16.873 29.0912 16.0003C29.0912 15.1276 29.6731 14.5458 30.5457 14.5458H34.9094C35.7821 14.5458 36.3639 13.9639 36.3639 13.0913C36.3639 12.2185 35.782 11.6368 34.9094 11.6368H33.4548C33.4548 10.764 32.873 10.1823 32.0003 10.1823C31.1276 10.1823 30.5458 10.7641 30.5458 11.6368C28.073 11.6368 26.1821 13.5277 26.1821 16.0005C26.1821 18.4733 28.073 20.3642 30.5458 20.3642H33.455C34.3277 20.3642 34.9095 20.946 34.9095 21.8187C34.9095 22.6914 34.3276 23.2732 33.455 23.2732H29.0913C28.2185 23.2732 27.6368 23.8551 27.6368 24.7277C27.6368 25.6005 28.2187 26.1822 29.0913 26.1822H30.5458C30.5458 27.055 31.1277 27.6367 32.0003 27.6367C32.8731 27.6367 33.4548 27.0549 33.4548 26.1822C35.9276 26.1822 37.8185 24.2913 37.8185 21.8185C37.8185 19.3458 35.9276 17.4549 33.4548 17.4549Z" fill="#89C763"/>
<path d="M37.8187 49.4554C43.4421 49.4554 48.0007 44.8968 48.0007 39.2734C48.0007 33.65 43.4421 29.0914 37.8187 29.0914C32.1954 29.0914 27.6367 33.65 27.6367 39.2734C27.6367 44.8968 32.1954 49.4554 37.8187 49.4554Z" fill="#FFCA5D"/>
<path d="M50.9096 46.5463C56.5329 46.5463 61.0916 41.9876 61.0916 36.3642C61.0916 30.7409 56.5329 26.1822 50.9096 26.1822C45.2862 26.1822 40.7275 30.7409 40.7275 36.3642C40.7275 41.9876 45.2862 46.5463 50.9096 46.5463Z" fill="#F6B545"/>
<path d="M50.9096 26.1822C45.2367 26.1822 40.7275 30.6914 40.7275 36.3642C40.7275 42.0371 45.2367 46.5463 50.9096 46.5463C56.5824 46.5463 61.0916 42.0371 61.0916 36.3642C61.0916 30.6914 56.5824 26.1822 50.9096 26.1822ZM50.9096 43.6371C46.8367 43.6371 43.6367 40.4371 43.6367 36.3642C43.6367 32.2914 46.8367 29.0914 50.9096 29.0914C54.9824 29.0914 58.1824 32.2914 58.1824 36.3642C58.1824 40.4371 54.9824 43.6371 50.9096 43.6371Z" fill="#FFCB5B"/>
<path d="M50.9097 46.4008C56.5825 46.5463 61.0917 41.8916 61.0917 36.3643H60.9462C60.2189 36.3643 59.637 36.9461 59.4917 37.6734C59.2008 39.7098 58.1825 41.6007 56.728 42.9098C55.5644 44.0735 53.9643 44.8007 52.2188 45.0916C51.4914 45.0916 50.9097 45.6735 50.9097 46.4008Z" fill="#F6B545"/>
<path d="M50.9096 26.3277C45.2367 26.1822 40.7275 30.8369 40.7275 36.3643H40.873C41.6003 36.3643 42.1822 35.7824 42.3276 35.0551C42.6184 33.0187 43.6367 31.1278 45.0912 29.8187C46.2549 28.655 47.8549 27.9278 49.6004 27.6368C50.3277 27.6369 50.9096 27.055 50.9096 26.3277Z" fill="#FFE27A"/>
<path d="M44.6549 37.3824C44.6549 33.3096 47.8549 30.1095 51.9277 30.1095C53.6732 30.1095 55.2732 30.6914 56.5823 31.8551C55.1277 30.1095 53.2368 29.0914 50.9096 29.0914C46.8368 29.0914 43.6367 32.2914 43.6367 36.3642C43.6367 38.6915 44.6549 40.5824 46.2549 41.8916C45.2367 40.7279 44.6549 39.1279 44.6549 37.3824Z" fill="#F19920"/>
<path d="M55.2737 40.8734C55.1282 40.8734 54.9828 40.8734 54.8373 40.7279C54.5464 40.437 54.5464 40.0007 54.8373 39.7098C55.7101 38.837 56.1464 37.5279 56.1464 36.3642C56.1464 35.9279 56.4373 35.637 56.8737 35.637C57.3101 35.637 57.601 35.9279 57.601 36.3642C57.601 37.9643 57.0191 39.5643 56.0009 40.7279C55.7101 40.8734 55.4191 40.8734 55.2737 40.8734Z" fill="#FFCB5B"/>
<path d="M50.9096 40.7279C50.0368 40.7279 49.4551 40.146 49.4551 39.2734V33.4552C49.4551 32.5824 50.037 32.0007 50.9096 32.0007C51.7822 32.0007 52.3641 32.5826 52.3641 33.4552V39.2734C52.3641 40.146 51.7824 40.7279 50.9096 40.7279Z" fill="#F19920"/>
<path d="M56.2915 44.9461C55.2734 41.3097 52.6551 38.4005 49.3095 37.0915C48.7277 33.746 46.5459 30.8369 43.7822 29.0914C42.0367 30.9823 40.873 33.4551 40.873 36.2187C40.873 41.8916 45.3822 46.4007 51.0551 46.4007C52.9461 46.5461 54.6915 45.9644 56.2915 44.9461Z" fill="#F19920"/>
<path d="M46.255 41.8916C45.2369 40.5824 44.5095 38.9824 44.5095 37.237C44.5095 35.2006 45.3822 33.3097 46.8368 32.0005C46.5459 31.5642 46.2549 31.2733 45.964 30.9824C44.5095 32.2916 43.6367 34.1825 43.6367 36.3644C43.6368 38.6915 44.655 40.5824 46.255 41.8916Z" fill="#E78825"/>
<path d="M49.4551 37.237V39.2734C49.4551 40.1462 50.037 40.7279 50.9096 40.7279C51.7822 40.7279 52.3641 40.146 52.3641 39.2734V38.9825C51.4915 38.2551 50.4733 37.6734 49.4551 37.237Z" fill="#E78825"/>
<path d="M56.2914 44.9461C56.0005 43.928 55.7095 43.0552 55.1277 42.1825C53.9641 43.0552 52.5096 43.637 50.9096 43.637C46.8367 43.637 43.6367 40.4369 43.6367 36.3641C43.6367 34.1822 44.5095 32.2913 45.964 30.9822C45.2367 30.2549 44.5095 29.673 43.6367 29.2367C41.8912 31.1276 40.7275 33.6003 40.7275 36.364C40.7275 42.0368 45.2367 46.546 50.9096 46.546C52.946 46.5461 54.6914 45.9644 56.2914 44.9461Z" fill="#F6B545"/>
<path d="M55.8552 43.6371C54.8371 44.3643 53.528 44.8007 52.2188 45.0916C51.4915 45.2371 50.9097 45.8189 50.9097 46.5461C52.9461 46.5461 54.6916 45.9642 56.2916 44.9461C56.1462 44.5097 56.0007 44.0735 55.8552 43.6371Z" fill="#F19920"/>
<path d="M43.6367 29.2369C41.8912 31.1278 40.7275 33.6006 40.7275 36.3642H40.873C41.6003 36.3642 42.1822 35.7824 42.3276 35.0551C42.6184 33.0187 43.6367 31.2732 44.9457 29.9642C44.5095 29.8187 44.0731 29.5278 43.6367 29.2369Z" fill="#FFCB5B"/>
<path d="M37.8187 49.4554C43.4421 49.4554 48.0007 44.8968 48.0007 39.2734C48.0007 33.65 43.4421 29.0914 37.8187 29.0914C32.1954 29.0914 27.6367 33.65 27.6367 39.2734C27.6367 44.8968 32.1954 49.4554 37.8187 49.4554Z" fill="#F6B545"/>
<path d="M36.3643 46.5461C36.3643 47.5642 36.5098 48.437 36.8006 49.4553C37.0915 49.4553 37.5279 49.4553 37.8188 49.4553C43.4916 49.4553 48.0008 44.9461 48.0008 39.2733C48.0008 38.2551 47.8553 37.3824 47.5644 36.3641C47.2735 36.3641 46.8371 36.3641 46.5463 36.3641C40.8734 36.3642 36.3643 40.8734 36.3643 46.5461Z" fill="#F19920"/>
<path d="M37.8187 29.0914C32.1459 29.0914 27.6367 33.6006 27.6367 39.2734C27.6367 44.9462 32.1459 49.4554 37.8187 49.4554C43.4916 49.4554 48.0007 44.9461 48.0007 39.2734C48.0007 33.6007 43.4916 29.0914 37.8187 29.0914ZM37.8187 46.5461C33.7459 46.5461 30.5459 43.3461 30.5459 39.2733C30.5459 35.2005 33.7459 32.0004 37.8187 32.0004C41.8915 32.0004 45.0916 35.2005 45.0916 39.2733C45.0916 43.3461 41.8915 46.5461 37.8187 46.5461Z" fill="#FFCB5B"/>
<path d="M37.8188 49.3098C43.4917 49.4553 48.0009 44.8007 48.0009 39.2734H47.8554C47.1281 39.2734 46.5462 39.8553 46.4008 40.5826C46.11 42.619 45.0917 44.5099 43.6372 45.819C42.4735 46.9826 40.8735 47.7099 39.128 48.0009C38.4007 48.0008 37.8188 48.5825 37.8188 49.3098Z" fill="#F6B545"/>
<path d="M37.8187 29.2369C32.1459 29.0914 27.6367 33.7461 27.6367 39.2734H27.7822C28.5095 39.2734 29.0914 38.6915 29.2367 37.9643C29.5276 35.9279 30.5459 34.037 32.0004 32.7278C33.164 31.5642 34.7641 30.8369 36.5096 30.5459C37.237 30.5459 37.8187 29.9642 37.8187 29.2369Z" fill="#FFE27A"/>
<path d="M31.5642 40.2915C31.5642 36.2187 34.7642 33.0187 38.837 33.0187C40.5825 33.0187 42.1826 33.6006 43.4916 34.7642C42.0371 33.0187 40.146 32.0005 37.8187 32.0005C33.7459 32.0005 30.5459 35.2006 30.5459 39.2734C30.5459 41.6007 31.564 43.4916 33.1641 44.8007C32.146 43.6371 31.5642 42.0371 31.5642 40.2915Z" fill="#F19920"/>
<path d="M42.1824 43.7825C42.0369 43.7825 41.8915 43.7825 41.746 43.637C41.4551 43.3461 41.4551 42.9097 41.746 42.6188C42.6188 41.7461 43.0551 40.4369 43.0551 39.2733C43.0551 38.8369 43.346 38.546 43.7824 38.546C44.2188 38.546 44.5097 38.8369 44.5097 39.2733C44.5097 40.8733 43.9278 42.4733 42.9096 43.637C42.6186 43.7825 42.3277 43.7825 42.1824 43.7825Z" fill="#FFCB5B"/>
<path d="M37.8188 43.6371C36.946 43.6371 36.3643 43.0552 36.3643 42.1826V36.3643C36.3643 35.4916 36.9461 34.9098 37.8188 34.9098C38.6915 34.9098 39.2733 35.4917 39.2733 36.3643V42.1826C39.2734 43.0552 38.6915 43.6371 37.8188 43.6371Z" fill="#F19920"/>
<path d="M44.5097 36.5096C44.8006 37.3824 45.0916 38.2551 45.0916 39.2733C45.0916 43.3461 41.8916 46.5461 37.8188 46.5461C37.3824 46.5461 36.8006 46.5461 36.3643 46.4006V46.5461C36.3643 47.5642 36.5098 48.437 36.8006 49.4553C37.0915 49.4553 37.5279 49.4553 37.8188 49.4553C43.4916 49.4553 48.0008 44.9461 48.0008 39.2733C48.0008 38.2551 47.8553 37.3824 47.5644 36.3641C47.2735 36.3641 46.8371 36.3641 46.5463 36.3641C45.8188 36.3642 45.237 36.3642 44.5097 36.5096Z" fill="#F6B545"/>
<path d="M45.0917 58.1828C50.715 58.1828 55.2737 53.6241 55.2737 48.0008C55.2737 42.3774 50.715 37.8187 45.0917 37.8187C39.4683 37.8187 34.9097 42.3774 34.9097 48.0008C34.9097 53.6241 39.4683 58.1828 45.0917 58.1828Z" fill="#F6B545"/>
<path d="M45.0917 37.8187C39.4189 37.8187 34.9097 42.3279 34.9097 48.0008C34.9097 53.6736 39.4189 58.1828 45.0917 58.1828C50.7645 58.1828 55.2737 53.6736 55.2737 48.0008C55.2737 42.3279 50.7645 37.8187 45.0917 37.8187ZM45.0917 55.2736C41.0189 55.2736 37.8188 52.0736 37.8188 48.0008C37.8188 43.928 41.0189 40.7279 45.0917 40.7279C49.1645 40.7279 52.3645 43.928 52.3645 48.0008C52.3645 52.0736 49.1645 55.2736 45.0917 55.2736Z" fill="#FFCB5B"/>
<path d="M45.0913 58.0373C50.7641 58.1828 55.2733 53.5281 55.2733 48.0008H55.1278C54.4006 48.0008 53.8187 48.5826 53.6733 49.3099C53.3824 51.3463 52.3642 53.2372 50.9096 54.5463C49.746 55.71 48.146 56.4373 46.4005 56.7283C45.6732 56.7281 45.0913 57.3099 45.0913 58.0373Z" fill="#F6B545"/>
<path d="M45.0917 37.9642C39.4189 37.8187 34.9097 42.4734 34.9097 48.0008H35.0552C35.7824 48.0008 36.3643 47.4189 36.5097 46.6916C36.8006 44.6552 37.8188 42.7643 39.2734 41.4552C40.437 40.2915 42.037 39.5643 43.7825 39.2733C44.5099 39.2734 45.0917 38.6915 45.0917 37.9642Z" fill="#FFE27A"/>
<path d="M38.8371 49.0189C38.8371 44.9461 42.0372 41.7461 46.11 41.7461C47.8555 41.7461 49.4555 42.328 50.7645 43.4916C49.31 41.7461 47.419 40.7279 45.0917 40.7279C41.0189 40.7279 37.8188 43.928 37.8188 48.0008C37.8188 50.3281 38.837 52.219 40.437 53.5281C39.4189 52.3645 38.8371 50.7644 38.8371 49.0189Z" fill="#F19920"/>
<path d="M49.4553 52.5098C49.3098 52.5098 49.1644 52.5098 49.0189 52.3643C48.7281 52.0735 48.7281 51.6371 49.0189 51.3462C49.8917 50.4734 50.3281 49.1643 50.3281 48.0007C50.3281 47.5643 50.619 47.2734 51.0553 47.2734C51.4917 47.2734 51.7826 47.5643 51.7826 48.0007C51.7826 49.6007 51.2007 51.2007 50.1826 52.3643C49.8917 52.5098 49.6008 52.5098 49.4553 52.5098Z" fill="#FFCB5B"/>
<path d="M45.0912 52.3645C44.2185 52.3645 43.6367 51.7826 43.6367 50.9099V45.0916C43.6367 44.2188 44.2186 43.6371 45.0912 43.6371C45.964 43.6371 46.5458 44.219 46.5458 45.0916V50.9098C46.5459 51.7826 45.964 52.3645 45.0912 52.3645Z" fill="#F19920"/>
</svg>
