<svg width="46" height="68" viewBox="0 0 46 68" fill="none" xmlns="http://www.w3.org/2000/svg">
<path d="M45.8346 20.5998V56.8573C45.8346 59.1244 43.9971 60.9619 41.73 60.9619L40.2759 43.5788L41.73 16.4951C43.9971 16.4951 45.8346 18.3326 45.8346 20.5998Z" fill="#F7F9FA"/>
<path d="M41.7302 16.4951V58.2255L41.0912 60.6685L36.8594 60.1191L37.3184 17.2583L39.6779 16.4951H41.7302Z" fill="#FFD064"/>
<path d="M45.8348 54.1209V56.8573C45.8348 59.1244 43.9973 60.9619 41.7302 60.9619L40.998 59.8767L41.7302 58.2255C43.9973 58.2255 45.8348 56.388 45.8348 54.1209Z" fill="#E9EDF1"/>
<path d="M39.678 57.8151V16.4951H37.6257L35.665 38.7285L37.6257 60.9619H39.678H41.7303V58.2255H40.0885C39.8617 58.2255 39.678 58.0418 39.678 57.8151Z" fill="#FFC250"/>
<path d="M31.8223 67.6084L5.36637 67.5152C2.72162 67.5152 0.577637 65.3713 0.577637 62.7265L0.801886 9.75943C0.801886 8.07298 0.871665 5.99781 2.18911 5.1446C2.93766 4.65971 3.83028 4.37827 4.78857 4.37827H32.8369C35.4816 4.37827 37.6256 6.52225 37.6256 9.167V63.2113C37.6256 64.1696 37.3442 65.0622 36.8593 65.8107C36.0062 67.1283 33.5088 67.6084 31.8223 67.6084Z" fill="#6D7C84"/>
<path d="M7.79844 41.7085H5.88294L4.784 42.1424C4.55701 42.1425 4.37408 42.3269 4.37354 42.5528L4.39967 45.0185C4.39967 45.2456 4.58301 45.4289 4.81013 45.4289L7.47376 45.4493C7.70075 45.4488 7.88354 45.2658 7.88422 45.0389L8.2089 44.0345V42.119C8.2089 41.8932 8.02556 41.7085 7.79844 41.7085Z" fill="#F7F9FA"/>
<path d="M8.20912 44.0345V45.4027C8.20912 45.6294 8.02537 45.8131 7.79866 45.8131H4.51496C4.28824 45.8131 4.10449 45.6294 4.10449 45.4027V42.119C4.10449 41.8932 4.28783 41.7085 4.51496 41.7085H5.88316V43.7608C5.88316 43.912 6.00562 44.0345 6.15681 44.0345H8.20912Z" fill="#E9EDF1"/>
<path d="M7.79844 49.9786H5.88294L4.784 50.4125C4.55701 50.4126 4.37408 50.5971 4.37354 50.823L4.39967 53.2886C4.39967 53.5157 4.58301 53.6991 4.81013 53.6991L7.47376 53.7195C7.70075 53.7189 7.88354 53.536 7.88422 53.309L8.20876 52.3046V50.3891C8.2089 50.1633 8.02556 49.9786 7.79844 49.9786Z" fill="#F7F9FA"/>
<path d="M8.20912 52.3046V53.6728C8.20912 53.8995 8.02537 54.0833 7.79866 54.0833H4.51496C4.28824 54.0833 4.10449 53.8995 4.10449 53.6728V50.3891C4.10449 50.1633 4.28783 49.9786 4.51496 49.9786H5.88316V52.031C5.88316 52.1821 6.00562 52.3046 6.15681 52.3046H8.20912Z" fill="#E9EDF1"/>
<path d="M7.79844 58.2486H5.88294L4.784 58.6825C4.55701 58.6826 4.37408 58.8671 4.37354 59.093L4.39967 61.5586C4.39967 61.7857 4.58301 61.9691 4.81013 61.9691L7.47376 61.9895C7.70075 61.9889 7.88354 61.806 7.88422 61.579L8.20876 60.5746V58.6591C8.2089 58.4335 8.02556 58.2486 7.79844 58.2486Z" fill="#F7F9FA"/>
<path d="M8.20912 60.5746V61.9428C8.20912 62.1695 8.02537 62.3533 7.79866 62.3533H4.51496C4.28824 62.3533 4.10449 62.1695 4.10449 61.9428V58.6591C4.10449 58.4334 4.28783 58.2486 4.51496 58.2486H5.88316V60.301C5.88316 60.4521 6.00562 60.5746 6.15681 60.5746H8.20912Z" fill="#E9EDF1"/>
<path d="M15.9479 41.7085H14.0324L12.9334 42.1424C12.7064 42.1425 12.5235 42.3269 12.5229 42.5528L12.5491 45.0185C12.5491 45.2456 12.7324 45.4289 12.9595 45.4289L15.6232 45.4493C15.8502 45.4488 16.033 45.2658 16.0336 45.0389L16.3582 44.0345V42.119C16.3583 41.8932 16.175 41.7085 15.9479 41.7085Z" fill="#F7F9FA"/>
<path d="M16.3585 44.0345V45.4027C16.3585 45.6294 16.1748 45.8131 15.9481 45.8131H12.6644C12.4377 45.8131 12.2539 45.6294 12.2539 45.4027V42.119C12.2539 41.8932 12.4372 41.7085 12.6644 41.7085H14.0326V43.7608C14.0326 43.912 14.155 44.0345 14.3062 44.0345H16.3585Z" fill="#E9EDF1"/>
<path d="M15.9479 49.9786H14.0324L12.9334 50.4125C12.7064 50.4126 12.5235 50.5971 12.5229 50.823L12.5491 53.2886C12.5491 53.5157 12.7324 53.6991 12.9595 53.6991L15.6232 53.7195C15.8502 53.7189 16.033 53.536 16.0336 53.309L16.3582 52.3046V50.3891C16.3583 50.1633 16.175 49.9786 15.9479 49.9786Z" fill="#F7F9FA"/>
<path d="M16.3585 52.3046V53.6728C16.3585 53.8995 16.1748 54.0833 15.9481 54.0833H12.6644C12.4377 54.0833 12.2539 53.8995 12.2539 53.6728V50.3891C12.2539 50.1633 12.4372 49.9786 12.6644 49.9786H14.0326V52.031C14.0326 52.1821 14.155 52.3046 14.3062 52.3046H16.3585Z" fill="#E9EDF1"/>
<path d="M15.9479 58.2486H14.0324L12.9334 58.6825C12.7064 58.6826 12.5235 58.8671 12.5229 59.093L12.5491 61.5586C12.5491 61.7857 12.7324 61.9691 12.9595 61.9691L15.6232 61.9895C15.8502 61.9889 16.033 61.806 16.0336 61.579L16.3582 60.5746V58.6591C16.3583 58.4335 16.175 58.2486 15.9479 58.2486Z" fill="#F7F9FA"/>
<path d="M16.3585 60.5746V61.9428C16.3585 62.1695 16.1748 62.3533 15.9481 62.3533H12.6644C12.4377 62.3533 12.2539 62.1695 12.2539 61.9428V58.6591C12.2539 58.4334 12.4372 58.2486 12.6644 58.2486H14.0326V60.301C14.0326 60.4521 14.155 60.5746 14.3062 60.5746H16.3585Z" fill="#E9EDF1"/>
<path d="M24.0968 41.7085H22.1813L21.0823 42.1424C20.8554 42.1425 20.6724 42.3269 20.6719 42.5528L20.698 45.0185C20.698 45.2456 20.8813 45.4289 21.1085 45.4289L23.7721 45.4493C23.9991 45.4488 24.1819 45.2658 24.1826 45.0389L24.5071 44.0345V42.119C24.5072 41.8932 24.3239 41.7085 24.0968 41.7085Z" fill="#F7F9FA"/>
<path d="M24.5075 44.0345V45.4027C24.5075 45.6294 24.3237 45.8131 24.097 45.8131H20.8133C20.5866 45.8131 20.4028 45.6294 20.4028 45.4027V42.119C20.4028 41.8932 20.5862 41.7085 20.8133 41.7085H22.1815V43.7608C22.1815 43.912 22.304 44.0345 22.4551 44.0345H24.5075Z" fill="#E9EDF1"/>
<path d="M24.0968 49.9786H22.1813L21.0823 50.4125C20.8554 50.4126 20.6724 50.5971 20.6719 50.823L20.698 53.2886C20.698 53.5157 20.8813 53.6991 21.1085 53.6991L23.7721 53.7195C23.9991 53.7189 24.1819 53.536 24.1826 53.309L24.5071 52.3046V50.3891C24.5072 50.1633 24.3239 49.9786 24.0968 49.9786Z" fill="#F7F9FA"/>
<path d="M24.5075 52.3046V53.6728C24.5075 53.8995 24.3237 54.0833 24.097 54.0833H20.8133C20.5866 54.0833 20.4028 53.8995 20.4028 53.6728V50.3891C20.4028 50.1633 20.5862 49.9786 20.8133 49.9786H22.1815V52.031C22.1815 52.1821 22.304 52.3046 22.4551 52.3046H24.5075Z" fill="#E9EDF1"/>
<path d="M24.0968 58.2486H22.1813L21.0823 58.6825C20.8554 58.6826 20.6724 58.8671 20.6719 59.093L20.698 61.5586C20.698 61.7857 20.8813 61.9691 21.1085 61.9691L23.7721 61.9895C23.9991 61.9889 24.1819 61.806 24.1826 61.579L24.5071 60.5746V58.6591C24.5072 58.4335 24.3239 58.2486 24.0968 58.2486Z" fill="#F7F9FA"/>
<path d="M24.5075 60.5746V61.9428C24.5075 62.1695 24.3237 62.3533 24.097 62.3533H20.8133C20.5866 62.3533 20.4028 62.1695 20.4028 61.9428V58.6591C20.4028 58.4334 20.5862 58.2486 20.8133 58.2486H22.1815V60.301C22.1815 60.4521 22.304 60.5746 22.4551 60.5746H24.5075Z" fill="#E9EDF1"/>
<path d="M36.8596 65.8109C36.0072 67.1285 34.524 68 32.837 68H4.78873C2.14398 68 0 65.856 0 63.2113V9.16701C0 7.48 0.871549 5.99686 2.18913 5.14447V63.2113C2.18913 64.6452 3.35485 65.8109 4.78873 65.8109H36.8596Z" fill="#585763"/>
<path d="M29.0064 16.5553H9.15137V2.42351C9.15137 1.28995 9.53898 0 10.6724 0H26.9541C28.0875 0 29.0064 0.918889 29.0064 2.05231V16.5553Z" fill="#F7F9FA"/>
<path d="M11.0788 0C10.8243 0.343421 10.6724 0.766197 10.6724 1.22728V16.5553H8.62012V2.05231C8.62012 0.919437 9.53955 0 10.6724 0H11.0788Z" fill="#E9EDF1"/>
<path d="M24.6276 5.13079H12.9978C12.431 5.13079 11.9717 4.67148 11.9717 4.10463C11.9717 3.53778 12.431 3.07848 12.9978 3.07848H24.6276C25.1945 3.07848 25.6538 3.53778 25.6538 4.10463C25.6538 4.67148 25.1945 5.13079 24.6276 5.13079Z" fill="#E9EDF1"/>
<path d="M24.6276 9.23542H12.9978C12.431 9.23542 11.9717 8.77611 11.9717 8.20926C11.9717 7.64241 12.431 7.18311 12.9978 7.18311H24.6276C25.1945 7.18311 25.6538 7.64241 25.6538 8.20926C25.6538 8.77611 25.1945 9.23542 24.6276 9.23542Z" fill="#E9EDF1"/>
<path d="M24.6276 13.34H12.9978C12.431 13.34 11.9717 12.8807 11.9717 12.3139C11.9717 11.747 12.431 11.2877 12.9978 11.2877H24.6276C25.1945 11.2877 25.6538 11.747 25.6538 12.3139C25.6538 12.8807 25.1945 13.34 24.6276 13.34Z" fill="#E9EDF1"/>
<path d="M33.5213 17.5815H4.10477C3.53792 17.5815 3.07861 17.1222 3.07861 16.5553C3.07861 15.9885 3.53792 15.5292 4.10477 15.5292H33.5213C34.0881 15.5292 34.5474 15.9885 34.5474 16.5553C34.5474 17.1222 34.0881 17.5815 33.5213 17.5815Z" fill="#585763"/>
<path d="M31.6831 35.0509H5.93755C5.18188 35.0509 4.56934 34.4384 4.56934 33.6827L4.57522 22.5798C4.57522 21.8242 4.72777 21.3572 5.48344 21.3572L6.84138 20.66H32.1533C32.9089 20.66 33.5215 21.2725 33.5215 22.0282V32.837L33.0514 33.6827C33.0514 34.4384 32.4388 35.0509 31.6831 35.0509Z" fill="#BED9FD"/>
<path d="M33.521 32.837V34.2052C33.521 34.9609 32.9084 35.5734 32.1528 35.5734H5.4727C4.71704 35.5734 4.10449 34.9609 4.10449 34.2052V22.0282C4.10449 21.2725 4.71704 20.66 5.4727 20.66H6.84091V32.1529C6.84091 32.5307 7.14725 32.837 7.52502 32.837H33.521Z" fill="#9EC8FC"/>
<path d="M33.1106 49.9178H30.6478L29.5867 50.3865C29.3604 50.386 29.1761 50.5716 29.1763 50.797L29.2024 61.5791C29.2024 61.8063 29.3857 61.9896 29.6129 61.9896L32.8354 61.3725C33.0621 61.3721 33.2448 61.1884 33.2459 60.9621L33.521 60.3163V50.3284C33.521 50.1025 33.3377 49.9178 33.1106 49.9178Z" fill="#B3E59F"/>
<path d="M33.5212 60.3161V61.8212C33.5198 62.0469 33.3378 62.2316 33.1107 62.2316H29.1429C28.9162 62.2316 28.7324 62.0479 28.7324 61.8212V50.3282C28.7324 50.1025 28.9171 49.9178 29.1429 49.9178H30.6479V59.7689C30.6479 60.0711 30.893 60.3161 31.1952 60.3161H33.5212Z" fill="#95D6A4"/>
<path d="M33.1104 41.7085H30.5108L29.243 41.8221C29.016 41.8219 28.8336 42.0076 28.8325 42.2325L28.9752 45.2921C28.9752 45.5192 29.1586 45.7026 29.3857 45.7026L32.9518 45.624C33.178 45.6231 33.3621 45.4415 33.3622 45.2136L33.521 44.0345V42.119C33.5208 41.8932 33.3375 41.7085 33.1104 41.7085Z" fill="#FFD064"/>
<path d="M33.5212 44.0345V45.4027C33.5212 45.6312 33.3364 45.8118 33.1107 45.8131H29.1429C28.9162 45.8131 28.7324 45.6294 28.7324 45.4027V42.119C28.7338 41.8946 28.9158 41.7085 29.1429 41.7085H30.5111V43.624C30.5111 43.8507 30.6948 44.0345 30.9216 44.0345H33.5212Z" fill="#FFC250"/>
</svg>
