<svg width="49" height="55" viewBox="0 0 49 55" fill="none" xmlns="http://www.w3.org/2000/svg">
<path d="M10.3125 0C8.42188 0 6.875 1.54688 6.875 3.4375V51.5625C6.875 53.4531 8.42188 55 10.3125 55H44.6875C46.5781 55 48.125 53.4531 48.125 51.5625V13.75L34.375 0H10.3125Z" fill="#E2E5E7"/>
<path d="M37.8125 13.75H48.125L34.375 0V10.3125C34.375 12.2031 35.9219 13.75 37.8125 13.75Z" fill="#B0B7BD"/>
<path d="M48.125 24.0625L37.8125 13.75H48.125V24.0625Z" fill="#CAD1D8"/>
<path d="M41.25 44.6875C41.25 45.6328 40.4766 46.4062 39.5312 46.4062H1.71875C0.773438 46.4062 0 45.6328 0 44.6875V27.5C0 26.5547 0.773438 25.7812 1.71875 25.7812H39.5312C40.4766 25.7812 41.25 26.5547 41.25 27.5V44.6875Z" fill="#A066AA"/>
<path d="M6.53296 32.5651C6.53296 32.1113 6.88874 31.6146 7.46624 31.6146H10.6425C12.4283 31.6146 14.037 32.8109 14.037 35.1054C14.037 37.2779 12.4283 38.4862 10.6425 38.4862H8.34452V40.3012C8.34452 40.9079 7.96296 41.2499 7.46624 41.2499C7.01249 41.2499 6.53296 40.9079 6.53296 40.3012C6.53296 40.3012 6.53296 32.5651 6.53296 32.5651ZM8.34452 33.3471V36.7692H10.6408C11.5603 36.7692 12.2891 35.9579 12.2891 35.1054C12.2891 34.1429 11.5603 33.3471 10.6408 33.3471H8.34452Z" fill="white"/>
<path d="M15.7885 32.7026C15.7885 32.2059 15.8985 31.7263 16.6135 31.7263C17.1067 31.7263 17.2185 31.8501 17.588 32.2059L22.1358 37.8967V32.5651C22.1358 32.1113 22.5328 31.6146 23.0021 31.6146C23.4971 31.6146 23.9766 32.1113 23.9766 32.5651V40.3012C23.9766 40.9079 23.6053 41.1382 23.2478 41.2499C22.7683 41.2499 22.5328 41.1399 22.1358 40.7704L17.588 34.9971V40.3029C17.588 40.9096 17.2167 41.2517 16.7217 41.2517C16.2267 41.2517 15.7867 40.9096 15.7867 40.3029V32.7026H15.7885Z" fill="white"/>
<path d="M34.3148 40.1929C33.3386 41.0025 32.1423 41.3479 30.934 41.3479C28.0465 41.3479 25.9995 39.6979 25.9995 36.4271C25.9995 33.6514 28.1583 31.4943 31.0561 31.4943C32.1423 31.4943 33.3369 31.8656 34.1894 32.7043C35.0281 33.5276 33.8181 34.7514 32.9948 34.0243C32.4861 33.5276 31.7711 33.1581 31.0561 33.1581C29.394 33.1581 27.787 34.4901 27.787 36.4271C27.787 38.4621 29.1328 39.6979 30.934 39.6979C31.7711 39.6979 32.4861 39.4504 32.9948 39.0792V37.3914H30.934C29.7103 37.3914 29.834 35.7121 30.934 35.7121H33.6823C34.1911 35.7121 34.6569 36.0989 34.6569 36.5251V39.4521C34.6569 39.6979 34.5486 39.93 34.3148 40.1929Z" fill="white"/>
<path d="M39.5312 46.4062H6.875V48.125H39.5312C40.4766 48.125 41.25 47.3516 41.25 46.4062V44.6875C41.25 45.6328 40.4766 46.4062 39.5312 46.4062Z" fill="#CAD1D8"/>
</svg>
