<svg width="49" height="55" viewBox="0 0 49 55" fill="none" xmlns="http://www.w3.org/2000/svg">
<path d="M44.666 17.9289C44.1505 17.1232 43.0869 16.9621 42.3136 17.5099L37.0928 21.4417C36.4482 21.925 36.2549 22.8274 36.6738 23.5363C37.995 25.7922 38.6719 28.2091 38.6719 30.7229C38.6719 38.715 32.162 45.2249 24.1699 45.2249C16.1778 45.2249 9.66797 38.715 9.66797 30.7229C9.66797 23.2786 15.3076 17.1232 22.5586 16.3175V21.055C22.5586 22.0218 23.332 22.6341 24.1699 22.6663C24.4921 22.6663 24.8468 22.5695 25.1367 22.3439L38.0273 12.6762C38.8976 12.0316 38.8976 10.7425 38.0273 10.0979L25.1367 0.32254C24.8468 0.0971686 24.4922 0.00038147 24.1699 0.00038147C23.332 0.00038147 22.5586 0.677247 22.5586 1.61171V6.61768C9.99013 7.42323 0 17.9289 0 30.7229C0 44.0647 10.8281 55.0003 24.1699 55.0003C37.5117 55.0003 48.3398 44.0647 48.3398 30.7229C48.3398 26.2111 47.0507 21.7961 44.666 17.9289Z" fill="#17ACE8"/>
<path d="M25.1367 22.3436C24.8468 22.5692 24.4922 22.666 24.1699 22.666V0C24.4921 0 24.8468 0.0967871 25.1367 0.322158L38.0273 10.0975C38.8976 10.7421 38.8976 12.0312 38.0273 12.6758L25.1367 22.3436Z" fill="#1689FC"/>
<path d="M48.3398 30.7227C48.3398 44.0645 37.5117 55 24.1699 55V45.2246C32.162 45.2246 38.6719 38.7148 38.6719 30.7227C38.6719 28.2089 37.995 25.7919 36.6738 23.5361C36.2549 22.8272 36.4482 21.9247 37.0928 21.4414L42.3135 17.5097C43.0869 16.9619 44.1504 17.123 44.6659 17.9286C47.0507 21.7958 48.3398 26.2109 48.3398 30.7227Z" fill="#1689FC"/>
</svg>
