<svg width="33" height="39" viewBox="0 0 33 39" fill="none" xmlns="http://www.w3.org/2000/svg">
<path fill-rule="evenodd" clip-rule="evenodd" d="M13.1224 29.0663L15.7257 31.6693C16.7313 32.6751 18.3772 32.6754 19.3833 31.6693L25.5871 25.4653H32.7701L20.5303 37.7052C18.8935 39.3418 16.2153 39.3418 14.5785 37.7052L9.48218 32.609L13.1224 29.0663Z" fill="#F16318"/>
<path fill-rule="evenodd" clip-rule="evenodd" d="M19.8493 12.8925L19.3833 12.4264C18.3772 11.4202 16.7313 11.4202 15.7257 12.4264C13.128 15.024 10.5304 17.6217 7.93274 20.2193C7.17039 20.9817 6.98569 22.1122 7.37948 23.0526C7.75554 23.9572 11.0304 26.9718 11.9794 27.7044L8.23763 31.3644C6.1241 29.2507 4.01068 27.1371 1.89691 25.0237C0.260355 23.387 0.260355 20.7088 1.89691 19.0719L13.9129 7.08032L6.83265 -5.72205e-06H14.0156C20.2466 6.23146 26.5394 12.3996 32.7701 18.6304H25.587L23.4457 16.4886L19.8493 12.8925Z" fill="#1F304F"/>
<path d="M14.5785 37.7052C14.7463 37.873 14.9251 38.0237 15.1125 38.1571C14.9251 38.0237 14.7464 37.873 14.5785 37.7052ZM24.429 26.6235L19.3833 31.6693C18.8803 32.1723 18.2174 32.4238 17.5544 32.4238C16.8914 32.4238 16.2285 32.1722 15.7257 31.6693L13.1224 29.0663L9.48218 32.6089L13.1224 29.0663L15.7257 31.6693C16.2285 32.1722 16.8914 32.4238 17.5544 32.4238C18.2174 32.4238 18.8803 32.1723 19.3833 31.6693L24.429 26.6235Z" fill="white"/>
<path d="M24.429 26.6234L19.3833 31.6693C18.8803 32.1723 18.2174 32.4238 17.5544 32.4238C16.8914 32.4238 16.2285 32.1722 15.7257 31.6693L13.1224 29.0663L9.48218 32.6089L14.5785 37.7052C14.7464 37.873 14.9251 38.0237 15.1125 38.1571C15.8393 38.674 16.6965 38.9325 17.5539 38.9325C18.1423 38.9325 18.7307 38.8108 19.2768 38.5674C22.2448 35.4042 24.1516 31.2338 24.429 26.6234Z" fill="#F2721D"/>
<path d="M17.5543 11.6718C17.2552 11.6718 16.9561 11.7229 16.6716 11.8254C16.9561 11.7229 17.255 11.6718 17.5541 11.6719C18.1406 11.6719 18.7273 11.8688 19.2031 12.2626C19.2029 12.2623 19.2026 12.262 19.2023 12.2617C18.7266 11.8684 18.1404 11.6718 17.5543 11.6718ZM13.0646 7.92679L1.89691 19.0719C1.07863 19.8904 0.669495 20.9692 0.669495 22.0478C0.669495 20.9692 1.07863 19.8904 1.89691 19.0719L13.0646 7.92679Z" fill="white"/>
<path d="M13.0646 7.9268L1.89691 19.0719C1.07863 19.8904 0.669495 20.9692 0.669495 22.0478C0.669495 23.1266 1.07863 24.2053 1.89691 25.0237C4.01068 27.1371 6.1241 29.2507 8.23763 31.3644L11.9794 27.7044C11.0304 26.9718 7.75554 23.9572 7.37948 23.0526C7.2456 22.7331 7.1786 22.3914 7.17836 22.0499C7.17789 21.3863 7.42946 20.7225 7.93273 20.2193C10.5304 17.6217 13.128 15.024 15.7257 12.4264C16.0016 12.1503 16.3257 11.9499 16.6716 11.8254C16.9561 11.7229 17.2552 11.6718 17.5543 11.6718C18.1404 11.6718 18.7266 11.8684 19.2023 12.2617C17.4737 10.4404 15.3908 8.95929 13.0646 7.9268Z" fill="#1F304F"/>
</svg>
