<svg width="56" height="55" viewBox="0 0 56 55" fill="none" xmlns="http://www.w3.org/2000/svg">
<path d="M18.341 6.33542L18.3258 6.33424C18.1929 8.72663 16.1953 10.6261 13.75 10.6261C11.2187 10.6261 9.16663 8.59085 9.16663 6.08019C9.16663 8.59074 7.11466 10.6261 4.58326 10.6261C2.05208 10.6261 0 8.59074 0 6.08019V35.7238H7.95599C7.95599 35.7238 17.6845 27.1819 20.77 10.0967C19.3921 9.37073 18.4321 7.96834 18.341 6.33542Z" fill="#E80051"/>
<path d="M18.341 6.33542L18.3258 6.33424C18.1929 8.72663 16.1953 10.6261 13.75 10.6261C11.2187 10.6261 9.16663 8.59085 9.16663 6.08019C9.16663 8.59085 7.11455 10.6261 4.58326 10.6261C2.05208 10.6261 0 8.59074 0 6.08019V10.4168C0.956699 11.9313 2.64451 12.9401 4.56457 12.9401H4.60217C6.52223 12.9401 8.21004 11.9313 9.16674 10.4168C10.1234 11.9313 11.8112 12.9401 13.7313 12.9401H13.7688C15.6889 12.9401 17.3767 11.9313 18.3334 10.4168C18.8265 11.1975 19.515 11.8422 20.3285 12.2853C20.4873 11.5718 20.6353 10.8429 20.7701 10.0968C19.3921 9.37073 18.4321 7.96834 18.341 6.33542Z" fill="#CC004E"/>
<path d="M36.6615 6.33545L36.6767 6.33427C36.8097 8.72666 38.8072 10.626 41.2525 10.626C43.7838 10.626 45.8359 8.59077 45.8359 6.08011C45.8359 8.59067 47.888 10.626 50.4193 10.626C52.9505 10.626 55.0026 8.59077 55.0026 6.08011V35.7237H47.0466C47.0466 35.7237 37.3181 27.1818 34.2326 10.0966C35.6104 9.37076 36.5703 7.96837 36.6615 6.33545Z" fill="#E80051"/>
<path d="M13.7705 10.6261H13.7329C11.2119 10.6261 9.16833 8.58247 9.16833 6.06149V3.93862H18.335V6.06149C18.3351 8.58236 16.2915 10.6261 13.7705 10.6261Z" fill="#FF2F6B"/>
<path d="M13.7705 8.63005H13.7329C11.2119 8.63005 9.16833 6.58635 9.16833 4.06548V6.06149C9.16833 8.58235 11.2119 10.6261 13.7329 10.6261H13.7705C16.2915 10.6261 18.3351 8.58246 18.3351 6.06149V4.06548C18.3351 6.58646 16.2915 8.63005 13.7705 8.63005Z" fill="#F3155E"/>
<path d="M32.1021 10.6261H32.0646C29.5436 10.6261 27.5 8.58236 27.5 6.06149V3.93862H36.6666V6.06149C36.6666 8.58236 34.623 10.6261 32.1021 10.6261Z" fill="#FF2F6B"/>
<path d="M32.1021 8.63005H32.0646C29.5436 8.63005 27.5 6.58646 27.5 4.06548V6.06149C27.5 8.58235 29.5436 10.6261 32.0646 10.6261H32.1021C34.6229 10.6261 36.6666 8.58246 36.6666 6.06149V4.06548C36.6666 6.58646 34.623 8.63005 32.1021 8.63005Z" fill="#F3155E"/>
<path d="M50.4363 10.6261H50.3987C47.8778 10.6261 45.8342 8.58247 45.8342 6.06149V3.93862H55.0009V6.06149C55.0009 8.58236 52.9573 10.6261 50.4363 10.6261Z" fill="#FF2F6B"/>
<path d="M50.4363 8.63005H50.3987C47.8779 8.63005 45.8342 6.58635 45.8342 4.06548V6.06149C45.8342 8.58235 47.8778 10.6261 50.3987 10.6261H50.4363C52.9573 10.6261 55.0009 8.58246 55.0009 6.06149V4.06548C55.0009 6.58646 52.9573 8.63005 50.4363 8.63005Z" fill="#F3155E"/>
<path d="M4.60206 10.6261H4.56446C2.04359 10.6261 0 8.58236 0 6.06149V3.93862H9.16663V6.06149C9.16663 8.58236 7.12304 10.6261 4.60206 10.6261Z" fill="#FF2F6B"/>
<path d="M4.60206 8.63005H4.56446C2.04359 8.63005 0 6.58646 0 4.06548V6.06149C0 8.58235 2.04359 10.6261 4.56457 10.6261H4.60217C7.12304 10.6261 9.16674 8.58246 9.16674 6.06149V4.06548C9.16663 6.58646 7.12304 8.63005 4.60206 8.63005Z" fill="#F3155E"/>
<path d="M22.9363 10.6261H22.8987C20.3778 10.6261 18.3342 8.58247 18.3342 6.06149V3.93862H27.5009V6.06149C27.5009 8.58236 25.4573 10.6261 22.9363 10.6261Z" fill="#FF2F6B"/>
<path d="M22.9363 8.63005H22.8987C20.3779 8.63005 18.3342 6.58635 18.3342 4.06548V6.06149C18.3342 8.58235 20.3778 10.6261 22.8987 10.6261H22.9363C25.4573 10.6261 27.5009 8.58246 27.5009 6.06149V4.06548C27.5009 6.58646 25.4573 8.63005 22.9363 8.63005Z" fill="#F3155E"/>
<path d="M41.2705 10.6261H41.2329C38.7119 10.6261 36.6683 8.58247 36.6683 6.06149V3.93862H45.835V6.06149C45.8351 8.58236 43.7914 10.6261 41.2705 10.6261Z" fill="#FF2F6B"/>
<path d="M41.2705 8.63005H41.2329C38.7119 8.63005 36.6683 6.58635 36.6683 4.06548V6.06149C36.6683 8.58235 38.7119 10.6261 41.2329 10.6261H41.2705C43.7915 10.6261 45.8351 8.58246 45.8351 6.06149V4.06548C45.8351 6.58646 43.7914 8.63005 41.2705 8.63005Z" fill="#F3155E"/>
<path d="M55 3.93862H0V0.55333C0 0.247715 0.247715 0 0.55333 0H54.4467C54.7523 0 55 0.247715 55 0.55333V3.93862Z" fill="#E8834D"/>
<path d="M0 1.94265H55V3.93866H0V1.94265Z" fill="#D56723"/>
<path d="M54.4467 55H0.55333C0.247715 55 0 54.7523 0 54.4466V51.0615H55V54.4466C55 54.7523 54.7523 55 54.4467 55Z" fill="#E8834D"/>
<path d="M0.55333 55H54.4467C54.7523 55 55 54.7523 55 54.4467V53.0041H0V54.4467C0 54.7523 0.247715 55 0.55333 55Z" fill="#D56723"/>
<path d="M2.48132 37.3522C2.27024 37.3522 2.05916 37.2723 1.89727 37.1119C1.57157 36.7894 1.56899 36.2638 1.89158 35.9381C6.3396 31.4461 7.88024 21.6357 7.89528 21.5372C7.96457 21.0839 8.38802 20.773 8.84102 20.8419C9.29413 20.9111 9.60544 21.3346 9.53626 21.7877C9.47148 22.2119 7.89506 32.2344 3.07107 37.1062C2.90886 37.2701 2.69509 37.3522 2.48132 37.3522Z" fill="#CC004E"/>
<path d="M52.5215 37.3522C52.3077 37.3522 52.0941 37.27 51.9317 37.1062C47.1078 32.2344 45.5313 22.2118 45.4666 21.7876C45.3974 21.3344 45.7087 20.9113 46.1617 20.842C46.6149 20.7725 47.0381 21.0841 47.1075 21.537C47.1227 21.6355 48.6691 31.4519 53.1112 35.9381C53.4338 36.2638 53.4312 36.7894 53.1055 37.1119C52.9437 37.2721 52.7326 37.3522 52.5215 37.3522Z" fill="#CC004E"/>
<path d="M8.03752 38.9169H0V35.7238H8.03752C8.91934 35.7238 9.63413 36.4386 9.63413 37.3203C9.63413 38.2021 8.91934 38.9169 8.03752 38.9169Z" fill="#FFDC00"/>
<path d="M8.03752 37.3204H0V38.9171H8.03752C8.91934 38.9171 9.63413 38.2023 9.63413 37.3204C9.63413 37.0293 9.55496 36.7572 9.41875 36.5222C9.14257 36.9989 8.62812 37.3204 8.03752 37.3204Z" fill="#FFBF00"/>
<path d="M46.9636 38.9169H55.0011V35.7238H46.9636C46.0819 35.7238 45.367 36.4386 45.367 37.3203C45.367 38.2021 46.0819 38.9169 46.9636 38.9169Z" fill="#FFDC00"/>
<path d="M45.5824 36.522C45.4462 36.7571 45.367 37.0292 45.367 37.3203C45.367 38.202 46.0818 38.9169 46.9636 38.9169H55.0011V37.3203H46.9636C46.373 37.3204 45.8586 36.9989 45.5824 36.522Z" fill="#FFBF00"/>
<path d="M0 38.9169V51.0614H12.399C12.399 51.0614 11.3728 44.461 7.34959 38.9169H0Z" fill="#E80051"/>
<path d="M7.3497 38.9169H0V40.9129H8.6524C8.25763 40.2413 7.82482 39.5718 7.3497 38.9169Z" fill="#CC004E"/>
<path d="M55.0005 38.9169V51.0614H42.6015C42.6015 51.0614 43.6277 44.461 47.6509 38.9169H55.0005Z" fill="#E80051"/>
<path d="M47.6512 38.917C47.1761 39.5717 46.7432 40.2413 46.3484 40.913H55.0008V38.917H47.6512Z" fill="#CC004E"/>
<path d="M36.6591 6.33545L36.6743 6.33427C36.8073 8.72666 38.8048 10.626 41.2501 10.626C43.7814 10.626 45.8335 8.59077 45.8335 6.08011C45.8335 8.59077 47.8856 10.626 50.4169 10.626C52.9481 10.626 55.0002 8.59077 55.0002 6.08011V10.4167C54.0435 11.9313 52.3557 12.9401 50.4357 12.9401H50.3981C48.478 12.9401 46.7902 11.9313 45.8335 10.4167C44.8768 11.9313 43.189 12.9401 41.2689 12.9401H41.2314C39.3114 12.9401 37.6236 11.9313 36.6669 10.4167C36.1737 11.1975 35.4851 11.8421 34.6717 12.2852C34.5129 11.5717 34.3648 10.8429 34.2301 10.0967C35.608 9.37076 36.5679 7.96837 36.6591 6.33545Z" fill="#CC004E"/>
</svg>
