<svg width="58" height="58" viewBox="0 0 58 58" fill="none" xmlns="http://www.w3.org/2000/svg">
<path d="M26.6963 5.63948L28.595 5.48554L29.7804 20.1015L27.8817 20.2554L26.6963 5.63948Z" fill="#DBDBDB"/>
<path d="M8.32959 13.3787L9.49967 11.8755L22.6998 22.1508L21.5297 23.654L8.32959 13.3787Z" fill="#DBDBDB"/>
<path d="M8.12158 9.11282L25.1841 3.07465L25.8193 4.86954L8.75675 10.9077L8.12158 9.11282Z" fill="#DBDBDB"/>
<path d="M28.8276 5.39244L29.6391 3.66803L51.2279 13.8276L50.4165 15.552L28.8276 5.39244Z" fill="#DBDBDB"/>
<path d="M9.38428 12.4591L9.55655 10.5621L49.0463 14.149L48.874 16.0461L9.38428 12.4591Z" fill="#DBDBDB"/>
<path d="M51.541 17.4807L53.4371 17.2977L54.548 28.8059L52.6519 28.9889L51.541 17.4807Z" fill="#DBDBDB"/>
<path d="M37.0347 29.4125L37.1882 27.5128L52.4073 28.7435L52.2537 30.6432L37.0347 29.4125Z" fill="#DBDBDB"/>
<path d="M48.6367 46.8189L52.8409 31.7375L54.6758 32.249L50.4716 47.3303L48.6367 46.8189Z" fill="#DBDBDB"/>
<path d="M30.77 52.0401L47.7195 47.5071L48.2116 49.3474L31.2622 53.8803L30.77 52.0401Z" fill="#DBDBDB"/>
<path d="M12.9541 49.1437L51.1883 30.1101L52.0376 31.8162L13.8034 50.8499L12.9541 49.1437Z" fill="#DBDBDB"/>
<path d="M3.91064 37.524L5.66422 36.7801L11.2201 49.876L9.46652 50.62L3.91064 37.524Z" fill="#DBDBDB"/>
<path d="M3.04443 33.8537L5.74725 13.218L7.63596 13.4654L4.93314 34.1009L3.04443 33.8537Z" fill="#DBDBDB"/>
<path d="M5.69629 32.9906L21.0686 27.7554L21.6824 29.5576L6.31014 34.7929L5.69629 32.9906Z" fill="#DBDBDB"/>
<path d="M12.1743 53.2621L12.3142 51.3623L27.3945 52.473L27.2546 54.3728L12.1743 53.2621Z" fill="#DBDBDB"/>
<path d="M28.9043 51.5728L49.7412 18.1031L51.3575 19.1094L30.5206 52.5791L28.9043 51.5728Z" fill="#DBDBDB"/>
<path d="M5.17578 36.9625L6.31253 35.4339L28.2982 51.7846L27.1614 53.3132L5.17578 36.9625Z" fill="#DBDBDB"/>
<path d="M3.47656 33.5568L25.4586 4.74287L26.9731 5.89831L4.99096 34.7123L3.47656 33.5568Z" fill="#DBDBDB"/>
<path d="M33.9067 35.1033L35.2096 33.7135L48.2986 45.9839L46.9958 47.3737L33.9067 35.1033Z" fill="#DBDBDB"/>
<path d="M10.6055 49.2829L22.8318 32.6177L24.3685 33.7451L12.1421 50.4103L10.6055 49.2829Z" fill="#DBDBDB"/>
<path d="M35.3579 23.0961L48.6005 16.1242L49.488 17.8098L36.2454 24.7817L35.3579 23.0961Z" fill="#DBDBDB"/>
<path d="M28.5984 37.1523C33.3326 37.1523 37.1705 33.3145 37.1705 28.5803C37.1705 23.8461 33.3326 20.0082 28.5984 20.0082C23.8642 20.0082 20.0264 23.8461 20.0264 28.5803C20.0264 33.3145 23.8642 37.1523 28.5984 37.1523Z" fill="#FDB62F"/>
<path d="M22.5371 34.6417C25.8847 37.9893 31.3123 37.9893 34.6599 34.6417C38.0075 31.294 38.0075 25.8665 34.6599 22.5189L22.5371 34.6417Z" fill="#FFA12E"/>
<path d="M32.4082 26.6754C32.4082 25.0973 31.1289 23.818 29.5508 23.818V22.8656H27.6459V23.818H25.741C25.215 23.818 24.7886 24.2445 24.7886 24.7705V32.3901C24.7886 32.9161 25.215 33.3425 25.741 33.3425H27.6459V34.295H29.5508V33.3425C31.1289 33.3415 32.4073 32.0613 32.4061 30.4832C32.4057 29.781 32.1466 29.1035 31.6786 28.5802C32.149 28.0573 32.4089 27.3787 32.4082 26.6754ZM29.5508 31.4376H26.6935V29.5327H29.5508C30.0768 29.5327 30.5033 29.9592 30.5033 30.4852C30.5033 31.0112 30.0769 31.4376 29.5508 31.4376ZM29.5508 27.6278H26.6935V25.7229H29.5508C30.0768 25.7229 30.5033 26.1494 30.5033 26.6754C30.5033 27.2014 30.0769 27.6278 29.5508 27.6278Z" fill="#F46B27"/>
<path d="M27.6459 6.67395C29.224 6.67395 30.5033 5.39467 30.5033 3.8166C30.5033 2.23853 29.224 0.959254 27.6459 0.959254C26.0679 0.959254 24.7886 2.23853 24.7886 3.8166C24.7886 5.39467 26.0679 6.67395 27.6459 6.67395Z" fill="#4398D1"/>
<path d="M3.83489 38.1048C5.41296 38.1048 6.69224 36.8255 6.69224 35.2474C6.69224 33.6694 5.41296 32.3901 3.83489 32.3901C2.25682 32.3901 0.977539 33.6694 0.977539 35.2474C0.977539 36.8255 2.25682 38.1048 3.83489 38.1048Z" fill="#4398D1"/>
<path d="M28.5986 56.2013C30.1766 56.2013 31.4559 54.9221 31.4559 53.344C31.4559 51.7659 30.1766 50.4866 28.5986 50.4866C27.0205 50.4866 25.7412 51.7659 25.7412 53.344C25.7412 54.9221 27.0205 56.2013 28.5986 56.2013Z" fill="#87CED9"/>
<path d="M51.4574 19.0558C53.0355 19.0558 54.3148 17.7765 54.3148 16.1984C54.3148 14.6204 53.0355 13.3411 51.4574 13.3411C49.8794 13.3411 48.6001 14.6204 48.6001 16.1984C48.6001 17.7765 49.8794 19.0558 51.4574 19.0558Z" fill="#87CED9"/>
<path d="M7.64495 14.2935C9.22302 14.2935 10.5023 13.0143 10.5023 11.4362C10.5023 9.85813 9.22302 8.57885 7.64495 8.57885C6.06688 8.57885 4.7876 9.85813 4.7876 11.4362C4.7876 13.0143 6.06688 14.2935 7.64495 14.2935Z" fill="#87CED9"/>
<path d="M49.5527 51.4391C51.1307 51.4391 52.41 50.1598 52.41 48.5817C52.41 47.0037 51.1307 45.7244 49.5527 45.7244C47.9746 45.7244 46.6953 47.0037 46.6953 48.5817C46.6953 50.1598 47.9746 51.4391 49.5527 51.4391Z" fill="#4398D1"/>
<path d="M53.3622 33.3425C54.9403 33.3425 56.2196 32.0633 56.2196 30.4852C56.2196 28.9071 54.9403 27.6278 53.3622 27.6278C51.7842 27.6278 50.5049 28.9071 50.5049 30.4852C50.5049 32.0633 51.7842 33.3425 53.3622 33.3425Z" fill="#87CED9"/>
<path d="M11.4545 54.2964C13.0326 54.2964 14.3119 53.0171 14.3119 51.4391C14.3119 49.861 13.0326 48.5817 11.4545 48.5817C9.87645 48.5817 8.59717 49.861 8.59717 51.4391C8.59717 53.0171 9.87645 54.2964 11.4545 54.2964Z" fill="#4398D1"/>
<path d="M25.741 33.3425H27.6459V34.295H29.5508V33.3425C31.1289 33.3415 32.4073 32.0613 32.4061 30.4832C32.4057 29.781 32.1466 29.1035 31.6786 28.5802C32.7307 27.4039 32.63 25.5976 31.4537 24.5455C30.9303 24.0774 30.2529 23.8184 29.5508 23.8179V22.8655H27.6459V23.8179H25.741C25.215 23.8179 24.7886 24.2444 24.7886 24.7704V32.39C24.7886 32.9161 25.215 33.3425 25.741 33.3425ZM26.6935 25.7229H29.5508C30.0768 25.7229 30.5033 26.1494 30.5033 26.6754C30.5033 27.2014 30.0768 27.6278 29.5508 27.6278H26.6935V25.7229ZM26.6935 29.5327H29.5508C30.0768 29.5327 30.5033 29.9592 30.5033 30.4852C30.5033 31.0112 30.0768 31.4376 29.5508 31.4376H26.6935V29.5327Z" fill="black"/>
<path d="M54.2423 26.7878L53.568 19.3663C55.3175 18.1974 55.7883 15.8315 54.6194 14.082C53.9136 13.0256 52.7278 12.3906 51.4574 12.3886C50.7984 12.3927 50.152 12.5697 49.583 12.902L31.3807 4.56046C31.8001 2.504 30.4729 0.496836 28.4164 0.0774008C26.36 -0.342034 24.3528 0.985204 23.9334 3.04166C23.9048 3.18179 23.8841 3.32359 23.8715 3.4661L9.9126 8.39312C9.25993 7.89808 8.46392 7.6289 7.64481 7.6264C5.54073 7.63187 3.83954 9.34212 3.84502 11.4462C3.84835 12.7231 4.49113 13.9134 5.55704 14.6164L3.25593 31.4967C1.17875 31.7977 -0.261114 33.7254 0.0397414 35.8026C0.340596 37.8798 2.26847 39.3196 4.34565 39.0188C4.41006 39.0095 4.47411 38.9985 4.53792 38.9859L8.73442 48.78C7.25967 50.2748 7.2761 52.6823 8.77097 54.1569C10.2658 55.6316 12.6733 55.6152 14.1479 54.1203C14.3511 53.9144 14.5301 53.6859 14.6814 53.4393L24.885 54.168C25.335 56.2163 27.3604 57.5121 29.4088 57.0621C31.0678 56.6977 32.283 55.2758 32.3846 53.5803L46.0208 49.9924C46.797 51.9482 49.0117 52.9042 50.9673 52.1281C52.9231 51.3518 53.8791 49.1371 53.103 47.1815C52.7208 46.2186 51.9629 45.4528 51.004 45.0606L54.1023 34.218C56.1622 33.8102 57.5015 31.8097 57.0937 29.7498C56.8047 28.2898 55.6904 27.1327 54.2423 26.7889V26.7878ZM52.3374 26.8344C51.4017 27.0993 50.6029 27.7128 50.1059 28.5489L45.7179 28.1974L50.845 19.9501C51.0472 19.9857 51.252 20.0051 51.4574 20.0082C51.5441 20.0082 51.625 19.9882 51.7107 19.9825L52.3374 26.8344ZM47.6009 45.3272L39.6889 37.9143L50.2268 32.6453C50.6983 33.3224 51.3768 33.828 52.1603 34.0864L49.0934 44.8224C48.566 44.8835 48.0574 45.0555 47.6009 45.3272ZM45.7913 48.0893L32.0274 51.7077C31.8997 51.445 31.7421 51.198 31.5578 50.9714L38.6574 39.5516L46.2694 46.6883C46.0196 47.1178 45.8578 47.5928 45.7932 48.0855L45.7913 48.0893ZM26.3708 50.2695L21.7743 46.8673L36.4087 39.5487L30.0273 49.8199C28.8141 49.319 27.4273 49.4888 26.3708 50.2676V50.2695ZM13.9985 48.6284C13.8681 48.5043 13.7291 48.3897 13.5823 48.2855L16.0453 45.0005L18.1407 46.5521L13.9985 48.6284ZM17.1854 43.4804L22.7382 36.078C26.2751 38.8623 31.2826 38.7747 34.72 35.8684L36.3887 37.4333L20.0542 45.6006L17.1854 43.4804ZM26.9004 7.55496L27.2518 12.1267L22.5848 11.6924L25.9994 7.23875C26.2865 7.38162 26.5909 7.48663 26.9051 7.55115L26.9004 7.55496ZM20.3418 11.4867L11.3659 10.6523C11.317 10.4211 11.2465 10.195 11.1554 9.97704L24.1792 5.37766C24.2793 5.60006 24.4008 5.81222 24.5421 6.01104L20.3418 11.4867ZM11.264 12.5525L18.9731 13.2697L16.1024 17.0195L11.0545 13.0963C11.1382 12.9206 11.2082 12.7388 11.264 12.5525ZM21.2133 13.4782L27.4042 14.0497L27.7919 19.0929C25.6488 19.2744 23.6312 20.1792 22.0705 21.6588L17.6045 18.1843L21.2133 13.4782ZM49.5877 30.8309L41.5871 34.8312L44.5807 30.0156L49.5582 30.4138C49.5582 30.4385 49.5506 30.4614 49.5506 30.4861C49.5526 30.6033 49.5774 30.7157 49.5877 30.8309ZM38.3336 36.458L38.2079 36.5218L36.0486 34.4979C37.1956 33.0622 37.9002 31.3238 38.0764 29.4946L42.4453 29.8432L38.3336 36.458ZM20.979 28.5803C20.979 24.3721 24.3904 20.9607 28.5986 20.9607C32.8067 20.9607 36.2182 24.3721 36.2182 28.5803C36.2182 32.7885 32.8067 36.1999 28.5986 36.1999C24.3924 36.1951 20.9838 32.7864 20.979 28.5803ZM38.0697 27.5821C37.9488 26.4474 37.6228 25.344 37.1078 24.3257L48.3619 18.4024C48.5676 18.6866 48.812 18.9408 49.0877 19.1577L43.5778 28.0231L38.0697 27.5821ZM47.6895 16.6042L36.0848 22.7122C34.5214 20.7131 32.224 19.4217 29.7034 19.1253L29.3224 14.2326L47.6676 15.9394C47.6609 16.0261 47.6409 16.1099 47.6409 16.1984C47.6495 16.3344 47.6654 16.4699 47.6885 16.6042H47.6895ZM20.8209 23.1018C19.6943 24.6881 19.0842 26.5832 19.0741 28.5289L6.62938 32.6758C6.60462 32.6492 6.58557 32.6187 6.56081 32.593L16.4472 19.6977L20.8209 23.1018ZM7.53707 34.3826L19.2646 30.4776C19.5866 32.0569 20.3058 33.528 21.3543 34.7522L15.6557 42.3498L7.47802 36.3008C7.5835 35.9594 7.63969 35.6047 7.64469 35.2474C7.64207 34.956 7.606 34.6657 7.53707 34.3826ZM53.3623 16.1984C53.3623 17.2505 52.5095 18.1033 51.4574 18.1033C50.4053 18.1033 49.5525 17.2505 49.5525 16.1984C49.5525 15.1463 50.4053 14.2935 51.4574 14.2935C52.5095 14.2935 53.3623 15.1463 53.3623 16.1984ZM47.4067 14.0002L29.1816 12.3048L28.8006 7.42638C29.4747 7.2103 30.0746 6.80931 30.5322 6.26916L47.4067 14.0002ZM27.6463 1.9117C28.6984 1.9117 29.5512 2.7645 29.5512 3.8166C29.5512 4.8687 28.6984 5.7215 27.6463 5.7215C26.5942 5.7215 25.7414 4.8687 25.7414 3.8166C25.7414 2.7645 26.5942 1.9117 27.6463 1.9117ZM7.64481 9.5313C8.69691 9.5313 9.54971 10.3841 9.54971 11.4362C9.54971 12.4883 8.69691 13.3411 7.64481 13.3411C6.59271 13.3411 5.73991 12.4883 5.73991 11.4362C5.73991 10.3841 6.59271 9.5313 7.64481 9.5313ZM7.64481 15.246C8.42654 15.2454 9.18885 15.0025 9.82688 14.5507L14.9434 18.53L5.21512 31.2195L7.39718 15.2184C7.48099 15.226 7.55993 15.246 7.64481 15.246ZM1.93012 35.2474C1.93012 34.1953 2.78292 33.3425 3.83502 33.3425C4.88712 33.3425 5.73991 34.1953 5.73991 35.2474C5.73991 36.2995 4.88712 37.1523 3.83502 37.1523C2.78292 37.1523 1.93012 36.2994 1.93012 35.2474ZM6.51128 37.9533L14.5119 43.8681L11.6745 47.6512C11.5993 47.6512 11.5288 47.6293 11.4526 47.6293C11.0903 47.6344 10.7306 47.6921 10.3849 47.8007L6.25698 38.1638C6.34174 38.0934 6.43318 38.0314 6.51128 37.9533ZM11.4546 53.344C10.4025 53.344 9.54971 52.4912 9.54971 51.4391C9.54971 50.387 10.4025 49.5342 11.4546 49.5342C12.5067 49.5342 13.3595 50.387 13.3595 51.4391C13.3595 52.4912 12.5066 53.344 11.4546 53.344ZM15.0492 50.2304L19.8638 47.8198L25.1575 51.7324C25.081 51.9044 25.0173 52.0816 24.967 52.2629L15.252 51.5696C15.252 51.5238 15.2654 51.4819 15.2654 51.4362C15.2599 51.0251 15.1869 50.6177 15.0492 50.2304ZM28.5986 55.2489C27.5465 55.2489 26.6937 54.3961 26.6937 53.344C26.6937 52.2919 27.5465 51.4391 28.5986 51.4391C29.6507 51.4391 30.5035 52.2919 30.5035 53.344C30.5035 54.3961 29.6507 55.2489 28.5986 55.2489ZM49.5525 50.4866C48.5004 50.4866 47.6476 49.6338 47.6476 48.5817C47.6476 47.5296 48.5004 46.6768 49.5525 46.6768C50.6046 46.6768 51.4574 47.5296 51.4574 48.5817C51.4574 49.6338 50.6046 50.4866 49.5525 50.4866ZM53.3623 32.3901C52.3102 32.3901 51.4574 31.5373 51.4574 30.4852C51.4574 29.4331 52.3102 28.5803 53.3623 28.5803C54.4144 28.5803 55.2672 29.4331 55.2672 30.4852C55.2672 31.5372 54.4144 32.3901 53.3623 32.3901Z" fill="black"/>
</svg>
