<svg width="29" height="29" viewBox="0 0 29 29" fill="none" xmlns="http://www.w3.org/2000/svg">
<path d="M29 14.5C29 6.49187 22.5081 0 14.5 0C6.49187 0 0 6.49187 0 14.5C0 22.5081 6.49187 29 14.5 29C22.5081 29 29 22.5081 29 14.5Z" fill="#FEA832"/>
<path d="M18.6281 13.6358C19.6425 13.0641 20.1907 11.9195 20.0017 10.7714C19.7669 8.99875 17.6538 8.32953 15.9868 8.18871V5.52386H14.3432V8.16524H13.2398V5.52386H11.5962V8.16524H8.28567V9.86749H9.51831C10.0701 9.86749 10.3401 10.0318 10.3401 10.4779V17.7916C10.3401 18.402 10.0348 18.5899 9.70612 18.5899H8.45001V20.3273H11.6432V23.0274H13.2984V20.3273H14.4019V23.0274H16.0102V20.3273H16.3624C19.7434 20.3273 20.8704 18.6721 20.8704 16.4181C20.8434 15.0891 19.9218 13.9457 18.6281 13.6358ZM13.2397 9.97313H14.4136C15.2354 9.97313 16.8555 10.114 16.8555 11.4523C16.9118 12.3257 16.279 13.0912 15.4115 13.2015H13.2397V9.97313ZM15.0593 18.4255V18.4138H13.2397V14.8919H15.3528C15.8459 14.8919 17.7007 15.0563 17.7007 16.3711C17.7007 17.6859 16.8203 18.4255 15.0593 18.4255Z" fill="white"/>
</svg>
