<svg width="77" height="58" viewBox="0 0 77 58" fill="none" xmlns="http://www.w3.org/2000/svg">
<path fill-rule="evenodd" clip-rule="evenodd" d="M15.9719 15.2386C18.0049 13.1475 20.1466 13.1351 21.6273 13.9157C25.2667 15.8336 25.9785 21.725 26.3326 25.9396C26.6152 29.3064 27.0552 32.2519 27.6085 35.5454C28.2115 39.1359 28.861 45.6746 29.862 48.6888C30.4895 50.5812 31.6618 51.6551 33.0995 52.329C37.8601 54.5636 48.6837 56.2543 51.4379 50.3426C49.4043 52.4346 47.263 52.4463 45.7819 51.6658C42.1425 49.7485 41.4303 43.8567 41.0764 39.642C40.7937 36.2753 40.354 33.3298 39.8007 30.0355C39.1978 26.445 38.5477 19.9071 37.5476 16.8922C36.9199 15.0002 35.7474 13.9267 34.3091 13.2519C29.5495 11.0178 18.7255 9.32707 15.9719 15.2386Z" fill="url(#paint0_linear_1725_51)"/>
<path fill-rule="evenodd" clip-rule="evenodd" d="M8.36465 49.9418L7.60406 51.4718C7.27257 52.1392 7.55388 52.9428 8.21768 53.2808H8.21811C8.88233 53.6188 9.70662 53.3305 10.0381 52.663L10.7987 51.1331C11.1302 50.4656 10.8492 49.662 10.1851 49.324L10.1847 49.3233C9.5201 48.9864 8.69653 49.2736 8.36465 49.9418ZM3.54302 52.8918L2.17326 55.6467C1.84156 56.3142 2.12297 57.1189 2.78689 57.4565H2.7873C3.45142 57.7934 4.2754 57.5062 4.6069 56.8387L5.97667 54.0831C6.30823 53.4163 6.02735 52.612 5.36301 52.2747L5.36273 52.274C4.6985 51.9363 3.8745 52.224 3.54302 52.8918ZM1.99213 46.9017L0.139487 50.6291C-0.192006 51.2966 0.088988 52.1006 0.753214 52.4389H0.753625C1.41775 52.7758 2.24173 52.4889 2.57322 51.8211L4.42638 48.0937C4.75748 47.4262 4.47688 46.6219 3.81255 46.2843H3.81205C3.14771 45.947 2.32414 46.2342 1.99213 46.9017ZM26.2095 24.5956C23.5054 30.0633 19.8617 37.241 17.2263 42.5845C17.2048 42.7115 17.165 42.8367 17.1051 42.9569L13.9252 49.3548C13.5937 50.0223 12.7692 50.3103 12.1051 49.9726C11.441 49.6339 11.1596 48.8303 11.4915 48.1628C12.8588 45.4122 14.101 42.792 15.4522 40.0736C15.7837 39.4068 15.5027 38.6025 14.8386 38.2645H14.8381C14.174 37.9269 13.3501 38.2145 13.0185 38.8823C11.5154 41.9061 10.0154 44.9323 8.51222 47.9561C8.18073 48.6239 7.35644 48.9115 6.6926 48.5739H6.69179C6.02809 48.2359 5.7471 47.4316 6.0786 46.7648C7.35056 44.2049 8.59616 41.6731 9.86667 39.1174C10.1982 38.45 9.91689 37.6471 9.25277 37.3084H9.25234C8.58843 36.9704 7.76422 37.2584 7.43266 37.9258C6.38115 40.0413 5.32358 42.0593 4.28161 44.1556C3.95001 44.8231 3.19862 44.883 2.462 44.7731H2.46149C1.72487 44.6624 1.51637 43.6307 1.84786 42.9633L2.59997 41.4496L2.56 41.4436C6.48038 33.3752 7.82277 30.5776 11.9275 22.6005C13.028 20.4618 14.2546 17.7639 15.5764 15.823C15.764 15.5479 15.9581 15.2921 16.157 15.0547C18.134 13.1475 20.1914 13.1588 21.6275 13.9157C24.8931 15.6369 25.8019 20.5578 26.2095 24.5956Z" fill="url(#paint1_linear_1725_51)"/>
<path fill-rule="evenodd" clip-rule="evenodd" d="M48.1479 45.0092L46.2948 48.7373C45.9629 49.4041 46.2445 50.2084 46.9091 50.5457C47.5726 50.884 48.3972 50.5954 48.7291 49.9286L50.5815 46.2005C50.9135 45.5338 50.6319 44.7291 49.9679 44.3914H49.9672C49.3033 44.0538 48.4791 44.3418 48.1479 45.0092ZM43.5456 39.2L42.7855 40.73C42.4532 41.3978 42.7348 42.2015 43.3984 42.5391H43.3991C44.063 42.8771 44.8872 42.5891 45.2184 41.9216L45.9792 40.3917C46.3111 39.7249 46.0299 38.9202 45.366 38.5826H45.3653C44.7014 38.2446 43.8772 38.5319 43.5456 39.2ZM54.483 14.1919L46.5119 12.9983L76.6623 0C69.3068 15.0676 62.6663 29.675 54.4575 44.3365C54.1401 44.9039 53.2244 45.2291 52.5502 44.8624C52.0764 44.606 51.5905 43.9541 52.0781 43.0338L56.2531 35.1527C56.8028 34.1166 56.4357 33.3788 55.8935 33.0519C55.2789 32.6821 54.4061 32.8549 53.8024 33.9942L49.4913 42.1316C48.1855 44.5961 45.9572 43.1633 47.0371 41.0041C48.616 37.8488 50.2786 34.6632 51.9579 31.4943C53.1251 29.2894 50.696 28.0908 49.5073 30.335L46.5339 35.9472C46.1984 36.5802 45.4759 36.9944 44.9152 36.9242C44.1506 36.8278 43.6179 35.9741 44.1506 34.9004C47.5836 27.9932 51.0457 21.1 54.483 14.1919Z" fill="url(#paint2_linear_1725_51)"/>
<defs>
<linearGradient id="paint0_linear_1725_51" x1="18.3144" y1="6.14939" x2="50.8456" y2="62.4621" gradientUnits="userSpaceOnUse">
<stop stop-color="#8ED8C6"/>
<stop offset="0.175355" stop-color="#47B4D5"/>
<stop offset="0.683681" stop-color="#356CBE"/>
<stop offset="1" stop-color="#29449D"/>
</linearGradient>
<linearGradient id="paint1_linear_1725_51" x1="-6.82124" y1="72.5409" x2="28.9472" y2="6.08997" gradientUnits="userSpaceOnUse">
<stop stop-color="#8ED8C6"/>
<stop offset="0.322581" stop-color="#47B4D5"/>
<stop offset="0.698925" stop-color="#356CBE"/>
<stop offset="1" stop-color="#29449D"/>
</linearGradient>
<linearGradient id="paint2_linear_1725_51" x1="37.3785" y1="52.6559" x2="70.3154" y2="-7.58614" gradientUnits="userSpaceOnUse">
<stop stop-color="#8ED8C6"/>
<stop offset="0.322581" stop-color="#47B4D5"/>
<stop offset="0.698925" stop-color="#356CBE"/>
<stop offset="1" stop-color="#29449D"/>
</linearGradient>
</defs>
</svg>
