<svg width="66" height="73" viewBox="0 0 66 73" fill="none" xmlns="http://www.w3.org/2000/svg">
<path d="M14.9799 51.7252C14.9709 51.6248 14.9687 51.5635 14.9687 51.5635C14.9727 51.6176 14.976 51.6708 14.9799 51.7252C15.0337 52.3034 15.3766 54.3331 17.5413 55.4688C17.5456 55.4575 17.5503 55.4466 17.5547 55.4353C15.9452 52.8109 15.5461 50.3903 16.2717 47.4541C17.0044 44.4945 17.3865 40.7724 16.1848 39.6233C18.5462 39.93 18.7986 43.4666 19.125 45.7855C18.5666 41.5173 19.8633 33.6434 20.4727 32.4407C21.4759 30.4607 29.1241 20.1692 31.1494 17.3239C28.8799 20.7892 31.9049 27.3811 32.2733 30.8805C32.2805 30.8711 32.2882 30.8607 32.2955 30.8518C32.4177 29.2566 33.5703 14.12 34.6602 13.6198C40.1239 11.1094 43.7072 6.66045 44.381 5.78042C44.4313 5.71185 44.4584 5.67486 44.4584 5.67486C41.512 8.31445 37.6229 9.74104 35.7484 10.3167C33.4149 9.69763 30.9646 9.36614 28.4368 9.36614C12.7316 9.36614 0 22.0974 0 37.8024C0 46.8406 4.21718 54.8931 10.7903 60.1017C12.1962 65.9069 12.4149 72.95 12.4149 72.95C12.8159 69.7349 15.154 54.2252 14.9799 51.7252Z" fill="url(#paint0_linear_75_884)"/>
<path d="M55.5708 22.7643C55.5857 22.7437 55.6005 22.7232 55.6154 22.7031L55.3129 22.836C55.4052 22.8176 55.4913 22.7936 55.5708 22.7643Z" fill="url(#paint1_linear_75_884)"/>
<path d="M55.5647 22.7727C53.5363 23.7949 44.6322 33.1393 41.9322 37.4737C41.1337 38.7552 32.9285 39.0221 29.0318 38.2592C31.832 39.0288 37.8287 40.8125 40.5915 39.6498C38.346 40.8584 33.7229 47.6985 30.792 49.5766C27.8616 51.4552 20.112 54.7313 19.0764 56.413C21.3825 55.105 24.0245 54.1394 25.6755 54.3383C24.0167 54.817 20.2712 56.4668 18.794 58.4218C20.5826 57.0678 21.1305 57.9512 21.2443 58.4305C20.9513 57.958 18.113 59.7023 16.577 61.0219C23.0032 44.1394 32.6198 29.9139 45.7808 17.7862C44.7466 18.5193 43.6932 19.3471 42.6288 20.2572C42.6243 20.2612 42.6194 20.2652 42.615 20.2683C26.5423 35.2932 18.9907 51.1166 15.1407 62.9424C19.1089 65.0456 23.633 66.2392 28.4369 66.2392C44.142 66.2392 56.8738 53.5078 56.8738 37.8024C56.8738 33.408 55.8765 29.2462 54.0963 25.531C54.4691 24.6129 54.9624 23.5952 55.5647 22.7727Z" fill="url(#paint2_linear_75_884)"/>
<path d="M44.1417 19.1298C49.1276 19.2861 56.4815 19.8105 56.9172 19.2797C60.2348 15.2381 65.978 1.04089 64.9741 0.40716C63.2017 -0.71138 52.7673 0.550806 48.9902 3.2616C46.0149 5.39781 44.5821 12.5041 43.7039 17.1668C44.6761 16.3667 59.2842 5.40626 60.229 4.75193C59.308 5.58212 45.885 16.9154 44.1417 19.1298Z" fill="url(#paint3_linear_75_884)"/>
<defs>
<linearGradient id="paint0_linear_75_884" x1="2.87464" y1="57.2843" x2="48.9258" y2="-17.7475" gradientUnits="userSpaceOnUse">
<stop stop-color="#4B9DDC"/>
<stop offset="1" stop-color="#334AA6"/>
</linearGradient>
<linearGradient id="paint1_linear_75_884" x1="32.965" y1="80.3268" x2="73.7717" y2="13.8406" gradientUnits="userSpaceOnUse">
<stop stop-color="#4B9DDC"/>
<stop offset="1" stop-color="#334AA6"/>
</linearGradient>
<linearGradient id="paint2_linear_75_884" x1="32.1131" y1="79.1747" x2="73.6398" y2="11.5146" gradientUnits="userSpaceOnUse">
<stop stop-color="#4B9DDC"/>
<stop offset="1" stop-color="#334AA6"/>
</linearGradient>
<linearGradient id="paint3_linear_75_884" x1="19.877" y1="90.1332" x2="78.2475" y2="-4.9706" gradientUnits="userSpaceOnUse">
<stop stop-color="#4B9DDC"/>
<stop offset="1" stop-color="#334AA6"/>
</linearGradient>
</defs>
</svg>
