<svg width="67" height="73" viewBox="0 0 67 73" fill="none" xmlns="http://www.w3.org/2000/svg">
<path d="M57.0232 63.0171H0.712402C0.319014 63.0171 0 62.6981 0 62.3047V59.6815C0 47.878 9.56856 38.3094 21.3721 38.3094H36.3636C48.1671 38.3094 57.7357 47.878 57.7357 59.6815V62.3047C57.7357 62.6982 57.4166 63.0171 57.0232 63.0171Z" fill="#524798"/>
<path d="M36.3636 38.3094H25.0632C36.8667 38.3094 46.4352 47.878 46.4352 59.6815V62.3047C46.4352 62.6981 46.1162 63.0171 45.7228 63.0171H57.0233C57.4166 63.0171 57.7357 62.6981 57.7357 62.3047V59.6815C57.7357 47.878 48.1671 38.3094 36.3636 38.3094Z" fill="#453D81"/>
<path d="M15.3161 8.64101V14.4576L15.886 16.1131H41.8498L42.4197 14.4576V8.64101C42.4196 3.86877 38.5509 0 33.7785 0H23.9569C19.1847 0 15.3161 3.86877 15.3161 8.64101V8.64101Z" fill="#D8AA8B"/>
<path d="M33.7785 0H26.9193C31.6915 0 35.5603 3.86863 35.5603 8.64101V16.1131H41.8496L42.4196 14.4576V8.64101C42.4196 3.86863 38.5509 0 33.7785 0V0Z" fill="#C6865C"/>
<path d="M41.5556 19.3252C40.1668 22.274 40.0473 26.1945 41.7907 27.0154C43.5341 27.8366 46.4803 25.2473 47.869 22.2985C49.2578 19.3497 48.3604 17.5885 46.6171 16.7675C44.8735 15.9464 42.9443 16.3764 41.5556 19.3252Z" fill="#FFCBBE"/>
<path d="M30.4743 46.9982H27.2613C22.8979 46.9982 19.3607 43.461 19.3607 39.0975V24.3324H38.3751V39.0975C38.375 43.461 34.8377 46.9982 30.4743 46.9982V46.9982Z" fill="#EAAC9D"/>
<path d="M32.6793 24.3324V39.086C32.6793 43.0293 29.7942 46.2978 26.0199 46.8985C26.4281 46.9634 26.8463 46.9982 27.2728 46.9982H30.4628C34.8325 46.9982 38.375 43.4558 38.375 39.086V24.3324H32.6793Z" fill="#DF9380"/>
<path d="M39.9582 11.9963H17.7774C16.418 11.9963 15.3161 13.0982 15.3161 14.4576V23.22C15.3161 27.9891 17.6901 32.4454 21.6483 35.1058L25.5866 37.7529C25.9871 38.022 26.4124 38.2369 26.8526 38.3975L29.7394 38.3094L32.6793 37.3964L36.0873 35.1058C40.0454 32.4454 42.4196 27.9891 42.4196 23.22V14.4576C42.4196 13.0982 41.3176 11.9963 39.9582 11.9963V11.9963Z" fill="#FFCBBE"/>
<path d="M38.3908 11.9963V23.22C38.3908 27.9891 36.0168 32.4454 32.0585 35.1058L28.1202 37.7529C27.7197 38.0222 27.2935 38.2369 26.8534 38.3975C28.594 39.0322 30.5653 38.8174 32.149 37.7529L36.0873 35.1058C40.0454 32.4454 42.4196 27.9891 42.4196 23.22V14.4576C42.4196 13.0982 41.3176 11.9963 39.9582 11.9963H38.3908Z" fill="#EAAC9D"/>
<path d="M41.5556 19.3252C40.1668 22.274 40.0473 26.1945 41.7907 27.0154C43.5341 27.8366 46.4803 25.2473 47.869 22.2985C49.2578 19.3497 48.3604 17.5885 46.6171 16.7675C44.8735 15.9464 42.9443 16.3764 41.5556 19.3252Z" fill="#EAAC9D"/>
<path d="M16.1801 19.3252C17.5688 22.274 17.6884 26.1945 15.945 27.0154C14.2016 27.8366 11.2554 25.2473 9.86662 22.2985C8.47787 19.3497 9.37521 17.5885 11.1186 16.7675C12.862 15.9464 14.7913 16.3764 16.1801 19.3252Z" fill="#FFCBBE"/>
<path d="M22.4518 22.0936C23.3567 22.0936 24.0902 21.3601 24.0902 20.4552C24.0902 19.5504 23.3567 18.8168 22.4518 18.8168C21.5469 18.8168 20.8134 19.5504 20.8134 20.4552C20.8134 21.3601 21.5469 22.0936 22.4518 22.0936Z" fill="#5E54AC"/>
<path d="M35.2326 22.0936C36.1374 22.0936 36.8709 21.3601 36.8709 20.4552C36.8709 19.5504 36.1374 18.8168 35.2326 18.8168C34.3277 18.8168 33.5942 19.5504 33.5942 20.4552C33.5942 21.3601 34.3277 22.0936 35.2326 22.0936Z" fill="#5E54AC"/>
<path d="M28.8678 31.2457C26.9948 31.2457 25.2406 30.3237 24.1754 28.7792C23.8398 28.2928 23.9622 27.6262 24.4487 27.2907C24.9352 26.9552 25.6016 27.0776 25.9371 27.5641C26.6028 28.5291 27.6984 29.1053 28.8677 29.1053C30.037 29.1053 31.1327 28.5291 31.7982 27.5641C32.1336 27.0774 32.8001 26.955 33.2867 27.2907C33.7733 27.6262 33.8957 28.2928 33.56 28.7792C32.4951 30.3235 30.7409 31.2457 28.8678 31.2457V31.2457Z" fill="#E28086"/>
<path d="M54.8922 72.95C60.9484 72.95 65.8579 68.0405 65.8579 61.9843C65.8579 55.9281 60.9484 51.0186 54.8922 51.0186C48.836 51.0186 43.9265 55.9281 43.9265 61.9843C43.9265 68.0405 48.836 72.95 54.8922 72.95Z" fill="#78D090"/>
<path d="M60.5001 52.5589C61.4788 54.2 62.0424 56.1192 62.0424 58.1687C62.0424 64.2249 57.1328 69.1344 51.0767 69.1344C49.0271 69.1344 47.11 68.5706 45.4689 67.5919C47.3822 70.8001 50.8855 72.95 54.8922 72.95C60.9484 72.95 65.8579 68.0404 65.8579 61.9843C65.8579 57.9774 63.7081 54.4721 60.5001 52.5589V52.5589Z" fill="#6EC186"/>
<path d="M54.6068 65.8298C54.3349 65.8298 54.0723 65.7262 53.8734 65.539L48.9976 60.9511C48.5672 60.5462 48.5465 59.8689 48.9516 59.4384C49.3566 59.008 50.0339 58.9872 50.4643 59.3924L54.5254 63.2136L65.0064 51.0339C65.392 50.5858 66.0675 50.5351 66.5156 50.9208C66.9635 51.3062 67.0142 51.9819 66.6287 52.43L55.4179 65.4577C55.2274 65.6791 54.9547 65.813 54.663 65.8282C54.6442 65.8292 54.6254 65.8298 54.6068 65.8298V65.8298Z" fill="#E7ECF1"/>
</svg>
