<svg width="56" height="73" viewBox="0 0 56 73" fill="none" xmlns="http://www.w3.org/2000/svg">
<path fill-rule="evenodd" clip-rule="evenodd" d="M8.74993 2.23197e-06H54.2443C55.1744 2.23197e-06 55.9396 0.756922 55.9396 1.68073V2.40269H8.63778C5.19453 2.40269 2.39114 5.20808 2.39114 8.65891C2.39114 12.1028 5.19453 14.9085 8.63778 14.9085H55.9396V52.2377C55.9396 63.6328 46.6058 72.95 35.2207 72.95H1.69522C0.765147 72.95 0 72.201 0 71.2709V8.75621C0 3.93732 3.94456 2.23197e-06 8.74993 2.23197e-06" fill="#667BD1"/>
<path fill-rule="evenodd" clip-rule="evenodd" d="M9.54275 13.0544C7.11203 13.0544 5.13788 11.0891 5.13788 8.65873C5.13788 6.22834 7.11203 4.2565 9.54275 4.2565H53.7588V13.0544H9.54275Z" fill="#A2B9E2"/>
<path fill-rule="evenodd" clip-rule="evenodd" d="M19.636 27.4424L43.4392 41.2601L19.636 55.0781V41.2601V27.4424Z" fill="white"/>
<path fill-rule="evenodd" clip-rule="evenodd" d="M8.62451 14.9092H15.9574V29.4834L12.291 26.7548L8.62451 29.4834V14.9092Z" fill="white"/>
</svg>
