<svg width="69" height="73" viewBox="0 0 69 73" fill="none" xmlns="http://www.w3.org/2000/svg">
<path d="M22.3826 8.04389V1.17622H45.9071V8.04389" fill="#787680"/>
<path d="M34.1449 71.7495C52.3339 71.7495 67.0791 57.0044 67.0791 38.8153C67.0791 20.6262 52.3339 5.8811 34.1449 5.8811C15.9558 5.8811 1.21066 20.6262 1.21066 38.8153C1.21066 57.0044 15.9558 71.7495 34.1449 71.7495Z" fill="#E0E0E2"/>
<path d="M34.1449 67.0446C49.7355 67.0446 62.3742 54.4059 62.3742 38.8153C62.3742 23.2247 49.7355 10.586 34.1449 10.586C18.5543 10.586 5.91556 23.2247 5.91556 38.8153C5.91556 54.4059 18.5543 67.0446 34.1449 67.0446Z" fill="#3D9AE2"/>
<path d="M58.2646 14.6956C55.0702 11.4906 51.2691 8.95448 47.0833 7.23538V1.17622C47.0833 0.864268 46.9594 0.565091 46.7388 0.344507C46.5182 0.123923 46.219 0 45.9071 0H22.3827C22.0707 0 21.7715 0.123923 21.5509 0.344507C21.3304 0.565091 21.2064 0.864268 21.2064 1.17622V7.23538C14.4243 10.0097 8.71517 14.8934 4.92365 21.1639C1.13213 27.4344 -0.54044 34.7588 0.153345 42.0535C0.847131 49.3483 3.87043 56.2261 8.77602 61.6694C13.6816 67.1128 20.209 70.8326 27.3925 72.2788C34.5761 73.7249 42.0344 72.8205 48.6641 69.6993C55.2938 66.5781 60.7429 61.4059 64.2053 54.9478C67.6676 48.4898 68.9594 41.0887 67.8896 33.8396C66.8197 26.5904 63.445 19.8781 58.2646 14.6956ZM23.5589 2.35244H44.7309V6.37277C37.8487 4.14893 30.441 4.14893 23.5589 6.37277V2.35244ZM56.6011 61.2716C53.6531 64.225 50.1519 66.5685 46.2977 68.1681C42.4435 69.7677 38.3118 70.592 34.1388 70.5939C29.9658 70.5959 25.8334 69.7754 21.9777 68.1793C18.122 66.5833 14.6187 64.243 11.6679 61.2923C8.71718 58.3415 6.3769 54.8382 4.78086 50.9825C3.18481 47.1268 2.3643 42.9943 2.36622 38.8214C2.36815 34.6484 3.19246 30.5167 4.79205 26.6625C6.39164 22.8082 8.73515 19.3071 11.6886 16.359C14.6366 13.4056 18.1378 11.0621 21.992 9.46248C25.8463 7.86289 29.978 7.03858 34.1509 7.03665C38.3239 7.03473 42.4563 7.85525 46.312 9.45129C50.1677 11.0473 53.6711 13.3876 56.6218 16.3383C59.5726 19.2891 61.9128 22.7924 63.5089 26.6481C65.1049 30.5038 65.9254 34.6363 65.9235 38.8092C65.9216 42.9822 65.0973 47.1139 63.4977 50.9681C61.8981 54.8224 59.5546 58.3235 56.6011 61.2716Z" fill="black"/>
<path d="M34.1449 9.40977C17.9307 9.40977 4.73935 22.6011 4.73935 38.8153C4.73935 55.0295 17.9307 68.2208 34.1449 68.2208C50.3591 68.2208 63.5504 55.0295 63.5504 38.8153C63.5504 22.6011 50.3591 9.40977 34.1449 9.40977ZM34.1449 65.8684C19.2277 65.8684 7.09179 53.7324 7.09179 38.8153C7.09179 23.8982 19.2277 11.7622 34.1449 11.7622C49.062 11.7622 61.198 23.8982 61.198 38.8153C61.198 53.7324 49.062 65.8684 34.1449 65.8684Z" fill="black"/>
<path d="M21.2064 43.5202V29.4055C21.2064 29.0936 21.0825 28.7944 20.8619 28.5738C20.6413 28.3532 20.3422 28.2293 20.0302 28.2293H12.9729C12.6609 28.2293 12.3618 28.3532 12.1412 28.5738C11.9206 28.7944 11.7967 29.0936 11.7967 29.4055V43.5202C11.7967 43.8321 11.9206 44.1313 12.1412 44.3519C12.3618 44.5725 12.6609 44.6964 12.9729 44.6964H20.0302C20.3422 44.6964 20.6413 44.5725 20.8619 44.3519C21.0825 44.1313 21.2064 43.8321 21.2064 43.5202ZM18.854 42.344H14.1491V30.5818H18.854V42.344Z" fill="black"/>
<path d="M23.5589 44.6964H30.6162C30.9282 44.6964 31.2274 44.5725 31.448 44.3519C31.6685 44.1313 31.7925 43.8321 31.7925 43.5202V29.4055C31.7925 29.0936 31.6685 28.7944 31.448 28.5738C31.2274 28.3532 30.9282 28.2293 30.6162 28.2293H23.5589C23.247 28.2293 22.9478 28.3532 22.7272 28.5738C22.5066 28.7944 22.3827 29.0936 22.3827 29.4055V43.5202C22.3827 43.8321 22.5066 44.1313 22.7272 44.3519C22.9478 44.5725 23.247 44.6964 23.5589 44.6964ZM24.7351 30.5818H29.44V42.344H24.7351V30.5818Z" fill="black"/>
<path d="M37.6735 44.6964H44.7309C45.0428 44.6964 45.342 44.5725 45.5626 44.3519C45.7832 44.1313 45.9071 43.8321 45.9071 43.5202V29.4055C45.9071 29.0936 45.7832 28.7944 45.5626 28.5738C45.342 28.3532 45.0428 28.2293 44.7309 28.2293H37.6735C37.3616 28.2293 37.0624 28.3532 36.8418 28.5738C36.6212 28.7944 36.4973 29.0936 36.4973 29.4055V43.5202C36.4973 43.8321 36.6212 44.1313 36.8418 44.3519C37.0624 44.5725 37.3616 44.6964 37.6735 44.6964ZM38.8498 30.5818H43.5546V42.344H38.8498V30.5818Z" fill="black"/>
<path d="M55.3169 28.2293H48.2595C47.9476 28.2293 47.6484 28.3532 47.4278 28.5738C47.2072 28.7944 47.0833 29.0936 47.0833 29.4055V43.5202C47.0833 43.8321 47.2072 44.1313 47.4278 44.3519C47.6484 44.5725 47.9476 44.6964 48.2595 44.6964H55.3169C55.6288 44.6964 55.928 44.5725 56.1486 44.3519C56.3692 44.1313 56.4931 43.8321 56.4931 43.5202V29.4055C56.4931 29.0936 56.3692 28.7944 56.1486 28.5738C55.928 28.3532 55.6288 28.2293 55.3169 28.2293ZM54.1406 42.344H49.4358V30.5818H54.1406V42.344Z" fill="black"/>
<path d="M34.1448 35.2866C34.4568 35.2866 34.756 35.1627 34.9766 34.9421C35.1971 34.7216 35.3211 34.4224 35.3211 34.1104V32.9342C35.3211 32.6222 35.1971 32.3231 34.9766 32.1025C34.756 31.8819 34.4568 31.758 34.1448 31.758C33.8329 31.758 33.5337 31.8819 33.3131 32.1025C33.0926 32.3231 32.9686 32.6222 32.9686 32.9342V34.1104C32.9686 34.4224 33.0926 34.7216 33.3131 34.9421C33.5337 35.1627 33.8329 35.2866 34.1448 35.2866Z" fill="black"/>
<path d="M34.1448 41.1677C34.4568 41.1677 34.756 41.0438 34.9766 40.8232C35.1971 40.6027 35.3211 40.3035 35.3211 39.9915V38.8153C35.3211 38.5034 35.1971 38.2042 34.9766 37.9836C34.756 37.763 34.4568 37.6391 34.1448 37.6391C33.8329 37.6391 33.5337 37.763 33.3131 37.9836C33.0926 38.2042 32.9686 38.5034 32.9686 38.8153V39.9915C32.9686 40.3035 33.0926 40.6027 33.3131 40.8232C33.5337 41.0438 33.8329 41.1677 34.1448 41.1677Z" fill="black"/>
<path d="M51.7882 48.2251H16.5015C16.1896 48.2251 15.8904 48.349 15.6698 48.5696C15.4492 48.7902 15.3253 49.0893 15.3253 49.4013C15.3253 49.7132 15.4492 50.0124 15.6698 50.233C15.8904 50.4536 16.1896 50.5775 16.5015 50.5775H51.7882C52.1001 50.5775 52.3993 50.4536 52.6199 50.233C52.8405 50.0124 52.9644 49.7132 52.9644 49.4013C52.9644 49.0893 52.8405 48.7902 52.6199 48.5696C52.3993 48.349 52.1001 48.2251 51.7882 48.2251Z" fill="black"/>
<path d="M41.2022 51.7537H27.0875C26.7756 51.7537 26.4764 51.8777 26.2558 52.0982C26.0352 52.3188 25.9113 52.618 25.9113 52.93C25.9113 53.2419 26.0352 53.5411 26.2558 53.7617C26.4764 53.9823 26.7756 54.1062 27.0875 54.1062H41.2022C41.5141 54.1062 41.8133 53.9823 42.0339 53.7617C42.2545 53.5411 42.3784 53.2419 42.3784 52.93C42.3784 52.618 42.2545 52.3188 42.0339 52.0982C41.8133 51.8777 41.5141 51.7537 41.2022 51.7537Z" fill="black"/>
</svg>
