<svg viewBox="0 0 146 178" fill="none" xmlns="http://www.w3.org/2000/svg">
	<path fill-rule="evenodd" clip-rule="evenodd" d="M56.6299 132.18L68.4682 144.017C73.0411 148.591 80.5262 148.592 85.1013 144.017L113.313 115.804H145.978L90.3172 171.465C82.8738 178.908 70.6946 178.908 63.2512 171.465L40.0758 148.29L56.6299 132.18Z" fill="#F16318" />
	<path fill-rule="evenodd" clip-rule="evenodd" d="M87.2206 58.6291L85.1014 56.5093C80.5263 51.9336 73.0412 51.9336 68.4683 56.5093C56.6554 68.3221 44.8426 80.135 33.0297 91.9478C29.563 95.4146 28.723 100.556 30.5138 104.832C32.2239 108.946 47.1166 122.655 51.432 125.986L34.4162 142.63C24.8049 133.018 15.1941 123.406 5.58171 113.796C-1.86057 106.353 -1.86057 94.1737 5.58171 86.7298L60.2245 32.1979L28.0271 0H60.6915C89.0271 28.3377 117.644 56.3875 145.978 84.722H113.313L103.575 74.9824L87.2206 58.6291Z" fill="#142039" />
	<path d="M63.2512 171.465C64.0143 172.228 64.8277 172.913 65.68 173.52C64.8277 172.913 64.0148 172.228 63.2512 171.465ZM108.047 121.071L85.1013 144.017C82.8137 146.304 79.7994 147.448 76.7845 147.448C73.7696 147.448 70.7547 146.304 68.4682 144.017L56.6299 132.18L40.0758 148.29L56.6299 132.18L68.4682 144.017C70.7547 146.304 73.7696 147.448 76.7845 147.448C79.7994 147.448 82.8137 146.304 85.1013 144.017L108.047 121.071Z" fill="white" />
	<path d="M108.047 121.071L85.1013 144.017C82.8137 146.304 79.7994 147.448 76.7845 147.448C73.7696 147.448 70.7547 146.304 68.4682 144.017L56.6299 132.179L40.0758 148.29L63.2512 171.465C64.0148 172.228 64.8277 172.913 65.68 173.52C68.985 175.871 72.8831 177.046 76.7823 177.046C79.4579 177.046 82.1335 176.493 84.6169 175.386C98.1139 161.002 106.785 142.036 108.047 121.071Z" fill="#F2721D" />
	<path d="M76.784 53.0775C75.424 53.0775 74.0635 53.3103 72.7701 53.7762C74.0635 53.3103 75.4229 53.0775 76.7829 53.0781C79.4504 53.0781 82.1184 53.9737 84.282 55.7645C84.2809 55.7629 84.2799 55.7618 84.2782 55.7602C82.1152 53.9716 79.4493 53.0775 76.784 53.0775ZM56.367 36.0472L5.58171 86.7296C1.86057 90.4519 0 95.3576 0 100.263C0 95.3576 1.86057 90.4519 5.58171 86.7296L56.367 36.0472Z" fill="white" />
	<path d="M56.367 36.0473L5.58171 86.7298C1.86057 90.452 0 95.3578 0 100.263C0 105.169 1.86057 110.074 5.58171 113.796C15.1941 123.406 24.8049 133.018 34.4162 142.63L51.432 125.986C47.1166 122.655 32.2239 108.946 30.5138 104.832C29.905 103.379 29.6003 101.825 29.5992 100.272C29.597 97.2546 30.7411 94.2359 33.0297 91.9478C44.8426 80.135 56.6554 68.3221 68.4683 56.5093C69.7232 55.2537 71.1969 54.3424 72.7701 53.7763C74.0635 53.3104 75.424 53.0777 76.784 53.0777C79.4493 53.0777 82.1152 53.9717 84.2782 55.7603C76.4176 47.4781 66.9454 40.7426 56.367 36.0473Z" fill="#1F304F" />
</svg>
