<svg width="22" height="22" viewBox="0 0 22 22" fill="none" xmlns="http://www.w3.org/2000/svg">
<path fill-rule="evenodd" clip-rule="evenodd" d="M20.0257 15.3823C18.3997 18.7277 14.9689 21.0342 11 21.0342C10.278 21.0342 9.57407 20.9571 8.89521 20.812C9.36036 20.8837 9.83675 20.921 10.3218 20.921C14.1178 20.921 17.3825 18.6442 18.826 15.3823H20.0257ZM11 0.973959C16.5384 0.973959 21.0301 5.4654 21.0301 11.004C21.0301 11.399 21.0064 11.7884 20.9619 12.1716L19.3387 9.36006C18.3268 5.32175 14.6734 2.33027 10.3218 2.33027C5.18895 2.33027 1.02644 6.49271 1.02644 11.6257C1.02644 11.7826 1.03076 11.9385 1.03863 12.0936L1.03029 12.1081C0.990568 11.7454 0.969971 11.3771 0.969971 11.004C0.969971 5.4654 5.46136 0.973959 11 0.973959Z" fill="#1E2931"/>
<path fill-rule="evenodd" clip-rule="evenodd" d="M1.26517 11.7014C1.26498 11.6754 1.26416 11.6495 1.26416 11.6234C1.26416 6.60292 5.33549 2.53164 10.356 2.53164C11.0103 2.53164 11.6486 2.60147 12.2637 2.73293C11.8421 2.66802 11.4103 2.63404 10.9707 2.63404C7.00069 2.63404 3.67173 5.38134 2.77989 9.07793L1.26517 11.7014ZM10.356 20.7153C6.67593 20.7153 3.50613 18.5278 2.07563 15.3824H3.73727C5.20935 17.8403 7.89793 19.486 10.9707 19.486C14.0432 19.486 16.7319 17.8403 18.204 15.3824H18.6364C17.2058 18.5278 14.036 20.7153 10.356 20.7153Z" fill="#277EFB"/>
<path fill-rule="evenodd" clip-rule="evenodd" d="M0.0444063 14.9116L0 14.8347L4.4677 7.09708H8.49052L3.97879 14.9116H0.0444063Z" fill="#1E2931"/>
<path fill-rule="evenodd" clip-rule="evenodd" d="M8.4907 7.09708L13.0024 14.9116H8.9794L4.46753 7.09708H8.4907Z" fill="#277EFB"/>
<path fill-rule="evenodd" clip-rule="evenodd" d="M9.04184 14.9116L8.99731 14.8347L13.4651 7.09708H17.4879L12.9763 14.9116H9.04184Z" fill="#277EFB"/>
<path fill-rule="evenodd" clip-rule="evenodd" d="M17.4881 7.09708L21.9999 14.9116H17.9767L13.4648 7.09708H17.4881Z" fill="#1E2931"/>
</svg>
