<svg width="7" height="7" viewBox="0 0 7 7" fill="none" xmlns="http://www.w3.org/2000/svg">
<path d="M3.52537 6.03748L6.79666 2.85298C6.82454 2.82579 6.84016 2.78892 6.84009 2.7505L6.84009 0.145012C6.84024 0.0650696 6.77377 0.000149497 6.69165 2.2461e-07C6.65206 -6.76267e-05 6.61408 0.0152396 6.58611 0.0425294L3.42008 3.12482L0.254064 0.0425294C0.196073 -0.0140721 0.101921 -0.0141807 0.0437765 0.0422716C0.0157428 0.0694935 1.81198e-05 0.106472 8.7738e-05 0.145012L8.7738e-05 2.7505C1.81198e-05 2.78892 0.0156307 2.82579 0.0435114 2.85298L3.31482 6.03748C3.37281 6.09408 3.46696 6.09419 3.52511 6.03773C3.52519 6.03764 3.52527 6.03756 3.52537 6.03748Z" fill="#050505"/>
</svg>
