<svg width="24" height="23" viewBox="0 0 24 23" fill="none" xmlns="http://www.w3.org/2000/svg">
<path d="M1.85971 12.6049H4.33935V22.5234H1.85971V12.6049Z" fill="#C2C2C2"/>
<path d="M4.33935 22.73H1.85971C1.80491 22.73 1.75235 22.7082 1.7136 22.6695C1.67485 22.6307 1.65308 22.5782 1.65308 22.5234V12.6048C1.65308 12.55 1.67485 12.4975 1.7136 12.4587C1.75235 12.42 1.80491 12.3982 1.85971 12.3982H4.33935C4.39415 12.3982 4.44671 12.42 4.48546 12.4587C4.52421 12.4975 4.54599 12.55 4.54599 12.6048V22.5234C4.54599 22.5782 4.52421 22.6307 4.48546 22.6695C4.44671 22.7082 4.39415 22.73 4.33935 22.73ZM2.06635 22.3167H4.13271V12.8115H2.06635V22.3167Z" fill="#212A41"/>
<path d="M11.7783 4.33942H15.4977C15.8266 4.33942 16.1419 4.47004 16.3744 4.70255C16.6069 4.93506 16.7376 5.25041 16.7376 5.57923V15.0845C16.7376 15.5229 16.5634 15.9434 16.2534 16.2534C15.9434 16.5634 15.5229 16.7376 15.0845 16.7376H13.4314V5.57923C13.4314 5.25041 13.3008 4.93506 13.0682 4.70255C12.8357 4.47004 12.5204 4.33942 12.1916 4.33942H11.7783Z" fill="#E0C8A4"/>
<path d="M15.0845 16.9442H13.4314C13.3766 16.9442 13.324 16.9224 13.2853 16.8837C13.2465 16.8449 13.2247 16.7923 13.2247 16.7375V5.57918C13.2247 5.30516 13.1159 5.04236 12.9221 4.84861C12.7284 4.65485 12.4656 4.54599 12.1916 4.54599H11.7783C11.7235 4.54599 11.6709 4.52422 11.6322 4.48547C11.5934 4.44672 11.5717 4.39416 11.5717 4.33936C11.5717 4.28455 11.5934 4.232 11.6322 4.19324C11.6709 4.15449 11.7235 4.13272 11.7783 4.13272H15.4977C15.8814 4.13272 16.2493 4.28511 16.5205 4.55638C16.7918 4.82764 16.9442 5.19555 16.9442 5.57918V15.0844C16.9437 15.5775 16.7475 16.0502 16.3989 16.3989C16.0502 16.7475 15.5775 16.9436 15.0845 16.9442ZM13.638 16.5309H15.0845C15.4681 16.5309 15.836 16.3785 16.1073 16.1072C16.3785 15.836 16.5309 15.4681 16.5309 15.0844V5.57918C16.5309 5.30516 16.4221 5.04236 16.2283 4.84861C16.0346 4.65485 15.7718 4.54599 15.4977 4.54599H13.2028C13.3407 4.6804 13.4503 4.84108 13.525 5.01853C13.5998 5.19599 13.6382 5.38662 13.638 5.57918V16.5309Z" fill="#212A41"/>
<path d="M13.4314 12.6049H4.33936V22.5234H13.4314V16.7376H15.0844C15.5229 16.7376 15.9433 16.5635 16.2534 16.2534C16.5634 15.9434 16.7375 15.523 16.7375 15.0845V12.6049H13.4314Z" fill="#E0E0E0"/>
<path d="M13.4314 22.73H4.33936C4.28455 22.73 4.232 22.7082 4.19324 22.6695C4.15449 22.6307 4.13272 22.5782 4.13272 22.5234V12.6048C4.13272 12.55 4.15449 12.4975 4.19324 12.4587C4.232 12.42 4.28455 12.3982 4.33936 12.3982H16.7375C16.7923 12.3982 16.8449 12.42 16.8837 12.4587C16.9224 12.4975 16.9442 12.55 16.9442 12.6048V15.0845C16.9436 15.5775 16.7475 16.0502 16.3989 16.3989C16.0502 16.7475 15.5775 16.9436 15.0844 16.9442H13.638V22.5234C13.638 22.5782 13.6162 22.6307 13.5775 22.6695C13.5387 22.7082 13.4862 22.73 13.4314 22.73ZM4.54599 22.3167H13.2247V16.7376C13.2247 16.6828 13.2465 16.6302 13.2852 16.5914C13.324 16.5527 13.3766 16.5309 13.4314 16.5309H15.0844C15.4681 16.5309 15.836 16.3785 16.1072 16.1073C16.3785 15.836 16.5309 15.4681 16.5309 15.0845V12.8115H4.54599V22.3167Z" fill="#212A41"/>
<path d="M13.4314 16.9441C13.3766 16.9441 13.324 16.9224 13.2853 16.8836C13.2465 16.8449 13.2247 16.7923 13.2247 16.7375V15.0844C13.2247 15.0296 13.2465 14.9771 13.2853 14.9383C13.324 14.8995 13.3766 14.8778 13.4314 14.8778C13.4862 14.8778 13.5387 14.8995 13.5775 14.9383C13.6162 14.9771 13.638 15.0296 13.638 15.0844V16.7375C13.638 16.7923 13.6162 16.8449 13.5775 16.8836C13.5387 16.9224 13.4862 16.9441 13.4314 16.9441Z" fill="#212A41"/>
<path d="M12.1915 6.81905C12.8763 6.81905 13.4314 6.26397 13.4314 5.57923C13.4314 4.8945 12.8763 4.33942 12.1915 4.33942C11.5068 4.33942 10.9517 4.8945 10.9517 5.57923C10.9517 6.26397 11.5068 6.81905 12.1915 6.81905Z" fill="#E0C8A4"/>
<path d="M12.1915 7.02563C11.9055 7.02563 11.6258 6.9408 11.3879 6.78186C11.1501 6.62292 10.9647 6.39702 10.8552 6.13271C10.7457 5.86841 10.7171 5.57757 10.7729 5.29699C10.8287 5.0164 10.9665 4.75867 11.1687 4.55638C11.371 4.35409 11.6288 4.21633 11.9094 4.16051C12.1899 4.1047 12.4808 4.13335 12.7451 4.24283C13.0094 4.35231 13.2353 4.5377 13.3942 4.77557C13.5532 5.01344 13.638 5.29309 13.638 5.57918C13.638 5.9628 13.4856 6.33071 13.2143 6.60197C12.9431 6.87324 12.5752 7.02563 12.1915 7.02563ZM12.1915 4.54599C11.9872 4.54599 11.7874 4.60659 11.6175 4.72012C11.4476 4.83364 11.3152 4.99501 11.237 5.18379C11.1588 5.37258 11.1383 5.58032 11.1782 5.78074C11.2181 5.98116 11.3165 6.16525 11.461 6.30975C11.6055 6.45424 11.7896 6.55264 11.99 6.59251C12.1904 6.63237 12.3981 6.61191 12.5869 6.53371C12.7757 6.45551 12.9371 6.32309 13.0506 6.15318C13.1641 5.98328 13.2247 5.78352 13.2247 5.57918C13.2247 5.30516 13.1159 5.04237 12.9221 4.84861C12.7284 4.65485 12.4656 4.54599 12.1915 4.54599Z" fill="#212A41"/>
<path d="M9.71189 1.03317H6.4057C5.74806 1.03317 5.11736 1.29442 4.65234 1.75944C4.18731 2.22446 3.92607 2.85517 3.92607 3.51281V4.33935C3.59725 4.33935 3.28189 4.46998 3.04938 4.70249C2.81687 4.935 2.68625 5.25035 2.68625 5.57917C2.68625 5.90799 2.81687 6.22335 3.04938 6.45586C3.28189 6.68837 3.59725 6.81899 3.92607 6.81899V7.64554C3.92607 8.30318 4.18731 8.93388 4.65234 9.3989C5.11736 9.86393 5.74806 10.1252 6.4057 10.1252H9.71189C10.3695 10.1252 11.0002 9.86393 11.4653 9.3989C11.9303 8.93388 12.1915 8.30318 12.1915 7.64554V3.51281C12.1915 2.85517 11.9303 2.22446 11.4653 1.75944C11.0002 1.29442 10.3695 1.03317 9.71189 1.03317Z" fill="#E0C8A4"/>
<path d="M9.7119 10.3317H6.40572C5.69354 10.3309 5.01079 10.0476 4.5072 9.54399C4.00362 9.04041 3.72032 8.35765 3.71945 7.64548V7.01069C3.37525 6.96094 3.0605 6.78884 2.83286 6.52593C2.60522 6.26302 2.47992 5.92689 2.47992 5.57911C2.47992 5.23134 2.60522 4.89521 2.83286 4.6323C3.0605 4.36938 3.37525 4.19729 3.71945 4.14754V3.51275C3.72032 2.80057 4.00362 2.11782 4.5072 1.61423C5.01079 1.11065 5.69354 0.827352 6.40572 0.826477H9.7119C10.4241 0.827352 11.1068 1.11065 11.6104 1.61423C12.114 2.11782 12.3973 2.80057 12.3982 3.51275V7.64548C12.3973 8.35765 12.114 9.04041 11.6104 9.54399C11.1068 10.0476 10.4241 10.3309 9.7119 10.3317ZM6.40572 1.23975C5.80308 1.24041 5.22532 1.48009 4.79919 1.90622C4.37306 2.33235 4.13338 2.91011 4.13272 3.51275V4.3393C4.13272 4.3941 4.11095 4.44666 4.0722 4.48541C4.03345 4.52416 3.98089 4.54593 3.92608 4.54593C3.65207 4.54593 3.38927 4.65478 3.19551 4.84854C3.00175 5.0423 2.8929 5.3051 2.8929 5.57911C2.8929 5.85313 3.00175 6.11592 3.19551 6.30968C3.38927 6.50344 3.65207 6.6123 3.92608 6.6123C3.98089 6.6123 4.03345 6.63407 4.0722 6.67282C4.11095 6.71157 4.13272 6.76413 4.13272 6.81893V7.64548C4.13338 8.24811 4.37306 8.82588 4.79919 9.25201C5.22532 9.67813 5.80308 9.91782 6.40572 9.91848H9.7119C10.3145 9.91782 10.8923 9.67813 11.3184 9.25201C11.7446 8.82588 11.9842 8.24811 11.9849 7.64548V3.51275C11.9842 2.91011 11.7446 2.33235 11.3184 1.90622C10.8923 1.48009 10.3145 1.24041 9.7119 1.23975H6.40572Z" fill="#212A41"/>
<path d="M6.40575 9.50533C5.91269 9.50478 5.43997 9.30867 5.09133 8.96002C4.74268 8.61137 4.54657 8.13866 4.54602 7.6456C4.54602 7.5908 4.56779 7.53824 4.60654 7.49949C4.64529 7.46074 4.69785 7.43896 4.75266 7.43896C4.80746 7.43896 4.86002 7.46074 4.89877 7.49949C4.93752 7.53824 4.95929 7.5908 4.95929 7.6456C4.95929 8.02922 5.11169 8.39714 5.38295 8.6684C5.65421 8.93966 6.02212 9.09206 6.40575 9.09206C6.46055 9.09206 6.51311 9.11383 6.55186 9.15258C6.59061 9.19133 6.61238 9.24389 6.61238 9.29869C6.61238 9.3535 6.59061 9.40605 6.55186 9.44481C6.51311 9.48356 6.46055 9.50533 6.40575 9.50533Z" fill="#FEE6C2"/>
<path d="M9.71192 9.5053C9.65711 9.5053 9.60455 9.48353 9.5658 9.44478C9.52705 9.40603 9.50528 9.35347 9.50528 9.29866C9.50528 9.24386 9.52705 9.1913 9.5658 9.15255C9.60455 9.1138 9.65711 9.09203 9.71192 9.09203C10.0955 9.09203 10.4635 8.93963 10.7347 8.66837C11.006 8.39711 11.1584 8.0292 11.1584 7.64557V3.92612C11.1584 3.87132 11.1801 3.81876 11.2189 3.78C11.2576 3.74125 11.3102 3.71948 11.365 3.71948C11.4198 3.71948 11.4724 3.74125 11.5111 3.78C11.5499 3.81876 11.5716 3.87132 11.5716 3.92612V7.64557C11.5711 8.13864 11.375 8.61135 11.0263 8.95999C10.6777 9.30864 10.205 9.50475 9.71192 9.5053Z" fill="#C2AA86"/>
<path d="M6.40573 10.1251H9.71191V12.6048H6.40573V10.1251Z" fill="#E8D2A8"/>
<path d="M9.71192 12.8115H6.40573C6.35093 12.8115 6.29837 12.7897 6.25962 12.751C6.22087 12.7122 6.1991 12.6597 6.1991 12.6049V10.1252C6.1991 10.0704 6.22087 10.0179 6.25962 9.9791C6.29837 9.94035 6.35093 9.91858 6.40573 9.91858H9.71192C9.76672 9.91858 9.81928 9.94035 9.85803 9.9791C9.89678 10.0179 9.91855 10.0704 9.91855 10.1252V12.6049C9.91855 12.6597 9.89678 12.7122 9.85803 12.751C9.81928 12.7897 9.76672 12.8115 9.71192 12.8115ZM6.61237 12.3982H9.50528V10.3319H6.61237V12.3982Z" fill="#212A41"/>
<path d="M5.57918 0.206696H12.6048V1.44651C12.6048 1.88494 12.4306 2.30541 12.1206 2.61543C11.8106 2.92544 11.3901 3.0996 10.9517 3.0996H3.92609V1.85979C3.92609 1.42136 4.10025 1.00089 4.41027 0.690875C4.72028 0.38086 5.14075 0.206696 5.57918 0.206696Z" fill="#6C696F"/>
<path d="M10.9517 3.30618H3.92609C3.87128 3.30618 3.81873 3.28441 3.77997 3.24566C3.74122 3.20691 3.71945 3.15435 3.71945 3.09955V1.85973C3.72 1.36666 3.91611 0.893954 4.26476 0.545306C4.61341 0.196658 5.08612 0.000546936 5.57918 0H12.6048C12.6596 0 12.7122 0.0217706 12.7509 0.0605224C12.7897 0.0992743 12.8115 0.151833 12.8115 0.206636V1.44645C12.8109 1.93952 12.6148 2.41223 12.2661 2.76088C11.9175 3.10952 11.4448 3.30563 10.9517 3.30618ZM4.13272 2.89291H10.9517C11.3353 2.89291 11.7033 2.74051 11.9745 2.46925C12.2458 2.19799 12.3982 1.83008 12.3982 1.44645V0.413273H5.57918C5.19556 0.413273 4.82764 0.565667 4.55638 0.83693C4.28512 1.10819 4.13272 1.4761 4.13272 1.85973V2.89291Z" fill="#212A41"/>
<path d="M10.9517 2.47957C10.8969 2.47957 10.8444 2.4578 10.8056 2.41905C10.7669 2.38029 10.7451 2.32773 10.7451 2.27293C10.7451 2.21813 10.7669 2.16557 10.8056 2.12682C10.8444 2.08807 10.8969 2.0663 10.9517 2.0663C11.1161 2.0663 11.2738 2.00098 11.3901 1.88473C11.5063 1.76847 11.5716 1.6108 11.5716 1.44639V1.03311C11.5716 0.97831 11.5934 0.925751 11.6322 0.886999C11.6709 0.848248 11.7235 0.826477 11.7783 0.826477C11.8331 0.826477 11.8856 0.848248 11.9244 0.886999C11.9631 0.925751 11.9849 0.97831 11.9849 1.03311V1.44639C11.9849 1.7204 11.8761 1.9832 11.6823 2.17696C11.4885 2.37072 11.2257 2.47957 10.9517 2.47957Z" fill="#4E4B51"/>
<path d="M3.92609 1.03317H5.16591V2.68626C5.16591 3.12469 4.99175 3.54516 4.68173 3.85518C4.37172 4.16519 3.95125 4.33935 3.51282 4.33935H3.09955V1.85972C3.09955 1.6405 3.18663 1.43027 3.34164 1.27526C3.49665 1.12025 3.70688 1.03317 3.92609 1.03317Z" fill="#4E4B51"/>
<path d="M3.51282 4.54593H3.09955C3.04475 4.54593 2.99219 4.52416 2.95344 4.48541C2.91468 4.44666 2.89291 4.3941 2.89291 4.3393V1.85966C2.89291 1.58564 3.00177 1.32285 3.19553 1.12909C3.38928 0.93533 3.65208 0.826477 3.9261 0.826477H5.16591C5.22072 0.826477 5.27328 0.848248 5.31203 0.886999C5.35078 0.925751 5.37255 0.97831 5.37255 1.03311V2.6862C5.372 3.17927 5.17589 3.65198 4.82724 4.00063C4.4786 4.34927 4.00589 4.54538 3.51282 4.54593ZM3.30619 4.13266H3.51282C3.89645 4.13266 4.26436 3.98026 4.53562 3.709C4.80688 3.43774 4.95928 3.06983 4.95928 2.6862V1.23975H3.9261C3.76169 1.23975 3.60401 1.30506 3.48775 1.42132C3.3715 1.53757 3.30619 1.69525 3.30619 1.85966V4.13266Z" fill="#212A41"/>
<path d="M3.92609 3.6083C3.87128 3.6083 3.81873 3.58653 3.77997 3.54778C3.74122 3.50903 3.71945 3.45647 3.71945 3.40166V1.85974C3.71945 1.80494 3.74122 1.75238 3.77997 1.71363C3.81873 1.67488 3.87128 1.65311 3.92609 1.65311C3.98089 1.65311 4.03345 1.67488 4.0722 1.71363C4.11095 1.75238 4.13272 1.80494 4.13272 1.85974V3.40166C4.13272 3.45647 4.11095 3.50903 4.0722 3.54778C4.03345 3.58653 3.98089 3.6083 3.92609 3.6083Z" fill="#6C696F"/>
<path d="M3.92608 7.02546C3.63999 7.02548 3.36031 6.94066 3.12242 6.78172C2.88453 6.62278 2.69912 6.39687 2.58963 6.13255C2.48015 5.86823 2.4515 5.57738 2.50732 5.29679C2.56314 5.01619 2.70092 4.75845 2.90323 4.55615C3.17883 4.29316 3.54514 4.14642 3.92608 4.14642C4.30703 4.14642 4.67334 4.29316 4.94893 4.55615C4.98657 4.59513 5.0074 4.64732 5.00693 4.7015C5.00646 4.75568 4.98473 4.80751 4.94641 4.84582C4.9081 4.88413 4.85628 4.90587 4.8021 4.90634C4.74792 4.90681 4.69572 4.88598 4.65675 4.84834C4.45983 4.66057 4.19818 4.55582 3.92608 4.55582C3.65399 4.55582 3.39234 4.66057 3.19542 4.84834C3.09945 4.94428 3.02332 5.05819 2.97138 5.18356C2.91944 5.30893 2.89271 5.4433 2.89271 5.579C2.89271 5.71471 2.91944 5.84908 2.97138 5.97445C3.02332 6.09982 3.09945 6.21373 3.19542 6.30967C3.39234 6.49744 3.65399 6.60219 3.92608 6.60219C4.19818 6.60219 4.45983 6.49744 4.65675 6.30967C4.67581 6.28993 4.69861 6.27419 4.72382 6.26336C4.74903 6.25253 4.77615 6.24683 4.80358 6.2466C4.83102 6.24636 4.85823 6.25159 4.88363 6.26197C4.90902 6.27236 4.93209 6.28771 4.95149 6.30711C4.97089 6.32651 4.98624 6.34958 4.99663 6.37498C5.00702 6.40037 5.01225 6.42758 5.01201 6.45502C5.01177 6.48246 5.00607 6.50957 4.99524 6.53478C4.98441 6.55999 4.96867 6.58279 4.94893 6.60185C4.81492 6.73659 4.65551 6.84341 4.47994 6.91612C4.30437 6.98883 4.11612 7.02599 3.92608 7.02546Z" fill="#212A41"/>
<path d="M12.1915 12.6048H10.5385L11.365 11.365L12.1915 12.6048Z" fill="#E0E0E0"/>
<path d="M12.1915 12.8115H10.5384C10.5011 12.8115 10.4644 12.8013 10.4323 12.7821C10.4003 12.7629 10.374 12.7354 10.3564 12.7024C10.3387 12.6695 10.3304 12.6323 10.3321 12.595C10.3339 12.5577 10.3458 12.5215 10.3665 12.4904L11.1931 11.2506C11.213 11.2237 11.2389 11.2019 11.2688 11.1869C11.2986 11.1719 11.3316 11.1641 11.365 11.1641C11.3984 11.1641 11.4314 11.1719 11.4612 11.1869C11.4911 11.2019 11.517 11.2237 11.5369 11.2506L12.3635 12.4904C12.3842 12.5215 12.396 12.5577 12.3978 12.595C12.3996 12.6323 12.3912 12.6695 12.3736 12.7024C12.356 12.7354 12.3297 12.7629 12.2976 12.7821C12.2656 12.8013 12.2289 12.8115 12.1915 12.8115ZM10.9244 12.3982H11.8055L11.365 11.737L10.9244 12.3982Z" fill="#212A41"/>
<path d="M10.5385 12.6048H9.71191V11.365H11.365L10.5385 12.6048Z" fill="#C2C2C2"/>
<path d="M10.5385 12.8114H9.71192C9.65711 12.8114 9.60455 12.7896 9.5658 12.7509C9.52705 12.7121 9.50528 12.6596 9.50528 12.6047V11.3649C9.50528 11.3101 9.52705 11.2576 9.5658 11.2188C9.60455 11.1801 9.65711 11.1583 9.71192 11.1583H11.365C11.4024 11.1583 11.4391 11.1685 11.4711 11.1877C11.5032 11.2069 11.5294 11.2344 11.5471 11.2674C11.5647 11.3004 11.5731 11.3375 11.5713 11.3748C11.5695 11.4121 11.5576 11.4483 11.5369 11.4794L10.7104 12.7192C10.6915 12.7476 10.666 12.7708 10.636 12.7869C10.606 12.8029 10.5725 12.8114 10.5385 12.8114ZM9.91855 12.3981H10.4277L10.979 11.5716H9.91855V12.3981Z" fill="#212A41"/>
<path d="M8.88536 12.6048H7.23227L8.05881 11.365L8.88536 12.6048Z" fill="#E0E0E0"/>
<path d="M8.88535 12.8115H7.23226C7.19488 12.8115 7.15821 12.8013 7.12614 12.7821C7.09408 12.7629 7.06783 12.7354 7.05019 12.7024C7.03255 12.6695 7.02418 12.6323 7.02596 12.595C7.02775 12.5577 7.03963 12.5215 7.06033 12.4904L7.88688 11.2506C7.90679 11.2237 7.93272 11.2019 7.96257 11.1869C7.99242 11.1719 8.02538 11.1641 8.0588 11.1641C8.09222 11.1641 8.12518 11.1719 8.15503 11.1869C8.18489 11.2019 8.21081 11.2237 8.23072 11.2506L9.05727 12.4904C9.07798 12.5215 9.08985 12.5577 9.09164 12.595C9.09343 12.6323 9.08505 12.6695 9.06741 12.7024C9.04977 12.7354 9.02352 12.7629 8.99146 12.7821C8.9594 12.8013 8.92272 12.8115 8.88535 12.8115ZM7.61825 12.3982H8.49935L8.0588 11.737L7.61825 12.3982Z" fill="#212A41"/>
<path d="M7.23226 12.6048H4.33936L5.1659 11.365H8.05881L7.23226 12.6048Z" fill="#C2C2C2"/>
<path d="M7.23228 12.8114H4.33937C4.302 12.8114 4.26532 12.8012 4.23326 12.782C4.2012 12.7628 4.17495 12.7352 4.15731 12.7023C4.13967 12.6693 4.13129 12.6322 4.13308 12.5949C4.13487 12.5575 4.14674 12.5214 4.16745 12.4903L4.994 11.2505C5.01285 11.2221 5.03841 11.1989 5.0684 11.1828C5.09839 11.1667 5.13189 11.1583 5.16592 11.1583H8.05883C8.0962 11.1583 8.13288 11.1685 8.16494 11.1877C8.197 11.2069 8.22325 11.2344 8.24089 11.2674C8.25853 11.3004 8.26691 11.3375 8.26512 11.3748C8.26333 11.4121 8.25146 11.4483 8.23075 11.4794L7.4042 12.7192C7.38535 12.7476 7.35979 12.7708 7.3298 12.7869C7.29981 12.8029 7.26631 12.8114 7.23228 12.8114ZM4.72537 12.3981H7.12235L7.67366 11.5716H5.27667L4.72537 12.3981Z" fill="#212A41"/>
<path d="M10.9517 22.5234H8.47211L8.88538 15.0845H10.5385L10.9517 22.5234Z" fill="#D32E5E"/>
<path d="M10.9517 22.73H8.4721C8.44396 22.73 8.41611 22.7243 8.39025 22.7132C8.3644 22.7021 8.34108 22.6858 8.32174 22.6654C8.30239 22.645 8.28742 22.6208 8.27774 22.5944C8.26806 22.568 8.26389 22.5398 8.26546 22.5118L8.67873 15.0728C8.68169 15.0201 8.70476 14.9704 8.7432 14.9342C8.78164 14.8979 8.83251 14.8777 8.88537 14.8778H10.5385C10.5913 14.8777 10.6422 14.8979 10.6806 14.9342C10.7191 14.9704 10.7421 15.0201 10.7451 15.0728L11.1584 22.5118C11.1599 22.5398 11.1558 22.568 11.1461 22.5944C11.1364 22.6208 11.1214 22.645 11.1021 22.6654C11.0827 22.6858 11.0594 22.7021 11.0336 22.7132C11.0077 22.7243 10.9799 22.73 10.9517 22.73ZM8.69031 22.3167H10.7335L10.343 15.2911H9.08085L8.69031 22.3167Z" fill="#212A41"/>
<path d="M10.5384 12.6049H8.88535L8.05881 13.8447L8.88535 15.0845H10.5384L11.365 13.8447L10.5384 12.6049Z" fill="#D32E5E"/>
<path d="M10.5385 15.2911H8.88537C8.85134 15.2911 8.81784 15.2827 8.78785 15.2666C8.75786 15.2505 8.7323 15.2273 8.71345 15.1989L7.8869 13.9591C7.86434 13.9252 7.85229 13.8854 7.85229 13.8446C7.85229 13.8039 7.86434 13.7641 7.8869 13.7302L8.71345 12.4904C8.7323 12.462 8.75786 12.4388 8.78785 12.4227C8.81784 12.4066 8.85134 12.3982 8.88537 12.3982H10.5385C10.5725 12.3982 10.606 12.4066 10.636 12.4227C10.666 12.4388 10.6915 12.462 10.7104 12.4904L11.5369 13.7302C11.5595 13.7641 11.5715 13.8039 11.5715 13.8446C11.5715 13.8854 11.5595 13.9252 11.5369 13.9591L10.7104 15.1989C10.6915 15.2273 10.666 15.2505 10.636 15.2666C10.606 15.2827 10.5725 15.2911 10.5385 15.2911ZM8.99613 14.8778H10.4277L11.117 13.8446L10.4281 12.8115H8.99613L8.30679 13.8446L8.99613 14.8778Z" fill="#212A41"/>
<path d="M11.7783 4.33942H16.3243V6.81905H11.7783C11.4495 6.81905 11.1341 6.68843 10.9016 6.45592C10.6691 6.22341 10.5385 5.90805 10.5385 5.57923C10.5385 5.25041 10.6691 4.93506 10.9016 4.70255C11.1341 4.47004 11.4495 4.33942 11.7783 4.33942Z" fill="#6C696F"/>
<path d="M16.3243 7.02563H11.7783C11.3946 7.02563 11.0267 6.87324 10.7555 6.60197C10.4842 6.33071 10.3318 5.9628 10.3318 5.57918C10.3318 5.19555 10.4842 4.82764 10.7555 4.55638C11.0267 4.28511 11.3946 4.13272 11.7783 4.13272H16.3243C16.3791 4.13272 16.4316 4.15449 16.4704 4.19324C16.5091 4.232 16.5309 4.28455 16.5309 4.33936V6.81899C16.5309 6.8738 16.5091 6.92636 16.4704 6.96511C16.4316 7.00386 16.3791 7.02563 16.3243 7.02563ZM11.7783 4.54599C11.5043 4.54599 11.2415 4.65485 11.0477 4.84861C10.8539 5.04236 10.7451 5.30516 10.7451 5.57918C10.7451 5.85319 10.8539 6.11599 11.0477 6.30975C11.2415 6.5035 11.5043 6.61236 11.7783 6.61236H16.1176V4.54599H11.7783Z" fill="#212A41"/>
<path d="M16.3243 6.81905C17.009 6.81905 17.5641 6.26397 17.5641 5.57923C17.5641 4.8945 17.009 4.33942 16.3243 4.33942C15.6395 4.33942 15.0844 4.8945 15.0844 5.57923C15.0844 6.26397 15.6395 6.81905 16.3243 6.81905Z" fill="#B7C0D7"/>
<path d="M16.3243 7.02563C16.0382 7.02563 15.7586 6.9408 15.5207 6.78186C15.2828 6.62292 15.0974 6.39702 14.9879 6.13271C14.8785 5.86841 14.8498 5.57757 14.9056 5.29699C14.9614 5.0164 15.0992 4.75867 15.3015 4.55638C15.5038 4.35409 15.7615 4.21633 16.0421 4.16051C16.3227 4.1047 16.6135 4.13335 16.8778 4.24283C17.1421 4.35231 17.368 4.5377 17.527 4.77557C17.6859 5.01344 17.7707 5.29309 17.7707 5.57918C17.7707 5.9628 17.6184 6.33071 17.3471 6.60197C17.0758 6.87324 16.7079 7.02563 16.3243 7.02563ZM16.3243 4.54599C16.1199 4.54599 15.9202 4.60659 15.7503 4.72012C15.5804 4.83364 15.448 4.99501 15.3698 5.18379C15.2916 5.37258 15.2711 5.58032 15.311 5.78074C15.3508 5.98116 15.4492 6.16525 15.5937 6.30975C15.7382 6.45424 15.9223 6.55264 16.1227 6.59251C16.3231 6.63237 16.5309 6.61191 16.7197 6.53371C16.9085 6.45551 17.0698 6.32309 17.1834 6.15318C17.2969 5.98328 17.3575 5.78352 17.3575 5.57918C17.3575 5.30516 17.2486 5.04237 17.0549 4.84861C16.8611 4.65485 16.5983 4.54599 16.3243 4.54599Z" fill="#212A41"/>
<path d="M8.47209 4.33942H13.0181V6.81905H8.47209C8.14327 6.81905 7.82791 6.68843 7.5954 6.45592C7.36289 6.22341 7.23227 5.90805 7.23227 5.57923C7.23227 5.25041 7.36289 4.93506 7.5954 4.70255C7.82791 4.47004 8.14327 4.33942 8.47209 4.33942Z" fill="#6C696F"/>
<path d="M13.0181 7.02563H8.47209C8.08847 7.02563 7.72055 6.87324 7.44929 6.60197C7.17803 6.33071 7.02563 5.9628 7.02563 5.57918C7.02563 5.19555 7.17803 4.82764 7.44929 4.55638C7.72055 4.28511 8.08847 4.13272 8.47209 4.13272H13.0181C13.0729 4.13272 13.1255 4.15449 13.1642 4.19324C13.203 4.232 13.2247 4.28455 13.2247 4.33936V6.81899C13.2247 6.8738 13.203 6.92636 13.1642 6.96511C13.1255 7.00386 13.0729 7.02563 13.0181 7.02563ZM8.47209 4.54599C8.19807 4.54599 7.93528 4.65485 7.74152 4.84861C7.54776 5.04236 7.43891 5.30516 7.43891 5.57918C7.43891 5.85319 7.54776 6.11599 7.74152 6.30975C7.93528 6.5035 8.19807 6.61236 8.47209 6.61236H12.8115V4.54599H8.47209Z" fill="#212A41"/>
<path d="M13.0181 6.81905C13.7028 6.81905 14.2579 6.26397 14.2579 5.57923C14.2579 4.8945 13.7028 4.33942 13.0181 4.33942C12.3334 4.33942 11.7783 4.8945 11.7783 5.57923C11.7783 6.26397 12.3334 6.81905 13.0181 6.81905Z" fill="#B7C0D7"/>
<path d="M13.0181 7.02563C12.732 7.02563 12.4524 6.9408 12.2145 6.78186C11.9766 6.62292 11.7912 6.39702 11.6818 6.13271C11.5723 5.86841 11.5436 5.57757 11.5994 5.29699C11.6553 5.0164 11.793 4.75867 11.9953 4.55638C12.1976 4.35409 12.4553 4.21633 12.7359 4.16051C13.0165 4.1047 13.3073 4.13335 13.5716 4.24283C13.836 4.35231 14.0619 4.5377 14.2208 4.77557C14.3797 5.01344 14.4646 5.29309 14.4646 5.57918C14.4646 5.9628 14.3122 6.33071 14.0409 6.60197C13.7696 6.87324 13.4017 7.02563 13.0181 7.02563ZM13.0181 4.54599C12.8138 4.54599 12.614 4.60659 12.4441 4.72012C12.2742 4.83364 12.1418 4.99501 12.0636 5.18379C11.9854 5.37258 11.9649 5.58032 12.0048 5.78074C12.0446 5.98116 12.143 6.16525 12.2875 6.30975C12.432 6.45424 12.6161 6.55264 12.8165 6.59251C13.017 6.63237 13.2247 6.61191 13.4135 6.53371C13.6023 6.45551 13.7636 6.32309 13.8772 6.15318C13.9907 5.98328 14.0513 5.78352 14.0513 5.57918C14.0513 5.30516 13.9424 5.04237 13.7487 4.84861C13.5549 4.65485 13.2921 4.54599 13.0181 4.54599Z" fill="#212A41"/>
<path d="M11.7783 4.33942H8.05882C7.73 4.33942 7.41465 4.47004 7.18213 4.70255C6.94962 4.93506 6.819 5.25041 6.819 5.57923V15.9111H8.47209C8.91052 15.9111 9.33099 15.7369 9.641 15.4269C9.95102 15.1169 10.1252 14.6964 10.1252 14.258V5.57923C10.1252 5.25041 10.2558 4.93506 10.4883 4.70255C10.7208 4.47004 11.0362 4.33942 11.365 4.33942H11.7783Z" fill="#E0C8A4"/>
<path d="M8.47209 16.1176H6.819C6.7642 16.1176 6.71164 16.0959 6.67289 16.0571C6.63414 16.0184 6.61237 15.9658 6.61237 15.911V5.57918C6.61237 5.19555 6.76476 4.82764 7.03602 4.55638C7.30729 4.28511 7.6752 4.13272 8.05882 4.13272H11.7783C11.8331 4.13272 11.8856 4.15449 11.9244 4.19324C11.9631 4.232 11.9849 4.28455 11.9849 4.33936C11.9849 4.39416 11.9631 4.44672 11.9244 4.48547C11.8856 4.52422 11.8331 4.54599 11.7783 4.54599H11.365C11.091 4.54599 10.8282 4.65485 10.6344 4.84861C10.4407 5.04236 10.3318 5.30516 10.3318 5.57918V14.2579C10.3313 14.751 10.1352 15.2237 9.78651 15.5723C9.43787 15.921 8.96516 16.1171 8.47209 16.1176ZM7.02564 15.7044H8.47209C8.85572 15.7044 9.22363 15.552 9.49489 15.2807C9.76615 15.0094 9.91855 14.6415 9.91855 14.2579V5.57918C9.91838 5.38662 9.9568 5.19599 10.0315 5.01853C10.1063 4.84108 10.2158 4.6804 10.3537 4.54599H8.05882C7.7848 4.54599 7.52201 4.65485 7.32825 4.84861C7.13449 5.04236 7.02564 5.30516 7.02564 5.57918V15.7044Z" fill="#212A41"/>
<path d="M1.85973 12.6049H10.1252V15.0845C10.1252 15.523 9.95101 15.9434 9.641 16.2534C9.33099 16.5635 8.91052 16.7376 8.47209 16.7376H1.85973C1.4213 16.7376 1.00083 16.5635 0.690814 16.2534C0.380799 15.9434 0.206635 15.523 0.206635 15.0845V14.258C0.206635 13.8196 0.380799 13.3991 0.690814 13.0891C1.00083 12.7791 1.4213 12.6049 1.85973 12.6049Z" fill="#C2C2C2"/>
<path d="M8.47209 16.9442H1.85973C1.36666 16.9436 0.893954 16.7475 0.545306 16.3989C0.196658 16.0502 0.000546936 15.5775 0 15.0845V14.2579C0.000546936 13.7649 0.196658 13.2921 0.545306 12.9435C0.893954 12.5949 1.36666 12.3987 1.85973 12.3982H10.1252C10.18 12.3982 10.2325 12.42 10.2713 12.4587C10.31 12.4975 10.3318 12.55 10.3318 12.6048V15.0845C10.3313 15.5775 10.1352 16.0502 9.78651 16.3989C9.43787 16.7475 8.96515 16.9436 8.47209 16.9442ZM1.85973 12.8115C1.4761 12.8115 1.10819 12.9639 0.83693 13.2351C0.565667 13.5064 0.413273 13.8743 0.413273 14.2579V15.0845C0.413273 15.4681 0.565667 15.836 0.83693 16.1073C1.10819 16.3785 1.4761 16.5309 1.85973 16.5309H8.47209C8.85571 16.5309 9.22363 16.3785 9.49489 16.1073C9.76615 15.836 9.91855 15.4681 9.91855 15.0845V12.8115H1.85973Z" fill="#212A41"/>
<path d="M8.47208 16.1176C8.41727 16.1176 8.36472 16.0958 8.32596 16.0571C8.28721 16.0183 8.26544 15.9657 8.26544 15.9109C8.26544 15.8561 8.28721 15.8036 8.32596 15.7648C8.36472 15.7261 8.41727 15.7043 8.47208 15.7043C8.63649 15.7043 8.79416 15.639 8.91042 15.5227C9.02668 15.4065 9.09199 15.2488 9.09199 15.0844V13.4313C9.09199 13.3765 9.11376 13.3239 9.15251 13.2852C9.19126 13.2464 9.24382 13.2247 9.29862 13.2247C9.35343 13.2247 9.40599 13.2464 9.44474 13.2852C9.48349 13.3239 9.50526 13.3765 9.50526 13.4313V15.0844C9.50526 15.3584 9.39641 15.6212 9.20265 15.815C9.00889 16.0087 8.7461 16.1176 8.47208 16.1176Z" fill="#A4A4A4"/>
<path d="M15.0845 16.1176C15.0297 16.1176 14.9771 16.0958 14.9384 16.0571C14.8996 16.0183 14.8778 15.9657 14.8778 15.9109C14.8778 15.8561 14.8996 15.8036 14.9384 15.7648C14.9771 15.7261 15.0297 15.7043 15.0845 15.7043C15.2489 15.7043 15.4066 15.639 15.5228 15.5227C15.6391 15.4065 15.7044 15.2488 15.7044 15.0844V13.4313C15.7044 13.3765 15.7262 13.3239 15.7649 13.2852C15.8037 13.2464 15.8562 13.2247 15.911 13.2247C15.9658 13.2247 16.0184 13.2464 16.0571 13.2852C16.0959 13.3239 16.1177 13.3765 16.1177 13.4313V15.0844C16.1177 15.3584 16.0088 15.6212 15.815 15.815C15.6213 16.0087 15.3585 16.1176 15.0845 16.1176Z" fill="#C2C2C2"/>
<path d="M7.64554 11.985C7.59074 11.985 7.53818 11.9632 7.49943 11.9244C7.46067 11.8857 7.4389 11.8331 7.4389 11.7783V5.57923C7.4389 5.52442 7.46067 5.47186 7.49943 5.43311C7.53818 5.39436 7.59074 5.37259 7.64554 5.37259C7.70034 5.37259 7.7529 5.39436 7.79165 5.43311C7.83041 5.47186 7.85218 5.52442 7.85218 5.57923V11.7783C7.85218 11.8331 7.83041 11.8857 7.79165 11.9244C7.7529 11.9632 7.70034 11.985 7.64554 11.985Z" fill="#FEE6C2"/>
<path d="M15.911 11.985C15.8562 11.985 15.8037 11.9632 15.7649 11.9244C15.7261 11.8857 15.7044 11.8331 15.7044 11.7783V7.6456C15.7044 7.5908 15.7261 7.53824 15.7649 7.49949C15.8037 7.46074 15.8562 7.43896 15.911 7.43896C15.9658 7.43896 16.0184 7.46074 16.0571 7.49949C16.0959 7.53824 16.1176 7.5908 16.1176 7.6456V11.7783C16.1176 11.8331 16.0959 11.8857 16.0571 11.9244C16.0184 11.9632 15.9658 11.985 15.911 11.985Z" fill="#C2AA86"/>
<path d="M2.68628 21.9034C2.63148 21.9034 2.57892 21.8816 2.54017 21.8429C2.50142 21.8041 2.47964 21.7516 2.47964 21.6968V17.564C2.47964 17.5092 2.50142 17.4567 2.54017 17.4179C2.57892 17.3792 2.63148 17.3574 2.68628 17.3574C2.74108 17.3574 2.79364 17.3792 2.8324 17.4179C2.87115 17.4567 2.89292 17.5092 2.89292 17.564V21.6968C2.89292 21.7516 2.87115 21.8041 2.8324 21.8429C2.79364 21.8816 2.74108 21.9034 2.68628 21.9034Z" fill="#E0E0E0"/>
<path d="M5.1659 21.9034C5.11109 21.9034 5.05853 21.8816 5.01978 21.8429C4.98103 21.8041 4.95926 21.7516 4.95926 21.6968V17.564C4.95926 17.5092 4.98103 17.4567 5.01978 17.4179C5.05853 17.3792 5.11109 17.3574 5.1659 17.3574C5.2207 17.3574 5.27326 17.3792 5.31201 17.4179C5.35076 17.4567 5.37253 17.5092 5.37253 17.564V21.6968C5.37253 21.7516 5.35076 21.8041 5.31201 21.8429C5.27326 21.8816 5.2207 21.9034 5.1659 21.9034Z" fill="#FEFEFE"/>
<path d="M21.2835 12.6049H15.4977C15.0412 12.6049 14.6712 12.9749 14.6712 13.4314V19.2173C14.6712 19.6737 15.0412 20.0438 15.4977 20.0438H21.2835C21.74 20.0438 22.1101 19.6737 22.1101 19.2173V13.4314C22.1101 12.9749 21.74 12.6049 21.2835 12.6049Z" fill="#BED38E"/>
<path d="M21.2835 20.2504H15.4977C15.2237 20.2504 14.9609 20.1415 14.7671 19.9478C14.5734 19.754 14.4645 19.4912 14.4645 19.2172V13.4314C14.4645 13.1574 14.5734 12.8946 14.7671 12.7008C14.9609 12.507 15.2237 12.3982 15.4977 12.3982H21.2835C21.5576 12.3982 21.8204 12.507 22.0141 12.7008C22.2079 12.8946 22.3167 13.1574 22.3167 13.4314V19.2172C22.3167 19.4912 22.2079 19.754 22.0141 19.9478C21.8204 20.1415 21.5576 20.2504 21.2835 20.2504ZM15.4977 12.8115C15.3333 12.8115 15.1756 12.8768 15.0594 12.993C14.9431 13.1093 14.8778 13.267 14.8778 13.4314V19.2172C14.8778 19.3816 14.9431 19.5393 15.0594 19.6555C15.1756 19.7718 15.3333 19.8371 15.4977 19.8371H21.2835C21.4479 19.8371 21.6056 19.7718 21.7219 19.6555C21.8381 19.5393 21.9034 19.3816 21.9034 19.2172V13.4314C21.9034 13.267 21.8381 13.1093 21.7219 12.993C21.6056 12.8768 21.4479 12.8115 21.2835 12.8115H15.4977Z" fill="#212A41"/>
<path d="M22.5234 12.6049H16.7376C16.2811 12.6049 15.911 12.9749 15.911 13.4314V19.2173C15.911 19.6737 16.2811 20.0438 16.7376 20.0438H22.5234C22.9799 20.0438 23.3499 19.6737 23.3499 19.2173V13.4314C23.3499 12.9749 22.9799 12.6049 22.5234 12.6049Z" fill="#BED38E"/>
<path d="M22.5234 20.2504H16.7376C16.4635 20.2504 16.2007 20.1415 16.007 19.9478C15.8132 19.754 15.7044 19.4912 15.7044 19.2172V13.4314C15.7044 13.1574 15.8132 12.8946 16.007 12.7008C16.2007 12.507 16.4635 12.3982 16.7376 12.3982H22.5234C22.7974 12.3982 23.0602 12.507 23.2539 12.7008C23.4477 12.8946 23.5566 13.1574 23.5566 13.4314V19.2172C23.5566 19.4912 23.4477 19.754 23.2539 19.9478C23.0602 20.1415 22.7974 20.2504 22.5234 20.2504ZM16.7376 12.8115C16.5731 12.8115 16.4155 12.8768 16.2992 12.993C16.183 13.1093 16.1176 13.267 16.1176 13.4314V19.2172C16.1176 19.3816 16.183 19.5393 16.2992 19.6555C16.4155 19.7718 16.5731 19.8371 16.7376 19.8371H22.5234C22.6878 19.8371 22.8455 19.7718 22.9617 19.6555C23.078 19.5393 23.1433 19.3816 23.1433 19.2172V13.4314C23.1433 13.267 23.078 13.1093 22.9617 12.993C22.8455 12.8768 22.6878 12.8115 22.5234 12.8115H16.7376Z" fill="#212A41"/>
<path d="M16.7376 19.4238C16.6827 19.4238 16.6302 19.402 16.5914 19.3632C16.5527 19.3245 16.5309 19.2719 16.5309 19.2171V13.4313C16.5309 13.3765 16.5527 13.3239 16.5914 13.2852C16.6302 13.2464 16.6827 13.2247 16.7376 13.2247C16.7924 13.2247 16.8449 13.2464 16.8837 13.2852C16.9224 13.3239 16.9442 13.3765 16.9442 13.4313V19.2171C16.9442 19.2719 16.9224 19.3245 16.8837 19.3632C16.8449 19.402 16.7924 19.4238 16.7376 19.4238Z" fill="#DCF1AC"/>
<path d="M22.5233 19.4238C22.4685 19.4238 22.416 19.402 22.3772 19.3632C22.3385 19.3245 22.3167 19.2719 22.3167 19.2171V13.4313C22.3167 13.3765 22.3385 13.3239 22.3772 13.2852C22.416 13.2464 22.4685 13.2247 22.5233 13.2247C22.5782 13.2247 22.6307 13.2464 22.6695 13.2852C22.7082 13.3239 22.73 13.3765 22.73 13.4313V19.2171C22.73 19.2719 22.7082 19.3245 22.6695 19.3632C22.6307 19.402 22.5782 19.4238 22.5233 19.4238Z" fill="#A0B570"/>
<path d="M17.1508 18.5975C17.1286 18.5976 17.1065 18.594 17.0855 18.5868C17.0335 18.5695 16.9905 18.5323 16.9659 18.4833C16.9413 18.4344 16.9372 18.3776 16.9545 18.3256L17.781 15.846C17.7978 15.7953 17.8336 15.7531 17.8808 15.7282C17.9281 15.7033 17.9831 15.6977 18.0344 15.7125L20.7368 16.4849L21.5005 14.1929C21.5178 14.1408 21.5551 14.0978 21.6042 14.0732C21.6532 14.0486 21.71 14.0446 21.7621 14.0619C21.8141 14.0792 21.8572 14.1165 21.8818 14.1655C21.9063 14.2146 21.9104 14.2714 21.8931 14.3235L21.0665 16.8031C21.0497 16.8538 21.014 16.896 20.9668 16.9209C20.9195 16.9457 20.8645 16.9514 20.8132 16.9366L18.1108 16.1642L17.3471 18.4562C17.3334 18.4974 17.307 18.5332 17.2718 18.5586C17.2365 18.584 17.1942 18.5976 17.1508 18.5975Z" fill="#212A41"/>
<path d="M22.1101 15.2911C22.0717 15.2911 22.0341 15.2804 22.0015 15.2603C21.9689 15.2402 21.9425 15.2113 21.9253 15.177L21.6042 14.5352L20.9628 14.8559C20.9139 14.88 20.8574 14.8837 20.8057 14.8663C20.7541 14.8489 20.7114 14.8118 20.6869 14.7631C20.6625 14.7143 20.6583 14.6579 20.6753 14.6061C20.6923 14.5543 20.7291 14.5113 20.7777 14.4865L21.6042 14.0732C21.6532 14.0486 21.71 14.0446 21.762 14.0618C21.814 14.0791 21.857 14.1164 21.8815 14.1654L22.2948 14.9919C22.3106 15.0234 22.318 15.0584 22.3165 15.0936C22.3149 15.1288 22.3044 15.163 22.2859 15.193C22.2674 15.223 22.2415 15.2478 22.2107 15.2649C22.18 15.2821 22.1453 15.2911 22.1101 15.2911Z" fill="#212A41"/>
</svg>
