<svg viewBox="0 0 59 58" fill="none" xmlns="http://www.w3.org/2000/svg">
<path d="M57.6418 18.7775C57.987 16.82 58.3961 14.5 58.3961 14.5C59.8081 6.4918 55.3583 0 42.8277 0H5.56357C4.76607 0 3.99859 0.6525 3.85794 1.45L3.6023 2.9C3.46165 3.6975 3.90971 4.5923 4.59802 4.88839L13.0496 8.52499L11.2322 18.8317H28.6321L29.9073 11.6H38.6072C40.2089 11.6 41.2782 12.8983 40.9959 14.5L40.2321 18.8317C39.9497 20.4334 38.4225 21.7317 36.8206 21.7317H29.2353H28.1209H10.7208H2.18812C1.25852 21.7317 0.363875 22.4924 0.19988 23.422L0.0289248 24.3915C-0.134925 25.3211 0.414189 26.3139 1.24953 26.5976L25.7927 34.9354L34.1313 37.7682C35.5705 38.2569 36.508 39.9516 36.2256 41.5532L35.8823 43.5C35.6 45.1017 34.0728 46.4 32.4711 46.4H23.7712L25.2557 37.9807L8.76692 32.3792L3.60071 58H32.6007C45.267 58 51.6808 52.5837 52.859 45.9024C52.859 45.9024 53.142 44.2975 53.5858 41.78C54.9635 33.9662 51.8323 32.758 50.5107 32.1542C49.4829 31.6847 46.4816 30.143 46.4816 30.143L46.5072 29.998C46.5072 29.998 56.1142 27.4413 57.6418 18.7775Z" fill="url(#paint0_linear_1090_467)"/>
<defs>
<linearGradient id="paint0_linear_1090_467" x1="50.4756" y1="-0.193281" x2="4.07611" y2="57.3295" gradientUnits="userSpaceOnUse">
<stop stop-color="#50C7AD"/>
<stop offset="1" stop-color="#008F96"/>
</linearGradient>
</defs>
</svg>
