<svg width="15" height="23" viewBox="0 0 15 23" fill="none" xmlns="http://www.w3.org/2000/svg">
<path d="M13.1779 18.2284C12.1992 17.4589 10.8888 16.42 10.8628 16.3532H7.11614H3.36947C3.34351 16.42 2.03307 17.4589 1.0544 18.2284C0.388762 18.7517 0 19.5515 0 20.3982V22.4245C0 22.5935 0.137159 22.7304 0.306129 22.73L7.11614 22.7152L13.9262 22.73C14.0951 22.7304 14.2323 22.5935 14.2323 22.4245V20.3982C14.2323 19.5515 13.8435 18.7517 13.1779 18.2284Z" fill="#7CA1B1"/>
<path d="M4.99783 12.1954H9.20745V18.8042H4.99783V12.1954Z" fill="#FFBD86"/>
<path d="M4.99783 15.6562C5.65474 15.9407 6.3787 16.0988 7.139 16.0988C7.87132 16.0988 8.56996 15.9522 9.20745 15.6871V12.1954H4.99783V15.6562Z" fill="#F6A96C"/>
<path d="M5.1991 16.8524L6.88989 18.0626C7.02518 18.1595 7.20708 18.1595 7.34237 18.0626L9.03316 16.8524H9.72088L7.11613 22.7152L4.48438 17.9642L5.1991 16.8524Z" fill="#FFF9E2"/>
<path d="M8.59573 15.0074L8.2837 14.6603L9.03316 13.9102L9.60534 14.4169C10.5654 15.402 11.152 16.691 11.2643 18.062L11.2978 18.4717C11.31 18.6206 11.1969 18.7503 11.0476 18.7583L10.4628 18.7898L7.11618 22.7152L9.03321 16.8524C9.24039 16.2038 9.07206 15.4939 8.59573 15.0074Z" fill="#678D98"/>
<path d="M5.63656 15.0074L5.94858 14.6603L5.19912 13.9102L4.62695 14.4169C3.66688 15.402 3.08026 16.691 2.96801 18.062L2.93446 18.4717C2.92226 18.6206 3.03543 18.7503 3.18465 18.7583L3.76953 18.7898L7.11611 22.7152L5.19908 16.8524C4.9919 16.2038 5.16023 15.4939 5.63656 15.0074Z" fill="#678D98"/>
<path d="M1.0544 18.2284C1.10683 18.1872 1.16035 18.145 1.21441 18.1025L2.2898 19.9874C2.40054 20.1815 2.45876 20.4012 2.45876 20.6246V22.7253L0.306129 22.7299C0.137159 22.7303 0 22.5934 0 22.4244V20.3982C0 19.5515 0.388762 18.7517 1.0544 18.2284Z" fill="#678D98"/>
<path d="M1.54928 8.74181L1.0165 4.50294C0.871757 3.35142 1.52981 2.24935 2.61218 1.83051C3.50827 0.675741 4.88781 0 6.34949 0H7.88283C9.3445 0 10.724 0.675695 11.6201 1.83051C12.7025 2.24935 13.3605 3.35142 13.2158 4.50294L12.683 8.74181L12.5476 9.45923H1.84403L1.54928 8.74181Z" fill="#918291"/>
<path d="M3.23918 4.50294C3.09443 3.35146 3.75248 2.24935 4.83486 1.83051C5.6601 0.766921 6.89554 0.110239 8.22746 0.0130258C8.11319 0.00470756 7.99829 0 7.8828 0H6.34946C4.88783 0 3.50824 0.675741 2.6122 1.83051C1.52988 2.24935 0.871822 3.35142 1.01652 4.50294L1.54925 8.74181L1.844 9.45923H4.06661L3.77191 8.74181L3.23918 4.50294Z" fill="#837484"/>
<path d="M11.7114 10.8759H12.0158C12.6365 10.8759 13.1523 10.3974 13.1987 9.77838C13.2503 9.09021 12.7058 8.50346 12.0158 8.50346H11.6755H11.2987V10.8759H11.7114Z" fill="#FFBD86"/>
<path d="M2.55664 8.50346H2.26208C1.57198 8.50346 1.02755 9.09026 1.0792 9.77838C1.12564 10.3974 1.64136 10.8759 2.26208 10.8759H2.61217H3.27429V8.50346H2.55664Z" fill="#F6A96C"/>
<path d="M4.94399 5.62567C4.30426 5.23183 3.46906 5.39819 3.02902 6.00707L2.91992 6.15808C2.74318 6.40264 2.64807 6.6967 2.64807 6.99845V7.98804V10.6939C2.64807 13.1741 4.6587 15.1848 7.13895 15.1848C9.61919 15.1848 11.6298 13.1741 11.6298 10.6939V7.98804V6.99845C11.6298 6.6967 11.5347 6.40264 11.358 6.15808L11.2441 6.00049C10.806 5.39436 9.97587 5.22635 9.3366 5.61451L9.29629 5.63897C7.95797 6.45159 6.27733 6.44643 4.94399 5.62567Z" fill="#FFE5C2"/>
<path d="M13.1778 18.2284C13.1254 18.1872 13.0719 18.145 13.0178 18.1025L11.9424 19.9874C11.8317 20.1815 11.7735 20.4012 11.7735 20.6246V22.7253L13.9261 22.7299C14.0951 22.7303 14.2322 22.5934 14.2322 22.4244V20.3982C14.2322 19.5515 13.8435 18.7517 13.1778 18.2284Z" fill="#678D98"/>
<path d="M4.4844 10.6938V7.988V6.99841C4.4844 6.69667 4.57956 6.40265 4.75625 6.15808L4.86535 6.00708C4.94163 5.90155 5.02998 5.80963 5.12692 5.73125C5.06535 5.69752 5.0042 5.66269 4.94401 5.62563C4.30428 5.23179 3.46908 5.39816 3.02908 6.00703L2.91998 6.15804C2.74324 6.4026 2.64813 6.69667 2.64813 6.99836V7.98796V10.6938C2.64813 13.174 4.65876 15.1847 7.13901 15.1847C7.45369 15.1847 7.76073 15.1522 8.05712 15.0906C6.01728 14.6668 4.4844 12.8594 4.4844 10.6938Z" fill="#FED2A4"/>
<path d="M11.358 6.15804L11.2441 6.00045C10.8061 5.39432 9.97587 5.22631 9.33665 5.61448L9.29634 5.63893C7.95802 6.45155 6.27737 6.44643 4.94404 5.62563C4.30431 5.23179 3.46911 5.39816 3.02911 6.00703L2.92001 6.15804C2.74327 6.4026 2.64816 6.69667 2.64816 6.99836V7.98796V8.47914C2.64816 8.1774 2.74332 7.88334 2.92001 7.63877L3.02911 7.48777C3.46911 6.87889 4.30431 6.71257 4.94404 7.10636C6.27737 7.92717 7.95802 7.93229 9.29634 7.11966L9.33665 7.09521C9.97587 6.70704 10.8061 6.87505 11.2441 7.48118L11.358 7.63877C11.5348 7.88334 11.6299 8.1774 11.6299 8.47914V7.98796V6.99836C11.6299 6.69667 11.5348 6.4026 11.358 6.15804Z" fill="#FED2A4"/>
</svg>
