<svg width="25" height="25" viewBox="0 0 25 25" fill="none" xmlns="http://www.w3.org/2000/svg">
<path d="M24.1635 8.23854H0.836426V21.3052C0.836426 22.8583 2.14163 24.1177 3.75205 24.1177H21.2468C22.8573 24.1177 24.1625 22.8583 24.1625 21.3052V8.23854H24.1635Z" fill="#ECEFF1"/>
<path d="M20.9375 2.72708H4.0625C2.51146 2.72708 1.25 3.96146 1.25 5.47917V7.75416V8.26875V9.18646H2.1875H5.72292H19.2781H22.8125H23.75V8.26875V7.75416V5.47917C23.75 3.96146 22.4885 2.72708 20.9375 2.72708Z" fill="#EF5350"/>
<path d="M10.6771 20.8854H7.03125C6.6 20.8854 6.25 20.5354 6.25 20.1042V18.8021C6.25 17.3667 7.41875 16.1979 8.85417 16.1979C9.42813 16.1979 9.89583 15.7302 9.89583 15.1563C9.89583 14.5823 9.42813 14.1146 8.85417 14.1146H7.03125C6.6 14.1146 6.25 13.7646 6.25 13.3333C6.25 12.9021 6.6 12.5521 7.03125 12.5521H8.85417C10.2896 12.5521 11.4583 13.7208 11.4583 15.1563C11.4583 16.5917 10.2896 17.7604 8.85417 17.7604C8.28021 17.7604 7.8125 18.2281 7.8125 18.8021V19.3229H10.6771C11.1083 19.3229 11.4583 19.6729 11.4583 20.1042C11.4583 20.5354 11.1083 20.8854 10.6771 20.8854Z" fill="black"/>
<path d="M16.1458 20.8854H14.0625C13.6312 20.8854 13.2812 20.5354 13.2812 20.1042C13.2812 19.6729 13.6312 19.3229 14.0625 19.3229H16.1458C16.7198 19.3229 17.1875 18.8552 17.1875 18.2813C17.1875 17.7073 16.7198 17.2396 16.1458 17.2396H14.0625C13.6312 17.2396 13.2812 16.8896 13.2812 16.4583V13.3333C13.2812 12.9021 13.6312 12.5521 14.0625 12.5521H17.9688C18.4 12.5521 18.75 12.9021 18.75 13.3333C18.75 13.7646 18.4 14.1146 17.9688 14.1146H14.8438V15.6771H16.1458C17.5812 15.6771 18.75 16.8458 18.75 18.2813C18.75 19.7167 17.5812 20.8854 16.1458 20.8854Z" fill="black"/>
<path d="M22.1354 25H2.86458C1.28437 25 0 23.7156 0 22.1354V4.94792C0 3.36771 1.28437 2.08334 2.86458 2.08334H22.1354C23.7156 2.08334 25 3.36771 25 4.94792V22.1354C25 23.7156 23.7156 25 22.1354 25ZM2.86458 3.64584C2.14687 3.64584 1.5625 4.23021 1.5625 4.94792V22.1354C1.5625 22.8531 2.14687 23.4375 2.86458 23.4375H22.1354C22.8531 23.4375 23.4375 22.8531 23.4375 22.1354V4.94792C23.4375 4.23021 22.8531 3.64584 22.1354 3.64584H2.86458Z" fill="black"/>
<path d="M24.2188 9.89584H0.78125C0.35 9.89584 0 9.54584 0 9.11459C0 8.68334 0.35 8.33334 0.78125 8.33334H24.2188C24.65 8.33334 25 8.68334 25 9.11459C25 9.54584 24.65 9.89584 24.2188 9.89584Z" fill="black"/>
<path d="M5.98962 6.25C5.55837 6.25 5.20837 5.9 5.20837 5.46875V0.78125C5.20837 0.35 5.55837 0 5.98962 0C6.42087 0 6.77087 0.35 6.77087 0.78125V5.46875C6.77087 5.9 6.42087 6.25 5.98962 6.25Z" fill="black"/>
<path d="M19.0104 6.25C18.5791 6.25 18.2291 5.9 18.2291 5.46875V0.78125C18.2291 0.35 18.5791 0 19.0104 0C19.4416 0 19.7916 0.35 19.7916 0.78125V5.46875C19.7916 5.9 19.4416 6.25 19.0104 6.25Z" fill="black"/>
</svg>
