<svg viewBox="0 0 12 12" fill="none" xmlns="http://www.w3.org/2000/svg">
<path d="M7.08781 6L11.7745 1.31329C12.0751 1.01275 12.0752 0.526114 11.7745 0.225504C11.4739 -0.075129 10.9873 -0.0751993 10.6867 0.225481L6 4.91219L1.31329 0.225504C1.01275 -0.0751056 0.526093 -0.0751993 0.225484 0.225457C-0.0751495 0.526067 -0.075173 1.01263 0.225484 1.31326L4.91215 6L0.22546 10.6867C-0.0744698 10.9866 -0.0744698 11.4746 0.22546 11.7745C0.526047 12.0751 1.01266 12.0752 1.31327 11.7745L5.99995 7.08776L10.6866 11.7744C10.9872 12.0751 11.4738 12.0751 11.7744 11.7745C12.0751 11.4739 12.0751 10.9873 11.7744 10.6866L7.08781 6Z" fill="#DE1D27"/>
<path d="M7.08781 6L11.7745 1.31329C12.0751 1.01275 12.0752 0.526114 11.7745 0.225504C11.4739 -0.075129 10.9873 -0.0751993 10.6867 0.225481L6 4.91217V7.08783L10.6867 11.7745C10.9872 12.0751 11.4739 12.0752 11.7745 11.7745C12.0751 11.474 12.0752 10.9874 11.7745 10.6867L7.08781 6Z" fill="#DE1D27"/>
</svg>
