<svg width="8" height="9" viewBox="0 0 8 9" fill="none" xmlns="http://www.w3.org/2000/svg">
<path d="M0.0559535 4.63853L4.24607 8.94286C4.28186 8.97955 4.33037 9.00009 4.38092 9H7.80919C7.91438 9.0002 7.9998 8.91274 8 8.80469C8.00009 8.7526 7.97995 8.70261 7.94404 8.66582L3.88839 4.49999L7.94404 0.33418C8.01852 0.257875 8.01866 0.133991 7.94438 0.0574856C7.90856 0.0205984 7.8599 -9.15527e-05 7.80919 0H4.38092C4.33037 -9.15527e-05 4.28186 0.0204515 4.24607 0.0571365L0.0559535 4.36149C-0.0185223 4.43779 -0.0186653 4.56168 0.055614 4.63818C0.0557394 4.63829 0.0558467 4.6384 0.0559535 4.63853Z"/>
</svg>
