<svg width="21" height="21" viewBox="0 0 21 21" fill="none" xmlns="http://www.w3.org/2000/svg">
<rect x="0.25" y="0.25" width="20.5" height="20.5" rx="4.75" fill="#18191D" stroke="#EEEEEE" stroke-width="0.5"/>
<path d="M14.3929 10.5C14.2153 10.5 14.0714 10.6439 14.0714 10.8214V14.0357C14.0714 14.2132 13.9275 14.3571 13.75 14.3571H7.96429C7.78676 14.3571 7.64285 14.2132 7.64285 14.0357V7.60714C7.64285 7.42961 7.78676 7.28571 7.96429 7.28571H11.8214C11.999 7.28571 12.1429 7.1418 12.1429 6.96427C12.1429 6.78674 11.999 6.64285 11.8214 6.64285H7.96429C7.43173 6.64285 7 7.07458 7 7.60714V14.0357C7 14.5683 7.43173 15 7.96429 15H13.75C14.2826 15 14.7143 14.5683 14.7143 14.0357V10.8214C14.7143 10.6439 14.5704 10.5 14.3929 10.5Z" fill="white"/>
<path d="M15.6398 6.36044C15.409 6.12962 15.096 5.99997 14.7696 6.00001C14.443 5.99906 14.1296 6.12894 13.8995 6.36065L9.66561 10.5942C9.63049 10.6296 9.60399 10.6726 9.58815 10.7198L8.9453 12.6484C8.88919 12.8169 8.98025 12.9989 9.14868 13.0549C9.18136 13.0658 9.21558 13.0714 9.25001 13.0714C9.28451 13.0714 9.31881 13.0658 9.35158 13.055L11.2802 12.4122C11.3275 12.3964 11.3706 12.3697 11.4058 12.3344L15.6397 8.10055C16.1202 7.62006 16.1203 6.84099 15.6398 6.36044Z" fill="white"/>
</svg>
