<svg width="16" height="21" viewBox="0 0 16 21" fill="none" xmlns="http://www.w3.org/2000/svg">
<path d="M15.3125 7.875H14V6.12499C14 2.74764 11.2524 0 7.875 0C4.49761 0 1.75001 2.74764 1.75001 6.12499V7.875H0.437514C0.195686 7.875 0 8.07069 0 8.31251V19.25C0 20.2152 0.784834 21 1.75001 21H14C14.9652 21 15.75 20.2152 15.75 19.25V8.31251C15.75 8.07069 15.5543 7.875 15.3125 7.875ZM9.18496 17.0142C9.19862 17.1377 9.15891 17.2616 9.07602 17.3543C8.99313 17.447 8.87435 17.5 8.75003 17.5H7.00001C6.8757 17.5 6.75691 17.447 6.67402 17.3543C6.59113 17.2616 6.55138 17.1377 6.56508 17.0142L6.84108 14.5324C6.3929 14.2064 6.12503 13.6907 6.12503 13.125C6.12503 12.1599 6.90986 11.375 7.87504 11.375C8.84022 11.375 9.62505 12.1598 9.62505 13.125C9.62505 13.6907 9.35718 14.2064 8.909 14.5324L9.18496 17.0142ZM11.375 7.875H4.37501V6.12499C4.37501 4.19512 5.94513 2.625 7.875 2.625C9.80487 2.625 11.375 4.19512 11.375 6.12499V7.875Z" fill="#18191D"/>
</svg>
