<svg width="173" height="18" viewBox="0 0 173 18" fill="none" xmlns="http://www.w3.org/2000/svg">
<path fill-rule="evenodd" clip-rule="evenodd" d="M3.1237 13.0694L2.27698 14.5361L2.40936 14.6742C4.0508 16.3882 6.30162 17.3497 8.67483 17.3497C11.8806 17.3497 14.8173 15.5876 16.3284 12.7609L16.3953 12.6358L10.8067 2.95591L8.67483 6.64834L6.54303 2.95591L1.95865 10.8964L1.91639 10.7592C1.70869 10.0843 1.60406 9.38087 1.60406 8.67488C1.60406 4.76964 4.76966 1.60411 8.67483 1.60411C12.58 1.60411 15.7456 4.76964 15.7456 8.67488C15.7456 9.14297 15.6997 9.61096 15.6079 10.07L15.5891 10.1643L16.6833 12.0597L16.8668 11.534C17.1874 10.6154 17.3497 9.6477 17.3497 8.67488C17.3497 3.88407 13.4657 0 8.67488 0C3.88402 0 0 3.88402 0 8.67488C0 10.5203 0.580903 12.3046 1.67136 13.7938L1.90256 14.1096L6.54303 6.07206L7.75725 8.17511L8.72906 9.85833L9.50549 11.2032H7.84417L8.36453 10.302L7.46502 8.74388L5.14556 12.7612H12.2042L9.57439 8.20641L10.8067 6.07201L14.5669 12.5851L14.5451 12.6175C13.229 14.5749 11.0342 15.7456 8.67488 15.7456C6.63638 15.7456 4.70234 14.8703 3.35841 13.3371L3.1237 13.0694Z" fill="#182443"/>
<path d="M29.4854 13.9833L29.4556 8.45924L26.7755 12.9559H25.4652L22.7999 8.60814V13.9833H20.0751V3.56054H22.5022L26.165 9.57597L29.7385 3.56054H32.1656L32.1953 13.9833H29.4854ZM42.7537 11.9583H38.3463L37.5274 13.9833H34.5197L39.1206 3.56054H42.0241L46.6399 13.9833H43.5726L42.7537 11.9583ZM41.8901 9.78442L40.55 6.44913L39.2099 9.78442H41.8901ZM53.5208 11.2138H51.9128V13.9833H48.9646V3.56054H53.7293C54.6723 3.56054 55.4912 3.71936 56.1861 4.03701C56.881 4.34473 57.417 4.79142 57.7942 5.37708C58.1713 5.95282 58.36 6.63277 58.36 7.41696C58.36 8.17138 58.1813 8.83148 57.824 9.39729C57.4766 9.95317 56.9753 10.3899 56.3201 10.7076L58.5684 13.9833H55.4118L53.5208 11.2138ZM55.3821 7.41696C55.3821 6.93056 55.2282 6.55336 54.9205 6.28535C54.6127 6.01733 54.1562 5.88333 53.5506 5.88333H51.9128V8.93571H53.5506C54.1562 8.93571 54.6127 8.80666 54.9205 8.54858C55.2282 8.28057 55.3821 7.90336 55.3821 7.41696ZM65.4956 10.2013L64.3938 11.3776V13.9833H61.4754V3.56054H64.3938V7.89343L68.4289 3.56054H71.6749L67.4164 8.17634L71.8982 13.9833H68.4736L65.4956 10.2013ZM82.5288 11.7052V13.9833H74.1608V3.56054H82.3352V5.83866H77.0792V7.59564H81.7099V9.79931H77.0792V11.7052H82.5288ZM87.8722 5.89822H84.671V3.56054H94.0068V5.89822H90.8204V13.9833H87.8722V5.89822ZM100.228 14.1918C99.3842 14.1918 98.5652 14.0875 97.7712 13.8791C96.977 13.6706 96.3318 13.3926 95.8355 13.0453L96.8033 10.8714C97.2698 11.1791 97.8108 11.4272 98.4263 11.6159C99.0417 11.8045 99.6473 11.8988 100.243 11.8988C101.374 11.8988 101.94 11.6159 101.94 11.05C101.94 10.7523 101.776 10.5339 101.449 10.3949C101.131 10.246 100.615 10.0921 99.9004 9.93332C99.1161 9.76457 98.461 9.5859 97.9349 9.39729C97.4088 9.19877 96.9571 8.88608 96.58 8.45924C96.2027 8.0324 96.0142 7.45667 96.0142 6.73204C96.0142 6.09674 96.1878 5.52597 96.5353 5.01973C96.8827 4.50355 97.3989 4.09657 98.0838 3.79877C98.7786 3.50098 99.6273 3.35208 100.63 3.35208C101.315 3.35208 101.99 3.43149 102.655 3.59032C103.32 3.73921 103.906 3.96256 104.412 4.26035L103.504 6.44913C102.511 5.91311 101.548 5.64509 100.615 5.64509C100.029 5.64509 99.6026 5.73443 99.3346 5.91311C99.0666 6.08185 98.9326 6.3052 98.9326 6.58314C98.9326 6.86109 99.0913 7.06954 99.409 7.20851C99.7266 7.34747 100.238 7.49141 100.943 7.64031C101.737 7.80905 102.392 7.9927 102.908 8.19123C103.434 8.37983 103.886 8.68755 104.263 9.11439C104.65 9.5313 104.844 10.1021 104.844 10.8267C104.844 11.4521 104.67 12.0179 104.323 12.5241C103.975 13.0304 103.454 13.4373 102.759 13.7451C102.064 14.0429 101.221 14.1918 100.228 14.1918Z" fill="#182443"/>
<path d="M108.205 13.9316C107.977 13.9316 107.781 13.8488 107.615 13.683C107.46 13.5173 107.382 13.3153 107.382 13.0771C107.382 12.8389 107.46 12.6421 107.615 12.4867C107.781 12.321 107.977 12.2381 108.205 12.2381C108.433 12.2381 108.63 12.321 108.796 12.4867C108.961 12.6421 109.044 12.8389 109.044 13.0771C109.044 13.3153 108.961 13.5173 108.796 13.683C108.63 13.8488 108.433 13.9316 108.205 13.9316ZM119.666 8.64255H120.723V12.6181C120.237 13.045 119.661 13.3726 118.996 13.6008C118.331 13.8291 117.631 13.9433 116.896 13.9433C115.854 13.9433 114.916 13.715 114.082 13.2584C113.248 12.8017 112.593 12.1714 112.117 11.3674C111.64 10.5534 111.402 9.64512 111.402 8.64255C111.402 7.63999 111.64 6.73667 112.117 5.93263C112.593 5.11866 113.248 4.48337 114.082 4.02675C114.916 3.57013 115.859 3.34183 116.911 3.34183C117.705 3.34183 118.435 3.47088 119.1 3.72896C119.765 3.97712 120.326 4.34937 120.783 4.84569L120.098 5.5455C119.274 4.73153 118.226 4.32455 116.956 4.32455C116.112 4.32455 115.348 4.51315 114.663 4.89035C113.988 5.25764 113.457 5.7738 113.07 6.43888C112.683 7.09403 112.489 7.82858 112.489 8.64255C112.489 9.45653 112.683 10.1911 113.07 10.8462C113.457 11.5014 113.988 12.0176 114.663 12.3948C115.338 12.772 116.097 12.9606 116.941 12.9606C118.013 12.9606 118.921 12.6925 119.666 12.1565V8.64255ZM132.448 13.8539L130.066 10.5038C129.798 10.5335 129.52 10.5484 129.231 10.5484H126.432V13.8539H125.33V3.43117H129.231C130.562 3.43117 131.604 3.74881 132.359 4.38411C133.113 5.0194 133.491 5.89292 133.491 7.00469C133.491 7.81866 133.282 8.50855 132.865 9.07435C132.457 9.63023 131.872 10.0323 131.108 10.2804L133.654 13.8539H132.448ZM129.202 9.61038C130.234 9.61038 131.023 9.38208 131.569 8.92546C132.116 8.46884 132.387 7.82858 132.387 7.00469C132.387 6.16094 132.116 5.51572 131.569 5.06903C131.023 4.61241 130.234 4.38411 129.202 4.38411H126.432V9.61038H129.202ZM142.136 13.9433C141.104 13.9433 140.165 13.715 139.322 13.2584C138.488 12.7918 137.833 12.1565 137.357 11.3525C136.889 10.5484 136.656 9.64512 136.656 8.64255C136.656 7.63999 136.889 6.73667 137.357 5.93263C137.833 5.12859 138.488 4.49826 139.322 4.04164C140.165 3.5751 141.104 3.34183 142.136 3.34183C143.168 3.34183 144.096 3.57013 144.921 4.02675C145.754 4.48337 146.41 5.11866 146.886 5.93263C147.363 6.73667 147.601 7.63999 147.601 8.64255C147.601 9.64512 147.363 10.5534 146.886 11.3674C146.41 12.1714 145.754 12.8017 144.921 13.2584C144.096 13.715 143.168 13.9433 142.136 13.9433ZM142.136 12.9606C142.959 12.9606 143.704 12.7769 144.369 12.4096C145.035 12.0324 145.555 11.5163 145.933 10.8611C146.31 10.196 146.499 9.45653 146.499 8.64255C146.499 7.82858 146.31 7.09403 145.933 6.43888C145.555 5.7738 145.035 5.25764 144.369 4.89035C143.704 4.51315 142.959 4.32455 142.136 4.32455C141.312 4.32455 140.563 4.51315 139.888 4.89035C139.222 5.25764 138.697 5.7738 138.31 6.43888C137.932 7.09403 137.744 7.82858 137.744 8.64255C137.744 9.45653 137.932 10.196 138.31 10.8611C138.697 11.5163 139.222 12.0324 139.888 12.4096C140.563 12.7769 141.312 12.9606 142.136 12.9606ZM155.758 13.9433C154.407 13.9433 153.356 13.5561 152.601 12.7819C151.846 12.0076 151.47 10.881 151.47 9.40193V3.43117H152.571V9.35726C152.571 10.5683 152.845 11.4716 153.391 12.0672C153.936 12.6628 154.726 12.9606 155.758 12.9606C156.8 12.9606 157.594 12.6628 158.14 12.0672C158.686 11.4716 158.96 10.5683 158.96 9.35726V3.43117H160.032V9.40193C160.032 10.881 159.654 12.0076 158.9 12.7819C158.156 13.5561 157.108 13.9433 155.758 13.9433ZM168.742 3.43117C170.071 3.43117 171.114 3.74881 171.868 4.38411C172.623 5.0194 173 5.89292 173 7.00469C173 8.11646 172.623 8.98997 171.868 9.62527C171.114 10.2506 170.071 10.5633 168.742 10.5633H165.942V13.8539H164.84V3.43117H168.742ZM168.712 9.59549C169.744 9.59549 170.533 9.37215 171.079 8.92546C171.625 8.46884 171.898 7.82858 171.898 7.00469C171.898 6.16094 171.625 5.51572 171.079 5.06903C170.533 4.61241 169.744 4.38411 168.712 4.38411H165.942V9.59549H168.712Z" fill="#182443"/>
</svg>
