<svg width="9" height="9" viewBox="0 0 9 9" fill="none" xmlns="http://www.w3.org/2000/svg">
<path d="M8.4375 3.9375H5.0625V0.5625C5.0625 0.413316 5.00324 0.270242 4.89775 0.164753C4.79226 0.0592633 4.64918 0 4.5 0C4.35082 0 4.20774 0.0592633 4.10225 0.164753C3.99676 0.270242 3.9375 0.413316 3.9375 0.5625V3.9375H0.5625C0.413316 3.9375 0.270242 3.99676 0.164753 4.10225C0.0592633 4.20774 0 4.35082 0 4.5C0 4.64918 0.0592633 4.79226 0.164753 4.89775C0.270242 5.00324 0.413316 5.0625 0.5625 5.0625H3.9375V8.4375C3.9375 8.58668 3.99676 8.72976 4.10225 8.83525C4.20774 8.94074 4.35082 9 4.5 9C4.64918 9 4.79226 8.94074 4.89775 8.83525C5.00324 8.72976 5.0625 8.58668 5.0625 8.4375V5.0625H8.4375C8.58668 5.0625 8.72976 5.00324 8.83525 4.89775C8.94074 4.79226 9 4.64918 9 4.5C9 4.35082 8.94074 4.20774 8.83525 4.10225C8.72976 3.99676 8.58668 3.9375 8.4375 3.9375Z" fill="white"/>
</svg>
