<svg width="21" height="21" viewBox="0 0 21 21" fill="none" xmlns="http://www.w3.org/2000/svg">
<path d="M4.1408 18.1268C5.37761 18.1268 6.38024 17.1241 6.38024 15.8873C6.38024 14.6505 5.37761 13.6479 4.1408 13.6479C2.904 13.6479 1.90137 14.6505 1.90137 15.8873C1.90137 17.1241 2.904 18.1268 4.1408 18.1268Z" fill="#18191D"/>
<path d="M18.5493 16.1409C19.6227 16.1409 20.4929 15.2707 20.4929 14.1972C20.4929 13.1237 19.6227 12.2535 18.5493 12.2535C17.4758 12.2535 16.6056 13.1237 16.6056 14.1972C16.6056 15.2707 17.4758 16.1409 18.5493 16.1409Z" fill="#18191D"/>
<path d="M16.7746 6.33804C17.6614 6.33804 18.3803 5.61917 18.3803 4.7324C18.3803 3.84564 17.6614 3.12677 16.7746 3.12677C15.8879 3.12677 15.169 3.84564 15.169 4.7324C15.169 5.61917 15.8879 6.33804 16.7746 6.33804Z" fill="#18191D"/>
<path d="M2.37655 12.6603C3.68908 12.6603 4.7531 11.6223 4.7531 10.3417C4.7531 9.06118 3.68908 8.0231 2.37655 8.0231C1.06402 8.0231 0 9.06118 0 10.3417C0 11.6223 1.06402 12.6603 2.37655 12.6603Z" fill="#18191D"/>
<path d="M9.20372 21C10.3969 21 11.3642 20.0574 11.3642 18.8947C11.3642 17.732 10.3969 16.7894 9.20372 16.7894C8.0105 16.7894 7.04321 17.732 7.04321 18.8947C7.04321 20.0574 8.0105 21 9.20372 21Z" fill="#18191D"/>
<path d="M14.7561 20.0776C15.8897 20.0776 16.8086 19.1829 16.8086 18.0792C16.8086 16.9754 15.8897 16.0807 14.7561 16.0807C13.6226 16.0807 12.7037 16.9754 12.7037 18.0792C12.7037 19.1829 13.6226 20.0776 14.7561 20.0776Z" fill="#18191D"/>
<path d="M4.94756 7.27568C6.31974 7.27568 7.43211 6.18987 7.43211 4.85046C7.43211 3.51104 6.31974 2.42523 4.94756 2.42523C3.57538 2.42523 2.46301 3.51104 2.46301 4.85046C2.46301 6.18987 3.57538 7.27568 4.94756 7.27568Z" fill="#18191D"/>
<path d="M19.1636 10.9493C20.1778 10.9493 21 10.1423 21 9.14691C21 8.15149 20.1778 7.34454 19.1636 7.34454C18.1493 7.34454 17.3271 8.15149 17.3271 9.14691C17.3271 10.1423 18.1493 10.9493 19.1636 10.9493Z" fill="#18191D"/>
<path d="M11.1126 5.23944C12.5595 5.23944 13.7324 4.06655 13.7324 2.61972C13.7324 1.17289 12.5595 0 11.1126 0C9.66581 0 8.49292 1.17289 8.49292 2.61972C8.49292 4.06655 9.66581 5.23944 11.1126 5.23944Z" fill="#18191D"/>
</svg>
