<svg viewBox="0 0 18 26" fill="none" xmlns="http://www.w3.org/2000/svg">
<path d="M16.6787 13.7743L4.9407 25.5139C4.47485 25.9798 3.71947 25.9799 3.25363 25.514L0.349392 22.6097C-0.116454 22.1439 -0.116453 21.3886 0.349329 20.9228L8.33966 12.9308L3.6557 8.24681L0.349517 4.94063C-0.116329 4.47478 -0.116329 3.71946 0.349517 3.25355L3.25369 0.349384C3.71953 -0.116461 4.47485 -0.116461 4.9407 0.349384L12.8381 8.24681L16.6786 12.0873C17.1445 12.5532 17.1445 13.3085 16.6787 13.7743Z" fill="#DE1D27"/>
<path d="M12.929 8.34142L8.33771 12.9327L6.58281 11.1778L3.65557 8.24689L0.349384 4.9407C-0.116461 4.47486 -0.116461 3.71954 0.349384 3.25363L3.2533 0.349712C3.71927 -0.116258 4.47472 -0.116133 4.94056 0.349962L11.174 6.5867L12.929 8.34142Z" fill="#293F96"/>
<path d="M12.9289 8.34134L8.33774 12.9325L7.22437 11.8173L11.8155 7.22609L12.9289 8.34134Z" fill="white"/>
</svg>
