<svg width="263" height="67" viewBox="0 0 263 67" fill="none" xmlns="http://www.w3.org/2000/svg">
<path fill-rule="evenodd" clip-rule="evenodd" d="M12.0011 18.5005C13.5484 18.5005 14.8155 19.9253 14.8155 21.6669V45.3331C14.8155 47.0754 13.5484 48.5 12.0011 48.5C10.4516 48.5 9.18658 47.0754 9.18658 45.3331V21.6669C9.18658 19.9253 10.4516 18.5005 12.0011 18.5005Z" fill="#0463EF"/>
<path fill-rule="evenodd" clip-rule="evenodd" d="M24.0013 50.2658V55.9997C24.0013 57.7411 22.7343 59.1661 21.1863 59.1661C19.6383 59.1661 18.3712 57.7411 18.3712 55.9997V49.6548C19.3729 50.3292 20.4985 50.6658 21.7502 50.6658C22.5596 50.6658 23.3092 50.5327 24.0013 50.2658Z" fill="#0463EF"/>
<path fill-rule="evenodd" clip-rule="evenodd" d="M24.0013 48.6255V48.925C23.3246 49.256 22.575 49.4214 21.7502 49.4214C20.4675 49.4214 19.3398 48.9965 18.3712 48.1453V47.833C19.3243 48.7203 20.452 49.1639 21.7502 49.1639C22.575 49.1639 23.3246 48.9847 24.0013 48.6255Z" fill="#0463EF"/>
<path fill-rule="evenodd" clip-rule="evenodd" d="M24.0013 47.2164V47.492C23.3423 47.9481 22.5927 48.1765 21.7502 48.1765C20.5029 48.1765 19.4548 47.6973 18.6034 46.7391C18.5215 46.6481 18.4442 46.5549 18.3712 46.4598V46.0273C18.4928 46.2064 18.6277 46.3802 18.7736 46.5463C19.5873 47.4621 20.5804 47.9195 21.7502 47.9195C22.6016 47.9195 23.3534 47.6855 24.0013 47.2164Z" fill="#0463EF"/>
<path fill-rule="evenodd" clip-rule="evenodd" d="M24.0013 19.5031V19.7931C23.3423 19.3179 22.5927 19.0809 21.7502 19.0809C20.5804 19.0809 19.5873 19.5381 18.7736 20.4539C18.6277 20.6202 18.4928 20.793 18.3712 20.9729V20.5859C18.4508 20.482 18.5347 20.3812 18.6232 20.2823C19.4879 19.3091 20.5294 18.8232 21.7502 18.8232C22.5839 18.8232 23.3335 19.0497 24.0013 19.5031Z" fill="#0463EF"/>
<path fill-rule="evenodd" clip-rule="evenodd" d="M24.0013 18.097V18.3722C23.3202 18.015 22.5683 17.8363 21.7502 17.8363C20.452 17.8363 19.3243 18.2857 18.3712 19.1835V18.8698C19.3398 18.0085 20.4675 17.5787 21.7502 17.5787C22.5639 17.5787 23.3135 17.7517 24.0013 18.097Z" fill="#0463EF"/>
<path fill-rule="evenodd" clip-rule="evenodd" d="M21.1863 7.83353C22.7343 7.83353 24.0013 9.25834 24.0013 11V16.7536C23.3025 16.4737 22.5506 16.3337 21.7502 16.3337C20.4985 16.3337 19.3729 16.674 18.3712 17.3553V11C18.3712 9.25834 19.6383 7.83353 21.1863 7.83353Z" fill="#0463EF"/>
<path fill-rule="evenodd" clip-rule="evenodd" d="M33.1862 47.0038V63.8328C33.1862 65.5751 31.9185 67 30.3719 67C28.823 67 27.5554 65.5751 27.5554 63.8328V47.0031L30.3719 43.0271L33.1862 47.0038Z" fill="#0463EF"/>
<path fill-rule="evenodd" clip-rule="evenodd" d="M33.1862 44.6025V44.9903L30.3719 41.0104L27.5554 44.9896V44.569L30.3719 40.624L33.1862 44.6025Z" fill="#0463EF"/>
<path fill-rule="evenodd" clip-rule="evenodd" d="M33.1862 42.5884V42.9885C32.4219 41.917 31.483 40.5997 30.3719 39.0361L27.5554 42.9711V42.5878L30.3719 38.6075L33.1862 42.5884Z" fill="#0463EF"/>
<path fill-rule="evenodd" clip-rule="evenodd" d="M33.1862 27.2146V27.5208C32.4423 26.7579 31.5171 26.3765 30.4081 26.3765C29.2606 26.3765 28.3106 26.7715 27.5554 27.5619V27.2693L27.9295 26.977C28.6665 26.4051 29.4943 26.1189 30.4081 26.1189C31.3493 26.1189 32.177 26.4051 32.889 26.977L33.1862 27.2146Z" fill="#0463EF"/>
<path fill-rule="evenodd" clip-rule="evenodd" d="M33.1862 25.7196V25.9851C32.3697 25.4158 31.4445 25.1319 30.4081 25.1319C29.3355 25.1319 28.3853 25.4251 27.5554 26.0125V25.7506C28.4239 25.1662 29.3741 24.8744 30.4081 24.8744C31.4241 24.8744 32.3516 25.1562 33.1862 25.7196Z" fill="#0463EF"/>
<path fill-rule="evenodd" clip-rule="evenodd" d="M30.3719 0C31.9185 0 33.1862 1.42484 33.1862 3.16645V20.2235C32.6578 21.2935 32.3924 22.4864 32.3924 23.8011V23.9733C31.7575 23.7439 31.0952 23.63 30.4081 23.63C29.7233 23.63 29.0475 23.7439 28.3876 23.9733V23.8011C28.3876 22.4554 28.111 21.2369 27.5554 20.1474V3.16645C27.5554 1.42484 28.823 0 30.3719 0Z" fill="#0463EF"/>
<path fill-rule="evenodd" clip-rule="evenodd" d="M42.3709 48.3575V54.6662C42.3709 56.4078 41.1042 57.8327 39.5564 57.8327C38.0085 57.8327 36.742 56.4078 36.742 54.6662V48.9331C37.4345 49.1994 38.1828 49.3327 38.9917 49.3327C40.2698 49.3327 41.3948 49.0078 42.3709 48.3575Z" fill="#0463EF"/>
<path fill-rule="evenodd" clip-rule="evenodd" d="M42.3709 46.4829V46.8313C41.4389 47.6689 40.314 48.0882 38.9917 48.0882C38.1689 48.0882 37.4183 47.9227 36.742 47.5917V47.3172C37.4136 47.6593 38.1619 47.8306 38.9917 47.8306C40.2908 47.8306 41.418 47.3814 42.3709 46.4829Z" fill="#0463EF"/>
<path fill-rule="evenodd" clip-rule="evenodd" d="M42.3709 44.6938V45.0958C42.2919 45.2016 42.2082 45.305 42.1198 45.4057C41.2809 46.3647 40.2397 46.8438 38.9917 46.8438C38.1434 46.8438 37.3928 46.6198 36.742 46.171V45.8831C37.3903 46.3521 38.1411 46.5861 38.9917 46.5861C40.163 46.5861 41.153 46.1287 41.9688 45.2129C42.1153 45.0467 42.25 44.8737 42.3709 44.6938Z" fill="#0463EF"/>
<path fill-rule="evenodd" clip-rule="evenodd" d="M42.3709 19.283V19.6394C42.25 19.4599 42.1153 19.2866 41.9688 19.1206C41.153 18.2048 40.163 17.7474 38.9917 17.7474C38.1527 17.7474 37.402 17.9969 36.742 18.4972V18.1755C37.4043 17.7189 38.155 17.4897 38.9917 17.4897C40.2117 17.4897 41.2484 17.9763 42.1013 18.949C42.1966 19.0577 42.2873 19.1691 42.3709 19.283Z" fill="#0463EF"/>
<path fill-rule="evenodd" clip-rule="evenodd" d="M42.3709 17.5364V17.8499C41.418 16.9521 40.2908 16.503 38.9917 16.503C38.1735 16.503 37.4229 16.6903 36.742 17.0648V16.7667C37.4252 16.4191 38.1759 16.2454 38.9917 16.2454C40.2769 16.2454 41.4018 16.6754 42.3709 17.5364Z" fill="#0463EF"/>
<path fill-rule="evenodd" clip-rule="evenodd" d="M39.5564 6.50006C41.1042 6.50006 42.3709 7.92495 42.3709 9.66662V15.9953C41.3761 15.3325 40.249 15.0003 38.9917 15.0003C38.1922 15.0003 37.4415 15.1447 36.742 15.4309V9.66662C36.742 7.92495 38.0085 6.50006 39.5564 6.50006Z" fill="#0463EF"/>
<path fill-rule="evenodd" clip-rule="evenodd" d="M48.7429 18.5001C50.2903 18.5001 51.5567 19.9249 51.5567 21.6666V45.3327C51.5567 47.0749 50.2903 48.4997 48.7429 48.4997C47.1933 48.4997 45.9269 47.0749 45.9269 45.3327V21.6666C45.9269 19.9249 47.1933 18.5001 48.7429 18.5001Z" fill="#0463EF"/>
<path fill-rule="evenodd" clip-rule="evenodd" d="M57.927 25.667C59.4743 25.667 60.7415 27.0918 60.7415 28.8334V38.1662C60.7415 39.9084 59.4743 41.3334 57.927 41.3334C56.3796 41.3334 55.1125 39.9084 55.1125 38.1662V28.8334C55.1125 27.0918 56.3796 25.667 57.927 25.667Z" fill="#0463EF"/>
<path fill-rule="evenodd" clip-rule="evenodd" d="M2.81644 25.667C4.36316 25.667 5.63075 27.0919 5.63075 28.8335V38.1662C5.63075 39.9083 4.36316 41.3333 2.81644 41.3333C1.26761 41.3333 0 39.9083 0 38.1662V28.8335C0 27.0919 1.26761 25.667 2.81644 25.667Z" fill="#0463EF"/>
<path fill-rule="evenodd" clip-rule="evenodd" d="M37.2748 23.8011C37.2748 23.258 37.4414 22.7932 37.7699 22.4067C38.1031 22.0204 38.5081 21.8274 38.9917 21.8274C39.4753 21.8274 39.8826 22.0204 40.2111 22.4067C40.542 22.7932 40.7086 23.258 40.7086 23.8011V43.1988C40.7086 43.7427 40.542 44.2075 40.2111 44.594C39.8826 44.9803 39.4753 45.1731 38.9917 45.1731C38.4318 45.1731 37.9735 44.9299 37.6195 44.4433L30.3702 34.2296L23.123 44.4433C22.7667 44.9299 22.3086 45.1731 21.7487 45.1731C21.2651 45.1731 20.8532 44.9803 20.5107 44.594C20.166 44.2075 19.9948 43.7427 19.9948 43.1988V23.8011C19.9948 23.258 20.166 22.7932 20.5107 22.4067C20.8532 22.0204 21.2651 21.8274 21.7487 21.8274C22.2323 21.8274 22.6464 22.0204 22.9889 22.4067C23.3337 22.7932 23.5049 23.258 23.5049 23.8011V37.5342L29.035 29.8094C29.3659 29.3519 29.8242 29.1231 30.4095 29.1231C30.9695 29.1231 31.4252 29.3658 31.7816 29.8524L37.2748 37.5771V23.8011Z" fill="#3D4353"/>
<path d="M105.972 22.0254L98.1346 45.6723H93.4727L87.6286 28.1736L81.6831 45.6723H76.9875L69.1502 22.0254H73.7107L79.5886 39.997L85.7031 22.0254H89.7568L95.7361 40.0984L101.783 22.0254H105.972ZM114.683 27.4304C117.34 27.4304 119.367 28.0722 120.764 29.3559C122.182 30.617 122.892 32.5314 122.892 35.0987V45.6723H118.906V43.4765C118.388 44.2647 117.644 44.8727 116.676 45.3007C115.73 45.706 114.582 45.9087 113.23 45.9087C111.879 45.9087 110.697 45.6835 109.683 45.2331C108.67 44.7602 107.882 44.1183 107.319 43.3076C106.778 42.4743 106.508 41.5397 106.508 40.5037C106.508 38.8822 107.105 37.5873 108.298 36.6189C109.514 35.628 111.417 35.1325 114.007 35.1325H118.669V34.8623C118.669 33.6011 118.286 32.6327 117.521 31.9571C116.777 31.2814 115.663 30.9436 114.176 30.9436C113.163 30.9436 112.161 31.1013 111.17 31.4166C110.201 31.7318 109.379 32.171 108.704 32.734L107.048 29.6599C107.994 28.9393 109.131 28.3875 110.46 28.0047C111.789 27.6219 113.197 27.4304 114.683 27.4304ZM114.109 42.8346C115.167 42.8346 116.102 42.5982 116.912 42.1252C117.746 41.6297 118.331 40.9317 118.669 40.0308V37.9364H114.311C111.879 37.9364 110.663 38.7359 110.663 40.3348C110.663 41.1006 110.967 41.7086 111.575 42.159C112.183 42.6094 113.028 42.8346 114.109 42.8346ZM128.311 20.6066H132.534V45.6723H128.311V20.6066ZM138.076 20.6066H142.299V45.6723H138.076V20.6066ZM164.798 36.754C164.798 37.0468 164.777 37.4634 164.731 38.0039H150.577C150.825 39.3326 151.467 40.3912 152.502 41.1794C153.561 41.9451 154.867 42.3279 156.421 42.3279C158.403 42.3279 160.035 41.6749 161.319 40.3686L163.582 42.9698C162.772 43.9382 161.747 44.67 160.508 45.1655C159.271 45.661 157.873 45.9087 156.319 45.9087C154.338 45.9087 152.593 45.5146 151.083 44.7264C149.575 43.9382 148.404 42.8459 147.57 41.4496C146.759 40.0308 146.354 38.4319 146.354 36.6527C146.354 34.896 146.748 33.3195 147.536 31.9233C148.347 30.5045 149.462 29.4009 150.881 28.6127C152.299 27.8245 153.899 27.4304 155.678 27.4304C157.434 27.4304 159 27.8245 160.373 28.6127C161.77 29.3785 162.851 30.4707 163.616 31.8895C164.405 33.2858 164.798 34.9073 164.798 36.754ZM155.678 30.8085C154.326 30.8085 153.178 31.2139 152.232 32.0246C151.309 32.8128 150.745 33.8714 150.543 35.2001H160.779C160.599 33.8938 160.048 32.8354 159.123 32.0246C158.2 31.2139 157.052 30.8085 155.678 30.8085ZM179.699 44.6926C179.203 45.098 178.595 45.402 177.875 45.6047C177.176 45.8074 176.433 45.9087 175.645 45.9087C173.663 45.9087 172.132 45.3908 171.051 44.3548C169.97 43.3188 169.429 41.81 169.429 39.8281V31.1463H166.456V27.7682H169.429V23.6469H173.652V27.7682H178.483V31.1463H173.652V39.7268C173.652 40.6051 173.865 41.2807 174.294 41.7536C174.722 42.204 175.341 42.4293 176.152 42.4293C177.098 42.4293 177.885 42.1816 178.516 41.6861L179.699 44.6926Z" fill="#3D4353"/>
<path d="M190.909 46.0101C189.085 46.0101 187.316 45.751 185.605 45.2331C183.916 44.7152 182.576 44.0282 181.585 43.1724L183.105 39.7605C184.073 40.5263 185.255 41.1568 186.652 41.6523C188.071 42.1252 189.49 42.3617 190.909 42.3617C192.665 42.3617 193.971 42.0802 194.827 41.5172C195.706 40.9541 196.145 40.2109 196.145 39.2876C196.145 38.612 195.896 38.0603 195.402 37.6323C194.929 37.1819 194.321 36.8328 193.577 36.5851C192.834 36.3374 191.821 36.0558 190.537 35.7406C188.735 35.3126 187.271 34.8848 186.146 34.4569C185.042 34.0289 184.085 33.3647 183.274 32.4638C182.485 31.5405 182.092 30.3018 182.092 28.7478C182.092 27.4416 182.44 26.2592 183.139 25.2008C183.859 24.1198 184.929 23.2641 186.348 22.6334C187.789 22.0028 189.545 21.6876 191.618 21.6876C193.059 21.6876 194.477 21.8677 195.875 22.2281C197.27 22.5884 198.476 23.1064 199.489 23.782L198.104 27.1939C197.068 26.5858 195.987 26.1241 194.861 25.8089C193.734 25.4936 192.642 25.3359 191.584 25.3359C189.849 25.3359 188.555 25.6288 187.699 26.2143C186.866 26.7997 186.45 27.5767 186.45 28.5452C186.45 29.2208 186.686 29.7725 187.159 30.2004C187.654 30.6284 188.274 30.9662 189.017 31.2139C189.76 31.4616 190.774 31.7432 192.057 32.0584C193.814 32.4638 195.254 32.8917 196.381 33.3421C197.507 33.77 198.464 34.4343 199.253 35.3352C200.063 36.2361 200.469 37.4522 200.469 38.9836C200.469 40.2898 200.108 41.4722 199.388 42.5306C198.689 43.589 197.619 44.4336 196.179 45.0642C194.737 45.6948 192.98 46.0101 190.909 46.0101ZM212.694 45.9087C210.825 45.9087 209.147 45.5146 207.66 44.7264C206.174 43.9382 205.014 42.8458 204.181 41.4496C203.348 40.0308 202.931 38.4319 202.931 36.6527C202.931 34.8735 203.348 33.2857 204.181 31.8895C205.014 30.4933 206.163 29.4009 207.626 28.6127C209.113 27.8245 210.802 27.4304 212.694 27.4304C214.473 27.4304 216.027 27.7908 217.355 28.5114C218.707 29.232 219.72 30.268 220.396 31.6193L217.153 33.511C216.635 32.6777 215.983 32.0584 215.193 31.653C214.429 31.2251 213.584 31.0112 212.66 31.0112C211.084 31.0112 209.778 31.5291 208.741 32.5651C207.706 33.5786 207.187 34.941 207.187 36.6527C207.187 38.3643 207.694 39.738 208.707 40.774C209.744 41.7874 211.061 42.2941 212.66 42.2941C213.584 42.2941 214.429 42.0914 215.193 41.6861C215.983 41.2581 216.635 40.6276 217.153 39.7943L220.396 41.6861C219.698 43.0373 218.673 44.0845 217.322 44.8277C215.993 45.5483 214.45 45.9087 212.694 45.9087ZM230.938 27.4304C233.596 27.4304 235.623 28.0722 237.019 29.3559C238.438 30.617 239.147 32.5313 239.147 35.0987V45.6723H235.161V43.4765C234.643 44.2647 233.9 44.8727 232.931 45.3007C231.985 45.706 230.837 45.9087 229.486 45.9087C228.134 45.9087 226.952 45.6835 225.939 45.2331C224.925 44.7602 224.137 44.1183 223.574 43.3076C223.033 42.4743 222.763 41.5397 222.763 40.5037C222.763 38.8822 223.36 37.5873 224.553 36.6189C225.77 35.628 227.672 35.1325 230.263 35.1325H234.924V34.8623C234.924 33.6011 234.542 32.6327 233.776 31.9571C233.033 31.2814 231.918 30.9436 230.431 30.9436C229.418 30.9436 228.415 31.1013 227.425 31.4166C226.456 31.7318 225.634 32.171 224.959 32.734L223.304 29.6599C224.249 28.9393 225.387 28.3875 226.715 28.0047C228.044 27.6218 229.452 27.4304 230.938 27.4304ZM230.364 42.8346C231.422 42.8346 232.357 42.5982 233.168 42.1252C234.001 41.6297 234.587 40.9317 234.924 40.0308V37.9363H230.567C228.134 37.9363 226.918 38.7359 226.918 40.3348C226.918 41.1006 227.222 41.7086 227.83 42.159C228.438 42.6094 229.283 42.8346 230.364 42.8346ZM254.801 27.4304C257.077 27.4304 258.901 28.0948 260.274 29.4235C261.648 30.7522 262.334 32.7228 262.334 35.3352V45.6723H258.112V35.8757C258.112 34.2992 257.74 33.1168 256.997 32.3287C256.254 31.5179 255.196 31.1125 253.822 31.1125C252.268 31.1125 251.041 31.5855 250.139 32.5313C249.24 33.4547 248.788 34.7947 248.788 36.5513V45.6723H244.566V27.6331H248.585V29.964C249.284 29.1307 250.162 28.5002 251.22 28.0722C252.28 27.6443 253.473 27.4304 254.801 27.4304Z" fill="#0463EF"/>
</svg>
