<svg width="58" height="58" viewBox="0 0 58 58" fill="none" xmlns="http://www.w3.org/2000/svg">
<path fill-rule="evenodd" clip-rule="evenodd" d="M32.0712 0V11.9599H42.5731C44.4789 11.9599 46.0399 13.5211 46.0399 15.4267V19.8248H57.9998L58 10.0787C57.9998 4.52652 53.4735 0 47.9213 0H32.0712ZM25.9288 58L25.9286 46.04L15.4269 46.0399C13.5211 46.0399 11.96 44.4789 11.96 42.5731V38.175H0V47.9211C0 53.4735 4.52653 58 10.0787 58H25.9288Z" fill="#131723"/>
<path fill-rule="evenodd" clip-rule="evenodd" d="M32.0712 23.02V34.98H46.0399V42.5731C46.0399 44.4789 44.4789 46.0399 42.5731 46.0399H29.1239V58H47.9211C53.4733 58 57.9998 53.4735 57.9998 47.9211V23.02H32.0712ZM28.8759 11.9599V0H10.0787C4.52633 0 0 4.52652 0 10.0787V34.98H28.8759V23.02H11.96V15.4269C11.96 13.5211 13.5211 11.9599 15.4269 11.9599H28.8759Z" fill="#283F9C"/>
<mask id="mask0_804_400" style="mask-type:alpha" maskUnits="userSpaceOnUse" x="3" y="1" width="54" height="53">
<path d="M54.3418 53.3547C55.625 51.8429 56.3394 49.93 56.3394 47.921V24.6803H33.7315L33.7317 33.3196H47.7002V42.573C47.7002 45.3952 45.3954 47.7004 42.5731 47.7004H40.793C45.1348 49.9701 49.6722 51.8774 54.3418 53.3547ZM13.2725 24.6803C15.5829 27.7924 18.1504 30.6917 20.8388 33.3196H27.2155L27.2153 24.6803H13.2725ZM27.2153 10.2996V1.66051H10.0787C7.61259 1.66051 5.30362 2.74033 3.71173 4.5829C4.90513 10.111 7.25004 15.4214 10.2996 20.3202V15.4269C10.2996 12.6045 12.6045 10.2996 15.4269 10.2996H27.2153Z" fill="white"/>
</mask>
<g mask="url(#mask0_804_400)">
<path fill-rule="evenodd" clip-rule="evenodd" d="M69.6777 38.0186L56.3712 51.3251L6.54504 1.49896L19.8516 -11.8076L69.6777 38.0186Z" fill="#283F9C"/>
<path fill-rule="evenodd" clip-rule="evenodd" d="M56.4184 51.2779L56.2766 51.4198L6.45038 1.59343L6.59226 1.45174L56.4184 51.2779Z" fill="#283F9C"/>
<path fill-rule="evenodd" clip-rule="evenodd" d="M56.3238 51.3726L56.1819 51.5144L6.3559 1.68827L6.49759 1.54619L56.3238 51.3726Z" fill="#2A409D"/>
<path fill-rule="evenodd" clip-rule="evenodd" d="M56.2293 51.467L56.0874 51.6089L6.26105 1.78273L6.40312 1.64085L56.2293 51.467Z" fill="#2A409D"/>
<path fill-rule="evenodd" clip-rule="evenodd" d="M56.1346 51.5617L55.9927 51.7036L6.16656 1.87739L6.30845 1.7355L56.1346 51.5617Z" fill="#2B409D"/>
<path fill-rule="evenodd" clip-rule="evenodd" d="M56.0402 51.6563L55.8981 51.7982L6.07196 1.97206L6.21384 1.82998L56.0402 51.6563Z" fill="#2B409D"/>
<path fill-rule="evenodd" clip-rule="evenodd" d="M55.9455 51.7508L55.8035 51.8927L5.97729 2.0667L6.11918 1.92462L55.9455 51.7508Z" fill="#2B419D"/>
<path fill-rule="evenodd" clip-rule="evenodd" d="M55.8507 51.8454L55.709 51.9875L5.88263 2.16116L6.0247 2.01927L55.8507 51.8454Z" fill="#2D419D"/>
<path fill-rule="evenodd" clip-rule="evenodd" d="M55.7562 51.9399L55.6143 52.082L5.78815 2.25581L5.93003 2.11392L55.7562 51.9399Z" fill="#2C429E"/>
<path fill-rule="evenodd" clip-rule="evenodd" d="M55.6615 52.0348L55.5197 52.1767L5.69348 2.35047L5.83537 2.20859L55.6615 52.0348Z" fill="#2E429E"/>
<path fill-rule="evenodd" clip-rule="evenodd" d="M55.5671 52.1292L55.4252 52.2711L5.59906 2.44512L5.74075 2.30304L55.5671 52.1292Z" fill="#2E429E"/>
<path fill-rule="evenodd" clip-rule="evenodd" d="M55.4725 52.2239L55.3306 52.3658L5.50421 2.53959L5.64629 2.39771L55.4725 52.2239Z" fill="#2E439F"/>
<path fill-rule="evenodd" clip-rule="evenodd" d="M55.3778 52.3185L55.2359 52.4604L5.40973 2.63424L5.55161 2.49236L55.3778 52.3185Z" fill="#30439F"/>
<path fill-rule="evenodd" clip-rule="evenodd" d="M55.2833 52.413L55.1412 52.5549L5.31506 2.72889L5.45695 2.58681L55.2833 52.413Z" fill="#30439F"/>
<path fill-rule="evenodd" clip-rule="evenodd" d="M55.1887 52.5076L55.0466 52.6495L5.22064 2.82334L5.36253 2.68146L55.1887 52.5076Z" fill="#30439F"/>
<path fill-rule="evenodd" clip-rule="evenodd" d="M55.0939 52.6023L54.9522 52.7444L5.12579 2.91801L5.26787 2.77612L55.0939 52.6023Z" fill="#3244A0"/>
<path fill-rule="evenodd" clip-rule="evenodd" d="M54.9994 52.6968L54.8575 52.8388L5.03137 3.01266L5.17325 2.87077L54.9994 52.6968Z" fill="#3244A0"/>
<path fill-rule="evenodd" clip-rule="evenodd" d="M54.9047 52.7916L54.7628 52.9335L4.93665 3.10732L5.07853 2.96524L54.9047 52.7916Z" fill="#3345A1"/>
<path fill-rule="evenodd" clip-rule="evenodd" d="M54.8103 52.8861L54.6684 53.0279L4.84204 3.20196L4.98393 3.05989L54.8103 52.8861Z" fill="#3345A1"/>
<path fill-rule="evenodd" clip-rule="evenodd" d="M54.7157 52.9807L54.5738 53.1226L4.74762 3.29642L4.8895 3.15453L54.7157 52.9807Z" fill="#3345A1"/>
<path fill-rule="evenodd" clip-rule="evenodd" d="M54.621 53.0754L54.4791 53.2173L4.65289 3.39108L4.79478 3.24919L54.621 53.0754Z" fill="#3546A2"/>
<path fill-rule="evenodd" clip-rule="evenodd" d="M54.5265 53.1698L54.3844 53.3117L4.55823 3.48574L4.70011 3.34366L54.5265 53.1698Z" fill="#3546A2"/>
<path fill-rule="evenodd" clip-rule="evenodd" d="M54.4319 53.2645L54.2898 53.4064L4.46381 3.58019L4.60569 3.43831L54.4319 53.2645Z" fill="#3746A2"/>
<path fill-rule="evenodd" clip-rule="evenodd" d="M54.337 53.3591L54.1953 53.5012L4.36914 3.67484L4.51103 3.53296L54.337 53.3591Z" fill="#3747A3"/>
<path fill-rule="evenodd" clip-rule="evenodd" d="M54.2425 53.4536L54.1007 53.5957L4.27448 3.76949L4.41636 3.62761L54.2425 53.4536Z" fill="#3747A3"/>
<path fill-rule="evenodd" clip-rule="evenodd" d="M54.1479 53.5484L54.0062 53.6903L4.17981 3.86415L4.32169 3.72208L54.1479 53.5484Z" fill="#3947A3"/>
<path fill-rule="evenodd" clip-rule="evenodd" d="M54.0535 53.6431L53.9116 53.7848L4.08539 3.95861L4.22727 3.81673L54.0535 53.6431Z" fill="#3848A4"/>
<path fill-rule="evenodd" clip-rule="evenodd" d="M53.9588 53.7376L53.8169 53.8794L3.99072 4.05326L4.13261 3.91138L53.9588 53.7376Z" fill="#3A48A4"/>
<path fill-rule="evenodd" clip-rule="evenodd" d="M53.8643 53.8322L53.7224 53.9741L3.89606 4.14793L4.03794 4.00604L53.8643 53.8322Z" fill="#3A49A5"/>
<path fill-rule="evenodd" clip-rule="evenodd" d="M53.7696 53.9267L53.6276 54.0686L3.80139 4.24257L3.94327 4.10049L53.7696 53.9267Z" fill="#3A49A5"/>
<path fill-rule="evenodd" clip-rule="evenodd" d="M53.675 54.0213L53.533 54.1632L3.70697 4.33702L3.84885 4.19514L53.675 54.0213Z" fill="#3C49A5"/>
<path fill-rule="evenodd" clip-rule="evenodd" d="M53.5804 54.1158L53.4385 54.2579L3.6123 4.43168L3.75419 4.28979L53.5804 54.1158Z" fill="#3C49A5"/>
<path fill-rule="evenodd" clip-rule="evenodd" d="M53.4857 54.2104L53.3438 54.3525L3.51764 4.52615L3.65953 4.38446L53.4857 54.2104Z" fill="#3E4AA6"/>
<path fill-rule="evenodd" clip-rule="evenodd" d="M53.391 54.3053L53.2493 54.4472L3.42297 4.621L3.56486 4.47893L53.391 54.3053Z" fill="#3E4AA6"/>
<path fill-rule="evenodd" clip-rule="evenodd" d="M53.2966 54.3998L53.1547 54.5416L3.32855 4.71547L3.47043 4.57358L53.2966 54.3998Z" fill="#3D4CA7"/>
<path fill-rule="evenodd" clip-rule="evenodd" d="M53.2019 54.4944L53.0601 54.6363L3.23389 4.8101L3.37577 4.66821L53.2019 54.4944Z" fill="#3F4CA7"/>
<path fill-rule="evenodd" clip-rule="evenodd" d="M53.1075 54.589L52.9656 54.7309L3.13922 4.90475L3.2811 4.76287L53.1075 54.589Z" fill="#3F4CA7"/>
<path fill-rule="evenodd" clip-rule="evenodd" d="M53.0128 54.6835L52.8707 54.8254L3.04456 4.9994L3.18644 4.85733L53.0128 54.6835Z" fill="#414DA8"/>
<path fill-rule="evenodd" clip-rule="evenodd" d="M52.9182 54.7782L52.7761 54.92L2.95013 5.09387L3.09202 4.95198L52.9182 54.7782Z" fill="#414DA8"/>
<path fill-rule="evenodd" clip-rule="evenodd" d="M52.8235 54.8726L52.6816 55.0147L2.85547 5.18853L2.99735 5.04665L52.8235 54.8726Z" fill="#414DA8"/>
<path fill-rule="evenodd" clip-rule="evenodd" d="M52.7289 54.9673L52.587 55.1094L2.7608 5.28299L2.90269 5.1413L52.7289 54.9673Z" fill="#434DA8"/>
<path fill-rule="evenodd" clip-rule="evenodd" d="M52.6342 55.0621L52.4925 55.204L2.66632 5.37766L2.80801 5.23578L52.6342 55.0621Z" fill="#434EA9"/>
<path fill-rule="evenodd" clip-rule="evenodd" d="M52.5398 55.1566L52.3979 55.2985L2.57172 5.47228L2.7136 5.3304L52.5398 55.1566Z" fill="#434EA9"/>
<path fill-rule="evenodd" clip-rule="evenodd" d="M52.4451 55.2512L52.3034 55.3931L2.47705 5.56695L2.61893 5.42507L52.4451 55.2512Z" fill="#444FA9"/>
<path fill-rule="evenodd" clip-rule="evenodd" d="M52.3506 55.3459L52.2087 55.4876L2.38239 5.66142L2.52427 5.51954L52.3506 55.3459Z" fill="#444FA9"/>
<path fill-rule="evenodd" clip-rule="evenodd" d="M52.256 55.4404L52.1139 55.5822L2.28796 5.75607L2.42985 5.61419L52.256 55.4404Z" fill="#464FA9"/>
<path fill-rule="evenodd" clip-rule="evenodd" d="M52.1614 55.535L52.0195 55.6769L2.1933 5.85072L2.33519 5.70883L52.1614 55.535Z" fill="#4651AA"/>
<path fill-rule="evenodd" clip-rule="evenodd" d="M52.0666 55.6295L51.9247 55.7715L2.09857 5.94537L2.24046 5.80349L52.0666 55.6295Z" fill="#4651AA"/>
<path fill-rule="evenodd" clip-rule="evenodd" d="M51.972 55.7243L51.8301 55.8662L2.00397 6.03983L2.14585 5.89795L51.972 55.7243Z" fill="#4851AA"/>
<path fill-rule="evenodd" clip-rule="evenodd" d="M51.8776 55.8188L51.7357 55.9607L1.90955 6.13449L2.05124 5.99261L51.8776 55.8188Z" fill="#4852AB"/>
<path fill-rule="evenodd" clip-rule="evenodd" d="M51.7829 55.9134L51.6411 56.0553L1.81488 6.22913L1.95676 6.08725L51.7829 55.9134Z" fill="#4A52AB"/>
<path fill-rule="evenodd" clip-rule="evenodd" d="M51.6882 56.0081L51.5465 56.15L1.72015 6.32359L1.86204 6.1819L51.6882 56.0081Z" fill="#4A52AB"/>
<path fill-rule="evenodd" clip-rule="evenodd" d="M51.5938 56.1025L51.4519 56.2444L1.62555 6.41825L1.76744 6.27637L51.5938 56.1025Z" fill="#4954AC"/>
<path fill-rule="evenodd" clip-rule="evenodd" d="M51.4992 56.1972L51.3571 56.3391L1.53113 6.51291L1.67301 6.37102L51.4992 56.1972Z" fill="#4C53AC"/>
<path fill-rule="evenodd" clip-rule="evenodd" d="M51.4045 56.2918L51.2626 56.4337L1.43646 6.60755L1.57835 6.46567L51.4045 56.2918Z" fill="#4B55AD"/>
<path fill-rule="evenodd" clip-rule="evenodd" d="M51.3098 56.3863L51.1679 56.5284L1.34174 6.70222L1.48362 6.56034L51.3098 56.3863Z" fill="#4D55AD"/>
<path fill-rule="evenodd" clip-rule="evenodd" d="M51.2152 56.4811L51.0733 56.623L1.24713 6.79667L1.38902 6.65479L51.2152 56.4811Z" fill="#4D55AD"/>
<path fill-rule="evenodd" clip-rule="evenodd" d="M51.1207 56.5756L50.9788 56.7175L1.15265 6.89133L1.29453 6.74944L51.1207 56.5756Z" fill="#4D55AD"/>
<path fill-rule="evenodd" clip-rule="evenodd" d="M51.0261 56.6703L50.8842 56.8122L1.05804 6.98599L1.19993 6.8441L51.0261 56.6703Z" fill="#4F56AE"/>
<path fill-rule="evenodd" clip-rule="evenodd" d="M50.9314 56.7649L50.7897 56.9068L0.963318 7.08044L1.1052 6.93876L50.9314 56.7649Z" fill="#4F56AE"/>
<path fill-rule="evenodd" clip-rule="evenodd" d="M50.837 56.8594L50.6951 57.0013L0.868713 7.17509L1.0106 7.03321L50.837 56.8594Z" fill="#5158AF"/>
<path fill-rule="evenodd" clip-rule="evenodd" d="M50.7423 56.954L50.6002 57.0959L0.774231 7.26975L0.916118 7.12787L50.7423 56.954Z" fill="#5158AF"/>
<path fill-rule="evenodd" clip-rule="evenodd" d="M50.6477 57.0487L50.5058 57.1906L0.679626 7.36441L0.821509 7.22252L50.6477 57.0487Z" fill="#5158AF"/>
<path fill-rule="evenodd" clip-rule="evenodd" d="M50.553 57.1432L50.4111 57.2852L0.5849 7.45887L0.726974 7.31699L50.553 57.1432Z" fill="#5359B0"/>
<path fill-rule="evenodd" clip-rule="evenodd" d="M50.4585 57.238L50.3167 57.3799L0.490295 7.55354L0.632178 7.41165L50.4585 57.238Z" fill="#535AB2"/>
<path fill-rule="evenodd" clip-rule="evenodd" d="M50.3639 57.3325L50.222 57.4743L0.395813 7.64817L0.5377 7.50629L50.3639 57.3325Z" fill="#535AB2"/>
<path fill-rule="evenodd" clip-rule="evenodd" d="M50.2693 57.4271L50.1274 57.569L0.301208 7.74284L0.443096 7.60096L50.2693 57.4271Z" fill="#555CB3"/>
<path fill-rule="evenodd" clip-rule="evenodd" d="M50.1747 57.5216L50.0328 57.6635L0.206482 7.83748L0.348365 7.69559L50.1747 57.5216Z" fill="#555CB3"/>
<path fill-rule="evenodd" clip-rule="evenodd" d="M50.0801 57.6162L49.9382 57.7581L0.111816 7.93193L0.253699 7.79005L50.0801 57.6162Z" fill="#575BB3"/>
<path fill-rule="evenodd" clip-rule="evenodd" d="M49.9855 57.7109L49.8434 57.8528L0.017395 8.02659L0.159278 7.8847L49.9855 57.7109Z" fill="#575DB4"/>
<path fill-rule="evenodd" clip-rule="evenodd" d="M49.8909 57.8054L49.749 57.9472L-0.0772095 8.12125L0.0646778 7.97937L49.8909 57.8054Z" fill="#575DB4"/>
<path fill-rule="evenodd" clip-rule="evenodd" d="M49.7961 57.9L49.6542 58.0421L-0.171936 8.21572L-0.0298574 8.07384L49.7961 57.9Z" fill="#595DB4"/>
<path fill-rule="evenodd" clip-rule="evenodd" d="M49.7015 57.9948L49.5598 58.1367L-0.266357 8.31036L-0.124475 8.16847L49.7015 57.9948Z" fill="#595FB5"/>
<path fill-rule="evenodd" clip-rule="evenodd" d="M49.607 58.0893L49.4652 58.2312L-0.361023 8.40501L-0.21914 8.26312L49.607 58.0893Z" fill="#5B5FB5"/>
<path fill-rule="evenodd" clip-rule="evenodd" d="M49.5124 58.1839L49.3707 58.3258L-0.455627 8.49966L-0.313745 8.35778L49.5124 58.1839Z" fill="#5B5FB5"/>
<path fill-rule="evenodd" clip-rule="evenodd" d="M49.4179 58.2784L49.276 58.4203L-0.550354 8.59413L-0.408275 8.45224L49.4179 58.2784Z" fill="#5B60B6"/>
<path fill-rule="evenodd" clip-rule="evenodd" d="M49.3233 58.3731L49.1814 58.515L-0.644958 8.68878L-0.503071 8.54689L49.3233 58.3731Z" fill="#5D60B6"/>
<path fill-rule="evenodd" clip-rule="evenodd" d="M49.2288 58.4677L49.0867 58.6094L-0.739441 8.78344L-0.597558 8.64156L49.2288 58.4677Z" fill="#5D60B6"/>
<path fill-rule="evenodd" clip-rule="evenodd" d="M49.134 58.5622L48.9921 58.7041L-0.834045 8.87809L-0.692163 8.73621L49.134 58.5622Z" fill="#5F62B7"/>
<path fill-rule="evenodd" clip-rule="evenodd" d="M49.0393 58.6568L48.8974 58.7989L-0.928772 8.97256L-0.786698 8.83067L49.0393 58.6568Z" fill="#5F62B7"/>
<path fill-rule="evenodd" clip-rule="evenodd" d="M48.9448 58.7515L48.8029 58.8934L-1.02325 9.06719L-0.881367 8.92531L48.9448 58.7515Z" fill="#5F64B8"/>
<path fill-rule="evenodd" clip-rule="evenodd" d="M48.8502 58.8462L48.7083 58.988L-1.11786 9.16187L-0.975976 9.01979L48.8502 58.8462Z" fill="#6164B8"/>
<path fill-rule="evenodd" clip-rule="evenodd" d="M48.7555 58.9408L48.6138 59.0827L-1.21252 9.25652L-1.07064 9.11462L48.7555 58.9408Z" fill="#6164B8"/>
<path fill-rule="evenodd" clip-rule="evenodd" d="M48.6611 59.0353L48.5192 59.1772L-1.30719 9.35098L-1.16512 9.2091L48.6611 59.0353Z" fill="#6364B8"/>
<path fill-rule="evenodd" clip-rule="evenodd" d="M48.5664 59.1299L48.4245 59.2718L-1.40167 9.44561L-1.25979 9.30373L48.5664 59.1299Z" fill="#6365B9"/>
<path fill-rule="evenodd" clip-rule="evenodd" d="M48.4719 59.2246L48.3298 59.3665L-1.49634 9.54028L-1.35445 9.3984L48.4719 59.2246Z" fill="#6365B9"/>
<path fill-rule="evenodd" clip-rule="evenodd" d="M48.3771 59.319L48.2352 59.4609L-1.59094 9.63494L-1.44906 9.49305L48.3771 59.319Z" fill="#6567BA"/>
<path fill-rule="evenodd" clip-rule="evenodd" d="M48.2825 59.4137L48.1406 59.5558L-1.68561 9.72941L-1.54353 9.58752L48.2825 59.4137Z" fill="#6567BA"/>
<path fill-rule="evenodd" clip-rule="evenodd" d="M48.188 59.5083L48.0461 59.6502L-1.78003 9.82404L-1.63815 9.68216L48.188 59.5083Z" fill="#6767BA"/>
<path fill-rule="evenodd" clip-rule="evenodd" d="M48.0933 59.603L47.9514 59.7449L-1.87476 9.9187L-1.73287 9.77663L48.0933 59.603Z" fill="#6669BB"/>
<path fill-rule="evenodd" clip-rule="evenodd" d="M47.9987 59.6976L47.857 59.8395L-1.96936 10.0132L-1.82747 9.87128L47.9987 59.6976Z" fill="#6669BB"/>
<path fill-rule="evenodd" clip-rule="evenodd" d="M47.9042 59.7921L47.7623 59.934L-2.06403 10.1078L-1.92195 9.96593L47.9042 59.7921Z" fill="#6969BB"/>
<path fill-rule="evenodd" clip-rule="evenodd" d="M47.8096 59.8868L47.6677 60.0286L-2.15845 10.2025L-2.01656 10.0606L47.8096 59.8868Z" fill="#686BBC"/>
<path fill-rule="evenodd" clip-rule="evenodd" d="M47.7152 59.9814L47.5731 60.1233L-2.25305 10.2971L-2.11117 10.155L47.7152 59.9814Z" fill="#686BBC"/>
<path fill-rule="evenodd" clip-rule="evenodd" d="M47.6203 60.0759L47.5774 60.1189L-2.24854 10.2925L-2.20589 10.2499L47.6203 60.0759Z" fill="#6A6BBC"/>
</g>
<mask id="mask1_804_400" style="mask-type:alpha" maskUnits="userSpaceOnUse" x="33" y="1" width="24" height="18">
<path d="M33.7316 1.66053L33.7318 10.2996H42.5731C45.3953 10.2996 47.7003 12.6045 47.7003 15.4269V18.1644H56.3395V10.0787C56.3395 5.44302 52.557 1.66053 47.9213 1.66053H33.7316Z" fill="white"/>
</mask>
<g mask="url(#mask1_804_400)">
<path fill-rule="evenodd" clip-rule="evenodd" d="M62.7002 11.8037L56.5415 17.9627L36.9854 -1.59341L43.1443 -7.75237L62.7002 11.8037Z" fill="#131723"/>
<path fill-rule="evenodd" clip-rule="evenodd" d="M56.6015 17.9024L56.4208 18.0831L36.8649 -1.47296L37.0458 -1.65365L56.6015 17.9024Z" fill="#131823"/>
<path fill-rule="evenodd" clip-rule="evenodd" d="M56.481 18.0229L56.3003 18.2036L36.7444 -1.3523L36.9251 -1.5332L56.481 18.0229Z" fill="#131824"/>
<path fill-rule="evenodd" clip-rule="evenodd" d="M56.3606 18.1434L56.1799 18.3241L36.624 -1.23182L36.8047 -1.41272L56.3606 18.1434Z" fill="#141925"/>
<path fill-rule="evenodd" clip-rule="evenodd" d="M56.2401 18.2638L56.0592 18.4445L36.5033 -1.11137L36.6842 -1.29207L56.2401 18.2638Z" fill="#141925"/>
<path fill-rule="evenodd" clip-rule="evenodd" d="M56.1196 18.3845L55.9387 18.5652L36.3828 -0.990913L36.5635 -1.17161L56.1196 18.3845Z" fill="#151A26"/>
<path fill-rule="evenodd" clip-rule="evenodd" d="M55.9991 18.5048L55.8184 18.6857L36.2623 -0.870234L36.443 -1.05112L55.9991 18.5048Z" fill="#161A26"/>
<path fill-rule="evenodd" clip-rule="evenodd" d="M55.8785 18.6254L55.698 18.8061L36.1419 -0.749769L36.3224 -0.930475L55.8785 18.6254Z" fill="#161A26"/>
<path fill-rule="evenodd" clip-rule="evenodd" d="M55.758 18.7459L55.5773 18.9266L36.0212 -0.629311L36.2021 -0.810007L55.758 18.7459Z" fill="#161A27"/>
<path fill-rule="evenodd" clip-rule="evenodd" d="M55.6376 18.8664L55.4569 19.0471L35.9008 -0.508833L36.0816 -0.689539L55.6376 18.8664Z" fill="#171B28"/>
<path fill-rule="evenodd" clip-rule="evenodd" d="M55.5169 18.9868L55.3362 19.1677L35.7803 -0.388365L35.9612 -0.569069L55.5169 18.9868Z" fill="#171B28"/>
<path fill-rule="evenodd" clip-rule="evenodd" d="M55.3965 19.1075L55.2158 19.2882L35.6599 -0.267712L35.8406 -0.448605L55.3965 19.1075Z" fill="#181C28"/>
<path fill-rule="evenodd" clip-rule="evenodd" d="M55.2762 19.228L55.0953 19.4087L35.5394 -0.14724L35.7201 -0.327936L55.2762 19.228Z" fill="#181C29"/>
<path fill-rule="evenodd" clip-rule="evenodd" d="M55.1555 19.3484L54.9746 19.5291L35.4189 -0.0267773L35.5996 -0.207483L55.1555 19.3484Z" fill="#181C29"/>
<path fill-rule="evenodd" clip-rule="evenodd" d="M55.035 19.4689L54.8543 19.6498L35.2982 0.0938778L35.4789 -0.0870132L55.035 19.4689Z" fill="#191D2A"/>
<path fill-rule="evenodd" clip-rule="evenodd" d="M54.9146 19.5896L54.7339 19.7702L35.1778 0.214344L35.3585 0.0334511L54.9146 19.5896Z" fill="#191D2A"/>
<path fill-rule="evenodd" clip-rule="evenodd" d="M54.7939 19.71L54.6132 19.8907L35.0571 0.334816L35.2382 0.154119L54.7939 19.71Z" fill="#1A1E2B"/>
<path fill-rule="evenodd" clip-rule="evenodd" d="M54.6734 19.8305L54.4927 20.0112L34.9366 0.455294L35.1175 0.274588L54.6734 19.8305Z" fill="#1A1E2B"/>
<path fill-rule="evenodd" clip-rule="evenodd" d="M54.5528 19.951L54.3721 20.1319L34.8163 0.575762L34.9971 0.395058L54.5528 19.951Z" fill="#1B1E2C"/>
<path fill-rule="evenodd" clip-rule="evenodd" d="M54.4324 20.0714L54.2517 20.2523L34.6957 0.696417L34.8764 0.515526L54.4324 20.0714Z" fill="#1B1F2D"/>
<path fill-rule="evenodd" clip-rule="evenodd" d="M54.3121 20.1921L54.1312 20.3728L34.5753 0.816698L34.756 0.635994L54.3121 20.1921Z" fill="#1C202D"/>
<path fill-rule="evenodd" clip-rule="evenodd" d="M54.1914 20.3126L54.0105 20.4933L34.4548 0.937349L34.6355 0.756643L54.1914 20.3126Z" fill="#1C202D"/>
<path fill-rule="evenodd" clip-rule="evenodd" d="M54.0709 20.433L53.8902 20.6139L34.3341 1.05782L34.5148 0.877125L54.0709 20.433Z" fill="#1C202D"/>
<path fill-rule="evenodd" clip-rule="evenodd" d="M53.9505 20.5535L53.7698 20.7344L34.2137 1.17847L34.3944 0.997581L53.9505 20.5535Z" fill="#1E202E"/>
<path fill-rule="evenodd" clip-rule="evenodd" d="M53.8298 20.6742L53.6491 20.8549L34.093 1.29894L34.2741 1.11805L53.8298 20.6742Z" fill="#1D212F"/>
<path fill-rule="evenodd" clip-rule="evenodd" d="M53.7093 20.7946L53.5286 20.9753L33.9725 1.41942L34.1534 1.23871L53.7093 20.7946Z" fill="#1D212F"/>
<path fill-rule="evenodd" clip-rule="evenodd" d="M53.5889 20.9151L53.4082 21.0958L33.8523 1.53988L34.033 1.35918L53.5889 20.9151Z" fill="#1F2230"/>
<path fill-rule="evenodd" clip-rule="evenodd" d="M53.4684 21.0356L53.2875 21.2165L33.7318 1.66036L33.9124 1.47965L53.4684 21.0356Z" fill="#1F2231"/>
<path fill-rule="evenodd" clip-rule="evenodd" d="M53.3479 21.1562L53.167 21.3369L33.6111 1.78081L33.7918 1.60011L53.3479 21.1562Z" fill="#1F2231"/>
<path fill-rule="evenodd" clip-rule="evenodd" d="M53.2275 21.2767L53.0466 21.4574L33.4907 1.90147L33.6714 1.72076L53.2275 21.2767Z" fill="#202231"/>
<path fill-rule="evenodd" clip-rule="evenodd" d="M53.1069 21.3972L52.9261 21.5779L33.3702 2.02195L33.5509 1.84106L53.1069 21.3972Z" fill="#212332"/>
<path fill-rule="evenodd" clip-rule="evenodd" d="M52.9863 21.5176L52.8056 21.6985L33.2495 2.1426L33.4302 1.96171L52.9863 21.5176Z" fill="#212433"/>
<path fill-rule="evenodd" clip-rule="evenodd" d="M52.8658 21.6383L52.6851 21.819L33.129 2.26288L33.3099 2.08219L52.8658 21.6383Z" fill="#212433"/>
<path fill-rule="evenodd" clip-rule="evenodd" d="M52.7452 21.7587L52.5645 21.9395L33.0086 2.38335L33.1893 2.20283L52.7452 21.7587Z" fill="#212533"/>
<path fill-rule="evenodd" clip-rule="evenodd" d="M52.6247 21.8792L52.444 22.0599L32.8881 2.50401L33.0688 2.32331L52.6247 21.8792Z" fill="#222534"/>
<path fill-rule="evenodd" clip-rule="evenodd" d="M52.5043 21.9997L52.3234 22.1806L32.7677 2.62447L32.9484 2.44376L52.5043 21.9997Z" fill="#232534"/>
<path fill-rule="evenodd" clip-rule="evenodd" d="M52.3838 22.1202L52.2029 22.3009L32.647 2.74494L32.8277 2.56425L52.3838 22.1202Z" fill="#232535"/>
<path fill-rule="evenodd" clip-rule="evenodd" d="M52.2634 22.2408L52.0825 22.4215L32.5266 2.8654L32.7073 2.6847L52.2634 22.2408Z" fill="#252736"/>
<path fill-rule="evenodd" clip-rule="evenodd" d="M52.1427 22.3613L51.962 22.542L32.4061 2.98606L32.5868 2.80517L52.1427 22.3613Z" fill="#252736"/>
<path fill-rule="evenodd" clip-rule="evenodd" d="M52.0222 22.4818L51.8415 22.6626L32.2854 3.10654L32.4661 2.92583L52.0222 22.4818Z" fill="#252736"/>
<path fill-rule="evenodd" clip-rule="evenodd" d="M51.9017 22.6022L51.721 22.7829L32.1649 3.227L32.3458 3.0463L51.9017 22.6022Z" fill="#262837"/>
<path fill-rule="evenodd" clip-rule="evenodd" d="M51.781 22.7229L51.6003 22.9036L32.0444 3.34748L32.2251 3.16697L51.781 22.7229Z" fill="#262938"/>
<path fill-rule="evenodd" clip-rule="evenodd" d="M51.6606 22.8434L51.4799 23.024L31.924 3.46814L32.1047 3.28724L51.6606 22.8434Z" fill="#262938"/>
<path fill-rule="evenodd" clip-rule="evenodd" d="M51.5401 22.9638L51.3594 23.1445L31.8035 3.5886L31.9842 3.40789L51.5401 22.9638Z" fill="#262938"/>
<path fill-rule="evenodd" clip-rule="evenodd" d="M51.4199 23.0843L51.239 23.265L31.683 3.70907L31.8637 3.52837L51.4199 23.0843Z" fill="#282A3A"/>
<path fill-rule="evenodd" clip-rule="evenodd" d="M51.2992 23.2049L51.1184 23.3856L31.5624 3.82953L31.7431 3.64883L51.2992 23.2049Z" fill="#282A3A"/>
<path fill-rule="evenodd" clip-rule="evenodd" d="M51.1788 23.3252L50.9981 23.5061L31.442 3.9502L31.6227 3.76931L51.1788 23.3252Z" fill="#292A3A"/>
<path fill-rule="evenodd" clip-rule="evenodd" d="M51.0581 23.4459L50.8774 23.6266L31.3215 4.07065L31.5022 3.88976L51.0581 23.4459Z" fill="#292A3A"/>
<path fill-rule="evenodd" clip-rule="evenodd" d="M50.9376 23.5663L50.7569 23.747L31.2008 4.19112L31.3817 4.01043L50.9376 23.5663Z" fill="#2A2C3C"/>
<path fill-rule="evenodd" clip-rule="evenodd" d="M50.8171 23.6868L50.6364 23.8677L31.0803 4.31159L31.2612 4.13088L50.8171 23.6868Z" fill="#2B2C3C"/>
<path fill-rule="evenodd" clip-rule="evenodd" d="M50.6965 23.8073L50.5158 23.9882L30.9598 4.43225L31.1407 4.25136L50.6965 23.8073Z" fill="#2A2D3C"/>
<path fill-rule="evenodd" clip-rule="evenodd" d="M50.576 23.9279L50.3953 24.1086L30.8394 4.55271L31.0201 4.37182L50.576 23.9279Z" fill="#2C2E3E"/>
<path fill-rule="evenodd" clip-rule="evenodd" d="M50.4557 24.0484L50.2748 24.2291L30.7189 4.6732L30.8996 4.4925L50.4557 24.0484Z" fill="#2C2E3E"/>
<path fill-rule="evenodd" clip-rule="evenodd" d="M50.3351 24.1689L50.1542 24.3496L30.5983 4.79365L30.779 4.61294L50.3351 24.1689Z" fill="#2C2E3E"/>
<path fill-rule="evenodd" clip-rule="evenodd" d="M50.2146 24.2893L50.0339 24.4702L30.4778 4.91413L30.6585 4.73343L50.2146 24.2893Z" fill="#2C2E3F"/>
<path fill-rule="evenodd" clip-rule="evenodd" d="M50.0941 24.41L49.9132 24.5907L30.3573 5.03477L30.538 4.85387L50.0941 24.41Z" fill="#2E2F40"/>
<path fill-rule="evenodd" clip-rule="evenodd" d="M49.9735 24.5305L49.7928 24.7112L30.2367 5.15526L30.4176 4.97455L49.9735 24.5305Z" fill="#2E2F40"/>
<path fill-rule="evenodd" clip-rule="evenodd" d="M49.853 24.6509L49.6723 24.8316L30.1162 5.27572L30.2971 5.09501L49.853 24.6509Z" fill="#303141"/>
<path fill-rule="evenodd" clip-rule="evenodd" d="M49.7323 24.7714L49.5516 24.9523L29.9959 5.39638L30.1766 5.21549L49.7323 24.7714Z" fill="#303142"/>
<path fill-rule="evenodd" clip-rule="evenodd" d="M49.6119 24.892L49.4312 25.0728L29.8752 5.51684L30.0559 5.33595L49.6119 24.892Z" fill="#303142"/>
<path fill-rule="evenodd" clip-rule="evenodd" d="M49.4916 25.0125L49.3107 25.1932L29.7548 5.63712L29.9355 5.45642L49.4916 25.0125Z" fill="#313242"/>
<path fill-rule="evenodd" clip-rule="evenodd" d="M49.371 25.133L49.1903 25.3137L29.6343 5.75777L29.8148 5.57707L49.371 25.133Z" fill="#313242"/>
<path fill-rule="evenodd" clip-rule="evenodd" d="M49.2505 25.2534L49.0698 25.4343L29.5137 5.87823L29.6944 5.69753L49.2505 25.2534Z" fill="#323344"/>
<path fill-rule="evenodd" clip-rule="evenodd" d="M49.13 25.3739L48.9493 25.5548L29.3932 5.99889L29.5739 5.818L49.13 25.3739Z" fill="#333444"/>
<path fill-rule="evenodd" clip-rule="evenodd" d="M49.0093 25.4946L48.9678 25.5359L29.4121 5.97998L29.4536 5.93849L49.0093 25.4946Z" fill="#333444"/>
</g>
</svg>
