<svg width="13" height="15" viewBox="0 0 13 15" fill="none" xmlns="http://www.w3.org/2000/svg">
<path d="M8.96606 14.41V9.01259L8.09058 8.60248L7.85296 7.34045H4.75654L4.51892 8.60248L3.67166 8.99938V14.41H8.96606Z" fill="#E2B48A"/>
<path d="M12.6095 15L12.3833 12.1088C12.3465 11.6376 12.1854 11.1845 11.9165 10.7958C11.6475 10.4072 11.2804 10.0967 10.8524 9.89617L8.42261 8.75784V9.46094H8.1457V9.82998H4.06964V8.81296L1.75714 9.89617C1.32908 10.0967 0.961827 10.4071 0.692823 10.7958C0.42382 11.1845 0.262682 11.6375 0.225833 12.1088L0 15H12.6095Z" fill="#BAC2D3"/>
<path d="M6.6663 9.8381H5.50249L5.28082 10.3549L5.9488 11.205L5.56047 13.0691L6.30415 14.6804L7.13737 12.9473L6.78832 11.1702L7.31725 10.3006L6.6663 9.8381Z" fill="#DA2A47"/>
<path d="M12.3834 12.1088C12.3466 11.6376 12.1855 11.1845 11.9165 10.7959C11.6476 10.4072 11.2804 10.0967 10.8524 9.8962L8.63808 8.85858C8.45749 9.88691 8.02868 10.8293 7.56273 11.7574C7.34666 12.1879 7.14416 12.6168 6.95356 13.0582C6.84725 13.3029 6.30475 14.7323 6.30475 14.7323C6.30475 14.7323 5.42523 12.543 5.26511 12.128C5.04809 11.5651 4.88106 10.9794 4.59345 10.4469C4.54416 10.3556 4.49214 10.2658 4.43868 10.1767C3.9494 9.98453 3.69785 9.56953 3.70714 8.98251L1.75714 9.8962C1.32908 10.0967 0.961827 10.4071 0.692823 10.7958C0.42382 11.1845 0.262682 11.6376 0.225833 12.1088L0 15H12.6095L12.3834 12.1088Z" fill="#707583"/>
<path d="M12.3834 12.1088C12.3466 11.6376 12.1855 11.1845 11.9165 10.7959C11.6476 10.4072 11.2804 10.0967 10.8524 9.8962L8.63808 8.85858C8.45749 9.88691 8.02868 10.8293 7.56273 11.7574C7.34666 12.1879 7.14416 12.6168 6.95356 13.0582C6.84725 13.3029 6.30475 14.7323 6.30475 14.7323C6.30475 14.7323 5.42523 12.543 5.26511 12.128C5.04809 11.5651 4.88106 10.9794 4.59345 10.4469C4.54416 10.3556 4.49214 10.2658 4.43868 10.1767C3.9494 9.98453 3.69785 9.56953 3.70714 8.98251L1.75714 9.8962C1.32908 10.0967 0.961827 10.4071 0.692823 10.7958C0.42382 11.1845 0.262682 11.6376 0.225833 12.1088L0 15H12.6095L12.3834 12.1088Z" fill="#384868"/>
<path d="M12.6095 15H10.9023L10.6761 12.1083C10.639 11.6372 10.4776 11.1842 10.2084 10.7957C9.93932 10.4072 9.57204 10.0969 9.14401 9.89643L8.46901 9.57976C8.53783 9.34247 8.59386 9.10164 8.63687 8.85834L10.8523 9.89643C11.2802 10.0969 11.6473 10.4073 11.9162 10.7958C12.1852 11.1844 12.3463 11.6372 12.3833 12.1083L12.6095 15Z" fill="#2F3A5A"/>
<path d="M9.67964 5.71053C9.80601 5.17069 9.66358 4.67573 9.36151 4.60502C9.05944 4.53431 8.71212 4.91462 8.58575 5.45447C8.45938 5.99431 8.60181 6.48927 8.90388 6.55998C9.20595 6.63069 9.55327 6.25038 9.67964 5.71053Z" fill="#E2B48A"/>
<path d="M3.6873 6.56429C3.98937 6.49358 4.1318 5.99862 4.00543 5.45878C3.87906 4.91893 3.53174 4.53862 3.22967 4.60933C2.9276 4.68004 2.78517 5.175 2.91154 5.71484C3.03791 6.25469 3.38523 6.635 3.6873 6.56429Z" fill="#E2B48A"/>
<path d="M6.29322 8.42156C7.85993 8.42156 9.13 6.67105 9.13 4.51168C9.13 2.35232 7.85993 0.601807 6.29322 0.601807C4.72651 0.601807 3.45644 2.35232 3.45644 4.51168C3.45644 6.67105 4.72651 8.42156 6.29322 8.42156Z" fill="#F0C191"/>
<path d="M8.95201 5.86045C8.95201 5.86045 9.9538 4.07058 9.73677 2.65105C9.51975 1.23153 8.56344 0.783438 7.99523 0.783438C7.99523 0.783438 7.22833 -0.352156 5.33321 0.111058C3.43809 0.574271 2.67607 2.65534 3.03464 3.9682C3.39321 5.28105 3.63226 5.88414 3.63226 5.88414C3.63226 5.88414 3.39321 4.20558 3.66214 3.27879C3.93107 2.35201 4.73797 1.62022 5.05178 1.87403C5.36559 2.12784 7.36773 2.04367 7.69642 1.48117C8.12824 1.7976 8.41727 2.27208 8.50035 2.80093C8.60749 3.6526 9.08594 4.17558 9.04118 4.78807C8.99642 5.40057 8.95201 5.86045 8.95201 5.86045Z" fill="#2F3A5A"/>
<path d="M8.00891 8.16461L6.30475 9.82985L7.82594 10.8752L8.53784 8.80961L8.00891 8.16461Z" fill="#D9E2E9"/>
<path d="M4.07167 8.80961L4.84286 10.827L6.30476 9.82985L4.6006 8.16461L4.07167 8.80961Z" fill="#D9E2E9"/>
<path d="M8.98143 9.01974L8.00893 8.16462L8.00691 8.1626C8.00691 8.1626 7.98917 10.7174 6.30453 14.6803C4.61953 10.7174 4.60215 8.1626 4.60215 8.1626L4.60012 8.16462L3.62775 9.01974L3.45644 10.4653L4.26274 10.3364L3.6581 11.2531C4.0087 12.1071 6.30477 14.7738 6.30477 14.7738C6.66607 14.3749 8.655 12.0722 8.96464 11.3175L8.34619 10.3364L9.24869 10.3621L8.98143 9.01974Z" fill="#43567C"/>
</svg>
