<svg viewBox="0 0 33 39" fill="none" xmlns="http://www.w3.org/2000/svg">
<path d="M10.6211 38.6382C4.80827 38.6049 0 26.7383 0 20.6959C0 10.824 7.40512 8.66289 10.2591 8.66289C11.5452 8.66289 12.9185 9.16806 14.1298 9.61533C14.9769 9.92706 15.8529 10.2486 16.3402 10.2486C16.6318 10.2486 17.319 9.97511 17.9258 9.73485C19.2198 9.21981 20.8299 8.5791 22.705 8.5791C22.7083 8.5791 22.7128 8.5791 22.7161 8.5791C24.1162 8.5791 28.3613 8.88714 30.9136 12.7191L31.5114 13.6185L30.651 14.2666C29.4218 15.1944 27.1791 16.8861 27.1791 20.2375C27.1791 24.2062 29.719 25.7329 30.9392 26.4672C31.4779 26.7913 32.0354 27.1252 32.0354 27.8558C32.0354 28.3339 28.2273 38.5791 22.6971 38.5791C21.3439 38.5791 20.3874 38.1725 19.5437 37.8139C18.69 37.4504 17.9536 37.1375 16.7367 37.1375C16.1199 37.1375 15.3399 37.4295 14.5141 37.7387C13.3856 38.1601 12.1084 38.6382 10.6591 38.6382H10.6211Z" fill="#A3AAAE"/>
<path d="M23.2904 0C23.4345 5.19344 19.7206 8.79619 16.0111 8.56948C15.3999 4.42582 19.7202 0 23.2904 0Z" fill="#A3AAAE"/>
</svg>
