<svg width="11" height="13" viewBox="0 0 11 13" fill="none" xmlns="http://www.w3.org/2000/svg">
<path d="M10.9231 6.2999L5.16165 0.082531C5.11245 0.0295419 5.04574 -0.000131969 4.97624 5.03261e-07H0.262357C0.117725 -0.000290937 0.000270472 0.126035 4.06367e-07 0.282114C-0.000122351 0.357359 0.0275717 0.429557 0.0769447 0.482705L5.65346 6.50001L0.0769447 12.5173C-0.0254594 12.6275 -0.0256558 12.8065 0.0764782 12.917C0.125728 12.9702 0.192631 13.0001 0.262357 13H4.97624C5.04574 13.0001 5.11245 12.9705 5.16165 12.9175L10.9231 6.70007C11.0255 6.58986 11.0257 6.41091 10.9235 6.3004C10.9234 6.30024 10.9232 6.30009 10.9231 6.2999Z" fill="#100F0D"/>
</svg>
