<svg width="107" height="32" viewBox="0 0 107 32" fill="none" xmlns="http://www.w3.org/2000/svg">
<path d="M31.1464 10.1463C31.3329 9.08861 31.554 7.83501 31.554 7.83501C32.3171 3.5078 29.9125 0 23.1417 0H3.00625C2.57533 0 2.16062 0.352575 2.08463 0.783502L1.94648 1.567C1.87049 1.99792 2.11258 2.48141 2.48452 2.64142L7.05131 4.60644L6.06926 10.1756H15.4712L16.1603 6.26799H20.8612C21.7266 6.26799 22.3045 6.96955 22.152 7.83501L21.7393 10.1756C21.5866 11.0411 20.7614 11.7426 19.8959 11.7426H15.7971H15.195H5.79293H1.18234C0.680036 11.7426 0.196618 12.1537 0.108004 12.656L0.0156294 13.1798C-0.0729061 13.6821 0.223804 14.2186 0.67518 14.3719L13.9369 18.8772L18.4427 20.4079C19.2204 20.672 19.727 21.5875 19.5743 22.453L19.3888 23.505C19.2363 24.3705 18.411 25.072 17.5456 25.072H12.8447L13.6468 20.5227L4.73715 17.4959L1.94562 31.34H17.6156C24.4597 31.34 27.9255 28.4133 28.562 24.8031C28.562 24.8031 28.7151 23.9359 28.9549 22.5757C29.6992 18.3535 28.0072 17.7006 27.2931 17.3743C26.7378 17.1206 25.1161 16.2876 25.1161 16.2876L25.1299 16.2093C25.1299 16.2093 30.3211 14.8277 31.1464 10.1463Z" fill="url(#paint0_linear_2_273)"/>
<path d="M47.2699 10.8314C47.9578 11.1372 48.4852 11.5652 48.8521 12.1156C49.2343 12.6506 49.4254 13.2851 49.4254 14.0189C49.4254 15.6853 48.7451 16.9542 47.3845 17.8256C46.0239 18.6817 44.2505 19.1097 42.0644 19.1097H33.2357L36.4461 3.05756H44.5639C46.3679 3.05756 47.7438 3.38624 48.6916 4.04362C49.6548 4.68571 50.1363 5.61062 50.1363 6.81835C50.1363 7.75091 49.8841 8.56116 49.3796 9.24911C48.8751 9.92178 48.1718 10.4492 47.2699 10.8314ZM40.2757 6.33679L39.6565 9.43257H42.9128C43.7231 9.43257 44.3346 9.27969 44.7474 8.97393C45.1754 8.65289 45.3895 8.19426 45.3895 7.59803C45.3895 6.7572 44.755 6.33679 43.4861 6.33679H40.2757ZM42.3166 15.8305C43.1269 15.8305 43.7613 15.67 44.2199 15.3489C44.6786 15.0279 44.9079 14.554 44.9079 13.9272C44.9079 13.4685 44.7397 13.1322 44.4034 12.9182C44.0671 12.6889 43.6084 12.5742 43.0275 12.5742H39.0144L38.3724 15.8305H42.3166ZM59.5282 19.4308C57.9077 19.4308 56.4936 19.1327 55.2858 18.5365C54.0934 17.9402 53.1685 17.107 52.5111 16.0369C51.869 14.9667 51.548 13.7437 51.548 12.3678C51.548 10.5333 51.9684 8.88221 52.8092 7.41458C53.6653 5.94695 54.8501 4.80036 56.3636 3.97482C57.8924 3.14928 59.6276 2.73651 61.5691 2.73651C63.1896 2.73651 64.5961 3.03462 65.7885 3.63085C66.9963 4.22707 67.9212 5.06026 68.5633 6.1304C69.2206 7.20055 69.5493 8.42357 69.5493 9.79947C69.5493 11.634 69.1213 13.2851 68.2652 14.7527C67.4243 16.2203 66.2395 17.3669 64.7108 18.1925C63.1973 19.018 61.4697 19.4308 59.5282 19.4308ZM59.918 15.67C60.927 15.67 61.8137 15.4177 62.5781 14.9132C63.3425 14.4087 63.9311 13.7361 64.3438 12.8953C64.7566 12.0391 64.963 11.0989 64.963 10.0747C64.963 8.98922 64.6267 8.12546 63.954 7.48337C63.2966 6.826 62.3717 6.49731 61.1793 6.49731C60.1703 6.49731 59.2836 6.74956 58.5192 7.25406C57.7548 7.75855 57.1662 8.43886 56.7535 9.29498C56.3407 10.1358 56.1343 11.0684 56.1343 12.0926C56.1343 13.1781 56.463 14.0495 57.1204 14.7069C57.793 15.3489 58.7256 15.67 59.918 15.67ZM88.7134 3.05756L85.5029 19.1097H81.7651L76.4678 10.304L74.7021 19.1097H70.2533L73.4638 3.05756H77.2016L82.5218 11.8404L84.2646 3.05756H88.7134ZM91.9391 3.05756H98.9103C100.561 3.05756 101.991 3.33274 103.199 3.8831C104.406 4.41817 105.331 5.19785 105.973 6.22213C106.631 7.23112 106.959 8.42357 106.959 9.79947C106.959 11.6646 106.531 13.3004 105.675 14.7069C104.834 16.1133 103.657 17.1988 102.144 17.9632C100.63 18.7275 98.895 19.1097 96.9382 19.1097H88.7286L91.9391 3.05756ZM97.0758 15.4865C98.1765 15.4865 99.1243 15.2572 99.9193 14.7986C100.73 14.3247 101.341 13.6826 101.754 12.8723C102.167 12.0468 102.373 11.1142 102.373 10.0747C102.373 8.98922 102.037 8.15604 101.364 7.5751C100.691 6.97888 99.7053 6.68076 98.4058 6.68076H95.7457L94.0029 15.4865H97.0758Z" fill="#464B4E"/>
<path d="M33.3656 29.0468L34.7033 22.3584H35.4772L37.4837 27.4225L37.0729 27.4129L40.9999 22.3584H41.8217L40.484 29.0468H39.5667L40.6273 23.7725L40.8662 23.7916L37.3786 28.2346H36.9391L35.1333 23.7725L35.3339 23.8012L34.2829 29.0468H33.3656ZM44.5933 29.1041C44.1666 29.1041 43.7844 29.0181 43.4468 28.8462C43.1091 28.6679 42.8416 28.4162 42.6441 28.0913C42.4531 27.7665 42.3575 27.3747 42.3575 26.9161C42.3575 26.4829 42.4276 26.0848 42.5677 25.7217C42.7143 25.3586 42.9149 25.0433 43.1697 24.7758C43.4309 24.5082 43.7367 24.3013 44.0869 24.1547C44.4372 24.0081 44.8164 23.935 45.224 23.935C45.6635 23.935 46.0361 24.0114 46.3419 24.1643C46.6476 24.3171 46.8833 24.5432 47.0489 24.8427C47.2146 25.1356 47.2974 25.4956 47.2974 25.9224C47.2974 26.5467 47.189 27.1009 46.9725 27.5849C46.756 28.0627 46.4437 28.4353 46.0361 28.7028C45.6348 28.9704 45.1538 29.1041 44.5933 29.1041ZM44.794 28.3015C45.1762 28.3015 45.5169 28.2092 45.8164 28.0244C46.1158 27.8396 46.3482 27.5882 46.5139 27.2696C46.6859 26.9447 46.7719 26.5753 46.7719 26.1612C46.7719 25.7154 46.6413 25.3682 46.3801 25.1198C46.1189 24.865 45.7462 24.7376 45.2622 24.7376C44.8863 24.7376 44.5488 24.8299 44.2494 25.0147C43.9499 25.1929 43.7143 25.4446 43.5423 25.7695C43.3703 26.088 43.2843 26.4574 43.2843 26.8779C43.2843 27.3174 43.4148 27.6646 43.6761 27.9193C43.9373 28.1741 44.3099 28.3015 44.794 28.3015ZM46.2559 29.0468L46.5234 27.7378L46.8292 26.5625L46.9534 25.3586L47.2209 23.9827H48.1382L47.1349 29.0468H46.2559ZM48.88 29.0468L49.8833 23.9827H50.7623L50.4757 25.4542L50.3802 25.0911C50.6158 24.6644 50.9152 24.3649 51.2783 24.1929C51.6414 24.0209 52.0905 23.935 52.6255 23.935L52.4536 24.8236C52.4153 24.8172 52.3771 24.814 52.3389 24.814C52.3007 24.814 52.2592 24.814 52.2147 24.814C51.7115 24.814 51.2942 24.951 50.963 25.2249C50.6381 25.4987 50.4184 25.9287 50.3037 26.5148L49.7973 29.0468H48.88ZM53.7465 27.7665L53.9376 26.6485L57.3105 23.9827H58.6004L55.7722 26.209L55.2849 26.5721L53.7465 27.7665ZM52.7337 29.0468L54.1478 21.9571H55.0651L53.651 29.0468H52.7337ZM56.6417 29.0468L55.132 26.5817L55.7531 25.8841L57.7022 29.0468H56.6417ZM60.7403 29.1041C60.2435 29.1041 59.8135 29.0149 59.4504 28.8366C59.0873 28.6518 58.807 28.3971 58.6096 28.0722C58.4122 27.741 58.3134 27.3523 58.3134 26.9065C58.3134 26.3332 58.4376 25.8236 58.686 25.3777C58.9344 24.9319 59.2721 24.5814 59.6988 24.3267C60.1321 24.0655 60.6224 23.935 61.1703 23.935C61.6289 23.935 62.027 24.0242 62.3646 24.2025C62.7023 24.3745 62.9634 24.6229 63.1481 24.9478C63.3392 25.2726 63.4348 25.6644 63.4348 26.123C63.4348 26.2377 63.4285 26.3556 63.4157 26.4765C63.4029 26.5912 63.387 26.6996 63.3679 26.8014H58.9822L59.0969 26.1326H62.9284L62.5557 26.3619C62.6131 26.0051 62.5877 25.7059 62.4793 25.4637C62.371 25.2153 62.199 25.0275 61.9633 24.9C61.734 24.7662 61.4569 24.6993 61.1321 24.6993C60.7499 24.6993 60.4122 24.7916 60.1193 24.9764C59.8326 25.1547 59.6096 25.4064 59.4504 25.7313C59.2912 26.0498 59.2115 26.4255 59.2115 26.8587C59.2115 27.3174 59.3421 27.6742 59.6033 27.9289C59.8708 28.1773 60.2754 28.3015 60.8168 28.3015C61.1353 28.3015 61.4315 28.2505 61.7054 28.1487C61.9792 28.0403 62.2055 27.897 62.3838 27.7187L62.7755 28.378C62.5334 28.6136 62.2309 28.7951 61.8678 28.9226C61.5047 29.0436 61.1288 29.1041 60.7403 29.1041ZM65.903 29.1041C65.5972 29.1041 65.333 29.0373 65.11 28.9035C64.8934 28.7697 64.7373 28.5786 64.6418 28.3302C64.5527 28.0818 64.5399 27.7888 64.6035 27.4511L65.5208 22.8744H66.4381L65.5208 27.432C65.4763 27.7059 65.5017 27.9256 65.5972 28.0913C65.6993 28.2505 65.8871 28.3302 66.161 28.3302C66.2885 28.3302 66.4159 28.3111 66.5432 28.2729C66.6706 28.2283 66.7853 28.1678 66.8872 28.0913L67.0783 28.7888C66.9063 28.9098 66.7152 28.9927 66.505 29.0373C66.3013 29.0818 66.1006 29.1041 65.903 29.1041ZM64.2882 24.7376L64.4316 23.9827H67.6707L67.5178 24.7376H64.2882ZM69.7162 29.1041C69.2893 29.1041 68.8849 29.0501 68.5027 28.9417C68.1268 28.827 67.8369 28.687 67.6332 28.5213L68.0441 27.7951C68.2415 27.948 68.4962 28.0722 68.8085 28.1678C69.1268 28.2633 69.4582 28.3111 69.8022 28.3111C70.2417 28.3111 70.5729 28.2442 70.7959 28.1104C71.0187 27.9767 71.1303 27.7951 71.1303 27.5658C71.1303 27.4001 71.0634 27.2759 70.9296 27.1932C70.7959 27.1039 70.6206 27.037 70.4041 26.9925C70.1939 26.9415 69.9676 26.8937 69.7257 26.8492C69.4836 26.7982 69.2575 26.7282 69.0473 26.639C68.8371 26.5497 68.6619 26.4225 68.5218 26.2568C68.388 26.0848 68.3212 25.8587 68.3212 25.5784C68.3212 25.2407 68.4167 24.951 68.6078 24.7089C68.7989 24.4605 69.0664 24.2694 69.4104 24.1356C69.7544 24.0018 70.1557 23.935 70.6143 23.935C70.9455 23.935 71.2704 23.9764 71.5889 24.0592C71.9138 24.1356 72.1781 24.247 72.382 24.3936L72.0189 25.1198C71.8087 24.9732 71.5729 24.8713 71.3118 24.814C71.0506 24.7504 70.7894 24.7185 70.5283 24.7185C70.1014 24.7185 69.7798 24.7916 69.5633 24.9382C69.3466 25.0783 69.2384 25.2568 69.2384 25.4733C69.2384 25.639 69.3053 25.7695 69.4391 25.865C69.5728 25.9543 69.7448 26.0242 69.955 26.0752C70.1716 26.1263 70.3976 26.1771 70.6334 26.2281C70.8754 26.2726 71.1016 26.3395 71.3118 26.4288C71.5283 26.5115 71.7036 26.6357 71.8374 26.8014C71.9711 26.9606 72.038 27.1804 72.038 27.4607C72.038 27.811 71.9392 28.1104 71.7418 28.3589C71.5507 28.601 71.2799 28.7856 70.9296 28.913C70.5792 29.0405 70.1748 29.1041 69.7162 29.1041Z" fill="#464B4E"/>
<defs>
<linearGradient id="paint0_linear_2_273" x1="27.2742" y1="-0.10444" x2="2.20249" y2="30.9777" gradientUnits="userSpaceOnUse">
<stop stop-color="#50C7AD"/>
<stop offset="1" stop-color="#008F96"/>
</linearGradient>
</defs>
</svg>
