<svg viewBox="0 0 118 31" fill="none" xmlns="http://www.w3.org/2000/svg">
<path d="M30.5833 9.73193C30.7622 8.7174 30.9743 7.515 30.9743 7.515C31.7062 3.36454 29.3998 0 22.9055 0H3.59245C3.17913 0 2.78136 0.338176 2.70847 0.751501L2.57597 1.503C2.50308 1.91633 2.73528 2.38007 3.09203 2.53353L7.4723 4.41829L6.53036 9.76004H15.5483L16.2092 6.012H20.7181C21.5483 6.012 22.1025 6.68491 21.9563 7.515L21.5604 9.76004C21.4139 10.5901 20.6224 11.263 19.7923 11.263H15.8609H15.2834H6.26532H1.84303C1.36125 11.263 0.897572 11.6573 0.812578 12.1391L0.723975 12.6415C0.639056 13.1233 0.923648 13.6379 1.35659 13.7849L14.0767 18.1062L18.3984 19.5744C19.1444 19.8277 19.6303 20.706 19.4838 21.536L19.3059 22.545C19.1596 23.3751 18.3681 24.048 17.538 24.048H13.029L13.7984 19.6845L5.25266 16.7814L2.57514 30.06H17.6052C24.1699 30.06 27.4939 27.2529 28.1045 23.7901C28.1045 23.7901 28.2513 22.9583 28.4813 21.6536C29.1952 17.6039 27.5724 16.9777 26.8874 16.6648C26.3547 16.4214 24.7993 15.6224 24.7993 15.6224L24.8125 15.5473C24.8125 15.5473 29.7917 14.2221 30.5833 9.73193Z" fill="url(#paint0_linear_60_1190)"/>
<path d="M51.0376 10.4551C52.0641 10.7801 52.8682 11.3275 53.4498 12.0974C54.0314 12.8501 54.3222 13.7824 54.3222 14.8944C54.3222 16.4683 53.7064 17.6829 52.4747 18.5382C51.26 19.3764 49.4809 19.7956 47.1372 19.7956H37.8479V1.83296H46.624C48.8138 1.83296 50.4901 2.25208 51.6535 3.09035C52.8339 3.9286 53.4241 5.06625 53.4241 6.50326C53.4241 7.37573 53.2102 8.15411 52.7826 8.83841C52.372 9.5227 51.7904 10.0616 51.0376 10.4551ZM41.9793 4.9636V9.19766H46.1107C47.1372 9.19766 47.9156 9.01804 48.4459 8.65878C48.9761 8.29953 49.2414 7.76919 49.2414 7.0678C49.2414 6.3664 48.9761 5.84462 48.4459 5.50248C47.9156 5.14323 47.1372 4.9636 46.1107 4.9636H41.9793ZM46.8292 16.665C47.924 16.665 48.7452 16.4854 49.2927 16.1261C49.8572 15.7669 50.1395 15.2109 50.1395 14.4582C50.1395 12.9698 49.0361 12.2257 46.8292 12.2257H41.9793V16.665H46.8292ZM66.1686 20.1036C64.3038 20.1036 62.6188 19.7016 61.1134 18.8975C59.6251 18.0935 58.4531 16.99 57.5979 15.5872C56.7595 14.1673 56.3405 12.5764 56.3405 10.8143C56.3405 9.05224 56.7595 7.46982 57.5979 6.06702C58.4531 4.64711 59.6251 3.53513 61.1134 2.7311C62.6188 1.92705 64.3038 1.52502 66.1686 1.52502C68.0333 1.52502 69.7099 1.92705 71.1982 2.7311C72.6865 3.53513 73.8583 4.64711 74.7137 6.06702C75.569 7.46982 75.9968 9.05224 75.9968 10.8143C75.9968 12.5764 75.569 14.1673 74.7137 15.5872C73.8583 16.99 72.6865 18.0935 71.1982 18.8975C69.7099 19.7016 68.0333 20.1036 66.1686 20.1036ZM66.1686 16.5624C67.2292 16.5624 68.1872 16.3229 69.0427 15.8439C69.8979 15.3477 70.5651 14.6635 71.0442 13.791C71.5402 12.9185 71.7884 11.9263 71.7884 10.8143C71.7884 9.70232 71.5402 8.71011 71.0442 7.83763C70.5651 6.96516 69.8979 6.28941 69.0427 5.81041C68.1872 5.3143 67.2292 5.06625 66.1686 5.06625C65.1079 5.06625 64.1498 5.3143 63.2946 5.81041C62.4392 6.28941 61.7634 6.96516 61.2674 7.83763C60.7883 8.71011 60.5489 9.70232 60.5489 10.8143C60.5489 11.9263 60.7883 12.9185 61.2674 13.791C61.7634 14.6635 62.4392 15.3477 63.2946 15.8439C64.1498 16.3229 65.1079 16.5624 66.1686 16.5624ZM95.5954 1.83296V19.7956H92.1824L83.2268 8.88973V19.7956H79.121V1.83296H82.5596L91.4896 12.7389V1.83296H95.5954ZM99.8452 1.83296H108.005C109.956 1.83296 111.675 2.20932 113.163 2.96205C114.669 3.69766 115.832 4.7412 116.653 6.09269C117.492 7.44416 117.911 9.01804 117.911 10.8143C117.911 12.6106 117.492 14.1844 116.653 15.5359C115.832 16.8874 114.669 17.9395 113.163 18.6922C111.675 19.4278 109.956 19.7956 108.005 19.7956H99.8452V1.83296ZM107.8 16.3827C109.596 16.3827 111.025 15.8866 112.085 14.8944C113.163 13.8851 113.702 12.525 113.702 10.8143C113.702 9.10356 113.163 7.75209 112.085 6.75987C111.025 5.75053 109.596 5.24587 107.8 5.24587H104.002V16.3827H107.8Z" fill="#464B4E"/>
<path d="M41.5558 28.6945L40.7035 27.8422C40.1353 28.3921 39.4204 28.667 38.5589 28.667C38.1313 28.667 37.7464 28.5968 37.4042 28.4562C37.062 28.3156 36.7933 28.1202 36.5977 27.8697C36.4084 27.6131 36.3136 27.3229 36.3136 26.999C36.3136 26.6081 36.4327 26.2627 36.671 25.9634C36.9153 25.6579 37.3157 25.3463 37.8716 25.0286C37.5906 24.7476 37.3919 24.494 37.2759 24.268C37.1599 24.042 37.1018 23.8066 37.1018 23.5623C37.1018 23.1284 37.2576 22.7802 37.5692 22.5175C37.8868 22.2549 38.3084 22.1234 38.8339 22.1234C39.3227 22.1234 39.7106 22.2426 39.9978 22.4809C40.285 22.7191 40.4285 23.046 40.4285 23.4615C40.4285 23.7854 40.3217 24.0755 40.1078 24.3321C39.9001 24.5887 39.5518 24.8576 39.063 25.1386L40.6485 26.7149C40.8318 26.3667 40.9632 25.9786 41.0426 25.551L41.7482 25.7801C41.6382 26.3423 41.4518 26.8309 41.1892 27.2465L42.0507 28.108L41.5558 28.6945ZM38.8339 22.765C38.5467 22.765 38.3207 22.8383 38.1557 22.9849C37.9968 23.1255 37.9174 23.3117 37.9174 23.544C37.9174 23.7089 37.9601 23.8678 38.0457 24.0205C38.1374 24.1732 38.3115 24.3811 38.5681 24.6437C38.9897 24.4054 39.2798 24.2007 39.4387 24.0297C39.6037 23.8587 39.6862 23.6723 39.6862 23.4706C39.6862 23.2567 39.6097 23.0857 39.4571 22.9574C39.3104 22.8291 39.1028 22.765 38.8339 22.765ZM38.6139 27.9338C39.2494 27.9338 39.7718 27.7322 40.1811 27.329L38.3573 25.5144C37.9174 25.7587 37.6089 25.9878 37.4317 26.2017C37.2607 26.4094 37.1751 26.6447 37.1751 26.9074C37.1751 27.2129 37.3065 27.4604 37.5692 27.6497C37.838 27.8391 38.1863 27.9338 38.6139 27.9338ZM45.6075 22.1784H48.311C48.9892 22.1784 49.591 22.3128 50.1165 22.5817C50.642 22.8506 51.0481 23.2292 51.3353 23.7181C51.6286 24.2007 51.7753 24.7568 51.7753 25.3861C51.7753 26.0153 51.6286 26.5743 51.3353 27.0632C51.0481 27.5458 50.642 27.9215 50.1165 28.1904C49.591 28.4593 48.9892 28.5937 48.311 28.5937H45.6075V22.1784ZM48.256 27.7964C48.7753 27.7964 49.2306 27.6955 49.6216 27.4939C50.0188 27.2923 50.3241 27.0113 50.538 26.6508C50.7519 26.2842 50.8588 25.8626 50.8588 25.3861C50.8588 24.9095 50.7519 24.491 50.538 24.1305C50.3241 23.7639 50.0188 23.4798 49.6216 23.2782C49.2306 23.0766 48.7753 22.9758 48.256 22.9758H46.5239V27.7964H48.256ZM57.4406 26.1925C57.4406 26.2598 57.4344 26.3483 57.4223 26.4583H53.4815C53.5365 26.8859 53.7227 27.2313 54.0406 27.4939C54.3643 27.7505 54.7646 27.8788 55.2411 27.8788C55.8214 27.8788 56.2888 27.6833 56.6433 27.2923L57.129 27.8605C56.9091 28.1171 56.6342 28.3127 56.3042 28.447C55.9804 28.5814 55.6169 28.6487 55.2136 28.6487C54.7004 28.6487 54.2451 28.5447 53.8481 28.3371C53.4509 28.1232 53.1424 27.827 52.9225 27.4481C52.7086 27.0692 52.6017 26.6416 52.6017 26.165C52.6017 25.6945 52.7055 25.27 52.9133 24.8912C53.127 24.5123 53.4174 24.219 53.784 24.0114C54.1566 23.7975 54.575 23.6906 55.0395 23.6906C55.5038 23.6906 55.9162 23.7975 56.2767 24.0114C56.6433 24.219 56.9274 24.5123 57.129 24.8912C57.3367 25.27 57.4406 25.7037 57.4406 26.1925ZM55.0395 24.4329C54.6179 24.4329 54.2635 24.5612 53.9764 24.8178C53.6952 25.0745 53.5303 25.4104 53.4815 25.826H56.5975C56.5486 25.4167 56.3805 25.0836 56.0934 24.827C55.8123 24.5644 55.4611 24.4329 55.0395 24.4329ZM61.2376 23.6906C61.7081 23.6906 62.1296 23.7945 62.5023 24.0022C62.8749 24.2099 63.1652 24.5002 63.3729 24.8728C63.5868 25.2455 63.6937 25.6762 63.6937 26.165C63.6937 26.6539 63.5868 27.0876 63.3729 27.4664C63.1652 27.8391 62.8749 28.1294 62.5023 28.3371C62.1296 28.5447 61.7081 28.6487 61.2376 28.6487C60.877 28.6487 60.5471 28.5785 60.2478 28.4379C59.9485 28.2973 59.701 28.0927 59.5054 27.8238V28.5937H58.6623V21.7935H59.5421V24.4696C59.7377 24.213 59.982 24.0205 60.2753 23.8922C60.5685 23.7579 60.8893 23.6906 61.2376 23.6906ZM61.1642 27.8788C61.4758 27.8788 61.7539 27.8086 61.9982 27.668C62.2488 27.5214 62.4442 27.3198 62.5848 27.0632C62.7314 26.8005 62.8047 26.501 62.8047 26.165C62.8047 25.8291 62.7314 25.5327 62.5848 25.2761C62.4442 25.0134 62.2488 24.8118 61.9982 24.6712C61.7539 24.5306 61.4758 24.4604 61.1642 24.4604C60.8587 24.4604 60.5808 24.5306 60.3303 24.6712C60.0797 24.8118 59.8843 25.0134 59.7437 25.2761C59.6031 25.5327 59.5329 25.8291 59.5329 26.165C59.5329 26.501 59.6031 26.8005 59.7437 27.0632C59.8843 27.3198 60.0797 27.5214 60.3303 27.668C60.5808 27.8086 60.8587 27.8788 61.1642 27.8788ZM69.2991 26.1925C69.2991 26.2598 69.2931 26.3483 69.2808 26.4583H65.34C65.395 26.8859 65.5814 27.2313 65.8991 27.4939C66.2229 27.7505 66.6231 27.8788 67.0996 27.8788C67.6801 27.8788 68.1475 27.6833 68.5018 27.2923L68.9875 27.8605C68.7676 28.1171 68.4926 28.3127 68.1627 28.447C67.8388 28.5814 67.4754 28.6487 67.0721 28.6487C66.5589 28.6487 66.1038 28.5447 65.7066 28.3371C65.3094 28.1232 65.0009 27.827 64.781 27.4481C64.5671 27.0692 64.4602 26.6416 64.4602 26.165C64.4602 25.6945 64.5641 25.27 64.7718 24.8912C64.9857 24.5123 65.2759 24.219 65.6424 24.0114C66.0151 23.7975 66.4337 23.6906 66.898 23.6906C67.3623 23.6906 67.7747 23.7975 68.1352 24.0114C68.5018 24.219 68.7859 24.5123 68.9875 24.8912C69.1952 25.27 69.2991 25.7037 69.2991 26.1925ZM66.898 24.4329C66.4764 24.4329 66.1221 24.5612 65.8349 24.8178C65.5539 25.0745 65.389 25.4104 65.34 25.826H68.456C68.407 25.4167 68.2392 25.0836 67.9519 24.827C67.6709 24.5644 67.3196 24.4329 66.898 24.4329ZM73.1144 23.6906C73.7315 23.6906 74.2204 23.8708 74.5807 24.2313C74.9473 24.5856 75.1306 25.108 75.1306 25.7985V28.5937H74.2508V25.8993C74.2508 25.4288 74.1379 25.0745 73.9117 24.8362C73.6857 24.5979 73.3618 24.4788 72.9402 24.4788C72.4637 24.4788 72.0879 24.6193 71.813 24.9003C71.5381 25.1753 71.4006 25.5725 71.4006 26.0917V28.5937H70.5208V23.7364H71.3639V24.4696C71.5412 24.219 71.7795 24.0266 72.0788 23.8922C72.3843 23.7579 72.7295 23.6906 73.1144 23.6906ZM79.4898 28.3096C79.3615 28.4195 79.2028 28.5051 79.0133 28.5662C78.8239 28.6212 78.6284 28.6487 78.4267 28.6487C77.9381 28.6487 77.5592 28.5172 77.2903 28.2546C77.0216 27.9919 76.8871 27.6162 76.8871 27.1273V24.4604H76.0623V23.7364H76.8871V22.6733H77.7669V23.7364H79.1599V24.4604H77.7669V27.0907C77.7669 27.3533 77.831 27.555 77.9594 27.6955C78.0939 27.8361 78.2832 27.9063 78.5276 27.9063C78.7964 27.9063 79.0256 27.8299 79.2149 27.6772L79.4898 28.3096ZM85.081 23.7364V28.5937H84.247V27.8605C84.0698 28.1111 83.8346 28.3065 83.5413 28.447C83.2541 28.5814 82.9394 28.6487 82.5974 28.6487C81.9496 28.6487 81.4395 28.4714 81.0667 28.1171C80.6941 27.7566 80.5079 27.2281 80.5079 26.5316V23.7364H81.3877V26.4308C81.3877 26.9013 81.5006 27.2588 81.7267 27.5031C81.9527 27.7414 82.2766 27.8605 82.6982 27.8605C83.1625 27.8605 83.5291 27.7199 83.798 27.4389C84.0667 27.1579 84.2012 26.7607 84.2012 26.2475V23.7364H85.081ZM87.5989 24.5521C87.7518 24.2711 87.9778 24.0572 88.2771 23.9105C88.5766 23.7639 88.94 23.6906 89.3677 23.6906V24.5429C89.3189 24.5369 89.2516 24.5337 89.166 24.5337C88.6895 24.5337 88.3137 24.6773 88.0388 24.9645C87.7701 25.2455 87.6356 25.6487 87.6356 26.1742V28.5937H86.7557V23.7364H87.5989V24.5521ZM94.7972 26.1925C94.7972 26.2598 94.7911 26.3483 94.7788 26.4583H90.838C90.893 26.8859 91.0794 27.2313 91.3971 27.4939C91.721 27.7505 92.1211 27.8788 92.5976 27.8788C93.1781 27.8788 93.6455 27.6833 93.9998 27.2923L94.4856 27.8605C94.2656 28.1171 93.9907 28.3127 93.6608 28.447C93.3371 28.5814 92.9734 28.6487 92.5702 28.6487C92.0569 28.6487 91.6018 28.5447 91.2046 28.3371C90.8076 28.1232 90.4989 27.827 90.279 27.4481C90.0653 27.0692 89.9582 26.6416 89.9582 26.165C89.9582 25.6945 90.0622 25.27 90.2698 24.8912C90.4837 24.5123 90.7739 24.219 91.1405 24.0114C91.5133 23.7975 91.9317 23.6906 92.396 23.6906C92.8605 23.6906 93.2729 23.7975 93.6333 24.0114C93.9998 24.219 94.2839 24.5123 94.4856 24.8912C94.6934 25.27 94.7972 25.7037 94.7972 26.1925ZM92.396 24.4329C91.9745 24.4329 91.6202 24.5612 91.3329 24.8178C91.0519 25.0745 90.887 25.4104 90.838 25.826H93.954C93.9053 25.4167 93.7372 25.0836 93.45 24.827C93.169 24.5644 92.8176 24.4329 92.396 24.4329ZM97.412 28.6487C97.0148 28.6487 96.633 28.5968 96.2664 28.4929C95.8999 28.3829 95.6126 28.2454 95.405 28.0805L95.7715 27.3839C95.9853 27.5366 96.245 27.6589 96.5505 27.7505C96.8559 27.8422 97.1646 27.888 97.4762 27.888C98.246 27.888 98.6309 27.668 98.6309 27.2281C98.6309 27.0815 98.5789 26.9655 98.4751 26.8799C98.3712 26.7943 98.2398 26.7333 98.081 26.6966C97.9282 26.6539 97.7082 26.6081 97.4212 26.5591C97.03 26.4981 96.7093 26.4277 96.4589 26.3483C96.2144 26.269 96.0036 26.1344 95.8265 25.9451C95.6493 25.7558 95.5608 25.49 95.5608 25.1478C95.5608 24.7079 95.744 24.3565 96.1106 24.0938C96.4772 23.8249 96.969 23.6906 97.5861 23.6906C97.9098 23.6906 98.2337 23.7304 98.5576 23.8097C98.8813 23.8891 99.1471 23.9961 99.3549 24.1305L98.9792 24.827C98.582 24.5704 98.1146 24.4421 97.577 24.4421C97.2042 24.4421 96.9201 24.5031 96.7247 24.6254C96.5291 24.7476 96.4314 24.9095 96.4314 25.1111C96.4314 25.27 96.4864 25.3952 96.5964 25.4869C96.7063 25.5785 96.8407 25.6458 96.9996 25.6885C97.1646 25.7312 97.3937 25.7801 97.687 25.8351C98.0779 25.9024 98.3926 25.9757 98.6309 26.0551C98.8752 26.1284 99.0829 26.2567 99.2541 26.44C99.4251 26.6233 99.5107 26.8799 99.5107 27.2098C99.5107 27.6497 99.3212 28.0011 98.9425 28.2637C98.5697 28.5204 98.0596 28.6487 97.412 28.6487Z" fill="#464B4E"/>
<defs>
<linearGradient id="paint0_linear_60_1190" x1="26.8692" y1="-0.100172" x2="2.82152" y2="29.7125" gradientUnits="userSpaceOnUse">
<stop stop-color="#50C7AD"/>
<stop offset="1" stop-color="#008F96"/>
</linearGradient>
</defs>
</svg>
