<svg viewBox="0 0 142 31" fill="none" xmlns="http://www.w3.org/2000/svg">
	<path d="M47.0004 14.0519V16.6305H37.5286V4.83294H46.7813V7.41156H40.8319V9.4003H46.0734V11.8947H40.8319V14.0519H47.0004ZM57.0454 16.6305L54.6016 12.9733L52.1916 16.6305H48.3826L52.6803 10.6643L48.568 4.83294H52.3264L54.6859 8.23739L57.0117 4.83294H60.6184L56.5061 10.5295L60.8881 16.6305H57.0454ZM68.3192 16.8665C67.0832 16.8665 65.9709 16.6081 64.9822 16.0912C64.0046 15.5632 63.2349 14.8328 62.6732 13.9002C62.1114 12.9677 61.8305 11.9115 61.8305 10.7317C61.8305 9.55198 62.1114 8.49582 62.6732 7.56324C63.2349 6.63068 64.0046 5.90597 64.9822 5.38911C65.9709 4.86104 67.0832 4.59698 68.3192 4.59698C69.3978 4.59698 70.3697 4.788 71.2349 5.17001C72.1 5.55204 72.8192 6.10259 73.3922 6.82168L71.2686 8.743C70.5045 7.82167 69.5776 7.361 68.4877 7.361C67.8473 7.361 67.2743 7.50145 66.7687 7.78234C66.2742 8.06324 65.8866 8.46211 65.6058 8.97896C65.3361 9.48457 65.2013 10.0688 65.2013 10.7317C65.2013 11.3947 65.3361 11.9845 65.6058 12.5014C65.8866 13.007 66.2742 13.4003 66.7687 13.6811C67.2743 13.9621 67.8473 14.1025 68.4877 14.1025C69.5776 14.1025 70.5045 13.6419 71.2686 12.7204L73.3922 14.6418C72.8192 15.361 72.1 15.9115 71.2349 16.2934C70.3697 16.6755 69.3978 16.8665 68.3192 16.8665ZM86.9472 4.83294V16.6305H83.6102V12.0295H79.0597V16.6305H75.7226V4.83294H79.0597V9.26547H83.6102V4.83294H86.9472ZM98.0482 14.3384H93.0595L92.1325 16.6305H88.7281L93.9359 4.83294H97.2224L102.447 16.6305H98.9751L98.0482 14.3384ZM97.0707 11.8778L95.5538 8.10256L94.037 11.8778H97.0707ZM115.46 4.83294V16.6305H112.713L107.505 10.3441V16.6305H104.236V4.83294H106.983L112.191 11.1194V4.83294H115.46ZM126.562 10.4789H129.511V15.3665C128.837 15.8497 128.061 16.2205 127.185 16.4788C126.309 16.7373 125.432 16.8665 124.556 16.8665C123.32 16.8665 122.207 16.6081 121.219 16.0912C120.23 15.5632 119.455 14.8328 118.893 13.9002C118.331 12.9677 118.05 11.9115 118.05 10.7317C118.05 9.55198 118.331 8.49582 118.893 7.56324C119.455 6.63068 120.236 5.90597 121.236 5.38911C122.236 4.86104 123.365 4.59698 124.623 4.59698C125.724 4.59698 126.712 4.78238 127.589 5.15316C128.466 5.52394 129.197 6.05765 129.78 6.75426L127.657 8.67559C126.86 7.79919 125.904 7.361 124.792 7.361C123.78 7.361 122.966 7.66999 122.348 8.28795C121.73 8.89469 121.421 9.70929 121.421 10.7317C121.421 11.3834 121.561 11.9677 121.842 12.4845C122.123 12.9901 122.516 13.3891 123.022 13.6811C123.528 13.9621 124.106 14.1025 124.758 14.1025C125.398 14.1025 125.999 13.9733 126.562 13.7148V10.4789ZM141.941 14.0519V16.6305H132.469V4.83294H141.722V7.41156H135.772V9.4003H141.014V11.8947H135.772V14.0519H141.941Z" fill="#070707" />
	<path d="M39.7824 25.358C39.2156 25.358 38.7005 25.2327 38.2373 24.9819C37.7795 24.7258 37.4198 24.3769 37.1582 23.9355C36.902 23.494 36.7739 22.9981 36.7739 22.4476C36.7739 21.8972 36.902 21.4011 37.1582 20.9597C37.4198 20.5182 37.7795 20.1722 38.2373 19.9214C38.7005 19.6653 39.2156 19.5372 39.7824 19.5372C40.3493 19.5372 40.8588 19.6626 41.3112 19.9132C41.769 20.164 42.1288 20.5128 42.3904 20.9597C42.652 21.4011 42.7828 21.8972 42.7828 22.4476C42.7828 22.9981 42.652 23.4968 42.3904 23.9437C42.1288 24.3851 41.769 24.7312 41.3112 24.9819C40.8588 25.2327 40.3493 25.358 39.7824 25.358ZM39.7824 24.8184C40.2349 24.8184 40.6436 24.7177 41.0087 24.5159C41.3739 24.3089 41.66 24.0254 41.8671 23.6657C42.0743 23.3006 42.1778 22.8946 42.1778 22.4476C42.1778 22.0007 42.0743 21.5973 41.8671 21.2376C41.66 20.8725 41.3739 20.5891 41.0087 20.3874C40.6436 20.1804 40.2349 20.0767 39.7824 20.0767C39.33 20.0767 38.9186 20.1804 38.548 20.3874C38.1828 20.5891 37.8939 20.8725 37.6814 21.2376C37.4742 21.5973 37.3707 22.0007 37.3707 22.4476C37.3707 22.8946 37.4742 23.3006 37.6814 23.6657C37.8939 24.0254 38.1828 24.3089 38.548 24.5159C38.9186 24.7177 39.33 24.8184 39.7824 24.8184ZM45.4386 19.6925C45.188 19.6925 44.9972 19.7607 44.8664 19.8969C44.7411 20.0332 44.6783 20.2348 44.6783 20.5018V21.0087H46.0027V21.4992H44.6947V25.3089H44.1142V21.4992H43.3458V21.0087H44.1142V20.4773C44.1142 20.0849 44.226 19.7742 44.4494 19.5453C44.6783 19.3164 44.9999 19.202 45.4141 19.202C45.5776 19.202 45.7357 19.2265 45.8883 19.2755C46.041 19.3192 46.169 19.3846 46.2725 19.4718L46.0763 19.905C45.9074 19.7634 45.6948 19.6925 45.4386 19.6925ZM48.2091 19.6925C47.9583 19.6925 47.7676 19.7607 47.6368 19.8969C47.5114 20.0332 47.4488 20.2348 47.4488 20.5018V21.0087H48.7732V21.4992H47.4651V25.3089H46.8847V21.4992H46.1162V21.0087H46.8847V20.4773C46.8847 20.0849 46.9963 19.7742 47.2198 19.5453C47.4488 19.3164 47.7702 19.202 48.1845 19.202C48.348 19.202 48.506 19.2265 48.6587 19.2755C48.8113 19.3192 48.9393 19.3846 49.0429 19.4718L48.8467 19.905C48.6777 19.7634 48.4651 19.6925 48.2091 19.6925ZM53.2293 23.3387H49.6322C49.6649 23.7857 49.8366 24.148 50.1472 24.426C50.4579 24.6985 50.8503 24.8348 51.3245 24.8348C51.5915 24.8348 51.8368 24.7885 52.0603 24.6958C52.2836 24.5977 52.4772 24.4561 52.6407 24.2707L52.9677 24.6467C52.7769 24.8756 52.5371 25.0501 52.2483 25.1699C51.9648 25.2899 51.6515 25.3498 51.3081 25.3498C50.8667 25.3498 50.4743 25.2572 50.1309 25.0718C49.7929 24.8812 49.5286 24.6196 49.3379 24.287C49.1471 23.9546 49.0517 23.5785 49.0517 23.1588C49.0517 22.7392 49.1417 22.3632 49.3215 22.0306C49.5068 21.6982 49.7575 21.4394 50.0737 21.254C50.3951 21.0687 50.7549 20.976 51.1528 20.976C51.5506 20.976 51.9076 21.0687 52.2238 21.254C52.5398 21.4394 52.7879 21.6982 52.9677 22.0306C53.1476 22.3576 53.2375 22.7337 53.2375 23.1588L53.2293 23.3387ZM51.1528 21.4747C50.7385 21.4747 50.3897 21.6083 50.1064 21.8753C49.8284 22.1369 49.6703 22.4803 49.6322 22.9054H52.6816C52.6434 22.4803 52.4826 22.1369 52.1992 21.8753C51.9213 21.6083 51.5724 21.4747 51.1528 21.4747ZM54.9748 21.8508C55.1112 21.562 55.3128 21.3439 55.5798 21.1967C55.8524 21.0496 56.1875 20.976 56.5854 20.976V21.5401L56.4464 21.5319C55.9941 21.5319 55.6398 21.6709 55.3836 21.9489C55.1275 22.2268 54.9994 22.6166 54.9994 23.1179V25.3089H54.4189V21.0087H54.9748V21.8508ZM57.6363 21.0087H58.2168V25.3089H57.6363V21.0087ZM57.9306 20.0685C57.8108 20.0685 57.7099 20.0277 57.6282 19.9459C57.5464 19.8642 57.5055 19.7661 57.5055 19.6516C57.5055 19.5427 57.5464 19.4472 57.6282 19.3655C57.7099 19.2837 57.8108 19.2428 57.9306 19.2428C58.0506 19.2428 58.1514 19.2837 58.2331 19.3655C58.3149 19.4418 58.3558 19.5345 58.3558 19.6434C58.3558 19.7634 58.3149 19.8642 58.2331 19.9459C58.1514 20.0277 58.0506 20.0685 57.9306 20.0685ZM62.0228 20.976C62.5624 20.976 62.9903 21.1341 63.3064 21.4502C63.628 21.7608 63.7887 22.216 63.7887 22.8155V25.3089H63.2083V22.8727C63.2083 22.4258 63.0966 22.0852 62.8731 21.8508C62.6497 21.6165 62.3309 21.4992 61.9166 21.4992C61.4533 21.4992 61.0854 21.6382 60.8129 21.9162C60.5459 22.1887 60.4123 22.5676 60.4123 23.0525V25.3089H59.8319V21.0087H60.3878V21.8017C60.5459 21.5401 60.7638 21.3385 61.0418 21.1967C61.3253 21.0496 61.6523 20.976 62.0228 20.976ZM69.362 21.0087V24.7857C69.362 25.5161 69.1822 26.0557 68.8224 26.4044C68.4681 26.7587 67.9313 26.9358 67.2119 26.9358C66.814 26.9358 66.4352 26.8759 66.0755 26.756C65.7212 26.6415 65.4323 26.4808 65.209 26.2736L65.5033 25.8321C65.7103 26.0175 65.9611 26.1619 66.2554 26.2654C66.5551 26.3691 66.8685 26.4208 67.1956 26.4208C67.7405 26.4208 68.1411 26.2927 68.3973 26.0365C68.6534 25.7859 68.7816 25.3934 68.7816 24.8593V24.3115C68.6017 24.5841 68.3646 24.7912 68.0703 24.9329C67.7814 25.0746 67.4598 25.1454 67.1056 25.1454C66.7023 25.1454 66.3344 25.0583 66.002 24.8838C65.6749 24.704 65.416 24.4561 65.2253 24.1399C65.0399 23.8184 64.9473 23.4559 64.9473 23.0525C64.9473 22.6493 65.0399 22.2896 65.2253 21.9734C65.416 21.6573 65.6749 21.4121 66.002 21.2376C66.329 21.0633 66.6969 20.976 67.1056 20.976C67.4707 20.976 67.8005 21.0496 68.0948 21.1967C68.3892 21.3439 68.6262 21.5565 68.8061 21.8344V21.0087H69.362ZM67.1628 24.6304C67.4735 24.6304 67.7541 24.565 68.0049 24.4342C68.2556 24.298 68.449 24.1099 68.5854 23.8701C68.727 23.6303 68.7979 23.3578 68.7979 23.0525C68.7979 22.7474 68.727 22.4776 68.5854 22.2432C68.449 22.0035 68.2556 21.8181 68.0049 21.6873C67.7596 21.551 67.4789 21.4829 67.1628 21.4829C66.8522 21.4829 66.5715 21.5483 66.3208 21.6791C66.0755 21.8099 65.882 21.9953 65.7403 22.235C65.604 22.4749 65.536 22.7474 65.536 23.0525C65.536 23.3578 65.604 23.6303 65.7403 23.8701C65.882 24.1099 66.0755 24.298 66.3208 24.4342C66.5715 24.565 66.8522 24.6304 67.1628 24.6304ZM72.1378 25.3498C71.7891 25.3498 71.4539 25.3008 71.1323 25.2027C70.8162 25.0991 70.5682 24.9711 70.3883 24.8184L70.6499 24.3606C70.8298 24.5023 71.0561 24.6196 71.3285 24.7121C71.601 24.7994 71.8844 24.8429 72.1787 24.8429C72.5711 24.8429 72.86 24.7831 73.0453 24.6631C73.2361 24.5378 73.3314 24.3634 73.3314 24.1399C73.3314 23.9819 73.2797 23.8593 73.1761 23.772C73.0726 23.6794 72.9418 23.6112 72.7837 23.5676C72.6257 23.5185 72.4158 23.4722 72.1542 23.4286C71.8054 23.3632 71.5247 23.2978 71.3121 23.2324C71.0996 23.1616 70.9171 23.0444 70.7644 22.8809C70.6172 22.7174 70.5437 22.4912 70.5437 22.2023C70.5437 21.8426 70.6936 21.5483 70.9933 21.3194C71.2931 21.0905 71.7101 20.976 72.2441 20.976C72.5221 20.976 72.8 21.0142 73.078 21.0905C73.356 21.1614 73.5849 21.2567 73.7647 21.3766L73.5113 21.8426C73.1571 21.5973 72.7346 21.4747 72.2441 21.4747C71.8736 21.4747 71.5929 21.5401 71.4021 21.6709C71.2168 21.8017 71.1241 21.9734 71.1241 22.186C71.1241 22.3495 71.1759 22.4803 71.2794 22.5784C71.3885 22.6765 71.5221 22.7501 71.68 22.7991C71.8381 22.8428 72.0561 22.889 72.3341 22.9381C72.6774 23.0035 72.9527 23.0689 73.1598 23.1343C73.3669 23.1997 73.544 23.3115 73.6912 23.4695C73.8383 23.6276 73.9119 23.8455 73.9119 24.1235C73.9119 24.4996 73.7539 24.7994 73.4377 25.0228C73.1271 25.2409 72.6938 25.3498 72.1378 25.3498Z" fill="#070707" />
	<path d="M10.4995 5.9436C11.8692 5.15706 13.2388 4.37052 14.6085 3.58398C15.9003 2.83902 17.1903 2.09108 18.4783 1.34018C19.1762 0.935276 19.8744 0.530868 20.5728 0.126955C20.7726 0.0103837 20.9367 -0.0096635 21.1669 0.126955C24.1135 1.83864 27.0657 3.54092 30.0233 5.23379C30.3908 5.4454 30.7516 5.66889 31.1258 5.86788C31.316 5.96885 31.3672 6.09804 31.3664 6.30816C31.3582 8.70715 31.3612 11.1061 31.3612 13.5051C31.3612 18.9055 31.36 24.3061 31.3575 29.707C31.3575 29.8213 31.4377 29.9847 31.2943 30.0477C31.1748 30.0997 31.0716 29.9735 30.9654 29.9141C29.8488 29.2676 28.7308 28.6242 27.6117 27.9836C26.1548 27.1422 24.6986 26.3006 23.2429 25.4592C22.4949 25.0265 21.7484 24.5922 21.0035 24.156C20.7971 24.0432 20.8349 23.8427 20.8342 23.6631C20.8305 22.2746 20.8342 20.8862 20.8342 19.4985C20.8342 17.2215 20.8342 14.9423 20.8342 12.6609C20.8431 12.5121 20.837 12.3629 20.8157 12.2154C20.7651 12.0268 20.604 11.9489 20.4541 11.8627C18.5484 10.7643 16.6439 9.66422 14.7406 8.56236C13.3506 7.75305 11.9407 6.9779 10.5678 6.13814C10.5386 6.11596 10.5166 6.08572 10.5045 6.05113C10.4923 6.01654 10.4906 5.97916 10.4995 5.9436Z" fill="#070707" />
	<path d="M10.4995 5.94362L10.5693 6.04533C10.5899 6.20609 10.5986 6.36815 10.5953 6.53018C10.5953 10.181 10.599 13.8318 10.5879 17.4826C10.5879 17.8539 10.7 18.0766 11.0267 18.2593C14.2313 20.0791 17.412 21.9383 20.6048 23.7752C20.7051 23.8324 20.8135 23.8791 20.8698 23.9905C20.8944 24.0478 20.9122 24.1041 20.8432 24.145C19.7614 24.762 18.6692 25.373 17.5859 25.9968C15.6845 27.0896 13.7851 28.1861 11.8873 29.286C11.539 29.4871 11.1626 29.6513 10.8478 29.897C10.5174 30.1569 10.2582 30.021 9.98054 29.8599C8.379 28.9303 6.78266 27.991 5.17888 27.066C3.50012 26.1007 1.81467 25.1429 0.129961 24.1806C0.0946308 24.1517 0.0640644 24.1173 0.0393776 24.0788C0.0178357 23.977 0.0118274 23.8723 0.0215576 23.7685C0.0215576 15.964 0.0232905 8.15945 0.0267554 0.354909C0.0267554 0.239824 -0.0764508 0.0705364 0.122536 0C1.54663 0.833813 2.96775 1.67356 4.3963 2.49996C6.33122 3.61889 8.27283 4.72742 10.2092 5.84115C10.2948 5.90125 10.3952 5.93669 10.4995 5.94362Z" fill="#070707" />
</svg>
