<svg viewBox="0 0 131 38" fill="none" xmlns="http://www.w3.org/2000/svg">
	<path d="M38.8592 7.70635V11.8234H47.1201V15.9138H38.8592V22.33H33.5658V3.61599H48.2429V7.70635H38.8592ZM59.3537 22.7043C56.5733 22.7043 54.4079 21.9469 52.8573 20.4319C51.3245 18.9169 50.5581 16.7693 50.5581 13.9889V3.61599H55.8515V13.8285C55.8515 16.8227 57.0368 18.3199 59.4072 18.3199C61.7598 18.3199 62.9361 16.8227 62.9361 13.8285V3.61599H68.1493V13.9889C68.1493 16.7693 67.374 18.9169 65.8234 20.4319C64.2907 21.9469 62.1341 22.7043 59.3537 22.7043ZM89.5404 3.61599V22.33H85.1827L76.9218 12.3581V22.33H71.7353V3.61599H76.093L84.3539 13.5879V3.61599H89.5404ZM93.2742 3.61599H102.123C104.173 3.61599 105.991 3.99918 107.577 4.76557C109.163 5.53196 110.393 6.61914 111.266 8.02716C112.14 9.43517 112.576 11.0837 112.576 12.973C112.576 14.8623 112.14 16.5108 111.266 17.9189C110.393 19.3269 109.163 20.414 107.577 21.1804C105.991 21.9469 104.173 22.33 102.123 22.33H93.2742V3.61599ZM101.909 18.106C103.513 18.106 104.797 17.6515 105.759 16.7425C106.739 15.8336 107.23 14.5771 107.23 12.973C107.23 11.3689 106.739 10.1124 105.759 9.20347C104.797 8.2945 103.513 7.84002 101.909 7.84002H98.5676V18.106H101.909ZM121.938 22.7043C120.423 22.7043 118.953 22.5172 117.527 22.1429C116.101 21.7686 114.942 21.2695 114.051 20.6458L115.789 16.7425C116.627 17.2951 117.598 17.7406 118.704 18.0793C119.808 18.4179 120.896 18.5872 121.965 18.5872C123.997 18.5872 125.013 18.0793 125.013 17.0634C125.013 16.5287 124.719 16.1365 124.131 15.887C123.56 15.6197 122.634 15.3435 121.35 15.0583C119.942 14.7553 118.766 14.4345 117.821 14.0958C116.876 13.7394 116.065 13.178 115.388 12.4116C114.711 11.6452 114.372 10.6115 114.372 9.3104C114.372 8.16974 114.684 7.14492 115.308 6.23596C115.932 5.30916 116.859 4.57843 118.089 4.04374C119.336 3.50906 120.859 3.24171 122.66 3.24171C123.89 3.24171 125.102 3.38429 126.296 3.66946C127.49 3.93681 128.542 4.33782 129.451 4.87251L127.82 8.80245C126.037 7.84002 124.308 7.3588 122.634 7.3588C121.581 7.3588 120.816 7.51921 120.334 7.84002C119.853 8.143 119.613 8.54402 119.613 9.04306C119.613 9.54211 119.897 9.91639 120.468 10.1659C121.038 10.4154 121.956 10.6739 123.222 10.9412C124.647 11.2441 125.823 11.5739 126.751 11.9304C127.695 12.269 128.505 12.8215 129.183 13.5879C129.879 14.3365 130.226 15.3612 130.226 16.6623C130.226 17.7852 129.914 18.8011 129.29 19.7101C128.666 20.619 127.73 21.3497 126.483 21.9023C125.235 22.437 123.72 22.7043 121.938 22.7043Z" fill="#186AB3" />
	<path d="M38.497 35.8308C37.5525 35.8308 36.697 35.6258 35.9305 35.216C35.1731 34.7971 34.576 34.2223 34.1393 33.4916C33.7116 32.7609 33.4977 31.9365 33.4977 31.0187C33.4977 30.1008 33.7161 29.2764 34.1527 28.5457C34.5893 27.8151 35.1865 27.2446 35.9439 26.8348C36.7103 26.4159 37.5658 26.2065 38.5104 26.2065C39.2768 26.2065 39.9763 26.3402 40.609 26.6075C41.2418 26.8749 41.7765 27.2625 42.2131 27.7705L41.0903 28.8265C40.413 28.0958 39.5798 27.7304 38.5906 27.7304C37.949 27.7304 37.3742 27.8729 36.8662 28.1581C36.3583 28.4343 35.9618 28.822 35.6766 29.321C35.3914 29.8201 35.2488 30.3859 35.2488 31.0187C35.2488 31.6514 35.3914 32.2172 35.6766 32.7163C35.9618 33.2154 36.3583 33.6074 36.8662 33.8926C37.3742 34.1688 37.949 34.307 38.5906 34.307C39.5798 34.307 40.413 33.9372 41.0903 33.1975L42.2131 34.2669C41.7765 34.7748 41.2373 35.1625 40.5957 35.4298C39.9629 35.6972 39.2635 35.8308 38.497 35.8308ZM48.7218 35.8308C47.7682 35.8308 46.9082 35.6258 46.1419 35.216C45.3755 34.7971 44.774 34.2223 44.3374 33.4916C43.9006 32.7519 43.6824 31.9276 43.6824 31.0187C43.6824 30.1097 43.9006 29.2898 44.3374 28.5591C44.774 27.8194 45.3755 27.2446 46.1419 26.8348C46.9082 26.4159 47.7682 26.2065 48.7218 26.2065C49.6753 26.2065 50.5352 26.4159 51.3017 26.8348C52.068 27.2446 52.6695 27.8151 53.1062 28.5457C53.5429 29.2764 53.7612 30.1008 53.7612 31.0187C53.7612 31.9365 53.5429 32.7609 53.1062 33.4916C52.6695 34.2223 52.068 34.7971 51.3017 35.216C50.5352 35.6258 49.6753 35.8308 48.7218 35.8308ZM48.7218 34.307C49.3456 34.307 49.907 34.1688 50.4061 33.8926C50.905 33.6074 51.2972 33.2154 51.5824 32.7163C51.8675 32.2084 52.0101 31.6424 52.0101 31.0187C52.0101 30.3949 51.8675 29.8335 51.5824 29.3344C51.2972 28.8265 50.905 28.4343 50.4061 28.1581C49.907 27.8729 49.3456 27.7304 48.7218 27.7304C48.0979 27.7304 47.5365 27.8729 47.0375 28.1581C46.5385 28.4343 46.1463 28.8265 45.8612 29.3344C45.576 29.8335 45.4335 30.3949 45.4335 31.0187C45.4335 31.6424 45.576 32.2084 45.8612 32.7163C46.1463 33.2154 46.5385 33.6074 47.0375 33.8926C47.5365 34.1688 48.0979 34.307 48.7218 34.307ZM56.2715 26.3402H58.0092V35.6972H56.2715V26.3402ZM69.5228 26.3402V35.6972H68.0925L62.9328 29.3611V35.6972H61.2084V26.3402H62.6387L67.7984 32.6762V26.3402H69.5228ZM75.5991 35.8308C74.8773 35.8308 74.1777 35.7284 73.5005 35.5234C72.8321 35.3184 72.302 35.0467 71.9098 34.708L72.5113 33.3579C72.8945 33.6609 73.3623 33.9105 73.9149 34.1065C74.4763 34.2936 75.0377 34.3872 75.5991 34.3872C76.2942 34.3872 76.8111 34.2758 77.1497 34.053C77.4973 33.8303 77.6711 33.5362 77.6711 33.1708C77.6711 32.9034 77.573 32.6851 77.377 32.5158C77.1898 32.3375 76.9492 32.1995 76.6552 32.1014C76.3611 32.0033 75.9601 31.892 75.4521 31.7672C74.7392 31.598 74.16 31.4286 73.7144 31.2593C73.2778 31.09 72.899 30.827 72.5782 30.4706C72.2662 30.1052 72.1103 29.6151 72.1103 29.0002C72.1103 28.4834 72.2485 28.0156 72.5247 27.5967C72.8099 27.1689 73.2332 26.8303 73.7946 26.5808C74.3649 26.3313 75.06 26.2065 75.8799 26.2065C76.4502 26.2065 77.0116 26.2778 77.5641 26.4204C78.1167 26.5629 78.5934 26.7679 78.9944 27.0353L78.4464 28.3853C78.0365 28.1447 77.6087 27.9621 77.1631 27.8373C76.7175 27.7125 76.2854 27.6501 75.8665 27.6501C75.1803 27.6501 74.6679 27.766 74.3293 27.9977C73.9996 28.2294 73.8347 28.5369 73.8347 28.92C73.8347 29.1874 73.9282 29.4057 74.1154 29.575C74.3114 29.7443 74.5565 29.878 74.8506 29.976C75.1447 30.0741 75.5457 30.1854 76.0536 30.3102C76.7487 30.4706 77.319 30.6399 77.7646 30.8182C78.2102 30.9874 78.5889 31.2504 78.9008 31.6068C79.2216 31.9632 79.382 32.4445 79.382 33.0505C79.382 33.5673 79.2395 34.0352 78.9543 34.454C78.6781 34.8729 78.2547 35.2071 77.6844 35.4566C77.1141 35.706 76.419 35.8308 75.5991 35.8308Z" fill="#464B4E" />
	<path d="M0.560537 37.2016C0.774288 37.0523 0.929743 36.8378 1.1151 36.6562C1.35873 36.4181 1.58744 36.1619 1.82211 35.9135C2.18235 35.5325 2.54184 35.149 2.90433 34.7702C3.14124 34.5227 3.38489 34.2838 3.62181 34.0363C3.91478 33.7306 4.20102 33.4186 4.49325 33.113C4.78699 32.8065 5.08594 32.5055 5.37966 32.1991C5.67189 31.8934 5.95888 31.5806 6.25111 31.275C6.54108 30.9716 6.83555 30.6746 7.12555 30.3713C7.423 30.06 7.71672 29.7449 8.01418 29.433C8.29519 29.1384 8.57994 28.8467 8.86096 28.5522C9.17038 28.2283 9.47605 27.9006 9.78623 27.5785C10.0806 27.272 10.3804 26.9726 10.6741 26.6653C10.967 26.3597 11.2526 26.0461 11.5448 25.7396C11.8341 25.4371 12.1308 25.1417 12.4192 24.8382C12.849 24.3848 13.2839 23.9369 13.6943 23.4631C13.9521 23.166 14.2624 22.9248 14.6076 22.7299C14.9312 22.5476 15.263 22.5131 15.6158 22.5154C16.5567 22.5209 17.4984 22.5201 18.4393 22.5138C18.577 22.5131 18.6144 22.5515 18.6135 22.697C18.6121 24.8288 18.6127 26.9608 18.624 29.0919C18.6255 29.3804 18.3572 29.7002 18.0702 29.6868C17.5336 29.6616 16.9917 29.7096 16.4581 29.6586C15.9409 29.6098 15.4253 29.591 14.9103 29.6161C14.5074 29.6358 14.0971 29.6868 13.7122 29.8243C13.4117 29.9319 13.1367 30.1064 12.8632 30.2832C12.6053 30.4491 12.3333 30.5968 12.0673 30.7523C11.6173 31.0155 11.1733 31.2899 10.7204 31.5461C10.4626 31.6922 10.2062 31.84 9.95218 31.9931C9.51566 32.2564 9.07695 32.5157 8.63749 32.7728C8.35648 32.9369 8.06873 33.0894 7.7907 33.2575C7.39011 33.5003 6.98354 33.733 6.58368 33.9774C6.33107 34.1314 6.07622 34.2838 5.81688 34.4269C5.3505 34.6854 4.89385 34.9612 4.43722 35.2378C4.16441 35.4036 3.87966 35.5482 3.60836 35.7171C3.20028 35.971 2.77876 36.2004 2.3677 36.4488C2.08444 36.62 1.79745 36.7882 1.50822 36.9508C1.07997 37.1914 0.662928 37.4547 0.23991 37.7052C0.169655 37.747 0.0919279 37.7768 0 37.82C0.0994017 37.1104 0.196561 36.4166 0.292973 35.7219C0.449924 34.5871 0.604632 33.4524 0.761581 32.3185C0.952912 30.9355 1.14723 29.5524 1.33931 28.1693C1.54633 26.6771 1.75187 25.1849 1.96038 23.6925C2.1405 22.4007 2.32585 21.1096 2.50596 19.8177C2.67488 18.6044 2.84005 17.3903 3.00746 16.177C3.21076 14.7028 3.41404 13.2287 3.61882 11.7545C3.77576 10.626 3.92001 9.49523 4.0994 8.37151C4.22195 7.60533 4.45888 6.86745 4.7227 6.14057C4.9402 5.54099 5.20402 4.96499 5.5097 4.41177C5.77053 3.9395 6.07622 3.49787 6.40581 3.07353C6.73465 2.65154 7.10237 2.26885 7.49773 1.91995C7.79519 1.6567 8.11955 1.42566 8.45139 1.20564C8.89011 0.914102 9.35573 0.682286 9.83477 0.492118C10.2436 0.330239 10.6733 0.217868 11.1105 0.140858C11.9005 0.00098216 12.692 0.0882078 13.4821 0.0732772C14.8901 0.0465595 16.2997 0.0607042 17.7085 0.0559894C19.9939 0.0481312 22.2794 0.040273 24.565 0.0292716C25.529 0.0245566 26.4932 0.0214134 27.4573 0.000196334C27.8302 -0.00766184 28.0119 0.221011 28.0455 0.5707C28.0582 0.704288 28.0523 0.840235 28.0523 0.975396C28.0575 2.43151 28.0611 3.88685 28.0686 5.34297C28.0754 6.68199 28.0836 8.02104 28.0947 9.35927C28.097 9.61467 28.041 9.82527 27.8041 9.95413C27.7203 9.99971 27.6382 10.0029 27.5545 10.0037C26.6016 10.0146 25.6494 10.0233 24.6965 10.0312C23.1008 10.0445 21.5059 10.0555 19.9103 10.0681C18.5665 10.0791 17.2218 10.0917 15.8781 10.105C15.0366 10.1137 14.1943 10.0995 13.3541 10.1459C12.8915 10.1718 12.4484 10.3353 12.0463 10.6079C11.7704 10.7949 11.5127 11 11.2675 11.2304C10.9686 11.51 10.7092 11.8267 10.4655 12.156C10.1965 12.5206 9.94395 12.9002 9.74961 13.3151C9.58367 13.6702 9.44541 14.0395 9.29967 14.405C8.97904 15.2089 8.66141 16.0136 8.34302 16.8182C7.94691 17.821 7.55379 18.8252 7.15543 19.8271C6.6502 21.0993 6.139 22.3685 5.63376 23.6406C5.13825 24.8901 4.64872 26.1428 4.1532 27.393C3.67563 28.5976 3.19206 29.7991 2.71375 31.0039C2.18161 32.3429 1.65844 33.6866 1.12107 35.0233C0.852015 35.692 0.606874 36.371 0.309416 37.0263C0.303437 37.039 0.313154 37.0585 0.317637 37.097C0.440955 36.9768 0.485799 36.8251 0.55082 36.6923C1.10613 35.5686 1.65321 34.4409 2.20627 33.3164C2.72795 32.2564 3.2556 31.2003 3.77727 30.1409C4.26382 29.1517 4.74363 28.1592 5.23017 27.1698C5.74587 26.1208 6.26754 25.074 6.78399 24.0257C7.27951 23.02 7.76977 22.0118 8.26529 21.0059C8.75558 20.0111 9.25109 19.0186 9.74214 18.0237C10.0194 17.4618 10.284 16.8921 10.5687 16.3341C10.8527 15.777 11.1853 15.2522 11.559 14.7547C11.8729 14.3367 12.2181 13.9492 12.6016 13.6034C12.7877 13.4354 12.997 13.2923 13.2071 13.1579C13.7825 12.7893 14.408 12.6558 15.0845 12.6707C16.2122 12.6958 17.3408 12.6747 18.4693 12.6723C19.4865 12.6699 20.5036 12.6668 21.5201 12.6613C22.0694 12.659 22.6188 12.6558 23.1681 12.644C23.2929 12.6416 23.3198 12.6802 23.3191 12.809C23.3108 13.7489 23.3124 14.6886 23.3093 15.6285C23.3055 16.6972 23.2997 17.7659 23.2967 18.8347C23.2959 19.0304 23.3235 19.226 23.2839 19.4209C23.2315 19.6786 23.1359 19.754 22.8849 19.7549C20.9088 19.7579 18.9334 19.7651 16.9573 19.7706C16.5478 19.7714 16.1382 19.7823 15.7293 19.7674C15.361 19.7549 15.0015 19.8044 14.6412 19.8688C14.1972 19.9473 13.8602 20.2043 13.5844 20.5659C13.3355 20.8904 13.0822 21.2117 12.831 21.5347C12.4222 22.0589 12.0164 22.5855 11.6047 23.1063C11.3027 23.489 10.9903 23.8631 10.6883 24.2458C10.343 24.6835 10.0052 25.1283 9.66141 25.5675C9.3759 25.9322 9.08443 26.2913 8.79892 26.6567C8.49549 27.0441 8.20027 27.4394 7.8946 27.8244C7.48129 28.3454 7.05903 28.8594 6.64497 29.3795C6.31238 29.7976 5.98578 30.222 5.65619 30.6432C5.34153 31.0446 5.0239 31.4439 4.71001 31.8463C4.3677 32.2863 4.02988 32.7302 3.68683 33.1688C3.40134 33.5334 3.10687 33.8909 2.82212 34.257C2.41329 34.7821 1.99551 35.2975 1.58893 35.824C1.2399 36.2759 0.879668 36.7183 0.528399 37.1686C0.505978 37.1858 0.473839 37.1985 0.483556 37.2362C0.486546 37.2479 0.505978 37.2636 0.518683 37.2636C0.560537 37.266 0.559789 37.2322 0.560537 37.2016Z" fill="#186AB3" />
</svg>
