<svg viewBox="0 0 216 31" fill="none" xmlns="http://www.w3.org/2000/svg">
	<path d="M27.2341 30.06L18.6457 26.2057H4.86331C2.18852 26.2057 0 24.0168 0 21.3421V4.86331C0 2.18841 2.18852 0 4.86331 0H22.3708C25.0456 0 27.2341 2.18841 27.2341 4.86331V30.06Z" fill="#4B5BB2" />
	<path d="M15.8004 23.288H11.4338V20.3577H15.8004V23.288Z" fill="#D8DCF2" />
	<path d="M20.1699 16.7581C21.6059 16.7581 22.7803 16.4185 22.7803 14.4737C22.7803 12.5437 21.6059 12.1899 20.1699 12.1899V16.7581Z" fill="#FFFDFE" />
	<path d="M5.43286 15.6414C5.43286 18.5129 7.78177 20.862 10.6533 20.862H16.5809C19.4519 20.862 21.8016 18.5129 21.8016 15.6414V14.1479C21.8016 11.2764 19.4519 8.92743 16.5809 8.92743H10.6533C7.78177 8.92743 5.43286 11.2764 5.43286 14.1479V15.6414Z" fill="#FFFDFE" />
	<path d="M16.5809 18.0981C18.3473 18.0981 19.7842 16.6611 19.7842 14.8946C19.7842 13.1285 18.3473 11.6914 16.5809 11.6914H10.6533C8.88714 11.6914 7.4502 13.1285 7.4502 14.8946C7.4502 16.6611 8.88714 18.0981 10.6533 18.0981H16.5809Z" fill="#D8DCF2" />
	<path d="M15.9007 10.8852C15.9007 9.44932 15.5616 8.27484 13.6166 8.27484C11.6869 8.27484 11.3328 9.44932 11.3328 10.8852H15.9007Z" fill="#FFFDFE" />
	<path d="M12.6304 5.37793C12.6304 4.83234 13.0727 4.39075 13.6167 4.39075C14.1624 4.39075 14.6047 4.83234 14.6047 5.37793C14.6047 5.92352 14.1624 6.36511 13.6167 6.36511C13.0727 6.36511 12.6304 5.92352 12.6304 5.37793Z" fill="#FFFDFE" />
	<path d="M12.933 5.57966C12.933 5.03406 13.3753 4.59248 13.9193 4.59248C14.0563 4.59248 14.1868 4.62042 14.3055 4.67086C14.1275 4.49767 13.8847 4.39075 13.6167 4.39075C13.0727 4.39075 12.6304 4.83233 12.6304 5.37793C12.6304 5.78685 12.8789 6.13736 13.2326 6.28723C13.0479 6.10801 12.933 5.85746 12.933 5.57966Z" fill="#D8DCF2" />
	<path d="M13.2878 8.5674H13.9469V6.0918H13.2878V8.5674Z" fill="#FFFDFE" />
	<path d="M10.6533 8.92743H11.8385C9.43668 8.92743 6.53634 11.2764 6.53634 14.1479V15.6414C6.53634 18.5129 9.08698 20.862 11.9586 20.862H10.6533C7.78177 20.862 5.43286 18.5129 5.43286 15.6414V14.1479C5.43286 11.2764 7.78177 8.92743 10.6533 8.92743Z" fill="#D8DCF2" />
	<path d="M6.26946 12.2368C5.21883 12.3803 4.45386 12.9043 4.45386 14.4738C4.45386 15.9599 5.14921 16.5115 6.12452 16.6868C6.30184 16.7187 6.4341 12.2143 6.26946 12.2368Z" fill="#D8DCF2" />
	<path d="M11.6024 14.8946C11.6024 14.4208 11.2179 14.0372 10.745 14.0372C10.2711 14.0372 9.8877 14.4208 9.8877 14.8946C9.8877 15.3687 10.2711 15.7522 10.745 15.7522C11.2179 15.7522 11.6024 15.3687 11.6024 14.8946Z" fill="#4B5BB2" />
	<path d="M17.3466 14.8946C17.3466 14.4208 16.9632 14.0372 16.4893 14.0372C16.0153 14.0372 15.6318 14.4208 15.6318 14.8946C15.6318 15.3685 16.0153 15.7522 16.4893 15.7522C16.9632 15.7522 17.3466 15.3685 17.3466 14.8946Z" fill="#4B5BB2" />
	<path d="M13.617 22.4251C10.3942 22.4251 8.58838 23.8746 8.58838 26.2094V26.4754H18.6456V26.2094C18.6456 23.8746 16.8658 22.4251 13.617 22.4251Z" fill="white" />
	<path d="M37.3412 26.8441C36.6635 26.8441 36.0529 26.6972 35.5095 26.4035C34.9661 26.1034 34.5377 25.6916 34.2245 25.1681C33.9176 24.6445 33.7642 24.0603 33.7642 23.4155C33.7642 22.7706 33.9176 22.1864 34.2245 21.6629C34.5377 21.1393 34.9661 20.7307 35.5095 20.437C36.0529 20.137 36.6635 19.9869 37.3412 19.9869C38.0125 19.9869 38.6198 20.137 39.1632 20.437C39.7067 20.7307 40.1318 21.1393 40.4387 21.6629C40.7456 22.1801 40.899 22.7643 40.899 23.4155C40.899 24.0667 40.7456 24.6541 40.4387 25.1777C40.1318 25.6948 39.7067 26.1034 39.1632 26.4035C38.6198 26.6972 38.0125 26.8441 37.3412 26.8441ZM37.3412 25.9917C37.8334 25.9917 38.2746 25.88 38.6646 25.6565C39.0609 25.4331 39.371 25.1266 39.5948 24.7371C39.8249 24.3413 39.94 23.9007 39.94 23.4155C39.94 22.9302 39.8249 22.4929 39.5948 22.1034C39.371 21.7076 39.0609 21.3979 38.6646 21.1745C38.2746 20.951 37.8334 20.8393 37.3412 20.8393C36.8489 20.8393 36.4014 20.951 35.9986 21.1745C35.6022 21.3979 35.2889 21.7076 35.0588 22.1034C34.835 22.4929 34.7231 22.9302 34.7231 23.4155C34.7231 23.9007 34.835 24.3413 35.0588 24.7371C35.2889 25.1266 35.6022 25.4331 35.9986 25.6565C36.4014 25.88 36.8489 25.9917 37.3412 25.9917ZM44.0909 20.3604C43.5411 20.3604 43.2662 20.6573 43.2662 21.2511V21.6916H44.743V22.4482H43.2854V26.7674H42.3648V22.4482H41.5017V21.6916H42.3648V21.2415C42.3648 20.7371 42.5118 20.3381 42.8059 20.0444C43.1 19.7507 43.5123 19.6038 44.043 19.6038C44.2476 19.6038 44.4394 19.6294 44.6184 19.6804C44.7974 19.7315 44.9508 19.805 45.0787 19.9007L44.8006 20.5998C44.5896 20.4402 44.353 20.3604 44.0909 20.3604ZM47.4717 20.3604C46.9219 20.3604 46.647 20.6573 46.647 21.2511V21.6916H48.1238V22.4482H46.6662V26.7674H45.7455V22.4482H44.8824V21.6916H45.7455V21.2415C45.7455 20.7371 45.8926 20.3381 46.1867 20.0444C46.4808 19.7507 46.8931 19.6038 47.4238 19.6038C47.6283 19.6038 47.8201 19.6294 47.9991 19.6804C48.1782 19.7315 48.3316 19.805 48.4595 19.9007L48.1814 20.5998C47.9704 20.4402 47.7338 20.3604 47.4717 20.3604ZM53.5107 24.2583C53.5107 24.3285 53.5043 24.4211 53.4915 24.536H49.3679C49.4254 24.9829 49.6204 25.3437 49.9529 25.6182C50.2917 25.8864 50.7105 26.0204 51.2091 26.0204C51.8165 26.0204 52.3056 25.8161 52.6764 25.4075L53.1846 26.0013C52.9545 26.2694 52.6668 26.4737 52.3215 26.6142C51.9827 26.7547 51.6023 26.8249 51.1804 26.8249C50.6433 26.8249 50.167 26.7164 49.7515 26.4993C49.3359 26.2758 49.0131 25.9662 48.7829 25.5703C48.5591 25.1745 48.4473 24.7275 48.4473 24.2295C48.4473 23.7379 48.5559 23.2942 48.7733 22.8983C48.9971 22.5025 49.3008 22.196 49.6843 21.9789C50.0743 21.7555 50.5123 21.6437 50.9982 21.6437C51.484 21.6437 51.9156 21.7555 52.2928 21.9789C52.6764 22.196 52.9737 22.5025 53.1846 22.8983C53.402 23.2942 53.5107 23.7475 53.5107 24.2583ZM50.9982 22.4195C50.557 22.4195 50.1862 22.5536 49.8857 22.8217C49.5916 23.0899 49.419 23.441 49.3679 23.8752H52.6284C52.5773 23.4474 52.4015 23.0994 52.101 22.8313C51.8069 22.5567 51.4393 22.4195 50.9982 22.4195ZM55.6713 22.544C55.8311 22.2503 56.0677 22.0268 56.381 21.8736C56.6942 21.7204 57.0746 21.6437 57.5222 21.6437V22.5344C57.471 22.528 57.4007 22.5248 57.3112 22.5248C56.8125 22.5248 56.4193 22.6749 56.1316 22.9749C55.8503 23.2686 55.7097 23.69 55.7097 24.2391V26.7674H54.7891V21.6916H55.6713V22.544ZM58.6567 21.6916H59.5774V26.7674H58.6567V21.6916ZM59.1171 20.7148C58.9382 20.7148 58.7879 20.6573 58.6663 20.5424C58.5513 20.4275 58.4937 20.287 58.4937 20.121C58.4937 19.955 58.5513 19.8145 58.6663 19.6996C58.7879 19.5783 58.9382 19.5176 59.1171 19.5176C59.2961 19.5176 59.4431 19.5751 59.5582 19.69C59.6797 19.7986 59.7404 19.9358 59.7404 20.1018C59.7404 20.2742 59.6797 20.4211 59.5582 20.5424C59.4431 20.6573 59.2961 20.7148 59.1171 20.7148ZM64.0491 21.6437C64.695 21.6437 65.2064 21.8321 65.5835 22.2088C65.9671 22.5791 66.1589 23.125 66.1589 23.8465V26.7674H65.2382V23.9518C65.2382 23.4602 65.1201 23.0899 64.8834 22.8409C64.647 22.5919 64.308 22.4674 63.8669 22.4674C63.3682 22.4674 62.975 22.6142 62.6873 22.9079C62.3997 23.1952 62.2558 23.6102 62.2558 24.1529V26.7674H61.3352V21.6916H62.2174V22.4578C62.403 22.196 62.6523 21.9949 62.9655 21.8544C63.2853 21.714 63.6463 21.6437 64.0491 21.6437ZM72.7528 21.6916V26.0779C72.7528 26.9654 72.5323 27.6198 72.0911 28.0412C71.65 28.469 70.9914 28.6829 70.1156 28.6829C69.6361 28.6829 69.1789 28.6158 68.7443 28.4817C68.3096 28.354 67.9579 28.1689 67.6894 27.9263L68.1305 27.2176C68.3672 27.4219 68.658 27.5815 69.0032 27.6964C69.3549 27.8177 69.716 27.8784 70.0869 27.8784C70.6814 27.8784 71.1195 27.7379 71.4007 27.457C71.6884 27.1761 71.8322 26.7483 71.8322 26.1737V25.7714C71.6148 26.0332 71.3463 26.2311 71.0267 26.3652C70.7133 26.4929 70.3714 26.5568 70.0006 26.5568C69.5146 26.5568 69.0735 26.4546 68.6772 26.2503C68.2871 26.0396 67.9802 25.7491 67.7565 25.3788C67.5329 25.0021 67.4209 24.5743 67.4209 24.0955C67.4209 23.6166 67.5329 23.192 67.7565 22.8217C67.9802 22.445 68.2871 22.1545 68.6772 21.9502C69.0735 21.7459 69.5146 21.6437 70.0006 21.6437C70.3842 21.6437 70.739 21.714 71.065 21.8544C71.3976 21.9949 71.6692 22.2024 71.8802 22.4769V21.6916H72.7528ZM70.106 25.7523C70.4386 25.7523 70.7359 25.6821 70.9979 25.5416C71.2664 25.4011 71.4743 25.2064 71.6212 24.9574C71.7747 24.702 71.8514 24.4147 71.8514 24.0955C71.8514 23.6038 71.6884 23.208 71.3623 22.9079C71.0363 22.6014 70.6174 22.4482 70.106 22.4482C69.5882 22.4482 69.1662 22.6014 68.8402 22.9079C68.5141 23.208 68.3511 23.6038 68.3511 24.0955C68.3511 24.4147 68.4247 24.702 68.5717 24.9574C68.7251 25.2064 68.933 25.4011 69.195 25.5416C69.4635 25.6821 69.7673 25.7523 70.106 25.7523ZM75.9695 26.8249C75.554 26.8249 75.1544 26.7706 74.7708 26.6621C74.3872 26.5472 74.0868 26.4035 73.8693 26.2311L74.2529 25.5033C74.4769 25.6629 74.7485 25.7906 75.0681 25.8864C75.3879 25.9821 75.7106 26.03 76.0366 26.03C76.8422 26.03 77.245 25.8002 77.245 25.3405C77.245 25.1872 77.1908 25.0659 77.0819 24.9765C76.9733 24.8872 76.836 24.8233 76.6696 24.785C76.5099 24.7403 76.2797 24.6924 75.9791 24.6413C75.5701 24.5775 75.2345 24.5041 74.9722 24.4211C74.7166 24.3381 74.496 24.1976 74.3105 23.9997C74.1251 23.8018 74.0324 23.524 74.0324 23.1665C74.0324 22.7068 74.2242 22.3397 74.6078 22.0651C74.9913 21.7842 75.5061 21.6437 76.1517 21.6437C76.4907 21.6437 76.8295 21.6852 77.1682 21.7682C77.5072 21.8512 77.7854 21.963 78.0026 22.1034L77.6094 22.8313C77.1939 22.5631 76.7048 22.4291 76.1421 22.4291C75.7523 22.4291 75.455 22.4929 75.2503 22.6206C75.0458 22.7483 74.9434 22.9175 74.9434 23.1282C74.9434 23.2942 75.0009 23.4251 75.116 23.5208C75.2311 23.6166 75.3718 23.6868 75.538 23.7315C75.7106 23.7762 75.9503 23.8273 76.2572 23.8848C76.6665 23.955 76.9956 24.0316 77.245 24.1146C77.5008 24.1912 77.7182 24.3253 77.8971 24.5168C78.0762 24.7084 78.1656 24.9765 78.1656 25.3213C78.1656 25.781 77.9676 26.1481 77.571 26.4227C77.1812 26.6908 76.6473 26.8249 75.9695 26.8249Z" fill="#5F6163" />
	<path d="M33.7642 3.16272H37.5252V16.4594H33.7642V3.16272ZM53.8016 3.16272V16.4594H50.7054L44.8359 9.37417V16.4594H41.1508V3.16272H44.247L50.1166 10.248V3.16272H53.8016ZM70.8539 3.16272L65.1553 16.4594H61.4512L55.7716 3.16272H59.8366L63.4457 11.8246L67.1308 3.16272H70.8539ZM83.2573 13.5531V16.4594H72.582V3.16272H83.0103V6.069H76.3051V8.31044H82.2125V11.1217H76.3051V13.5531H83.2573ZM90.967 16.7253C89.8909 16.7253 88.8461 16.5924 87.8327 16.3264C86.8198 16.0605 85.9968 15.7059 85.3634 15.2627L86.598 12.4894C87.1936 12.882 87.8836 13.1985 88.6685 13.4392C89.454 13.6798 90.2261 13.8001 90.986 13.8001C92.4296 13.8001 93.1514 13.4392 93.1514 12.7173C93.1514 12.3374 92.9425 12.0588 92.5246 11.8815C92.1195 11.6916 91.4608 11.4953 90.5491 11.2927C89.549 11.0774 88.7132 10.8495 88.0417 10.6089C87.3707 10.3556 86.7946 9.95671 86.3131 9.41217C85.8321 8.86762 85.5913 8.13317 85.5913 7.20871C85.5913 6.39825 85.8131 5.6701 86.2561 5.02426C86.6997 4.36576 87.3579 3.84655 88.2316 3.46665C89.1182 3.08674 90.201 2.89679 91.4798 2.89679C92.3536 2.89679 93.215 2.9981 94.0632 3.20071C94.9118 3.39067 95.6588 3.6756 96.3046 4.0555L95.1459 6.8478C93.8799 6.16398 92.6514 5.82206 91.4608 5.82206C90.7138 5.82206 90.1692 5.93603 89.8272 6.16398C89.4853 6.37925 89.3144 6.66418 89.3144 7.01876C89.3144 7.37334 89.5171 7.63929 89.9222 7.81656C90.3278 7.99384 90.9798 8.17747 91.8787 8.36743C92.8921 8.58269 93.7279 8.817 94.3861 9.07025C95.0576 9.31087 95.6336 9.70341 96.1147 10.248C96.6086 10.7798 96.8555 11.508 96.8555 12.4324C96.8555 13.2302 96.6342 13.952 96.1907 14.5979C95.7476 15.2437 95.0828 15.7629 94.1962 16.1555C93.31 16.5354 92.2335 16.7253 90.967 16.7253ZM102.187 6.14498H98.1035V3.16272H110.014V6.14498H105.949V16.4594H102.187V6.14498ZM124.37 16.4594L124.332 9.41217L120.913 15.1487H119.241L115.841 9.60212V16.4594H112.365V3.16272H115.461L120.134 10.8368L124.693 3.16272H127.789L127.827 16.4594H124.37ZM142.113 13.5531V16.4594H131.438V3.16272H141.866V6.069H135.161V8.31044H141.068V11.1217H135.161V13.5531H142.113ZM157.801 3.16272V16.4594H154.705L148.835 9.37417V16.4594H145.15V3.16272H148.246L154.116 10.248V3.16272H157.801ZM164.234 6.14498H160.15V3.16272H172.06V6.14498H167.995V16.4594H164.234V6.14498Z" fill="#4B5BB2" />
	<path d="M183.623 9.60213C184.497 9.79209 185.168 10.172 185.637 10.7418C186.118 11.299 186.359 12.0208 186.359 12.9073C186.359 14.047 185.935 14.9271 185.086 15.5476C184.25 16.1555 183.009 16.4594 181.363 16.4594H175.247V3.16274H180.983C182.465 3.16274 183.611 3.46033 184.421 4.05552C185.244 4.6507 185.656 5.49283 185.656 6.58189C185.656 7.31637 185.472 7.94323 185.105 8.46242C184.75 8.96897 184.257 9.34888 183.623 9.60213ZM176.652 4.32145V9.14625H180.888C181.965 9.14625 182.794 8.94361 183.377 8.5384C183.959 8.1205 184.25 7.51898 184.25 6.73385C184.25 5.94871 183.959 5.35352 183.377 4.94829C182.794 4.5304 181.965 4.32145 180.888 4.32145H176.652ZM181.344 15.3007C182.535 15.3007 183.434 15.0981 184.041 14.6929C184.649 14.2876 184.953 13.6544 184.953 12.7933C184.953 11.1344 183.75 10.305 181.344 10.305H176.652V15.3007H181.344ZM196.329 16.5734C195.013 16.5734 193.816 16.2821 192.739 15.6996C191.676 15.1044 190.84 14.294 190.232 13.2682C189.637 12.2425 189.339 11.0901 189.339 9.81108C189.339 8.53208 189.637 7.37969 190.232 6.35394C190.84 5.3282 191.676 4.52407 192.739 3.94154C193.816 3.34636 195.013 3.04877 196.329 3.04877C197.646 3.04877 198.831 3.34003 199.882 3.92255C200.945 4.50507 201.781 5.31553 202.389 6.35394C202.997 7.37969 203.301 8.53208 203.301 9.81108C203.301 11.0901 202.997 12.2488 202.389 13.2872C201.781 14.313 200.945 15.1171 199.882 15.6996C198.831 16.2821 197.646 16.5734 196.329 16.5734ZM196.329 15.3197C197.38 15.3197 198.33 15.0854 199.179 14.6169C200.027 14.1357 200.692 13.4772 201.173 12.6414C201.654 11.7929 201.895 10.8495 201.895 9.81108C201.895 8.77266 201.654 7.83557 201.173 6.99978C200.692 6.15133 200.027 5.49283 199.179 5.02427C198.33 4.54306 197.38 4.30245 196.329 4.30245C195.279 4.30245 194.322 4.54306 193.461 5.02427C192.613 5.49283 191.942 6.15133 191.448 6.99978C190.967 7.83557 190.726 8.77266 190.726 9.81108C190.726 10.8495 190.967 11.7929 191.448 12.6414C191.942 13.4772 192.613 14.1357 193.461 14.6169C194.322 15.0854 195.279 15.3197 196.329 15.3197ZM209.799 4.37844H205.126V3.16274H215.877V4.37844H211.205V16.4594H209.799V4.37844Z" fill="#5F6163" />
</svg>
