<svg viewBox="0 0 185 38" fill="none" xmlns="http://www.w3.org/2000/svg">
	<path d="M29.582 12.3833C30.0949 12.3833 30.5119 12.8 30.5119 13.3128C30.5119 13.8246 30.0949 14.2423 29.582 14.2423C29.0697 14.2423 28.6528 13.8246 28.6528 13.3128C28.6528 12.8 29.0697 12.3833 29.582 12.3833ZM22.8934 19.0725C22.8934 18.5598 23.3103 18.143 23.8228 18.143C24.3352 18.143 24.7522 18.5598 24.7522 19.0725C24.7522 19.5844 24.3352 20.002 23.8228 20.002C23.3103 20.002 22.8934 19.5844 22.8934 19.0725ZM29.582 23.9027C30.0949 23.9027 30.5119 24.3195 30.5119 24.8322C30.5119 25.3441 30.0949 25.7617 29.582 25.7617C29.0697 25.7617 28.6528 25.3441 28.6528 24.8322C28.6528 24.3195 29.0697 23.9027 29.582 23.9027ZM28.4637 15.5228C28.8 15.6937 29.1801 15.7898 29.582 15.7898C30.9482 15.7898 32.0595 14.6784 32.0595 13.3128C32.0595 11.9463 30.9482 10.8358 29.582 10.8358C28.2164 10.8358 27.1052 11.9463 27.1052 13.3128C27.1052 13.7147 27.2013 14.0954 27.3723 14.4307C27.3583 14.4437 27.3445 14.4557 27.3315 14.4686L24.9391 16.8615C24.6034 16.6906 24.2241 16.5955 23.8228 16.5955C22.4567 16.5955 21.3455 17.7061 21.3455 19.0725C21.3455 20.4381 22.4567 21.5495 23.8228 21.5495C24.2241 21.5495 24.6034 21.4534 24.9391 21.2835L27.3315 23.6755C27.3445 23.6885 27.3583 23.7014 27.3723 23.7135C27.2013 24.0497 27.1052 24.4293 27.1052 24.8322C27.1052 26.1979 28.2164 27.3092 29.582 27.3092C30.9482 27.3092 32.0595 26.1979 32.0595 24.8322C32.0595 23.4658 30.9482 22.3553 29.582 22.3553C29.1801 22.3553 28.8 22.4504 28.4637 22.6222C28.4517 22.6084 28.4391 22.5945 28.4261 22.5806L26.0338 20.1886C26.2037 19.8533 26.3001 19.4744 26.3001 19.0725C26.3001 18.6706 26.2037 18.291 26.0338 17.9555L28.4261 15.5635C28.4391 15.5496 28.4517 15.5357 28.4637 15.5228ZM35.3419 20.002C34.8294 20.002 34.4124 19.5844 34.4124 19.0725C34.4124 18.5598 34.8294 18.143 35.3419 18.143C35.8543 18.143 36.2713 18.5598 36.2713 19.0725C36.2713 19.5844 35.8543 20.002 35.3419 20.002ZM35.3419 16.5955C33.9758 16.5955 32.8645 17.7061 32.8645 19.0725C32.8645 20.4381 33.9758 21.5495 35.3419 21.5495C36.7079 21.5495 37.8191 20.4381 37.8191 19.0725C37.8191 17.7061 36.7079 16.5955 35.3419 16.5955ZM18.7473 36.2713C18.2349 36.2713 17.8177 35.8545 17.8177 35.3421C17.8177 34.8292 18.2349 34.4122 18.7473 34.4122C19.2597 34.4122 19.6767 34.8292 19.6767 35.3421C19.6767 35.8545 19.2597 36.2713 18.7473 36.2713ZM18.7473 32.8648C17.3812 32.8648 16.2697 33.9763 16.2697 35.3421C16.2697 36.7085 17.3812 37.82 18.7473 37.82C20.113 37.82 21.2246 36.7085 21.2246 35.3421C21.2246 33.9763 20.113 32.8648 18.7473 32.8648ZM24.507 30.5124C23.9947 30.5124 23.5774 30.0947 23.5774 29.5824C23.5774 29.0693 23.9947 28.6527 24.507 28.6527C25.0196 28.6527 25.4364 29.0693 25.4364 29.5824C25.4364 30.0947 25.0196 30.5124 24.507 30.5124ZM17.8177 23.8233C17.8177 23.3096 18.2349 22.893 18.7473 22.893C19.2597 22.893 19.6767 23.3096 19.6767 23.8233C19.6767 24.3352 19.2597 24.7528 18.7473 24.7528C18.2349 24.7528 17.8177 24.3352 17.8177 23.8233ZM12.9873 30.5124C12.4748 30.5124 12.0579 30.0947 12.0579 29.5824C12.0579 29.0693 12.4748 28.6527 12.9873 28.6527C13.5005 28.6527 13.9169 29.0693 13.9169 29.5824C13.9169 30.0947 13.5005 30.5124 12.9873 30.5124ZM24.507 27.1051C24.1046 27.1051 23.7242 27.2021 23.3883 27.373C23.3764 27.3592 23.3637 27.3453 23.3508 27.3323L20.9583 24.9394C21.1286 24.6031 21.2246 24.2243 21.2246 23.8233C21.2246 22.4569 20.113 21.3454 18.7473 21.3454C17.3812 21.3454 16.2697 22.4569 16.2697 23.8233C16.2697 24.2243 16.3658 24.6031 16.5365 24.9394L14.1436 27.3323C14.1306 27.3453 14.1184 27.3592 14.1061 27.373C13.7701 27.2021 13.3897 27.1051 12.9873 27.1051C11.622 27.1051 10.51 28.2166 10.51 29.5824C10.51 30.9486 11.622 32.0592 12.9873 32.0592C14.3533 32.0592 15.4649 30.9486 15.4649 29.5824C15.4649 29.1803 15.3685 28.8005 15.1975 28.4642C15.2115 28.4522 15.2249 28.4392 15.2379 28.4262L17.6311 26.0342C17.9662 26.2042 18.346 26.3004 18.7473 26.3004C19.1483 26.3004 19.5279 26.2042 19.8637 26.0342L22.2565 28.4262C22.2695 28.4392 22.2828 28.4522 22.2969 28.4642C22.1261 28.8005 22.0294 29.1803 22.0294 29.5824C22.0294 30.9486 23.1409 32.0592 24.507 32.0592C25.8732 32.0592 26.9843 30.9486 26.9843 29.5824C26.9843 28.2166 25.8732 27.1051 24.507 27.1051ZM2.47731 19.6768C1.9648 19.6768 1.54794 19.26 1.54794 18.7473C1.54794 18.2354 1.9648 17.8178 2.47731 17.8178C2.98981 17.8178 3.40668 18.2354 3.40668 18.7473C3.40668 19.26 2.98981 19.6768 2.47731 19.6768ZM2.47731 16.2702C1.11129 16.2702 0 17.3817 0 18.7473C0 20.1138 1.11129 21.2243 2.47731 21.2243C3.84334 21.2243 4.95453 20.1138 4.95453 18.7473C4.95453 17.3817 3.84334 16.2702 2.47731 16.2702ZM8.23704 25.4366C7.72454 25.4366 7.30766 25.0197 7.30766 24.507C7.30766 23.9951 7.72454 23.5775 8.23704 23.5775C8.74954 23.5775 9.16632 23.9951 9.16632 24.507C9.16632 25.0197 8.74954 25.4366 8.23704 25.4366ZM14.9257 18.7473C14.9257 19.26 14.5093 19.6768 13.9968 19.6768C13.4843 19.6768 13.067 19.26 13.067 18.7473C13.067 18.2354 13.4843 17.8178 13.9968 17.8178C14.5093 17.8178 14.9257 18.2354 14.9257 18.7473ZM8.23704 13.917C7.72454 13.917 7.30766 13.5003 7.30766 12.9876C7.30766 12.4757 7.72454 12.0581 8.23704 12.0581C8.74954 12.0581 9.16632 12.4757 9.16632 12.9876C9.16632 13.5003 8.74954 13.917 8.23704 13.917ZM10.4472 23.3891C10.4606 23.3761 10.4747 23.3641 10.4876 23.3512L12.8801 20.9583C13.2158 21.1292 13.595 21.2243 13.9968 21.2243C15.3628 21.2243 16.4735 20.1138 16.4735 18.7473C16.4735 17.3817 15.3628 16.2702 13.9968 16.2702C13.595 16.2702 13.2158 16.3664 12.8801 16.5364L10.4876 14.1443C10.4747 14.1314 10.4606 14.1185 10.4472 14.1064C10.6175 13.7701 10.7139 13.3904 10.7139 12.9876C10.7139 11.622 9.60305 10.5105 8.23704 10.5105C6.87102 10.5105 5.75973 11.622 5.75973 12.9876C5.75973 14.354 6.87102 15.4646 8.23704 15.4646C8.6394 15.4646 9.01914 15.3694 9.35507 15.1976C9.36737 15.2114 9.38003 15.2253 9.39305 15.2392L11.7855 17.6312C11.6155 17.9666 11.5195 18.3454 11.5195 18.7473C11.5195 19.1493 11.6155 19.5289 11.7855 19.8644L9.39305 22.2564C9.38003 22.2703 9.36737 22.284 9.35507 22.297C9.01914 22.1261 8.6394 22.0301 8.23704 22.0301C6.87102 22.0301 5.75973 23.1414 5.75973 24.507C5.75973 25.8735 6.87102 26.984 8.23704 26.984C9.60305 26.984 10.7139 25.8735 10.7139 24.507C10.7139 24.1051 10.6175 23.7245 10.4472 23.3891ZM19.0717 1.54849C19.5843 1.54849 20.0016 1.96518 20.0016 2.47703C20.0016 2.99073 19.5843 3.40742 19.0717 3.40742C18.5593 3.40742 18.1425 2.99073 18.1425 2.47703C18.1425 1.96518 18.5593 1.54849 19.0717 1.54849ZM19.0717 4.95499C20.4378 4.95499 21.5495 3.84352 21.5495 2.47703C21.5495 1.11148 20.4378 0 19.0717 0C17.7058 0 16.5946 1.11148 16.5946 2.47703C16.5946 3.84352 17.7058 4.95499 19.0717 4.95499ZM13.3121 7.30823C13.8245 7.30823 14.2414 7.72491 14.2414 8.23768C14.2414 8.75047 13.8245 9.16715 13.3121 9.16715C12.7996 9.16715 12.3828 8.75047 12.3828 8.23768C12.3828 7.72491 12.7996 7.30823 13.3121 7.30823ZM20.0016 13.9965C20.0016 14.5093 19.5843 14.9269 19.0717 14.9269C18.5593 14.9269 18.1425 14.5093 18.1425 13.9965C18.1425 13.4846 18.5593 13.067 19.0717 13.067C19.5843 13.067 20.0016 13.4846 20.0016 13.9965ZM24.8314 7.30823C25.344 7.30823 25.7613 7.72491 25.7613 8.23768C25.7613 8.75047 25.344 9.16715 24.8314 9.16715C24.3191 9.16715 23.9022 8.75047 23.9022 8.23768C23.9022 7.72491 24.3191 7.30823 24.8314 7.30823ZM13.3121 10.7147C13.7145 10.7147 14.0945 10.6177 14.4309 10.4468C14.4428 10.4606 14.4554 10.4745 14.4684 10.4874L16.8609 12.8804C16.691 13.2158 16.5946 13.5955 16.5946 13.9965C16.5946 15.363 17.7058 16.4745 19.0717 16.4745C20.4378 16.4745 21.5495 15.363 21.5495 13.9965C21.5495 13.5955 21.4534 13.2158 21.2827 12.8804L23.6755 10.4874C23.6889 10.4745 23.7008 10.4606 23.7131 10.4468C24.0491 10.6177 24.4295 10.7147 24.8314 10.7147C26.1976 10.7147 27.3092 9.60324 27.3092 8.23768C27.3092 6.87121 26.1976 5.75973 24.8314 5.75973C23.4655 5.75973 22.3543 6.87121 22.3543 8.23768C22.3543 8.63959 22.451 9.01932 22.6217 9.35564C22.608 9.36765 22.5942 9.38058 22.5812 9.39352L20.1884 11.7855C19.8528 11.6155 19.4735 11.5195 19.0717 11.5195C18.6706 11.5195 18.2911 11.6155 17.9552 11.7855L15.5631 9.39352C15.5497 9.38058 15.5364 9.36765 15.5222 9.35564C15.6934 9.01932 15.7897 8.63959 15.7897 8.23768C15.7897 6.87121 14.6782 5.75973 13.3121 5.75973C11.946 5.75973 10.8352 6.87121 10.8352 8.23768C10.8352 9.60324 11.946 10.7147 13.3121 10.7147Z" fill="url(#paint0_linear_158_2983)" />
	<path d="M41.8362 6.04486H46.0347V20.888H41.8362V6.04486ZM64.2041 6.04486V20.888H60.7478L54.1956 12.9787V20.888H50.0819V6.04486H53.5382L60.0904 13.9541V6.04486H64.2041ZM68.2258 6.04486H75.2445C76.8703 6.04486 78.3122 6.3488 79.5703 6.95666C80.8284 7.56451 81.8038 8.42684 82.4965 9.54361C83.1893 10.6604 83.5355 11.968 83.5355 13.4664C83.5355 14.9649 83.1893 16.2726 82.4965 17.3893C81.8038 18.506 80.8284 19.3684 79.5703 19.9762C78.3122 20.584 76.8703 20.888 75.2445 20.888H68.2258V6.04486ZM75.0749 17.5377C76.3472 17.5377 77.365 17.1772 78.1283 16.4563C78.906 15.7353 79.2946 14.7387 79.2946 13.4664C79.2946 12.1942 78.906 11.1976 78.1283 10.4766C77.365 9.75565 76.3472 9.39518 75.0749 9.39518H72.4243V17.5377H75.0749ZM98.7216 17.6437V20.888H86.8046V6.04486H98.4459V9.28915H90.9607V11.7913H97.5553V14.9296H90.9607V17.6437H98.7216ZM111.36 20.888L108.285 16.2866L105.253 20.888H100.461L105.868 13.3816L100.694 6.04486H105.423L108.391 10.3282L111.317 6.04486H115.855L110.681 13.212L116.194 20.888H111.36ZM121.184 7.40195V13.2332H128.86V14.5903H121.184V20.888H119.615V6.04486H129.793V7.40195H121.184ZM140.073 21.0153C138.151 21.0153 136.652 20.4639 135.578 19.3613C134.504 18.2587 133.966 16.6542 133.966 14.5479V6.04486H135.535V14.4843C135.535 16.2089 135.924 17.4953 136.702 18.3435C137.479 19.1917 138.603 19.6158 140.073 19.6158C141.558 19.6158 142.689 19.1917 143.466 18.3435C144.243 17.4953 144.632 16.2089 144.632 14.4843V6.04486H146.159V14.5479C146.159 16.6542 145.622 18.2587 144.547 19.3613C143.487 20.4639 141.996 21.0153 140.073 21.0153ZM164.352 6.04486V20.888H163.058L153.517 8.84386V20.888H151.948V6.04486H153.241L162.805 18.089V6.04486H164.352ZM170.256 6.04486H176.3C177.87 6.04486 179.256 6.36293 180.457 6.99906C181.658 7.62107 182.591 8.49751 183.256 9.62843C183.921 10.7452 184.251 12.0245 184.251 13.4664C184.251 14.9084 183.921 16.1947 183.256 17.3257C182.591 18.4424 181.658 19.3189 180.457 19.955C179.256 20.5771 177.87 20.888 176.3 20.888H170.256V6.04486ZM176.216 19.5309C177.517 19.5309 178.654 19.2765 179.629 18.7676C180.606 18.2446 181.362 17.5306 181.898 16.6259C182.436 15.707 182.704 14.6539 182.704 13.4664C182.704 12.279 182.436 11.2329 181.898 10.3282C181.362 9.40931 180.606 8.69543 179.629 8.18652C178.654 7.66348 177.517 7.40195 176.216 7.40195H171.826V19.5309H176.216Z" fill="#464B4E" />
	<path d="M42.9233 25.265H40.393V24.6067H46.2148V25.265H43.6845V31.8068H42.9233V25.265ZM50.4777 31.8685C49.7646 31.8685 49.1166 31.7107 48.5337 31.3953C47.9577 31.073 47.5051 30.6342 47.176 30.0788C46.8538 29.5233 46.6925 28.8994 46.6925 28.2067C46.6925 27.5141 46.8538 26.8902 47.176 26.3347C47.5051 25.7793 47.9577 25.3438 48.5337 25.0284C49.1166 24.7061 49.7646 24.545 50.4777 24.545C51.1909 24.545 51.8321 24.7028 52.4011 25.0182C52.9771 25.3335 53.4297 25.7725 53.7588 26.3347C54.088 26.8902 54.2526 27.5141 54.2526 28.2067C54.2526 28.8994 54.088 29.5268 53.7588 30.089C53.4297 30.6445 52.9771 31.08 52.4011 31.3953C51.8321 31.7107 51.1909 31.8685 50.4777 31.8685ZM50.4777 31.1896C51.0469 31.1896 51.5612 31.0627 52.0206 30.8091C52.4801 30.5484 52.8401 30.1919 53.1006 29.7393C53.3612 29.28 53.4914 28.769 53.4914 28.2067C53.4914 27.6445 53.3612 27.137 53.1006 26.6845C52.8401 26.2251 52.4801 25.8684 52.0206 25.6147C51.5612 25.3541 51.0469 25.2239 50.4777 25.2239C49.9086 25.2239 49.3909 25.3541 48.9245 25.6147C48.4652 25.8684 48.1017 26.2251 47.8342 26.6845C47.5738 27.137 47.4434 27.6445 47.4434 28.2067C47.4434 28.769 47.5738 29.28 47.8342 29.7393C48.1017 30.1919 48.4652 30.5484 48.9245 30.8091C49.3909 31.0627 49.9086 31.1896 50.4777 31.1896ZM58.1908 28.4228L56.7199 29.9142V31.8068H55.9587V24.6067H56.7199V28.9576L60.9473 24.6067H61.8216L58.705 27.8673L62.0376 31.8068H61.1325L58.1908 28.4228ZM68.3627 31.1485V31.8068H63.2713V24.6067H68.2085V25.265H64.0324V27.8262H67.7559V28.4742H64.0324V31.1485H68.3627ZM76.169 24.6067V31.8068H75.5416L70.913 25.9645V31.8068H70.1518V24.6067H70.7793L75.4182 30.449V24.6067H76.169ZM80.5042 31.8685C79.9694 31.8685 79.4551 31.7827 78.9614 31.6113C78.4746 31.44 78.0974 31.2137 77.8299 30.9325L78.1282 30.3462C78.3889 30.6068 78.7351 30.8193 79.1671 30.9839C79.5991 31.1417 80.0449 31.2205 80.5042 31.2205C81.1489 31.2205 81.6323 31.1039 81.9545 30.8708C82.2769 30.6307 82.438 30.3221 82.438 29.945C82.438 29.657 82.3489 29.4273 82.1705 29.2559C81.9992 29.0845 81.7866 28.9541 81.5328 28.865C81.2792 28.769 80.926 28.6661 80.4734 28.5565C79.9317 28.4193 79.4997 28.289 79.1774 28.1656C78.8552 28.0354 78.5775 27.8399 78.3442 27.5793C78.1179 27.3187 78.0048 26.9657 78.0048 26.5199C78.0048 26.1564 78.1008 25.8273 78.2928 25.5324C78.4849 25.2307 78.7797 24.9908 79.1774 24.8124C79.5752 24.6341 80.0689 24.545 80.6585 24.545C81.07 24.545 81.4711 24.6032 81.862 24.7199C82.2598 24.8295 82.6025 24.9838 82.8905 25.1827L82.6334 25.7896C82.3318 25.5907 82.0094 25.4434 81.6665 25.3473C81.3238 25.2444 80.9877 25.193 80.6585 25.193C80.0278 25.193 79.5511 25.3164 79.2288 25.5633C78.9134 25.8034 78.7557 26.1153 78.7557 26.4993C78.7557 26.7873 78.8414 27.0204 79.0128 27.1987C79.1911 27.3701 79.4106 27.5038 79.6711 27.5999C79.9385 27.689 80.2952 27.7885 80.7408 27.8982C81.2689 28.0284 81.6941 28.1588 82.0162 28.289C82.3454 28.4125 82.6231 28.6044 82.8494 28.865C83.0757 29.1187 83.1888 29.4651 83.1888 29.9039C83.1888 30.2674 83.0894 30.5999 82.8905 30.9016C82.6986 31.1964 82.4003 31.433 81.9957 31.6113C81.5912 31.7827 81.094 31.8685 80.5042 31.8685Z" fill="#464B4E" />
	<defs>
		<linearGradient id="paint0_linear_158_2983" x1="22.8621" y1="36.9781" x2="16.558" y2="8.15998" gradientUnits="userSpaceOnUse">
			<stop stop-color="#EE209A" />
			<stop offset="1" stop-color="#F78E11" />
		</linearGradient>
	</defs>
</svg>
