<svg viewBox="0 0 104 38" fill="none" xmlns="http://www.w3.org/2000/svg">
	<path d="M37.7899 19.3416C37.7899 29.5469 29.5171 37.82 19.3118 37.82C9.10661 37.82 0.833618 29.5469 0.833618 19.3416C0.833618 9.13651 9.10661 0.863586 19.3118 0.863586C29.5171 0.863586 37.7899 9.13651 37.7899 19.3416Z" fill="#100F0D" />
	<path d="M8.42903 18.775C8.72208 18.775 8.91912 18.972 8.91912 19.2651L8.914 20.6212H10.2991C10.5854 20.6212 10.8175 20.8533 10.8175 21.1397V22.6958H12.3703C12.6807 22.6958 12.8893 22.8927 12.8893 23.1857V24.781H14.3302V11.6988H25.5639V7.26229H21.9626C21.6698 7.26229 21.4726 7.05453 21.4726 6.74595V4.18429L30.4165 4.17813C27.2055 1.56818 23.1155 0 18.6646 0C8.37288 0 0 8.3728 0 18.6645C0 24.006 2.25869 28.8265 5.86686 32.2319V18.775H8.42903Z" fill="#BE34A1" />
	<path d="M33.422 7.25729L28.642 7.26232V20.0284C28.642 20.3924 28.3468 20.6878 27.9827 20.6878H25.564V14.7769H17.4085V18.3306H21.7908V20.8924C21.7908 21.1855 21.583 21.3822 21.2744 21.3822H17.4085V27.3082C17.4085 27.3185 17.4063 27.328 17.4059 27.338V29.3883C17.4059 29.697 17.2088 29.9044 16.9157 29.9044H14.3536V27.5663H12.4151L12.4155 25.5207H10.3696V23.4095H8.91394V34.5722C11.7536 36.3192 15.093 37.3292 18.6645 37.3292C28.9563 37.3292 37.329 28.9564 37.329 18.6647C37.329 14.3709 35.8681 10.4144 33.422 7.25729Z" fill="#00ABC7" />
	<path d="M10.3697 23.4092V25.5205H12.4154L12.4152 27.5662H14.3536V29.9043H16.9159C17.2088 29.9043 17.406 29.6969 17.406 29.3882V27.3378C17.4065 27.3278 17.4085 27.3183 17.4085 27.3081V21.3819H21.2746C21.5832 21.3819 21.7909 21.1853 21.7909 20.8924V18.3303H17.4085V14.7766H25.5641V20.6875H27.9828C28.3469 20.6875 28.6422 20.3923 28.6422 20.0282V7.26195L33.4222 7.25688C32.541 6.11926 31.5329 5.08494 30.4166 4.17778L21.4727 4.18405V6.74583C21.4727 7.05449 21.6699 7.26195 21.9627 7.26195H25.5641V11.6987H14.3303V24.7809H12.8894V23.1856C12.8894 22.8927 12.6808 22.6957 12.3704 22.6957H10.8176V21.1395C10.8176 20.8533 10.5854 20.621 10.2991 20.621H8.91402L8.91915 19.2649C8.91915 18.9718 8.7221 18.7747 8.42906 18.7747H5.86688V32.2318C6.79838 33.1111 7.81769 33.8976 8.91402 34.5721V23.4092H10.3697Z" fill="white" />
	<path d="M16.6459 1.59347C9.18488 2.56673 3.20294 8.24503 1.77466 15.553C3.88701 8.6383 9.55391 3.2753 16.6459 1.59347Z" fill="#100F0D" />
	<path d="M52.1851 35.6589L52.1733 29.5969L49.166 34.6485H48.6193L45.612 29.6325V35.6589H44.4709V27.3385H45.4456L48.9164 33.1865L52.3397 27.3385H53.3143L53.3262 35.6589H52.1851ZM61.1246 33.5788H56.7029L55.7877 35.6589H54.5634L58.3313 27.3385H59.5081L63.2879 35.6589H62.0399L61.1246 33.5788ZM60.7086 32.6279L58.9138 28.5509L57.1189 32.6279H60.7086ZM70.0918 35.6589L68.297 33.1033C68.0752 33.1192 67.9008 33.1271 67.774 33.1271H65.7177V35.6589H64.5291V27.3385H67.774C68.8517 27.3385 69.6996 27.596 70.3177 28.1111C70.9358 28.6262 71.2448 29.3354 71.2448 30.2387C71.2448 30.8806 71.0863 31.4274 70.7694 31.879C70.4524 32.3307 70.0007 32.6595 69.4143 32.8656L71.3874 35.6589H70.0918ZM67.7384 32.1168C68.4912 32.1168 69.0656 31.9543 69.4619 31.6294C69.8581 31.3045 70.0562 30.8409 70.0562 30.2387C70.0562 29.6365 69.8581 29.1768 69.4619 28.8599C69.0656 28.535 68.4912 28.3726 67.7384 28.3726H65.7177V32.1168H67.7384ZM75.8753 31.9622L74.3538 33.5075V35.6589H73.1652V27.3385H74.3538V31.986L78.8706 27.3385H80.2257L76.6717 31.0826L80.4515 35.6589H79.0608L75.8753 31.9622ZM87.7467 34.6248V35.6589H81.7084V27.3385H87.5802V28.3726H82.897V30.9281H87.0691V31.9385H82.897V34.6248H87.7467ZM91.3236 28.3726H88.4708V27.3385H95.353V28.3726H92.5003V35.6589H91.3236V28.3726ZM98.968 35.754C98.3419 35.754 97.7357 35.6589 97.1494 35.4687C96.5708 35.2706 96.1152 35.017 95.7824 34.708L96.2222 33.7808C96.5392 34.0661 96.9433 34.2998 97.4346 34.4821C97.9338 34.6564 98.445 34.7436 98.968 34.7436C99.6574 34.7436 100.172 34.6288 100.513 34.3989C100.854 34.1612 101.024 33.8482 101.024 33.4599C101.024 33.1746 100.929 32.9448 100.739 32.7705C100.557 32.5882 100.327 32.4496 100.05 32.3545C99.7801 32.2594 99.3959 32.1524 98.8966 32.0336C98.2705 31.883 97.7634 31.7324 97.3752 31.5819C96.9948 31.4313 96.6659 31.2015 96.3886 30.8925C96.1191 30.5755 95.9845 30.1515 95.9845 29.6206C95.9845 29.1768 96.0994 28.7767 96.3292 28.4201C96.5669 28.0635 96.9235 27.7783 97.399 27.5643C97.8744 27.3504 98.4647 27.2434 99.17 27.2434C99.6612 27.2434 100.145 27.3068 100.62 27.4336C101.096 27.5603 101.504 27.7426 101.844 27.9803L101.452 28.9312C101.103 28.7094 100.731 28.543 100.335 28.432C99.9386 28.3131 99.5504 28.2537 99.17 28.2537C98.4964 28.2537 97.9893 28.3766 97.6486 28.6222C97.3158 28.8678 97.1494 29.1848 97.1494 29.5731C97.1494 29.8584 97.2444 30.0921 97.4346 30.2744C97.6248 30.4487 97.8585 30.5874 98.1359 30.6904C98.4212 30.7855 98.8054 30.8885 99.2889 30.9994C99.9149 31.15 100.418 31.3006 100.798 31.4511C101.179 31.6016 101.504 31.8315 101.773 32.1405C102.05 32.4496 102.189 32.8656 102.189 33.3886C102.189 33.8244 102.07 34.2246 101.833 34.5891C101.595 34.9457 101.234 35.231 100.751 35.4449C100.267 35.651 99.6731 35.754 98.968 35.754Z" fill="#464B4E" />
	<path d="M63.1054 3.782V22.692H58.7021L50.3547 12.6157V22.692H45.1139V3.782H49.5172L57.8646 13.8583V3.782H63.1054ZM74.1182 7.91518V12.0754H82.4656V16.2086H74.1182V22.692H68.7693V3.782H83.6002V7.91518H74.1182ZM92.1498 8.02324H86.3417V3.782H103.28V8.02324H97.4986V22.692H92.1498V8.02324Z" fill="#464B4E" />
</svg>
