<svg width="17" height="15" viewBox="0 0 17 15" fill="none" xmlns="http://www.w3.org/2000/svg">
<path d="M8.73037 0.00974035L4.67235 4.94791L3.74329 1.59636C4.38516 1.09102 5.11893 0.685965 5.93314 0.406041C6.86076 0.0871358 7.80705 -0.037714 8.73037 0.00974035Z" fill="#F78E19"/>
<path d="M12.5601 1.28621L11.4688 2.61578L10.8628 0.431752C11.4616 0.642754 12.0331 0.930023 12.5601 1.28621Z" fill="#F14C1C"/>
<path d="M16.7373 2.14068L12.6994 7.05588L11.4688 2.61579L12.5601 1.28622C13.2163 1.72715 13.8036 2.27259 14.2976 2.9087L16.7373 2.14068Z" fill="#EE2B21"/>
<path d="M4.67247 4.94794L1.09122 9.3075C0.366042 6.39679 1.46599 3.3827 3.74341 1.59639L4.67247 4.94794Z" fill="#F9A82D"/>
<path d="M11.4689 2.61577L5.90311 9.38928L4.67249 4.94789L8.73051 0.00972748C9.46428 0.0456009 10.1822 0.189095 10.8629 0.431733L11.4689 2.61577Z" fill="#F47217"/>
<path d="M8.00696 14.9903L12.065 10.052L12.994 13.4036C12.3522 13.909 11.6184 14.3139 10.8042 14.594C9.87658 14.9127 8.93028 15.0377 8.00696 14.9903Z" fill="#F14C1C"/>
<path d="M4.17712 13.7137L5.26846 12.384L5.87444 14.5681C5.27564 14.357 4.70412 14.0698 4.17712 13.7137Z" fill="#F78E19"/>
<path d="M0 12.8593L4.03792 7.94402L5.26854 12.384L4.1772 13.7137C3.52097 13.2728 2.93367 12.7272 2.43969 12.0911L0 12.8593Z" fill="#F9A82D"/>
<path d="M12.0649 10.052L15.6462 5.69245C16.3713 8.60313 15.2714 11.6172 12.994 13.4035L12.0649 10.052Z" fill="#EE2B21"/>
<path d="M5.26855 12.384L10.8343 5.61059L12.0649 10.052L8.0069 14.9903C7.27313 14.9544 6.55516 14.8108 5.87453 14.5681L5.26855 12.384Z" fill="#F47217"/>
</svg>
