<svg width="131" height="32" viewBox="0 0 131 32" fill="none" xmlns="http://www.w3.org/2000/svg">
<path d="M42.0987 17.6841C40.9806 17.6841 39.9017 17.5476 38.8616 17.2746C37.8346 16.9887 36.9961 16.6246 36.346 16.1826L37.6136 13.3355C38.2246 13.7255 38.9266 14.0505 39.7196 14.3105C40.5257 14.5575 41.3252 14.6811 42.1182 14.6811C42.6512 14.6811 43.0802 14.6355 43.4052 14.5446C43.7302 14.4405 43.9642 14.3105 44.1072 14.1545C44.2632 13.9856 44.3412 13.7905 44.3412 13.5695C44.3412 13.2575 44.1982 13.0105 43.9122 12.8285C43.6263 12.6465 43.2557 12.497 42.8007 12.38C42.3456 12.263 41.8386 12.146 41.2796 12.029C40.7336 11.912 40.1811 11.7625 39.6221 11.5805C39.0761 11.3985 38.5756 11.1645 38.1206 10.8785C37.6655 10.5795 37.295 10.196 37.0091 9.72794C36.7231 9.24694 36.58 8.64242 36.58 7.9144C36.58 7.09538 36.8011 6.35437 37.2431 5.69135C37.6981 5.02834 38.3741 4.49532 39.2711 4.09231C40.1681 3.68931 41.2862 3.4878 42.6252 3.4878C43.5222 3.4878 44.3997 3.59181 45.2577 3.79981C46.1287 3.99481 46.9023 4.28732 47.5783 4.67733L46.3888 7.54389C45.7387 7.19288 45.0952 6.93287 44.4582 6.76388C43.8213 6.58187 43.2036 6.49087 42.6057 6.49087C42.0726 6.49087 41.6436 6.54937 41.3187 6.66637C40.9937 6.77038 40.7597 6.91337 40.6166 7.09538C40.4736 7.27739 40.4021 7.48539 40.4021 7.7194C40.4021 8.01841 40.5386 8.2589 40.8116 8.44091C41.0976 8.60991 41.4681 8.75292 41.9232 8.86992C42.3912 8.97393 42.8982 9.08443 43.4442 9.20143C44.0032 9.31843 44.5557 9.46793 45.1017 9.64994C45.6607 9.81894 46.1677 10.0529 46.6228 10.352C47.0778 10.638 47.4418 11.0215 47.7148 11.5025C48.0008 11.9705 48.1438 12.562 48.1438 13.277C48.1438 14.07 47.9163 14.8046 47.4613 15.4806C47.0193 16.1436 46.3498 16.6766 45.4527 17.0796C44.5687 17.4826 43.4507 17.6841 42.0987 17.6841ZM53.2274 17.4111V6.82238H49.0348V3.76081H61.2616V6.82238H57.0885V17.4111H53.2274ZM60.9616 17.4111L66.9872 3.76081H70.7898L76.8349 17.4111H72.8179L68.0988 5.65235H69.6198L64.9007 17.4111H60.9616ZM64.2572 14.7591L65.2517 11.912H71.9208L72.9154 14.7591H64.2572ZM81.9661 14.3885L81.7516 10.0595L87.6212 3.76081H91.8723L86.0222 10.0985L83.8771 12.341L81.9661 14.3885ZM78.5145 17.4111V3.76081H82.3366V17.4111H78.5145ZM87.6797 17.4111L83.2336 11.7755L85.7492 9.08443L92.1648 17.4111H87.6797ZM93.763 17.4111V3.76081H97.6241V17.4111H93.763ZM100.956 17.4111V3.76081H104.135L111.662 12.848H110.16V3.76081H113.943V17.4111H110.765L103.238 8.32391H104.739V17.4111H100.956ZM124.077 17.6841C122.998 17.6841 121.997 17.5152 121.074 17.1771C120.151 16.8261 119.351 16.332 118.675 15.6951C118.012 15.0581 117.492 14.3105 117.115 13.4525C116.738 12.5815 116.55 11.626 116.55 10.586C116.55 9.54593 116.738 8.59692 117.115 7.7389C117.492 6.86788 118.019 6.11386 118.695 5.47685C119.371 4.83984 120.17 4.35232 121.093 4.01431C122.029 3.6633 123.05 3.4878 124.155 3.4878C125.442 3.4878 126.593 3.70231 127.607 4.13132C128.621 4.56032 129.459 5.17783 130.122 5.98386L127.665 8.20691C127.197 7.6999 126.69 7.32288 126.144 7.07588C125.611 6.81587 125.013 6.68587 124.35 6.68587C123.765 6.68587 123.232 6.77687 122.751 6.95888C122.27 7.14089 121.86 7.40739 121.522 7.7584C121.184 8.09641 120.918 8.50592 120.723 8.98693C120.541 9.45494 120.45 9.98795 120.45 10.586C120.45 11.158 120.541 11.6845 120.723 12.1655C120.918 12.6465 121.184 13.0625 121.522 13.4135C121.86 13.7515 122.263 14.018 122.731 14.213C123.212 14.3951 123.739 14.4861 124.311 14.4861C124.883 14.4861 125.442 14.3951 125.988 14.213C126.534 14.018 127.087 13.693 127.646 13.238L129.81 15.9486C129.03 16.5076 128.127 16.9366 127.1 17.2356C126.073 17.5347 125.065 17.6841 124.077 17.6841ZM126.398 15.4416V10.2935H129.81V15.9486L126.398 15.4416Z" fill="#172C5D"/>
<path d="M39.8297 27.7185L36.9143 20.8933H39.0009L41.4579 26.802H40.2294L42.745 20.8933H44.656L41.7309 27.7185H39.8297ZM44.2909 27.7185L47.3038 20.8933H49.2051L52.2276 27.7185H50.2191L47.8595 21.8391H48.62L46.2605 27.7185H44.2909ZM45.9387 26.3925L46.436 24.9689H49.7706L50.2678 26.3925H45.9387ZM56.0739 27.855C55.0665 27.855 54.2799 27.5788 53.7144 27.0262C53.1489 26.4737 52.8661 25.6904 52.8661 24.6764V20.8933H54.7967V24.6179C54.7967 25.2029 54.9105 25.6222 55.1379 25.8757C55.3719 26.1292 55.6905 26.256 56.0934 26.256C56.4965 26.256 56.8118 26.1292 57.0392 25.8757C57.2668 25.6222 57.3805 25.2029 57.3805 24.6179V20.8933H59.2818V24.6764C59.2818 25.6904 58.999 26.4737 58.4335 27.0262C57.868 27.5788 57.0816 27.855 56.0739 27.855ZM60.8822 27.7185V20.8933H62.8127V26.1877H66.0693V27.7185H60.8822ZM67.9405 27.7185V22.4241H65.8442V20.8933H71.9576V22.4241H69.8711V27.7185H67.9405ZM75.3489 27.855C74.7899 27.855 74.2503 27.7867 73.7303 27.6502C73.2168 27.5072 72.7975 27.3253 72.4726 27.1042L73.1063 25.6807C73.4118 25.8757 73.7628 26.0383 74.1594 26.1682C74.5623 26.2918 74.9621 26.3535 75.3586 26.3535C75.6251 26.3535 75.8396 26.3308 76.0021 26.2852C76.1647 26.2333 76.2817 26.1682 76.3532 26.0902C76.4312 26.0057 76.4702 25.9082 76.4702 25.7977C76.4702 25.6417 76.3987 25.5181 76.2557 25.4272C76.1126 25.3362 75.9273 25.2614 75.6999 25.2029C75.4724 25.1444 75.2189 25.0859 74.9394 25.0274C74.6664 24.9689 74.3902 24.8941 74.1106 24.8032C73.8376 24.7122 73.5873 24.5952 73.3598 24.4522C73.1324 24.3027 72.9471 24.1109 72.8041 23.8769C72.661 23.6364 72.5896 23.3341 72.5896 22.9701C72.5896 22.5606 72.7 22.1901 72.9211 21.8586C73.1485 21.5271 73.4866 21.2606 73.9351 21.0591C74.3836 20.8575 74.9426 20.7568 75.6121 20.7568C76.0606 20.7568 76.4994 20.8088 76.9284 20.9128C77.364 21.0103 77.7506 21.1566 78.0887 21.3516L77.4939 22.7849C77.169 22.6094 76.8472 22.4794 76.5287 22.3949C76.2101 22.3039 75.9014 22.2584 75.6024 22.2584C75.3359 22.2584 75.1214 22.2876 74.9589 22.3461C74.7963 22.3981 74.6793 22.4697 74.6079 22.5606C74.5364 22.6516 74.5006 22.7556 74.5006 22.8726C74.5006 23.0221 74.5689 23.1424 74.7054 23.2334C74.8484 23.3179 75.0337 23.3894 75.2611 23.4479C75.4951 23.4999 75.7486 23.5551 76.0216 23.6137C76.3012 23.6722 76.5774 23.7469 76.8504 23.8379C77.13 23.9225 77.3835 24.0395 77.6109 24.1889C77.8384 24.332 78.0204 24.5236 78.1569 24.7642C78.3 24.9982 78.3715 25.2939 78.3715 25.6514C78.3715 26.048 78.2576 26.4152 78.0302 26.7532C77.8091 27.0847 77.4744 27.3512 77.0259 27.5527C76.584 27.7543 76.0248 27.855 75.3489 27.855Z" fill="#2E85E4"/>
<path d="M26.0603 19.1104L23.9754 21.1953L19.1106 26.0601C17.214 27.957 14.125 27.957 12.2284 26.0601L5.27873 19.1104C3.60418 17.4359 3.40617 14.8298 4.6949 12.9376C4.859 12.6869 5.05672 12.4503 5.27873 12.2283L7.36363 10.1434L12.2284 5.2786C13.1793 4.33296 14.4245 3.85971 15.6696 3.85971C16.9145 3.85971 18.1596 4.33296 19.1106 5.2786L26.0603 12.2283C27.7348 13.9031 27.9326 16.5092 26.6442 18.4012C26.4804 18.6522 26.2823 18.8884 26.0603 19.1104ZM28.7918 9.50166L21.8372 2.55195C18.4396 -0.850651 12.9041 -0.850651 9.50179 2.55195L4.63698 7.41674L2.55208 9.50166C2.33475 9.71869 2.12737 9.95035 1.939 10.1823C-0.835906 13.6086 -0.633206 18.6568 2.55208 21.842L9.50179 28.7917C11.2003 30.4906 13.435 31.34 15.6696 31.34C17.9041 31.34 20.1384 30.4906 21.8372 28.7917L26.707 23.9223L28.7918 21.842C29.0089 21.625 29.2165 21.3981 29.405 21.1617C32.1749 17.7348 31.9722 12.6869 28.7918 9.50166Z" fill="#2E85E4"/>
<path d="M15.7227 21.234C15.3462 21.6105 14.8493 21.7986 14.3566 21.7986C13.8644 21.7986 13.3675 21.6105 12.991 21.234L1.93906 10.1821C2.12742 9.95044 2.3348 9.71879 2.55212 9.50175L4.63704 7.41684L15.7227 18.5024C16.4755 19.26 16.4755 20.4812 15.7227 21.234Z" fill="#172C5D"/>
<path d="M29.4049 21.1616C29.2164 21.3983 29.0089 21.625 28.7917 21.842L26.7068 23.9222L23.9755 21.1953L15.6162 12.8366C14.8634 12.0834 14.8634 10.8576 15.6162 10.105C16.3695 9.35211 17.595 9.35211 18.348 10.105L26.6443 18.401L29.4049 21.1616Z" fill="#172C5D"/>
<path d="M4.69492 12.9378C4.11577 13.7921 3.83557 14.7864 3.85516 15.7756L0.56868 12.571C0.886916 11.7216 1.34555 10.9157 1.93902 10.1822L4.69492 12.9378Z" fill="#CCCCCC"/>
<path d="M26.707 23.9222L23.9754 21.1953L22.228 22.9424L24.8154 25.8134L26.707 23.9222Z" fill="#CCCCCC"/>
</svg>
