<svg width="30" height="31" viewBox="0 0 30 31" fill="none" xmlns="http://www.w3.org/2000/svg">
<path fill-rule="evenodd" clip-rule="evenodd" d="M15.0099 0C16.9104 0 18.7136 0.357602 20.3867 0.991645C19.3797 0.748206 18.3237 0.63405 17.2354 0.63405C9.6655 0.63405 3.54129 6.75854 3.54129 14.3286C3.54129 21.8985 9.6655 28.0231 17.2354 28.0231C21.2152 28.0231 24.789 26.3327 27.2907 23.637C24.5778 27.4867 20.0781 30.0036 15.0099 30.0036C6.72525 30.0036 0 23.2959 0 15.0107C0 6.70903 6.72525 0 15.0099 0Z" fill="#78C92E"/>
<path fill-rule="evenodd" clip-rule="evenodd" d="M23.2946 6.09286L29.37 2.32437L22.0112 27.8594L16.618 29.3213L23.2946 6.09286Z" fill="#78C92E"/>
<path fill-rule="evenodd" clip-rule="evenodd" d="M5.1658 17.203L11.2412 13.4345L7.92724 24.9202L3.31401 23.6851L5.1658 17.203Z" fill="#78C92E"/>
<path fill-rule="evenodd" clip-rule="evenodd" d="M14.2301 11.648L20.273 7.99226L14.1326 29.3213L9.51923 28.0381L14.2301 11.648Z" fill="#78C92E"/>
</svg>
