<svg width="168" height="43" viewBox="0 0 168 43" fill="none" xmlns="http://www.w3.org/2000/svg">
<path d="M15.8905 31.6154C14.7491 32.4004 14.0488 33.4607 13.582 34.7156C12.7932 36.8678 12.8522 39.0787 13.2318 41.3037C13.319 41.8173 13.4319 42.3256 13.5371 42.8642H5.28016L5.6739 39.9103L5.51232 39.8694C5.08909 40.6419 4.64148 41.3996 4.25032 42.1914C3.99379 42.7175 3.67188 42.9847 3.09602 42.8941C2.73692 42.838 2.3637 42.8831 1.89558 42.8831C3.20889 41.3162 3.94121 39.5366 4.47603 37.657C4.5706 37.3175 4.57989 36.9574 4.50294 36.613C4.03226 34.6841 4.33624 32.9689 5.55079 31.4167C5.74702 31.1661 5.6598 30.6619 5.70339 30.2756L5.51486 30.1838C5.3289 30.4358 5.05956 30.6605 4.97238 30.9469C4.65687 31.977 4.31058 33.0114 4.14385 34.0731C3.66547 37.0966 2.5176 39.8118 1.02602 42.3957C0.78106 42.8187 0.52327 42.979 0 42.8217C2.44963 38.9775 3.59878 34.6909 4.05022 29.9975C3.25378 30.8194 3.0614 31.8469 3.36407 33.2511C2.77154 33.2401 2.38422 32.8908 2.08154 32.4209C1.36846 31.303 1.39026 30.0618 1.61342 28.8056C1.91738 27.1165 2.93443 25.8958 4.01558 24.7245C4.86208 23.8053 5.69827 22.8737 6.2113 21.6805C6.36261 21.327 6.47677 20.9544 6.63195 20.5229L5.11471 21.6366C5.09932 21.4997 5.08268 21.4586 5.0942 21.4462C6.07405 20.3503 6.4742 19.0159 6.45111 17.5227C6.43959 16.7487 6.62683 16.0609 7.12959 15.4746C7.1687 15.4066 7.19345 15.3303 7.2021 15.251C7.21074 15.1718 7.20304 15.0914 7.17958 15.0157C7.05071 14.6588 7.00613 14.2735 7.04972 13.8938C7.09335 13.5142 7.22385 13.1518 7.42971 12.8388C7.49964 12.682 7.55505 12.5181 7.59512 12.3497C7.85165 11.6648 8.01194 10.9154 8.38518 10.3154C9.2432 8.93034 10.7745 8.70977 12.034 9.68519C13.7038 8.41386 15.7866 9.18239 16.4561 11.9223C16.5685 12.3489 16.7091 12.7664 16.8768 13.1717C17.1641 13.9033 17.2308 14.6485 16.7716 15.2924C16.4433 15.7499 16.4754 16.1705 16.6729 16.5966C16.8549 17.0036 17.095 17.3779 17.3847 17.7063C17.822 18.183 18.3248 18.5912 18.8493 19.0762C19.2687 18.3625 19.6265 17.6446 20.0793 17.0048C21.2707 15.3116 21.7145 13.4293 21.8081 11.325C21.8979 9.36323 22.3045 7.41381 22.6148 5.46845C22.7431 4.70405 22.5328 4.0985 22.1262 3.49573C21.6132 2.72993 21.0014 2.29703 20.0895 2.49978C19.7727 2.56965 19.4483 2.61075 19.1289 2.66418C19.2713 2.98748 19.379 3.33682 19.5637 3.62315C20.1049 4.47936 20.6949 5.30133 21.231 6.16576C21.3796 6.41896 21.445 6.71783 21.417 7.01514C21.308 7.85907 20.9122 8.63067 20.3048 9.18281C19.6975 9.73499 18.9212 10.0291 18.1239 10.0091C17.3266 9.98917 16.564 9.65645 15.9816 9.07448C15.3992 8.49251 15.0376 7.70192 14.9658 6.85348C14.9593 6.62341 15.0222 6.39716 15.1454 6.20825C15.7866 5.20362 16.4425 4.21085 17.1128 3.22997C17.2859 2.97516 17.3526 2.78473 17.1859 2.46964C17.0688 2.23458 17.0316 1.96341 17.0808 1.70236C17.1299 1.44132 17.2622 1.20654 17.4552 1.03804C17.8477 0.680485 18.3748 0.672263 18.8327 0.939404C19.1039 1.09703 19.4024 1.19398 19.7099 1.22436C20.2332 1.26956 20.7629 1.21751 21.2887 1.24353C21.6735 1.26271 21.8017 1.04078 21.8569 0.705145C21.9941 -0.108609 22.089 -0.00175267 22.8187 0.0119468C23.6383 0.0270161 24.1616 0.742131 24.9298 0.747612C24.9639 0.749746 24.9962 0.764805 25.0209 0.790079C25.9071 1.7422 27.0075 1.02023 27.9912 1.21477C28.0733 1.2312 28.1849 1.08873 28.2798 1.01749C28.7761 0.647603 29.3186 0.654456 29.7341 1.03667C29.9343 1.21006 30.0701 1.45396 30.1171 1.72461C30.1641 1.99526 30.1193 2.27494 29.9907 2.51348C29.8496 2.78747 29.9009 2.96145 30.0535 3.18887C30.7204 4.17249 31.3861 5.15885 32.0209 6.16713C32.1666 6.40152 32.2348 6.68121 32.2146 6.9617C32.1143 7.79186 31.7361 8.55517 31.1496 9.11042C30.5632 9.66566 29.8084 9.97526 29.0249 9.98193C28.2412 9.9886 27.4819 9.69193 26.8873 9.14676C26.2926 8.6016 25.903 7.84485 25.7904 7.01651C25.7591 6.71976 25.8238 6.42055 25.9738 6.16853C26.6151 5.1424 27.2999 4.14922 27.9591 3.13818C28.0373 3.01762 28.1374 2.7998 28.0874 2.72719C28.0372 2.66239 27.9752 2.60926 27.905 2.57108C27.8348 2.53291 27.7581 2.51051 27.6795 2.50526C26.9536 2.48334 26.2264 2.49567 25.6031 2.49567C24.8477 4.29715 24.8541 6.10277 24.9836 7.94261C25.2004 11.0277 24.7669 14.0375 24.0859 17.0391C23.5831 19.231 22.9521 21.3613 22.0044 23.3765C21.6927 24.0368 21.281 24.645 20.8591 25.3739C21.1515 25.6479 21.4593 25.9739 21.794 26.2602C22.2032 26.6123 22.6572 26.9082 23.0522 27.2781C23.891 28.0631 23.9499 29.0591 23.3087 29.9413C23.2035 29.3933 23.251 28.6385 22.9239 28.2083C22.5969 27.7782 21.8851 27.6138 21.2066 27.2671C22.1518 29.07 22.6713 30.7647 21.5644 32.5004C20.8706 33.5867 19.7933 33.9292 18.7172 33.9607C18.7557 33.5169 18.8942 33.0826 18.8045 32.7113C18.589 31.8264 17.6335 31.5935 17.0371 32.251C16.351 33.0086 16.1778 34.0019 16.0444 34.9909C15.7328 37.2979 16.1881 40.4228 17.84 42.8683C17.327 42.8683 16.864 42.8998 16.4061 42.849C16.2714 42.8338 16.1304 42.6079 16.0393 42.4491C14.0347 38.9104 14.0706 35.3362 15.8905 31.6154ZM10.2653 24.7793C10.2384 25.9739 9.55227 26.7055 8.79431 27.3644C7.96475 28.0915 7.30595 29.0157 6.87052 30.0632C6.82681 30.1864 6.79122 30.3128 6.76404 30.4413C7.62336 30.1865 8.45701 30.0029 9.24445 29.6879C10.1243 29.3358 11.0233 28.9645 11.8095 28.422C12.7996 27.737 13.3062 26.6274 13.6217 25.4232L11.5415 26.8548L11.4235 26.7014C12.6894 25.1095 13.296 23.2381 13.5666 21.286H10.6924C10.3962 22.5408 10.3474 23.8108 11.2568 25.1108L10.2653 24.7793ZM20.0305 22.0709C20.8796 20.5886 21.7427 19.0789 22.6084 17.5706C22.9585 16.9596 23.0547 16.2911 23.0355 15.5869C23.0188 14.954 22.9611 14.3101 23.0355 13.6882C23.3087 11.5524 23.6486 9.42627 23.9333 7.29188C24.0705 6.26029 24.336 5.22734 24.0731 4.17112C23.4318 4.27388 23.233 4.17112 23.2099 3.62315C23.1933 3.23956 23.1445 2.96693 22.7405 2.86282C22.6482 2.83816 22.6033 2.60116 22.5289 2.45183C22.9496 2.31484 23.4395 2.50115 23.5921 1.90385C23.2164 1.92303 22.8803 1.92166 22.5494 1.96276C22.3711 1.98468 22.1031 2.02989 22.0505 2.15044C21.9864 2.2984 22.0608 2.56143 22.1557 2.7313C22.2647 2.92173 22.4635 3.05324 22.6161 3.21764C22.7444 3.35463 22.9419 3.49163 22.9701 3.64915C23.0894 4.33415 23.2805 5.04514 23.2202 5.72464C23.0176 7.97824 22.6892 10.2195 22.4622 12.4717C22.3006 14.0759 21.9928 15.6089 21.1797 17.0021C20.6667 17.8761 20.2216 18.7968 19.7689 19.7064C19.6885 19.8754 19.6594 20.0669 19.6855 20.2544C19.7804 20.8421 19.9087 21.4366 20.0318 22.0709H20.0305ZM9.14572 17.1405C9.40221 17.8597 9.56766 18.4296 9.79595 18.9721C10.2282 19.9927 10.9964 20.553 12.0404 20.553C13.0844 20.553 13.8423 19.9831 14.2874 18.9762C14.4605 18.5844 14.5503 18.1542 14.7273 17.7624C14.9453 17.2843 14.7478 17.0774 14.3566 16.9131C13.2023 16.424 11.9968 16.4199 10.7976 16.6131C10.2602 16.6994 9.74467 16.9432 9.14572 17.1405ZM6.86536 36.5321C6.33312 35.0101 6.58067 34.1799 7.79779 33.3073C8.14919 33.0552 8.52755 32.8483 8.89563 32.6223C9.77799 32.0839 10.6835 31.5839 11.5402 31.0003C12.3546 30.4689 12.9849 29.6687 13.3357 28.7207C12.5431 29.5783 11.5517 30.0701 10.5283 30.5016C9.59715 30.8907 8.64038 31.2167 7.73623 31.6661C7.05984 31.9929 6.42644 32.4129 5.8522 32.9155C5.19169 33.51 5.21091 34.358 5.46744 35.1786C5.68288 35.8718 6.0869 36.3664 6.86536 36.5321ZM18.3222 22.275C16.9396 23.7409 16.8204 25.2205 17.9003 26.7329C18.3209 27.3233 18.7839 27.8795 19.2123 28.4631C19.9305 29.4454 20.2896 30.5468 20.1229 31.8058C20.087 32.0798 20.0382 32.3428 19.9844 32.6771C20.7539 32.236 21.0732 31.6072 21.1553 30.7975C21.2772 29.5892 20.9052 28.5522 20.2229 27.6179C19.8048 27.0466 19.3688 26.4917 18.9596 25.915C18.3748 25.093 18.0721 24.1697 18.1901 23.1217C18.2196 22.8737 18.2671 22.6285 18.3222 22.275ZM31.3193 6.27125C30.6422 5.28079 29.9907 4.31906 29.3276 3.36422C29.0929 3.02584 28.8582 3.09023 28.6402 3.40669C28.2349 4.0081 27.8206 4.60266 27.4115 5.19994C27.1691 5.55339 26.928 5.90961 26.683 6.26988L31.3193 6.27125ZM20.5115 6.26166C19.8189 5.24929 19.1687 4.28347 18.4992 3.33271C18.276 3.01625 18.0401 3.10941 17.8425 3.39984C17.4642 3.95606 17.0833 4.50949 16.7049 5.06569L15.8893 6.26166H20.5115ZM14.5785 14.3745C13.9591 13.2923 13.1215 12.6456 12.1315 12.2168C12.0679 12.1934 11.9988 12.1934 11.9352 12.2168C10.9092 12.6114 10.0678 13.243 9.49841 14.3896C11.154 13.8544 12.9202 13.8491 14.5785 14.3745ZM6.82818 23.4299C6.04198 24.219 5.33019 24.8656 4.69663 25.589C4.09017 26.2699 3.53723 27.003 3.04344 27.7809C2.74461 28.2604 2.6279 28.8686 2.43424 29.407C3.23967 28.5508 3.99636 27.7028 4.79537 26.9069C5.73034 25.9671 6.4524 24.9081 6.82818 23.4299ZM6.08561 28.1631L6.19462 28.2124C6.45111 27.8645 6.69995 27.5014 6.97953 27.1726C7.2591 26.8438 7.62078 26.5219 7.91063 26.1739C8.21693 25.8376 8.49226 25.4706 8.73276 25.078C9.27269 24.119 9.20344 22.6764 8.60449 21.8504C8.60449 23.4697 8.04788 24.8314 7.10264 26.0356C6.88977 26.2937 6.70636 26.5779 6.55629 26.8822C6.36776 27.2891 6.2395 27.7316 6.08561 28.159V28.1631ZM28.9556 7.40146L26.7523 7.21243C27.0088 8.18371 27.7219 8.87966 28.5209 8.95224C28.2977 8.36045 28.4209 7.8563 28.9556 7.40146ZM17.5873 9.02896C17.3308 8.36182 17.4886 7.85217 17.9387 7.40832L15.9803 7.20694C16.0855 8.1289 16.5728 8.70155 17.5873 9.02896ZM7.12189 19.0365C7.87856 18.246 7.99273 17.283 7.82986 16.1418C6.66273 16.9117 7.29117 18.0871 7.12189 19.0365ZM11.3978 10.6894C11.2756 10.4239 11.0705 10.2123 10.8179 10.0911C10.5653 9.9698 10.281 9.94642 10.014 10.0249C9.48942 10.1619 9.05979 10.6715 9.03284 11.2264C9.69592 10.4154 10.5154 10.4332 11.3978 10.6894ZM18.2389 1.6052C18.0593 1.46821 17.9426 1.30655 17.8464 1.31888C17.7833 1.34062 17.7265 1.37942 17.6816 1.4315C17.6366 1.48359 17.605 1.5472 17.5899 1.61616C17.5899 1.7148 17.7528 1.89015 17.8541 1.89015C17.9554 1.89015 18.0631 1.74631 18.2389 1.6052ZM29.1019 1.58876C28.9056 1.45177 28.7812 1.30244 28.6774 1.31477C28.5735 1.3271 28.4875 1.5093 28.3939 1.61753C28.4965 1.71617 28.594 1.89152 28.703 1.89152C28.812 1.89152 28.9172 1.73946 29.1019 1.58876Z" fill="#334480"/>
<path d="M10.2665 24.7781L11.2579 25.1123C10.3486 23.8122 10.3973 22.5409 10.6936 21.2874H13.5677C13.2971 23.2396 12.6905 25.1123 11.4246 26.7028L11.5426 26.8563L13.6229 25.4206C13.3074 26.6248 12.8008 27.733 11.8107 28.4194C11.0283 28.9674 10.1305 29.3332 9.24561 29.6852C8.45812 30.0003 7.62447 30.1839 6.7652 30.4387C6.79237 30.3102 6.82793 30.1838 6.87163 30.0606C7.30711 29.013 7.96591 28.0888 8.79543 27.3618C9.55213 26.7056 10.2396 25.9727 10.2665 24.7781Z" fill="white"/>
<path d="M20.0318 22.0711C19.9036 21.4368 19.7753 20.8381 19.6868 20.2422C19.6607 20.0548 19.6898 19.8632 19.7702 19.6942C20.2268 18.7846 20.668 17.864 21.181 16.9899C21.998 15.5967 22.3045 14.0637 22.4635 12.4595C22.6905 10.2073 23.0176 7.96745 23.2215 5.71249C23.2831 5.0275 23.0932 4.32473 22.9714 3.63701C22.9432 3.47536 22.7457 3.34248 22.6174 3.20548C22.4648 3.04109 22.266 2.90957 22.157 2.71914C22.0634 2.55475 21.9877 2.28761 22.0518 2.13829C22.1044 2.01636 22.3725 1.97252 22.5507 1.9506C22.8829 1.9095 23.2189 1.91087 23.5934 1.89169C23.4408 2.48762 22.9522 2.30268 22.5302 2.43968C22.6046 2.59448 22.6482 2.83285 22.7418 2.85066C23.1458 2.95478 23.1946 3.22877 23.2112 3.611C23.2343 4.15898 23.4267 4.26446 24.0744 4.15898C24.3309 5.2152 24.0744 6.24814 23.9346 7.27973C23.6499 9.41412 23.3087 11.5403 23.0368 13.676C22.9573 14.298 23.015 14.9419 23.0368 15.5748C23.0548 16.2789 22.9599 16.9447 22.6097 17.5585C21.7453 19.0791 20.8809 20.5888 20.0318 22.0711Z" fill="white"/>
<path d="M9.14563 17.1405C9.74326 16.9432 10.2589 16.6993 10.7962 16.6116C11.9967 16.4185 13.1959 16.4226 14.3552 16.9117C14.74 17.0761 14.9439 17.2829 14.7259 17.761C14.5489 18.1501 14.4591 18.583 14.286 18.9748C13.8409 19.9817 13.0868 20.5571 12.039 20.5516C10.9912 20.5461 10.2268 19.9913 9.79587 18.9707C9.56886 18.4296 9.40212 17.8597 9.14563 17.1405ZM11.1977 18.7912C11.7722 19.2461 12.3353 19.2611 12.8932 18.7912H11.1977ZM11.5209 18.0008C11.8851 18.4981 12.3058 18.4803 12.5161 18.0008H11.5209Z" fill="white"/>
<path d="M6.86524 36.5321C6.08803 36.3663 5.67632 35.8704 5.4647 35.1785C5.20821 34.3566 5.19153 33.5086 5.84946 32.9154C6.42412 32.4128 7.05794 31.9927 7.73479 31.666C8.63898 31.2167 9.59703 30.892 10.5268 30.5015C11.5529 30.0727 12.5417 29.5809 13.3343 28.7206C12.9834 29.6686 12.3531 30.4688 11.5388 31.0002C10.6846 31.5865 9.77787 32.0866 8.88906 32.625C8.52098 32.8496 8.14263 33.0565 7.79122 33.3099C6.58051 34.1799 6.333 35.0101 6.86524 36.5321Z" fill="white"/>
<path d="M18.3221 22.275C18.267 22.6271 18.2208 22.8737 18.1939 23.123C18.0733 24.171 18.376 25.0916 18.9634 25.9164C19.3725 26.4931 19.8086 27.0493 20.2267 27.6192C20.9103 28.5535 21.2809 29.5892 21.1591 30.7989C21.077 31.6098 20.7538 32.2387 19.9881 32.6784C20.042 32.3442 20.0907 32.077 20.1266 31.8071C20.2934 30.5481 19.9356 29.4467 19.216 28.4645C18.7877 27.8795 18.3247 27.3233 17.904 26.7342C16.8203 25.2204 16.9383 23.7408 18.3221 22.275Z" fill="white"/>
<path d="M31.3193 6.27119H26.6843C26.9292 5.91092 27.1703 5.5547 27.4127 5.20125C27.8219 4.6026 28.2348 4.00805 28.6414 3.408C28.8594 3.08606 29.0941 3.02715 29.3288 3.36553C29.9906 4.31901 30.6422 5.28073 31.3193 6.27119Z" fill="white"/>
<path d="M20.5127 6.26169H15.8956L16.7048 5.07258C17.0896 4.51774 17.4654 3.96291 17.8424 3.4067C18.04 3.1149 18.2772 3.02312 18.4991 3.33957C19.1699 4.28346 19.8188 5.24928 20.5127 6.26169Z" fill="white"/>
<path d="M14.5785 14.3748C12.9193 13.8472 11.1517 13.851 9.49451 14.3858C10.0691 13.2391 10.9053 12.6048 11.9313 12.213C11.9949 12.1895 12.064 12.1895 12.1276 12.213C13.1215 12.6459 13.959 13.2926 14.5785 14.3748Z" fill="white"/>
<path d="M6.82801 23.4296C6.44969 24.9105 5.73146 25.9695 4.7952 26.9011C3.99491 27.6984 3.23951 28.545 2.43408 29.4012C2.62774 28.8628 2.74446 28.2546 3.04328 27.7751C3.53707 26.9972 4.09001 26.2641 4.69646 25.5832C5.33002 24.8612 6.04056 24.2159 6.82801 23.4296Z" fill="white"/>
<path d="M6.08569 28.1589C6.23962 27.7301 6.36785 27.289 6.55638 26.878C6.70655 26.5741 6.88993 26.2904 7.10276 26.0328C8.04796 24.8272 8.60844 23.4668 8.60457 21.8476C9.20224 22.6695 9.27278 24.1176 8.73284 25.0752C8.49234 25.4678 8.21705 25.8348 7.91075 26.1711C7.61575 26.5191 7.26946 26.8218 6.97961 27.1698C6.68976 27.5178 6.45249 27.8603 6.19599 28.2082L6.08569 28.1589Z" fill="white"/>
<path d="M28.9556 7.40155C28.4221 7.85226 28.299 8.36051 28.5209 8.95097C27.7218 8.87835 27.01 8.18244 26.7523 7.21112L28.9556 7.40155Z" fill="white"/>
<path d="M17.5872 9.02909C16.5727 8.70165 16.084 8.12904 15.9802 7.20703L17.9386 7.40841C17.4884 7.85367 17.3268 8.36055 17.5872 9.02909Z" fill="white"/>
<path d="M7.12192 19.0364C7.29253 18.087 6.6628 16.9102 7.82988 16.1417C7.9915 17.2842 7.87863 18.2473 7.12192 19.0364Z" fill="white"/>
<path d="M11.398 10.6894C10.5156 10.4387 9.69606 10.4154 9.0343 11.2264C9.05992 10.6784 9.4896 10.1633 10.0154 10.025C10.2822 9.94678 10.5663 9.97035 10.8186 10.0916C11.0709 10.2129 11.2758 10.4242 11.398 10.6894Z" fill="white"/>
<path d="M11.1979 18.7913H12.8934C12.3381 19.2612 11.775 19.2461 11.1979 18.7913Z" fill="#334480"/>
<path d="M11.5236 18.0023H12.5188C12.3085 18.4818 11.8865 18.4983 11.5236 18.0023Z" fill="#334480"/>
<path d="M31.3708 15.8196H35.6691V34.3924H31.3708V15.8196ZM48.4612 19.9056C50.2298 19.9056 51.6538 20.4363 52.7329 21.4976C53.8295 22.5589 54.3779 24.1331 54.3779 26.2204V34.3924H50.2389V26.8571C50.2389 25.7251 49.991 24.8849 49.496 24.3366C49.0006 23.7705 48.2842 23.4875 47.3468 23.4875C46.303 23.4875 45.4717 23.8147 44.8528 24.4692C44.2334 25.106 43.9241 26.0612 43.9241 27.3347V34.3924H39.7851V20.1179H43.7384V21.7894C44.2865 21.188 44.9676 20.7281 45.7814 20.4097C46.5948 20.0737 47.4882 19.9056 48.4612 19.9056ZM62.932 34.6046C61.7472 34.6046 60.5884 34.4633 59.4563 34.1801C58.3245 33.8795 57.4224 33.5081 56.7499 33.0658L58.1296 30.0941C58.7664 30.5008 59.5359 30.837 60.438 31.1023C61.3401 31.3499 62.2247 31.4738 63.0912 31.4738C64.8424 31.4738 65.7179 31.0406 65.7179 30.1737C65.7179 29.7669 65.4791 29.475 65.0016 29.2981C64.524 29.1212 63.7902 28.9709 62.7994 28.8471C61.6319 28.6702 60.668 28.4668 59.9073 28.2368C59.147 28.0069 58.4837 27.6001 57.9174 27.0163C57.3693 26.4326 57.0949 25.6013 57.0949 24.5223C57.0949 23.6202 57.3515 22.8242 57.8643 22.1344C58.395 21.4268 59.1557 20.8785 60.1461 20.4893C61.1543 20.1002 62.3396 19.9056 63.7015 19.9056C64.7097 19.9056 65.7092 20.0206 66.6996 20.2506C67.7079 20.4628 68.5395 20.7635 69.1937 21.1527L67.814 24.0978C66.5583 23.3902 65.1873 23.0365 63.7015 23.0365C62.8172 23.0365 62.1539 23.1603 61.7115 23.4079C61.2696 23.6555 61.0482 23.9739 61.0482 24.3631C61.0482 24.8053 61.287 25.1148 61.7646 25.2917C62.2422 25.4686 63.0029 25.6367 64.0464 25.7958C65.2138 25.9904 66.169 26.2027 66.9119 26.4326C67.6548 26.6449 68.3007 27.0429 68.8488 27.6266C69.3972 28.2103 69.6713 29.024 69.6713 30.0676C69.6713 30.9519 69.406 31.7391 68.8753 32.429C68.3447 33.1188 67.5665 33.6582 66.5404 34.0475C65.5322 34.4189 64.3295 34.6046 62.932 34.6046ZM81.432 33.7025C81.0249 34.0031 80.5208 34.2332 79.9196 34.3924C79.3359 34.5338 78.7166 34.6046 78.0624 34.6046C76.3643 34.6046 75.0464 34.1714 74.109 33.3045C73.1891 32.4377 72.7293 31.1641 72.7293 29.4839V23.6202H70.5271V20.4363H72.7293V16.9605H76.8684V20.4363H80.4238V23.6202H76.8684V29.4308C76.8684 30.0323 77.0185 30.5008 77.3195 30.837C77.6378 31.1554 78.0798 31.3146 78.6461 31.3146C79.3003 31.3146 79.8575 31.1376 80.3176 30.784L81.432 33.7025ZM89.513 19.9056C91.724 19.9056 93.422 20.4363 94.6073 21.4976C95.7921 22.5412 96.385 24.1243 96.385 26.2469V34.3924H92.5112V32.6147C91.7327 33.9413 90.2825 34.6046 88.1599 34.6046C87.063 34.6046 86.1078 34.4189 85.2944 34.0475C84.4984 33.676 83.8881 33.1632 83.4636 32.5086C83.0391 31.854 82.8268 31.1111 82.8268 30.2798C82.8268 28.9532 83.3219 27.9096 84.3127 27.149C85.3209 26.3884 86.8685 26.0081 88.9559 26.0081H92.2459C92.2459 25.106 91.9715 24.4162 91.4234 23.9386C90.8749 23.4433 90.0524 23.1957 88.9559 23.1957C88.1951 23.1957 87.4435 23.3195 86.7006 23.5671C85.9751 23.7971 85.3562 24.1155 84.8433 24.5223L83.3575 21.6302C84.1357 21.0819 85.0643 20.6574 86.1434 20.3567C87.24 20.056 88.363 19.9056 89.513 19.9056ZM89.1946 31.8187C89.9019 31.8187 90.53 31.6595 91.0785 31.3411C91.6265 31.0049 92.0158 30.5186 92.2459 29.8819V28.4226H89.4069C87.7088 28.4226 86.8598 28.9797 86.8598 30.0941C86.8598 30.6248 87.063 31.0493 87.47 31.3677C87.8946 31.6682 88.4692 31.8187 89.1946 31.8187ZM101.245 15.8196H103.209V32.6943H113.609V34.3924H101.245V15.8196ZM128.416 27.998H116.742C116.848 29.4485 117.405 30.6248 118.413 31.5269C119.422 32.4112 120.695 32.8535 122.234 32.8535C123.101 32.8535 123.897 32.703 124.622 32.4024C125.347 32.084 125.975 31.6243 126.506 31.0227L127.567 32.2432C126.948 32.9862 126.17 33.5521 125.232 33.9413C124.312 34.3306 123.295 34.525 122.181 34.525C120.748 34.525 119.475 34.2245 118.36 33.6229C117.263 33.004 116.406 32.1549 115.787 31.0758C115.167 29.9967 114.858 28.7763 114.858 27.4143C114.858 26.0523 115.15 24.8318 115.734 23.7528C116.335 22.6738 117.149 21.8337 118.175 21.2323C119.218 20.6308 120.386 20.3302 121.677 20.3302C122.968 20.3302 124.127 20.6308 125.153 21.2323C126.178 21.8337 126.983 22.6738 127.567 23.7528C128.151 24.8141 128.443 26.0346 128.443 27.4143L128.416 27.998ZM121.677 21.9486C120.332 21.9486 119.2 22.382 118.281 23.2487C117.379 24.0978 116.865 25.2121 116.742 26.5918H126.638C126.515 25.2121 125.993 24.0978 125.073 23.2487C124.171 22.382 123.039 21.9486 121.677 21.9486ZM145.198 20.4363V32.6943C145.198 35.0644 144.615 36.8156 143.447 37.9477C142.297 39.0973 140.555 39.6723 138.22 39.6723C136.929 39.6723 135.7 39.4779 134.532 39.0886C133.382 38.7172 132.445 38.1952 131.72 37.5232L132.675 36.0905C133.347 36.692 134.161 37.1605 135.116 37.4967C136.089 37.8329 137.106 38.0008 138.167 38.0008C139.936 38.0008 141.236 37.585 142.067 36.7538C142.899 35.94 143.315 34.6664 143.315 32.9331V31.1554C142.731 32.0397 141.961 32.7121 141.006 33.1719C140.068 33.6317 139.025 33.8617 137.875 33.8617C136.566 33.8617 135.372 33.5786 134.293 33.0127C133.232 32.429 132.392 31.6243 131.773 30.5982C131.171 29.5546 130.871 28.3783 130.871 27.0694C130.871 25.7605 131.171 24.5931 131.773 23.5671C132.392 22.5412 133.232 21.7452 134.293 21.1792C135.355 20.6132 136.549 20.3302 137.875 20.3302C139.06 20.3302 140.131 20.5689 141.086 21.0465C142.041 21.5241 142.81 22.214 143.394 23.1161V20.4363H145.198ZM138.061 32.1902C139.069 32.1902 139.98 31.9779 140.794 31.5534C141.607 31.1111 142.235 30.5008 142.678 29.7227C143.137 28.9444 143.368 28.0599 143.368 27.0694C143.368 26.0789 143.137 25.2033 142.678 24.4427C142.235 23.6644 141.607 23.063 140.794 22.6385C139.998 22.1963 139.087 21.9752 138.061 21.9752C137.053 21.9752 136.142 22.1874 135.328 22.6119C134.532 23.0365 133.904 23.6379 133.444 24.4162C133.002 25.1944 132.781 26.0789 132.781 27.0694C132.781 28.0599 133.002 28.9444 133.444 29.7227C133.904 30.5008 134.532 31.1111 135.328 31.5534C136.142 31.9779 137.053 32.1902 138.061 32.1902ZM155.348 20.3302C157.17 20.3302 158.567 20.79 159.54 21.7098C160.513 22.6119 161 23.9563 161 25.7428V34.3924H159.195V32.2167C158.771 32.9418 158.143 33.5081 157.312 33.9148C156.498 34.3215 155.525 34.525 154.393 34.525C152.836 34.525 151.598 34.1536 150.678 33.4107C149.758 32.6678 149.299 31.6861 149.299 30.4656C149.299 29.2804 149.723 28.3253 150.572 27.6001C151.439 26.8748 152.81 26.5122 154.685 26.5122H159.116V25.6632C159.116 24.4604 158.78 23.5494 158.108 22.9303C157.435 22.2936 156.454 21.9752 155.162 21.9752C154.278 21.9752 153.429 22.1255 152.615 22.4262C151.801 22.7092 151.103 23.1072 150.519 23.6202L149.67 22.214C150.378 21.6125 151.227 21.1527 152.217 20.8343C153.208 20.4982 154.252 20.3302 155.348 20.3302ZM154.685 33.0392C155.746 33.0392 156.657 32.8004 157.418 32.3228C158.178 31.8274 158.744 31.1202 159.116 30.2002V27.9184H154.738C152.35 27.9184 151.156 28.7498 151.156 30.4125C151.156 31.2263 151.466 31.8718 152.085 32.3494C152.704 32.8091 153.57 33.0392 154.685 33.0392ZM166.116 14.7053H168V34.3924H166.116V14.7053Z" fill="#334480"/>
</svg>
