<svg width="30" height="38" viewBox="0 0 30 38" fill="none" xmlns="http://www.w3.org/2000/svg">
<path d="M14.662 27.3097C13.6088 27.9877 12.9627 28.9037 12.532 29.9876C11.8042 31.8467 11.8586 33.7567 12.2089 35.6785C12.2894 36.1223 12.3935 36.5613 12.4905 37.0264H4.87196L5.23526 34.475L5.08616 34.4395C4.69564 35.1069 4.28264 35.7613 3.92171 36.4453C3.68504 36.8997 3.38801 37.1305 2.85667 37.0524C2.52533 37.0039 2.18096 37.0429 1.74903 37.0429C2.96081 35.6891 3.63652 34.1519 4.12999 32.5283C4.21725 32.2352 4.22582 31.9242 4.15484 31.6266C3.72054 29.9604 4.001 28.4788 5.12166 27.1381C5.30271 26.9215 5.22224 26.486 5.26248 26.1523L5.08852 26.073C4.91693 26.2908 4.66842 26.4848 4.58795 26.7322C4.29684 27.6221 3.97733 28.5155 3.82349 29.4326C3.38209 32.0443 2.32297 34.3898 0.946702 36.6216C0.720677 36.9873 0.482818 37.1258 0 36.9897C2.26025 33.6691 3.32056 29.9663 3.73711 25.9121C3.00223 26.6221 2.82472 27.5096 3.104 28.7226C2.55728 28.7131 2.1999 28.4114 1.92062 28.0055C1.26266 27.0398 1.28278 25.9677 1.48869 24.8825C1.76915 23.4234 2.70757 22.369 3.70515 21.3573C4.48618 20.5632 5.25775 19.7585 5.7311 18.7278C5.87073 18.4225 5.97606 18.1006 6.11924 17.7278L4.71931 18.6899C4.70511 18.5716 4.68972 18.5361 4.70037 18.5254C5.60448 17.5787 5.97369 16.4261 5.95239 15.1362C5.94174 14.4676 6.11451 13.8736 6.57839 13.3671C6.61449 13.3084 6.63732 13.2425 6.64529 13.174C6.65327 13.1055 6.64618 13.0361 6.62455 12.9707C6.50563 12.6624 6.46448 12.3296 6.50472 12.0016C6.54497 11.6737 6.66538 11.3607 6.8553 11.0903C6.91984 10.9548 6.97096 10.8133 7.00796 10.6678C7.24464 10.0761 7.39256 9.42882 7.73692 8.9105C8.5286 7.71411 9.94155 7.52358 11.1036 8.36615C12.6444 7.26797 14.5662 7.93185 15.1839 10.2986C15.2876 10.6671 15.4173 11.0277 15.5721 11.3778C15.8371 12.0098 15.8987 12.6535 15.475 13.2097C15.1721 13.605 15.2017 13.9683 15.3839 14.3363C15.5519 14.6879 15.7734 15.0112 16.0407 15.2948C16.4442 15.7066 16.9081 16.0593 17.3921 16.4782C17.7791 15.8617 18.1092 15.2416 18.527 14.6889C19.6263 13.2263 20.0358 11.6003 20.1221 9.78265C20.205 8.08805 20.5801 6.40411 20.8665 4.72371C20.9848 4.06339 20.7908 3.54033 20.4156 3.01965C19.9423 2.35814 19.3778 1.98419 18.5364 2.15933C18.2441 2.21969 17.9447 2.25519 17.6501 2.30134C17.7814 2.58062 17.8808 2.88238 18.0512 3.1297C18.5506 3.86931 19.095 4.57934 19.5896 5.32605C19.7267 5.54477 19.7871 5.80291 19.7612 6.05974C19.6607 6.78873 19.2954 7.45523 18.7351 7.9322C18.1747 8.40917 17.4584 8.66324 16.7227 8.64598C15.987 8.62872 15.2834 8.34134 14.746 7.83862C14.2086 7.3359 13.875 6.653 13.8088 5.92011C13.8028 5.72135 13.8609 5.52594 13.9745 5.36274C14.5662 4.49493 15.1713 3.63737 15.7898 2.79007C15.9496 2.56996 16.0111 2.40548 15.8573 2.1333C15.7492 1.93025 15.7149 1.69602 15.7602 1.47052C15.8056 1.24502 15.9277 1.04222 16.1058 0.896669C16.4679 0.587808 16.9542 0.580708 17.3767 0.811466C17.627 0.947625 17.9024 1.03137 18.1861 1.05761C18.669 1.09666 19.1577 1.05169 19.6429 1.07418C19.9979 1.09074 20.1162 0.899036 20.1671 0.609109C20.2937 -0.0938174 20.3813 -0.00151397 21.0546 0.0103198C21.8108 0.023337 22.2936 0.64106 23.0025 0.645793C23.034 0.647638 23.0638 0.660644 23.0865 0.682478C23.9042 1.50493 24.9196 0.881285 25.8272 1.04933C25.9029 1.06353 26.0059 0.940454 26.0935 0.878919C26.5514 0.559407 27.052 0.565324 27.4354 0.895486C27.6201 1.04526 27.7454 1.25594 27.7887 1.48973C27.8321 1.72352 27.7908 1.96511 27.6721 2.17117C27.5419 2.40784 27.5893 2.55813 27.7301 2.75457C28.3454 3.60424 28.9596 4.45627 29.5454 5.32723C29.6798 5.5297 29.7427 5.77128 29.7241 6.01359C29.6316 6.73069 29.2825 7.39004 28.7415 7.86966C28.2004 8.34928 27.504 8.61671 26.7809 8.62249C26.0579 8.62826 25.3573 8.37198 24.8086 7.90107C24.26 7.43015 23.9004 6.77646 23.7965 6.06093C23.7677 5.8046 23.8274 5.54612 23.9658 5.32842C24.5574 4.44207 25.1894 3.58412 25.7976 2.71079C25.8698 2.60665 25.9621 2.41849 25.916 2.35577C25.8697 2.29979 25.8124 2.2539 25.7477 2.22093C25.6829 2.18795 25.6121 2.1686 25.5396 2.16407C24.8699 2.14513 24.1989 2.15578 23.6238 2.15578C22.9268 3.71192 22.9327 5.27162 23.0522 6.86089C23.2522 9.52586 22.8522 12.1257 22.2238 14.7185C21.7599 16.6119 21.1777 18.4521 20.3032 20.1928C20.0156 20.7632 19.6358 21.2886 19.2464 21.9182C19.5163 22.1549 19.8003 22.4365 20.1091 22.6838C20.4866 22.988 20.9055 23.2436 21.27 23.5631C22.044 24.2412 22.0984 25.1015 21.5067 25.8636C21.4097 25.3902 21.4534 24.7382 21.1517 24.3666C20.8499 23.995 20.1931 23.853 19.5671 23.5536C20.4393 25.1109 20.9186 26.5748 19.8973 28.0741C19.2571 29.0125 18.2631 29.3084 17.2702 29.3356C17.3057 28.9522 17.4335 28.577 17.3507 28.2564C17.1519 27.4919 16.2703 27.2907 15.72 27.8587C15.0869 28.5131 14.9271 29.3711 14.804 30.2255C14.5165 32.2183 14.9366 34.9176 16.4608 37.0299C15.9874 37.0299 15.5602 37.0571 15.1378 37.0133C15.0135 37.0003 14.8833 36.8051 14.7993 36.6678C12.9497 33.6111 12.9828 30.5237 14.662 27.3097ZM9.47175 21.4046C9.4469 22.4365 8.81379 23.0684 8.11442 23.6376C7.34902 24.2656 6.74114 25.064 6.33935 25.9689C6.29902 26.0753 6.2662 26.1845 6.24113 26.2955C7.03399 26.0754 7.80319 25.9168 8.52978 25.6446C9.34158 25.3405 10.1711 25.0198 10.8965 24.5512C11.8101 23.9595 12.2775 23.001 12.5687 21.9608L10.6492 23.1974L10.5403 23.0649C11.7083 21.6898 12.2681 20.0733 12.5178 18.387H9.86582C9.59246 19.471 9.54749 20.568 10.3865 21.691L9.47175 21.4046ZM18.482 19.0651C19.2654 17.7846 20.0618 16.4806 20.8606 15.1777C21.1836 14.6499 21.2724 14.0724 21.2546 13.4641C21.2393 12.9174 21.186 12.3612 21.2546 11.824C21.5067 9.97909 21.8203 8.14249 22.083 6.29879C22.2096 5.4077 22.4546 4.51544 22.212 3.60305C21.6203 3.69181 21.4369 3.60305 21.4156 3.1297C21.4002 2.79836 21.3552 2.56286 20.9825 2.47293C20.8973 2.45163 20.8558 2.2469 20.7872 2.11791C21.1754 1.99958 21.6274 2.16052 21.7682 1.64456C21.4215 1.66113 21.1115 1.65995 20.8061 1.69545C20.6416 1.71438 20.3943 1.75343 20.3458 1.85757C20.2866 1.98538 20.3553 2.21258 20.4428 2.35932C20.5434 2.52381 20.7269 2.63742 20.8677 2.77942C20.986 2.89776 21.1683 3.0161 21.1943 3.15219C21.3043 3.74388 21.4807 4.35805 21.425 4.945C21.2381 6.89166 20.9351 8.82766 20.7257 10.7731C20.5766 12.1589 20.2926 13.4831 19.5423 14.6866C19.0689 15.4416 18.6583 16.2368 18.2406 17.0226C18.1664 17.1685 18.1395 17.334 18.1637 17.4959C18.2512 18.0036 18.3696 18.5172 18.4832 19.0651H18.482ZM8.43866 14.8061C8.67534 15.4274 8.82799 15.9196 9.03864 16.3883C9.43743 17.2699 10.1463 17.7539 11.1095 17.7539C12.0728 17.7539 12.7722 17.2616 13.1828 16.3918C13.3426 16.0534 13.4254 15.6818 13.5887 15.3433C13.7899 14.9303 13.6077 14.7516 13.2467 14.6096C12.1817 14.1872 11.0693 14.1836 9.96285 14.3505C9.46702 14.425 8.9913 14.6357 8.43866 14.8061ZM6.33462 31.5568C5.84352 30.2421 6.07191 29.5249 7.19493 28.7711C7.51918 28.5534 7.86828 28.3747 8.2079 28.1794C9.02207 27.7144 9.85753 27.2824 10.648 26.7783C11.3995 26.3193 11.981 25.6281 12.3048 24.8092C11.5734 25.55 10.6587 25.9748 9.71434 26.3476C8.85521 26.6836 7.97241 26.9653 7.13813 27.3534C6.51404 27.6357 5.92961 27.9986 5.39975 28.4327C4.79031 28.9463 4.80806 29.6788 5.04474 30.3876C5.24355 30.9864 5.61631 31.4136 6.33462 31.5568ZM16.9057 19.2414C15.63 20.5076 15.52 21.7856 16.5164 23.0921C16.9045 23.6021 17.3317 24.0826 17.727 24.5867C18.3897 25.4352 18.721 26.3866 18.5672 27.4741C18.5341 27.7108 18.4891 27.938 18.4394 28.2268C19.1494 27.8457 19.4441 27.3025 19.5198 26.6032C19.6322 25.5594 19.289 24.6636 18.6595 23.8566C18.2737 23.3631 17.8714 22.8838 17.4939 22.3856C16.9542 21.6756 16.675 20.878 16.7838 19.9727C16.8111 19.7585 16.8548 19.5467 16.9057 19.2414ZM28.8981 5.41717C28.2732 4.56159 27.6721 3.73086 27.0603 2.90604C26.8437 2.61375 26.6272 2.66937 26.426 2.94273C26.052 3.46223 25.6698 3.97582 25.2923 4.49177C25.0687 4.79708 24.8462 5.10476 24.6202 5.41599L28.8981 5.41717ZM18.9258 5.40889C18.2867 4.53437 17.6868 3.70009 17.069 2.87883C16.8631 2.60547 16.6454 2.68594 16.4631 2.93681C16.114 3.41726 15.7626 3.89535 15.4135 4.3758L14.6609 5.40889H18.9258ZM13.4514 12.4168C12.8799 11.482 12.1071 10.9234 11.1936 10.553C11.1349 10.5327 11.0712 10.5327 11.0125 10.553C10.0658 10.8938 9.28951 11.4394 8.76409 12.4299C10.2917 11.9675 11.9213 11.963 13.4514 12.4168ZM6.3003 20.239C5.57489 20.9206 4.91812 21.4791 4.33353 22.104C3.77395 22.6922 3.26377 23.3254 2.80815 23.9974C2.53243 24.4116 2.42474 24.937 2.24605 25.402C2.98921 24.6624 3.6874 23.9299 4.42465 23.2424C5.28733 22.4306 5.95357 21.5158 6.3003 20.239ZM5.61513 24.3275L5.71571 24.3701C5.95239 24.0696 6.18196 23.756 6.43994 23.472C6.69792 23.1879 7.03163 22.9099 7.29907 22.6093C7.58169 22.3188 7.83571 22.0017 8.05762 21.6626C8.55582 20.8342 8.49191 19.5881 7.93928 18.8745C7.93928 20.2733 7.42569 21.4496 6.55354 22.4898C6.35712 22.7127 6.18789 22.9582 6.04943 23.2211C5.87547 23.5725 5.75713 23.9548 5.61513 24.324V24.3275ZM26.7171 6.39346L24.6841 6.23015C24.9207 7.06917 25.5787 7.67032 26.3159 7.73304C26.11 7.22182 26.2236 6.78634 26.7171 6.39346ZM16.2277 7.79931C15.991 7.223 16.1365 6.78279 16.5519 6.39937L14.7449 6.22542C14.8419 7.02183 15.2916 7.51648 16.2277 7.79931ZM6.57129 16.4439C7.26949 15.7611 7.37481 14.9292 7.22452 13.9434C6.14765 14.6085 6.7275 15.6238 6.57129 16.4439ZM10.5167 9.23356C10.4039 9.00428 10.2146 8.82152 9.98155 8.71676C9.74848 8.612 9.48617 8.59179 9.23981 8.65962C8.75581 8.77796 8.35938 9.21818 8.33453 9.69745C8.94633 8.99689 9.70251 9.01227 10.5167 9.23356ZM16.8288 1.38659C16.6631 1.26825 16.5554 1.12861 16.4667 1.13926C16.4085 1.15804 16.3561 1.19155 16.3146 1.23654C16.2731 1.28154 16.244 1.33648 16.23 1.39605C16.23 1.48126 16.3803 1.63273 16.4738 1.63273C16.5673 1.63273 16.6667 1.50848 16.8288 1.38659ZM26.852 1.37239C26.671 1.25405 26.5562 1.12506 26.4603 1.13571C26.3645 1.14636 26.2852 1.30375 26.1988 1.39724C26.2935 1.48244 26.3834 1.63391 26.484 1.63391C26.5846 1.63391 26.6816 1.50256 26.852 1.37239Z" fill="#334480"/>
<path d="M9.4729 21.4033L10.3876 21.6921C9.54863 20.5691 9.5936 19.4709 9.86696 18.3881H12.5189C12.2692 20.0744 11.7095 21.6921 10.5415 23.066L10.6504 23.1985L12.5698 21.9583C12.2787 22.9985 11.8112 23.9559 10.8977 24.5488C10.1758 25.0221 9.34746 25.3381 8.53093 25.6422C7.80433 25.9144 7.03514 26.0729 6.24228 26.2931C6.26735 26.182 6.30017 26.0729 6.3405 25.9664C6.74228 25.0616 7.35016 24.2632 8.11556 23.6352C8.81375 23.0683 9.44804 22.4352 9.4729 21.4033Z" fill="white"/>
<path d="M18.4832 19.065C18.3649 18.5171 18.2466 18 18.1649 17.4852C18.1408 17.3233 18.1676 17.1578 18.2418 17.0119C18.6631 16.2261 19.0702 15.4309 19.5435 14.6759C20.2974 13.4724 20.5802 12.1482 20.7269 10.7625C20.9364 8.817 21.2381 6.88217 21.4263 4.93433C21.4831 4.34265 21.308 3.73557 21.1955 3.14152C21.1695 3.00188 20.9873 2.88709 20.8689 2.76875C20.7281 2.62675 20.5447 2.51315 20.4441 2.34866C20.3577 2.20665 20.2879 1.97589 20.3471 1.8469C20.3956 1.74158 20.6429 1.70371 20.8074 1.68478C21.1139 1.64928 21.4239 1.65046 21.7695 1.6339C21.6287 2.14866 21.1778 1.98891 20.7885 2.10725C20.8571 2.24097 20.8973 2.44688 20.9837 2.46226C21.3565 2.5522 21.4014 2.78887 21.4168 3.11903C21.4381 3.59239 21.6156 3.68351 22.2132 3.59239C22.4499 4.50477 22.2132 5.39704 22.0843 6.28812C21.8215 8.13182 21.5068 9.96842 21.2559 11.8133C21.1825 12.3506 21.2358 12.9067 21.2559 13.4535C21.2725 14.0617 21.1849 14.6368 20.8618 15.167C20.0642 16.4805 19.2666 17.7846 18.4832 19.065Z" fill="white"/>
<path d="M8.43857 14.8061C8.99003 14.6357 9.46574 14.4251 9.96158 14.3493C11.0692 14.1825 12.1757 14.186 13.2455 14.6085C13.6005 14.7505 13.7886 14.9292 13.5874 15.3422C13.4241 15.6783 13.3413 16.0522 13.1815 16.3907C12.7709 17.2604 12.0751 17.7575 11.1083 17.7527C10.1415 17.748 9.43616 17.2687 9.03854 16.3871C8.82909 15.9197 8.67525 15.4274 8.43857 14.8061ZM10.332 16.2321C10.8621 16.625 11.3816 16.638 11.8964 16.2321H10.332ZM10.6302 15.5493C10.9663 15.9788 11.3544 15.9635 11.5485 15.5493H10.6302Z" fill="white"/>
<path d="M6.33454 31.5568C5.61742 31.4137 5.23755 30.9853 5.04229 30.3877C4.80562 29.6776 4.79023 28.9451 5.39731 28.4327C5.92753 27.9985 6.51236 27.6357 7.13687 27.3535C7.97115 26.9653 8.85513 26.6849 9.71308 26.3476C10.6598 25.9772 11.5722 25.5524 12.3035 24.8092C11.9797 25.6281 11.3982 26.3193 10.6468 26.7784C9.85864 27.2848 9.02199 27.7168 8.20191 28.1818C7.86228 28.3759 7.51319 28.5546 7.18894 28.7735C6.07183 29.525 5.84344 30.2421 6.33454 31.5568Z" fill="white"/>
<path d="M16.9058 19.2413C16.8549 19.5455 16.8123 19.7585 16.7875 19.9739C16.6762 20.8791 16.9555 21.6744 17.4975 22.3868C17.875 22.885 18.2774 23.3654 18.6631 23.8577C19.2939 24.6648 19.6359 25.5594 19.5235 26.6043C19.4477 27.3049 19.1495 27.8481 18.443 28.2279C18.4927 27.9392 18.5377 27.7084 18.5708 27.4753C18.7247 26.3878 18.3945 25.4363 17.7306 24.5878C17.3354 24.0825 16.9082 23.6021 16.52 23.0932C15.5201 21.7856 15.629 20.5076 16.9058 19.2413Z" fill="white"/>
<path d="M28.8981 5.41715H24.6214C24.8474 5.10593 25.0699 4.79825 25.2935 4.49294C25.671 3.9758 26.0521 3.46221 26.4272 2.94389C26.6284 2.6658 26.845 2.61492 27.0615 2.90721C27.6721 3.73084 28.2733 4.56157 28.8981 5.41715Z" fill="white"/>
<path d="M18.9269 5.40886H14.6668L15.4135 4.38169C15.7685 3.90242 16.1152 3.42315 16.4631 2.9427C16.6454 2.69064 16.8643 2.61136 17.069 2.88472C17.6879 3.70006 18.2867 4.53435 18.9269 5.40886Z" fill="white"/>
<path d="M13.4514 12.4168C11.9205 11.9611 10.2896 11.9644 8.76053 12.4263C9.29068 11.4358 10.0622 10.8879 11.0089 10.5494C11.0676 10.5291 11.1314 10.5291 11.19 10.5494C12.1071 10.9234 12.8799 11.4819 13.4514 12.4168Z" fill="white"/>
<path d="M6.30023 20.239C5.95113 21.5183 5.28844 22.433 4.42457 23.2377C3.68615 23.9264 2.98914 24.6578 2.24598 25.3974C2.42467 24.9323 2.53235 24.4069 2.80808 23.9927C3.26369 23.3208 3.77388 22.6875 4.33345 22.0993C4.91804 21.4757 5.57363 20.9183 6.30023 20.239Z" fill="white"/>
<path d="M5.61508 24.324C5.75709 23.9536 5.87542 23.5725 6.04938 23.2175C6.18792 22.955 6.35715 22.7099 6.5535 22.4874C7.42565 21.446 7.94278 20.2709 7.93923 18.8721C8.49069 19.5822 8.55577 20.833 8.05757 21.6602C7.83567 21.9993 7.58165 22.3164 7.29903 22.6069C7.02685 22.9075 6.70734 23.169 6.43989 23.4696C6.17245 23.7701 5.95353 24.066 5.71685 24.3666L5.61508 24.324Z" fill="white"/>
<path d="M26.717 6.39346C26.2248 6.78279 26.1111 7.22183 26.3159 7.73186C25.5786 7.66914 24.9219 7.06799 24.684 6.22897L26.717 6.39346Z" fill="white"/>
<path d="M16.2278 7.79929C15.2917 7.51647 14.8408 7.02182 14.745 6.2254L16.552 6.39936C16.1366 6.78396 15.9875 7.22181 16.2278 7.79929Z" fill="white"/>
<path d="M6.57139 16.4438C6.72878 15.6237 6.14774 14.6072 7.22461 13.9433C7.37372 14.9303 7.26958 15.7622 6.57139 16.4438Z" fill="white"/>
<path d="M10.5166 9.23361C9.70241 9.01705 8.94623 8.99693 8.33561 9.69749C8.35928 9.22414 8.75571 8.77919 9.24089 8.65967C9.48709 8.59215 9.74912 8.61251 9.98194 8.71725C10.2148 8.822 10.4038 9.00458 10.5166 9.23361Z" fill="white"/>
<path d="M16.8287 1.38665C16.6666 1.50499 16.5637 1.64462 16.4737 1.63752C16.3838 1.63042 16.2288 1.48013 16.23 1.40085C16.2439 1.34128 16.2731 1.28633 16.3145 1.24134C16.356 1.19635 16.4084 1.16283 16.4666 1.14406C16.5554 1.12749 16.6631 1.26594 16.8287 1.38665Z" fill="white"/>
<path d="M26.852 1.37244C26.6816 1.5038 26.5774 1.6458 26.4851 1.6387C26.3928 1.6316 26.2946 1.48486 26.1999 1.40203C26.2863 1.30854 26.3644 1.1547 26.4615 1.1405C26.5585 1.1263 26.6709 1.25647 26.852 1.37244Z" fill="white"/>
<path d="M10.3321 16.232H11.8965C11.3841 16.6379 10.8646 16.6249 10.3321 16.232Z" fill="#334480"/>
<path d="M10.6326 15.5505H11.5509C11.3568 15.9647 10.9675 15.9789 10.6326 15.5505Z" fill="#334480"/>
</svg>
