<svg width="268" height="56" viewBox="0 0 268 56" fill="none" xmlns="http://www.w3.org/2000/svg">
<path d="M59.2727 20.5357H50.6054V14.2065H75.8817V20.5357H67.2547V42.4257H59.2727V20.5357ZM86.7421 20.2132C90.3702 20.2132 93.1383 21.0464 95.0466 22.7126C96.9547 24.352 97.9088 26.8784 97.9088 30.2914V42.4257H90.7734V39.6038C89.6714 41.727 87.5214 42.7885 84.3233 42.7885C82.6301 42.7885 81.1653 42.4929 79.9291 41.9016C78.6928 41.3105 77.7522 40.5176 77.1072 39.5231C76.489 38.5019 76.18 37.3462 76.18 36.0562C76.18 33.9869 76.9727 32.3877 78.5585 31.259C80.1441 30.1034 82.5898 29.5255 85.8955 29.5255H90.2493C90.1148 27.2143 88.5695 26.0586 85.6133 26.0586C84.5652 26.0586 83.5035 26.2334 82.4286 26.5826C81.3535 26.9051 80.4397 27.3621 79.6873 27.9533L77.1072 22.7529C78.3166 21.9466 79.7813 21.3285 81.5014 20.8985C83.2482 20.4417 84.9951 20.2132 86.7421 20.2132ZM86.4599 37.9509C87.3468 37.9509 88.1261 37.736 88.798 37.3059C89.4698 36.876 89.9536 36.2444 90.2493 35.4112V33.5165H86.9436C84.7129 33.5165 83.5976 34.2557 83.5976 35.7337C83.5976 36.4057 83.8529 36.9431 84.3636 37.3462C84.8741 37.7494 85.573 37.9509 86.4599 37.9509ZM116.611 42.4257L112.701 36.7012L108.508 42.4257H100.204L108.508 31.5008L100.446 20.576H109.073L112.943 26.0989L116.974 20.576H125.077L117.014 31.2186L125.359 42.4257H116.611Z" fill="#1F304F"/>
<path d="M142.095 42.9094C139.219 42.9094 136.612 42.2914 134.274 41.055C131.963 39.7919 130.135 38.0585 128.791 35.8546C127.474 33.624 126.816 31.1112 126.816 28.3161C126.816 25.5211 127.474 23.0217 128.791 20.8178C130.135 18.5872 131.963 16.8538 134.274 15.6175C136.612 14.3543 139.232 13.7228 142.135 13.7228C144.581 13.7228 146.784 14.1528 148.746 15.0128C150.735 15.8728 152.401 17.109 153.745 18.7216L149.553 22.5916C147.645 20.3879 145.279 19.2859 142.458 19.2859C140.711 19.2859 139.152 19.6757 137.781 20.455C136.411 21.2076 135.335 22.2691 134.556 23.6398C133.804 25.0104 133.427 26.5692 133.427 28.3161C133.427 30.0631 133.804 31.6218 134.556 32.9924C135.335 34.3631 136.411 35.4381 137.781 36.2175C139.152 36.97 140.711 37.3462 142.458 37.3462C145.279 37.3462 147.645 36.231 149.553 34.0002L153.745 37.8703C152.401 39.5097 150.735 40.7595 148.746 41.6194C146.758 42.4795 144.54 42.9094 142.095 42.9094ZM170.894 20.4147C173.582 20.4147 175.746 21.221 177.384 22.8335C179.052 24.446 179.884 26.838 179.884 30.0092V42.4257H173.595V30.9767C173.595 29.2568 173.219 27.9802 172.466 27.147C171.715 26.287 170.626 25.857 169.201 25.857C167.616 25.857 166.353 26.3543 165.411 27.3486C164.471 28.3161 164 29.7674 164 31.7024V42.4257H157.712V12.5134H164V22.9948C164.834 22.1617 165.842 21.5301 167.024 21.1C168.207 20.6432 169.497 20.4147 170.894 20.4147ZM194.333 20.4147C197.692 20.4147 200.272 21.221 202.074 22.8335C203.873 24.4193 204.775 26.8245 204.775 30.0495V42.4257H198.889V39.7247C197.705 41.7404 195.503 42.7482 192.277 42.7482C190.61 42.7482 189.159 42.466 187.924 41.9016C186.714 41.3372 185.787 40.5579 185.142 39.5634C184.497 38.5692 184.175 37.4404 184.175 36.1771C184.175 34.1615 184.926 32.5759 186.432 31.4202C187.964 30.2647 190.315 29.6867 193.487 29.6867H198.486C198.486 28.3161 198.068 27.2679 197.236 26.5423C196.402 25.7899 195.153 25.4135 193.487 25.4135C192.331 25.4135 191.189 25.6017 190.06 25.9779C188.957 26.3274 188.017 26.8111 187.238 27.4292L184.981 23.0351C186.163 22.202 187.574 21.557 189.214 21.1C190.879 20.6432 192.585 20.4147 194.333 20.4147ZM193.85 38.5153C194.924 38.5153 195.878 38.2734 196.712 37.7897C197.544 37.2791 198.136 36.54 198.486 35.5724V33.3552H194.172C191.592 33.3552 190.302 34.2018 190.302 35.8949C190.302 36.7012 190.61 37.3462 191.229 37.83C191.874 38.287 192.747 38.5153 193.85 38.5153ZM210.465 20.7372H216.754V42.4257H210.465V20.7372ZM213.61 17.7137C212.455 17.7137 211.513 17.3778 210.788 16.7059C210.062 16.034 209.699 15.2009 209.699 14.2065C209.699 13.2121 210.062 12.379 210.788 11.7071C211.513 11.0352 212.455 10.6993 213.61 10.6993C214.766 10.6993 215.706 11.0218 216.431 11.6668C217.157 12.3118 217.52 13.1181 217.52 14.0856C217.52 15.1337 217.157 16.0072 216.431 16.7059C215.706 17.3778 214.766 17.7137 213.61 17.7137ZM235.774 20.4147C238.46 20.4147 240.624 21.221 242.264 22.8335C243.93 24.446 244.764 26.838 244.764 30.0092V42.4257H238.475V30.9767C238.475 29.2568 238.097 27.9802 237.346 27.147C236.593 26.287 235.504 25.857 234.081 25.857C232.494 25.857 231.231 26.3543 230.291 27.3486C229.349 28.3161 228.88 29.7674 228.88 31.7024V42.4257H222.591V20.7372H228.598V23.2769C229.43 22.3633 230.465 21.6644 231.702 21.1807C232.937 20.6701 234.295 20.4147 235.774 20.4147ZM257.76 42.7482C255.959 42.7482 254.2 42.5332 252.479 42.1032C250.759 41.6463 249.388 41.082 248.368 40.41L250.464 35.8949C251.431 36.5132 252.6 37.0237 253.971 37.4268C255.342 37.8032 256.685 37.9912 258.002 37.9912C260.663 37.9912 261.993 37.3328 261.993 36.0159C261.993 35.3978 261.631 34.9544 260.905 34.6856C260.179 34.4169 259.063 34.1884 257.559 34.0002C255.785 33.7316 254.321 33.4225 253.165 33.073C252.009 32.7238 251.001 32.1055 250.141 31.2186C249.308 30.3317 248.892 29.0686 248.892 27.4292C248.892 26.0585 249.282 24.8492 250.061 23.801C250.867 22.7261 252.023 21.8929 253.528 21.3016C255.059 20.7104 256.861 20.4147 258.93 20.4147C260.461 20.4147 261.98 20.5895 263.485 20.9388C265.017 21.2613 266.279 21.7183 267.274 22.3094L265.178 26.7842C263.27 25.7093 261.187 25.1717 258.93 25.1717C257.586 25.1717 256.578 25.3598 255.906 25.736C255.234 26.1124 254.898 26.5962 254.898 27.1873C254.898 27.8593 255.261 28.3296 255.987 28.5983C256.712 28.8671 257.868 29.1223 259.454 29.3642C261.227 29.66 262.679 29.9825 263.807 30.3317C264.936 30.6542 265.917 31.2589 266.75 32.1458C267.584 33.0327 268 34.269 268 35.8546C268 37.1985 267.597 38.3944 266.791 39.4425C265.984 40.4906 264.802 41.3105 263.243 41.9016C261.711 42.466 259.884 42.7482 257.76 42.7482Z" fill="#F16318"/>
<path d="M19.9326 54.0344C20.173 54.2749 20.4294 54.4908 20.6979 54.6819C20.4294 54.4908 20.1732 54.2749 19.9326 54.0344ZM34.0491 38.1533L26.8182 45.3844C26.0974 46.1053 25.1475 46.4657 24.1974 46.4657C23.2473 46.4657 22.2972 46.1052 21.5765 45.3844L17.846 41.6541L12.6292 46.731L17.846 41.6541L21.5765 45.3844C22.2972 46.1052 23.2473 46.4657 24.1974 46.4657C25.1475 46.4657 26.0974 46.1053 26.8182 45.3844L34.0491 38.1533Z" fill="white"/>
<path d="M24.1972 16.7266C23.7686 16.7266 23.3398 16.7998 22.9322 16.9467C23.3398 16.7998 23.7683 16.7266 24.1969 16.7268C25.0375 16.7268 25.8783 17.009 26.5601 17.5733C26.5597 17.5729 26.5594 17.5724 26.5589 17.5719C25.8771 17.0083 25.037 16.7266 24.1972 16.7266ZM17.7631 11.3597L1.75897 27.3314C0.586325 28.5045 0 30.0504 0 31.5962C0 30.0504 0.586325 28.5045 1.75897 27.3314L17.7631 11.3597Z" fill="white"/>
<path fill-rule="evenodd" clip-rule="evenodd" d="M17.846 41.6541L21.5765 45.3843C23.0176 46.8257 25.3764 46.8262 26.8182 45.3843L35.7089 36.4937H46.0024L28.4619 54.0344C26.1163 56.3796 22.2781 56.3796 19.9326 54.0344L12.6292 46.7309L17.846 41.6541Z" fill="#F16318"/>
<path fill-rule="evenodd" clip-rule="evenodd" d="M27.4861 18.476L26.8182 17.8079C25.3765 16.366 23.0177 16.366 21.5766 17.8079C17.854 21.5306 14.1314 25.2531 10.4088 28.9758C9.31627 30.0683 9.05157 31.6884 9.61591 33.0361C10.1548 34.3324 14.848 38.6525 16.208 39.7025L10.8457 44.9475C7.81684 41.9185 4.78817 38.8894 1.75898 35.8608C-0.586325 33.5154 -0.586325 29.6772 1.75898 27.3315L18.9788 10.1466L8.83227 0H19.1258C28.0554 8.93015 37.0736 17.7695 46.0024 26.6987H35.7087L32.6399 23.6295L27.4861 18.476Z" fill="#142039"/>
<path d="M34.0491 38.1533L26.8182 45.3844C26.0974 46.1053 25.1475 46.4657 24.1974 46.4657C23.2473 46.4657 22.2972 46.1052 21.5765 45.3844L17.846 41.6541L12.6292 46.731L19.9326 54.0344C20.1732 54.2749 20.4294 54.4908 20.6979 54.6819C21.7394 55.4228 22.9678 55.7932 24.1966 55.7932C25.0398 55.7932 25.8829 55.6187 26.6657 55.2699C30.919 50.737 33.6516 44.7605 34.0491 38.1533Z" fill="#F2721D"/>
<path d="M17.7631 11.3597L1.75897 27.3315C0.586325 28.5045 0 30.0504 0 31.5962C0 33.1423 0.586325 34.688 1.75897 35.8608C4.78817 38.8895 7.81684 41.9186 10.8457 44.9476L16.208 39.7025C14.848 38.6526 10.1548 34.3325 9.6159 33.0362C9.42405 32.5782 9.32802 32.0886 9.32768 31.5991C9.327 30.6482 9.68753 29.6969 10.4088 28.9758C14.1314 25.2531 17.854 21.5306 21.5765 17.808C21.9721 17.4122 22.4365 17.125 22.9322 16.9467C23.3398 16.8 23.7686 16.7266 24.1972 16.7266C25.037 16.7266 25.8772 17.0083 26.5589 17.5719C24.0818 14.9619 21.0967 12.8394 17.7631 11.3597Z" fill="#1F304F"/>
</svg>
