<svg viewBox="0 0 363 56" fill="none" xmlns="http://www.w3.org/2000/svg">
	<path d="M13.2353 28.3898C11.3015 29.4608 8.99094 29.084 6.968 30.3037C6.75975 27.2098 6.83908 24.3835 7.40432 21.597C7.65221 20.407 7.44396 19.5045 6.83908 18.4733C3.86409 13.4059 2.71376 8.15009 5.55985 2.58688C6.38289 2.66621 5.94657 3.22153 5.94657 3.60828C5.94657 5.62137 6.25396 7.58485 7.00764 9.49874C7.51337 9.07233 7.18616 8.60623 7.11674 8.19964C6.93822 7.19808 6.8688 6.20643 6.94813 5.19496C7.02746 4.13386 6.9184 2.77529 7.63239 2.17038C8.39597 1.5258 9.31821 2.71579 10.1809 3.05295C13.6518 4.43136 17.1027 3.8562 20.5537 3.03312C25.7401 1.81338 30.8868 0.315978 36.2814 0.0283975C38.3143 -0.0806851 40.2976 0.117647 42.2215 0.742394C45.5435 1.81338 47.7251 4.05453 48.7069 7.39642C48.9151 8.1005 49.1432 8.48727 49.9167 8.72525C56.3526 10.7185 59.2977 15.5082 60.2003 21.8449C60.5371 24.1753 60.5274 26.5057 60.2794 28.8658C60.1603 30.0657 59.8532 30.3731 58.8017 29.7683C58.2467 29.4509 57.4432 29.5104 57.1757 28.7369C56.7095 28.0427 56.7891 27.2395 56.7393 26.466C56.521 23.015 55.0731 20.1392 52.7134 17.67C51.8801 16.7973 51.2753 16.7378 50.4224 17.7394C46.912 21.8647 42.7569 25.0678 37.402 26.4462C34.3576 27.2296 31.2835 27.7651 28.13 27.3387C27.4061 27.2395 26.1962 27.3883 26.1368 26.5652C26.0673 25.7025 27.2772 25.7124 27.9911 25.5338C30.6091 24.8794 33.118 23.9571 35.4782 22.6679C36.2517 22.2415 36.9954 21.7854 37.7887 20.9028C32.6222 20.4367 27.7532 19.3261 22.7948 19.8318C18.8679 20.2285 16.1309 22.4696 14.4352 26.0098C14.0584 26.8131 13.7707 27.6659 13.2353 28.3898Z" fill="#1F304F" />
	<path d="M27.0096 32.7234C31.5712 34.3993 36.103 33.7547 40.6746 32.6837C48.9649 30.75 57.1959 31.5135 65.377 33.4374C66.3684 33.6754 66.7751 34.2604 66.7453 35.2323C66.7155 36.0653 66.6364 36.9082 66.6364 37.7412C66.6364 38.4254 66.5666 38.9411 65.6645 38.8618C64.861 38.7923 64.8512 39.4468 64.7721 39.9922C64.5139 41.8665 64.4148 43.7705 63.9193 45.6149C62.511 50.8013 58.4548 54.1728 53.1197 54.6292C50.6606 54.8371 48.2211 54.8772 45.7618 54.5897C43.2529 54.2919 41.1803 53.2706 39.6036 51.2773C37.5608 48.6891 36.1427 45.8232 35.8849 42.4813C35.7262 40.3988 35.1213 39.7344 33.3264 39.7642C31.4621 39.7939 30.8175 40.5178 30.6886 42.6598C30.4704 46.3091 28.9929 49.3238 26.5236 52.0605C22.1306 56.9196 6.28391 56.1366 3.23949 47.1123C2.49575 44.8514 2.03958 42.5706 2.13875 40.2005C2.15858 39.5757 2.23792 38.8618 1.31567 38.9113C0.0959342 38.9709 0.0265181 38.237 0.00668488 37.3148C-0.0528147 33.8836 0.214933 33.4969 3.7254 32.8523C11.3612 31.4441 19.0168 31.097 26.6823 32.6936C26.8013 32.5746 26.9104 32.5945 27.0096 32.7234Z" fill="#1F304F" />
	<path d="M45.3354 4.35205C39.9805 1.5754 34.8437 2.44807 29.7366 4.1438C26.3947 5.26439 23.0429 6.24613 19.4531 5.67098C17.9161 5.42304 16.488 4.91729 14.9312 3.50914C21.9224 4.92721 27.7136 1.74399 33.8421 0.484581C36.3213 -0.0211646 38.8103 -0.20958 41.2696 0.633329C43.0645 1.23824 44.4429 2.31915 45.3354 4.35205Z" fill="#FDFEFD" />
	<path d="M16.5374 35.0439C19.9983 35.024 23.0129 35.5099 25.9582 36.4421C27.7134 36.9974 28.7844 38.1775 28.6456 39.8237C28.3282 43.5424 27.4853 47.0826 24.5996 49.7899C21.3172 52.8738 14.5541 53.4488 10.1313 50.9699C5.81758 48.5602 3.80451 43.9291 4.82592 39.0204C5.1135 37.6222 5.92668 36.8785 7.18604 36.5116C10.3693 35.5992 13.5922 34.9745 16.5374 35.0439Z" fill="white" />
	<path d="M60.8448 44.8812C61.0727 47.4198 59.6746 49.1651 57.8304 50.5237C54.9146 52.6659 51.5233 52.1699 48.1714 52.041C43.1536 51.8526 40.2977 49.1651 38.9589 44.5638C38.3738 42.5408 38.6614 40.4683 38.8201 38.4255C38.8796 37.6222 39.3754 36.928 40.1787 36.6603C44.5122 35.2621 48.9251 34.6175 53.4667 35.4703C54.4088 37.4933 53.9031 39.6353 53.9626 41.7178C54.0422 44.7424 53.9827 44.7225 57.0469 44.6828C58.3258 44.6729 59.6151 44.2366 60.8448 44.8812Z" fill="white" />
	<path d="M60.8449 44.8811C58.7429 44.9406 56.6306 44.9604 54.5281 45.0596C53.5664 45.0993 53.4473 44.6034 53.4571 43.82C53.4868 41.0335 53.4771 38.2569 53.4868 35.4703C56.0751 38.4948 58.7429 41.4698 60.8449 44.8811Z" fill="#E5E5E5" />
	<path d="M15.6647 44.177C13.3244 44.177 10.9741 44.187 8.63384 44.1671C8.18761 44.1671 7.6025 44.3753 7.58268 43.5126C7.57277 42.6895 8.019 42.63 8.63384 42.63C13.3244 42.64 18.0149 42.6499 22.7055 42.63C23.36 42.63 23.7467 42.7292 23.7368 43.5225C23.7269 44.3952 23.1418 44.1572 22.6955 44.1671C20.3453 44.177 18.005 44.177 15.6647 44.177Z" fill="#1F304F" />
	<path d="M15.7738 48.5304C13.8203 48.5304 11.8667 48.5304 9.9131 48.5304C9.41728 48.5304 8.90163 48.6296 8.92145 47.8165C8.94127 47.1223 9.25863 46.9835 9.86351 46.9835C13.8302 46.9934 17.7869 46.9934 21.7535 46.9835C22.2989 46.9835 22.7055 47.0231 22.7353 47.7669C22.7749 48.7089 22.1601 48.5205 21.6345 48.5304C19.6809 48.5404 17.7274 48.5304 15.7738 48.5304Z" fill="#1F304F" />
	<path d="M15.7839 39.7641C14.2269 39.7641 12.6601 39.7542 11.1032 39.7741C10.5281 39.784 10.1611 39.6848 10.1611 38.9708C10.1611 38.2569 10.5182 38.1577 11.1032 38.1577C14.3956 38.1676 17.6879 38.1676 20.9702 38.1577C21.4859 38.1577 21.8231 38.2569 21.8429 38.8716C21.8528 39.4964 21.6545 39.784 20.9802 39.7741C19.2348 39.7443 17.5093 39.7641 15.7839 39.7641Z" fill="#1F304F" />
	<path d="M43.342 48.8973C42.7866 47.8759 43.1932 47.509 44.2444 47.509C48.1812 47.5189 52.1183 47.5388 56.0651 47.4991C57.265 47.4892 57.1556 48.0742 56.8681 48.8577C52.9608 49.2147 49.044 48.9667 45.1368 48.9767C44.5518 48.9767 43.927 49.1453 43.342 48.8973Z" fill="#1F304F" />
	<path d="M46.2081 42.64C47.3783 42.64 48.5484 42.6598 49.7186 42.6301C50.3929 42.6103 50.5615 42.9276 50.5615 43.5424C50.5714 44.1969 50.2243 44.2564 49.7186 44.2465C47.3188 44.2366 44.9289 44.2267 42.5291 44.2366C42.0333 44.2366 41.6763 44.1969 41.6763 43.5325C41.6763 42.9177 41.8448 42.6103 42.5192 42.6301C43.7587 42.6598 44.9884 42.64 46.2081 42.64Z" fill="#1F304F" />
	<path d="M45.365 37.9395C46.3667 37.9395 47.3682 37.9593 48.3599 37.9295C49.0143 37.9097 49.2226 38.1774 49.2226 38.8121C49.2127 39.417 48.9548 39.546 48.4095 39.536C46.3567 39.5162 44.2941 39.4964 42.2413 39.536C41.567 39.546 41.3984 39.3079 41.3984 38.6733C41.3984 38.0585 41.6563 37.9196 42.1917 37.9295C43.2528 37.9593 44.3139 37.9494 45.365 37.9395Z" fill="#1F304F" />
	<path d="M43.3423 48.8973C44.3637 48.3915 45.395 48.8675 46.4263 48.8576C49.9071 48.818 53.3878 48.8477 56.8684 48.8576C56.7894 49.1155 56.5907 49.1452 56.3529 49.1452C52.208 49.1452 48.0626 49.1452 43.9174 49.1254C43.7291 49.1353 43.5406 48.9866 43.3423 48.8973Z" fill="#1F304F" />
	<path d="M101.689 38.332H86.3979L83.383 45.3908H77.5288L91.291 14.8896H96.8833L110.689 45.3908H104.748L101.689 38.332ZM99.8104 33.8875L94.0435 20.5541L88.3202 33.8875H99.8104ZM124.545 45.6959C122.128 45.6959 119.958 45.1875 118.035 44.1708C116.113 43.1541 114.613 41.7452 113.536 39.9442C112.458 38.1142 111.919 36.0517 111.919 33.7568C111.919 31.462 112.458 29.414 113.536 27.613C114.613 25.812 116.099 24.4031 117.992 23.3864C119.914 22.3697 122.099 21.8614 124.545 21.8614C126.846 21.8614 128.856 22.3261 130.575 23.2557C132.322 24.1853 133.633 25.5215 134.506 27.2644L130.312 29.7045C129.643 28.6297 128.798 27.8309 127.778 27.308C126.788 26.7561 125.696 26.4801 124.502 26.4801C122.463 26.4801 120.774 27.1482 119.433 28.4845C118.094 29.7916 117.424 31.5491 117.424 33.7568C117.424 35.9645 118.079 37.7365 119.39 39.0727C120.73 40.3799 122.434 41.0336 124.502 41.0336C125.696 41.0336 126.788 40.7721 127.778 40.2492C128.798 39.6973 129.643 38.8839 130.312 37.8091L134.506 40.2492C133.604 41.9921 132.278 43.3429 130.531 44.3015C128.812 45.2311 126.817 45.6959 124.545 45.6959ZM149.59 45.6959C147.172 45.6959 145.003 45.1875 143.08 44.1708C141.158 43.1541 139.658 41.7452 138.58 39.9442C137.503 38.1142 136.964 36.0517 136.964 33.7568C136.964 31.462 137.503 29.414 138.58 27.613C139.658 25.812 141.144 24.4031 143.037 23.3864C144.959 22.3697 147.144 21.8614 149.59 21.8614C151.891 21.8614 153.901 22.3261 155.62 23.2557C157.367 24.1853 158.678 25.5215 159.551 27.2644L155.357 29.7045C154.687 28.6297 153.843 27.8309 152.823 27.308C151.833 26.7561 150.741 26.4801 149.547 26.4801C147.508 26.4801 145.819 27.1482 144.478 28.4845C143.139 29.7916 142.469 31.5491 142.469 33.7568C142.469 35.9645 143.124 37.7365 144.435 39.0727C145.774 40.3799 147.478 41.0336 149.547 41.0336C150.741 41.0336 151.833 40.7721 152.823 40.2492C153.843 39.6973 154.687 38.8839 155.357 37.8091L159.551 40.2492C158.649 41.9921 157.323 43.3429 155.576 44.3015C153.857 45.2311 151.862 45.6959 149.59 45.6959ZM174.417 45.6959C172.057 45.6959 169.931 45.1875 168.038 44.1708C166.144 43.1541 164.659 41.7452 163.581 39.9442C162.533 38.1142 162.009 36.0517 162.009 33.7568C162.009 31.462 162.533 29.414 163.581 27.613C164.659 25.812 166.144 24.4031 168.038 23.3864C169.931 22.3697 172.057 21.8614 174.417 21.8614C176.805 21.8614 178.946 22.3697 180.84 23.3864C182.733 24.4031 184.204 25.812 185.252 27.613C186.33 29.414 186.868 31.462 186.868 33.7568C186.868 36.0517 186.33 38.1142 185.252 39.9442C184.204 41.7452 182.733 43.1541 180.84 44.1708C178.946 45.1875 176.805 45.6959 174.417 45.6959ZM174.417 41.0336C176.427 41.0336 178.087 40.3654 179.397 39.0292C180.708 37.6929 181.364 35.9355 181.364 33.7568C181.364 31.5781 180.708 29.8207 179.397 28.4845C178.087 27.1482 176.427 26.4801 174.417 26.4801C172.407 26.4801 170.747 27.1482 169.436 28.4845C168.155 29.8207 167.514 31.5781 167.514 33.7568C167.514 35.9355 168.155 37.6929 169.436 39.0292C170.747 40.3654 172.407 41.0336 174.417 41.0336ZM214.679 22.1228V45.3908H209.48V42.4279C208.606 43.4737 207.514 44.287 206.203 44.868C204.892 45.4199 203.48 45.6959 201.965 45.6959C198.848 45.6959 196.387 44.8389 194.581 43.125C192.805 41.3821 191.916 38.8113 191.916 35.4126V22.1228H197.377V34.6719C197.377 36.7634 197.844 38.332 198.775 39.3778C199.737 40.3945 201.091 40.9028 202.839 40.9028C204.79 40.9028 206.334 40.3074 207.47 39.1163C208.635 37.8963 209.217 36.1533 209.217 33.8875V22.1228H214.679ZM235.066 21.8614C238.008 21.8614 240.367 22.7183 242.144 24.4322C243.92 26.146 244.809 28.6878 244.809 32.0575V45.3908H239.348V32.7546C239.348 30.7212 238.867 29.1962 237.906 28.1795C236.945 27.1337 235.576 26.6109 233.799 26.6109C231.789 26.6109 230.202 27.2209 229.037 28.4409C227.872 29.6319 227.289 31.3603 227.289 33.6261V45.3908H221.828V22.1228H227.027V25.1293C227.93 24.0546 229.066 23.2412 230.435 22.6893C231.804 22.1373 233.348 21.8614 235.066 21.8614ZM265.762 44.1272C265.121 44.6501 264.335 45.0423 263.402 45.3037C262.5 45.5651 261.538 45.6959 260.519 45.6959C257.956 45.6959 255.975 45.0277 254.577 43.6915C253.179 42.3552 252.48 40.409 252.48 37.8527V26.6544H248.635V22.2971H252.48V16.9812H257.941V22.2971H264.189V26.6544H257.941V37.722C257.941 38.8549 258.218 39.7263 258.772 40.3364C259.325 40.9174 260.126 41.2078 261.174 41.2078C262.397 41.2078 263.417 40.8883 264.233 40.2492L265.762 44.1272ZM279.167 21.8614C282.604 21.8614 285.225 22.6893 287.031 24.345C288.866 25.9718 289.783 28.4409 289.783 31.7525V45.3908H284.628V42.5586C283.958 43.5753 282.997 44.3596 281.744 44.9115C280.521 45.4344 279.036 45.6959 277.288 45.6959C275.54 45.6959 274.011 45.4054 272.701 44.8244C271.39 44.2144 270.371 43.3865 269.643 42.3408C268.943 41.2659 268.594 40.0604 268.594 38.7242C268.594 36.6327 269.366 34.9624 270.909 33.7133C272.482 32.4351 274.943 31.7961 278.293 31.7961H284.322V31.4474C284.322 29.8207 283.827 28.5716 282.837 27.7002C281.876 26.8287 280.434 26.3929 278.511 26.3929C277.201 26.3929 275.904 26.5963 274.623 27.003C273.371 27.4097 272.307 27.9761 271.433 28.7023L269.293 24.7372C270.516 23.8076 271.987 23.0959 273.705 22.6021C275.424 22.1083 277.245 21.8614 279.167 21.8614ZM278.424 41.7307C279.793 41.7307 281.002 41.4257 282.05 40.8157C283.128 40.1766 283.885 39.2761 284.322 38.1142V35.4126H278.686C275.54 35.4126 273.968 36.4438 273.968 38.5063C273.968 39.494 274.361 40.2783 275.147 40.8592C275.934 41.4402 277.026 41.7307 278.424 41.7307ZM310.03 21.8614C312.972 21.8614 315.331 22.7183 317.108 24.4322C318.885 26.146 319.773 28.6878 319.773 32.0575V45.3908H314.312V32.7546C314.312 30.7212 313.831 29.1962 312.87 28.1795C311.909 27.1337 310.54 26.6109 308.763 26.6109C306.753 26.6109 305.166 27.2209 304.001 28.4409C302.836 29.6319 302.254 31.3603 302.254 33.6261V45.3908H296.792V22.1228H301.991V25.1293C302.894 24.0546 304.03 23.2412 305.399 22.6893C306.768 22.1373 308.312 21.8614 310.03 21.8614ZM340.726 44.1272C340.085 44.6501 339.299 45.0423 338.367 45.3037C337.464 45.5651 336.502 45.6959 335.483 45.6959C332.92 45.6959 330.939 45.0277 329.541 43.6915C328.143 42.3552 327.444 40.409 327.444 37.8527V26.6544H323.599V22.2971H327.444V16.9812H332.905V22.2971H339.153V26.6544H332.905V37.722C332.905 38.8549 333.182 39.7263 333.735 40.3364C334.289 40.9174 335.09 41.2078 336.138 41.2078C337.362 41.2078 338.381 40.8883 339.196 40.2492L340.726 44.1272ZM352.427 45.6959C350.534 45.6959 348.684 45.449 346.878 44.9551C345.073 44.4613 343.63 43.8368 342.553 43.0815L344.65 38.942C345.699 39.6392 346.951 40.2056 348.407 40.6414C349.893 41.0481 351.349 41.2514 352.776 41.2514C356.039 41.2514 357.67 40.3945 357.67 38.6806C357.67 37.8672 357.247 37.3008 356.403 36.9813C355.587 36.6617 354.262 36.3567 352.427 36.0662C350.504 35.7757 348.932 35.4417 347.708 35.064C346.514 34.6864 345.465 34.0328 344.563 33.1032C343.689 32.1446 343.252 30.8229 343.252 29.1381C343.252 26.9304 344.17 25.1729 346.005 23.8657C347.869 22.5295 350.373 21.8614 353.519 21.8614C355.121 21.8614 356.723 22.0502 358.325 22.4278C359.927 22.7764 361.238 23.2557 362.257 23.8657L360.16 28.0052C358.179 26.8432 355.951 26.2622 353.476 26.2622C351.874 26.2622 350.65 26.5091 349.806 27.003C348.99 27.4678 348.582 28.0923 348.582 28.8766C348.582 29.7481 349.019 30.3727 349.893 30.7503C350.796 31.0989 352.179 31.4329 354.043 31.7525C355.908 32.043 357.437 32.377 358.631 32.7546C359.825 33.1323 360.844 33.7713 361.689 34.6719C362.563 35.5724 363 36.8505 363 38.5063C363 40.685 362.053 42.4279 360.16 43.7351C358.267 45.0423 355.689 45.6959 352.427 45.6959Z" fill="#1F304F" />
</svg>
