<svg viewBox="0 0 640 160" fill="none" xmlns="http://www.w3.org/2000/svg">
	<path d="M156.674 132.018C154.534 132.018 152.594 131.558 150.854 130.638C149.134 129.698 147.774 128.408 146.774 126.768C145.794 125.108 145.304 123.238 145.304 121.158C145.304 119.078 145.794 117.218 146.774 115.578C147.774 113.918 149.134 112.628 150.854 111.708C152.594 110.768 154.544 110.298 156.704 110.298C158.524 110.298 160.164 110.618 161.624 111.258C163.104 111.898 164.344 112.818 165.344 114.018L162.224 116.898C160.804 115.258 159.044 114.438 156.944 114.438C155.644 114.438 154.484 114.728 153.464 115.308C152.444 115.868 151.644 116.658 151.064 117.678C150.504 118.698 150.224 119.858 150.224 121.158C150.224 122.458 150.504 123.618 151.064 124.638C151.644 125.658 152.444 126.458 153.464 127.038C154.484 127.598 155.644 127.878 156.944 127.878C159.044 127.878 160.804 127.048 162.224 125.388L165.344 128.268C164.344 129.488 163.104 130.418 161.624 131.058C160.144 131.698 158.494 132.018 156.674 132.018ZM172.766 117.648C173.326 116.868 174.076 116.278 175.016 115.878C175.976 115.478 177.076 115.278 178.316 115.278V119.598C177.796 119.558 177.446 119.538 177.266 119.538C175.926 119.538 174.876 119.918 174.116 120.678C173.356 121.418 172.976 122.538 172.976 124.038V131.658H168.296V115.518H172.766V117.648ZM197.675 115.518L190.385 132.648C189.645 134.508 188.725 135.818 187.625 136.578C186.545 137.338 185.235 137.718 183.695 137.718C182.855 137.718 182.025 137.588 181.205 137.328C180.385 137.068 179.715 136.708 179.195 136.248L180.905 132.918C181.265 133.238 181.675 133.488 182.135 133.668C182.615 133.848 183.085 133.938 183.545 133.938C184.185 133.938 184.705 133.778 185.105 133.458C185.505 133.158 185.865 132.648 186.185 131.928L186.245 131.778L179.255 115.518H184.085L188.615 126.468L193.175 115.518H197.675ZM209.125 115.278C210.625 115.278 211.985 115.628 213.205 116.328C214.445 117.008 215.415 117.978 216.115 119.238C216.815 120.478 217.165 121.928 217.165 123.588C217.165 125.248 216.815 126.708 216.115 127.968C215.415 129.208 214.445 130.178 213.205 130.878C211.985 131.558 210.625 131.898 209.125 131.898C207.065 131.898 205.445 131.248 204.265 129.948V137.478H199.585V115.518H204.055V117.378C205.215 115.978 206.905 115.278 209.125 115.278ZM208.315 128.058C209.515 128.058 210.495 127.658 211.255 126.858C212.035 126.038 212.425 124.948 212.425 123.588C212.425 122.228 212.035 121.148 211.255 120.348C210.495 119.528 209.515 119.118 208.315 119.118C207.115 119.118 206.125 119.528 205.345 120.348C204.585 121.148 204.205 122.228 204.205 123.588C204.205 124.948 204.585 126.038 205.345 126.858C206.125 127.658 207.115 128.058 208.315 128.058ZM230.708 130.878C230.248 131.218 229.678 131.478 228.998 131.658C228.338 131.818 227.638 131.898 226.898 131.898C224.978 131.898 223.488 131.408 222.428 130.428C221.388 129.448 220.868 128.008 220.868 126.108V119.478H218.378V115.878H220.868V111.948H225.548V115.878H229.568V119.478H225.548V126.048C225.548 126.728 225.718 127.258 226.058 127.638C226.418 127.998 226.918 128.178 227.558 128.178C228.298 128.178 228.928 127.978 229.448 127.578L230.708 130.878ZM240.517 131.898C238.817 131.898 237.287 131.548 235.927 130.848C234.587 130.128 233.537 129.138 232.777 127.878C232.017 126.618 231.637 125.188 231.637 123.588C231.637 121.988 232.017 120.558 232.777 119.298C233.537 118.038 234.587 117.058 235.927 116.358C237.287 115.638 238.817 115.278 240.517 115.278C242.217 115.278 243.737 115.638 245.077 116.358C246.417 117.058 247.467 118.038 248.227 119.298C248.987 120.558 249.367 121.988 249.367 123.588C249.367 125.188 248.987 126.618 248.227 127.878C247.467 129.138 246.417 130.128 245.077 130.848C243.737 131.548 242.217 131.898 240.517 131.898ZM240.517 128.058C241.717 128.058 242.697 127.658 243.457 126.858C244.237 126.038 244.627 124.948 244.627 123.588C244.627 122.228 244.237 121.148 243.457 120.348C242.697 119.528 241.717 119.118 240.517 119.118C239.317 119.118 238.327 119.528 237.547 120.348C236.767 121.148 236.377 122.228 236.377 123.588C236.377 124.948 236.767 126.038 237.547 126.858C238.327 127.658 239.317 128.058 240.517 128.058ZM265.671 114.618H258.951V110.658H277.251V114.618H270.531V131.658H265.671V114.618ZM285.226 115.278C287.726 115.278 289.646 115.878 290.986 117.078C292.326 118.258 292.996 120.048 292.996 122.448V131.658H288.616V129.648C287.736 131.148 286.096 131.898 283.696 131.898C282.456 131.898 281.376 131.688 280.456 131.268C279.556 130.848 278.866 130.268 278.386 129.528C277.906 128.788 277.666 127.948 277.666 127.008C277.666 125.508 278.226 124.328 279.346 123.468C280.486 122.608 282.236 122.178 284.596 122.178H288.316C288.316 121.158 288.006 120.378 287.386 119.838C286.766 119.278 285.836 118.998 284.596 118.998C283.736 118.998 282.886 119.138 282.046 119.418C281.226 119.678 280.526 120.038 279.946 120.498L278.266 117.228C279.146 116.608 280.196 116.128 281.416 115.788C282.656 115.448 283.926 115.278 285.226 115.278ZM284.866 128.748C285.666 128.748 286.376 128.568 286.996 128.208C287.616 127.828 288.056 127.278 288.316 126.558V124.908H285.106C283.186 124.908 282.226 125.538 282.226 126.798C282.226 127.398 282.456 127.878 282.916 128.238C283.396 128.578 284.046 128.748 284.866 128.748ZM307.492 131.658L303.952 126.708L300.292 131.658H295.192L301.402 123.528L295.402 115.518H300.652L304.072 120.228L307.582 115.518H312.562L306.562 123.408L312.802 131.658H307.492ZM330.385 123.648C330.385 123.708 330.355 124.128 330.295 124.908H318.085C318.305 125.908 318.825 126.698 319.645 127.278C320.465 127.858 321.485 128.148 322.705 128.148C323.545 128.148 324.285 128.028 324.925 127.788C325.585 127.528 326.195 127.128 326.755 126.588L329.245 129.288C327.725 131.028 325.505 131.898 322.585 131.898C320.765 131.898 319.155 131.548 317.755 130.848C316.355 130.128 315.275 129.138 314.515 127.878C313.755 126.618 313.375 125.188 313.375 123.588C313.375 122.008 313.745 120.588 314.485 119.328C315.245 118.048 316.275 117.058 317.575 116.358C318.895 115.638 320.365 115.278 321.985 115.278C323.565 115.278 324.995 115.618 326.275 116.298C327.555 116.978 328.555 117.958 329.275 119.238C330.015 120.498 330.385 121.968 330.385 123.648ZM322.015 118.818C320.955 118.818 320.065 119.118 319.345 119.718C318.625 120.318 318.185 121.138 318.025 122.178H325.975C325.815 121.158 325.375 120.348 324.655 119.748C323.935 119.128 323.055 118.818 322.015 118.818ZM338.931 131.898C337.591 131.898 336.281 131.738 335.001 131.418C333.721 131.078 332.701 130.658 331.941 130.158L333.501 126.798C334.221 127.258 335.091 127.638 336.111 127.938C337.131 128.218 338.131 128.358 339.111 128.358C341.091 128.358 342.081 127.868 342.081 126.888C342.081 126.428 341.811 126.098 341.271 125.898C340.731 125.698 339.901 125.528 338.781 125.388C337.461 125.188 336.371 124.958 335.511 124.698C334.651 124.438 333.901 123.978 333.261 123.318C332.641 122.658 332.331 121.718 332.331 120.498C332.331 119.478 332.621 118.578 333.201 117.798C333.801 116.998 334.661 116.378 335.781 115.938C336.921 115.498 338.261 115.278 339.801 115.278C340.941 115.278 342.071 115.408 343.191 115.668C344.331 115.908 345.271 116.248 346.011 116.688L344.451 120.018C343.031 119.218 341.481 118.818 339.801 118.818C338.801 118.818 338.051 118.958 337.551 119.238C337.051 119.518 336.801 119.878 336.801 120.318C336.801 120.818 337.071 121.168 337.611 121.368C338.151 121.568 339.011 121.758 340.191 121.938C341.511 122.158 342.591 122.398 343.431 122.658C344.271 122.898 345.001 123.348 345.621 124.008C346.241 124.668 346.551 125.588 346.551 126.768C346.551 127.768 346.251 128.658 345.651 129.438C345.051 130.218 344.171 130.828 343.011 131.268C341.871 131.688 340.511 131.898 338.931 131.898ZM377.375 131.658L377.345 119.058L371.165 129.438H368.975L362.825 119.328V131.658H358.265V110.658H362.285L370.145 123.708L377.885 110.658H381.875L381.935 131.658H377.375ZM393.097 115.278C395.597 115.278 397.517 115.878 398.857 117.078C400.197 118.258 400.867 120.048 400.867 122.448V131.658H396.487V129.648C395.607 131.148 393.967 131.898 391.567 131.898C390.327 131.898 389.247 131.688 388.327 131.268C387.427 130.848 386.737 130.268 386.257 129.528C385.777 128.788 385.537 127.948 385.537 127.008C385.537 125.508 386.097 124.328 387.217 123.468C388.357 122.608 390.107 122.178 392.467 122.178H396.187C396.187 121.158 395.877 120.378 395.257 119.838C394.637 119.278 393.707 118.998 392.467 118.998C391.607 118.998 390.757 119.138 389.917 119.418C389.097 119.678 388.397 120.038 387.817 120.498L386.137 117.228C387.017 116.608 388.067 116.128 389.287 115.788C390.527 115.448 391.797 115.278 393.097 115.278ZM392.737 128.748C393.537 128.748 394.247 128.568 394.867 128.208C395.487 127.828 395.927 127.278 396.187 126.558V124.908H392.977C391.057 124.908 390.097 125.538 390.097 126.798C390.097 127.398 390.327 127.878 390.787 128.238C391.267 128.578 391.917 128.748 392.737 128.748ZM421.718 109.398V131.658H417.248V129.798C416.088 131.198 414.408 131.898 412.208 131.898C410.688 131.898 409.308 131.558 408.068 130.878C406.848 130.198 405.888 129.228 405.188 127.968C404.488 126.708 404.138 125.248 404.138 123.588C404.138 121.928 404.488 120.468 405.188 119.208C405.888 117.948 406.848 116.978 408.068 116.298C409.308 115.618 410.688 115.278 412.208 115.278C414.268 115.278 415.878 115.928 417.038 117.228V109.398H421.718ZM413.018 128.058C414.198 128.058 415.178 127.658 415.958 126.858C416.738 126.038 417.128 124.948 417.128 123.588C417.128 122.228 416.738 121.148 415.958 120.348C415.178 119.528 414.198 119.118 413.018 119.118C411.818 119.118 410.828 119.528 410.048 120.348C409.268 121.148 408.878 122.228 408.878 123.588C408.878 124.948 409.268 126.038 410.048 126.858C410.828 127.658 411.818 128.058 413.018 128.058ZM441.86 123.648C441.86 123.708 441.83 124.128 441.77 124.908H429.56C429.78 125.908 430.3 126.698 431.12 127.278C431.94 127.858 432.96 128.148 434.18 128.148C435.02 128.148 435.76 128.028 436.4 127.788C437.06 127.528 437.67 127.128 438.23 126.588L440.72 129.288C439.2 131.028 436.98 131.898 434.06 131.898C432.24 131.898 430.63 131.548 429.23 130.848C427.83 130.128 426.75 129.138 425.99 127.878C425.23 126.618 424.85 125.188 424.85 123.588C424.85 122.008 425.22 120.588 425.96 119.328C426.72 118.048 427.75 117.058 429.05 116.358C430.37 115.638 431.84 115.278 433.46 115.278C435.04 115.278 436.47 115.618 437.75 116.298C439.03 116.978 440.03 117.958 440.75 119.238C441.49 120.498 441.86 121.968 441.86 123.648ZM433.49 118.818C432.43 118.818 431.54 119.118 430.82 119.718C430.1 120.318 429.66 121.138 429.5 122.178H437.45C437.29 121.158 436.85 120.348 436.13 119.748C435.41 119.128 434.53 118.818 433.49 118.818ZM460.702 132.018C459.042 132.018 457.432 131.798 455.872 131.358C454.332 130.898 453.092 130.308 452.152 129.588L453.802 125.928C454.702 126.588 455.772 127.118 457.012 127.518C458.252 127.918 459.492 128.118 460.732 128.118C462.112 128.118 463.132 127.918 463.792 127.518C464.452 127.098 464.782 126.548 464.782 125.868C464.782 125.368 464.582 124.958 464.182 124.638C463.802 124.298 463.302 124.028 462.682 123.828C462.082 123.628 461.262 123.408 460.222 123.168C458.622 122.788 457.312 122.408 456.292 122.028C455.272 121.648 454.392 121.038 453.652 120.198C452.932 119.358 452.572 118.238 452.572 116.838C452.572 115.618 452.902 114.518 453.562 113.538C454.222 112.538 455.212 111.748 456.532 111.168C457.872 110.588 459.502 110.298 461.422 110.298C462.762 110.298 464.072 110.458 465.352 110.778C466.632 111.098 467.752 111.558 468.712 112.158L467.212 115.848C465.272 114.748 463.332 114.198 461.392 114.198C460.032 114.198 459.022 114.418 458.362 114.858C457.722 115.298 457.402 115.878 457.402 116.598C457.402 117.318 457.772 117.858 458.512 118.218C459.272 118.558 460.422 118.898 461.962 119.238C463.562 119.618 464.872 119.998 465.892 120.378C466.912 120.758 467.782 121.358 468.502 122.178C469.242 122.998 469.612 124.108 469.612 125.508C469.612 126.708 469.272 127.808 468.592 128.808C467.932 129.788 466.932 130.568 465.592 131.148C464.252 131.728 462.622 132.018 460.702 132.018ZM472.603 115.518H477.283V131.658H472.603V115.518ZM474.943 113.268C474.083 113.268 473.383 113.018 472.843 112.518C472.303 112.018 472.033 111.398 472.033 110.658C472.033 109.918 472.303 109.298 472.843 108.798C473.383 108.298 474.083 108.048 474.943 108.048C475.803 108.048 476.503 108.288 477.043 108.768C477.583 109.248 477.853 109.848 477.853 110.568C477.853 111.348 477.583 111.998 477.043 112.518C476.503 113.018 475.803 113.268 474.943 113.268ZM502.296 115.278C504.316 115.278 505.916 115.878 507.096 117.078C508.296 118.258 508.896 120.038 508.896 122.418V131.658H504.216V123.138C504.216 121.858 503.946 120.908 503.406 120.288C502.886 119.648 502.136 119.328 501.156 119.328C500.056 119.328 499.186 119.688 498.546 120.408C497.906 121.108 497.586 122.158 497.586 123.558V131.658H492.906V123.138C492.906 120.598 491.886 119.328 489.846 119.328C488.766 119.328 487.906 119.688 487.266 120.408C486.626 121.108 486.306 122.158 486.306 123.558V131.658H481.626V115.518H486.096V117.378C486.696 116.698 487.426 116.178 488.286 115.818C489.166 115.458 490.126 115.278 491.166 115.278C492.306 115.278 493.336 115.508 494.256 115.968C495.176 116.408 495.916 117.058 496.476 117.918C497.136 117.078 497.966 116.428 498.966 115.968C499.986 115.508 501.096 115.278 502.296 115.278ZM522.631 115.278C524.131 115.278 525.491 115.628 526.711 116.328C527.951 117.008 528.921 117.978 529.621 119.238C530.321 120.478 530.671 121.928 530.671 123.588C530.671 125.248 530.321 126.708 529.621 127.968C528.921 129.208 527.951 130.178 526.711 130.878C525.491 131.558 524.131 131.898 522.631 131.898C520.571 131.898 518.951 131.248 517.771 129.948V137.478H513.091V115.518H517.561V117.378C518.721 115.978 520.411 115.278 522.631 115.278ZM521.821 128.058C523.021 128.058 524.001 127.658 524.761 126.858C525.541 126.038 525.931 124.948 525.931 123.588C525.931 122.228 525.541 121.148 524.761 120.348C524.001 119.528 523.021 119.118 521.821 119.118C520.621 119.118 519.631 119.528 518.851 120.348C518.091 121.148 517.711 122.228 517.711 123.588C517.711 124.948 518.091 126.038 518.851 126.858C519.631 127.658 520.621 128.058 521.821 128.058ZM533.804 109.398H538.484V131.658H533.804V109.398ZM558.637 123.648C558.637 123.708 558.607 124.128 558.547 124.908H546.337C546.557 125.908 547.077 126.698 547.897 127.278C548.717 127.858 549.737 128.148 550.957 128.148C551.797 128.148 552.537 128.028 553.177 127.788C553.837 127.528 554.447 127.128 555.007 126.588L557.497 129.288C555.977 131.028 553.757 131.898 550.837 131.898C549.017 131.898 547.407 131.548 546.007 130.848C544.607 130.128 543.527 129.138 542.767 127.878C542.007 126.618 541.627 125.188 541.627 123.588C541.627 122.008 541.997 120.588 542.737 119.328C543.497 118.048 544.527 117.058 545.827 116.358C547.147 115.638 548.617 115.278 550.237 115.278C551.817 115.278 553.247 115.618 554.527 116.298C555.807 116.978 556.807 117.958 557.527 119.238C558.267 120.498 558.637 121.968 558.637 123.648ZM550.267 118.818C549.207 118.818 548.317 119.118 547.597 119.718C546.877 120.318 546.437 121.138 546.277 122.178H554.227C554.067 121.158 553.627 120.348 552.907 119.748C552.187 119.128 551.307 118.818 550.267 118.818Z" fill="#142039" />
	<path d="M152.533 47.9393H132.32V33.1792H191.267V47.9393H171.148V98.9888H152.533V47.9393ZM216.594 47.1872C225.056 47.1872 231.511 49.1303 235.961 53.016C240.411 56.8394 242.636 62.731 242.636 70.6906V98.9888H225.996V92.4078C223.426 97.3593 218.412 99.8349 210.953 99.8349C207.005 99.8349 203.589 99.1456 200.706 97.7666C197.823 96.388 195.629 94.5389 194.125 92.2198C192.683 89.8382 191.963 87.143 191.963 84.1346C191.963 79.3087 193.811 75.5793 197.509 72.947C201.207 70.2522 206.911 68.9044 214.62 68.9044H224.773C224.46 63.5144 220.856 60.8192 213.962 60.8192C211.518 60.8192 209.042 61.2268 206.535 62.0414C204.028 62.7935 201.897 63.8592 200.142 65.2378L194.125 53.1101C196.945 51.2298 200.361 49.7884 204.372 48.7854C208.446 47.7201 212.52 47.1872 216.594 47.1872ZM215.936 88.5533C218.004 88.5533 219.822 88.052 221.389 87.049C222.956 86.0465 224.084 84.5735 224.773 82.6304V78.2117H217.064C211.862 78.2117 209.261 79.9356 209.261 83.3825C209.261 84.9495 209.856 86.2029 211.047 87.143C212.238 88.0832 213.868 88.5533 215.936 88.5533ZM286.252 98.9888L277.132 85.6388L267.355 98.9888H247.988L267.355 73.511L248.552 48.0333H268.671L277.696 60.9132L287.098 48.0333H305.995L287.192 72.853L306.653 98.9888H286.252Z" fill="#1F304F" />
	<path d="M345.682 100.117C338.975 100.117 332.896 98.6755 327.443 95.7923C322.053 92.8467 317.791 88.8041 314.657 83.6645C311.586 78.4626 310.05 72.6025 310.05 66.084C310.05 59.5658 311.586 53.7369 314.657 48.5974C317.791 43.3954 322.053 39.3528 327.443 36.4697C332.896 33.5239 339.007 32.051 345.776 32.051C351.479 32.051 356.618 33.0539 361.194 35.0595C365.832 37.0651 369.718 39.9481 372.852 43.7087L363.074 52.734C358.624 47.5948 353.109 45.0249 346.528 45.0249C342.454 45.0249 338.819 45.9338 335.622 47.7513C332.426 49.5063 329.919 51.9819 328.101 55.1784C326.346 58.3748 325.469 62.0101 325.469 66.084C325.469 70.1581 326.346 73.7931 328.101 76.9896C329.919 80.186 332.426 82.6932 335.622 84.5107C338.819 86.2657 342.454 87.143 346.528 87.143C353.109 87.143 358.624 84.5422 363.074 79.3399L372.852 88.3652C369.718 92.1886 365.832 95.103 361.194 97.1085C356.556 99.1144 351.385 100.117 345.682 100.117ZM412.844 47.6572C419.112 47.6572 424.159 49.5375 427.98 53.2981C431.868 57.0586 433.809 62.637 433.809 70.0325V98.9888H419.143V72.2889C419.143 68.2779 418.266 65.3006 416.51 63.3576C414.758 61.3521 412.219 60.3491 408.895 60.3491C405.198 60.3491 402.254 61.5089 400.058 63.8276C397.865 66.084 396.767 69.4685 396.767 73.9811V98.9888H382.103V29.2306H396.767V53.6741C398.711 51.7314 401.062 50.2584 403.818 49.2555C406.579 48.1901 409.587 47.6572 412.844 47.6572ZM467.507 47.6572C475.34 47.6572 481.357 49.5375 485.558 53.2981C489.754 56.9962 491.857 62.6054 491.857 70.1265V98.9888H478.131V92.6899C475.37 97.3905 470.233 99.7409 462.712 99.7409C458.824 99.7409 455.439 99.0828 452.559 97.7666C449.738 96.4504 447.576 94.6329 446.072 92.3138C444.568 89.995 443.816 87.3627 443.816 84.4166C443.816 79.716 445.568 76.0182 449.08 73.323C452.653 70.6282 458.136 69.2804 465.533 69.2804H477.19C477.19 66.084 476.216 63.6396 474.276 61.9473C472.332 60.1927 469.417 59.315 465.533 59.315C462.836 59.315 460.174 59.7538 457.542 60.6312C454.969 61.4461 452.777 62.5742 450.961 64.0157L445.696 53.7681C448.452 51.8254 451.743 50.3212 455.567 49.2555C459.452 48.1901 463.431 47.6572 467.507 47.6572ZM466.379 89.8694C468.883 89.8694 471.11 89.3054 473.054 88.1772C474.994 86.9866 476.374 85.2628 477.19 83.0064V77.8357H467.131C461.114 77.8357 458.106 79.81 458.106 83.7585C458.106 85.6388 458.824 87.143 460.268 88.2712C461.772 89.337 463.807 89.8694 466.379 89.8694ZM505.128 48.4094H519.794V98.9888H505.128V48.4094ZM512.461 41.3583C509.768 41.3583 507.572 40.575 505.88 39.008C504.187 37.4411 503.341 35.4982 503.341 33.1792C503.341 30.8602 504.187 28.9173 505.88 27.3503C507.572 25.7834 509.768 25 512.461 25C515.157 25 517.349 25.7521 519.042 27.2563C520.734 28.7606 521.58 30.6408 521.58 32.8972C521.58 35.3415 520.734 37.3785 519.042 39.008C517.349 40.575 515.157 41.3583 512.461 41.3583ZM564.149 47.6572C570.415 47.6572 575.461 49.5375 579.286 53.2981C583.17 57.0586 585.115 62.637 585.115 70.0325V98.9888H570.448V72.2889C570.448 68.2779 569.568 65.3006 567.816 63.3576C566.06 61.3521 563.521 60.3491 560.201 60.3491C556.5 60.3491 553.556 61.5089 551.364 63.8276C549.167 66.084 548.073 69.4685 548.073 73.9811V98.9888H533.407V48.4094H547.415V54.3322C549.355 52.2015 551.77 50.5717 554.654 49.4435C557.535 48.2529 560.701 47.6572 564.149 47.6572ZM615.425 99.7409C611.224 99.7409 607.121 99.2396 603.109 98.2367C599.096 97.1713 595.9 95.8551 593.519 94.2881L598.408 83.7585C600.664 85.2003 603.391 86.3909 606.587 87.3311C609.784 88.2088 612.916 88.6473 615.989 88.6473C622.194 88.6473 625.296 87.1118 625.296 84.0406C625.296 82.5992 624.45 81.565 622.758 80.9381C621.065 80.3116 618.463 79.7788 614.954 79.3399C610.818 78.7134 607.403 77.9925 604.707 77.1776C602.011 76.363 599.66 74.9212 597.656 72.8529C595.712 70.7846 594.742 67.839 594.742 64.0157C594.742 60.8192 595.652 57.9988 597.468 55.5544C599.348 53.0476 602.044 51.1045 605.553 49.7256C609.126 48.3469 613.326 47.6572 618.151 47.6572C621.723 47.6572 625.266 48.0649 628.775 48.8794C632.347 49.6315 635.292 50.6973 637.612 52.0759L632.723 62.5114C628.274 60.0046 623.416 58.7509 618.151 58.7509C615.018 58.7509 612.668 59.1897 611.1 60.0671C609.532 60.9448 608.75 62.0729 608.75 63.4516C608.75 65.0186 609.596 66.1155 611.288 66.7421C612.98 67.3689 615.677 67.9642 619.373 68.5283C623.51 69.218 626.894 69.9701 629.527 70.7846C632.159 71.5368 634.445 72.947 636.39 75.0153C638.334 77.0836 639.304 79.9668 639.304 83.6645C639.304 86.7986 638.364 89.5874 636.484 92.0318C634.603 94.4761 631.847 96.388 628.21 97.7666C624.638 99.0828 620.377 99.7409 615.425 99.7409Z" fill="#F16318" />
	<path fill-rule="evenodd" clip-rule="evenodd" d="M51.1774 119.452L61.8756 130.15C66.0083 134.283 72.7727 134.285 76.9073 130.15L102.403 104.654H131.922L81.6208 154.956C74.8944 161.681 63.8876 161.681 57.1612 154.956L36.2172 134.012L51.1774 119.452Z" fill="#F16318" />
	<path fill-rule="evenodd" clip-rule="evenodd" d="M78.8227 52.9841L76.9073 51.0682C72.7727 46.9332 66.0083 46.9332 61.8756 51.0682C51.2005 61.7438 40.5249 72.419 29.8495 83.0946C26.7165 86.2275 25.9574 90.8736 27.5758 94.7385C29.1213 98.456 42.58 110.845 46.48 113.856L31.1025 128.897C22.4166 120.211 13.7312 111.524 5.04426 102.839C-1.68142 96.1129 -1.68142 85.1061 5.04426 78.3792L54.4259 29.0978L25.3285 0H54.8476C80.4551 25.6092 106.317 50.9582 131.922 76.5646H102.403L93.6023 67.7628L78.8227 52.9841Z" fill="#142039" />
	<path d="M57.1612 154.956C57.8506 155.645 58.5859 156.265 59.3558 156.812C58.5859 156.265 57.8511 155.645 57.1612 154.956ZM97.6435 109.413L76.9073 130.15C74.8402 132.217 72.1161 133.251 69.3915 133.251C66.6668 133.251 63.9422 132.217 61.8756 130.15L51.1774 119.452L36.2172 134.012L51.1774 119.452L61.8756 130.15C63.9422 132.217 66.6668 133.251 69.3915 133.251C72.1161 133.251 74.8402 132.217 76.9073 130.15L97.6435 109.413Z" fill="white" />
	<path d="M97.6435 109.413L76.9073 130.15C74.8402 132.217 72.1161 133.251 69.3915 133.251C66.6668 133.251 63.9422 132.217 61.8756 130.15L51.1774 119.452L36.2172 134.012L57.1612 154.956C57.8511 155.645 58.5859 156.265 59.3558 156.812C62.3427 158.937 65.8654 160 69.3891 160C71.8072 160 74.2252 159.499 76.4698 158.499C88.6673 145.5 96.5036 128.361 97.6435 109.413Z" fill="#F2721D" />
	<path d="M69.391 47.9673C68.1619 47.9673 66.9323 48.1772 65.7632 48.5985C66.9323 48.1772 68.1609 47.9673 69.3901 47.9677C71.8007 47.9677 74.2118 48.777 76.1669 50.3955C76.166 50.3941 76.1651 50.3927 76.1637 50.3913C74.2086 48.7751 71.7993 47.9673 69.391 47.9673ZM50.9397 32.5766L5.04426 78.3788C1.68142 81.743 0 86.1763 0 90.6091C0 86.1763 1.68142 81.743 5.04426 78.3788L50.9397 32.5766Z" fill="white" />
	<path d="M50.9397 32.5766L5.04426 78.3793C1.68142 81.743 0 86.1763 0 90.6091C0 95.0429 1.68142 99.4757 5.04426 102.839C13.7311 111.524 22.4166 120.211 31.1025 128.897L46.48 113.856C42.58 110.845 29.1212 98.456 27.5758 94.7386C27.0256 93.4253 26.7502 92.0213 26.7492 90.6174C26.7473 87.8905 27.7812 85.1626 29.8494 83.0946C40.5249 72.419 51.2005 61.7439 61.8756 51.0683C63.01 49.9335 64.3418 49.1099 65.7633 48.5984C66.9323 48.1776 68.1619 47.9672 69.391 47.9672C71.7993 47.9672 74.2086 48.7751 76.1637 50.3913C69.0599 42.9067 60.4994 36.8198 50.9397 32.5766Z" fill="#1F304F" />
</svg>
