<svg width="348" height="89" viewBox="0 0 348 89" fill="none" xmlns="http://www.w3.org/2000/svg">
<path d="M32.9161 65.4891C30.5517 67.1151 29.1011 69.3115 28.1341 71.9108C26.5002 76.369 26.6225 80.9488 27.4088 85.5576C27.5895 86.6215 27.8233 87.6744 28.0412 88.7901H10.9375L11.7531 82.6714L11.4184 82.5866C10.5417 84.1867 9.6145 85.7563 8.80423 87.3964C8.27284 88.4862 7.60604 89.0397 6.4132 88.8521C5.66933 88.7359 4.89624 88.8293 3.92655 88.8293C6.64698 85.5835 8.16394 81.8973 9.27178 78.0037C9.46768 77.3005 9.48691 76.5547 9.32753 75.8412C8.35254 71.8456 8.98222 68.2927 11.4981 65.0776C11.9045 64.5583 11.7239 63.5139 11.8142 62.7137L11.4236 62.5236C11.0384 63.0457 10.4805 63.5111 10.2999 64.1042C9.64638 66.2382 8.92907 68.3807 8.58368 70.5799C7.59276 76.8429 5.21504 82.4673 2.12533 87.8196C1.61791 88.6958 1.08392 89.028 0 88.7021C5.07424 80.7392 7.45461 71.8598 8.38975 62.1377C6.73996 63.8402 6.34146 65.9686 6.96844 68.8773C5.74106 68.8546 4.93875 68.131 4.31177 67.1576C2.83467 64.842 2.87983 62.271 3.34209 59.6688C3.97172 56.1698 6.07846 53.6414 8.31799 51.2151C10.0715 49.311 11.8036 47.3812 12.8663 44.9096C13.1797 44.1775 13.4162 43.4056 13.7376 42.5117L10.5948 44.8188C10.5629 44.535 10.5284 44.4499 10.5523 44.4243C12.582 42.1541 13.4108 39.3902 13.363 36.297C13.3392 34.6937 13.727 33.2691 14.7684 32.0546C14.8495 31.9137 14.9007 31.7557 14.9186 31.5914C14.9365 31.4272 14.9206 31.2609 14.872 31.1039C14.605 30.3646 14.5127 29.5665 14.603 28.78C14.6934 27.9936 14.9637 27.243 15.3901 26.5947C15.535 26.2698 15.6498 25.9304 15.7327 25.5816C16.2641 24.1628 16.5962 22.6104 17.3693 21.3676C19.1466 18.4986 22.3186 18.0417 24.9275 20.0622C28.3865 17.4287 32.7009 19.0207 34.0877 24.6963C34.3205 25.5798 34.6117 26.4447 34.9591 27.2843C35.5542 28.7997 35.6923 30.3433 34.7413 31.6771C34.0611 32.6249 34.1275 33.4961 34.5367 34.3787C34.9138 35.2218 35.4112 35.9972 36.0111 36.6773C36.9171 37.6648 37.9585 38.5104 39.0451 39.515C39.9137 38.0365 40.655 36.5495 41.5928 35.2243C44.0608 31.7169 44.98 27.8178 45.174 23.4589C45.3599 19.3953 46.2021 15.3572 46.845 11.3275C47.1107 9.7441 46.675 8.48975 45.8328 7.24117C44.7702 5.65486 43.503 4.75813 41.6141 5.17812C40.9578 5.32284 40.2857 5.40798 39.6242 5.51865C39.9191 6.18836 40.1422 6.91199 40.5248 7.5051C41.6459 9.27867 42.868 10.9813 43.9784 12.7719C44.2863 13.2964 44.4218 13.9155 44.3637 14.5314C44.1381 16.2795 43.3181 17.8778 42.06 19.0215C40.802 20.1653 39.1938 20.7746 37.5423 20.7332C35.8907 20.6919 34.3111 20.0027 33.1047 18.7971C31.8983 17.5916 31.1493 15.954 31.0007 14.1965C30.9872 13.7199 31.1175 13.2513 31.3726 12.86C32.7009 10.7789 34.0594 8.72247 35.4479 6.69065C35.8066 6.16282 35.9447 5.76837 35.5994 5.11569C35.3568 4.62877 35.2798 4.06707 35.3816 3.52633C35.4833 2.98558 35.7574 2.49926 36.1572 2.15023C36.9701 1.40958 38.062 1.39255 39.0105 1.94591C39.5724 2.27242 40.1907 2.47325 40.8276 2.53617C41.9116 2.62981 43.0088 2.52198 44.098 2.57589C44.895 2.61562 45.1607 2.1559 45.2749 1.46066C45.5592 -0.224976 45.7558 -0.00363054 47.2674 0.024747C48.9651 0.055962 50.0489 1.53727 51.6403 1.54862C51.7109 1.55304 51.7778 1.58424 51.829 1.63659C53.6647 3.60884 55.9441 2.11334 57.9817 2.5163C58.1518 2.55035 58.383 2.25522 58.5796 2.10766C59.6076 1.34146 60.7314 1.35566 61.5922 2.14739C62.0068 2.50655 62.288 3.01177 62.3854 3.5724C62.4827 4.13303 62.3899 4.71238 62.1235 5.20649C61.8313 5.77405 61.9375 6.13444 62.2537 6.60551C63.6352 8.64301 65.014 10.6862 66.329 12.7748C66.6308 13.2603 66.772 13.8397 66.7301 14.4207C66.5226 16.1403 65.739 17.7214 64.5243 18.8716C63.3096 20.0217 61.746 20.663 60.1229 20.6769C58.4997 20.6907 56.9268 20.0761 55.6951 18.9469C54.4633 17.8176 53.6562 16.2501 53.423 14.5342C53.3582 13.9195 53.4922 13.2997 53.8028 12.7777C55.1312 10.6521 56.5498 8.5948 57.9153 6.50051C58.0774 6.25079 58.2847 5.79958 58.181 5.64919C58.0771 5.51494 57.9485 5.40489 57.8032 5.32582C57.6579 5.24675 57.499 5.20035 57.3362 5.18947C55.8325 5.14407 54.3262 5.16961 53.0351 5.16961C51.4703 8.90125 51.4836 12.6414 51.7518 16.4525C52.2009 22.8432 51.3029 29.0778 49.8922 35.2953C48.8508 39.8357 47.5437 44.2484 45.5804 48.4227C44.9349 49.7905 44.0821 51.0505 43.2081 52.5602C43.8138 53.1277 44.4513 53.8031 45.1448 54.3962C45.9923 55.1255 46.9327 55.7385 47.7509 56.5046C49.4884 58.1307 49.6106 60.1938 48.2823 62.0213C48.0644 60.8861 48.1627 59.3226 47.4853 58.4315C46.8078 57.5405 45.3334 57.2 43.928 56.4819C45.8859 60.2165 46.9619 63.7268 44.6692 67.3222C43.2319 69.5725 41.0004 70.282 38.7714 70.3472C38.8511 69.4278 39.138 68.5283 38.9521 67.7592C38.5057 65.9261 36.5265 65.4436 35.2912 66.8057C33.8698 68.375 33.5112 70.4324 33.2349 72.4812C32.5894 77.26 33.5325 83.7329 36.9542 88.7987C35.8916 88.7987 34.9325 88.8639 33.9841 88.7587C33.7051 88.7272 33.4129 88.2593 33.2243 87.9303C29.0719 80.6002 29.1463 73.1964 32.9161 65.4891ZM21.2639 51.3286C21.2082 53.8031 19.7868 55.3185 18.2168 56.6835C16.4984 58.1895 15.1338 60.1039 14.2318 62.2738C14.1413 62.5291 14.0675 62.7908 14.0112 63.0571C15.7912 62.5292 17.5181 62.149 19.1492 61.4963C20.9717 60.7669 22.8341 59.998 24.4626 58.8742C26.5135 57.4553 27.5629 55.1568 28.2165 52.6624L23.9074 55.6278L23.663 55.31C26.2851 52.0125 27.5417 48.1362 28.1022 44.0923H22.1486C21.535 46.6917 21.434 49.3223 23.3176 52.0153L21.2639 51.3286ZM41.4918 45.7184C43.2505 42.6479 45.0385 39.5207 46.8317 36.3963C47.557 35.1307 47.7562 33.7458 47.7164 32.2872C47.6819 30.9762 47.5623 29.6424 47.7164 28.3541C48.2823 23.93 48.9863 19.5258 49.5761 15.1046C49.8604 12.9678 50.4103 10.8281 49.8656 8.64019C48.5373 8.85304 48.1255 8.64019 48.0777 7.5051C48.0432 6.71051 47.9422 6.14579 47.1054 5.93012C46.9141 5.87904 46.8211 5.38811 46.667 5.0788C47.5384 4.79502 48.5532 5.18095 48.8694 3.9437C48.091 3.98342 47.3949 3.98058 46.7095 4.06571C46.3402 4.11112 45.785 4.20476 45.6761 4.45449C45.5432 4.76097 45.6974 5.30581 45.894 5.6577C46.1198 6.05215 46.5315 6.32457 46.8477 6.6651C47.1134 6.94888 47.5224 7.23266 47.5809 7.55896C47.828 8.97788 48.2238 10.4507 48.099 11.8582C47.6792 16.5263 46.9991 21.1689 46.5289 25.8342C46.1941 29.1572 45.5565 32.3327 43.8722 35.2186C42.8095 37.0291 41.8877 38.9361 40.9499 40.8204C40.7833 41.1704 40.723 41.5672 40.7772 41.9555C40.9738 43.1729 41.2395 44.4044 41.4945 45.7184H41.4918ZM18.9447 35.5053C19.476 36.9951 19.8187 38.1756 20.2916 39.2993C21.1869 41.4135 22.7783 42.5741 24.9408 42.5741C27.1033 42.5741 28.6734 41.3936 29.5953 39.3078C29.9539 38.4962 30.1399 37.6052 30.5065 36.7936C30.9581 35.8032 30.549 35.3747 29.7387 35.0342C27.3477 34.0211 24.8505 34.0126 22.3665 34.4128C21.2533 34.5915 20.1854 35.0966 18.9447 35.5053ZM14.2211 75.6737C13.1186 72.521 13.6314 70.8013 16.1526 68.9936C16.8805 68.4715 17.6642 68.043 18.4267 67.5748C20.2544 66.4595 22.13 65.4237 23.9047 64.2148C25.5917 63.1141 26.8972 61.4565 27.624 59.4928C25.9822 61.2693 23.9286 62.288 21.8086 63.1819C19.8798 63.9879 17.8979 64.6632 16.0251 65.594C14.624 66.271 13.3119 67.1411 12.1224 68.182C10.7542 69.4136 10.794 71.1702 11.3254 72.8701C11.7717 74.3059 12.6086 75.3304 14.2211 75.6737ZM37.9532 46.1412C35.0893 49.1776 34.8422 52.2424 37.0791 55.3753C37.9505 56.5983 38.9095 57.7504 39.7969 58.9593C41.2846 60.994 42.0285 63.2756 41.6831 65.8834C41.6087 66.451 41.5077 66.9959 41.3962 67.6882C42.9902 66.7745 43.6517 65.472 43.8217 63.7949C44.0741 61.292 43.3037 59.1438 41.8903 57.2084C41.0243 56.0251 40.121 54.8758 39.2735 53.6811C38.062 51.9784 37.4351 50.0658 37.6795 47.8949C37.7406 47.3812 37.8389 46.8733 37.9532 46.1412ZM64.8758 12.9904C63.4731 10.9388 62.1235 8.94663 60.75 6.96874C60.2638 6.26781 59.7777 6.40119 59.3261 7.05671C58.4865 8.3025 57.6284 9.53407 56.7809 10.7713C56.2788 11.5035 55.7794 12.2413 55.272 12.9876L64.8758 12.9904ZM42.4881 12.9706C41.0535 10.8735 39.7065 8.8729 38.3197 6.90348C37.8575 6.24795 37.3687 6.44092 36.9596 7.04252C36.1758 8.19469 35.3868 9.34109 34.6031 10.4932L32.9135 12.9706H42.4881ZM30.1983 29.7758C28.9152 27.534 27.1803 26.1946 25.1294 25.3063C24.9978 25.2577 24.8546 25.2577 24.723 25.3063C22.5976 26.1237 20.8548 27.4319 19.6753 29.807C23.1047 28.6983 26.7632 28.6875 30.1983 29.7758ZM14.1441 48.5334C12.5155 50.168 11.0411 51.5073 9.72874 53.0057C8.47251 54.4162 7.32712 55.9348 6.30427 57.5461C5.68527 58.5393 5.44351 59.7993 5.04235 60.9146C6.71074 59.1409 8.27818 57.3844 9.93327 55.7357C11.87 53.789 13.3657 51.5953 14.1441 48.5334ZM12.6059 58.3379L12.8317 58.44C13.363 57.7193 13.8785 56.9672 14.4576 56.2862C15.0367 55.6051 15.7859 54.9383 16.3863 54.2174C17.0208 53.5208 17.5911 52.7606 18.0893 51.9473C19.2077 49.9608 19.0643 46.9726 17.8236 45.2615C17.8236 48.6157 16.6706 51.4364 14.7126 53.9308C14.2717 54.4655 13.8917 55.0541 13.5809 55.6845C13.1904 56.5274 12.9247 57.444 12.6059 58.3294V58.3379ZM59.9795 15.3316L55.4154 14.94C55.9467 16.952 57.4239 18.3936 59.079 18.5439C58.6167 17.3181 58.8718 16.2738 59.9795 15.3316ZM36.4309 18.7028C35.8995 17.3209 36.2263 16.2652 37.1588 15.3458L33.1021 14.9287C33.3199 16.8384 34.3295 18.0246 36.4309 18.7028ZM14.7525 39.4327C16.3199 37.7953 16.5564 35.8004 16.219 33.4365C13.8014 35.0314 15.1031 37.4661 14.7525 39.4327ZM23.6098 22.1423C23.3565 21.5924 22.9317 21.1542 22.4084 20.9029C21.8852 20.6517 21.2964 20.6033 20.7432 20.7659C19.6567 21.0497 18.7667 22.1054 18.7109 23.2547C20.0844 21.5747 21.782 21.6116 23.6098 22.1423ZM37.7805 3.32506C37.4085 3.04129 37.1667 2.70643 36.9676 2.73197C36.8368 2.777 36.7191 2.85736 36.6261 2.96526C36.533 3.07315 36.4676 3.20491 36.4362 3.34776C36.4362 3.55208 36.7736 3.91531 36.9835 3.91531C37.1934 3.91531 37.4165 3.61735 37.7805 3.32506ZM60.2825 3.291C59.876 3.00723 59.6183 2.69791 59.4031 2.72345C59.1879 2.74899 59.0099 3.12641 58.816 3.3506C59.0285 3.55492 59.2304 3.91815 59.4562 3.91815C59.6821 3.91815 59.8999 3.60316 60.2825 3.291Z" fill="#334480"/>
<path d="M21.2663 51.3259L23.3199 52.0183C21.4363 49.3253 21.5373 46.6918 22.1509 44.0953H28.1045C27.544 48.1391 26.2874 52.0183 23.6652 55.313L23.9097 55.6308L28.2188 52.6568C27.5652 55.1512 26.5159 57.4469 24.4649 58.8687C22.8444 60.0037 20.9847 60.7615 19.1516 61.4907C17.5204 62.1434 15.7935 62.5237 14.0136 63.0515C14.0699 62.7853 14.1436 62.5236 14.2341 62.2683C15.1361 60.0983 16.5008 58.1839 18.2191 56.6779C19.7866 55.3186 21.2105 53.8005 21.2663 51.3259Z" fill="white"/>
<path d="M41.4946 45.7184C41.2289 44.4045 40.9633 43.1644 40.78 41.93C40.7257 41.5417 40.7861 41.1449 40.9526 40.7948C41.8984 38.9106 42.8123 37.0036 43.875 35.1931C45.5673 32.3071 46.2023 29.1317 46.5317 25.8087C47.0019 21.1434 47.6794 16.5037 48.1018 11.8327C48.2293 10.4138 47.8361 8.95806 47.5837 7.53349C47.5253 7.19865 47.1161 6.92339 46.8505 6.63961C46.5343 6.29908 46.1225 6.02665 45.8967 5.6322C45.7028 5.29168 45.5461 4.73831 45.6789 4.429C45.7878 4.17643 46.3431 4.08563 46.7123 4.04023C47.4004 3.95509 48.0964 3.95793 48.8722 3.9182C48.5561 5.15263 47.5439 4.76953 46.6698 5.05331C46.8239 5.37397 46.9143 5.86774 47.1082 5.90463C47.945 6.1203 48.046 6.68785 48.0805 7.47963C48.1283 8.61471 48.5269 8.83322 49.8684 8.61471C50.3998 10.8026 49.8684 12.9423 49.5789 15.0791C48.9891 19.5004 48.2825 23.9046 47.7192 28.3286C47.5545 29.617 47.674 30.9507 47.7192 32.2617C47.7564 33.7204 47.5598 35.0995 46.8346 36.3708C45.044 39.5207 43.2534 42.6479 41.4946 45.7184Z" fill="white"/>
<path d="M18.9445 35.5054C20.1825 35.0967 21.2505 34.5916 22.3636 34.4099C24.8502 34.0098 27.3343 34.0184 29.7359 35.0315C30.5329 35.372 30.9553 35.8004 30.5037 36.7908C30.137 37.5968 29.9511 38.4935 29.5924 39.3051C28.6705 41.3908 27.1084 42.5827 24.9379 42.5714C22.7674 42.56 21.1841 41.4107 20.2914 39.2966C19.8212 38.1757 19.4758 36.9952 18.9445 35.5054ZM23.1951 38.9248C24.3853 39.867 25.5516 39.8982 26.7073 38.9248H23.1951ZM23.8646 37.2874C24.6192 38.3175 25.4905 38.2807 25.9262 37.2874H23.8646Z" fill="white"/>
<path d="M14.2208 75.6738C12.6109 75.3304 11.7581 74.3031 11.3197 72.87C10.7884 71.1674 10.7539 69.4108 12.1167 68.182C13.3071 67.1409 14.62 66.2708 16.022 65.594C17.895 64.6633 19.8795 63.9907 21.8056 63.1819C23.931 62.2937 25.9793 61.275 27.6211 59.4928C26.8943 61.4565 25.5886 63.1141 23.9018 64.2149C22.1324 65.4294 20.2541 66.4652 18.413 67.5805C17.6506 68.0458 16.8669 68.4744 16.1389 68.9993C13.631 70.8013 13.1183 72.521 14.2208 75.6738Z" fill="white"/>
<path d="M37.953 46.1412C37.8388 46.8705 37.7431 47.3813 37.6874 47.8978C37.4376 50.0686 38.0646 51.9757 39.2814 53.684C40.1288 54.8787 41.0321 56.0308 41.8982 57.2113C43.3142 59.1467 44.0819 61.292 43.8296 63.7978C43.6595 65.4777 42.99 66.7802 41.404 67.6912C41.5156 66.9987 41.6166 66.4454 41.6909 65.8863C42.0363 63.2784 41.2951 60.9969 39.8047 58.9622C38.9174 57.7505 37.9583 56.5984 37.0869 55.3781C34.8421 52.2424 35.0865 49.1776 37.953 46.1412Z" fill="white"/>
<path d="M64.8757 12.9906H55.2745C55.782 12.2443 56.2814 11.5064 56.7835 10.7743C57.631 9.53421 58.4864 8.30263 59.3286 7.05968C59.7803 6.3928 60.2664 6.27079 60.7526 6.97171C62.1234 8.94677 63.473 10.9389 64.8757 12.9906Z" fill="white"/>
<path d="M42.4905 12.9707H32.9265L34.6029 10.5075C35.3999 9.35822 36.1783 8.20893 36.9593 7.05678C37.3685 6.45234 37.86 6.26221 38.3195 6.91772C39.709 8.87293 41.0532 10.8736 42.4905 12.9707Z" fill="white"/>
<path d="M30.1983 29.7759C26.7614 28.683 23.1 28.6909 19.6672 29.7986C20.8574 27.4233 22.5895 26.1095 24.7149 25.2979C24.8466 25.2492 24.9897 25.2492 25.1214 25.2979C27.1803 26.1946 28.9151 27.534 30.1983 29.7759Z" fill="white"/>
<path d="M14.1438 48.5335C13.3601 51.6011 11.8723 53.7947 9.93294 55.7244C8.27519 57.3759 6.71044 59.1296 5.04205 60.9033C5.44321 59.7881 5.68497 58.5281 6.30397 57.5349C7.32681 55.9235 8.47218 54.4049 9.72841 52.9944C11.0408 51.499 12.5126 50.1623 14.1438 48.5335Z" fill="white"/>
<path d="M12.6061 58.3294C12.925 57.4412 13.1906 56.5274 13.5811 55.6761C13.8922 55.0467 14.2721 54.4589 14.7129 53.9252C16.6708 51.428 17.8318 48.6101 17.8238 45.2559C19.0618 46.9585 19.208 49.9581 18.0895 51.9416C17.5913 52.7549 17.0211 53.5152 16.3866 54.2118C15.7755 54.9326 15.0582 55.5598 14.4578 56.2805C13.8574 57.0014 13.3659 57.7108 12.8346 58.4316L12.6061 58.3294Z" fill="white"/>
<path d="M59.9795 15.3317C58.8744 16.2653 58.6193 17.3181 59.079 18.5412C57.4238 18.3908 55.9494 16.9493 55.4154 14.9373L59.9795 15.3317Z" fill="white"/>
<path d="M36.4306 18.7029C34.3291 18.0246 33.3169 16.8384 33.1018 14.9286L37.1585 15.3457C36.226 16.268 35.8913 17.318 36.4306 18.7029Z" fill="white"/>
<path d="M14.7527 39.4327C15.1061 37.4662 13.8016 35.0285 16.2192 33.4366C16.554 35.8032 16.3201 37.7982 14.7527 39.4327Z" fill="white"/>
<path d="M23.6101 22.1421C21.7823 21.6228 20.0847 21.5745 18.7139 23.2545C18.7669 22.1194 19.657 21.0524 20.7462 20.7658C21.2989 20.6038 21.8872 20.6526 22.4099 20.9038C22.9325 21.155 23.3569 21.5928 23.6101 22.1421Z" fill="white"/>
<path d="M23.1956 38.9248H26.7077C25.5574 39.8982 24.3911 39.8669 23.1956 38.9248Z" fill="#334480"/>
<path d="M23.8701 37.2903H25.9317C25.496 38.2835 24.622 38.3176 23.8701 37.2903Z" fill="#334480"/>
<path d="M64.9825 32.7689H73.8861V71.241H64.9825V32.7689ZM100.384 41.2328C104.047 41.2328 106.997 42.332 109.233 44.5304C111.504 46.7288 112.64 49.9897 112.64 54.3133V71.241H104.066V55.6323C104.066 53.2873 103.553 51.547 102.527 50.4111C101.501 49.2386 100.017 48.6524 98.0756 48.6524C95.9134 48.6524 94.1915 49.3302 92.9094 50.6859C91.6265 52.0049 90.9858 53.9835 90.9858 56.6216V71.241H82.412V41.6724H90.6011V45.1349C91.7364 43.8891 93.1473 42.9365 94.833 42.277C96.5179 41.5808 98.3685 41.2328 100.384 41.2328ZM130.359 71.6807C127.905 71.6807 125.505 71.3878 123.159 70.8013C120.815 70.1787 118.946 69.4093 117.554 68.493L120.411 62.3375C121.731 63.1799 123.324 63.8763 125.193 64.4259C127.062 64.9386 128.894 65.1954 130.689 65.1954C134.316 65.1954 136.13 64.298 136.13 62.5023C136.13 61.6596 135.635 61.0551 134.646 60.6887C133.657 60.3222 132.137 60.0108 130.084 59.7543C127.666 59.3879 125.67 58.9666 124.094 58.4903C122.519 58.0139 121.145 57.1712 119.972 55.9621C118.836 54.753 118.268 53.0309 118.268 50.7958C118.268 48.9272 118.8 47.2784 119.862 45.8494C120.961 44.3838 122.537 43.248 124.588 42.4419C126.677 41.6358 129.132 41.2328 131.953 41.2328C134.042 41.2328 136.112 41.4709 138.164 41.9472C140.252 42.3869 141.975 43.0098 143.33 43.8159L140.472 49.9165C137.871 48.4508 135.031 47.7181 131.953 47.7181C130.121 47.7181 128.747 47.9746 127.831 48.4875C126.916 49.0004 126.457 49.66 126.457 50.4661C126.457 51.3821 126.952 52.0232 127.941 52.3897C128.93 52.7561 130.506 53.1042 132.668 53.4339C135.086 53.8369 137.064 54.2766 138.603 54.753C140.142 55.1926 141.48 56.017 142.615 57.2262C143.751 58.4353 144.319 60.1208 144.319 62.2825C144.319 64.1142 143.77 65.745 142.67 67.174C141.571 68.6029 139.959 69.7202 137.834 70.5265C135.745 71.296 133.254 71.6807 130.359 71.6807ZM168.681 69.812C167.837 70.4347 166.793 70.9113 165.548 71.241C164.339 71.5339 163.056 71.6807 161.701 71.6807C158.183 71.6807 155.453 70.7833 153.512 68.9876C151.606 67.192 150.654 64.5539 150.654 61.0734V48.9272H146.092V42.332H150.654V35.1322H159.228V42.332H166.592V48.9272H159.228V60.9635C159.228 62.2095 159.538 63.1799 160.162 63.8764C160.821 64.5359 161.737 64.8656 162.91 64.8656C164.265 64.8656 165.419 64.499 166.372 63.7664L168.681 69.812ZM185.42 41.2328C190 41.2328 193.517 42.332 195.972 44.5304C198.427 46.6921 199.655 49.9714 199.655 54.3682V71.241H191.63V67.5587C190.018 70.3067 187.014 71.6807 182.617 71.6807C180.345 71.6807 178.366 71.296 176.681 70.5265C175.032 69.7571 173.768 68.6948 172.889 67.3388C172.01 65.9829 171.57 64.444 171.57 62.7222C171.57 59.9742 172.595 57.8124 174.648 56.2369C176.736 54.6613 179.942 53.8736 184.266 53.8736H191.081C191.081 52.0049 190.512 50.576 189.377 49.5867C188.241 48.5607 186.537 48.0478 184.266 48.0478C182.69 48.0478 181.133 48.3043 179.594 48.8173C178.091 49.2936 176.809 49.9531 175.747 50.7958L172.669 44.8052C174.281 43.6693 176.205 42.7899 178.44 42.1671C180.711 41.5442 183.038 41.2328 185.42 41.2328ZM184.76 65.9099C186.226 65.9099 187.527 65.5801 188.663 64.9206C189.798 64.2242 190.604 63.2168 191.081 61.8978V58.875H185.2C181.683 58.875 179.924 60.0291 179.924 62.3375C179.924 63.4367 180.345 64.316 181.188 64.9755C182.067 65.5982 183.258 65.9099 184.76 65.9099ZM209.723 32.7689H213.79V67.7236H235.334V71.241H209.723V32.7689ZM266.005 57.9956H241.822C242.042 61.0001 243.196 63.4367 245.285 65.3053C247.373 67.1371 250.012 68.0533 253.199 68.0533C254.994 68.0533 256.643 67.7416 258.146 67.119C259.648 66.4595 260.949 65.5071 262.048 64.2611L264.246 66.7892C262.963 68.3281 261.351 69.5003 259.41 70.3067C257.504 71.113 255.398 71.5158 253.089 71.5158C250.121 71.5158 247.483 70.8932 245.175 69.6472C242.903 68.365 241.126 66.6063 239.844 64.371C238.561 62.1357 237.92 59.6077 237.92 56.7865C237.92 53.9652 238.525 51.4371 239.734 49.202C240.979 46.9669 242.665 45.2266 244.79 43.9808C246.952 42.735 249.37 42.1121 252.045 42.1121C254.719 42.1121 257.119 42.735 259.245 43.9808C261.369 45.2266 263.037 46.9669 264.246 49.202C265.455 51.4004 266.06 53.9286 266.06 56.7865L266.005 57.9956ZM252.045 45.4647C249.26 45.4647 246.915 46.3623 245.01 48.1577C243.142 49.9165 242.078 52.2248 241.822 55.0827H262.323C262.066 52.2248 260.985 49.9165 259.08 48.1577C257.211 46.3623 254.866 45.4647 252.045 45.4647ZM300.768 42.332V67.7236C300.768 72.6331 299.559 76.2604 297.141 78.6057C294.759 80.987 291.15 82.1781 286.314 82.1781C283.639 82.1781 281.092 81.7753 278.674 80.969C276.292 80.1995 274.35 79.1184 272.848 77.7263L274.827 74.7585C276.219 76.0045 277.905 76.9749 279.883 77.6714C281.898 78.3678 284.005 78.7156 286.204 78.7156C289.867 78.7156 292.56 77.8543 294.283 76.1325C296.005 74.4468 296.866 71.8087 296.866 68.2182V64.5359C295.657 66.3676 294.063 67.7605 292.084 68.7128C290.142 69.6652 287.98 70.1418 285.599 70.1418C282.887 70.1418 280.414 69.5553 278.179 68.3831C275.981 67.174 274.24 65.5071 272.958 63.3817C271.712 61.22 271.09 58.7833 271.09 56.072C271.09 53.3607 271.712 50.9424 272.958 48.8173C274.24 46.6921 275.981 45.0433 278.179 43.8708C280.378 42.6984 282.851 42.1121 285.599 42.1121C288.053 42.1121 290.271 42.6068 292.249 43.596C294.228 44.5853 295.822 46.0143 297.031 47.8829V42.332H300.768ZM285.984 66.6793C288.072 66.6793 289.959 66.2396 291.645 65.3603C293.33 64.444 294.631 63.1799 295.547 61.568C296.499 59.9559 296.976 58.1238 296.976 56.072C296.976 54.0202 296.499 52.2065 295.547 50.6309C294.631 49.0188 293.33 47.773 291.645 46.8936C289.996 45.9776 288.108 45.5196 285.984 45.5196C283.895 45.5196 282.008 45.9593 280.323 46.8387C278.674 47.7181 277.373 48.9638 276.421 50.576C275.504 52.1881 275.047 54.0202 275.047 56.072C275.047 58.1238 275.504 59.9559 276.421 61.568C277.373 63.1799 278.674 64.444 280.323 65.3603C282.008 66.2396 283.895 66.6793 285.984 66.6793ZM321.793 42.1121C325.567 42.1121 328.461 43.0647 330.476 44.97C332.492 46.8387 333.499 49.6234 333.499 53.324V71.241H329.762V66.7343C328.883 68.2363 327.582 69.4093 325.86 70.2517C324.174 71.0942 322.159 71.5158 319.814 71.5158C316.59 71.5158 314.025 70.7464 312.12 69.2075C310.214 67.6686 309.262 65.6351 309.262 63.1069C309.262 60.652 310.141 58.6734 311.9 57.1712C313.695 55.669 316.535 54.9178 320.419 54.9178H329.597V53.1591C329.597 50.6676 328.901 48.7806 327.509 47.4982C326.116 46.1792 324.083 45.5196 321.408 45.5196C319.576 45.5196 317.818 45.8311 316.132 46.454C314.446 47.0402 312.999 47.8646 311.79 48.9272L310.031 46.0143C311.497 44.7685 313.256 43.8159 315.307 43.1564C317.359 42.4602 319.521 42.1121 321.793 42.1121ZM320.419 68.438C322.617 68.438 324.504 67.9434 326.08 66.9541C327.655 65.9279 328.828 64.4629 329.597 62.5573V57.8307H320.529C315.582 57.8307 313.109 59.5528 313.109 62.997C313.109 64.6827 313.75 66.0198 315.033 67.0091C316.315 67.9615 318.11 68.438 320.419 68.438ZM344.098 30.4606H348V71.241H344.098V30.4606Z" fill="#334480"/>
</svg>
