<svg viewBox="0 0 249 292" fill="none" xmlns="http://www.w3.org/2000/svg">
	<path fill-rule="evenodd" clip-rule="evenodd" d="M108.63 132.18L120.468 144.017C125.041 148.591 132.526 148.592 137.101 144.017L165.313 115.804H197.978L142.317 171.465C134.874 178.908 122.695 178.908 115.251 171.465L92.0758 148.29L108.63 132.18Z" fill="#F16318" />
	<path fill-rule="evenodd" clip-rule="evenodd" d="M139.221 58.6291L137.101 56.5093C132.526 51.9336 125.041 51.9336 120.468 56.5093C108.655 68.3221 96.8426 80.135 85.0297 91.9478C81.563 95.4146 80.723 100.556 82.5138 104.832C84.2239 108.946 99.1166 122.655 103.432 125.986L86.4162 142.63C76.8049 133.018 67.1941 123.406 57.5817 113.796C50.1394 106.353 50.1394 94.1737 57.5817 86.7298L112.224 32.1979L80.0271 -4.48852e-06H112.692C141.027 28.3377 169.644 56.3875 197.978 84.722H165.313L155.575 74.9824L139.221 58.6291Z" fill="#142039" />
	<path d="M115.251 171.465C116.014 172.228 116.828 172.913 117.68 173.52C116.828 172.913 116.015 172.228 115.251 171.465ZM160.047 121.071L137.101 144.017C134.814 146.304 131.799 147.448 128.784 147.448C125.77 147.448 122.755 146.304 120.468 144.017L108.63 132.18L92.0758 148.29L108.63 132.18L120.468 144.017C122.755 146.304 125.77 147.448 128.784 147.448C131.799 147.448 134.814 146.304 137.101 144.017L160.047 121.071Z" fill="white" />
	<path d="M160.047 121.071L137.101 144.017C134.814 146.304 131.799 147.448 128.784 147.448C125.77 147.448 122.755 146.304 120.468 144.017L108.63 132.179L92.0758 148.29L115.251 171.465C116.015 172.228 116.828 172.913 117.68 173.52C120.985 175.871 124.883 177.046 128.782 177.046C131.458 177.046 134.133 176.493 136.617 175.386C150.114 161.002 158.785 142.036 160.047 121.071Z" fill="#F2721D" />
	<path d="M128.784 53.0775C127.424 53.0775 126.063 53.3103 124.77 53.7762C126.063 53.3103 127.423 53.0775 128.783 53.0781C131.45 53.0781 134.118 53.9737 136.282 55.7645C136.281 55.7629 136.28 55.7618 136.278 55.7602C134.115 53.9716 131.449 53.0775 128.784 53.0775V53.0775ZM108.367 36.0472L57.5817 86.7296C53.8606 90.4519 52 95.3576 52 100.263C52 95.3576 53.8606 90.4519 57.5817 86.7296L108.367 36.0472Z" fill="white" />
	<path d="M108.367 36.0473L57.5817 86.7298C53.8606 90.452 52 95.3578 52 100.263C52 105.169 53.8606 110.074 57.5817 113.796C67.1941 123.406 76.8049 133.018 86.4162 142.63L103.432 125.986C99.1166 122.655 84.2239 108.946 82.5138 104.832C81.905 103.379 81.6003 101.825 81.5992 100.272C81.597 97.2546 82.7411 94.2359 85.0297 91.9478C96.8426 80.135 108.655 68.3221 120.468 56.5093C121.723 55.2537 123.197 54.3424 124.77 53.7763C126.063 53.3104 127.424 53.0777 128.784 53.0777C131.449 53.0777 134.115 53.9717 136.278 55.7603C128.418 47.4781 118.945 40.7426 108.367 36.0473" fill="#1F304F" />
	<path d="M9.9274 266.044H0V258.795H28.9511V266.044H19.0698V291.117H9.9274V266.044ZM41.3903 265.675C45.546 265.675 48.7165 266.629 50.9021 268.538C53.0877 270.416 54.1805 273.309 54.1805 277.218V291.117H46.0077V287.885C44.7455 290.317 42.283 291.532 38.6199 291.532C36.6806 291.532 35.0028 291.194 33.5869 290.517C32.1709 289.839 31.0935 288.931 30.3547 287.792C29.6466 286.623 29.2927 285.299 29.2927 283.821C29.2927 281.451 30.2007 279.62 32.017 278.327C33.8331 277.003 36.6344 276.341 40.4207 276.341H45.4075C45.2534 273.694 43.4835 272.37 40.0975 272.37C38.8969 272.37 37.6809 272.57 36.4497 272.97C35.2183 273.34 34.1717 273.863 33.3099 274.54L30.3547 268.584C31.74 267.66 33.4176 266.953 35.3877 266.46C37.3885 265.937 39.3893 265.675 41.3903 265.675ZM41.0671 285.992C42.0829 285.992 42.9756 285.745 43.7452 285.253C44.5146 284.76 45.0687 284.037 45.4075 283.083V280.912H41.6212C39.0661 280.912 37.7888 281.759 37.7888 283.452C37.7888 284.222 38.0811 284.837 38.6661 285.299C39.2508 285.761 40.0513 285.992 41.0671 285.992ZM75.6019 291.117L71.123 284.56L66.3209 291.117H56.8091L66.3209 278.604L57.0861 266.091H66.9674L71.4001 272.416L76.0174 266.091H85.2984L76.0636 278.28L85.6216 291.117H75.6019Z" fill="#1F304F" />
	<path d="M104.79 291.671C101.497 291.671 98.5107 290.963 95.8326 289.547C93.1853 288.1 91.092 286.115 89.5529 283.59C88.0445 281.036 87.2904 278.157 87.2904 274.956C87.2904 271.755 88.0445 268.892 89.5529 266.368C91.092 263.813 93.1853 261.827 95.8326 260.411C98.5107 258.964 101.512 258.241 104.837 258.241C107.638 258.241 110.162 258.734 112.409 259.719C114.687 260.704 116.596 262.12 118.135 263.967L113.333 268.399C111.147 265.875 108.438 264.613 105.206 264.613C103.205 264.613 101.42 265.059 99.8497 265.952C98.2798 266.814 97.0484 268.03 96.1558 269.6C95.2938 271.17 94.8629 272.955 94.8629 274.956C94.8629 276.957 95.2938 278.742 96.1558 280.312C97.0484 281.882 98.2798 283.113 99.8497 284.006C101.42 284.868 103.205 285.299 105.206 285.299C108.438 285.299 111.147 284.022 113.333 281.466L118.135 285.899C116.596 287.777 114.687 289.208 112.409 290.193C110.131 291.179 107.592 291.671 104.79 291.671ZM137.776 265.906C140.855 265.906 143.334 266.829 145.21 268.676C147.12 270.523 148.073 273.263 148.073 276.895V291.117H140.87V278.003C140.87 276.033 140.44 274.571 139.577 273.617C138.716 272.632 137.47 272.139 135.837 272.139C134.021 272.139 132.575 272.709 131.497 273.848C130.42 274.956 129.881 276.618 129.881 278.835V291.117H122.678V256.856H129.881V268.861C130.835 267.907 131.99 267.183 133.344 266.691C134.699 266.168 136.177 265.906 137.776 265.906ZM164.624 265.906C168.471 265.906 171.426 266.829 173.489 268.676C175.55 270.493 176.583 273.248 176.583 276.941V291.117H169.841V288.023C168.486 290.332 165.963 291.486 162.269 291.486C160.359 291.486 158.697 291.163 157.282 290.517C155.897 289.87 154.835 288.978 154.096 287.838C153.357 286.7 152.988 285.407 152.988 283.96C152.988 281.651 153.848 279.835 155.574 278.511C157.328 277.188 160.021 276.526 163.654 276.526H169.38C169.38 274.956 168.901 273.755 167.948 272.924C166.993 272.063 165.562 271.631 163.654 271.631C162.33 271.631 161.022 271.847 159.729 272.278C158.466 272.678 157.389 273.232 156.497 273.94L153.911 268.907C155.265 267.953 156.881 267.214 158.76 266.691C160.667 266.168 162.622 265.906 164.624 265.906ZM164.07 286.638C165.3 286.638 166.393 286.361 167.348 285.807C168.301 285.222 168.979 284.375 169.38 283.267V280.728H164.439C161.484 280.728 160.006 281.697 160.006 283.637C160.006 284.56 160.359 285.299 161.068 285.853C161.807 286.376 162.806 286.638 164.07 286.638ZM183.101 266.275H190.304V291.117H183.101V266.275ZM186.702 262.812C185.38 262.812 184.301 262.427 183.47 261.658C182.639 260.888 182.223 259.934 182.223 258.795C182.223 257.656 182.639 256.702 183.47 255.932C184.301 255.163 185.38 254.778 186.702 254.778C188.026 254.778 189.103 255.147 189.934 255.886C190.765 256.625 191.181 257.548 191.181 258.657C191.181 259.857 190.765 260.858 189.934 261.658C189.103 262.427 188.026 262.812 186.702 262.812ZM212.089 265.906C215.166 265.906 217.644 266.829 219.523 268.676C221.431 270.523 222.385 273.263 222.385 276.895V291.117H215.182V278.003C215.182 276.033 214.75 274.571 213.889 273.617C213.027 272.632 211.78 272.139 210.149 272.139C208.332 272.139 206.886 272.709 205.809 273.848C204.73 274.956 204.193 276.618 204.193 278.835V291.117H196.99V266.275H203.87V269.184C204.823 268.138 206.008 267.337 207.425 266.783C208.84 266.198 210.395 265.906 212.089 265.906ZM237.272 291.486C235.209 291.486 233.194 291.24 231.223 290.747C229.252 290.224 227.682 289.578 226.513 288.808L228.914 283.637C230.023 284.345 231.362 284.93 232.932 285.391C234.501 285.822 236.04 286.038 237.549 286.038C240.596 286.038 242.12 285.284 242.12 283.775C242.12 283.067 241.705 282.559 240.873 282.251C240.042 281.944 238.764 281.682 237.041 281.466C235.009 281.159 233.332 280.805 232.008 280.404C230.684 280.004 229.529 279.296 228.545 278.28C227.59 277.265 227.114 275.818 227.114 273.94C227.114 272.37 227.561 270.985 228.453 269.784C229.376 268.553 230.7 267.599 232.424 266.922C234.178 266.245 236.241 265.906 238.611 265.906C240.366 265.906 242.105 266.106 243.829 266.506C245.583 266.876 247.029 267.399 248.169 268.076L245.768 273.201C243.583 271.97 241.197 271.354 238.611 271.354C237.072 271.354 235.918 271.57 235.148 272.001C234.378 272.432 233.994 272.986 233.994 273.663C233.994 274.433 234.409 274.971 235.24 275.279C236.071 275.587 237.396 275.879 239.211 276.156C241.243 276.495 242.905 276.865 244.198 277.265C245.491 277.634 246.614 278.327 247.569 279.342C248.524 280.358 249 281.774 249 283.59C249 285.13 248.538 286.499 247.615 287.7C246.691 288.9 245.338 289.839 243.552 290.517C241.797 291.163 239.704 291.486 237.272 291.486Z" fill="#F16318" />
</svg>
