<svg viewBox="0 0 231 25" fill="none" xmlns="http://www.w3.org/2000/svg">
	<path d="M6.96386 7.1C8.01786 7.1 8.93019 7.27567 9.70086 7.627C10.4829 7.97833 11.0835 8.477 11.5029 9.123C11.9222 9.769 12.1319 10.534 12.1319 11.418C12.1319 12.2907 11.9222 13.0557 11.5029 13.713C11.0835 14.359 10.4829 14.8577 9.70086 15.209C8.93019 15.549 8.01786 15.719 6.96386 15.719H4.56686V19H1.81286V7.1H6.96386ZM6.81086 13.475C7.63819 13.475 8.26719 13.2993 8.69786 12.948C9.12852 12.5853 9.34386 12.0753 9.34386 11.418C9.34386 10.7493 9.12852 10.2393 8.69786 9.888C8.26719 9.52533 7.63819 9.344 6.81086 9.344H4.56686V13.475H6.81086ZM18.2464 19.136C17.2831 19.136 16.4161 18.9377 15.6454 18.541C14.8861 18.133 14.2911 17.572 13.8604 16.858C13.4297 16.144 13.2144 15.3337 13.2144 14.427C13.2144 13.5203 13.4297 12.71 13.8604 11.996C14.2911 11.282 14.8861 10.7267 15.6454 10.33C16.4161 9.922 17.2831 9.718 18.2464 9.718C19.2097 9.718 20.0711 9.922 20.8304 10.33C21.5897 10.7267 22.1847 11.282 22.6154 11.996C23.0461 12.71 23.2614 13.5203 23.2614 14.427C23.2614 15.3337 23.0461 16.144 22.6154 16.858C22.1847 17.572 21.5897 18.133 20.8304 18.541C20.0711 18.9377 19.2097 19.136 18.2464 19.136ZM18.2464 16.96C18.9264 16.96 19.4817 16.7333 19.9124 16.28C20.3544 15.8153 20.5754 15.1977 20.5754 14.427C20.5754 13.6563 20.3544 13.0443 19.9124 12.591C19.4817 12.1263 18.9264 11.894 18.2464 11.894C17.5664 11.894 17.0054 12.1263 16.5634 12.591C16.1214 13.0443 15.9004 13.6563 15.9004 14.427C15.9004 15.1977 16.1214 15.8153 16.5634 16.28C17.0054 16.7333 17.5664 16.96 18.2464 16.96ZM39.473 9.854L36.158 19H33.608L31.551 13.322L29.426 19H26.876L23.578 9.854H26.077L28.236 16.042L30.48 9.854H32.724L34.9 16.042L37.127 9.854H39.473ZM49.4159 14.461C49.4159 14.495 49.3989 14.733 49.3649 15.175H42.4459C42.5706 15.7417 42.8652 16.1893 43.3299 16.518C43.7946 16.8467 44.3726 17.011 45.0639 17.011C45.5399 17.011 45.9592 16.943 46.3219 16.807C46.6959 16.6597 47.0416 16.433 47.3589 16.127L48.7699 17.657C47.9086 18.643 46.6506 19.136 44.9959 19.136C43.9646 19.136 43.0522 18.9377 42.2589 18.541C41.4656 18.133 40.8536 17.572 40.4229 16.858C39.9922 16.144 39.7769 15.3337 39.7769 14.427C39.7769 13.5317 39.9866 12.727 40.4059 12.013C40.8366 11.2877 41.4202 10.7267 42.1569 10.33C42.9049 9.922 43.7379 9.718 44.6559 9.718C45.5512 9.718 46.3616 9.91067 47.0869 10.296C47.8122 10.6813 48.3789 11.2367 48.7869 11.962C49.2062 12.676 49.4159 13.509 49.4159 14.461ZM44.6729 11.724C44.0722 11.724 43.5679 11.894 43.1599 12.234C42.7519 12.574 42.5026 13.0387 42.4119 13.628H46.9169C46.8262 13.05 46.5769 12.591 46.1689 12.251C45.7609 11.8997 45.2622 11.724 44.6729 11.724ZM53.7145 11.061C54.0319 10.619 54.4569 10.2847 54.9895 10.058C55.5335 9.83133 56.1569 9.718 56.8595 9.718V12.166C56.5649 12.1433 56.3665 12.132 56.2645 12.132C55.5052 12.132 54.9102 12.3473 54.4795 12.778C54.0489 13.1973 53.8335 13.832 53.8335 14.682V19H51.1815V9.854H53.7145V11.061ZM67.3124 14.461C67.3124 14.495 67.2954 14.733 67.2614 15.175H60.3424C60.4671 15.7417 60.7617 16.1893 61.2264 16.518C61.6911 16.8467 62.2691 17.011 62.9604 17.011C63.4364 17.011 63.8557 16.943 64.2184 16.807C64.5924 16.6597 64.9381 16.433 65.2554 16.127L66.6664 17.657C65.8051 18.643 64.5471 19.136 62.8924 19.136C61.8611 19.136 60.9487 18.9377 60.1554 18.541C59.3621 18.133 58.7501 17.572 58.3194 16.858C57.8887 16.144 57.6734 15.3337 57.6734 14.427C57.6734 13.5317 57.8831 12.727 58.3024 12.013C58.7331 11.2877 59.3167 10.7267 60.0534 10.33C60.8014 9.922 61.6344 9.718 62.5524 9.718C63.4477 9.718 64.2581 9.91067 64.9834 10.296C65.7087 10.6813 66.2754 11.2367 66.6834 11.962C67.1027 12.676 67.3124 13.509 67.3124 14.461ZM62.5694 11.724C61.9687 11.724 61.4644 11.894 61.0564 12.234C60.6484 12.574 60.3991 13.0387 60.3084 13.628H64.8134C64.7227 13.05 64.4734 12.591 64.0654 12.251C63.6574 11.8997 63.1587 11.724 62.5694 11.724ZM78.394 6.386V19H75.861V17.946C75.2037 18.7393 74.2517 19.136 73.005 19.136C72.1437 19.136 71.3617 18.9433 70.659 18.558C69.9677 18.1727 69.4237 17.623 69.027 16.909C68.6303 16.195 68.432 15.3677 68.432 14.427C68.432 13.4863 68.6303 12.659 69.027 11.945C69.4237 11.231 69.9677 10.6813 70.659 10.296C71.3617 9.91067 72.1437 9.718 73.005 9.718C74.1723 9.718 75.0847 10.0863 75.742 10.823V6.386H78.394ZM73.464 16.96C74.1327 16.96 74.688 16.7333 75.13 16.28C75.572 15.8153 75.793 15.1977 75.793 14.427C75.793 13.6563 75.572 13.0443 75.13 12.591C74.688 12.1263 74.1327 11.894 73.464 11.894C72.784 11.894 72.223 12.1263 71.781 12.591C71.339 13.0443 71.118 13.6563 71.118 14.427C71.118 15.1977 71.339 15.8153 71.781 16.28C72.223 16.7333 72.784 16.96 73.464 16.96ZM94.588 12.812C95.268 13.0273 95.8006 13.39 96.186 13.9C96.5713 14.3987 96.764 15.0163 96.764 15.753C96.764 16.7957 96.356 17.6003 95.54 18.167C94.7353 18.7223 93.5566 19 92.004 19H85.85V7.1H91.664C93.1146 7.1 94.2253 7.37767 94.996 7.933C95.778 8.48833 96.169 9.242 96.169 10.194C96.169 10.772 96.0273 11.2877 95.744 11.741C95.472 12.1943 95.0866 12.5513 94.588 12.812ZM88.587 9.174V11.979H91.324C92.004 11.979 92.5196 11.86 92.871 11.622C93.2223 11.384 93.398 11.0327 93.398 10.568C93.398 10.1033 93.2223 9.75767 92.871 9.531C92.5196 9.293 92.004 9.174 91.324 9.174H88.587ZM91.8 16.926C92.5253 16.926 93.0693 16.807 93.432 16.569C93.806 16.331 93.993 15.9627 93.993 15.464C93.993 14.478 93.262 13.985 91.8 13.985H88.587V16.926H91.8ZM107.74 9.854L103.609 19.561C103.19 20.615 102.668 21.3573 102.045 21.788C101.433 22.2187 100.691 22.434 99.818 22.434C99.342 22.434 98.8717 22.3603 98.407 22.213C97.9423 22.0657 97.5627 21.8617 97.268 21.601L98.237 19.714C98.441 19.8953 98.6733 20.037 98.934 20.139C99.206 20.241 99.4723 20.292 99.733 20.292C100.096 20.292 100.39 20.2013 100.617 20.02C100.844 19.85 101.048 19.561 101.229 19.153L101.263 19.068L97.302 9.854H100.039L102.606 16.059L105.19 9.854H107.74Z" fill="#1F304F" />
	<path d="M138.232 9.0883H134.396V6.28726H145.582V9.0883H141.764V18.776H138.232V9.0883ZM150.389 8.94557C151.994 8.94557 153.219 9.31431 154.064 10.0517C154.908 10.7773 155.331 11.8953 155.331 13.4058V18.776H152.173V17.5271C151.685 18.4668 150.734 18.9366 149.318 18.9366C148.569 18.9366 147.921 18.8058 147.374 18.5441C146.826 18.2825 146.41 17.9316 146.125 17.4915C145.851 17.0395 145.714 16.528 145.714 15.9571C145.714 15.0413 146.065 14.3336 146.767 13.834C147.469 13.3226 148.551 13.0669 150.014 13.0669H151.941C151.881 12.044 151.198 11.5325 149.889 11.5325C149.425 11.5325 148.955 11.6099 148.48 11.7645C148.004 11.9072 147.6 12.1094 147.267 12.3711L146.125 10.0696C146.66 9.71274 147.308 9.4392 148.069 9.24887C148.843 9.04669 149.616 8.94557 150.389 8.94557ZM150.264 16.7957C150.656 16.7957 151.001 16.7005 151.299 16.5102C151.596 16.3199 151.81 16.0404 151.941 15.6717V14.8331H150.478C149.491 14.8331 148.997 15.1603 148.997 15.8144C148.997 16.1118 149.11 16.3496 149.336 16.528C149.562 16.7064 149.871 16.7957 150.264 16.7957ZM163.608 18.776L161.877 16.2426L160.022 18.776H156.346L160.022 13.9411L156.453 9.10614H160.271L161.984 11.5504L163.768 9.10614H167.354L163.786 13.8162L167.479 18.776H163.608Z" fill="#1F304F" />
	<path d="M174.886 18.9901C173.613 18.9901 172.459 18.7166 171.425 18.1694C170.402 17.6104 169.593 16.8433 168.998 15.8679C168.415 14.8808 168.124 13.7687 168.124 12.5317C168.124 11.2947 168.415 10.1885 168.998 9.21321C169.593 8.22603 170.402 7.45886 171.425 6.91172C172.459 6.3527 173.619 6.07319 174.904 6.07319C175.986 6.07319 176.961 6.2635 177.83 6.6441C178.71 7.02471 179.447 7.57183 180.042 8.28547L178.186 9.99822C177.342 9.02295 176.295 8.53525 175.046 8.53525C174.273 8.53525 173.583 8.70773 172.977 9.05264C172.37 9.3857 171.894 9.85549 171.55 10.4621C171.216 11.0687 171.05 11.7586 171.05 12.5317C171.05 13.3048 171.216 13.9946 171.55 14.6012C171.894 15.2078 172.37 15.6836 172.977 16.0285C173.583 16.3616 174.273 16.5281 175.046 16.5281C176.295 16.5281 177.342 16.0345 178.186 15.0472L180.042 16.76C179.447 17.4856 178.71 18.0386 177.83 18.4192C176.949 18.7999 175.968 18.9901 174.886 18.9901ZM187.631 9.0348C188.821 9.0348 189.779 9.39162 190.504 10.1053C191.242 10.8189 191.61 11.8775 191.61 13.281V18.776H188.827V13.7092C188.827 12.948 188.66 12.383 188.327 12.0143C187.994 11.6337 187.513 11.4433 186.882 11.4433C186.18 11.4433 185.622 11.6634 185.205 12.1035C184.789 12.5317 184.58 13.1739 184.58 14.0303V18.776H181.797V5.53796H184.58V10.1766C184.949 9.80796 185.395 9.52843 185.918 9.3381C186.442 9.13592 187.013 9.0348 187.631 9.0348ZM198.005 9.0348C199.491 9.0348 200.633 9.39162 201.43 10.1053C202.227 10.8071 202.626 11.8715 202.626 13.2988V18.776H200.021V17.5807C199.497 18.4727 198.522 18.9188 197.095 18.9188C196.357 18.9188 195.715 18.7939 195.168 18.5441C194.633 18.2943 194.222 17.9494 193.937 17.5093C193.651 17.0693 193.509 16.5697 193.509 16.0107C193.509 15.1186 193.841 14.4169 194.508 13.9054C195.186 13.394 196.226 13.1383 197.63 13.1383H199.842C199.842 12.5317 199.658 12.0678 199.289 11.7466C198.92 11.4137 198.367 11.2471 197.63 11.2471C197.118 11.2471 196.613 11.3304 196.114 11.4969C195.625 11.6515 195.209 11.8656 194.865 12.1391L193.866 10.1945C194.389 9.8258 195.013 9.54034 195.739 9.3381C196.476 9.13592 197.231 9.0348 198.005 9.0348ZM197.791 17.0455C198.266 17.0455 198.688 16.9384 199.057 16.7243C199.426 16.4984 199.687 16.1712 199.842 15.743V14.7618H197.933C196.792 14.7618 196.221 15.1365 196.221 15.8858C196.221 16.2426 196.357 16.5281 196.631 16.7422C196.916 16.9444 197.302 17.0455 197.791 17.0455ZM205.144 9.17753H207.927V18.776H205.144V9.17753ZM206.536 7.83944C206.025 7.83944 205.608 7.69079 205.287 7.39342C204.966 7.09608 204.805 6.72737 204.805 6.28728C204.805 5.8472 204.966 5.47849 205.287 5.18113C205.608 4.88378 206.025 4.73511 206.536 4.73511C207.047 4.73511 207.463 4.87784 207.784 5.16329C208.106 5.44875 208.266 5.80557 208.266 6.23376C208.266 6.69763 208.106 7.08419 207.784 7.39342C207.463 7.69079 207.047 7.83944 206.536 7.83944ZM216.345 9.0348C217.534 9.0348 218.491 9.39162 219.217 10.1053C219.954 10.8189 220.323 11.8775 220.323 13.281V18.776H217.54V13.7092C217.54 12.948 217.373 12.383 217.04 12.0143C216.707 11.6337 216.225 11.4433 215.595 11.4433C214.893 11.4433 214.334 11.6634 213.918 12.1035C213.501 12.5317 213.294 13.1739 213.294 14.0303V18.776H210.511V9.17753H213.169V10.3015C213.537 9.89716 213.995 9.58787 214.543 9.37378C215.089 9.14784 215.69 9.0348 216.345 9.0348ZM226.075 18.9188C225.278 18.9188 224.499 18.8236 223.738 18.6333C222.977 18.4311 222.37 18.1814 221.918 17.884L222.846 15.8858C223.274 16.1594 223.792 16.3853 224.398 16.5637C225.005 16.7303 225.599 16.8135 226.182 16.8135C227.36 16.8135 227.948 16.5221 227.948 15.9393C227.948 15.6658 227.788 15.4695 227.467 15.3505C227.146 15.2317 226.652 15.1305 225.986 15.0472C225.201 14.9284 224.553 14.7915 224.041 14.6369C223.53 14.4823 223.084 14.2087 222.703 13.8162C222.334 13.4237 222.15 12.8647 222.15 12.1391C222.15 11.5326 222.323 10.9973 222.668 10.5334C223.024 10.0577 223.536 9.68899 224.202 9.4273C224.88 9.16568 225.677 9.0348 226.593 9.0348C227.271 9.0348 227.943 9.11216 228.609 9.26673C229.287 9.40946 229.845 9.61171 230.286 9.87333L229.358 11.8537C228.514 11.378 227.592 11.14 226.593 11.14C225.998 11.14 225.552 11.2233 225.254 11.3898C224.957 11.5564 224.808 11.7705 224.808 12.0321C224.808 12.3295 224.969 12.5376 225.29 12.6565C225.611 12.7755 226.123 12.8885 226.825 12.9955C227.61 13.1264 228.252 13.2691 228.751 13.4237C229.251 13.5664 229.685 13.8341 230.054 14.2266C230.423 14.6191 230.607 15.1662 230.607 15.8679C230.607 16.4627 230.428 16.9919 230.072 17.4558C229.715 17.9197 229.192 18.2825 228.502 18.5441C227.824 18.7939 227.015 18.9188 226.075 18.9188Z" fill="#F16318" />
	<path fill-rule="evenodd" clip-rule="evenodd" d="M119.898 18.4346L121.549 20.0854C122.187 20.7234 123.231 20.7236 123.869 20.0854L127.803 16.1508H132.359L124.596 23.9136C123.558 24.9516 121.859 24.9516 120.821 23.9136L117.589 20.6814L119.898 18.4346Z" fill="#F16318" />
	<path fill-rule="evenodd" clip-rule="evenodd" d="M124.164 8.17679L123.869 7.88113C123.231 7.24299 122.187 7.24299 121.549 7.88113C119.902 9.52864 118.254 11.1761 116.607 12.8236C116.123 13.3071 116.006 14.0241 116.256 14.6206C116.494 15.1943 118.571 17.1062 119.173 17.5708L116.8 19.8921C115.459 18.5516 114.119 17.211 112.778 15.8707C111.741 14.8327 111.741 13.134 112.778 12.0959L120.399 4.49053L115.909 0H120.464C124.416 3.95215 128.407 7.86414 132.359 11.8159H127.803L126.445 10.4575L124.164 8.17679Z" fill="#142039" />
	<path d="M120.821 23.9136C120.928 24.0201 121.041 24.1156 121.16 24.2002C121.041 24.1156 120.928 24.0201 120.821 23.9136ZM127.069 16.8853L123.869 20.0854C123.55 20.4045 123.129 20.564 122.709 20.564C122.288 20.564 121.868 20.4044 121.549 20.0854L119.898 18.4346L117.589 20.6814L119.898 18.4346L121.549 20.0854C121.868 20.4044 122.288 20.564 122.709 20.564C123.129 20.564 123.55 20.4045 123.869 20.0854L127.069 16.8853Z" fill="white" />
	<path d="M127.069 16.8853L123.869 20.0854C123.55 20.4045 123.129 20.564 122.709 20.564C122.288 20.564 121.868 20.4044 121.549 20.0854L119.898 18.4346L117.589 20.6814L120.821 23.9136C120.928 24.0201 121.041 24.1156 121.16 24.2002C121.621 24.5281 122.165 24.692 122.708 24.692C123.082 24.692 123.455 24.6148 123.801 24.4604C125.684 22.4543 126.893 19.8093 127.069 16.8853Z" fill="#F2721D" />
	<path d="M122.709 7.40255C122.519 7.40255 122.329 7.43495 122.149 7.49996C122.329 7.43495 122.519 7.40255 122.709 7.40262C123.081 7.40262 123.453 7.52751 123.754 7.77729C123.754 7.77707 123.754 7.77686 123.754 7.77664C123.452 7.52723 123.08 7.40255 122.709 7.40255ZM119.861 5.02737L112.778 12.0958C112.259 12.615 112 13.2992 112 13.9833C112 13.2992 112.259 12.615 112.778 12.0958L119.861 5.02737Z" fill="white" />
	<path d="M119.861 5.02737L112.778 12.0959C112.259 12.615 112 13.2992 112 13.9833C112 14.6675 112.259 15.3516 112.778 15.8706C114.119 17.211 115.459 18.5516 116.8 19.8921L119.173 17.5708C118.571 17.1062 116.494 15.1943 116.256 14.6206C116.171 14.4179 116.128 14.2012 116.128 13.9846C116.128 13.5637 116.287 13.1427 116.607 12.8236C118.254 11.1761 119.902 9.52863 121.549 7.88111C121.724 7.70599 121.93 7.57889 122.149 7.49996C122.329 7.43502 122.519 7.40254 122.709 7.40254C123.08 7.40254 123.452 7.52722 123.754 7.77664C122.658 6.62158 121.337 5.68221 119.861 5.02737Z" fill="#1F304F" />
</svg>
