<svg width="33" height="34" viewBox="0 0 33 34" fill="none" xmlns="http://www.w3.org/2000/svg">
<path d="M16.3717 0.737568H16.3635C7.34943 0.737568 0.0192566 8.06979 0.0192566 17.0859C0.0192566 20.6621 1.17181 23.9767 3.13157 26.668L1.09416 32.7414L7.37804 30.7326C9.96312 32.4451 13.0468 33.4342 16.3717 33.4342C25.3857 33.4342 32.7159 26.0999 32.7159 17.0859C32.7159 8.07183 25.3857 0.737568 16.3717 0.737568Z" fill="#4CAF50"/>
<path d="M25.8843 23.8234C25.4899 24.9372 23.9246 25.8608 22.676 26.1306C21.8218 26.3125 20.706 26.4575 16.95 24.9004C12.1456 22.91 9.0517 18.0279 8.81056 17.7112C8.57964 17.3944 6.8692 15.1261 6.8692 12.7801C6.8692 10.4342 8.06059 9.29182 8.54082 8.80137C8.93522 8.39879 9.58711 8.21487 10.2124 8.21487C10.4147 8.21487 10.5966 8.22509 10.7601 8.23326C11.2403 8.2537 11.4815 8.28231 11.7982 9.04046C12.1926 9.99071 13.1531 12.3367 13.2675 12.5778C13.384 12.819 13.5005 13.1459 13.337 13.4627C13.1837 13.7896 13.0489 13.9347 12.8077 14.2127C12.5666 14.4906 12.3377 14.7031 12.0966 15.0015C11.8759 15.261 11.6266 15.5389 11.9045 16.0191C12.1824 16.4892 13.1429 18.0566 14.557 19.3154C16.3819 20.94 17.8614 21.459 18.3907 21.6798C18.7851 21.8432 19.2551 21.8044 19.5432 21.4979C19.909 21.1035 20.3606 20.4495 20.8204 19.8058C21.1474 19.344 21.5602 19.2868 21.9934 19.4502C22.4348 19.6035 24.7706 20.7581 25.2508 20.9972C25.7311 21.2383 26.0478 21.3528 26.1643 21.5551C26.2787 21.7574 26.2787 22.7077 25.8843 23.8234Z" fill="#FAFAFA"/>
</svg>
