<svg width="37" height="37" viewBox="0 0 37 37" fill="none" xmlns="http://www.w3.org/2000/svg">
<path d="M37 18.5C37 8.28273 28.7173 0 18.5 0C8.28273 0 0 8.28273 0 18.5C0 28.7173 8.28273 37 18.5 37C28.7173 37 37 28.7173 37 18.5Z" fill="#F7931A"/>
<path d="M23.7672 17.3975C25.0613 16.668 25.7608 15.2078 25.5196 13.7429C25.2201 11.4813 22.5241 10.6274 20.3972 10.4478V7.04778H18.3003V10.4178H16.8924V7.04778H14.7955V10.4178H10.5716V12.5897H12.1443C12.8483 12.5897 13.1928 12.7993 13.1928 13.3685V22.6997C13.1928 23.4785 12.8033 23.7182 12.3839 23.7182H10.7813V25.935H14.8553V29.3799H16.9672V25.935H18.3751V29.3799H20.4271V25.935H20.8764C25.1901 25.935 26.628 23.8231 26.628 20.9474C26.5935 19.2518 25.4177 17.7929 23.7672 17.3975ZM16.8923 12.7244H18.3901C19.4385 12.7244 21.5055 12.9042 21.5055 14.6116C21.5774 15.726 20.77 16.7026 19.6632 16.8433H16.8923V12.7244ZM19.2139 23.5085V23.4935H16.8923V19.0001H19.5884C20.2174 19.0001 22.5839 19.2098 22.5839 20.8873C22.5839 22.5649 21.4606 23.5085 19.2139 23.5085Z" fill="white"/>
</svg>
