<svg width="37" height="37" viewBox="0 0 37 37" fill="none" xmlns="http://www.w3.org/2000/svg">
<path d="M18.5 37C28.7173 37 37 28.7173 37 18.5C37 8.28273 28.7173 0 18.5 0C8.28273 0 0 8.28273 0 18.5C0 28.7173 8.28273 37 18.5 37Z" fill="#F0F0F0"/>
<path d="M17.6959 18.4998H37.0002C37.0002 16.8301 36.7777 15.2125 36.3629 13.6737H17.6959V18.4998Z" fill="#D80027"/>
<path d="M17.6959 8.84772H34.2849C33.1525 6.99974 31.7045 5.36633 30.0162 4.02161H17.6959V8.84772Z" fill="#D80027"/>
<path d="M18.5002 37C22.8541 37 26.8559 35.4952 30.0161 32.9783H6.98419C10.1444 35.4952 14.1462 37 18.5002 37Z" fill="#D80027"/>
<path d="M2.71545 28.1521H34.2848C35.194 26.6686 35.8991 25.047 36.3628 23.326H0.637451C1.10118 25.047 1.80628 26.6686 2.71545 28.1521Z" fill="#D80027"/>
<path d="M8.56955 2.88904H10.2554L8.68727 4.0283L9.28628 5.87173L7.71819 4.73246L6.15009 5.87173L6.66752 4.27921C5.28681 5.42932 4.07665 6.77678 3.07938 8.27817H3.61957L2.62136 9.00336C2.46585 9.26279 2.31669 9.52634 2.17375 9.7938L2.65041 11.2609L1.76111 10.6147C1.54005 11.0831 1.33785 11.562 1.15611 12.0509L1.68126 13.6673H3.61957L2.0514 14.8066L2.65041 16.65L1.08232 15.5107L0.143014 16.1932C0.0489961 16.949 0 17.7187 0 18.5H18.5C18.5 8.2828 18.5 7.07827 18.5 0C14.8454 0 11.4386 1.06014 8.56955 2.88904ZM9.28628 16.65L7.71819 15.5107L6.15009 16.65L6.7491 14.8066L5.18094 13.6673H7.11925L7.71819 11.8239L8.31712 13.6673H10.2554L8.68727 14.8066L9.28628 16.65ZM8.68727 9.41744L9.28628 11.2609L7.71819 10.1216L6.15009 11.2609L6.7491 9.41744L5.18094 8.27817H7.11925L7.71819 6.43475L8.31712 8.27817H10.2554L8.68727 9.41744ZM15.9221 16.65L14.354 15.5107L12.786 16.65L13.385 14.8066L11.8168 13.6673H13.7551L14.354 11.8239L14.953 13.6673H16.8913L15.3231 14.8066L15.9221 16.65ZM15.3231 9.41744L15.9221 11.2609L14.354 10.1216L12.786 11.2609L13.385 9.41744L11.8168 8.27817H13.7551L14.354 6.43475L14.953 8.27817H16.8913L15.3231 9.41744ZM15.3231 4.0283L15.9221 5.87173L14.354 4.73246L12.786 5.87173L13.385 4.0283L11.8168 2.88904H13.7551L14.354 1.04561L14.953 2.88904H16.8913L15.3231 4.0283Z" fill="#0052B4"/>
</svg>
