<svg width="23" height="23" viewBox="0 0 23 23" fill="none" xmlns="http://www.w3.org/2000/svg">
<path d="M22.73 11.365C22.73 11.6664 22.6103 11.9555 22.3971 12.1686C22.184 12.3818 21.8949 12.5015 21.5935 12.5015H12.5015V21.5935C12.5015 21.8949 12.3818 22.184 12.1686 22.3971C11.9555 22.6103 11.6664 22.73 11.365 22.73C11.0636 22.73 10.7745 22.6103 10.5614 22.3971C10.3482 22.184 10.2285 21.8949 10.2285 21.5935V12.5015H1.1365C0.835081 12.5015 0.546008 12.3818 0.332873 12.1686C0.119738 11.9555 0 11.6664 0 11.365C0 11.0636 0.119738 10.7745 0.332873 10.5614C0.546008 10.3482 0.835081 10.2285 1.1365 10.2285H10.2285V1.1365C10.2285 0.835081 10.3482 0.546008 10.5614 0.332873C10.7745 0.119738 11.0636 0 11.365 0C11.6664 0 11.9555 0.119738 12.1686 0.332873C12.3818 0.546008 12.5015 0.835081 12.5015 1.1365V10.2285H21.5935C21.8949 10.2285 22.184 10.3482 22.3971 10.5614C22.6103 10.7745 22.73 11.0636 22.73 11.365Z" fill="black"/>
</svg>
