<svg viewBox="0 0 41 55" fill="none" xmlns="http://www.w3.org/2000/svg">
<path d="M12.8836 32.189L9.44482 48.2368L5.66211 47.2052C5.66211 47.2052 7.26686 28.177 11.2789 26.4576L12.8836 32.189Z" fill="#344A5E"/>
<path d="M36.1532 25.3114C36.1532 25.3114 39.0189 25.8845 39.3628 26.1138C39.8213 26.343 41.1968 29.5527 40.3944 33.1061C39.592 36.6596 37.758 42.5056 35.007 45.7151C32.2559 48.9246 28.8171 50.988 28.8171 50.988C28.8171 50.988 26.7538 52.9367 23.8881 52.7074C21.0223 52.4782 8.52802 51.905 8.52802 51.905C8.52802 51.905 7.72559 46.6321 11.1644 41.8178L16.7812 42.3909L24.2319 42.2762L28.8171 34.3669L28.7024 29.8964C28.817 29.8964 34.3191 25.5406 36.1532 25.3114Z" fill="#425A6B"/>
<path d="M7.26697 55H14.2593L17.9273 46.5176C17.9273 46.5176 15.7494 40.9008 16.0932 36.3158C16.3225 31.7307 18.959 23.4775 18.959 23.4775C18.959 23.4775 17.1249 24.1652 15.7494 24.7383C14.3738 25.3114 11.3936 26.4578 11.3936 26.4578C11.3936 26.4578 9.33026 28.9796 9.2156 31.9599C9.2156 35.0548 9.2156 41.8178 9.2156 41.8178C7.95473 44.1104 7.61085 49.6125 7.26697 55Z" fill="#344A5E"/>
<path d="M33.4021 55C33.0582 52.2489 33.6313 49.3832 34.8923 46.976C37.9873 40.7862 39.0189 38.1498 39.0189 38.1498C35.2362 38.8375 32.2559 40.4423 30.4218 43.7666C29.3902 39.64 28.7024 35.5134 28.9316 33.9086C29.6194 30.1259 33.6313 27.031 35.3507 26.114C36.7263 25.4262 38.5604 25.7701 39.1335 25.9993C38.5604 25.7701 37.0702 25.3116 36.1532 24.7385C35.0069 24.1654 32.0266 22.6752 32.0266 22.6752L30.6511 22.9044C30.6511 22.9044 21.5955 31.6161 20.5638 33.4501C19.5322 35.2842 15.4056 46.7468 15.4056 46.7468L13.6862 55H33.4021Z" fill="#344A5E"/>
<path d="M39.1334 25.9993C39.2481 25.9993 39.3626 26.114 39.3626 26.114C39.3626 26.1139 39.2481 25.9993 39.1334 25.9993Z" fill="#344A5E"/>
<path d="M16.2079 53.6243C16.2079 53.6243 19.532 52.9366 21.3661 51.4464C23.0855 49.9562 18.5004 48.2368 18.5004 48.2368L16.2079 53.8535" fill="#FFD15C"/>
<path d="M16.8957 5.82463L16.4372 8.80491C16.4372 8.80491 16.208 9.72189 16.4372 10.4097C16.6664 11.0974 16.3225 11.7852 16.3225 12.8168C16.3225 13.8485 17.3542 16.8288 17.2395 17.5165C17.2395 18.2043 17.0103 21.1846 19.4175 21.1846L19.7613 26.3428L29.39 21.987C29.39 21.987 28.4731 19.4652 28.4731 18.4335C28.4731 17.2872 29.39 14.3069 29.39 14.3069L30.1925 10.5242C30.1925 10.5242 29.0462 4.33433 25.9512 3.07347C22.9709 1.81271 18.3858 1.81271 16.8957 5.82463Z" fill="#FFD15C"/>
<path d="M17.8127 5.36627C18.1566 4.79317 19.876 4.90772 21.1369 4.79317C22.2832 4.67851 25.2635 5.13705 25.6074 5.48093C25.9512 5.82482 24.6904 6.62724 24.9196 7.65889C25.0343 8.57588 26.2951 9.14908 26.5243 9.9514C26.8682 10.8684 26.5243 13.161 26.5243 13.161L27.2121 13.5049C27.2121 13.5049 28.7023 11.7855 29.5046 11.9001C30.3071 12.0148 28.5876 15.6828 28.5876 17.173C28.5876 18.6632 28.5876 18.5486 28.5876 18.5486C28.5876 18.5486 29.8485 15.4536 30.3071 14.1928C30.7656 12.9319 31.9118 9.72229 31.9118 7.659C31.9118 5.5957 30.0777 2.72998 28.3583 1.92766C26.6389 1.12534 21.2514 -0.594179 18.8443 0.208249C16.4371 1.01068 15.864 4.22017 16.0932 5.25182C16.3224 6.28347 16.4371 8.91986 16.4371 8.91986C16.4371 8.91986 17.4688 5.93937 17.8127 5.36627Z" fill="#425A6B"/>
<path d="M28.0145 17.0583C25.2634 20.9557 19.5321 21.2996 19.5321 21.2996L19.876 25.6554C25.8367 22.675 28.0145 17.0583 28.0145 17.0583Z" fill="#F5B54C"/>
<path d="M25.2635 28.2918C23.0855 30.4697 21.0222 32.7623 20.5638 33.5647C19.876 34.711 17.9274 39.8692 16.6664 43.3081L15.2909 40.0984L18.8444 23.8213L19.7614 23.1335L22.0539 23.936H24.5757L25.2635 28.2918Z" fill="#E8EAE8"/>
<path d="M22.1685 25.6553L22.0538 26.9161L19.4175 36.201L17.5834 40.7861L16.3225 39.9837L17.3542 32.3036C17.3542 32.3036 20.4491 27.0307 20.4491 26.2284C20.4491 25.426 20.5638 25.3114 20.5638 25.3114L22.1685 25.6553Z" fill="#F26F5A"/>
<path d="M19.9906 24.7383C19.9906 24.7383 19.9906 25.77 20.3345 26.2285C20.3345 26.2285 21.8247 26.1139 21.9392 26.9163C21.9392 26.9163 22.9709 25.5408 23.7733 25.5408C23.7733 25.5408 22.627 24.2799 21.9392 24.0506C21.2515 23.8212 21.0222 23.8214 21.0222 23.8214L19.9906 24.7383Z" fill="#F05640"/>
<path d="M28.5876 18.6631C28.5876 18.6631 28.5876 19.4656 28.1291 19.924C27.6705 20.3825 21.9392 23.9359 21.9392 23.9359C22.9709 24.6237 23.6586 25.6554 23.8878 26.687L30.0777 21.0702C30.1924 21.185 29.1607 19.007 28.5876 18.6631Z" fill="#F3F3F3"/>
<path d="M29.6193 20.0386C29.6193 20.0386 29.8486 20.3825 29.6193 20.7263C29.5047 20.841 29.1608 21.1849 28.7024 21.6433C25.9513 24.3944 23.4295 27.3747 21.2516 30.5843C20.22 32.0745 19.303 33.5645 18.8444 34.5962C17.5836 37.5765 15.2909 44.3396 15.1764 47.0906C15.1764 47.0906 19.303 37.5766 21.4809 34.5962C23.6589 31.6158 29.3902 26.8016 30.078 26.4577L28.8171 25.1968H30.8804C30.8804 25.1968 31.6829 23.1335 31.9121 22.9043L31.5682 22.3312C31.6826 22.2165 30.3071 19.8094 29.6193 20.0386Z" fill="#425A6B"/>
<path d="M17.0102 25.0822L17.4687 25.4261L15.1762 26.8016C15.1762 26.8016 13.5715 33.45 14.2592 37.4619C14.6031 39.7545 15.2909 42.6202 15.864 44.6835C16.0932 44.1104 16.3225 43.4226 16.4371 42.7348C16.4371 42.5056 16.6663 42.391 16.8956 42.391C17.0103 38.4936 17.3542 33.45 17.5834 32.0745C18.0419 29.782 19.7614 22.3311 19.7614 22.3311C19.7614 22.3311 17.9273 24.3944 17.0102 25.0822Z" fill="#425A6B"/>
<path d="M19.532 21.2993C19.532 21.2993 20.449 23.4773 21.9392 23.9357C21.9392 23.9357 20.1051 24.2796 19.532 26.4576C19.532 26.4576 19.0735 22.5603 19.532 21.2993Z" fill="#F3F3F3"/>
<path d="M3.59883 53.1659L7.26688 54.1976L9.78872 54.8853H16.0933L17.9273 49.8418L16.6665 49.3832L8.18407 46.4029L9.21572 41.8178C9.21572 41.8178 9.21572 35.0548 9.21572 31.9599C9.21572 28.8649 11.3937 26.4578 11.3937 26.4578C9.67427 26.687 7.95486 30.5844 7.49631 31.5013C7.03777 32.4183 6.80855 33.2207 6.69388 33.7938C6.57922 34.367 6.12078 35.0547 5.54757 35.9718C4.97447 36.8888 4.85981 37.5766 4.63059 38.0351C4.28671 38.379 1.53565 42.3909 0.962546 43.308C0.504 44.225 -0.183764 48.3516 0.0455623 50.6442C0.274674 52.9366 3.59883 53.1659 3.59883 53.1659Z" fill="#425A6B"/>
<path d="M9.33027 46.8615L8.18396 46.4029C8.18396 45.142 8.29862 43.9957 8.64251 42.9641C8.87172 42.2763 9.55949 41.9324 10.2473 42.1617L12.4252 42.9641L9.33027 46.8615Z" fill="#FFD15C"/>
<path d="M16.3225 52.1342L14.3738 52.0196C13.6861 52.0196 13.113 51.9049 12.4252 51.9049C11.7375 51.9049 11.1643 51.7902 10.4766 51.7902L8.75717 51.6756C8.75717 51.5609 8.75717 51.3317 8.75717 51.217C8.75717 50.9878 8.75717 50.7585 8.75717 50.5293C8.75717 50.3 8.75717 50.0707 8.75717 49.8415C8.75717 49.6123 8.75717 49.383 8.75717 49.1537C8.75717 48.9245 8.75717 48.6952 8.87184 48.466V48.1221V47.7782C8.87184 47.549 8.9865 47.3197 8.9865 47.0904C8.9865 46.9758 8.9865 46.8612 9.10116 46.7466V46.6319L8.87194 46.7465V46.8611C8.87194 46.9758 8.87194 47.0903 8.75728 47.205C8.75728 47.4342 8.64262 47.6635 8.64262 47.8928V48.2366V48.5805C8.64262 48.8097 8.64262 49.0391 8.52795 49.2683C8.52795 49.4975 8.52795 49.7268 8.52795 49.9561C8.52795 50.1853 8.52795 50.4146 8.52795 50.6438C8.52795 50.873 8.52795 51.1024 8.52795 51.3316C8.52795 51.5608 8.52795 51.7901 8.64262 52.0194V52.134H8.75728L10.7059 52.2487C11.3937 52.2487 11.9668 52.3633 12.6545 52.3633C13.3423 52.3633 13.9154 52.478 14.6032 52.478L16.5518 52.5927H17.2396L17.3542 52.2488L16.3225 52.1342Z" fill="#344A5E"/>
<path d="M40.165 34.367C39.2481 37.9205 37.5286 42.8494 35.1215 45.6004C32.3704 48.81 28.9316 50.8733 28.9316 50.8733C28.9316 50.8733 26.8683 52.822 24.0026 52.5927C21.1368 52.3635 8.64252 51.7903 8.64252 51.7903C8.64252 51.7903 7.84009 46.5174 11.2789 41.7031L16.8957 42.2762L24.3464 42.1615L28.9316 34.2522H40.165V34.367Z" fill="#425A6B"/>
<path d="M24.2318 42.3909C24.8049 41.9323 25.4927 41.4739 26.1804 41.0154C26.1804 41.0154 26.4096 40.4423 25.8365 40.3276L26.1804 40.4423L28.2437 39.2959C28.2437 39.2959 28.7023 38.7228 28.2437 38.4935C28.2437 38.4935 29.2754 38.1496 29.0461 37.8058C28.8169 37.3472 28.2437 37.4619 28.2437 37.4619C28.2437 37.4619 28.5876 37.118 28.4729 36.8888C28.3583 36.6596 28.0144 36.7741 27.7852 36.7741C27.556 36.8888 26.5243 37.4619 26.5243 37.4619L25.0341 38.8374C25.0341 38.8374 24.5756 39.2959 24.3463 39.6398C24.1171 39.9837 23.5439 41.2446 23.5439 41.4739C23.5439 41.7031 23.3147 42.3909 23.3147 42.3909H24.2318Z" fill="#FFD15C"/>
<path d="M26.295 40.213L26.1805 40.3276L26.0658 40.5568L25.7219 40.213H26.295Z" fill="#FFD15C"/>
<path d="M25.8366 40.3275C25.722 40.4422 25.722 40.4422 25.6074 40.4422C25.4928 40.4422 25.4927 40.5568 25.3782 40.5568L25.149 40.6715C25.0343 40.6715 25.0343 40.7862 24.9197 40.7862C24.8051 40.9008 24.6905 40.9008 24.4612 41.0154C24.3465 41.0154 24.3465 41.1301 24.232 41.1301C24.232 41.1301 24.1173 41.1301 24.1173 41.2447C24.1173 41.2447 24.1173 41.2447 24.0027 41.3594C23.888 41.474 23.7734 41.5886 23.7734 41.7033V42.1618C23.8881 42.0471 23.8881 41.9326 24.0027 41.8179C24.1172 41.7033 24.2319 41.5887 24.2319 41.474C24.2319 41.474 24.2319 41.3594 24.3465 41.3594C24.3465 41.3594 24.4612 41.3594 24.4612 41.2447C24.5759 41.2447 24.5759 41.1301 24.6904 41.1301C24.805 41.1301 24.8051 41.0154 24.9196 41.0154C25.0343 41.0154 25.0343 40.9007 25.1489 40.9007C25.2635 40.9007 25.2635 40.7861 25.3781 40.7861L25.6073 40.6714C25.722 40.6714 25.722 40.5567 25.8365 40.5567C25.722 40.3275 25.8366 40.3275 25.8366 40.3275Z" fill="#F5B54C"/>
<path d="M28.3584 38.4934C28.3584 38.4934 28.2439 38.4934 28.3584 38.4934C28.2438 38.4934 28.2438 38.4934 28.2438 38.4934C28.2438 38.4934 28.1291 38.4934 28.0146 38.4934C27.8999 38.4934 27.8999 38.4934 27.7853 38.4934C27.5561 38.6081 27.4414 38.6081 27.2122 38.7227C27.0976 38.7227 26.983 38.8373 26.8683 38.8373C26.7537 38.952 26.6391 38.952 26.5245 39.0665C26.2952 39.1812 26.0659 39.2958 25.8367 39.4104C25.6075 39.5251 25.4928 39.6397 25.2636 39.7543C25.1489 39.869 24.9197 39.9835 24.9197 40.0982L24.8051 40.2129C24.8051 40.2129 24.8051 40.2129 24.9197 40.0982C25.0344 39.9835 25.1489 39.869 25.2636 39.7543C25.3783 39.6397 25.6075 39.5251 25.8367 39.4104C25.9514 39.2958 26.0659 39.2958 26.1806 39.1812C26.2952 39.0666 26.4098 39.0666 26.5245 38.952C26.6391 38.8373 26.7537 38.8373 26.8683 38.7228C26.983 38.6081 27.0976 38.6081 27.2122 38.6081C27.3269 38.6081 27.4414 38.4934 27.5561 38.4934C27.6708 38.4934 27.7853 38.3788 27.9 38.3788C27.9 38.3788 27.9 38.3788 28.0147 38.3788C28.0147 38.3788 28.0147 38.3788 28.1293 38.3788C28.1293 38.3788 28.1293 38.3788 28.244 38.3788C28.3586 38.3788 28.3586 38.3788 28.4732 38.3788C28.2439 38.3789 28.2439 38.3789 28.3584 38.4934C28.2439 38.4934 28.3584 38.4934 28.3584 38.4934Z" fill="#F5B54C"/>
<path d="M28.2438 37.3472C28.2438 37.3472 28.2438 37.3472 28.1291 37.4619C28.0144 37.4619 27.8999 37.5766 27.7852 37.6911C27.6706 37.6911 27.6706 37.8058 27.556 37.8058H27.4413C27.4413 37.8058 27.4413 37.8058 27.3267 37.8058C27.3267 37.8058 27.3267 37.8058 27.212 37.8058C27.0974 37.8058 26.9828 37.8058 26.8681 37.9204C26.7535 37.9204 26.6389 38.0351 26.5243 38.0351C26.4096 38.0351 26.295 38.1498 26.1804 38.1498C26.0657 38.2644 25.9511 38.2644 25.9511 38.2644C25.7219 38.3791 25.6073 38.4936 25.4926 38.6083C25.3779 38.723 25.2634 38.723 25.1487 38.8375C25.0341 38.8375 25.0341 38.9522 25.0341 38.9522C25.0341 38.9522 25.0341 38.9522 25.1487 38.8375C25.2634 38.8375 25.3779 38.7229 25.4926 38.6083C25.6073 38.4936 25.8365 38.3791 25.9511 38.2644C26.0658 38.2644 26.1804 38.1498 26.1804 38.0352C26.295 37.9205 26.4096 37.9205 26.5243 37.9205C26.6389 37.9205 26.7535 37.8059 26.8681 37.8059C26.9828 37.8059 27.0974 37.6912 27.212 37.6912C27.212 37.6912 27.212 37.6912 27.3267 37.6912C27.3267 37.6912 27.3267 37.6912 27.4413 37.6912H27.556C27.6707 37.6912 27.7852 37.5766 27.7852 37.5766C28.0144 37.4618 28.2438 37.3472 28.2438 37.3472Z" fill="#F5B54C"/>
<path d="M29.6193 13.5049C29.2754 14.6512 28.3584 15.4535 27.6707 15.2243C26.9829 14.9951 26.7537 13.8488 27.0976 12.7025C27.4415 11.5562 28.3584 10.7538 29.0462 10.983C29.7339 11.2124 29.9632 12.3586 29.6193 13.5049Z" fill="#FFD15C"/>
</svg>
