<svg viewBox="0 0 37 34" fill="none" xmlns="http://www.w3.org/2000/svg">
<path d="M35.3181 21.8636H1.68183C0.756837 21.8636 0 21.1068 0 20.1818V1.68183C0 0.756836 0.756837 0 1.68183 0H35.3182C36.2432 0 37 0.756836 37 1.68183V20.1818C36.9999 21.1068 36.2431 21.8636 35.3181 21.8636Z" fill="#0E9347"/>
<path d="M31.1135 15.1364C29.1794 15.1364 27.4135 16.0613 26.4044 17.5749C25.5635 17.1546 24.6385 16.8182 23.5454 16.8182C20.6022 16.8182 18.1636 19.0046 17.7431 21.8636H35.3181C36.159 21.8636 36.8317 21.275 36.9999 20.4341C36.6635 17.4909 34.1408 15.1364 31.1135 15.1364Z" fill="#0D8944"/>
<path d="M31.9545 20.1818H5.04543C5.04543 18.3318 3.53183 16.8182 1.68183 16.8182V5.04548C3.53183 5.04548 5.04543 3.53188 5.04543 1.68188H31.9545C31.9545 3.53188 33.4681 5.04548 35.3181 5.04548V16.8182C33.4681 16.8182 31.9545 18.3318 31.9545 20.1818Z" fill="#3BB54A"/>
<path d="M31.1135 15.1364C29.1794 15.1364 27.4135 16.0613 26.4044 17.5749C25.5635 17.1546 24.6386 16.8182 23.5454 16.8182C21.1908 16.8182 19.1727 18.1636 18.2477 20.1818H31.9545C31.9545 18.3318 33.384 16.9022 35.234 16.8182C34.1408 15.8091 32.7113 15.1364 31.1135 15.1364Z" fill="#0E9347"/>
<path d="M18.5 18.4999C22.2153 18.4999 25.2272 15.1116 25.2272 10.9318C25.2272 6.75202 22.2153 3.36365 18.5 3.36365C14.7846 3.36365 11.7727 6.75202 11.7727 10.9318C11.7727 15.1116 14.7846 18.4999 18.5 18.4999Z" fill="#0E9347"/>
<path d="M8.40909 12.6137C9.33795 12.6137 10.0909 11.8607 10.0909 10.9318C10.0909 10.003 9.33795 9.25 8.40909 9.25C7.48024 9.25 6.72726 10.003 6.72726 10.9318C6.72726 11.8607 7.48024 12.6137 8.40909 12.6137Z" fill="#0E9347"/>
<path d="M28.5908 12.6137C29.5197 12.6137 30.2726 11.8607 30.2726 10.9318C30.2726 10.003 29.5197 9.25 28.5908 9.25C27.662 9.25 26.909 10.003 26.909 10.9318C26.909 11.8607 27.662 12.6137 28.5908 12.6137Z" fill="#0E9347"/>
<path d="M19.3409 10.091H17.659C17.1545 10.091 16.8181 9.75461 16.8181 9.25012C16.8181 8.74556 17.1545 8.40924 17.659 8.40924H20.1817C20.6863 8.40924 21.0226 8.07285 21.0226 7.56836C21.0226 7.0638 20.6862 6.72748 20.1817 6.72748H19.3409C19.3409 6.22292 19.0045 5.8866 18.5 5.8866C17.9954 5.8866 17.6591 6.22299 17.6591 6.72748C16.2295 6.72748 15.1364 7.82064 15.1364 9.25019C15.1364 10.6797 16.2295 11.7729 17.6591 11.7729H19.3409C19.8455 11.7729 20.1818 12.1093 20.1818 12.6138C20.1818 13.1183 19.8454 13.4547 19.3409 13.4547H16.8182C16.3137 13.4547 15.9773 13.7911 15.9773 14.2956C15.9773 14.8001 16.3137 15.1364 16.8182 15.1364H17.6591C17.6591 15.641 17.9955 15.9773 18.5 15.9773C19.0045 15.9773 19.3409 15.6409 19.3409 15.1364C20.7704 15.1364 21.8636 14.0433 21.8636 12.6137C21.8636 11.1842 20.7704 10.091 19.3409 10.091Z" fill="#89C763"/>
<path d="M21.8636 28.591C25.1145 28.591 27.7499 25.9556 27.7499 22.7046C27.7499 19.4537 25.1145 16.8182 21.8636 16.8182C18.6126 16.8182 15.9772 19.4537 15.9772 22.7046C15.9772 25.9556 18.6126 28.591 21.8636 28.591Z" fill="#FFCA5D"/>
<path d="M29.4318 26.9091C32.6827 26.9091 35.3182 24.2737 35.3182 21.0227C35.3182 17.7718 32.6827 15.1364 29.4318 15.1364C26.1808 15.1364 23.5454 17.7718 23.5454 21.0227C23.5454 24.2737 26.1808 26.9091 29.4318 26.9091Z" fill="#F6B545"/>
<path d="M29.4318 15.1364C26.1522 15.1364 23.5454 17.7432 23.5454 21.0227C23.5454 24.3023 26.1522 26.9091 29.4318 26.9091C32.7113 26.9091 35.3182 24.3023 35.3182 21.0227C35.3182 17.7432 32.7113 15.1364 29.4318 15.1364ZM29.4318 25.2273C27.0772 25.2273 25.2272 23.3773 25.2272 21.0227C25.2272 18.6682 27.0772 16.8182 29.4318 16.8182C31.7863 16.8182 33.6363 18.6682 33.6363 21.0227C33.6363 23.3773 31.7863 25.2273 29.4318 25.2273Z" fill="#FFCB5B"/>
<path d="M29.4318 26.8251C32.7113 26.9092 35.3182 24.2183 35.3182 21.0228H35.234C34.8136 21.0228 34.4772 21.3592 34.3932 21.7797C34.225 22.9569 33.6363 24.0501 32.7954 24.8069C32.1227 25.4797 31.1977 25.9001 30.1886 26.0683C29.7681 26.0683 29.4318 26.4047 29.4318 26.8251Z" fill="#F6B545"/>
<path d="M29.4318 15.2205C26.1522 15.1364 23.5454 17.8274 23.5454 21.0228H23.6295C24.0499 21.0228 24.3863 20.6864 24.4704 20.266C24.6385 19.0887 25.2272 17.9955 26.0681 17.2387C26.7408 16.566 27.6658 16.1455 28.6749 15.9773C29.0954 15.9774 29.4318 15.641 29.4318 15.2205Z" fill="#FFE27A"/>
<path d="M25.8158 21.6114C25.8158 19.2568 27.6658 17.4068 30.0204 17.4068C31.0295 17.4068 31.9545 17.7432 32.7112 18.416C31.8704 17.4068 30.7772 16.8182 29.4318 16.8182C27.0772 16.8182 25.2272 18.6682 25.2272 21.0228C25.2272 22.3682 25.8158 23.4614 26.7408 24.2182C26.1522 23.5455 25.8158 22.6205 25.8158 21.6114Z" fill="#F19920"/>
<path d="M31.9545 23.6296C31.8704 23.6296 31.7863 23.6296 31.7022 23.5455C31.5341 23.3773 31.5341 23.125 31.7022 22.9568C32.2068 22.4523 32.4591 21.6955 32.4591 21.0227C32.4591 20.7705 32.6272 20.6023 32.8795 20.6023C33.1318 20.6023 33.2999 20.7705 33.2999 21.0227C33.2999 21.9477 32.9635 22.8727 32.3749 23.5455C32.2068 23.6296 32.0385 23.6296 31.9545 23.6296Z" fill="#FFCB5B"/>
<path d="M29.4318 23.5455C28.9272 23.5455 28.5909 23.2091 28.5909 22.7046V19.341C28.5909 18.8364 28.9273 18.5001 29.4318 18.5001C29.9363 18.5001 30.2727 18.8365 30.2727 19.341V22.7046C30.2727 23.2091 29.9363 23.5455 29.4318 23.5455Z" fill="#F19920"/>
<path d="M32.5431 25.9841C31.9545 23.8818 30.4408 22.2 28.5067 21.4432C28.1703 19.5091 26.909 17.8274 25.3113 16.8182C24.3022 17.9114 23.6294 19.341 23.6294 20.9387C23.6294 24.2182 26.2363 26.8251 29.5158 26.8251C30.6091 26.9091 31.6181 26.5728 32.5431 25.9841Z" fill="#F19920"/>
<path d="M26.7408 24.2183C26.1522 23.4614 25.7317 22.5364 25.7317 21.5274C25.7317 20.3501 26.2363 19.2569 27.0771 18.5001C26.909 18.2478 26.7408 18.0797 26.5726 17.9115C25.7317 18.6683 25.2271 19.7615 25.2271 21.0229C25.2272 22.3683 25.8158 23.4614 26.7408 24.2183Z" fill="#E78825"/>
<path d="M28.5908 21.5273V22.7046C28.5908 23.2092 28.9272 23.5455 29.4317 23.5455C29.9362 23.5455 30.2726 23.2091 30.2726 22.7046V22.5365C29.7681 22.1159 29.1795 21.7796 28.5908 21.5273Z" fill="#E78825"/>
<path d="M32.5431 25.984C32.3749 25.3954 32.2067 24.8908 31.8704 24.3863C31.1977 24.8908 30.3568 25.2272 29.4318 25.2272C27.0772 25.2272 25.2272 23.3772 25.2272 21.0226C25.2272 19.7612 25.7318 18.6681 26.5727 17.9112C26.1522 17.4908 25.7318 17.1544 25.2272 16.9021C24.2181 17.9953 23.5454 19.4248 23.5454 21.0225C23.5454 24.3021 26.1522 26.9089 29.4318 26.9089C30.609 26.909 31.6181 26.5727 32.5431 25.984Z" fill="#F6B545"/>
<path d="M32.2908 25.2273C31.7022 25.6477 30.9454 25.9 30.1885 26.0682C29.7681 26.1523 29.4317 26.4886 29.4317 26.9091C30.609 26.9091 31.6181 26.5727 32.5431 25.9841C32.4591 25.7318 32.3749 25.4796 32.2908 25.2273Z" fill="#F19920"/>
<path d="M25.2272 16.9022C24.2181 17.9954 23.5454 19.4249 23.5454 21.0227H23.6295C24.0499 21.0227 24.3863 20.6863 24.4704 20.2658C24.6385 19.0885 25.2272 18.0794 25.984 17.3227C25.7318 17.2385 25.4795 17.0704 25.2272 16.9022Z" fill="#FFCB5B"/>
<path d="M21.8636 28.591C25.1145 28.591 27.7499 25.9556 27.7499 22.7046C27.7499 19.4537 25.1145 16.8182 21.8636 16.8182C18.6126 16.8182 15.9772 19.4537 15.9772 22.7046C15.9772 25.9556 18.6126 28.591 21.8636 28.591Z" fill="#F6B545"/>
<path d="M21.0227 26.9091C21.0227 27.4977 21.1068 28.0022 21.275 28.5909C21.4431 28.5909 21.6954 28.5909 21.8636 28.5909C25.1431 28.5909 27.75 25.9841 27.75 22.7045C27.75 22.1159 27.6658 21.6114 27.4977 21.0227C27.3295 21.0227 27.0772 21.0227 26.9091 21.0227C23.6295 21.0228 21.0227 23.6296 21.0227 26.9091Z" fill="#F19920"/>
<path d="M21.8636 16.8182C18.584 16.8182 15.9772 19.4251 15.9772 22.7046C15.9772 25.9842 18.584 28.591 21.8636 28.591C25.1431 28.591 27.7499 25.9841 27.7499 22.7046C27.7499 19.4251 25.1431 16.8182 21.8636 16.8182ZM21.8636 26.9091C19.509 26.9091 17.659 25.0591 17.659 22.7046C17.659 20.35 19.509 18.5 21.8636 18.5C24.2181 18.5 26.0681 20.35 26.0681 22.7046C26.0681 25.0591 24.2181 26.9091 21.8636 26.9091Z" fill="#FFCB5B"/>
<path d="M21.8636 28.5068C25.1431 28.5909 27.7499 25.9 27.7499 22.7046H27.6658C27.2454 22.7046 26.909 23.041 26.8249 23.4614C26.6568 24.6387 26.0681 25.7319 25.2272 26.4887C24.5545 27.1614 23.6295 27.5819 22.6204 27.7501C22.2 27.75 21.8636 28.0863 21.8636 28.5068Z" fill="#F6B545"/>
<path d="M21.8636 16.9023C18.584 16.8182 15.9772 19.5091 15.9772 22.7046H16.0613C16.4817 22.7046 16.8181 22.3682 16.9022 21.9477C17.0703 20.7705 17.659 19.6773 18.4999 18.9205C19.1726 18.2477 20.0976 17.8273 21.1067 17.6591C21.5272 17.6591 21.8636 17.3228 21.8636 16.9023Z" fill="#FFE27A"/>
<path d="M18.2477 23.2932C18.2477 20.9386 20.0977 19.0886 22.4522 19.0886C23.4613 19.0886 24.3863 19.425 25.1431 20.0977C24.3022 19.0886 23.209 18.5 21.8635 18.5C19.509 18.5 17.659 20.35 17.659 22.7045C17.659 24.05 18.2476 25.1431 19.1726 25.9C18.5841 25.2273 18.2477 24.3023 18.2477 23.2932Z" fill="#F19920"/>
<path d="M24.3863 25.3113C24.3022 25.3113 24.2182 25.3113 24.1341 25.2272C23.9659 25.0591 23.9659 24.8068 24.1341 24.6386C24.6386 24.1341 24.8909 23.3772 24.8909 22.7045C24.8909 22.4522 25.0591 22.2841 25.3113 22.2841C25.5636 22.2841 25.7318 22.4522 25.7318 22.7045C25.7318 23.6295 25.3954 24.5545 24.8068 25.2272C24.6386 25.3113 24.4704 25.3113 24.3863 25.3113Z" fill="#FFCB5B"/>
<path d="M21.8636 25.2274C21.359 25.2274 21.0227 24.891 21.0227 24.3865V21.0229C21.0227 20.5183 21.3591 20.182 21.8636 20.182C22.3681 20.182 22.7045 20.5184 22.7045 21.0229V24.3865C22.7045 24.891 22.3681 25.2274 21.8636 25.2274Z" fill="#F19920"/>
<path d="M25.7318 21.1068C25.8999 21.6114 26.0682 22.1159 26.0682 22.7045C26.0682 25.0591 24.2182 26.9091 21.8636 26.9091C21.6113 26.9091 21.275 26.9091 21.0227 26.825V26.9091C21.0227 27.4977 21.1069 28.0022 21.275 28.5909C21.4432 28.5909 21.6955 28.5909 21.8636 28.5909C25.1432 28.5909 27.75 25.9841 27.75 22.7045C27.75 22.1159 27.6659 21.6114 27.4977 21.0227C27.3296 21.0227 27.0773 21.0227 26.9091 21.0227C26.4885 21.0228 26.1522 21.0228 25.7318 21.1068Z" fill="#F6B545"/>
<path d="M26.0681 33.6363C29.3191 33.6363 31.9545 31.0009 31.9545 27.7499C31.9545 24.499 29.3191 21.8635 26.0681 21.8635C22.8171 21.8635 20.1817 24.499 20.1817 27.7499C20.1817 31.0009 22.8171 33.6363 26.0681 33.6363Z" fill="#F6B545"/>
<path d="M26.0681 21.8638C22.7886 21.8638 20.1817 24.4706 20.1817 27.7502C20.1817 31.0297 22.7886 33.6365 26.0681 33.6365C29.3477 33.6365 31.9545 31.0297 31.9545 27.7502C31.9545 24.4706 29.3477 21.8638 26.0681 21.8638ZM26.0681 31.9547C23.7136 31.9547 21.8636 30.1047 21.8636 27.7502C21.8636 25.3956 23.7136 23.5456 26.0681 23.5456C28.4227 23.5456 30.2727 25.3956 30.2727 27.7502C30.2727 30.1047 28.4227 31.9547 26.0681 31.9547Z" fill="#FFCB5B"/>
<path d="M26.0681 33.5523C29.3477 33.6364 31.9545 30.9454 31.9545 27.75H31.8704C31.4499 27.75 31.1135 28.0864 31.0295 28.5068C30.8613 29.6841 30.2727 30.7773 29.4318 31.5341C28.7591 32.2068 27.8341 32.6273 26.825 32.7955C26.4045 32.7954 26.0681 33.1318 26.0681 33.5523Z" fill="#F6B545"/>
<path d="M26.0681 21.9477C22.7886 21.8636 20.1817 24.5546 20.1817 27.75H20.2658C20.6863 27.75 21.0227 27.4136 21.1067 26.9932C21.2749 25.8159 21.8636 24.7227 22.7044 23.9659C23.3772 23.2932 24.3022 22.8727 25.3113 22.7045C25.7318 22.7046 26.0681 22.3682 26.0681 21.9477Z" fill="#FFE27A"/>
<path d="M22.4522 28.3386C22.4522 25.984 24.3022 24.134 26.6568 24.134C27.6659 24.134 28.5909 24.4704 29.3477 25.1431C28.5068 24.134 27.4135 23.5454 26.0681 23.5454C23.7136 23.5454 21.8636 25.3954 21.8636 27.75C21.8636 29.0954 22.4522 30.1886 23.3772 30.9454C22.7886 30.2727 22.4522 29.3477 22.4522 28.3386Z" fill="#F19920"/>
<path d="M28.5908 30.3569C28.5067 30.3569 28.4227 30.3569 28.3386 30.2727C28.1704 30.1046 28.1704 29.8523 28.3386 29.6841C28.8431 29.1796 29.0954 28.4227 29.0954 27.75C29.0954 27.4978 29.2636 27.3296 29.5158 27.3296C29.7681 27.3296 29.9363 27.4978 29.9363 27.75C29.9363 28.675 29.5999 29.6 29.0113 30.2727C28.8431 30.3569 28.675 30.3569 28.5908 30.3569Z" fill="#FFCB5B"/>
<path d="M26.0681 30.2727C25.5635 30.2727 25.2272 29.9363 25.2272 29.4318V26.0682C25.2272 25.5636 25.5636 25.2273 26.0681 25.2273C26.5727 25.2273 26.909 25.5637 26.909 26.0682V29.4318C26.9091 29.9363 26.5727 30.2727 26.0681 30.2727Z" fill="#F19920"/>
</svg>
