<svg viewBox="0 0 23 21" fill="none" xmlns="http://www.w3.org/2000/svg">
<path d="M14.9438 20.2278V17.5304L10.6008 16.6312L11.5 20.2278H14.9438Z" fill="#9ABADB"/>
<path d="M8.05615 20.2278H11.5V16.6312L8.05615 17.5303V20.2278Z" fill="#D1E8FF"/>
<path d="M23 13.4841L10.6008 12.585L11.5 17.5303H23V13.4841Z" fill="#D1E8FF"/>
<path d="M0 13.4841V17.5303H11.5V12.585L0 13.4841Z" fill="#F5F5FF"/>
<path d="M16.967 19.554H11.5L11.0504 20.2278L11.5 20.9017H16.967V19.554Z" fill="#D1E8FF"/>
<path d="M11.5 19.5538H6.03299V20.9015H11.5V19.5538Z" fill="#F5F5FF"/>
<path d="M23 0H11.5L10.6008 6.74206L11.5 13.4841H23V0Z" fill="#294B6E"/>
<path d="M11.5 0H0V13.4842H11.5V0Z" fill="#6283A3"/>
<path d="M8.03329 10.3122L4.46317 6.74212L8.03329 3.172L8.98622 4.12492L6.36902 6.74212L8.98622 9.35931L8.03329 10.3122Z" fill="#F5F5FF"/>
<path d="M14.9667 10.3122L14.0138 9.35928L16.631 6.74209L14.0138 4.12489L14.9667 3.17197L18.5368 6.74209L14.9667 10.3122Z" fill="#D1E8FF"/>
<path d="M10.0081 10.7881L11.3298 11.051L12.9917 2.69635L11.67 2.43343L10.0081 10.7881Z" fill="#D1E8FF"/>
</svg>
 
