<svg viewBox="0 0 23 23" fill="none" xmlns="http://www.w3.org/2000/svg">
<path d="M16.1009 22.7301H2.84133C1.27481 22.7301 0 21.4552 0 19.8887V6.62917C0 5.06265 1.27481 3.78784 2.84133 3.78784H10.4182C10.942 3.78784 11.3653 4.21215 11.3653 4.73495C11.3653 5.25776 10.942 5.68206 10.4182 5.68206H2.84133C2.31853 5.68206 1.89422 6.10732 1.89422 6.62917V19.8887C1.89422 20.4106 2.31853 20.8358 2.84133 20.8358H16.1009C16.6237 20.8358 17.048 20.4106 17.048 19.8887V12.3118C17.048 11.789 17.4714 11.3647 17.9951 11.3647C18.5189 11.3647 18.9422 11.789 18.9422 12.3118V19.8887C18.9422 21.4552 17.6674 22.7301 16.1009 22.7301Z" fill="#607D8B"/>
<path d="M16.3738 3.0083L8.88022 10.5018C8.81393 10.5681 8.76941 10.6524 8.75047 10.7434L8.08086 14.0923C8.04961 14.2477 8.09791 14.4087 8.21061 14.5204C8.30059 14.6104 8.42182 14.6587 8.54589 14.6587L8.63871 14.6492L11.9867 13.9796C12.0796 13.9616 12.1629 13.9162 12.2292 13.8499L19.7227 6.35634L16.3738 3.0083Z" fill="#42A5F5"/>
<path d="M22.0373 0.692575C21.1138 -0.230858 19.6117 -0.230858 18.6892 0.692575L17.3784 2.00338L20.7265 5.35141L22.0373 4.04061C22.4843 3.59452 22.7305 2.99974 22.7305 2.36707C22.7305 1.7344 22.4843 1.13961 22.0373 0.692575Z" fill="#42A5F5"/>
<path d="M17.9951 11.3646C17.4714 11.3646 17.048 11.7889 17.048 12.3117V19.8886C17.048 20.4105 16.6237 20.8357 16.1009 20.8357H2.84137C2.57997 20.8357 2.34319 20.7297 2.17176 20.5582L0.833496 21.8965C1.34778 22.4117 2.05811 22.73 2.84137 22.73H16.1009C17.6674 22.73 18.9423 21.4551 18.9423 19.8886V12.3117C18.9423 11.788 18.5189 11.3646 17.9951 11.3646Z" fill="#546D79"/>
<path d="M18.0481 4.68176L8.21045 14.5194C8.30042 14.6094 8.42166 14.6577 8.54573 14.6577L8.63854 14.6482L11.9866 13.9786C12.0794 13.9606 12.1627 13.9151 12.229 13.8489L19.7226 6.35531L18.0481 4.68176Z" fill="#3990D5"/>
<path d="M22.0373 0.692505L19.053 3.67685L20.7275 5.35134L22.0383 4.04054C22.4844 3.59445 22.7306 2.99967 22.7306 2.367C22.7306 1.73433 22.4844 1.13954 22.0373 0.692505Z" fill="#3990D5"/>
</svg>
