<svg viewBox="0 0 17 11" fill="none" xmlns="http://www.w3.org/2000/svg">
	<path d="M16.8794 5.10735L12.2671 0.144123C12.1818 0.0524083 12.0621 0 11.9367 0H9.95477C9.56064 0 9.35596 0.469906 9.62438 0.758506L13.9545 5.41436L9.62438 10.0702C9.35596 10.3588 9.56064 10.8287 9.95477 10.8287H11.9367C12.0621 10.8287 12.1818 10.7767 12.2671 10.6846L16.8794 5.72138C17.0402 5.54822 17.0402 5.28051 16.8794 5.10735Z" fill="#5F6163" />
	<path d="M12.0083 5.10732L7.39597 0.144451C7.31063 0.0523823 7.19094 0.000328064 7.06558 0.000328064H5.08362C4.6895 0.000328064 4.48482 0.470233 4.75324 0.758834L7.2221 3.41361H0.708223C0.317284 3.41361 0 3.73089 0 4.12183V6.7079C0 7.09884 0.317284 7.41613 0.708223 7.41613H7.22174L4.75288 10.0705C4.48447 10.3591 4.68914 10.8291 5.08327 10.8291H7.06523C7.19058 10.8291 7.31027 10.777 7.39561 10.6849L12.0079 5.7217C12.169 5.54854 12.169 5.28048 12.0083 5.10732Z" fill="#5F6163" />
</svg>
