<svg viewBox="0 0 36 35" fill="none" xmlns="http://www.w3.org/2000/svg">
<path d="M0.583374 5.83356V31.5011H23.9175V0.583374H5.83356L0.583374 5.83356Z" fill="#9BFBFF"/>
<path d="M0.583374 5.83356H5.83356V0.583374" fill="#00D7DF"/>
<path d="M21.0008 34.4179C20.5366 34.4179 20.0915 34.2335 19.7633 33.9053C19.4351 33.5771 19.2507 33.132 19.2507 32.6678V18.084H22.7509V32.6678C22.7509 33.132 22.5665 33.5771 22.2383 33.9053C21.9101 34.2335 21.4649 34.4179 21.0008 34.4179Z" fill="#7E543B"/>
<path d="M19.2507 23.3342H16.9173C16.273 23.3342 15.7506 23.8566 15.7506 24.5009C15.7506 25.1453 16.273 25.6676 16.9173 25.6676H19.2507C19.8951 25.6676 20.4174 25.1453 20.4174 24.5009C20.4174 23.8566 19.8951 23.3342 19.2507 23.3342Z" fill="#FFCBBE"/>
<path d="M18.6674 25.6676H16.3339C15.6896 25.6676 15.1672 26.19 15.1672 26.8343C15.1672 27.4787 15.6896 28.001 16.3339 28.001H18.6674C19.3117 28.001 19.8341 27.4787 19.8341 26.8343C19.8341 26.19 19.3117 25.6676 18.6674 25.6676Z" fill="#FFCBBE"/>
<path d="M19.2507 28.001H16.9173C16.273 28.001 15.7506 28.5233 15.7506 29.1677C15.7506 29.812 16.273 30.3344 16.9173 30.3344H19.2507C19.8951 30.3344 20.4174 29.812 20.4174 29.1677C20.4174 28.5233 19.8951 28.001 19.2507 28.001Z" fill="#FFCBBE"/>
<path d="M19.8341 30.3344H17.5007C16.8563 30.3344 16.334 30.8567 16.334 31.5011C16.334 32.1454 16.8563 32.6678 17.5007 32.6678H19.8341C20.4785 32.6678 21.0008 32.1454 21.0008 31.5011C21.0008 30.8567 20.4785 30.3344 19.8341 30.3344Z" fill="#FFCBBE"/>
<path d="M21.0008 21.0007C25.8335 21.0007 29.7511 17.0831 29.7511 12.2504C29.7511 7.41777 25.8335 3.50012 21.0008 3.50012C16.1681 3.50012 12.2505 7.41777 12.2505 12.2504C12.2505 17.0831 16.1681 21.0007 21.0008 21.0007Z" fill="#E9E9EA"/>
<path d="M21.0007 19.2507C24.8669 19.2507 28.001 16.1166 28.001 12.2505C28.001 8.38436 24.8669 5.25024 21.0007 5.25024C17.1346 5.25024 14.0005 8.38436 14.0005 12.2505C14.0005 16.1166 17.1346 19.2507 21.0007 19.2507Z" fill="#2488FF"/>
<path d="M22.7507 32.0845H26.2509L28.5843 30.3344H30.3343V23.3341H27.4176L25.6675 21.0007H23.9174" fill="#FFDDCE"/>
<path d="M24.5008 25.6676L21.5841 23.9175H18.3756C17.9888 23.9175 17.6179 23.7639 17.3444 23.4904C17.0709 23.2169 16.9172 22.8459 16.9172 22.4591C16.9172 22.0723 17.0709 21.7014 17.3444 21.4279C17.6179 21.1544 17.9888 21.0007 18.3756 21.0007H24.5008" fill="#FFDDCE"/>
<path d="M30.3344 22.1675H34.4178V31.5011H30.3344V22.1675Z" fill="#365E7D"/>
<path d="M18.6673 11.0837C19.3117 11.0837 19.834 10.5613 19.834 9.91695C19.834 9.2726 19.3117 8.75024 18.6673 8.75024C18.023 8.75024 17.5006 9.2726 17.5006 9.91695C17.5006 10.5613 18.023 11.0837 18.6673 11.0837Z" fill="#F9F7F8"/>
<path d="M23.3342 15.1673C23.9785 15.1673 24.5009 14.6449 24.5009 14.0006C24.5009 13.3562 23.9785 12.8339 23.3342 12.8339C22.6898 12.8339 22.1675 13.3562 22.1675 14.0006C22.1675 14.6449 22.6898 15.1673 23.3342 15.1673Z" fill="#F9F7F8"/>
<path d="M6.41687 19.8341H14.0005V21.0008H6.41687V19.8341Z" fill="black"/>
<path d="M2.91675 8.16699H5.25016V9.3337H2.91675V8.16699Z" fill="black"/>
<path d="M2.91675 11.0837H5.25016V12.2504H2.91675V11.0837Z" fill="black"/>
<path d="M2.91675 14.0005H5.25016V15.1672H2.91675V14.0005Z" fill="black"/>
<path d="M2.91675 16.9172H5.25016V18.0839H2.91675V16.9172Z" fill="black"/>
<path d="M6.41687 22.7507H14.0005V23.9174H6.41687V22.7507Z" fill="black"/>
<path d="M6.41687 25.6676H14.0005V26.8343H6.41687V25.6676Z" fill="black"/>
<path d="M2.91675 19.8341H5.25016V21.0008H2.91675V19.8341Z" fill="black"/>
<path d="M2.91675 22.7507H5.25016V23.9174H2.91675V22.7507Z" fill="black"/>
<path d="M2.91675 25.6676H5.25016V26.8343H2.91675V25.6676Z" fill="black"/>
<path d="M13.4171 12.2505C13.4171 13.7504 13.8619 15.2166 14.6952 16.4637C15.5285 17.7108 16.7129 18.6828 18.0986 19.2568C19.4843 19.8308 21.0091 19.981 22.4802 19.6884C23.9513 19.3957 25.3025 18.6735 26.3631 17.6129C27.4237 16.5523 28.146 15.201 28.4386 13.73C28.7312 12.2589 28.581 10.7341 28.0071 9.34835C27.4331 7.96263 26.4611 6.77823 25.2139 5.94494C23.9668 5.11164 22.5006 4.66687 21.0007 4.66687C18.9901 4.66919 17.0626 5.46891 15.6409 6.89061C14.2192 8.31231 13.4194 10.2399 13.4171 12.2505ZM27.4176 12.2505C27.4176 13.5196 27.0413 14.7603 26.3362 15.8155C25.6311 16.8708 24.6289 17.6932 23.4564 18.1789C22.2838 18.6646 20.9936 18.7917 19.7488 18.5441C18.5041 18.2965 17.3607 17.6853 16.4633 16.7879C15.5659 15.8905 14.9547 14.7471 14.7071 13.5023C14.4595 12.2576 14.5866 10.9674 15.0723 9.79483C15.558 8.6223 16.3804 7.62012 17.4357 6.91502C18.4909 6.20992 19.7316 5.83358 21.0007 5.83358C22.702 5.83559 24.333 6.51229 25.5359 7.71526C26.7389 8.91823 27.4156 10.5492 27.4176 12.2505Z" fill="black"/>
<path d="M34.4179 21.5841H30.3344C30.1797 21.5841 30.0313 21.6456 29.9219 21.755C29.8125 21.8644 29.7511 22.0127 29.7511 22.1675V22.7508H27.7093L26.1343 20.6507C26.0795 20.5788 26.0089 20.5203 25.928 20.4798C25.8471 20.4394 25.758 20.418 25.6676 20.4174H25.5101C27.0545 19.5665 28.3259 18.2951 29.1769 16.7508C30.0279 15.2065 30.4235 13.4525 30.3178 11.6924C30.2122 9.93227 29.6096 8.2382 28.58 6.80675C27.5504 5.3753 26.136 4.26515 24.5009 3.60513V0.583354C24.5009 0.428639 24.4394 0.280261 24.33 0.17086C24.2206 0.0614603 24.0722 0 23.9175 0H5.83354C5.67889 0.00115171 5.5306 0.0617213 5.41936 0.169173L0.169173 5.41936C0.0617213 5.5306 0.00115171 5.67889 0 5.83354V31.5011C0 31.6558 0.0614603 31.8042 0.17086 31.9136C0.280261 32.023 0.428639 32.0845 0.583354 32.0845H15.8556C15.9767 32.4244 16.1995 32.7188 16.4939 32.9276C16.7882 33.1363 17.1398 33.2493 17.5006 33.2512H18.749C18.8904 33.8006 19.2275 34.2796 19.6969 34.5981C20.1664 34.9167 20.736 35.053 21.2988 34.9814C21.8616 34.9098 22.379 34.6352 22.7537 34.2092C23.1285 33.7833 23.3349 33.2352 23.3342 32.6678H26.2509C26.3773 32.6685 26.5003 32.6275 26.601 32.5512L28.7769 30.9178H29.7511V31.5011C29.7511 31.6558 29.8125 31.8042 29.9219 31.9136C30.0313 32.023 30.1797 32.0845 30.3344 32.0845H34.4179C34.5726 32.0845 34.721 32.023 34.8304 31.9136C34.9398 31.8042 35.0013 31.6558 35.0013 31.5011V22.1675C35.0013 22.0127 34.9398 21.8644 34.8304 21.755C34.721 21.6456 34.5726 21.5841 34.4179 21.5841ZM29.1677 12.2504C29.1677 13.8657 28.6887 15.4447 27.7913 16.7878C26.8939 18.1308 25.6184 19.1776 24.1261 19.7957C22.6338 20.4139 20.9917 20.5756 19.4075 20.2605C17.8232 19.9453 16.368 19.1675 15.2258 18.0254C14.0837 16.8832 13.3058 15.428 12.9907 13.8437C12.6756 12.2595 12.8373 10.6174 13.4555 9.12508C14.0736 7.63276 15.1204 6.35726 16.4634 5.45986C17.8065 4.56246 19.3855 4.08348 21.0007 4.08348C23.1661 4.0858 25.242 4.94698 26.7731 6.47809C28.3042 8.00918 29.1654 10.0851 29.1677 12.2504ZM5.25019 1.98924V5.25019H1.98924L5.25019 1.98924ZM15.8556 30.9178H1.16671V6.4169H5.83354C5.98826 6.4169 6.13664 6.35544 6.24604 6.24604C6.35544 6.13664 6.4169 5.98826 6.4169 5.83354V1.16671H23.3342V3.22595C22.5731 3.02206 21.7887 2.91812 21.0007 2.91677C19.2522 2.91984 17.5396 3.41351 16.0576 4.34164C14.5757 5.26978 13.384 6.59512 12.618 8.16696H6.4169V9.33367H12.1396C11.9525 9.90286 11.8216 10.489 11.7488 11.0837H6.4169V12.2504H11.6671C11.6697 12.8377 11.7263 13.4236 11.8363 14.0005H6.4169V15.1672H12.1396C12.3434 15.7753 12.6072 16.3615 12.9271 16.9173H6.4169V18.084H13.7263C14.6607 19.2469 15.8585 20.1707 17.2206 20.7791C16.9469 20.9654 16.7229 21.216 16.5684 21.5088C16.4138 21.8017 16.3333 22.128 16.3339 22.4591C16.3353 22.5885 16.349 22.7174 16.3748 22.8442C16.1279 22.9221 15.9017 23.0544 15.7128 23.2316C15.524 23.4087 15.3774 23.6259 15.2839 23.8673C15.1903 24.1087 15.1523 24.3681 15.1725 24.6262C15.1927 24.8842 15.2706 25.1345 15.4005 25.3584C15.1506 25.5151 14.9445 25.7327 14.8016 25.9909C14.6588 26.249 14.5838 26.5393 14.5838 26.8343C14.5838 27.1293 14.6588 27.4195 14.8016 27.6777C14.9445 27.9358 15.1506 28.1535 15.4005 28.3102C15.2488 28.5706 15.1683 28.8663 15.1672 29.1677C15.167 29.4628 15.2419 29.753 15.3848 30.0112C15.5276 30.2694 15.7338 30.487 15.9839 30.6436C15.9353 30.7321 15.8924 30.8237 15.8556 30.9178ZM18.3757 24.5009H19.834C19.8347 24.5788 19.819 24.6559 19.7878 24.7273C19.7566 24.7986 19.7108 24.8626 19.6532 24.9151C19.6015 24.9697 19.5391 25.0129 19.4698 25.042C19.4005 25.0711 19.3258 25.0855 19.2507 25.0842H16.9173C16.7626 25.0842 16.6142 25.0228 16.5048 24.9134C16.3954 24.804 16.3339 24.6556 16.3339 24.5009C16.3332 24.423 16.349 24.3459 16.3801 24.2745C16.4113 24.2031 16.4572 24.1391 16.5148 24.0867C16.5664 24.0321 16.6289 23.9889 16.6982 23.9597C16.7675 23.9306 16.8421 23.9162 16.9173 23.9175H16.9523C17.3313 24.292 17.8428 24.5017 18.3757 24.5009ZM15.7506 26.8343C15.7506 26.6796 15.812 26.5312 15.9214 26.4218C16.0308 26.3124 16.1792 26.2509 16.3339 26.2509H18.6673C18.822 26.2509 18.9704 26.3124 19.0798 26.4218C19.1892 26.5312 19.2507 26.6796 19.2507 26.8343C19.2507 26.989 19.1892 27.1374 19.0798 27.2468C18.9704 27.3562 18.822 27.4176 18.6673 27.4176H16.3339C16.1792 27.4176 16.0308 27.3562 15.9214 27.2468C15.812 27.1374 15.7506 26.989 15.7506 26.8343ZM16.3339 29.1677C16.3339 29.013 16.3954 28.8646 16.5048 28.7552C16.6142 28.6458 16.7626 28.5844 16.9173 28.5844H19.2507C19.4054 28.5844 19.5538 28.6458 19.6632 28.7552C19.7726 28.8646 19.834 29.013 19.834 29.1677C19.834 29.3224 19.7726 29.4708 19.6632 29.5802C19.5538 29.6896 19.4054 29.7511 19.2507 29.7511H16.9173C16.7626 29.7511 16.6142 29.6896 16.5048 29.5802C16.3954 29.4708 16.3339 29.3224 16.3339 29.1677ZM17.5006 32.0845C17.3459 32.0845 17.1975 32.023 17.0881 31.9136C16.9787 31.8042 16.9173 31.6558 16.9173 31.5011C16.9173 31.3464 16.9787 31.198 17.0881 31.0886C17.1975 30.9792 17.3459 30.9178 17.5006 30.9178H19.834C19.9888 30.9178 20.1371 30.9792 20.2465 31.0886C20.3559 31.198 20.4174 31.3464 20.4174 31.5011C20.4174 31.6558 20.3559 31.8042 20.2465 31.9136C20.1371 32.023 19.9888 32.0845 19.834 32.0845H17.5006ZM22.1675 32.6678C22.1684 32.9262 22.0832 33.1775 21.9255 33.3821C21.7677 33.5867 21.5464 33.733 21.2963 33.7978C21.0462 33.8627 20.7816 33.8425 20.5443 33.7403C20.307 33.6382 20.1105 33.4599 19.9857 33.2337C20.3501 33.204 20.6958 33.0603 20.9739 32.823C21.252 32.5857 21.4482 32.2668 21.5347 31.9116C21.6213 31.5565 21.5937 31.183 21.456 30.8444C21.3182 30.5058 21.0773 30.2192 20.7674 30.0252C20.9191 29.7648 20.9996 29.4691 21.0007 29.1677C21.0009 28.8726 20.926 28.5824 20.7832 28.3242C20.6403 28.066 20.4341 27.8484 20.1841 27.6918C20.3369 27.4319 20.4175 27.1358 20.4175 26.8343C20.4175 26.5328 20.3369 26.2367 20.1841 25.9768C20.2919 25.9107 20.3917 25.8324 20.4816 25.7434C20.6466 25.5814 20.7776 25.388 20.8668 25.1746C20.9559 24.9612 21.0015 24.7322 21.0007 24.5009H21.4208L22.1675 24.9501V32.6678ZM29.7511 29.7511H28.5844C28.458 29.7504 28.335 29.7914 28.2343 29.8677L26.0584 31.5011H23.3342V25.6501L24.2034 26.1693L24.7984 25.1659L21.8816 23.4158C21.7916 23.3624 21.6888 23.3342 21.5841 23.3342H18.3757C18.1436 23.3342 17.921 23.242 17.7569 23.0779C17.5928 22.9138 17.5006 22.6912 17.5006 22.4591C17.5006 22.2271 17.5928 22.0045 17.7569 21.8404C17.921 21.6763 18.1436 21.5841 18.3757 21.5841H25.3759L26.951 23.6842C27.0057 23.7562 27.0763 23.8146 27.1572 23.8551C27.2381 23.8955 27.3272 23.9169 27.4176 23.9175H29.7511V29.7511ZM33.8345 30.9178H30.9178V22.7508H33.8345V30.9178Z" fill="black"/>
<path d="M17.6312 15.3921L23.4675 7.80499L24.3931 8.51704L18.5569 16.1041L17.6312 15.3921Z" fill="black"/>
<path d="M20.4174 9.91706C20.4174 9.57093 20.3147 9.23257 20.1224 8.94477C19.9301 8.65698 19.6568 8.43267 19.337 8.30021C19.0172 8.16775 18.6654 8.13309 18.3259 8.20062C17.9864 8.26815 17.6746 8.43482 17.4298 8.67957C17.1851 8.92432 17.0184 9.23616 16.9509 9.57563C16.8833 9.91511 16.918 10.267 17.0505 10.5868C17.1829 10.9066 17.4072 11.1799 17.695 11.3722C17.9828 11.5645 18.3212 11.6671 18.6673 11.6671C19.1314 11.6671 19.5766 11.4827 19.9048 11.1545C20.233 10.8263 20.4174 10.3812 20.4174 9.91706ZM18.0839 9.91706C18.0839 9.80168 18.1182 9.68889 18.1823 9.59296C18.2464 9.49703 18.3375 9.42226 18.4441 9.37811C18.5507 9.33395 18.6679 9.3224 18.7811 9.34491C18.8943 9.36742 18.9982 9.42298 19.0798 9.50456C19.1614 9.58615 19.2169 9.69009 19.2394 9.80325C19.262 9.91641 19.2504 10.0337 19.2062 10.1403C19.1621 10.2469 19.0873 10.338 18.9914 10.4021C18.8955 10.4662 18.7827 10.5004 18.6673 10.5004C18.5126 10.5004 18.3642 10.439 18.2548 10.3295C18.1454 10.2201 18.0839 10.0718 18.0839 9.91706Z" fill="black"/>
<path d="M21.5841 14.0006C21.5841 14.3467 21.6867 14.685 21.879 14.9728C22.0713 15.2606 22.3447 15.4849 22.6645 15.6174C22.9842 15.7499 23.3361 15.7845 23.6756 15.717C24.0151 15.6495 24.3269 15.4828 24.5716 15.238C24.8164 14.9933 24.9831 14.6815 25.0506 14.342C25.1181 14.0025 25.0835 13.6506 24.951 13.3308C24.8186 13.011 24.5942 12.7377 24.3065 12.5454C24.0187 12.3531 23.6803 12.2505 23.3342 12.2505C22.87 12.2505 22.4249 12.4349 22.0967 12.7631C21.7685 13.0913 21.5841 13.5364 21.5841 14.0006ZM23.9175 14.0006C23.9175 14.1159 23.8833 14.2287 23.8192 14.3246C23.7551 14.4206 23.664 14.4953 23.5574 14.5395C23.4508 14.5837 23.3335 14.5952 23.2204 14.5727C23.1072 14.5502 23.0033 14.4946 22.9217 14.413C22.8401 14.3315 22.7845 14.2275 22.762 14.1144C22.7395 14.0012 22.7511 13.8839 22.7952 13.7773C22.8394 13.6707 22.9141 13.5796 23.0101 13.5155C23.106 13.4514 23.2188 13.4172 23.3342 13.4172C23.4889 13.4172 23.6373 13.4787 23.7467 13.5881C23.8561 13.6975 23.9175 13.8458 23.9175 14.0006Z" fill="black"/>
</svg>
