<svg viewBox="0 0 17 14" fill="none" xmlns="http://www.w3.org/2000/svg">
<path d="M0.168936 7.39738L6.63364 13.8137C6.75326 13.9327 6.92102 14 7.09672 14L9.87468 14C10.4271 14 10.714 13.3925 10.3378 13.0194L6.87734 9.58712H16.0073C16.5553 9.58712 17 9.17691 17 8.67148V5.32806C17 4.82263 16.5553 4.41243 16.0073 4.41243L6.87784 4.41243L10.3383 0.980642C10.7145 0.607523 10.4276 0 9.87518 0L7.09721 0C6.92151 0 6.75375 0.0672998 6.63414 0.186332L0.169434 6.60307C-0.0563965 6.82695 -0.0563984 7.17351 0.168936 7.39738Z" fill="#464B4E"/>
</svg>
 
