<svg viewBox="0 0 30 35" fill="none" xmlns="http://www.w3.org/2000/svg">
<path d="M28.27 28.7236C29.9289 24.8403 29.264 20.4143 26.4577 17.3005C26.0051 16.799 25.9215 16.4595 26.27 15.8196C30.2185 8.67845 25.4121 0.0385439 17.5001 0.0128564C16.2315 0.0128564 14.9629 0.0329597 13.6943 0.000571188C13.1731 -0.0117141 13.0091 0.172565 13.0091 0.709767C13.0326 2.74577 13.0359 4.7829 13.0091 6.82002C13.0005 7.39967 13.1753 7.57836 13.7308 7.56943C15.6857 7.53816 17.6417 7.54932 19.5977 7.56943C19.9194 7.56943 20.4395 7.39743 20.2711 8.10663L20.2626 13.0207C20.3291 13.6484 19.8701 13.4798 19.5752 13.482C17.6717 13.4954 15.7683 13.5122 13.8659 13.4742C13.2149 13.4608 12.9898 13.6585 13.008 14.3565C13.0509 16.1166 13.0176 17.8801 13.0251 19.6414C13.0251 20.9593 13.5281 21.4674 14.8139 21.4708C16.9018 21.4708 18.9907 21.492 21.0776 21.4607C21.7049 21.4518 21.9162 21.6841 21.9012 22.3218C21.869 23.7525 21.8711 25.1843 21.9012 26.6161C21.9129 27.2281 21.6942 27.4347 21.1119 27.428C18.9189 27.4035 16.7237 27.4414 14.5307 27.4135C10.4665 27.3621 7.35551 24.1434 7.33514 19.9106C7.30368 13.6071 7.30618 7.30325 7.34265 0.99903C7.34265 0.196019 7.12817 -0.0150647 6.37108 0.00280482C4.25851 0.0530628 2.14379 0.0150902 0.0301479 0.0117397C0.0301479 7.46668 -0.0502799 14.9238 0.0515953 22.3777C0.136313 28.632 4.99201 34.0431 10.9694 34.7746C13.8895 35.132 16.8278 34.9835 19.7532 34.8752C21.8658 34.797 23.737 33.8979 25.4046 32.5465C25.4046 32.5354 27.6458 30.3274 28.27 28.7236Z" fill="#18191D"/>
</svg>
