<svg viewBox="0 0 35 35" fill="none" xmlns="http://www.w3.org/2000/svg">
<path d="M30.7758 6.63793V0H24.1379V2.41379H26.5517L19.3103 9.65517L13.2758 3.62069L4.22412 12.6724L6.03447 14.4828L13.2758 7.24138L19.3103 13.2759L28.3621 4.22414V6.63793H30.7758Z" fill="#F35244"/>
<path d="M1.20691 30.1724H7.24139V32.5862H1.20691V30.1724Z" fill="#FCA713"/>
<path d="M6.03442 32.5862H12.0689V35H6.03442V32.5862Z" fill="#FCA713"/>
<path d="M6.03442 27.7587H12.0689V30.1725H6.03442V27.7587Z" fill="#FCA713"/>
<path d="M13.2759 30.1724H19.3104V32.5862H13.2759V30.1724Z" fill="#FCA713"/>
<path d="M12.069 32.5863H18.1035V35.0001H12.069V32.5863Z" fill="#F4C067"/>
<path d="M12.069 27.7588H18.1035V30.1726H12.069V27.7588Z" fill="#F4C067"/>
<path d="M7.24133 30.1726H13.2758V32.5864H7.24133V30.1726Z" fill="#F4C067"/>
<path d="M7.24133 25.345H13.2758V27.7588H7.24133V25.345Z" fill="#F4C067"/>
<path d="M0 32.5863H6.03448V35.0001H0V32.5863Z" fill="#F4C067"/>
<path d="M0 27.7588H6.03448V30.1726H0V27.7588Z" fill="#F4C067"/>
<path d="M18.1034 30.1724H31.9827V34.9999H18.1034V30.1724Z" fill="#80C326"/>
<path d="M30.3659 30.1724C29.4131 31.4807 28.1645 32.5453 26.7221 33.2793C25.2797 34.0134 23.6841 34.3962 22.0657 34.3965H18.1034V34.9999H31.9827V30.1724H30.3659Z" fill="#69A709"/>
<path d="M23.5344 30.1724H25.9482V34.9999H23.5344V30.1724Z" fill="#FCA713"/>
<path d="M20.5172 25.3448H34.3965V30.1724H20.5172V25.3448Z" fill="#80C326"/>
<path d="M32.7797 25.3448C31.8269 26.6532 30.5784 27.7177 29.1359 28.4518C27.6935 29.1859 26.098 29.5687 24.4795 29.569H20.5172V30.1724H34.3965V25.3448H32.7797Z" fill="#69A709"/>
<path d="M25.9482 25.3448H28.362V30.1724H25.9482V25.3448Z" fill="#FCA713"/>
<path d="M18.1034 20.5172H31.9827V25.3448H18.1034V20.5172Z" fill="#80C326"/>
<path d="M30.3659 20.5172C29.4131 21.8255 28.1645 22.8901 26.7221 23.6242C25.2797 24.3583 23.6841 24.7411 22.0657 24.7413H18.1034V25.3448H31.9827V20.5172H30.3659Z" fill="#69A709"/>
<path d="M23.5344 20.5172H25.9482V25.3448H23.5344V20.5172Z" fill="#FCA713"/>
<path d="M16.2931 27.7587H18.1034V30.1725H16.2931V27.7587Z" fill="#F5B142"/>
<path d="M16.2931 30.1724H18.1034V32.5862H16.2931V30.1724Z" fill="#ED8515"/>
<path d="M16.2931 32.5862H18.1034V35H16.2931V32.5862Z" fill="#F5B142"/>
<path d="M10.2587 32.5862H12.069V35H10.2587V32.5862Z" fill="#ED8515"/>
<path d="M11.4656 30.1724H13.2759V32.5862H11.4656V30.1724Z" fill="#FCA713"/>
<path d="M10.2587 27.7587H12.069V30.1725H10.2587V27.7587Z" fill="#ED8515"/>
<path d="M4.22412 32.5862H6.03447V35H4.22412V32.5862Z" fill="#F5B142"/>
<path d="M5.43103 30.1724H7.24138V32.5862H5.43103V30.1724Z" fill="#ED8515"/>
<path d="M4.22412 27.7587H6.03447V30.1725H4.22412V27.7587Z" fill="#F5B142"/>
<path d="M12.069 25.3448H13.8793V27.7586H12.069V25.3448Z" fill="#F5B142"/>
<path d="M10.2587 13.8793H12.6725V23.5344H10.2587V13.8793Z" fill="#4DB7E5"/>
<path d="M16.2931 15.6897H18.7069V18.7069H16.2931V15.6897Z" fill="#4DB7E5"/>
<path d="M22.3276 13.8793H24.7414V18.7069H22.3276V13.8793Z" fill="#4DB7E5"/>
<path d="M28.3621 9.05176H30.7759V18.7069H28.3621V9.05176Z" fill="#4DB7E5"/>
<path d="M6.63791 16.8966H4.22412V25.9483L6.63791 23.5345V16.8966Z" fill="#4DB7E5"/>
</svg>
