<svg viewBox="0 0 37 35" fill="none" xmlns="http://www.w3.org/2000/svg">
<path d="M0 28.0086L12.1093 35L36.3279 21.0173L36.3278 6.99126L24.2184 0L0 14.0261V28.0086Z" fill="#2DB357"/>
<path d="M0 14.0261L12.1093 21.0173L36.3278 6.99127L36.3279 21.0173L12.1093 35L0 28.0086V14.0261Z" fill="#0E834C"/>
<path d="M12.1091 35V21.0173L36.3277 6.99127L36.3277 21.0173L12.1091 35Z" fill="#1A4541"/>
<path d="M24.2185 1.60071L3.02734 13.7656L12.2203 19.0108L33.4114 6.84611L24.2185 1.60071ZM12.2186 17.8244L5.10035 13.7628L24.2202 2.7872L31.3384 6.84875L12.2186 17.8244Z" fill="white"/>
<path d="M18.5133 12.2666C20.7069 12.2666 22.4851 11.2569 22.4851 10.0113C22.4851 8.76577 20.7069 7.75604 18.5133 7.75604C16.3197 7.75604 14.5415 8.76577 14.5415 10.0113C14.5415 11.2569 16.3197 12.2666 18.5133 12.2666Z" fill="white"/>
<path d="M24.6596 7.646C25.6076 7.646 26.3761 7.20968 26.3761 6.67145C26.3761 6.13322 25.6076 5.6969 24.6596 5.6969C23.7116 5.6969 22.9431 6.13322 22.9431 6.67145C22.9431 7.20968 23.7116 7.646 24.6596 7.646Z" fill="#5EE1EB"/>
<path d="M12.1091 14.8104C13.0571 14.8104 13.8256 14.374 13.8256 13.8357C13.8256 13.2974 13.0571 12.861 12.1091 12.861C11.1611 12.861 10.3926 13.2974 10.3926 13.8357C10.3926 14.374 11.1611 14.8104 12.1091 14.8104Z" fill="#5EE1EB"/>
<path d="M0 15.8231V16.165L12.1084 23.3359L12.1093 22.9943L0 15.8231Z" fill="#2DB357"/>
<path d="M0 17.7007V18.0427L12.1084 25.2134L12.1093 24.8719L0 17.7007Z" fill="#2DB357"/>
<path d="M0 19.5784V19.9204L12.1084 27.0913L12.1093 26.7497L0 19.5784Z" fill="#2DB357"/>
<path d="M0 21.4561V21.7981L12.1084 28.9689L12.1093 28.6275L0 21.4561Z" fill="#2DB357"/>
<path d="M0 23.3339V23.6759L12.1084 30.8467L12.1093 30.5051L0 23.3339Z" fill="#2DB357"/>
<path d="M0 25.2115V25.5535L12.1084 32.7242L12.1093 32.3827L0 25.2115Z" fill="#2DB357"/>
<path d="M36.3277 8.9444L12.1099 22.9948L12.1091 23.3354L36.3277 9.28436V8.9444Z" fill="#0E834C"/>
<path d="M36.3277 10.822L12.1099 24.8725L12.1091 25.2131L36.3277 11.162V10.822Z" fill="#0E834C"/>
<path d="M36.3277 12.6998L12.1099 26.7503L12.1091 27.091L36.3277 13.0397V12.6998Z" fill="#0E834C"/>
<path d="M36.3277 14.5773L12.1099 28.6279L12.1091 28.9685L36.3277 14.9173V14.5773Z" fill="#0E834C"/>
<path d="M12.1099 30.5056L12.1091 30.8462L36.3277 16.7952V16.455L12.1099 30.5056Z" fill="#0E834C"/>
<path d="M12.1099 32.3832L12.1091 32.7237L36.3277 18.6727V18.3325L12.1099 32.3832Z" fill="#0E834C"/>
</svg>
