<svg viewBox="0 0 13 13" fill="none" xmlns="http://www.w3.org/2000/svg">
<path d="M7.67846 6.50001L12.7557 1.42273C13.0814 1.09714 13.0815 0.569958 12.7557 0.244297C12.4301 -0.0813899 11.903 -0.0814661 11.5773 0.244271L6.5 5.32155L1.42273 0.244297C1.09715 -0.0813645 0.569935 -0.0814661 0.244274 0.244246C-0.081412 0.569907 -0.0814374 1.09702 0.244274 1.4227L5.32149 6.50001L0.244249 11.5773C-0.0806757 11.9022 -0.0806757 12.4308 0.244249 12.7557C0.569884 13.0814 1.09705 13.0815 1.42271 12.7557L6.49995 7.67841L11.5772 12.7557C11.9028 13.0814 12.43 13.0814 12.7556 12.7557C13.0813 12.4301 13.0814 11.9029 12.7557 11.5772L7.67846 6.50001Z" fill="#484848"/>
</svg>
