<svg viewBox="0 0 44 44" fill="none" xmlns="http://www.w3.org/2000/svg">
<path d="M26.3105 28.8367L27.3918 29.9184L28.656 31.1759L29.143 31.6665L31.6653 29.1424L28.8372 26.3099L26.3105 28.8367Z" fill="#5D6D7E"/>
<path d="M34.2375 29.1257L42.9415 37.8293C43.5963 38.4823 44.0026 39.3887 44 40.3855C44 41.3841 43.5962 42.2897 42.9415 42.9453C42.2886 43.5974 41.3844 43.9997 40.3858 43.9997C39.3876 43.9997 38.4843 43.5974 37.8296 42.943L29.126 34.2385L34.2375 29.1257Z" fill="#FF8E31"/>
<path d="M33.0361 30.3288L33.7434 29.6201L42.4484 38.3251C42.9979 38.8751 43.3002 39.6066 43.2997 40.3852C43.2997 41.1659 42.9965 41.8988 42.4484 42.4496C42.3482 42.5458 42.22 42.5942 42.0937 42.5942C41.9645 42.5942 41.8372 42.5458 41.7377 42.4484C41.5439 42.2519 41.5439 41.9373 41.7377 41.7424C42.1007 41.3807 42.2992 40.8962 42.2992 40.3839C42.3005 39.8737 42.1009 39.3928 41.7404 39.0329L33.0361 30.3288Z" fill="#FECE59"/>
<path d="M29.1255 34.2385L34.2374 29.1253L33.8561 28.7431C33.626 28.5121 33.3114 28.3718 32.9616 28.3718C32.6096 28.3718 32.2941 28.5115 32.0662 28.7414L28.742 32.0673C28.5137 32.294 28.3711 32.6094 28.3711 32.9619C28.3711 33.309 28.5134 33.6285 28.742 33.8537L29.1255 34.2385Z" fill="#34495E"/>
<path d="M0 16.3418C0 7.31784 7.31698 0 16.3427 0C25.3694 0 32.6859 7.31827 32.6859 16.3418C32.6859 25.3684 25.3685 32.685 16.3427 32.6871C7.31698 32.685 0 25.3682 0 16.3418Z" fill="#34495E"/>
<path d="M16.3425 30.9165C24.3893 30.9165 30.916 24.3922 30.916 16.3418C30.916 8.29595 24.3895 1.76959 16.3425 1.76959C8.29448 1.76976 1.76855 8.29569 1.76855 16.3419C1.76855 24.3922 8.29448 30.9165 16.3425 30.9165Z" fill="#5D6D7E"/>
<path d="M16.343 29.7501C23.7463 29.7501 29.7498 23.749 29.7498 16.342C29.7498 8.94055 23.746 2.93567 16.343 2.93567C8.94 2.93567 2.93555 8.94055 2.93555 16.342C2.93555 23.7485 8.93845 29.7501 16.343 29.7501Z" fill="#CEE2F2"/>
<path d="M16.6958 5.13673C16.4675 4.79797 16.075 4.58587 15.6431 4.61045C13.7924 4.72286 12.0434 5.24407 10.4451 6.17202C9.88242 6.50116 9.68941 7.22647 10.0173 7.79186C10.345 8.35019 11.0713 8.54888 11.6323 8.21665C12.9072 7.48119 14.3026 7.06336 15.7819 6.97322C16.4318 6.93936 16.9317 6.37879 16.8914 5.72936C16.8839 5.50429 16.8085 5.3019 16.6958 5.13673Z" fill="white"/>
<path d="M9.10457 9.02368C9.04166 8.92932 8.95959 8.84175 8.86961 8.76716C8.36207 8.35199 7.61785 8.43278 7.2075 8.93989C5.99973 10.4227 5.16854 12.2017 4.80159 14.0949C4.36752 16.3436 4.59457 18.6458 5.45678 20.7554C5.70806 21.3635 6.39968 21.6491 7.00297 21.4005C7.60797 21.1554 7.8962 20.4663 7.64844 19.8583C6.96094 18.1759 6.78254 16.3387 7.1317 14.544C7.41727 13.0326 8.08122 11.6136 9.04458 10.4302C9.37957 10.0182 9.38842 9.44014 9.10457 9.02368Z" fill="white"/>
</svg>
