<svg width="16" height="16" viewBox="0 0 16 16" fill="none" xmlns="http://www.w3.org/2000/svg">
<path d="M16.0002 8.00019C16.0002 3.58148 12.4184 0 8.00023 0C3.58181 0 0 3.58148 0 8.00019C0 12.4182 3.58181 16 8.00023 16C12.4184 16 16.0002 12.4182 16.0002 8.00019Z" fill="white"/>
<path d="M10.1662 11.5949C10.1215 11.5294 10.0357 11.5061 9.96402 11.54C9.1713 11.9153 8.27157 12.312 8.09498 12.3467C8.09053 12.3427 8.08347 12.3355 8.07422 12.3229C8.05029 12.2905 8.03865 12.2482 8.03865 12.1935C8.03865 11.7451 8.37709 10.381 9.04453 8.13926C9.60729 6.25577 9.67237 5.86579 9.67237 5.73632C9.67237 5.53644 9.59585 5.36756 9.45099 5.24788C9.31338 5.1344 9.12112 5.0769 8.87958 5.0769C8.4778 5.0769 8.01214 5.22944 7.45595 5.54325C6.91699 5.84744 6.31592 6.36267 5.66953 7.07461C5.61894 7.13037 5.61365 7.21373 5.6568 7.27546C5.70001 7.33721 5.78014 7.36072 5.84983 7.33234C6.07676 7.23973 7.21722 6.77255 7.38346 6.66813C7.51958 6.5828 7.63741 6.53949 7.73371 6.53949C7.73716 6.53949 7.74012 6.53962 7.74261 6.53981C7.74377 6.5462 7.74487 6.55593 7.74487 6.5699C7.74487 6.66816 7.72465 6.78448 7.68501 6.91505C6.71318 10.0638 6.24078 11.9941 6.24078 12.8163C6.24078 13.1064 6.32143 13.34 6.48045 13.5105C6.64249 13.6844 6.86107 13.7726 7.13012 13.7726C7.41684 13.7726 7.76579 13.6528 8.19689 13.4064C8.61405 13.1681 9.25076 12.6437 10.1435 11.8032C10.2013 11.7488 10.2109 11.6604 10.1662 11.5949Z" fill="#1F4271"/>
<path d="M10.1351 2.47244C9.97624 2.30987 9.77301 2.22745 9.53108 2.22745C9.22989 2.22745 8.96755 2.34648 8.75145 2.58124C8.53881 2.81214 8.43097 3.09547 8.43097 3.42334C8.43097 3.68239 8.5104 3.89706 8.66703 4.06137C8.82575 4.22816 9.02624 4.31271 9.26284 4.31271C9.55172 4.31271 9.81264 4.18701 10.0383 3.93908C10.2601 3.69551 10.3725 3.40915 10.3725 3.08796C10.3725 2.84113 10.2927 2.63406 10.1351 2.47244Z" fill="#1F4271"/>
</svg>
