<svg viewBox="0 0 34 35" fill="none" xmlns="http://www.w3.org/2000/svg">
<path d="M15.1828 6.43988C15.0206 6.43988 14.8606 6.36543 14.757 6.22468C14.2767 5.57212 13.4221 4.82352 12.0773 4.96714C10.494 5.13579 9.31822 4.63191 8.61056 4.17957C8.36481 4.02248 8.29297 3.69593 8.44999 3.45018C8.60701 3.20436 8.9337 3.13258 9.17938 3.2896C9.74465 3.65081 10.6868 4.05325 11.9654 3.9168C13.906 3.71077 15.0804 4.8819 15.6078 5.59865C15.7806 5.83353 15.7303 6.16418 15.4954 6.33707C15.4011 6.40638 15.2915 6.43988 15.1828 6.43988Z" fill="#FFD064"/>
<path d="M9.65358 9.24441C9.55931 9.24441 9.46402 9.21925 9.37775 9.16627C9.12912 9.0137 9.0514 8.68851 9.20398 8.43989C9.88094 7.33705 11.1215 6.57908 12.7917 6.24794C14.0094 6.00657 15.0312 6.07267 15.074 6.07568C15.365 6.09564 15.5847 6.34768 15.5648 6.63869C15.5448 6.92949 15.2921 7.14755 15.0024 7.12951C14.9657 7.12705 11.3796 6.91445 10.1041 8.99244C10.0045 9.15493 9.83104 9.24441 9.65358 9.24441Z" fill="#FFD064"/>
<path d="M17.6143 29.482C26.2878 29.482 31.0838 16.7596 17.3869 6.93341C17.0462 6.68895 16.8439 6.29541 16.8485 5.87609C16.8522 5.52958 16.962 5.19318 17.1607 4.90929C17.8019 3.99361 18.7249 2.42722 19.2784 1.16558C19.411 0.863433 19.2213 0.538452 18.8667 0.538452C18.044 0.538521 18.044 0.00012207 17.2213 0.00012207C16.3986 0.00012207 16.3986 0.538521 15.5758 0.538521C14.8747 0.538521 14.5871 -0.0646827 14.2462 0.374048C13.2521 1.65346 16.657 6.15267 16.657 6.15267C1.6197 16.0381 6.46822 29.482 15.3465 29.482H17.6143V29.482Z" fill="#EABC6B"/>
<path d="M21.0239 6.15248C21.0239 6.15248 24.4793 1.66783 23.4857 0.381377C23.147 -0.0570801 22.8583 0.538399 22.158 0.538399C21.3351 0.53833 21.3351 0 20.5123 0C19.6895 0 19.6895 0.53833 18.8667 0.53833C18.8262 0.53833 18.7892 0.536074 18.7525 0.533545C18.4219 1.95064 16.9321 4.1583 16.0796 5.34037C16.4154 5.83304 16.6571 6.15241 16.6571 6.15241C16.4565 6.28428 16.2602 6.4169 16.0667 6.54999C30.4338 16.4251 25.6265 29.4818 16.8398 29.4818H22.3877C31.2928 29.4818 36.1113 16.0708 21.0239 6.15248Z" fill="#E8AE4D"/>
<path d="M21.6664 7.74756C19.6586 8.25465 17.675 8.25465 15.6669 7.74756C14.968 7.57106 14.5718 6.78513 14.8233 6.07071C14.8261 6.06271 14.8289 6.05471 14.8317 6.04671C15.0426 5.44775 15.6407 5.11162 16.2269 5.2588C17.8709 5.67156 19.4619 5.67169 21.1064 5.2588C21.6926 5.11162 22.2907 5.44775 22.5016 6.04671C22.5044 6.05471 22.5072 6.06271 22.51 6.07071C22.7615 6.78513 22.3653 7.57106 21.6664 7.74756Z" fill="#FFE07D"/>
<path d="M2.78845 31.7883L10.4349 34.6344C11.0843 34.8761 11.7716 34.9999 12.4646 34.9999H20.3448C21.4476 34.9999 22.5276 34.6866 23.4592 34.0963L33.326 27.8441C33.977 27.2661 34.0976 26.2947 33.6079 25.575C33.072 24.7875 32.1856 24.6506 31.2102 25.1118L21.6039 29.3415L21.6152 27.783C21.488 26.5037 20.503 25.477 19.2302 25.2969L13.3803 24.6234C12.0308 24.4325 11.3565 23.9802 10.18 23.292C8.57391 22.3525 6.74667 21.8573 4.88592 21.8573H2.78845V31.7883Z" fill="#FFDDCE"/>
<path d="M9.9705 33.1179C10.6532 33.372 11.3758 33.5022 12.1043 33.5022H20.3885C21.2704 33.5022 22.1383 33.3111 22.9344 32.9466L28.7271 29.276C29.2653 28.935 29.6069 28.3413 29.5894 27.7044C29.5801 27.3667 29.4769 27.0286 29.2746 26.7313C29.2746 26.7313 29.0983 26.4291 28.9171 26.1215L21.6039 29.3415L21.6152 27.783C21.488 26.5037 20.503 25.477 19.2302 25.2969L13.3803 24.6234C12.0308 24.4325 11.3565 23.9802 10.18 23.292C8.57391 22.3525 6.74667 21.8573 4.88592 21.8573H2.78845V30.4447L9.9705 33.1179Z" fill="#FFDDCE"/>
<path d="M33.6076 25.575C33.0717 24.7875 32.1853 24.6506 31.2099 25.1118L28.5676 26.2753C28.6955 26.4778 28.7973 26.6395 28.7973 26.6395C29.287 27.3592 29.1664 28.3306 28.5154 28.9087L22.7662 32.5517C22.009 32.8983 21.1834 33.0802 20.3444 33.0802H12.4643C11.7714 33.0802 11.084 32.9564 10.4346 32.7146L2.78821 29.8685V31.7883L10.4346 34.6344C11.084 34.8762 11.7714 35 12.4643 35H18.9026H20.3446C21.4474 35 22.5275 34.6866 23.459 34.0963L33.3258 27.8442C33.9766 27.2661 34.0974 26.2947 33.6076 25.575Z" fill="#FFCBBE"/>
<path d="M20.8977 26.1774L20.8975 26.215L20.9223 26.204C20.9142 26.195 20.9059 26.1863 20.8977 26.1774Z" fill="#F5DBCC"/>
<path d="M21.6036 29.3405H15.6304C15.3387 29.3405 15.1023 29.1041 15.1023 28.8123C15.1023 28.5206 15.3387 28.2842 15.6304 28.2842H21.6113L21.6036 29.3405Z" fill="#FFCBBE"/>
<path d="M4.43352 33.3115C4.43352 33.8663 3.98378 34.316 3.42898 34.316H1.00454C0.449737 34.316 0 33.8663 0 33.3115V21.0111C0 20.4563 0.449737 20.0066 1.00454 20.0066H3.42898C3.98378 20.0066 4.43352 20.4563 4.43352 21.0111V33.3115Z" fill="#407093"/>
<path d="M20.0038 16.3671C19.7619 16.2816 19.5393 16.1998 19.334 16.1209V12.7535C19.9587 12.857 20.3337 13.1802 20.3612 13.2046C20.5757 13.3997 20.9077 13.3853 21.1046 13.1718C21.3023 12.9574 21.2889 12.6234 21.0744 12.4255C21.0373 12.3912 20.3905 11.8085 19.3339 11.6868V10.9359C19.3339 10.6442 19.0975 10.4077 18.8058 10.4077C18.514 10.4077 18.2776 10.6441 18.2776 10.9359V11.7296C18.1503 11.754 18.0198 11.785 17.8858 11.8254C16.9899 12.0952 16.3202 12.8634 16.138 13.8301C15.9728 14.7072 16.2508 15.5509 16.8639 16.0317C17.2158 16.3077 17.6589 16.5605 18.2776 16.8306V21.0075C17.6664 20.9819 17.2911 20.8668 16.635 20.4377C16.3909 20.2781 16.0637 20.3464 15.904 20.5905C15.7443 20.8346 15.8127 21.1619 16.0568 21.3216C16.919 21.8856 17.4953 22.0327 18.2776 22.0631V22.9015C18.2776 23.1932 18.514 23.4296 18.8058 23.4296C19.0975 23.4296 19.3339 23.1932 19.3339 22.9015V22.026C20.8165 21.7855 21.6817 20.5854 21.8698 19.466C22.1051 18.0673 21.3725 16.8509 20.0038 16.3671ZM17.5158 15.2005C17.2142 14.9641 17.0841 14.5139 17.1762 14.0256C17.2614 13.5729 17.5727 13.0228 18.1905 12.8367C18.2199 12.8278 18.2488 12.8202 18.2778 12.8125V15.6653C17.9615 15.5075 17.7135 15.3556 17.5158 15.2005ZM20.8283 19.2907C20.7117 19.9838 20.203 20.7237 19.334 20.9464V17.2486C19.4367 17.2862 19.5417 17.3241 19.6517 17.3629C20.966 17.8275 20.8845 18.9559 20.8283 19.2907Z" fill="white"/>
</svg>
