<svg viewBox="0 0 35 35" fill="none" xmlns="http://www.w3.org/2000/svg">
<path d="M33.9746 35H11.2793C10.7125 35 10.2539 34.5414 10.2539 33.9746V17.1653C10.2539 16.6967 10.5703 16.2881 11.0249 16.172C12.4088 15.8165 13.6825 15.0404 14.6118 13.985C14.8942 13.6646 15.3448 13.5525 15.7434 13.7037C16.1419 13.8538 16.4062 14.2364 16.4062 14.6629V16.4062H28.7109V10.2539H17.4316C16.8649 10.2539 16.4062 9.79528 16.4062 9.22852C16.4062 7.98185 16.0698 6.74112 15.4349 5.63862C15.2526 5.32116 15.2526 4.93069 15.4369 4.61426C15.6192 4.2968 15.9576 4.10156 16.3242 4.10156H33.9746C34.5414 4.10156 35 4.56019 35 5.12695V33.9746C35 34.5414 34.5414 35 33.9746 35Z" fill="#515566"/>
<path d="M35 33.9746V5.12695C35 4.56019 34.5414 4.10156 33.9746 4.10156H22.5586V10.2539H28.7109V16.4062H22.5586V35H33.9746C34.5414 35 35 34.5414 35 33.9746Z" fill="#35354D"/>
<path d="M29.7363 18.457H15.3809C14.8141 18.457 14.3555 17.9984 14.3555 17.4316V14.6629C14.3555 14.4145 14.4456 14.1752 14.6078 13.988C15.7674 12.6612 16.4062 10.9709 16.4062 9.22852C16.4062 8.66175 16.8649 8.20312 17.4316 8.20312H29.7363C30.3031 8.20312 30.7617 8.66175 30.7617 9.22852V17.4316C30.7617 17.9984 30.3031 18.457 29.7363 18.457Z" fill="#91F2A1"/>
<path d="M22.5586 18.457H29.7363C30.3031 18.457 30.7617 17.9984 30.7617 17.4316V9.22852C30.7617 8.66175 30.3031 8.20312 29.7363 8.20312H22.5586V18.457Z" fill="#52CC7B"/>
<path d="M9.22852 18.457C4.13964 18.457 0 14.3174 0 9.22852C0 4.13964 4.13964 0 9.22852 0C14.344 0 18.457 4.18517 18.457 9.22852C18.457 14.3693 14.2911 18.457 9.22852 18.457Z" fill="#FFEA80"/>
<path d="M18.457 9.22852C18.457 4.18517 14.344 0 9.22852 0V18.457C14.2911 18.457 18.457 14.3692 18.457 9.22852Z" fill="#FFCC66"/>
<path d="M12.3047 11.2793C12.3047 9.58303 10.9248 8.20312 9.22852 8.20312C8.66373 8.20312 8.20312 7.74348 8.20312 7.17773C8.20312 6.61199 8.66373 6.15234 9.22852 6.15234C9.55295 6.15234 9.85339 6.30253 10.0496 6.56394C10.3941 7.01853 11.037 7.10568 11.4856 6.76621C11.9382 6.42578 12.0283 5.78286 11.6879 5.33025C11.317 4.83643 10.8143 4.4949 10.2539 4.29646V3.07617C10.2539 2.5094 9.79528 2.05078 9.22852 2.05078C8.66175 2.05078 8.20312 2.5094 8.20312 3.07617V4.29044C7.01217 4.71516 6.15234 5.84268 6.15234 7.17773C6.15234 8.874 7.53225 10.2539 9.22852 10.2539C9.7933 10.2539 10.2539 10.7136 10.2539 11.2793C10.2539 12.1705 8.94811 12.6111 8.40738 11.8931C8.0649 11.4395 7.42007 11.3513 6.97143 11.6908C6.51882 12.0312 6.42872 12.6742 6.76915 13.1268C7.14 13.6206 7.64271 13.9621 8.20312 14.1606V15.3809C8.20312 15.9476 8.66175 16.4062 9.22852 16.4062C9.79528 16.4062 10.2539 15.9476 10.2539 15.3809V14.1666C11.4449 13.7419 12.3047 12.6144 12.3047 11.2793Z" fill="#FFCC66"/>
<path d="M17.4316 22.5586H15.3809C14.8141 22.5586 14.3555 22.1 14.3555 21.5332C14.3555 20.9664 14.8141 20.5078 15.3809 20.5078H17.4316C17.9984 20.5078 18.457 20.9664 18.457 21.5332C18.457 22.1 17.9984 22.5586 17.4316 22.5586Z" fill="#F3F5F9"/>
<path d="M23.584 22.5586H21.5332C20.9664 22.5586 20.5078 22.1 20.5078 21.5332C20.5078 20.9664 20.9664 20.5078 21.5332 20.5078H23.584C24.1508 20.5078 24.6094 20.9664 24.6094 21.5332C24.6094 22.1 24.1508 22.5586 23.584 22.5586Z" fill="#F3F5F9"/>
<path d="M29.7363 22.5586H27.6855C27.1188 22.5586 26.6602 22.1 26.6602 21.5332C26.6602 20.9664 27.1188 20.5078 27.6855 20.5078H29.7363C30.3031 20.5078 30.7617 20.9664 30.7617 21.5332C30.7617 22.1 30.3031 22.5586 29.7363 22.5586Z" fill="#E1E6F0"/>
<path d="M17.4316 26.6602H15.3809C14.8141 26.6602 14.3555 26.2015 14.3555 25.6348C14.3555 25.068 14.8141 24.6094 15.3809 24.6094H17.4316C17.9984 24.6094 18.457 25.068 18.457 25.6348C18.457 26.2015 17.9984 26.6602 17.4316 26.6602Z" fill="#F3F5F9"/>
<path d="M23.584 26.6602H21.5332C20.9664 26.6602 20.5078 26.2015 20.5078 25.6348C20.5078 25.068 20.9664 24.6094 21.5332 24.6094H23.584C24.1508 24.6094 24.6094 25.068 24.6094 25.6348C24.6094 26.2015 24.1508 26.6602 23.584 26.6602Z" fill="#F3F5F9"/>
<path d="M29.7363 26.6602H27.6855C27.1188 26.6602 26.6602 26.2015 26.6602 25.6348C26.6602 25.068 27.1188 24.6094 27.6855 24.6094H29.7363C30.3031 24.6094 30.7617 25.068 30.7617 25.6348C30.7617 26.2015 30.3031 26.6602 29.7363 26.6602Z" fill="#E1E6F0"/>
<path d="M17.4316 30.7617H15.3809C14.8141 30.7617 14.3555 30.3031 14.3555 29.7363C14.3555 29.1696 14.8141 28.7109 15.3809 28.7109H17.4316C17.9984 28.7109 18.457 29.1696 18.457 29.7363C18.457 30.3031 17.9984 30.7617 17.4316 30.7617Z" fill="#F3F5F9"/>
<path d="M29.7363 30.7617H21.5332C20.9664 30.7617 20.5078 30.3031 20.5078 29.7363C20.5078 29.1696 20.9664 28.7109 21.5332 28.7109H29.7363C30.3031 28.7109 30.7617 29.1696 30.7617 29.7363C30.7617 30.3031 30.3031 30.7617 29.7363 30.7617Z" fill="#FFCC66"/>
<path d="M10.2539 15.3809V14.1666C11.4449 13.7419 12.3047 12.6144 12.3047 11.2793C12.3047 9.58303 10.9248 8.20312 9.22852 8.20312V10.2539C9.7933 10.2539 10.2539 10.7136 10.2539 11.2793C10.2539 11.8366 9.74333 12.2176 9.22852 12.2494V16.4062C9.79528 16.4062 10.2539 15.9476 10.2539 15.3809Z" fill="#FFA64D"/>
<path d="M10.0496 6.56394C10.3941 7.01853 11.037 7.10568 11.4856 6.76621C11.9382 6.42578 12.0283 5.78286 11.6879 5.33025C11.317 4.83643 10.8143 4.4949 10.2539 4.29646V3.07617C10.2539 2.5094 9.79528 2.05078 9.22852 2.05078V6.15234C9.55295 6.15234 9.85339 6.30253 10.0496 6.56394Z" fill="#FFA64D"/>
<path d="M22.5586 26.6602H23.584C24.1508 26.6602 24.6094 26.2015 24.6094 25.6348C24.6094 25.068 24.1508 24.6094 23.584 24.6094H22.5586V26.6602Z" fill="#E1E6F0"/>
<path d="M22.5586 22.5586H23.584C24.1508 22.5586 24.6094 22.1 24.6094 21.5332C24.6094 20.9664 24.1508 20.5078 23.584 20.5078H22.5586V22.5586Z" fill="#E1E6F0"/>
<path d="M29.7363 28.7109H25.6348V30.7617H29.7363C30.3031 30.7617 30.7617 30.3031 30.7617 29.7363C30.7617 29.1696 30.3031 28.7109 29.7363 28.7109Z" fill="#FFA64D"/>
</svg>
