<svg width="23" height="23" viewBox="0 0 23 23" fill="none" xmlns="http://www.w3.org/2000/svg">
<path d="M4.50366 22.73C3.77375 22.73 3.04471 22.5531 2.39995 22.2136C2.30162 22.1617 2.23364 22.0662 2.217 21.9562C2.20035 21.8463 2.23694 21.7349 2.3155 21.6562L3.89289 20.0788C4.23521 19.7365 4.23521 19.1795 3.89289 18.8373C3.55057 18.495 2.99355 18.495 2.65123 18.8373L1.07366 20.4149C0.995107 20.4935 0.883774 20.53 0.773655 20.5134C0.663709 20.4967 0.568157 20.4288 0.516305 20.3303C0.0791234 19.4996 -0.0883965 18.5287 0.0446136 17.5965C0.182479 16.631 0.620875 15.7552 1.31228 15.0636C2.41816 13.9577 4.01896 13.5105 5.53375 13.8719L13.8718 5.53389C13.5107 4.01876 13.9578 2.41813 15.0637 1.31225C15.7552 0.62067 16.631 0.182448 17.5966 0.044582C18.5287 -0.0886015 19.4995 0.0789184 20.3303 0.516274C20.4288 0.568125 20.4966 0.663677 20.5134 0.773623C20.5301 0.883569 20.4935 0.995075 20.4148 1.07363L18.8374 2.6512C18.495 2.99352 18.495 3.55053 18.8374 3.89286C19.1797 4.23518 19.7367 4.23518 20.0788 3.89286L21.6562 2.31546C21.7348 2.23691 21.8461 2.19997 21.9562 2.21696C22.0662 2.23361 22.1617 2.30159 22.2136 2.39992C22.651 3.23041 22.8186 4.20136 22.6855 5.13348C22.5478 6.09906 22.1094 6.97463 21.4181 7.66622C20.806 8.2782 20.0371 8.69735 19.1944 8.87822C18.4486 9.03863 17.6769 9.0069 16.9485 8.78822L8.78808 16.9487C9.00693 17.677 9.03849 18.4487 8.87825 19.1946C8.69721 20.037 8.27806 20.8059 7.66607 21.4181C6.97467 22.1095 6.09891 22.5477 5.13351 22.6856C4.92489 22.7153 4.71419 22.73 4.50366 22.73Z" fill="#455A60"/>
<path d="M18.2264 22.73C18.0158 22.73 17.8053 22.7153 17.5965 22.6856C16.6311 22.5478 15.7554 22.1095 15.0639 21.4181C14.452 20.806 14.0328 20.037 13.8518 19.1946C13.6915 18.4487 13.7231 17.677 13.9419 16.9487L5.78134 8.78823C5.05316 9.00691 4.28146 9.03847 3.5356 8.87823C2.69297 8.69736 1.92422 8.27821 1.31206 7.66623C0.620648 6.97465 0.182252 6.09907 0.0445598 5.13349C-0.0886237 4.20138 0.0790696 3.23059 0.516425 2.39993C0.568276 2.3016 0.663828 2.23362 0.773774 2.21698C0.88372 2.19998 0.995226 2.23692 1.07378 2.31548L2.65118 3.89287C2.9935 4.23519 3.55051 4.23519 3.89266 3.89287C4.23498 3.55055 4.23498 2.99353 3.89266 2.65121L2.31527 1.07382C2.23654 0.995088 2.19995 0.883755 2.2166 0.773636C2.23342 0.66369 2.30122 0.568138 2.39972 0.516286C3.23056 0.0791044 4.20152 -0.0884155 5.13363 0.0445946C6.09903 0.18246 6.97496 0.620856 7.66637 1.31227C8.77224 2.41814 9.21948 4.01877 8.85826 5.53391L17.1963 13.8719C18.7111 13.5107 20.3119 13.9578 21.4177 15.0636C22.1093 15.7552 22.5475 16.631 22.6854 17.5966C22.8186 18.5287 22.6509 19.4996 22.2137 20.3303C22.1619 20.4288 22.0663 20.4968 21.9564 20.5134C21.8464 20.5301 21.7349 20.4935 21.6564 20.4149L20.0788 18.8373C19.7365 18.495 19.1795 18.495 18.8371 18.8373C18.4948 19.1797 18.4948 19.7367 18.8371 20.079L20.4145 21.6562C20.4931 21.735 20.5297 21.8463 20.513 21.9562C20.4964 22.0662 20.4286 22.1617 20.3301 22.2136C19.6855 22.5531 18.9563 22.73 18.2264 22.73Z" fill="#BDC4D4"/>
</svg>
