<svg viewBox="0 0 29 29" fill="none" xmlns="http://www.w3.org/2000/svg">
<path d="M0.483887 4.83349V26.1009H19.8179V0.483337H4.83404L0.483887 4.83349Z" fill="#9BFBFF"/>
<path d="M0.483887 4.83349H4.83404V0.483337" fill="#00D7DF"/>
<path d="M17.4012 28.5177C17.0166 28.5177 16.6478 28.3649 16.3759 28.093C16.1039 27.8211 15.9512 27.4522 15.9512 27.0677V14.9839H18.8513V27.0677C18.8513 27.4522 18.6985 27.8211 18.4266 28.093C18.1546 28.3649 17.7858 28.5177 17.4012 28.5177Z" fill="#7E543B"/>
<path d="M15.9509 19.334H14.0175C13.4836 19.334 13.0508 19.7669 13.0508 20.3007C13.0508 20.8346 13.4836 21.2674 14.0175 21.2674H15.9509C16.4848 21.2674 16.9176 20.8346 16.9176 20.3007C16.9176 19.7669 16.4848 19.334 15.9509 19.334Z" fill="#FFCBBE"/>
<path d="M15.4675 21.2675H13.5341C13.0002 21.2675 12.5674 21.7003 12.5674 22.2342C12.5674 22.7681 13.0002 23.2009 13.5341 23.2009H15.4675C16.0014 23.2009 16.4342 22.7681 16.4342 22.2342C16.4342 21.7003 16.0014 21.2675 15.4675 21.2675Z" fill="#FFCBBE"/>
<path d="M15.9509 23.2009H14.0175C13.4836 23.2009 13.0508 23.6337 13.0508 24.1676C13.0508 24.7015 13.4836 25.1343 14.0175 25.1343H15.9509C16.4848 25.1343 16.9176 24.7015 16.9176 24.1676C16.9176 23.6337 16.4848 23.2009 15.9509 23.2009Z" fill="#FFCBBE"/>
<path d="M16.4343 25.1342H14.5009C13.967 25.1342 13.5342 25.567 13.5342 26.1009C13.5342 26.6348 13.967 27.0676 14.5009 27.0676H16.4343C16.9682 27.0676 17.401 26.6348 17.401 26.1009C17.401 25.567 16.9682 25.1342 16.4343 25.1342Z" fill="#FFCBBE"/>
<path d="M17.4007 17.4006C21.4049 17.4006 24.6509 14.1546 24.6509 10.1503C24.6509 6.14614 21.4049 2.90009 17.4007 2.90009C13.3964 2.90009 10.1504 6.14614 10.1504 10.1503C10.1504 14.1546 13.3964 17.4006 17.4007 17.4006Z" fill="#E9E9EA"/>
<path d="M17.4008 15.9506C20.6042 15.9506 23.201 13.3537 23.201 10.1504C23.201 6.947 20.6042 4.35016 17.4008 4.35016C14.1974 4.35016 11.6006 6.947 11.6006 10.1504C11.6006 13.3537 14.1974 15.9506 17.4008 15.9506Z" fill="#2488FF"/>
<path d="M18.8511 26.5843H21.7512L23.6846 25.1342H25.1346V19.334H22.7179L21.2678 17.4006H19.8178" fill="#FFDDCE"/>
<path d="M20.3011 21.2674L17.8844 19.8174H15.226C14.9055 19.8174 14.5981 19.6901 14.3715 19.4635C14.1449 19.2368 14.0176 18.9295 14.0176 18.609C14.0176 18.2885 14.1449 17.9812 14.3715 17.7546C14.5981 17.5279 14.9055 17.4006 15.226 17.4006H20.3011" fill="#FFDDCE"/>
<path d="M25.1348 18.3673H28.5182V26.1009H25.1348V18.3673Z" fill="#365E7D"/>
<path d="M15.4677 9.18365C16.0016 9.18365 16.4344 8.75084 16.4344 8.21695C16.4344 7.68305 16.0016 7.25024 15.4677 7.25024C14.9338 7.25024 14.501 7.68305 14.501 8.21695C14.501 8.75084 14.9338 9.18365 15.4677 9.18365Z" fill="#F9F7F8"/>
<path d="M19.3344 12.5671C19.8683 12.5671 20.3011 12.1343 20.3011 11.6004C20.3011 11.0665 19.8683 10.6337 19.3344 10.6337C18.8005 10.6337 18.3677 11.0665 18.3677 11.6004C18.3677 12.1343 18.8005 12.5671 19.3344 12.5671Z" fill="#F9F7F8"/>
<path d="M5.31738 16.4339H11.6009V17.4006H5.31738V16.4339Z" fill="black"/>
<path d="M2.41699 6.76691H4.35039V7.73361H2.41699V6.76691Z" fill="black"/>
<path d="M2.41699 9.18365H4.35039V10.1504H2.41699V9.18365Z" fill="black"/>
<path d="M2.41699 11.6004H4.35039V12.5671H2.41699V11.6004Z" fill="black"/>
<path d="M2.41699 14.0172H4.35039V14.9839H2.41699V14.0172Z" fill="black"/>
<path d="M5.31738 18.8506H11.6009V19.8173H5.31738V18.8506Z" fill="black"/>
<path d="M5.31738 21.2675H11.6009V22.2342H5.31738V21.2675Z" fill="black"/>
<path d="M2.41699 16.4339H4.35039V17.4006H2.41699V16.4339Z" fill="black"/>
<path d="M2.41699 18.8506H4.35039V19.8173H2.41699V18.8506Z" fill="black"/>
<path d="M2.41699 21.2675H4.35039V22.2342H2.41699V21.2675Z" fill="black"/>
<path d="M11.1177 10.1504C11.1177 11.3931 11.4862 12.608 12.1766 13.6413C12.8671 14.6747 13.8485 15.48 14.9966 15.9556C16.1448 16.4312 17.4082 16.5557 18.6271 16.3132C19.846 16.0707 20.9656 15.4723 21.8444 14.5935C22.7232 13.7148 23.3216 12.5951 23.5641 11.3762C23.8065 10.1574 23.6821 8.89394 23.2065 7.74577C22.7309 6.5976 21.9255 5.61624 20.8922 4.92579C19.8589 4.23535 18.644 3.86682 17.4012 3.86682C15.7353 3.86874 14.1382 4.53137 12.9602 5.70935C11.7822 6.88733 11.1196 8.48447 11.1177 10.1504ZM22.7181 10.1504C22.7181 11.202 22.4063 12.2299 21.822 13.1043C21.2378 13.9786 20.4074 14.6601 19.4359 15.0625C18.4644 15.4649 17.3953 15.5702 16.364 15.3651C15.3326 15.1599 14.3852 14.6535 13.6416 13.91C12.8981 13.1664 12.3917 12.219 12.1865 11.1876C11.9814 10.1563 12.0867 9.08723 12.4891 8.11571C12.8915 7.14418 13.573 6.3138 14.4473 5.72957C15.3217 5.14535 16.3497 4.83352 17.4012 4.83352C18.8108 4.83519 20.1622 5.39589 21.159 6.39263C22.1557 7.38937 22.7164 8.74077 22.7181 10.1504Z" fill="black"/>
<path d="M28.5177 17.884H25.1342C25.006 17.884 24.8831 17.9349 24.7925 18.0255C24.7018 18.1162 24.6509 18.2391 24.6509 18.3673V18.8507H22.9592L21.6541 17.1106C21.6087 17.051 21.5503 17.0025 21.4832 16.969C21.4162 16.9355 21.3424 16.9178 21.2674 16.9173H21.1369C22.4166 16.2123 23.4701 15.1588 24.1751 13.8792C24.8802 12.5996 25.208 11.1463 25.1205 9.68797C25.033 8.22959 24.5337 6.82594 23.6806 5.63988C22.8275 4.45382 21.6555 3.53398 20.3007 2.98711V0.483351C20.3007 0.355158 20.2498 0.232216 20.1592 0.14157C20.0685 0.0509243 19.9456 0 19.8174 0H4.83351C4.70536 0.000954273 4.58249 0.0511405 4.49033 0.140172L0.140172 4.49033C0.0511405 4.58249 0.000954273 4.70536 0 4.83351V26.1009C0 26.2291 0.0509243 26.3521 0.14157 26.4427C0.232216 26.5334 0.355158 26.5843 0.483351 26.5843H13.1375C13.2378 26.866 13.4225 27.1099 13.6664 27.2828C13.9103 27.4558 14.2015 27.5494 14.5005 27.551H15.5349C15.652 28.0062 15.9313 28.4031 16.3203 28.667C16.7093 28.931 17.1813 29.0439 17.6476 28.9846C18.1139 28.9252 18.5426 28.6977 18.8531 28.3448C19.1636 27.9919 19.3346 27.5377 19.334 27.0676H21.7508C21.8555 27.0682 21.9574 27.0342 22.0408 26.971L23.8437 25.6176H24.6509V26.1009C24.6509 26.2291 24.7018 26.3521 24.7925 26.4427C24.8831 26.5334 25.006 26.5843 25.1342 26.5843H28.5177C28.6459 26.5843 28.7688 26.5334 28.8595 26.4427C28.9501 26.3521 29.001 26.2291 29.001 26.1009V18.3673C29.001 18.2391 28.9501 18.1162 28.8595 18.0255C28.7688 17.9349 28.6459 17.884 28.5177 17.884ZM24.1675 10.1504C24.1675 11.4887 23.7707 12.797 23.0271 13.9099C22.2835 15.0227 21.2267 15.89 19.9902 16.4022C18.7537 16.9143 17.3931 17.0484 16.0805 16.7872C14.7678 16.5261 13.5621 15.8817 12.6157 14.9353C11.6693 13.9889 11.0248 12.7832 10.7637 11.4705C10.5026 10.1579 10.6366 8.79727 11.1488 7.56078C11.661 6.32429 12.5283 5.26744 13.6411 4.52388C14.7539 3.78033 16.0623 3.38345 17.4006 3.38345C19.1947 3.38537 20.9148 4.09893 22.1834 5.36756C23.4521 6.63618 24.1656 8.35626 24.1675 10.1504ZM4.35016 1.64823V4.35016H1.64823L4.35016 1.64823ZM13.1375 25.6176H0.966701V5.31686H4.83351C4.9617 5.31686 5.08464 5.26593 5.17529 5.17529C5.26593 5.08464 5.31686 4.9617 5.31686 4.83351V0.966701H19.334V2.67293C18.7034 2.50399 18.0535 2.41787 17.4006 2.41675C15.9518 2.4193 14.5328 2.82834 13.3049 3.59736C12.077 4.36638 11.0896 5.46453 10.4549 6.76691H5.31686V7.73361H10.0585C9.9035 8.20523 9.79503 8.6909 9.73468 9.18366H5.31686V10.1504H9.66701C9.66914 10.637 9.71607 11.1224 9.80719 11.6004H5.31686V12.5671H10.0585C10.2274 13.0709 10.4459 13.5567 10.7111 14.0172H5.31686V14.9839H11.3732C12.1475 15.9474 13.1399 16.7129 14.2685 17.2169C14.0417 17.3713 13.8561 17.579 13.7281 17.8216C13.6 18.0643 13.5333 18.3346 13.5338 18.609C13.535 18.7162 13.5463 18.823 13.5677 18.928C13.3631 18.9926 13.1757 19.1023 13.0192 19.249C12.8628 19.3957 12.7413 19.5758 12.6638 19.7758C12.5863 19.9758 12.5547 20.1907 12.5715 20.4045C12.5882 20.6184 12.6528 20.8257 12.7605 21.0113C12.5533 21.1411 12.3826 21.3214 12.2642 21.5353C12.1458 21.7492 12.0837 21.9897 12.0837 22.2341C12.0837 22.4786 12.1458 22.719 12.2642 22.9329C12.3826 23.1468 12.5533 23.3272 12.7605 23.457C12.6347 23.6728 12.5681 23.9178 12.5671 24.1675C12.567 24.412 12.629 24.6525 12.7474 24.8664C12.8658 25.0804 13.0366 25.2607 13.2438 25.3904C13.2035 25.4638 13.168 25.5396 13.1375 25.6176ZM15.2255 20.3007H16.4339C16.4345 20.3652 16.4214 20.4292 16.3956 20.4883C16.3698 20.5474 16.3318 20.6005 16.2841 20.6439C16.2413 20.6891 16.1895 20.725 16.1321 20.7491C16.0747 20.7732 16.0128 20.7851 15.9506 20.7841H14.0172C13.889 20.7841 13.766 20.7332 13.6754 20.6425C13.5847 20.5519 13.5338 20.4289 13.5338 20.3007C13.5333 20.2362 13.5463 20.1723 13.5721 20.1132C13.5979 20.054 13.6359 20.001 13.6837 19.9575C13.7265 19.9123 13.7782 19.8765 13.8357 19.8523C13.8931 19.8282 13.9549 19.8163 14.0172 19.8174H14.0462C14.3602 20.1277 14.7841 20.3014 15.2255 20.3007ZM13.0505 22.2341C13.0505 22.1059 13.1014 21.983 13.192 21.8923C13.2827 21.8017 13.4056 21.7508 13.5338 21.7508H15.4672C15.5954 21.7508 15.7184 21.8017 15.809 21.8923C15.8996 21.983 15.9506 22.1059 15.9506 22.2341C15.9506 22.3623 15.8996 22.4853 15.809 22.5759C15.7184 22.6666 15.5954 22.7175 15.4672 22.7175H13.5338C13.4056 22.7175 13.2827 22.6666 13.192 22.5759C13.1014 22.4853 13.0505 22.3623 13.0505 22.2341ZM13.5338 24.1675C13.5338 24.0393 13.5847 23.9164 13.6754 23.8258C13.766 23.7351 13.889 23.6842 14.0172 23.6842H15.9506C16.0788 23.6842 16.2017 23.7351 16.2924 23.8258C16.383 23.9164 16.4339 24.0393 16.4339 24.1675C16.4339 24.2957 16.383 24.4187 16.2924 24.5093C16.2017 24.6 16.0788 24.6509 15.9506 24.6509H14.0172C13.889 24.6509 13.766 24.6 13.6754 24.5093C13.5847 24.4187 13.5338 24.2957 13.5338 24.1675ZM14.5005 26.5843C14.3723 26.5843 14.2494 26.5334 14.1587 26.4427C14.0681 26.3521 14.0172 26.2291 14.0172 26.1009C14.0172 25.9727 14.0681 25.8498 14.1587 25.7592C14.2494 25.6685 14.3723 25.6176 14.5005 25.6176H16.4339C16.5621 25.6176 16.6851 25.6685 16.7757 25.7592C16.8663 25.8498 16.9173 25.9727 16.9173 26.1009C16.9173 26.2291 16.8663 26.3521 16.7757 26.4427C16.6851 26.5334 16.5621 26.5843 16.4339 26.5843H14.5005ZM18.3673 27.0676C18.3681 27.2817 18.2975 27.4899 18.1668 27.6595C18.0361 27.829 17.8527 27.9502 17.6455 28.0039C17.4383 28.0577 17.2191 28.0409 17.0225 27.9563C16.8258 27.8716 16.663 27.7239 16.5596 27.5365C16.8615 27.5119 17.148 27.3929 17.3784 27.1962C17.6088 26.9996 17.7714 26.7354 17.8431 26.4411C17.9148 26.1468 17.8919 25.8374 17.7778 25.5568C17.6637 25.2762 17.464 25.0387 17.2073 24.8781C17.333 24.6623 17.3997 24.4172 17.4006 24.1675C17.4008 23.923 17.3387 23.6825 17.2204 23.4686C17.102 23.2547 16.9312 23.0744 16.7239 22.9447C16.8506 22.7293 16.9174 22.484 16.9174 22.2341C16.9174 21.9843 16.8506 21.739 16.7239 21.5236C16.8133 21.4689 16.896 21.404 16.9704 21.3303C17.1072 21.196 17.2157 21.0358 17.2896 20.859C17.3635 20.6822 17.4012 20.4924 17.4006 20.3007H17.7486L18.3673 20.6729V27.0676ZM24.6509 24.6509H23.6842C23.5795 24.6503 23.4776 24.6843 23.3942 24.7476L21.5913 26.1009H19.334V21.2529L20.0542 21.6831L20.5472 20.8517L18.1305 19.4017C18.0559 19.3574 17.9707 19.3341 17.884 19.334H15.2255C15.0333 19.334 14.8488 19.2576 14.7129 19.1217C14.5769 18.9857 14.5005 18.8013 14.5005 18.609C14.5005 18.4167 14.5769 18.2323 14.7129 18.0963C14.8488 17.9604 15.0333 17.884 15.2255 17.884H21.0258L22.3308 19.624C22.3762 19.6837 22.4346 19.7321 22.5017 19.7656C22.5687 19.7992 22.6425 19.8169 22.7175 19.8174H24.6509V24.6509ZM28.0343 25.6176H25.6176V18.8507H28.0343V25.6176Z" fill="black"/>
<path d="M14.6089 12.7535L19.4446 6.46702L20.2116 7.05701L15.3759 13.3435L14.6089 12.7535Z" fill="black"/>
<path d="M16.9177 8.21696C16.9177 7.93017 16.8326 7.64981 16.6733 7.41135C16.514 7.17289 16.2875 6.98704 16.0225 6.87729C15.7576 6.76754 15.466 6.73882 15.1847 6.79477C14.9035 6.85072 14.6451 6.98882 14.4423 7.19162C14.2395 7.39441 14.1014 7.65279 14.0454 7.93407C13.9895 8.21535 14.0182 8.50691 14.128 8.77187C14.2377 9.03683 14.4236 9.2633 14.662 9.42263C14.9005 9.58197 15.1808 9.66701 15.4676 9.66701C15.8522 9.66701 16.221 9.51424 16.493 9.2423C16.7649 8.97036 16.9177 8.60154 16.9177 8.21696ZM14.9843 8.21696C14.9843 8.12136 15.0126 8.02791 15.0657 7.94842C15.1189 7.86894 15.1943 7.80699 15.2827 7.7704C15.371 7.73382 15.4682 7.72425 15.5619 7.7429C15.6557 7.76155 15.7418 7.80758 15.8094 7.87518C15.877 7.94278 15.923 8.0289 15.9417 8.12266C15.9603 8.21642 15.9508 8.31361 15.9142 8.40193C15.8776 8.49025 15.8157 8.56574 15.7362 8.61885C15.6567 8.67196 15.5632 8.70031 15.4676 8.70031C15.3394 8.70031 15.2165 8.64939 15.1258 8.55874C15.0352 8.46809 14.9843 8.34515 14.9843 8.21696Z" fill="black"/>
<path d="M17.8843 11.6004C17.8843 11.8872 17.9693 12.1676 18.1287 12.406C18.288 12.6445 18.5145 12.8304 18.7794 12.9401C19.0444 13.0499 19.3359 13.0786 19.6172 13.0226C19.8985 12.9667 20.1569 12.8286 20.3597 12.6258C20.5625 12.423 20.7006 12.1646 20.7565 11.8833C20.8125 11.6021 20.7838 11.3105 20.674 11.0455C20.5643 10.7806 20.3784 10.5541 20.1399 10.3948C19.9015 10.2354 19.6211 10.1504 19.3343 10.1504C18.9498 10.1504 18.5809 10.3032 18.309 10.5751C18.0371 10.847 17.8843 11.2159 17.8843 11.6004ZM19.8177 11.6004C19.8177 11.696 19.7893 11.7895 19.7362 11.869C19.6831 11.9485 19.6076 12.0104 19.5193 12.047C19.431 12.0836 19.3338 12.0932 19.24 12.0745C19.1463 12.0559 19.0601 12.0098 18.9925 11.9422C18.925 11.8746 18.8789 11.7885 18.8603 11.6947C18.8416 11.601 18.8512 11.5038 18.8878 11.4155C18.9244 11.3272 18.9863 11.2517 19.0658 11.1986C19.1453 11.1454 19.2387 11.1171 19.3343 11.1171C19.4625 11.1171 19.5855 11.168 19.6761 11.2587C19.7668 11.3493 19.8177 11.4722 19.8177 11.6004Z" fill="black"/>
</svg>
