<svg viewBox="0 0 35 35" fill="none" xmlns="http://www.w3.org/2000/svg">
<path d="M16.2477 10.1547L15.2999 11.1025C14.9614 11.441 14.4198 11.441 14.149 11.1025L11.9826 8.93616C11.8472 8.80077 11.6441 8.66537 11.441 8.66537H7.51448C6.76979 8.66537 6.4313 9.54545 6.97289 10.087L11.6441 14.7582L12.3888 15.5029L14.4198 17.5338L15.1645 18.2785L16.7893 19.9033L17.534 20.648L19.5649 22.6789L20.3096 23.4236L23.0853 26.1992C23.2207 26.3346 23.4238 26.47 23.6269 26.47H27.5534C28.2981 26.47 28.6366 25.5899 28.095 25.0483L23.9654 20.9187C23.6269 20.5803 23.6269 20.0387 23.9654 19.7679L24.9132 18.8201C25.2517 18.4816 25.7933 18.4816 26.0641 18.8201L32.157 24.9129C32.5632 25.3191 33.2402 25.1837 33.511 24.7098C34.5265 22.5435 35.0004 20.1064 35.0004 17.5338C35.0004 13.1335 33.3756 9.13926 30.7353 6.09284C30.2614 5.55125 29.3136 5.88974 29.3136 6.63442V12.5919C29.3136 12.795 29.2459 12.9981 29.0428 13.1335L25.4548 16.7892L24.7101 17.5338L22.6791 19.5648L22.0021 20.3095L20.9189 21.3926C20.5804 21.7311 20.0388 21.7311 19.768 21.3926L18.8203 20.4449C18.4818 20.1064 18.4818 19.5648 18.8203 19.294L19.9034 18.2108L20.6481 17.4661L22.6791 15.4352L23.4238 14.6905L26.1995 11.9149C26.3349 11.7795 26.4703 11.5764 26.4703 11.3733V7.5145C26.4703 6.76982 25.5902 6.43133 25.0486 6.97292L20.3096 11.6441L19.6326 12.3211L17.6017 14.352L16.857 15.0967L15.7061 16.2476C15.3676 16.5861 14.826 16.5861 14.5552 16.2476L13.6074 15.2998C13.2689 14.9613 13.2689 14.4197 13.6074 14.1489L14.6906 13.0658L15.4353 12.3211L17.4663 10.2901L18.211 9.54545L24.9132 2.84332C25.3194 2.43714 25.184 1.76015 24.7101 1.48936C22.5437 0.541586 20.1065 0 17.534 0C13.1335 0 9.13926 1.62476 6.0928 4.26499C5.48351 4.73887 5.8897 5.68665 6.63439 5.68665H12.5919C12.795 5.68665 12.9981 5.75435 13.1335 5.95744L16.1123 8.93616C16.5185 9.27465 16.5185 9.81624 16.2477 10.1547Z" fill="#1B75BC"/>
<path d="M18.2788 25.5223L17.5341 24.7776L15.5031 22.7466L14.7584 22.0019L13.0659 20.3095L12.3213 19.6325L10.2903 17.6016L9.54559 16.8569L2.84337 10.1548C2.43717 9.74857 1.76018 9.88396 1.48938 10.3579C0.541594 12.5242 0 14.9613 0 17.5339C0 21.9342 1.62478 25.9284 4.26505 28.9749C4.73895 29.5164 5.68673 29.178 5.68673 28.4333V22.4081C5.68673 22.205 5.75443 22.0019 5.95753 21.8665L8.9363 18.8878C9.27479 18.5493 9.81639 18.5493 10.0872 18.8878L11.035 19.8356C11.3735 20.1741 11.3735 20.7157 11.035 20.9865L8.8686 23.0851C8.7332 23.2205 8.5978 23.4236 8.5978 23.6267V27.5532C8.5978 28.2979 9.47789 28.6364 10.0195 28.0948L14.1491 23.9652C14.4876 23.6267 15.0292 23.6267 15.3 23.9652L16.2478 24.913C16.5863 25.2515 16.5863 25.793 16.2478 26.0638L10.1549 32.1567C9.74869 32.5629 9.88409 33.2398 10.358 33.5106C12.5244 34.5261 14.9615 35 17.5341 35C21.9345 35 25.9288 33.3752 28.9753 30.735C29.5169 30.2611 29.1784 29.3133 28.4337 29.3133H22.4084C22.2053 29.3133 22.0022 29.2457 21.8668 29.0426L18.2788 25.5223Z" fill="#1B75BC"/>
</svg>
