<svg viewBox="0 0 25 25" fill="none" xmlns="http://www.w3.org/2000/svg">
<path d="M4.92955 21.5795C6.40193 21.5795 7.59554 20.3859 7.59554 18.9135C7.59554 17.4411 6.40193 16.2475 4.92955 16.2475C3.45716 16.2475 2.26355 17.4411 2.26355 18.9135C2.26355 20.3859 3.45716 21.5795 4.92955 21.5795Z" fill="#464B4E"/>
<path d="M22.0824 19.2154C23.3604 19.2154 24.3963 18.1794 24.3963 16.9015C24.3963 15.6235 23.3604 14.5876 22.0824 14.5876C20.8045 14.5876 19.7686 15.6235 19.7686 16.9015C19.7686 18.1794 20.8045 19.2154 22.0824 19.2154Z" fill="#464B4E"/>
<path d="M19.9698 7.54529C21.0255 7.54529 21.8813 6.68949 21.8813 5.63382C21.8813 4.57814 21.0255 3.72235 19.9698 3.72235C18.9141 3.72235 18.0583 4.57814 18.0583 5.63382C18.0583 6.68949 18.9141 7.54529 19.9698 7.54529Z" fill="#464B4E"/>
<path d="M2.82923 15.0719C4.39176 15.0719 5.65845 13.836 5.65845 12.3116C5.65845 10.7871 4.39176 9.55133 2.82923 9.55133C1.26669 9.55133 0 10.7871 0 12.3116C0 13.836 1.26669 15.0719 2.82923 15.0719Z" fill="#464B4E"/>
<path d="M10.9568 25C12.3773 25 13.5288 23.8779 13.5288 22.4937C13.5288 21.1095 12.3773 19.9874 10.9568 19.9874C9.5363 19.9874 8.38477 21.1095 8.38477 22.4937C8.38477 23.8779 9.5363 25 10.9568 25Z" fill="#464B4E"/>
<path d="M17.5668 23.9019C18.9163 23.9019 20.0102 22.8368 20.0102 21.5228C20.0102 20.2088 18.9163 19.1437 17.5668 19.1437C16.2174 19.1437 15.1234 20.2088 15.1234 21.5228C15.1234 22.8368 16.2174 23.9019 17.5668 23.9019Z" fill="#464B4E"/>
<path d="M5.88993 8.66149C7.52347 8.66149 8.84772 7.36886 8.84772 5.77432C8.84772 4.17978 7.52347 2.88715 5.88993 2.88715C4.25638 2.88715 2.93213 4.17978 2.93213 5.77432C2.93213 7.36886 4.25638 8.66149 5.88993 8.66149Z" fill="#464B4E"/>
<path d="M22.8138 13.0349C24.0212 13.0349 25 12.0742 25 10.8892C25 9.70418 24.0212 8.74353 22.8138 8.74353C21.6064 8.74353 20.6276 9.70418 20.6276 10.8892C20.6276 12.0742 21.6064 13.0349 22.8138 13.0349Z" fill="#464B4E"/>
<path d="M13.2294 6.23742C14.9518 6.23742 16.3481 4.84113 16.3481 3.11871C16.3481 1.39629 14.9518 0 13.2294 0C11.507 0 10.1107 1.39629 10.1107 3.11871C10.1107 4.84113 11.507 6.23742 13.2294 6.23742Z" fill="#464B4E"/>
</svg>
