<svg viewBox="0 0 37 55" fill="none" xmlns="http://www.w3.org/2000/svg">
<path d="M33 23.8334H5.50004C3.475 23.8334 1.83337 25.475 1.83337 27.5V51.3334C1.83337 53.3584 3.475 55 5.50004 55H33C35.0251 55 36.6667 53.3584 36.6667 51.3334V27.5C36.6667 25.475 35.0251 23.8334 33 23.8334Z" fill="#F7D881"/>
<path d="M5.50041 23.8333H10.0837V14.6667C10.0837 12.2355 11.0495 9.90394 12.7686 8.18485C14.4877 6.46577 16.8193 5.5 19.2504 5.5C21.6816 5.5 24.0131 6.46577 25.7322 8.18485C27.4513 9.90394 28.4171 12.2355 28.4171 14.6667V23.8333H33.0004C33.3101 23.8381 33.618 23.8812 33.9171 23.9617V14.6667C33.9171 10.7768 32.3718 7.0463 29.6213 4.29577C26.8708 1.54523 23.1402 0 19.2504 0C15.3606 0 11.63 1.54523 8.87951 4.29577C6.12897 7.0463 4.58374 10.7768 4.58374 14.6667V23.9617C4.88282 23.8812 5.19072 23.8381 5.50041 23.8333Z" fill="#C1C8D1"/>
<path d="M0 31.1666H11V47.6666H0V31.1666Z" fill="#F5B95B"/>
<path d="M0 35.75H11V37.5833H0V35.75Z" fill="#C1C8D1"/>
<path d="M0 41.25H11V43.0833H0V41.25Z" fill="#C1C8D1"/>
<path d="M21.0834 40.8375V33C21.0834 32.5137 20.8902 32.0474 20.5464 31.7036C20.2026 31.3598 19.7363 31.1666 19.25 31.1666C18.7638 31.1666 18.2975 31.3598 17.9537 31.7036C17.6099 32.0474 17.4167 32.5137 17.4167 33V40.8375C16.7177 41.241 16.1714 41.864 15.8625 42.6097C15.5536 43.3554 15.4994 44.1822 15.7083 44.9619C15.9172 45.7415 16.3776 46.4305 17.0179 46.9218C17.6583 47.4132 18.4429 47.6796 19.25 47.6796C20.0572 47.6796 20.8418 47.4132 21.4822 46.9218C22.1225 46.4305 22.5829 45.7415 22.7918 44.9619C23.0007 44.1822 22.9465 43.3554 22.6376 42.6097C22.3287 41.864 21.7824 41.241 21.0834 40.8375Z" fill="#C1C8D1"/>
</svg>
