<svg viewBox="0 0 29 20" fill="none" xmlns="http://www.w3.org/2000/svg">
<path d="M1.61111 3.22221C2.5009 3.22221 3.22221 2.5009 3.22221 1.61111C3.22221 0.721317 2.5009 0 1.61111 0C0.721317 0 0 0.721317 0 1.61111C0 2.5009 0.721317 3.22221 1.61111 3.22221Z" fill="#464B4E"/>
<path d="M1.61111 11.2777C2.5009 11.2777 3.22221 10.5564 3.22221 9.66659C3.22221 8.7768 2.5009 8.05548 1.61111 8.05548C0.721317 8.05548 0 8.7768 0 9.66659C0 10.5564 0.721317 11.2777 1.61111 11.2777Z" fill="#464B4E"/>
<path d="M1.61111 19.3334C2.5009 19.3334 3.22221 18.612 3.22221 17.7223C3.22221 16.8325 2.5009 16.1111 1.61111 16.1111C0.721317 16.1111 0 16.8325 0 17.7223C0 18.612 0.721317 19.3334 1.61111 19.3334Z" fill="#464B4E"/>
<path d="M27.4856 8.05548H7.95896C7.12256 8.05548 6.44452 8.73352 6.44452 9.56992V9.76325C6.44452 10.5997 7.12256 11.2777 7.95896 11.2777H27.4856C28.322 11.2777 29 10.5997 29 9.76325V9.56992C29 8.73352 28.322 8.05548 27.4856 8.05548Z" fill="#464B4E"/>
<path d="M27.4856 16.1111H7.95896C7.12256 16.1111 6.44452 16.7892 6.44452 17.6256V17.8189C6.44452 18.6553 7.12256 19.3334 7.95896 19.3334H27.4856C28.322 19.3334 29 18.6553 29 17.8189V17.6256C29 16.7892 28.322 16.1111 27.4856 16.1111Z" fill="#464B4E"/>
<path d="M27.4856 0H7.95896C7.12256 0 6.44452 0.678038 6.44452 1.51444V1.70777C6.44452 2.54418 7.12256 3.22221 7.95896 3.22221H27.4856C28.322 3.22221 29 2.54418 29 1.70777V1.51444C29 0.678038 28.322 0 27.4856 0Z" fill="#464B4E"/>
</svg>
