<svg viewBox="0 0 19 19" fill="none" xmlns="http://www.w3.org/2000/svg">
<path
    d="M17.4414 13.7676C17.8513 13.7676 18.1836 13.4353 18.1836 13.0254V9.61131C18.1836 8.38359 17.1847 7.38475 15.957 7.38475H14.5097V4.45312C14.5097 2.81615 13.178 1.48437 11.541 1.48437H9.77708C9.48989 0.603063 8.66885 0 7.73013 0H6.77961C5.84089 0 5.01985 0.603063 4.73266 1.48437H2.96874C1.33178 1.48437 0 2.81615 0 4.45312V16.0312C0 17.6682 1.33178 19 2.96874 19H6.23436C6.64427 19 6.97655 18.6677 6.97655 18.2578C6.97655 17.8479 6.64427 17.5156 6.23436 17.5156H2.96874C2.15026 17.5156 1.48437 16.8497 1.48437 16.0312V4.45312C1.48437 3.63463 2.15026 2.96874 2.96874 2.96874H3.04296V5.15819C3.04296 5.5681 3.37524 5.90038 3.78515 5.90038H10.7988C11.2087 5.90038 11.541 5.5681 11.541 5.15819V2.96874C12.3595 2.96874 13.0254 3.63463 13.0254 4.45312V7.38475H10.613C9.38546 7.38475 8.3867 8.38347 8.3867 9.61105V16.7737C8.3867 18.0013 9.38554 19 10.6136 19L15.957 18.9972C17.1847 18.9972 18.1836 17.9985 18.1836 16.771C18.1836 16.361 17.8513 16.0288 17.4414 16.0288C17.0315 16.0288 16.6992 16.361 16.6992 16.771C16.6992 17.18 16.3662 17.5128 15.9566 17.5128L10.6133 17.5156C10.204 17.5156 9.87107 17.1828 9.87107 16.7737V9.61105C9.87107 9.20196 10.2039 8.86912 10.613 8.86912H15.957C16.3662 8.86912 16.6992 9.20207 16.6992 9.61131V13.0254C16.6992 13.4353 17.0315 13.7676 17.4414 13.7676ZM10.0566 4.41601H4.52734V2.96874H5.30663C5.64718 2.96874 5.94406 2.73696 6.02666 2.40658L6.13049 1.99117C6.20508 1.69278 6.47201 1.48437 6.77961 1.48437H7.73013C8.03773 1.48437 8.30462 1.69278 8.37924 1.99117L8.48308 2.40658C8.56568 2.73696 8.86256 2.96874 9.20311 2.96874H10.0566V4.41601Z"
    fill="#464B4E"
  />
<path
    d="M14.4725 10.3535H12.0975C11.6876 10.3535 11.3553 10.6858 11.3553 11.0957C11.3553 11.5056 11.6876 11.8379 12.0975 11.8379H14.4725C14.8824 11.8379 15.2147 11.5056 15.2147 11.0957C15.2147 10.6858 14.8825 10.3535 14.4725 10.3535Z"
    fill="#464B4E"
  />
<path
    d="M14.4725 12.9512H12.0975C11.6876 12.9512 11.3553 13.2834 11.3553 13.6934C11.3553 14.1033 11.6876 14.4355 12.0975 14.4355H14.4725C14.8824 14.4355 15.2147 14.1033 15.2147 13.6934C15.2147 13.2834 14.8825 12.9512 14.4725 12.9512Z"
    fill="#464B4E"
  />
</svg>
