<svg viewBox="0 0 21 17" fill="none" xmlns="http://www.w3.org/2000/svg">
<path d="M19.3182 1.54545H8.5C8.5 0.693136 7.80686 0 6.95455 0H5.40909C4.55677 0 3.86364 0.693136 3.86364 1.54545H0.772727C0.346182 1.54545 0 1.89086 0 2.31818C0 2.7455 0.346182 3.09091 0.772727 3.09091H3.86364C3.86364 3.94323 4.55677 4.63636 5.40909 4.63636H6.95455C7.80686 4.63636 8.5 3.94323 8.5 3.09091H19.3182C19.7447 3.09091 20.0909 2.7455 20.0909 2.31818C20.0909 1.89086 19.7447 1.54545 19.3182 1.54545ZM5.40909 3.09091V1.54545H6.95455L6.95532 2.31509C6.95532 2.31664 6.95455 2.31741 6.95455 2.31818C6.95455 2.31895 6.95532 2.31973 6.95532 2.32127V3.09091H5.40909Z" fill="#050505"/>
<path d="M19.3182 7.7271H14.6818C14.6818 6.87478 13.9887 6.18164 13.1364 6.18164H11.5909C10.7386 6.18164 10.0455 6.87478 10.0455 7.7271H0.772727C0.346182 7.7271 0 8.0725 0 8.49982C0 8.92714 0.346182 9.27255 0.772727 9.27255H10.0455C10.0455 10.1249 10.7386 10.818 11.5909 10.818H13.1364C13.9887 10.818 14.6818 10.1249 14.6818 9.27255H19.3182C19.7447 9.27255 20.0909 8.92714 20.0909 8.49982C20.0909 8.0725 19.7447 7.7271 19.3182 7.7271ZM11.5909 9.27255V7.7271H13.1364L13.1371 8.49673C13.1371 8.49828 13.1364 8.49905 13.1364 8.49982C13.1364 8.5006 13.1371 8.50137 13.1371 8.50291V9.27255H11.5909Z" fill="#050505"/>
<path d="M19.3182 13.9092H8.5C8.5 13.0569 7.80686 12.3638 6.95455 12.3638H5.40909C4.55677 12.3638 3.86364 13.0569 3.86364 13.9092H0.772727C0.346182 13.9092 0 14.2546 0 14.682C0 15.1093 0.346182 15.4547 0.772727 15.4547H3.86364C3.86364 16.307 4.55677 17.0001 5.40909 17.0001H6.95455C7.80686 17.0001 8.5 16.307 8.5 15.4547H19.3182C19.7447 15.4547 20.0909 15.1093 20.0909 14.682C20.0909 14.2546 19.7447 13.9092 19.3182 13.9092ZM5.40909 15.4547V13.9092H6.95455L6.95532 14.6789C6.95532 14.6804 6.95455 14.6812 6.95455 14.682C6.95455 14.6827 6.95532 14.6835 6.95532 14.685V15.4547H5.40909Z" fill="#050505"/>
</svg>
