<svg viewBox="0 0 50 46" fill="none" xmlns="http://www.w3.org/2000/svg">
<path d="M10.4168 22.9169C13.2877 22.9169 15.6252 20.5794 15.6252 17.7085C15.6252 14.8377 13.2877 12.5002 10.4168 12.5002C7.546 12.5002 5.2085 14.8377 5.2085 17.7085C5.2085 20.5794 7.546 22.9169 10.4168 22.9169Z" fill="#2196F3"/>
<path d="M15.1042 25.0002H5.72917C2.56875 25.0002 0 27.5689 0 30.7294V31.771C0 32.6335 0.7 33.3335 1.5625 33.3335H19.2708C20.1333 33.3335 20.8333 32.6335 20.8333 31.771V30.7294C20.8333 27.5689 18.2646 25.0002 15.1042 25.0002Z" fill="#2196F3"/>
<path d="M10.4168 12.5002C7.546 12.5002 5.2085 14.8377 5.2085 17.7085C5.2085 20.5794 7.546 22.9169 10.4168 22.9169V12.5002Z" fill="#1D83D4"/>
<path d="M10.4167 25.0002H5.72917C2.56875 25.0002 0 27.5689 0 30.7294V31.771C0 32.6335 0.7 33.3335 1.5625 33.3335H10.4167V25.0002Z" fill="#1D83D4"/>
<path d="M40.2291 8.87519C39.8645 8.87519 39.4958 8.7481 39.1999 8.48769C35.2562 5.02935 30.2124 3.12518 24.9999 3.12518C20.0874 3.12518 15.2833 4.8481 11.4708 7.97935C10.802 8.52727 9.8166 8.42935 9.27077 7.76269C8.72285 7.09602 8.82077 6.1106 9.48744 5.56269C13.8562 1.97518 19.3666 0.000183105 24.9999 0.000183105C30.9708 0.000183105 36.7458 2.17935 41.2604 6.13769C41.9083 6.70644 41.9729 7.69394 41.4041 8.34394C41.0958 8.69394 40.6624 8.87519 40.2291 8.87519Z" fill="#607D8B"/>
<path d="M15.1043 8.3335H9.896C9.0335 8.3335 8.3335 7.6335 8.3335 6.771V1.56266C8.3335 0.93141 8.71475 0.360577 9.29808 0.11891C9.88141 -0.122757 10.5543 0.0105765 11.0002 0.458493L16.2085 5.66683C16.6543 6.11266 16.7897 6.78558 16.5481 7.36891C16.3064 7.95225 15.7356 8.3335 15.1043 8.3335Z" fill="#607D8B"/>
<path d="M25.0001 0.000183105C20.9626 0.000183105 16.9896 1.01477 13.4521 2.9106L14.6146 4.0731C18.4647 2.29602 22.0126 1.62102 25.1813 1.62102C35.1813 1.62102 41.4022 8.34185 41.4022 8.34185C41.9709 7.69185 41.9063 6.70435 41.2584 6.1356C36.7459 2.17935 30.9709 0.000183105 25.0001 0.000183105Z" fill="#546D79"/>
<path d="M9.89391 0.000183105C9.69391 0.000183105 9.48975 0.0397665 9.29808 0.118933C8.71475 0.3606 8.3335 0.931433 8.3335 1.56268V6.77102C8.3335 7.09185 8.43141 7.39185 8.596 7.63977C10.671 6.13768 12.6814 4.96685 14.6147 4.0731L13.4522 2.9106L11.0002 0.458517C10.7022 0.158517 10.3022 0.000183105 9.89391 0.000183105Z" fill="#546D79"/>
<path d="M9.89572 36.9585C10.2603 36.9585 10.6291 37.0856 10.9249 37.346C14.8686 40.8043 19.9103 42.7085 25.1228 42.7085C30.0353 42.7085 34.8395 40.9856 38.652 37.8543C39.3207 37.3043 40.3041 37.4022 40.852 38.071C41.3999 38.7377 41.302 39.7231 40.6353 40.271C36.2687 43.8585 30.7582 45.8335 25.1249 45.8335C19.1541 45.8335 13.3791 43.6543 8.86447 39.696C8.21656 39.1272 8.15197 38.1397 8.72072 37.4897C9.02906 37.1397 9.46239 36.9585 9.89572 36.9585Z" fill="#607D8B"/>
<path d="M35.0207 37.5002H40.229C41.0915 37.5002 41.7915 38.2002 41.7915 39.0627V44.271C41.7915 44.9023 41.4103 45.4731 40.827 45.7148C40.2436 45.9564 39.5707 45.8231 39.1249 45.3752L33.9165 40.1669C33.4707 39.721 33.3353 39.0481 33.5769 38.4648C33.8186 37.8814 34.3894 37.5002 35.0207 37.5002Z" fill="#607D8B"/>
<path d="M25.1248 45.8336C29.1623 45.8336 33.1352 44.819 36.6727 42.9231L35.5102 41.7606C31.6602 43.5377 28.1123 44.2127 24.9435 44.2127C14.9435 44.2127 8.72268 37.4919 8.72268 37.4919C8.15393 38.1419 8.21851 39.1294 8.86643 39.6981C13.3789 43.6544 19.1539 45.8336 25.1248 45.8336Z" fill="#546D79"/>
<path d="M40.2314 45.8336C40.4335 45.8336 40.6356 45.794 40.8294 45.7148C41.4127 45.4731 41.794 44.9023 41.794 44.2711V39.0627C41.794 38.7419 41.696 38.4419 41.5314 38.194C39.4564 39.6961 37.446 40.8669 35.5127 41.7606L36.6752 42.9231L39.1273 45.3752C39.4231 45.6752 39.8231 45.8336 40.2314 45.8336Z" fill="#546D79"/>
<path d="M39.5833 22.9169C42.4542 22.9169 44.7917 20.5794 44.7917 17.7085C44.7917 14.8377 42.4542 12.5002 39.5833 12.5002C36.7125 12.5002 34.375 14.8377 34.375 17.7085C34.375 20.5794 36.7125 22.9169 39.5833 22.9169Z" fill="#4CAF50"/>
<path d="M44.2707 25.0002H34.8957C31.7353 25.0002 29.1665 27.5689 29.1665 30.7294V31.771C29.1665 32.6335 29.8665 33.3335 30.729 33.3335H48.4373C49.2998 33.3335 49.9998 32.6335 49.9998 31.771V30.7294C49.9998 27.5689 47.4311 25.0002 44.2707 25.0002Z" fill="#4CAF50"/>
<path d="M39.5838 12.5002C36.713 12.5002 34.3755 14.8377 34.3755 17.7085C34.3755 20.5794 36.713 22.9169 39.5838 22.9169V12.5002Z" fill="#429846"/>
<path d="M39.5837 25.0002H34.8962C31.7357 25.0002 29.167 27.5689 29.167 30.7294V31.771C29.167 32.6335 29.867 33.3335 30.7295 33.3335H39.5837V25.0002Z" fill="#429846"/>
</svg>
