<svg viewBox="0 0 35 35" fill="none" xmlns="http://www.w3.org/2000/svg">
<path d="M29.4234 21.854C28.6272 21.3757 27.5953 21.6067 27.079 22.379L24.5001 26.25V18.6666C24.5001 17.7001 23.7167 16.9166 22.7501 16.9166C21.7835 16.9166 21.0001 17.7001 21.0001 18.6666C21.0001 17.7001 20.2166 16.9166 19.2501 16.9166C18.2835 16.9166 17.5 17.7001 17.5 18.6666C17.5 17.7001 16.7166 16.9166 15.75 16.9166C14.7835 16.9166 14 17.7001 14 18.6666C14 17.7001 13.2166 16.9166 12.25 16.9166C11.2834 16.9166 10.5 17.7001 10.5 18.6666V30.9167C10.5 32.8498 12.0668 34.4167 14 34.4167H21.2742C22.9133 34.4167 24.4324 33.5568 25.2758 32.151L30.0207 24.2427C30.5154 23.4179 30.2477 22.3486 29.4234 21.854Z" fill="#FFB782"/>
<path d="M18.0834 30.9168H16.9167C16.9202 28.0188 19.2687 25.6702 22.1668 25.6667H24.5001V26.8334H22.1668C19.9128 26.8358 18.0858 28.6628 18.0834 30.9168Z" fill="#F2A46F"/>
<path d="M24.5 21.5834H10.5V22.7501H24.5V21.5834Z" fill="#F5AB76"/>
<path d="M14.5834 18.6667H13.4167V24.5001H14.5834V18.6667Z" fill="#F2A46F"/>
<path d="M18.0834 18.6667H16.9167V24.5001H18.0834V18.6667Z" fill="#F2A46F"/>
<path d="M21.5834 18.6667H20.4167V24.5001H21.5834V18.6667Z" fill="#F2A46F"/>
<path d="M34.4168 0.583374H0.583374V8.75006H34.4168V0.583374Z" fill="#4398D1"/>
<path d="M30.3334 2.91663H4.66664C3.70007 2.91663 2.91663 3.70007 2.91663 4.66664C2.91663 5.63321 3.70007 6.41665 4.66664 6.41665H30.3334C31.3 6.41665 32.0834 5.63321 32.0834 4.66664C32.0834 3.70007 31.3 2.91663 30.3334 2.91663Z" fill="#126099"/>
<path d="M29.7501 7.58337H5.25V21.5834H29.7501V7.58337Z" fill="#628A27"/>
<path d="M29.7501 5.25H5.25V19.25H29.7501V5.25Z" fill="#6B962A"/>
<path d="M29.7501 2.91663H5.25V16.9167H29.7501V2.91663Z" fill="#88B337"/>
<path d="M25.6668 14.5834H9.33339C9.33339 13.6168 8.54995 12.8334 7.58337 12.8334V7.00001C8.54995 7.00001 9.33339 6.21657 9.33339 5.25H25.6668C25.6668 6.21657 26.4502 7.00001 27.4168 7.00001V12.8334C26.4501 12.8334 25.6668 13.6168 25.6668 14.5834Z" fill="#6B962A"/>
<path d="M11.0834 9.33337H9.91675V10.5001H11.0834V9.33337Z" fill="#88B337"/>
<path d="M25.0834 9.33337H23.9167V10.5001H25.0834V9.33337Z" fill="#88B337"/>
<path d="M5.25009 25.6667C2.9961 25.6644 1.1691 23.8374 1.16675 21.5834H2.33344C2.33516 23.1934 3.6401 24.4983 5.25009 24.5V25.6667Z" fill="#DADDDF"/>
<path d="M17.5001 14.5833C19.7553 14.5833 21.5834 12.494 21.5834 9.91666C21.5834 7.33933 19.7553 5.25 17.5001 5.25C15.2449 5.25 13.4167 7.33933 13.4167 9.91666C13.4167 12.494 15.2449 14.5833 17.5001 14.5833Z" fill="#88B337"/>
<path d="M29.7501 2.91663H5.25V5.24996H29.7501V2.91663Z" fill="#80A834"/>
<path d="M30.2751 21.829C30.3124 21.7526 30.3329 21.6686 30.3335 21.5835V7.00003C31.622 7.00003 32.6668 5.95527 32.6668 4.6667C32.6668 3.37813 31.622 2.33337 30.3335 2.33337H4.6667C3.37813 2.33337 2.33337 3.37813 2.33337 4.6667C2.33337 5.95527 3.37813 7.00003 4.6667 7.00003V21.5834C4.6667 21.9054 4.92802 22.1667 5.25002 22.1667H9.91668V30.9167C9.91904 33.1707 11.746 34.9977 14 35.0001H21.2748C23.1176 34.9948 24.8238 34.0288 25.7764 32.4514L30.5212 24.5432C31.0446 23.6828 30.9448 22.5815 30.2751 21.829ZM25.0834 22.1668H26.5214L25.0834 24.3251V22.1668ZM5.8334 17.5001H29.1668V18.6668H5.8334V17.5001ZM31.5002 4.6667C31.5002 5.31128 30.9781 5.8334 30.3335 5.8334V3.50007C30.978 3.50007 31.5002 4.02213 31.5002 4.6667ZM29.1668 3.50007V16.3334H5.8334V3.50007H29.1668ZM3.50007 4.6667C3.50007 4.02213 4.02213 3.50001 4.66676 3.50001V5.83334C4.02213 5.8334 3.50007 5.31133 3.50007 4.6667ZM5.8334 21.0001V19.8334H29.1668V21.0001H5.8334ZM29.5209 23.943L24.776 31.8501C24.0357 33.0768 22.7086 33.8288 21.276 33.8334H14.0001C12.3901 33.8317 11.0852 32.5268 11.0834 30.9168V22.1668H13.4168V24.5001H14.5835V22.1668H16.9168V24.5001H18.0834V22.1668H20.4168V24.5001H21.5835V22.1668H23.9168V25.6668H22.1668C19.2688 25.6703 16.9202 28.0188 16.9167 30.9168H18.0834C18.0858 28.6628 19.9128 26.8358 22.1668 26.8335H24.5001C24.6949 26.8341 24.8769 26.7372 24.9854 26.5757L27.5643 22.707C27.919 22.175 28.6377 22.0309 29.1697 22.385C29.6842 22.728 29.8388 23.4146 29.5209 23.9448V23.943Z" fill="black"/>
<path d="M34.4167 0H0.583318C0.261319 0 0 0.261319 0 0.583318V8.75C0 9.072 0.261319 9.33332 0.583318 9.33332H3.49997V8.16663H1.16669V1.16669H33.8334V8.16668H31.5001V9.33338H34.4167C34.7387 9.33338 35.0001 9.07206 35.0001 8.75006V0.583318C35.0001 0.261319 34.7387 0 34.4167 0Z" fill="black"/>
<path d="M7.58332 13.4167C8.22789 13.4167 8.75001 13.9388 8.75001 14.5834C8.75001 14.9054 9.01133 15.1667 9.33333 15.1667H25.6667C25.9887 15.1667 26.25 14.9054 26.25 14.5834C26.25 13.9388 26.7721 13.4167 27.4167 13.4167C27.7387 13.4167 28 13.1554 28 12.8334V6.99996C28 6.67796 27.7387 6.41664 27.4167 6.41664C26.7721 6.41664 26.25 5.89457 26.25 5.24994C26.25 4.92794 25.9887 4.66663 25.6667 4.66663H9.33333C9.01133 4.66663 8.75001 4.92794 8.75001 5.24994C8.75001 5.89452 8.22795 6.41664 7.58332 6.41664C7.26132 6.41664 7 6.67796 7 6.99996V12.8333C6.99994 13.1553 7.26132 13.4167 7.58332 13.4167ZM14 9.91666C14 7.66497 15.5697 5.83332 17.5 5.83332C19.4303 5.83332 21 7.66497 21 9.91666C21 12.1684 19.4303 14 17.5 14C15.5697 14 14 12.1684 14 9.91666ZM25.1569 5.83332C25.3709 6.65465 26.012 7.29572 26.8334 7.50985V12.3235C26.0121 12.5376 25.371 13.1787 25.1569 14.0001H20.4266C21.5536 12.9431 22.1853 11.4614 22.1667 9.91672C22.1853 8.37205 21.5536 6.89037 20.4266 5.83338H25.1569V5.83332ZM8.16664 7.50979C8.98797 7.29572 9.62904 6.65465 9.84317 5.83326H14.5734C13.4464 6.89025 12.8147 8.37194 12.8334 9.9166C12.8147 11.4613 13.4465 12.943 14.5734 13.9999H9.84317C9.62909 13.1786 8.98802 12.5375 8.16664 12.3234V7.50979Z" fill="black"/>
<path d="M11.0834 9.33337H9.91675V10.5001H11.0834V9.33337Z" fill="black"/>
<path d="M25.0834 9.33337H23.9167V10.5001H25.0834V9.33337Z" fill="black"/>
<path d="M2.33338 21.5834H1.16675C1.1691 23.8374 2.9961 25.6644 5.25009 25.6667V24.5C3.64004 24.4983 2.33516 23.1934 2.33338 21.5834Z" fill="black"/>
</svg>
