<svg viewBox="0 0 25 25" fill="none" xmlns="http://www.w3.org/2000/svg">
<path d="M12.5 0C5.60722 0 0 5.60722 0 12.5C0 19.3928 5.60722 25 12.5 25C19.3928 25 25 19.3928 25 12.5C25 5.60722 19.3928 0 12.5 0Z" fill="#2196F3"/>
<path d="M18.8355 9.85117L12.0646 16.6219C11.8615 16.825 11.5949 16.9272 11.3282 16.9272C11.0616 16.9272 10.7949 16.825 10.5918 16.6219L7.20644 13.2365C6.79903 12.8293 6.79903 12.1709 7.20644 11.7637C7.61366 11.3563 8.27188 11.3563 8.67929 11.7637L11.3282 14.4126L17.3627 8.37831C17.7699 7.9709 18.4281 7.9709 18.8355 8.37831C19.2428 8.78553 19.2428 9.44376 18.8355 9.85117Z" fill="#FAFAFA"/>
</svg>
