<svg width="23" height="23" viewBox="0 0 23 23" fill="none" xmlns="http://www.w3.org/2000/svg">
<path d="M11.365 0C5.09809 0 0 5.09809 0 11.365C0 17.6319 5.09809 22.73 11.365 22.73C17.6319 22.73 22.73 17.6319 22.73 11.365C22.73 5.09809 17.6319 0 11.365 0Z" fill="#2196F3"/>
<path d="M17.1252 8.9566L10.9691 15.1125C10.7844 15.2972 10.5419 15.3902 10.2995 15.3902C10.0571 15.3902 9.81463 15.2972 9.62995 15.1125L6.55198 12.0346C6.18157 11.6643 6.18157 11.0657 6.55198 10.6954C6.92223 10.325 7.52069 10.325 7.8911 10.6954L10.2995 13.1038L15.786 7.61748C16.1563 7.24706 16.7547 7.24706 17.1252 7.61748C17.4954 7.98772 17.4954 8.58618 17.1252 8.9566Z" fill="#FAFAFA"/>
</svg>
