<svg width="22" height="19" viewBox="0 0 22 19" fill="none" xmlns="http://www.w3.org/2000/svg">
<path d="M21.0833 10.097H0.916667C0.410665 10.097 0 9.62908 0 9.05251C0 8.47593 0.410665 8.008 0.916667 8.008H21.0833C21.5893 8.008 22 8.47593 22 9.05251C22 9.62908 21.5893 10.097 21.0833 10.097Z" fill="#334480"/>
<path d="M21.0833 2.08902H0.916667C0.410665 2.08902 0 1.62108 0 1.04451C0 0.467939 0.410665 0 0.916667 0H21.0833C21.5893 0 22 0.467939 22 1.04451C22 1.62108 21.5893 2.08902 21.0833 2.08902Z" fill="#334480"/>
<path d="M21.0833 18.1048H0.916667C0.410665 18.1048 0 17.6368 0 17.0603C0 16.4837 0.410665 16.0157 0.916667 16.0157H21.0833C21.5893 16.0157 22 16.4837 22 17.0603C22 17.6368 21.5893 18.1048 21.0833 18.1048Z" fill="#334480"/>
</svg>
