<svg width="14" height="14" viewBox="0 0 14 14" fill="none" xmlns="http://www.w3.org/2000/svg">
<path d="M8.26911 7L13.7369 1.53217C14.0876 1.18154 14.0878 0.6138 13.7369 0.263088C13.3862 -0.0876505 12.8186 -0.0877325 12.4678 0.263061L7 5.73089L1.53217 0.263088C1.18154 -0.0876232 0.613776 -0.0877325 0.263064 0.263034C-0.0876744 0.613745 -0.0877018 1.1814 0.263064 1.53214L5.73084 7L0.263037 12.4678C-0.0868815 12.8177 -0.0868815 13.387 0.263037 13.7369C0.613721 14.0876 1.18143 14.0877 1.53214 13.7369L6.99994 8.26905L12.4677 13.7368C12.8184 14.0876 13.3861 14.0876 13.7368 13.7369C14.0876 13.3862 14.0876 12.8185 13.7369 12.4677L8.26911 7Z" fill="#1F304F"/>
</svg>
