<svg width="194" height="50" viewBox="0 0 194 50" fill="none" xmlns="http://www.w3.org/2000/svg">
<path d="M18.3498 36.5083C17.0317 37.4147 16.223 38.6391 15.684 40.0882C14.7731 42.5735 14.8413 45.1266 15.2796 47.6959C15.3803 48.289 15.5107 48.8759 15.6321 49.4979H6.09733L6.552 46.0869L6.36541 46.0397C5.87668 46.9317 5.35981 47.8066 4.90811 48.721C4.61187 49.3285 4.24015 49.6371 3.57517 49.5325C3.16049 49.4677 2.72951 49.5198 2.18894 49.5198C3.7055 47.7104 4.55116 45.6554 5.16875 43.4848C5.27796 43.0928 5.28868 42.677 5.19983 42.2793C4.6563 40.0519 5.00733 38.0712 6.40984 36.2789C6.63644 35.9894 6.53572 35.4072 6.58606 34.9611L6.36835 34.8551C6.15361 35.1462 5.84259 35.4056 5.74192 35.7363C5.37758 36.9259 4.9777 38.1203 4.78516 39.3463C4.23274 42.8377 2.90723 45.9731 1.18481 48.9569C0.901938 49.4454 0.604253 49.6305 0 49.4489C2.82874 45.0098 4.15573 40.0598 4.67705 34.64C3.75734 35.5891 3.53518 36.7756 3.88471 38.3971C3.20047 38.3844 2.75321 37.9811 2.40369 37.4385C1.58024 36.1476 1.60542 34.7143 1.86312 33.2636C2.21412 31.3131 3.38856 29.9035 4.63704 28.5509C5.61455 27.4894 6.58015 26.4137 7.17257 25.0358C7.3473 24.6277 7.47913 24.1974 7.65833 23.699L5.90627 24.9852C5.8885 24.827 5.86929 24.7795 5.88259 24.7653C7.01408 23.4997 7.47616 21.9589 7.4495 20.2345C7.43619 19.3407 7.65242 18.5466 8.23298 17.8695C8.27815 17.791 8.30673 17.7029 8.31671 17.6113C8.32669 17.5198 8.3178 17.427 8.29071 17.3395C8.14189 16.9274 8.09042 16.4825 8.14075 16.044C8.19113 15.6056 8.34183 15.1872 8.57954 14.8258C8.6603 14.6446 8.72429 14.4555 8.77055 14.261C9.06679 13.47 9.25189 12.6047 9.68289 11.9118C10.6737 10.3124 12.442 10.0577 13.8964 11.1841C15.8246 9.71601 18.2298 10.6035 19.0029 13.7675C19.1327 14.26 19.295 14.7422 19.4887 15.2102C19.8205 16.055 19.8974 16.9155 19.3673 17.6591C18.9881 18.1874 19.0251 18.6731 19.2532 19.1651C19.4634 19.6351 19.7407 20.0674 20.0752 20.4465C20.5802 20.9971 21.1608 21.4685 21.7665 22.0285C22.2508 21.2043 22.664 20.3753 23.1868 19.6365C24.5626 17.6812 25.0751 15.5076 25.1832 13.0777C25.2868 10.8123 25.7564 8.56119 26.1147 6.31476C26.2629 5.43206 26.02 4.73279 25.5505 4.03674C24.9581 3.15242 24.2516 2.65252 23.1986 2.88665C22.8328 2.96733 22.4581 3.01479 22.0893 3.07649C22.2537 3.44983 22.3781 3.85323 22.5914 4.18388C23.2164 5.17259 23.8977 6.12178 24.5167 7.11999C24.6883 7.41237 24.7639 7.75749 24.7315 8.10082C24.6057 9.07535 24.1486 9.96637 23.4472 10.604C22.7459 11.2416 21.8494 11.5812 20.9287 11.5582C20.0081 11.5351 19.1275 11.1509 18.4549 10.4789C17.7824 9.80683 17.3648 8.89388 17.282 7.91414C17.2745 7.64846 17.3471 7.3872 17.4893 7.16905C18.2298 6.00894 18.9871 4.86253 19.7612 3.72984C19.9611 3.4356 20.0382 3.2157 19.8456 2.85185C19.7104 2.5804 19.6675 2.26728 19.7242 1.96583C19.7809 1.66438 19.9337 1.39326 20.1566 1.19869C20.6098 0.785798 21.2185 0.776304 21.7472 1.08479C22.0605 1.26681 22.4052 1.37877 22.7602 1.41384C23.3645 1.46604 23.9762 1.40593 24.5834 1.43599C25.0277 1.45813 25.1758 1.20185 25.2395 0.814274C25.3979 -0.125417 25.5075 -0.00202392 26.3502 0.0137957C27.2966 0.0311972 27.9008 0.856985 28.788 0.863314C28.8274 0.865778 28.8647 0.883168 28.8932 0.912353C29.9165 2.01182 31.1872 1.17813 32.3232 1.40277C32.418 1.42175 32.5468 1.25722 32.6564 1.17496C33.2295 0.747827 33.856 0.755741 34.3359 1.19711C34.567 1.39733 34.7238 1.67897 34.7781 1.99151C34.8323 2.30405 34.7806 2.62701 34.6321 2.90247C34.4692 3.21887 34.5284 3.41977 34.7047 3.68238C35.4748 4.81823 36.2434 5.95725 36.9765 7.12156C37.1447 7.39224 37.2235 7.71521 37.2001 8.03911C37.0844 8.99775 36.6476 9.87918 35.9704 10.5204C35.2933 11.1615 34.4216 11.5191 33.5168 11.5268C32.6119 11.5345 31.7351 11.1919 31.0484 10.5623C30.3618 9.9328 29.9118 9.05894 29.7818 8.1024C29.7457 7.75972 29.8204 7.41421 29.9935 7.12318C30.7341 5.93825 31.5249 4.79136 32.2861 3.62385C32.3765 3.48464 32.492 3.2331 32.4342 3.14926C32.3763 3.07442 32.3046 3.01307 32.2236 2.96899C32.1426 2.92491 32.054 2.89904 31.9633 2.89298C31.125 2.86767 30.2853 2.88191 29.5655 2.88191C28.6932 4.96219 28.7006 7.04724 28.8502 9.17182C29.1005 12.7344 28.5999 16.21 27.8135 19.6761C27.2329 22.2072 26.5043 24.6672 25.4098 26.9943C25.0499 27.7568 24.5745 28.4592 24.0872 29.3008C24.4249 29.6172 24.7803 29.9937 25.1669 30.3243C25.6394 30.7309 26.1636 31.0726 26.6198 31.4997C27.5884 32.4062 27.6565 33.5563 26.916 34.5751C26.7945 33.9423 26.8493 33.0706 26.4717 32.5739C26.094 32.0772 25.272 31.8873 24.4886 31.4871C25.5801 33.569 26.1799 35.5259 24.9018 37.5302C24.1006 38.7847 22.8565 39.1802 21.614 39.2166C21.6584 38.704 21.8183 38.2025 21.7147 37.7738C21.4658 36.7519 20.3625 36.4829 19.6738 37.2423C18.8815 38.1171 18.6815 39.264 18.5275 40.4062C18.1676 43.0703 18.6934 46.6787 20.6009 49.5027C20.0085 49.5027 19.4739 49.539 18.9451 49.4804C18.7896 49.4629 18.6267 49.202 18.5216 49.0186C16.2067 44.9323 16.2482 40.8049 18.3498 36.5083ZM11.854 28.6142C11.823 29.9937 11.0306 30.8385 10.1553 31.5994C9.1974 32.439 8.43664 33.5062 7.93381 34.7159C7.88334 34.8582 7.84224 35.0041 7.81086 35.1525C8.80316 34.8582 9.76583 34.6463 10.6751 34.2824C11.6911 33.8758 12.7293 33.4471 13.6372 32.8207C14.7805 32.0297 15.3655 30.7483 15.7299 29.3578L13.3277 31.0109L13.1914 30.8337C14.6532 28.9955 15.3537 26.8345 15.6662 24.5802H12.3472C12.0051 26.0293 11.9488 27.4958 12.9989 28.997L11.854 28.6142ZM23.1305 25.4867C24.1109 23.775 25.1076 22.0316 26.1073 20.2899C26.5116 19.5843 26.6227 18.8123 26.6005 17.9992C26.5813 17.2683 26.5146 16.5248 26.6005 15.8066C26.916 13.3403 27.3085 10.8851 27.6372 8.42038C27.7957 7.22915 28.1023 6.03634 27.7986 4.81666C27.0582 4.93531 26.8286 4.81666 26.8019 4.18388C26.7827 3.74092 26.7264 3.4261 26.2599 3.30587C26.1533 3.2774 26.1014 3.00372 26.0155 2.83128C26.5013 2.67309 27.067 2.88823 27.2433 2.1985C26.8094 2.22064 26.4213 2.21906 26.0392 2.26652C25.8333 2.29183 25.5238 2.34404 25.4631 2.48325C25.389 2.6541 25.475 2.95784 25.5846 3.15401C25.7104 3.3739 25.94 3.52577 26.1162 3.7156C26.2643 3.8738 26.4924 4.032 26.525 4.2139C26.6627 5.00491 26.8834 5.82594 26.8138 6.6106C26.5798 9.21296 26.2007 11.8011 25.9385 14.4018C25.7519 16.2543 25.3964 18.0245 24.4575 19.6334C23.8651 20.6427 23.3512 21.7058 22.8284 22.7562C22.7355 22.9513 22.7019 23.1725 22.7321 23.389C22.8417 24.0676 22.9898 24.7542 23.132 25.4867H23.1305ZM10.5611 19.7932C10.8573 20.6237 11.0484 21.2818 11.312 21.9083C11.8111 23.0868 12.6982 23.7338 13.9038 23.7338C15.1093 23.7338 15.9846 23.0758 16.4985 21.913C16.6985 21.4605 16.8021 20.9638 17.0065 20.5114C17.2583 19.9593 17.0302 19.7204 16.5785 19.5306C15.2456 18.9658 13.8534 18.961 12.4687 19.1841C11.8481 19.2838 11.2528 19.5654 10.5611 19.7932ZM7.92786 42.1859C7.31325 40.4284 7.5991 39.4697 9.00459 38.462C9.41038 38.1709 9.84729 37.932 10.2723 37.671C11.2912 37.0493 12.3369 36.4718 13.3262 35.7979C14.2666 35.1843 14.9944 34.2603 15.3996 33.1655C14.4843 34.1559 13.3395 34.7238 12.1577 35.2221C11.0824 35.6714 9.97759 36.0479 8.93351 36.5668C8.15244 36.9442 7.42101 37.4292 6.7579 38.0095C5.99517 38.6961 6.01736 39.6753 6.31359 40.623C6.56238 41.4234 7.02892 41.9945 7.92786 42.1859ZM21.1578 25.7224C19.5613 27.4151 19.4235 29.1236 20.6705 30.8701C21.1563 31.5519 21.691 32.1942 22.1856 32.8681C23.015 34.0024 23.4297 35.2743 23.2372 36.7281C23.1957 37.0445 23.1394 37.3483 23.0772 37.7343C23.9658 37.2249 24.3346 36.4988 24.4294 35.5638C24.5701 34.1685 24.1406 32.971 23.3527 31.8921C22.8698 31.2324 22.3663 30.5917 21.8939 29.9257C21.2185 28.9765 20.869 27.9102 21.0053 26.7C21.0393 26.4137 21.0941 26.1305 21.1578 25.7224ZM36.1664 7.2418C35.3844 6.09806 34.6321 4.98749 33.8664 3.88487C33.5954 3.49413 33.3243 3.56848 33.0726 3.93391C32.6046 4.6284 32.1262 5.31497 31.6537 6.00469C31.3738 6.41285 31.0954 6.82419 30.8125 7.24022L36.1664 7.2418ZM23.6859 7.23072C22.8861 6.06168 22.1353 4.94639 21.3622 3.84849C21.1045 3.48305 20.832 3.59063 20.6039 3.92601C20.167 4.56831 19.7271 5.20739 19.2902 5.84966L18.3483 7.23072H23.6859ZM16.8347 16.5992C16.1194 15.3494 15.1523 14.6027 14.0089 14.1075C13.9355 14.0805 13.8558 14.0805 13.7823 14.1075C12.5975 14.5632 11.626 15.2925 10.9684 16.6166C12.8802 15.9985 14.9197 15.9924 16.8347 16.5992ZM7.88492 27.056C6.97705 27.9672 6.1551 28.7139 5.42349 29.5492C4.72318 30.3355 4.08466 31.182 3.51445 32.0803C3.16938 32.634 3.0346 33.3364 2.81097 33.9581C3.74105 32.9694 4.61485 31.9901 5.53751 31.071C6.61718 29.9858 7.45099 28.7629 7.88492 27.056ZM7.02743 32.5217L7.15331 32.5786C7.4495 32.1768 7.73685 31.7576 8.05969 31.3779C8.38254 30.9982 8.80019 30.6265 9.13489 30.2247C9.48859 29.8363 9.80654 29.4125 10.0843 28.9591C10.7078 27.8517 10.6278 26.1859 9.93614 25.232C9.93614 27.1019 9.29338 28.6743 8.20186 30.0649C7.95605 30.3629 7.74424 30.6911 7.57096 31.0425C7.35325 31.5124 7.20513 32.0234 7.02743 32.517V32.5217ZM33.4369 8.54692L30.8925 8.32864C31.1887 9.45024 32.0122 10.2539 32.9348 10.3377C32.6771 9.65434 32.8193 9.07216 33.4369 8.54692ZM20.3092 10.4263C20.013 9.65591 20.1951 9.06739 20.715 8.55484L18.4534 8.3223C18.5749 9.38695 19.1377 10.0482 20.3092 10.4263ZM8.22409 21.9826C9.09786 21.0698 9.2297 19.9577 9.04162 18.6399C7.69387 19.529 8.41957 20.8863 8.22409 21.9826ZM13.1618 12.3437C13.0206 12.0372 12.7837 11.7928 12.4921 11.6528C12.2004 11.5128 11.8721 11.4857 11.5638 11.5764C10.958 11.7346 10.4619 12.3231 10.4308 12.9638C11.1965 12.0273 12.1428 12.0478 13.1618 12.3437ZM21.0615 1.85363C20.8542 1.69543 20.7194 1.50876 20.6084 1.523C20.5354 1.5481 20.4699 1.5929 20.418 1.65304C20.3661 1.71319 20.3296 1.78665 20.3121 1.86628C20.3121 1.98018 20.5002 2.18267 20.6172 2.18267C20.7342 2.18267 20.8586 2.01657 21.0615 1.85363ZM33.6057 1.83464C33.3791 1.67644 33.2355 1.50401 33.1155 1.51825C32.9955 1.53249 32.8963 1.74289 32.7882 1.86787C32.9067 1.98177 33.0193 2.18426 33.1452 2.18426C33.271 2.18426 33.3924 2.00866 33.6057 1.83464Z" fill="#334480"/>
<path d="M11.8554 28.6127L13.0002 28.9987C11.9501 27.4974 12.0064 26.0294 12.3485 24.5818H15.6675C15.355 26.8362 14.6545 28.9987 13.1927 30.8354L13.329 31.0126L15.7312 29.3547C15.3668 30.7452 14.7818 32.025 13.6385 32.8176C12.7351 33.4504 11.6984 33.8728 10.6765 34.2793C9.76712 34.6432 8.80445 34.8551 7.81219 35.1494C7.84358 35.001 7.88463 34.8551 7.9351 34.7128C8.43797 33.5031 9.19873 32.4359 10.1566 31.5963C11.0304 30.8385 11.8242 29.9922 11.8554 28.6127Z" fill="white"/>
<path d="M23.132 25.4867C22.9839 24.7542 22.8358 24.0629 22.7336 23.3748C22.7034 23.1583 22.7371 22.9371 22.8299 22.7419C23.3571 21.6915 23.8666 20.6284 24.459 19.6192C25.4024 18.0103 25.7564 16.24 25.94 14.3876C26.2022 11.7868 26.5798 9.20032 26.8153 6.59638C26.8864 5.80537 26.6672 4.99384 26.5265 4.19969C26.4939 4.01302 26.2658 3.85957 26.1178 3.70137C25.9415 3.51154 25.7119 3.35967 25.5861 3.13977C25.4779 2.94994 25.3906 2.64146 25.4646 2.46902C25.5254 2.32822 25.8349 2.2776 26.0407 2.25229C26.4243 2.20483 26.8124 2.20641 27.2448 2.18427C27.0686 2.87242 26.5043 2.65886 26.0171 2.81706C26.1029 2.99582 26.1533 3.27108 26.2614 3.29165C26.7279 3.41188 26.7842 3.72827 26.8035 4.16966C26.8301 4.80244 27.0523 4.92425 27.8002 4.80244C28.0964 6.02212 27.8002 7.21493 27.6388 8.40616C27.31 10.8709 26.916 13.3261 26.602 15.7924C26.5102 16.5106 26.5769 17.2541 26.602 17.985C26.6228 18.7981 26.5132 19.5669 26.1089 20.2757C25.1107 22.0316 24.1125 23.775 23.132 25.4867Z" fill="white"/>
<path d="M10.561 19.7932C11.2512 19.5654 11.8465 19.2838 12.4671 19.1826C13.8533 18.9595 15.2381 18.9643 16.5769 19.529C17.0212 19.7189 17.2567 19.9577 17.0049 20.5098C16.8005 20.9591 16.6969 21.459 16.4969 21.9115C15.983 23.0742 15.1122 23.7386 13.9022 23.7323C12.6922 23.726 11.8095 23.0853 11.3119 21.9067C11.0498 21.2818 10.8572 20.6238 10.561 19.7932ZM12.9306 21.6995C13.5941 22.2247 14.2443 22.2421 14.8885 21.6995H12.9306ZM13.3039 20.7867C13.7245 21.3609 14.2102 21.3404 14.4531 20.7867H13.3039Z" fill="white"/>
<path d="M7.9277 42.186C7.0302 41.9945 6.55478 41.4219 6.31041 40.6229C6.01422 39.6738 5.99497 38.6945 6.75472 38.0095C7.41831 37.4291 8.15022 36.9441 8.93182 36.5668C9.97594 36.0479 11.0823 35.673 12.156 35.2221C13.3408 34.727 14.4827 34.159 15.3979 33.1656C14.9928 34.2602 14.2649 35.1843 13.3245 35.7979C12.3381 36.475 11.2911 37.0524 10.2647 37.6742C9.83969 37.9336 9.40278 38.1725 8.99699 38.4651C7.5989 39.4697 7.31309 40.4284 7.9277 42.186Z" fill="white"/>
<path d="M21.1577 25.7224C21.094 26.129 21.0407 26.4137 21.0096 26.7016C20.8704 27.9118 21.2199 28.9749 21.8982 29.9273C22.3706 30.5933 22.8742 31.2356 23.357 31.8937C24.1464 32.9726 24.5744 34.1685 24.4337 35.5654C24.3389 36.5019 23.9657 37.2281 23.0816 37.7359C23.1437 37.3499 23.2 37.0414 23.2415 36.7297C23.434 35.2759 23.0208 34.004 22.19 32.8697C21.6953 32.1942 21.1607 31.552 20.6749 30.8717C19.4235 29.1236 19.5597 27.4151 21.1577 25.7224Z" fill="white"/>
<path d="M36.1663 7.24189H30.814C31.0968 6.82586 31.3753 6.41451 31.6552 6.00636C32.1276 5.31506 32.6045 4.62849 33.074 3.93558C33.3258 3.56382 33.5968 3.4958 33.8678 3.88654C34.632 4.98758 35.3844 6.09814 36.1663 7.24189Z" fill="white"/>
<path d="M23.6873 7.2308H18.3556L19.2901 5.85766C19.7344 5.21696 20.1684 4.57626 20.6038 3.93397C20.8319 3.59701 21.1059 3.49102 21.362 3.85645C22.1366 4.94642 22.886 6.06171 23.6873 7.2308Z" fill="white"/>
<path d="M16.8347 16.5992C14.9187 15.99 12.8776 15.9943 10.9639 16.6118C11.6274 15.2877 12.593 14.5553 13.7779 14.1028C13.8513 14.0757 13.9311 14.0757 14.0045 14.1028C15.1522 14.6027 16.1193 15.3494 16.8347 16.5992Z" fill="white"/>
<path d="M7.88473 27.056C7.44787 28.7662 6.61848 29.989 5.53732 31.0648C4.61317 31.9855 3.74087 32.9631 2.81079 33.9518C3.03442 33.3301 3.1692 32.6277 3.51427 32.074C4.08448 31.1758 4.72299 30.3292 5.4233 29.5429C6.15491 28.7092 6.97542 27.9641 7.88473 27.056Z" fill="white"/>
<path d="M7.02753 32.517C7.20528 32.0218 7.35335 31.5124 7.57106 31.0378C7.74447 30.6869 7.95623 30.3593 8.202 30.0618C9.29348 28.6696 9.9407 27.0987 9.93624 25.2289C10.6264 26.178 10.7079 27.8502 10.0844 28.956C9.80663 29.4093 9.48874 29.8332 9.13503 30.2215C8.79437 30.6233 8.39449 30.973 8.05979 31.3748C7.72508 31.7766 7.45108 32.1721 7.1549 32.5739L7.02753 32.517Z" fill="white"/>
<path d="M33.4369 8.54699C32.8208 9.06745 32.6786 9.65436 32.9349 10.3362C32.0121 10.2523 31.1902 9.44873 30.8925 8.32709L33.4369 8.54699Z" fill="white"/>
<path d="M20.309 10.4263C19.1375 10.0482 18.5732 9.38696 18.4533 8.32227L20.7148 8.55481C20.1949 9.06898 20.0084 9.65431 20.309 10.4263Z" fill="white"/>
<path d="M8.22418 21.9826C8.42119 20.8863 7.694 19.5274 9.04171 18.6399C9.22835 19.9593 9.098 21.0714 8.22418 21.9826Z" fill="white"/>
<path d="M13.162 12.3436C12.143 12.0541 11.1966 12.0271 10.4324 12.9637C10.462 12.3309 10.9582 11.7361 11.5654 11.5763C11.8735 11.486 12.2015 11.5133 12.4928 11.6533C12.7842 11.7933 13.0208 12.0374 13.162 12.3436Z" fill="white"/>
<path d="M12.9308 21.6995H14.8887C14.2475 22.2421 13.5973 22.2247 12.9308 21.6995Z" fill="#334480"/>
<path d="M13.3069 20.7883H14.4562C14.2133 21.342 13.7261 21.361 13.3069 20.7883Z" fill="#334480"/>
<path d="M36.2259 18.2677H41.1894V39.7148H36.2259V18.2677ZM55.9612 22.9861C58.0035 22.9861 59.6479 23.5988 60.894 24.8244C62.1603 26.0499 62.7936 27.8678 62.7936 30.2781V39.7148H58.014V31.0134C58.014 29.7061 57.7277 28.7359 57.1561 28.1027C56.584 27.4491 55.7568 27.1223 54.6743 27.1223C53.4689 27.1223 52.5091 27.5001 51.7943 28.2559C51.0791 28.9912 50.7219 30.0942 50.7219 31.5649V39.7148H45.9423V23.2312H50.5075V25.1614C51.1404 24.4669 51.9269 23.9359 52.8667 23.5682C53.806 23.1801 54.8376 22.9861 55.9612 22.9861ZM72.6715 39.9599C71.3033 39.9599 69.9653 39.7967 68.6579 39.4697C67.3509 39.1226 66.3092 38.6937 65.5327 38.1829L67.1259 34.7513C67.8613 35.221 68.7498 35.6092 69.7915 35.9156C70.8332 36.2014 71.8548 36.3445 72.8554 36.3445C74.8775 36.3445 75.8886 35.8443 75.8886 34.8432C75.8886 34.3735 75.6129 34.0364 75.0614 33.8322C74.5099 33.6279 73.6625 33.4543 72.5183 33.3113C71.1702 33.107 70.0572 32.8722 69.1787 32.6066C68.3007 32.3411 67.5347 31.8713 66.8808 31.1972C66.2479 30.5232 65.931 29.5632 65.931 28.3172C65.931 27.2755 66.2273 26.3563 66.8195 25.5597C67.4323 24.7427 68.3108 24.1095 69.4545 23.6601C70.6187 23.2107 71.9874 22.9861 73.5601 22.9861C74.7243 22.9861 75.8785 23.1188 77.0222 23.3844C78.1865 23.6295 79.1468 23.9767 79.9023 24.4261L78.3091 27.827C76.859 27.0099 75.2758 26.6014 73.5601 26.6014C72.5389 26.6014 71.7729 26.7444 71.2621 27.0304C70.7518 27.3163 70.4962 27.684 70.4962 28.1334C70.4962 28.644 70.7719 29.0014 71.3234 29.2057C71.8749 29.41 72.7534 29.604 73.9584 29.7879C75.3065 30.0125 76.4095 30.2576 77.2673 30.5232C78.1252 30.7683 78.8711 31.2279 79.504 31.9019C80.1373 32.576 80.4538 33.5156 80.4538 34.7207C80.4538 35.7418 80.1474 36.6509 79.5346 37.4475C78.9218 38.2441 78.0232 38.867 76.8384 39.3165C75.6741 39.7454 74.2853 39.9599 72.6715 39.9599ZM94.0346 38.9182C93.5645 39.2653 92.9824 39.531 92.2882 39.7148C91.6141 39.8781 90.8989 39.9599 90.1435 39.9599C88.1826 39.9599 86.6607 39.4596 85.5783 38.4586C84.516 37.4576 83.9851 35.9869 83.9851 34.0466V27.2755H81.4421V23.5988H83.9851V19.5852H88.7647V23.5988H92.8703V27.2755H88.7647V33.9854C88.7647 34.68 88.9381 35.221 89.2856 35.6092C89.6533 35.9769 90.1636 36.1607 90.8175 36.1607C91.573 36.1607 92.2164 35.9563 92.7478 35.5479L94.0346 38.9182ZM103.366 22.9861C105.919 22.9861 107.88 23.5988 109.249 24.8244C110.617 26.0295 111.302 27.8576 111.302 30.3087V39.7148H106.828V37.662C105.929 39.1939 104.255 39.9599 101.804 39.9599C100.537 39.9599 99.434 39.7454 98.4947 39.3165C97.5756 38.8876 96.8709 38.2954 96.3807 37.5395C95.8904 36.7835 95.6453 35.9257 95.6453 34.9658C95.6453 33.4339 96.217 32.2288 97.3611 31.3504C98.5254 30.4721 100.312 30.033 102.723 30.033H106.522C106.522 28.9912 106.205 28.1946 105.572 27.6431C104.939 27.0712 103.989 26.7853 102.723 26.7853C101.844 26.7853 100.976 26.9283 100.119 27.2142C99.2808 27.4798 98.5661 27.8474 97.9739 28.3172L96.2581 24.9776C97.1567 24.3444 98.229 23.8541 99.4752 23.5069C100.741 23.1597 102.038 22.9861 103.366 22.9861ZM102.999 36.7428C103.815 36.7428 104.541 36.559 105.174 36.1913C105.807 35.8031 106.256 35.2415 106.522 34.5062V32.8211H103.244C101.283 32.8211 100.302 33.4645 100.302 34.7513C100.302 35.3641 100.537 35.8543 101.007 36.222C101.497 36.5691 102.161 36.7428 102.999 36.7428ZM116.914 18.2677H119.182V37.7539H131.192V39.7148H116.914V18.2677ZM148.29 32.3309H134.809C134.932 34.0058 135.575 35.3641 136.739 36.4058C137.904 37.427 139.374 37.9378 141.151 37.9378C142.152 37.9378 143.071 37.764 143.909 37.4169C144.746 37.0492 145.471 36.5183 146.084 35.8237L147.31 37.2331C146.594 38.0909 145.696 38.7444 144.613 39.1939C143.551 39.6435 142.377 39.868 141.09 39.868C139.436 39.868 137.965 39.5209 136.678 38.8263C135.411 38.1115 134.421 37.1311 133.706 35.885C132.991 34.6388 132.634 33.2296 132.634 31.6568C132.634 30.084 132.971 28.6747 133.645 27.4287C134.339 26.1827 135.279 25.2125 136.464 24.518C137.669 23.8235 139.017 23.4763 140.508 23.4763C141.999 23.4763 143.337 23.8235 144.522 24.518C145.706 25.2125 146.636 26.1827 147.31 27.4287C147.984 28.6542 148.321 30.0636 148.321 31.6568L148.29 32.3309ZM140.508 25.3452C138.955 25.3452 137.648 25.8457 136.586 26.8465C135.544 27.827 134.952 29.1138 134.809 30.707H146.237C146.094 29.1138 145.491 27.827 144.43 26.8465C143.388 25.8457 142.081 25.3452 140.508 25.3452ZM167.67 23.5988V37.7539C167.67 40.4908 166.995 42.513 165.647 43.8204C164.319 45.1479 162.308 45.8119 159.612 45.8119C158.12 45.8119 156.701 45.5874 155.353 45.1379C154.025 44.7089 152.942 44.1062 152.105 43.3302L153.208 41.6757C153.984 42.3703 154.924 42.9113 156.027 43.2995C157.15 43.6878 158.325 43.8817 159.55 43.8817C161.593 43.8817 163.094 43.4015 164.054 42.4416C165.014 41.5019 165.494 40.0313 165.494 38.0297V35.9769C164.82 36.998 163.932 37.7745 162.829 38.3054C161.746 38.8363 160.541 39.102 159.213 39.102C157.701 39.102 156.323 38.7751 155.077 38.1216C153.851 37.4475 152.881 36.5183 152.166 35.3335C151.472 34.1284 151.125 32.77 151.125 31.2585C151.125 29.747 151.472 28.3989 152.166 27.2142C152.881 26.0295 153.851 25.1103 155.077 24.4567C156.303 23.8031 157.681 23.4763 159.213 23.4763C160.581 23.4763 161.818 23.752 162.921 24.3035C164.024 24.855 164.912 25.6516 165.586 26.6933V23.5988H167.67ZM159.428 37.1718C160.592 37.1718 161.644 36.9267 162.583 36.4365C163.523 35.9257 164.248 35.221 164.759 34.3224C165.29 33.4237 165.555 32.4023 165.555 31.2585C165.555 30.1147 165.29 29.1036 164.759 28.2253C164.248 27.3266 163.523 26.6321 162.583 26.1418C161.664 25.6312 160.612 25.3759 159.428 25.3759C158.263 25.3759 157.211 25.621 156.272 26.1112C155.353 26.6014 154.628 27.2959 154.097 28.1946C153.586 29.0934 153.331 30.1147 153.331 31.2585C153.331 32.4023 153.586 33.4237 154.097 34.3224C154.628 35.221 155.353 35.9257 156.272 36.4365C157.211 36.9267 158.263 37.1718 159.428 37.1718ZM179.39 23.4763C181.494 23.4763 183.108 24.0073 184.231 25.0695C185.355 26.1112 185.916 27.6636 185.916 29.7266V39.7148H183.833V37.2024C183.343 38.0397 182.617 38.6937 181.657 39.1633C180.718 39.633 179.595 39.868 178.287 39.868C176.49 39.868 175.06 39.4391 173.998 38.5812C172.935 37.7233 172.405 36.5896 172.405 35.1803C172.405 33.8117 172.895 32.7087 173.875 31.8713C174.876 31.0338 176.459 30.6151 178.624 30.6151H183.741V29.6347C183.741 28.2457 183.353 27.1938 182.577 26.4789C181.801 25.7435 180.667 25.3759 179.176 25.3759C178.155 25.3759 177.174 25.5495 176.234 25.8967C175.295 26.2236 174.488 26.6831 173.814 27.2755L172.833 25.6516C173.651 24.9571 174.631 24.4261 175.775 24.0584C176.918 23.6703 178.124 23.4763 179.39 23.4763ZM178.624 38.1522C179.85 38.1522 180.902 37.8765 181.78 37.325C182.658 36.7529 183.312 35.9362 183.741 34.8739V32.239H178.685C175.928 32.239 174.549 33.1989 174.549 35.119C174.549 36.0587 174.907 36.8041 175.622 37.3556C176.336 37.8865 177.337 38.1522 178.624 38.1522ZM191.825 16.9809H194V39.7148H191.825V16.9809Z" fill="#334480"/>
</svg>
