<svg width="19" height="19" viewBox="0 0 19 19" fill="none" xmlns="http://www.w3.org/2000/svg">
<circle cx="9.5" cy="9.5" r="9.5" fill="#1F304F"/>
<path d="M10.08 9.2547L10.08 5.69909C10.08 5.47106 9.89546 5.28642 9.66736 5.28645C9.4393 5.28643 9.25469 5.47098 9.25471 5.69908L9.25471 9.2547L5.6991 9.25471C5.47106 9.25469 5.28642 9.43925 5.28644 9.66733C5.28643 9.8954 5.47099 10.08 5.69908 10.08L9.25469 10.08L9.25469 13.6356C9.25469 13.8631 9.43981 14.0483 9.66733 14.0482C9.89539 14.0483 10.08 13.8637 10.08 13.6356L10.08 10.08L13.6356 10.08C13.8636 10.08 14.0482 9.89542 14.0482 9.66736C14.0482 9.4393 13.8637 9.2547 13.6355 9.2547L10.08 9.2547Z" fill="white"/>
<path d="M10.08 9.25472L10.08 5.6991C10.08 5.47107 9.89543 5.28643 9.66733 5.28646C9.43927 5.28645 9.25467 5.471 9.25469 5.69909L9.25468 9.25471L10.08 10.08L13.6356 10.08C13.8636 10.08 14.0482 9.89544 14.0482 9.66738C14.0482 9.43932 13.8637 9.25472 13.6356 9.25472L10.08 9.25472Z" fill="white"/>
</svg>
