<svg width="19" height="19" viewBox="0 0 19 19" fill="none" xmlns="http://www.w3.org/2000/svg">
<path d="M10.6908 9.05L17.7599 1.98087C18.2133 1.52756 18.2135 0.793555 17.7599 0.340136C17.3065 -0.11332 16.5726 -0.113426 16.1191 0.3401L9.05 7.40922L1.98088 0.340136C1.52757 -0.113284 0.793524 -0.113426 0.340105 0.340065C-0.113351 0.793485 -0.113386 1.52738 0.340105 1.98084L7.40915 9.05L0.340069 16.1191C-0.112325 16.5715 -0.112325 17.3075 0.340069 17.7599C0.793454 18.2133 1.52742 18.2134 1.98084 17.7599L9.04993 10.6907L16.119 17.7598C16.5723 18.2132 17.3064 18.2133 17.7598 17.7598C18.2132 17.3064 18.2133 16.5725 17.7598 16.119L10.6908 9.05Z" fill="#334480"/>
<path d="M10.6907 9.05L17.7598 1.98087C18.2132 1.52756 18.2134 0.793555 17.7598 0.340136C17.3064 -0.11332 16.5725 -0.113426 16.119 0.3401L9.04993 7.40919V10.6908L16.119 17.7599C16.5723 18.2133 17.3064 18.2134 17.7598 17.7599C18.2132 17.3065 18.2133 16.5726 17.7598 16.1191L10.6907 9.05Z" fill="#334480"/>
</svg>
