<svg viewBox="0 0 7 9" fill="none" xmlns="http://www.w3.org/2000/svg">
<path d="M4.40139 9H1.2993C0.582847 9 0 8.36918 0 7.59375V2.83008C0 2.05465 0.582847 1.42383 1.2993 1.42383H4.40139C5.11785 1.42383 5.7007 2.05465 5.7007 2.83008V7.59375C5.7007 8.36918 5.11785 9 4.40139 9ZM1.2993 2.12695C0.941107 2.12695 0.649652 2.4424 0.649652 2.83008V7.59375C0.649652 7.98143 0.941107 8.29688 1.2993 8.29688H4.40139C4.75959 8.29688 5.05104 7.98143 5.05104 7.59375V2.83008C5.05104 2.4424 4.75959 2.12695 4.40139 2.12695H1.2993ZM7 6.71484V1.40625C7 0.630821 6.41715 0 5.7007 0H2.09513C1.91571 0 1.7703 0.157379 1.7703 0.351562C1.7703 0.545746 1.91571 0.703125 2.09513 0.703125H5.7007C6.05889 0.703125 6.35035 1.01857 6.35035 1.40625V6.71484C6.35035 6.90903 6.49576 7.06641 6.67517 7.06641C6.85459 7.06641 7 6.90903 7 6.71484Z" fill="black"/>
</svg>
