<svg viewBox="0 0 25 25" fill="none" xmlns="http://www.w3.org/2000/svg">
<path d="M12.5 0C5.60722 0 0 5.60722 0 12.5C0 19.3928 5.60722 25 12.5 25C19.3928 25 25 19.3928 25 12.5C25 5.60722 19.3928 0 12.5 0Z" fill="#FF5752"/>
<path d="M13.623 12.7315L17.4637 8.8907C17.7101 8.64441 17.7102 8.24561 17.4638 7.99926C17.2174 7.75288 16.8187 7.75283 16.5723 7.99924L12.7315 11.84L8.8907 7.99926C8.64441 7.7529 8.24559 7.75283 7.99924 7.99922C7.75287 8.24557 7.75285 8.64431 7.99924 8.89068L11.84 12.7315L7.99922 16.5723C7.75342 16.8181 7.75342 17.218 7.99922 17.4637C8.24555 17.7101 8.64433 17.7102 8.89069 17.4637L12.7315 13.6229L16.5722 17.4637C16.8185 17.7101 17.2174 17.7101 17.4637 17.4637C17.7101 17.2174 17.7101 16.8186 17.4637 16.5722L13.623 12.7315Z" fill="white"/>
<path d="M13.6227 12.7314L17.4634 8.89058C17.7098 8.64429 17.7099 8.24549 17.4635 7.99913C17.2171 7.75276 16.8184 7.7527 16.572 7.99911L12.7312 11.8399V13.6229L16.572 17.4636C16.8183 17.71 17.2171 17.71 17.4634 17.4637C17.7098 17.2173 17.7099 16.8186 17.4634 16.5722L13.6227 12.7314Z" fill="white"/>
</svg>
