<svg width="23" height="24" viewBox="0 0 23 24" fill="none" xmlns="http://www.w3.org/2000/svg">
<path d="M21.1132 16.8168C21.6094 16.8168 22.0117 16.4146 22.0117 15.9184V11.7856C22.0117 10.2994 20.8026 9.0903 19.3164 9.0903H17.5644V5.54148C17.5644 3.55989 15.9523 1.94774 13.9707 1.94774H11.8354C11.4878 0.880888 10.4939 0.150864 9.35752 0.150864H8.2069C7.07056 0.150864 6.07666 0.880888 5.72901 1.94774H3.59374C1.61215 1.94774 0 3.55989 0 5.54148V19.5571C0 21.5387 1.61215 23.1508 3.59374 23.1508H7.54686C8.04307 23.1508 8.4453 22.7486 8.4453 22.2524C8.4453 21.7562 8.04307 21.3539 7.54686 21.3539H3.59374C2.60295 21.3539 1.79687 20.5479 1.79687 19.5571V5.54148C1.79687 4.55068 2.60295 3.74461 3.59374 3.74461H3.68359V6.39499C3.68359 6.8912 4.08582 7.29343 4.58202 7.29343H13.0722C13.5684 7.29343 13.9707 6.8912 13.9707 6.39499V3.74461C14.9615 3.74461 15.7675 4.55068 15.7675 5.54148V9.0903H12.8473C11.3614 9.0903 10.1523 10.2993 10.1523 11.7853V20.4559C10.1523 21.9419 11.3614 23.1509 12.8481 23.1509L19.3164 23.1475C20.8026 23.1475 22.0117 21.9385 22.0117 20.4525C22.0117 19.9563 21.6094 19.5541 21.1132 19.5541C20.617 19.5541 20.2148 19.9563 20.2148 20.4525C20.2148 20.9478 19.8118 21.3506 19.3159 21.3506L12.8476 21.3539C12.3522 21.3539 11.9492 20.951 11.9492 20.4558V11.7853C11.9492 11.2901 12.3521 10.8872 12.8473 10.8872H19.3164C19.8118 10.8872 20.2148 11.2902 20.2148 11.7856V15.9184C20.2148 16.4146 20.6171 16.8168 21.1132 16.8168ZM12.1738 5.49656H5.48046V3.74461H6.42382C6.83606 3.74461 7.19544 3.46403 7.29543 3.06409L7.42113 2.56123C7.51142 2.20002 7.83454 1.94774 8.2069 1.94774H9.35752C9.72988 1.94774 10.053 2.20002 10.1433 2.56123L10.269 3.06409C10.369 3.46403 10.7284 3.74461 11.1406 3.74461H12.1738V5.49656Z" fill="#464B4E"/>
<path d="M17.5194 12.6841H14.6444C14.1482 12.6841 13.746 13.0863 13.746 13.5825C13.746 14.0787 14.1482 14.4809 14.6444 14.4809H17.5194C18.0156 14.4809 18.4179 14.0787 18.4179 13.5825C18.4179 13.0863 18.0157 12.6841 17.5194 12.6841Z" fill="#464B4E"/>
<path d="M17.5194 15.8286H14.6444C14.1482 15.8286 13.746 16.2308 13.746 16.727C13.746 17.2232 14.1482 17.6255 14.6444 17.6255H17.5194C18.0156 17.6255 18.4179 17.2232 18.4179 16.727C18.4179 16.2308 18.0157 15.8286 17.5194 15.8286Z" fill="#464B4E"/>
</svg>
