<svg width="66" height="65" viewBox="0 0 66 65" fill="none" xmlns="http://www.w3.org/2000/svg">
<path d="M17.2375 17.7586L11.6835 18.1877C10.138 18.3071 8.76157 19.1171 7.90689 20.4099L1.50154 30.0976C0.853325 31.078 0.750277 32.305 1.2257 33.3798C1.70125 34.4546 2.67851 35.2036 3.83983 35.3835L8.92522 36.1711C10.1148 29.858 12.9626 23.5604 17.2375 17.7586Z" fill="white"/>
<path d="M29.3132 56.559L30.1009 61.6444C30.2809 62.8057 31.0299 63.783 32.1045 64.2584C32.5517 64.4562 33.025 64.5539 33.4959 64.5539C34.1573 64.5539 34.8142 64.3612 35.3868 63.9826L45.0748 57.5773C46.3676 56.7225 47.1775 55.346 47.2967 53.8007L47.7258 48.2467C41.9239 52.5217 35.6264 55.3695 29.3132 56.559Z" fill="white"/>
<path d="M27.4005 53.0343C27.577 53.0343 27.7546 53.0197 27.9318 52.9902C30.5767 52.5479 33.126 51.8029 35.5578 50.8278L14.6565 29.9265C13.6814 32.3582 12.9364 34.9075 12.4942 37.5526C12.3199 38.5952 12.6696 39.6573 13.4169 40.4049L25.0795 52.0674C25.7 52.6878 26.5376 53.0343 27.4005 53.0343Z" fill="white"/>
<path d="M59.9265 28.8691C65.0412 18.9808 65.2306 8.53131 64.9633 3.6306C64.8718 1.95141 63.533 0.612665 61.8537 0.521137C61.0558 0.477564 60.1101 0.446136 59.0441 0.446136C53.5642 0.446136 44.8933 1.27615 36.6152 5.55795C30.0364 8.96078 21.4098 16.4535 16.3203 26.3002C16.3804 26.3471 16.4391 26.397 16.4945 26.4523L39.0322 48.9901C39.0876 49.0454 39.1373 49.104 39.1842 49.1641C49.031 44.0745 56.5237 35.4479 59.9265 28.8691ZM38.2051 13.9988C41.8664 10.3376 47.824 10.3372 51.4855 13.9988C53.2592 15.7724 54.236 18.1308 54.236 20.6391C54.236 23.1474 53.2592 25.5057 51.4855 27.2793C49.655 29.1098 47.2498 30.0252 44.8454 30.0254C42.4402 30.0256 40.036 29.1103 38.2051 27.2793C36.4314 25.5057 35.4545 23.1474 35.4545 20.6391C35.4545 18.1308 36.4314 15.7724 38.2051 13.9988Z" fill="white"/>
<path d="M40.8611 24.6232C43.0579 26.82 46.6327 26.8201 48.8295 24.6232C49.8937 23.5589 50.4798 22.144 50.4798 20.639C50.4798 19.134 49.8937 17.7191 48.8295 16.6549C47.7312 15.5564 46.2882 15.0073 44.8453 15.0073C43.4025 15.0073 41.9596 15.5564 40.8612 16.6549C39.7971 17.7191 39.2108 19.134 39.2108 20.639C39.2108 22.144 39.7969 23.559 40.8611 24.6232Z" fill="white"/>
<path d="M2.84673 53.277C3.32741 53.277 3.8081 53.0937 4.17471 52.7268L10.3067 46.5949C11.0401 45.8614 11.0401 44.6723 10.3067 43.9388C9.5733 43.2053 8.38405 43.2053 7.65056 43.9388L1.51862 50.0707C0.785135 50.8042 0.785135 51.9933 1.51862 52.7268C1.88536 53.0936 2.36605 53.277 2.84673 53.277Z" fill="white"/>
<path d="M15.9262 49.5583C15.1929 48.8249 14.0036 48.8249 13.2701 49.5583L1.4809 61.3476C0.747415 62.081 0.747415 63.2702 1.4809 64.0036C1.84764 64.3704 2.32833 64.5537 2.80901 64.5537C3.28969 64.5537 3.77038 64.3704 4.137 64.0035L15.9261 52.2144C16.6597 51.4809 16.6597 50.2918 15.9262 49.5583Z" fill="white"/>
<path d="M18.8895 55.1778L12.7576 61.3097C12.0241 62.0432 12.0241 63.2323 12.7576 63.9658C13.1244 64.3326 13.6051 64.516 14.0856 64.516C14.5662 64.516 15.047 64.3327 15.4136 63.9658L21.5456 57.8339C22.279 57.1004 22.279 55.9113 21.5456 55.1778C20.8122 54.4443 19.6229 54.4443 18.8895 55.1778Z" fill="white"/>
</svg>
