<svg width="65" height="65" viewBox="0 0 65 65" fill="none" xmlns="http://www.w3.org/2000/svg">
<path d="M25.9741 6.66533C17.641 14.9984 17.3097 28.2304 24.7804 37.0761L21.7322 40.1243C19.6521 39.104 17.0981 39.3234 15.2693 40.9198L2.82913 51.731C-0.315772 54.393 -0.527126 59.1911 2.39716 62.1157C5.33847 65.057 10.1395 64.8032 12.7648 61.7057L23.5916 49.2448C25.1892 47.415 25.4085 44.8606 24.3886 42.7805L27.4365 39.7326C36.2823 47.2033 49.5144 46.872 57.8475 38.5388C66.6355 29.7508 66.6355 15.4535 57.8475 6.66545C49.0595 -2.12255 34.7621 -2.1228 25.9741 6.66533ZM52.5351 33.2263C46.6769 39.0845 37.1446 39.0845 31.2862 33.2263C25.428 27.3681 25.428 17.8356 31.2862 11.9774C37.1446 6.11916 46.6769 6.11916 52.5351 11.9774C58.3933 17.8356 58.3934 27.3681 52.5351 33.2263Z" fill="white"/>
</svg>
