<svg width="39" height="38" viewBox="0 0 39 38" fill="none" xmlns="http://www.w3.org/2000/svg">
<path d="M38.25 18.7097C38.25 8.67626 29.8476 0.556458 19.5 0.556458C9.15245 0.556458 0.75 8.67626 0.75 18.7097C0.75 28.7431 9.15245 36.8629 19.5 36.8629C29.8476 36.8629 38.25 28.7431 38.25 18.7097Z" fill="white" stroke="#EEEEEE" stroke-width="0.5"/>
<path d="M19.2691 11.9044L12.0952 19.2371C12.0341 19.2997 11.9998 19.3846 12 19.4731L12 25.4725C11.9997 25.6566 12.1454 25.8061 12.3255 25.8065C12.4123 25.8066 12.4956 25.7714 12.557 25.7085L19.5 18.6111L26.443 25.7085C26.5702 25.8389 26.7767 25.8391 26.9042 25.7091C26.9657 25.6464 27.0002 25.5613 27 25.4725V19.4731C27.0002 19.3846 26.9659 19.2997 26.9048 19.2371L19.7309 11.9044C19.6037 11.774 19.3972 11.7738 19.2697 11.9038C19.2695 11.904 19.2693 11.9042 19.2691 11.9044Z" fill="#3EA254" fill-opacity="0.17"/>
</svg>
