<svg width="36" height="45" viewBox="0 0 36 45" fill="none" xmlns="http://www.w3.org/2000/svg">
<path d="M17.5487 32.6863C16.2881 33.4979 15.5148 34.5941 14.9992 35.8915C14.1282 38.1166 14.1933 40.4026 14.6126 42.7028C14.7089 43.2339 14.8335 43.7594 14.9497 44.316H5.83115L6.26597 41.2624L6.08751 41.2199C5.62011 42.0187 5.1258 42.8019 4.69381 43.6206C4.41054 44.1645 4.05503 44.4407 3.41909 44.3472C3.02251 44.2891 2.61035 44.3358 2.09338 44.3358C3.54373 42.7155 4.35247 40.8757 4.94309 38.9324C5.04753 38.5815 5.05779 38.2093 4.97283 37.8532C4.45303 35.8589 4.78871 34.0857 6.13 32.4809C6.3467 32.2217 6.25039 31.7005 6.29854 31.3011L6.09034 31.2062C5.88497 31.4668 5.58753 31.6991 5.49122 31.9951C5.1428 33.0602 4.76038 34.1296 4.57625 35.2273C4.04795 38.3532 2.78031 41.1604 1.13309 43.8316C0.862562 44.2693 0.577874 44.435 0 44.2721C2.70524 40.2978 3.9743 35.866 4.47286 31.0136C3.5933 31.8634 3.38085 32.9257 3.71511 34.3774C3.06075 34.3661 2.63301 34.0049 2.29875 33.5191C1.51125 32.3634 1.53533 31.0802 1.78178 29.7814C2.11745 28.035 3.24063 26.773 4.43462 25.562C5.36941 24.6117 6.29288 23.6485 6.85942 22.4149C7.02655 22.0495 7.15261 21.6642 7.32399 21.2181L5.64844 22.3696C5.63144 22.2279 5.61303 22.1854 5.62577 22.1727C6.70787 21.0396 7.14977 19.6601 7.12428 18.1162C7.11153 17.316 7.31832 16.605 7.87353 15.9988C7.91674 15.9285 7.94406 15.8496 7.9536 15.7676C7.96314 15.6857 7.95467 15.6026 7.92877 15.5243C7.78644 15.1553 7.73719 14.757 7.78536 14.3645C7.83353 13.9719 7.97764 13.5973 8.20496 13.2737C8.2822 13.1115 8.34339 12.9422 8.38767 12.7681C8.67094 12.0599 8.84799 11.2851 9.26015 10.6648C10.2077 9.23284 11.8988 9.00481 13.2897 10.0133C15.1338 8.69887 17.4339 9.49345 18.1733 12.3262C18.2974 12.7672 18.4527 13.1988 18.6379 13.6179C18.9551 14.3742 19.0288 15.1447 18.5217 15.8104C18.1591 16.2835 18.1945 16.7183 18.4127 17.1588C18.6137 17.5796 18.8789 17.9666 19.1987 18.306C19.6817 18.7989 20.2369 19.221 20.8162 19.7224C21.2794 18.9845 21.6745 18.2423 22.1745 17.5809C23.4903 15.8302 23.9804 13.8842 24.0837 11.7086C24.1829 9.68041 24.6319 7.66493 24.9746 5.6537C25.1163 4.86338 24.884 4.23735 24.435 3.61415C23.8685 2.82241 23.1929 2.37484 22.1858 2.58446C21.836 2.65669 21.4776 2.69918 21.125 2.75442C21.2822 3.08868 21.4012 3.44985 21.6051 3.74587C22.2028 4.63109 22.8543 5.48091 23.4464 6.37463C23.6105 6.63641 23.6827 6.94537 23.6518 7.25277C23.5315 8.12528 23.0943 8.923 22.4236 9.49387C21.7529 10.0647 20.8956 10.3688 20.015 10.3482C19.1345 10.3275 18.2924 9.98357 17.6492 9.38187C17.006 8.78018 16.6067 7.96283 16.5275 7.08564C16.5203 6.84776 16.5898 6.61387 16.7258 6.41854C17.4339 5.37988 18.1582 4.35349 18.8985 3.33938C19.0897 3.07593 19.1633 2.87906 18.9792 2.5533C18.8499 2.31027 18.8088 2.02992 18.8631 1.76003C18.9173 1.49014 19.0635 1.24741 19.2766 1.0732C19.71 0.703534 20.2922 0.695036 20.7978 0.971226C21.0974 1.13419 21.427 1.23443 21.7666 1.26583C22.3445 1.31257 22.9294 1.25875 23.5101 1.28566C23.935 1.30549 24.0767 1.07604 24.1376 0.729029C24.2891 -0.112288 24.3939 -0.00181204 25.1998 0.0123515C26.1049 0.0279315 26.6828 0.76727 27.5312 0.772936C27.5688 0.775143 27.6045 0.79071 27.6317 0.816843C28.6104 1.80121 29.8257 1.05479 30.912 1.25591C31.0027 1.27291 31.1259 1.12561 31.2307 1.05196C31.7788 0.669541 32.3779 0.676623 32.8368 1.07179C33.0579 1.25105 33.2078 1.50321 33.2597 1.78303C33.3116 2.06284 33.2621 2.352 33.1201 2.59862C32.9643 2.88189 33.021 3.06177 33.1895 3.29689C33.926 4.31383 34.6611 5.33361 35.3622 6.37605C35.5231 6.61837 35.5984 6.90752 35.5761 7.19753C35.4654 8.05582 35.0476 8.84498 34.4 9.41902C33.7525 9.99307 32.9189 10.3132 32.0535 10.3201C31.1882 10.327 30.3496 10.0202 29.6929 9.45661C29.0362 8.89298 28.6059 8.11059 28.4815 7.25419C28.447 6.9474 28.5185 6.63803 28.6841 6.37746C29.3923 5.31661 30.1486 4.28975 30.8766 3.24448C30.963 3.11984 31.0735 2.89464 31.0182 2.81957C30.9628 2.75257 30.8943 2.69764 30.8168 2.65818C30.7393 2.61871 30.6546 2.59555 30.5678 2.59012C29.7662 2.56746 28.9631 2.58021 28.2747 2.58021C27.4405 4.44272 27.4476 6.30948 27.5906 8.21165C27.83 11.4013 27.3513 14.513 26.5992 17.6163C26.044 19.8824 25.3471 22.0849 24.3004 24.1683C23.9563 24.851 23.5016 25.4799 23.0356 26.2334C23.3586 26.5167 23.6985 26.8537 24.0682 27.1498C24.52 27.5138 25.0214 27.8197 25.4576 28.2021C26.3839 29.0137 26.4491 30.0434 25.7409 30.9555C25.6247 30.389 25.6771 29.6086 25.316 29.1638C24.9548 28.7191 24.1687 28.5491 23.4195 28.1908C24.4633 30.0547 25.037 31.8068 23.8146 33.6013C23.0484 34.7244 21.8587 35.0785 20.6703 35.1111C20.7128 34.6522 20.8658 34.2032 20.7666 33.8194C20.5287 32.9044 19.4735 32.6636 18.8149 33.3435C18.0571 34.1267 17.8659 35.1536 17.7186 36.1762C17.3745 38.5614 17.8773 41.7921 19.7015 44.3203C19.135 44.3203 18.6237 44.3528 18.118 44.3004C17.9693 44.2849 17.8135 44.0512 17.713 43.8869C15.4992 40.2284 15.5389 36.5331 17.5487 32.6863ZM11.3365 25.6187C11.3068 26.8537 10.549 27.6101 9.71197 28.2914C8.79587 29.043 8.06831 29.9985 7.58743 31.0816C7.53916 31.209 7.49988 31.3396 7.46987 31.4725C8.41883 31.209 9.33946 31.0193 10.2091 30.6935C11.1807 30.3295 12.1736 29.9457 13.0418 29.3848C14.1352 28.6766 14.6947 27.5294 15.0431 26.2844L12.7458 27.7645L12.6155 27.6058C14.0134 25.96 14.6834 24.0253 14.9822 22.007H11.8082C11.481 23.3044 11.4272 24.6173 12.4314 25.9614L11.3365 25.6187ZM22.1207 22.8185C23.0583 21.286 24.0115 19.7252 24.9676 18.1658C25.3542 17.5341 25.4604 16.8429 25.4392 16.1149C25.4208 15.4606 25.3571 14.7949 25.4392 14.1519C25.7409 11.9437 26.1162 9.74556 26.4307 7.53888C26.5822 6.47236 26.8754 5.40443 26.585 4.31241C25.8769 4.41864 25.6573 4.31241 25.6318 3.74587C25.6134 3.34929 25.5596 3.06744 25.1134 2.95979C25.0115 2.9343 24.9619 2.68927 24.8797 2.53488C25.3443 2.39325 25.8854 2.58587 26.0539 1.96834C25.6389 1.98817 25.2678 1.98675 24.9024 2.02924C24.7055 2.05191 24.4095 2.09865 24.3514 2.22329C24.2806 2.37625 24.3628 2.64819 24.4676 2.82382C24.588 3.0207 24.8075 3.15667 24.9761 3.32663C25.1177 3.46826 25.3358 3.6099 25.367 3.77278C25.4987 4.48096 25.7097 5.21605 25.6432 5.91856C25.4194 8.24847 25.0568 10.5656 24.8061 12.8941C24.6276 14.5527 24.2877 16.1376 23.3897 17.578C22.8232 18.4817 22.3317 19.4335 21.8317 20.3739C21.7429 20.5486 21.7108 20.7466 21.7397 20.9405C21.8445 21.5481 21.9861 22.1628 22.1221 22.8185H22.1207ZM10.1 17.7211C10.3833 18.4647 10.566 19.0539 10.8181 19.6147C11.2955 20.6699 12.1439 21.2492 13.2968 21.2492C14.4497 21.2492 15.2867 20.66 15.7782 19.619C15.9694 19.2139 16.0686 18.7692 16.264 18.3641C16.5048 17.8698 16.2867 17.6559 15.8547 17.486C14.58 16.9803 13.2486 16.9761 11.9243 17.1758C11.3309 17.265 10.7615 17.5171 10.1 17.7211ZM7.58176 37.7696C6.99398 36.196 7.26733 35.3377 8.61146 34.4355C8.99954 34.1749 9.41736 33.961 9.82386 33.7273C10.7983 33.1707 11.7983 32.6537 12.7444 32.0504C13.6438 31.5009 14.3398 30.6736 14.7273 29.6935C13.852 30.5802 12.7571 31.0887 11.6269 31.5348C10.5986 31.9371 9.542 32.2741 8.54347 32.7387C7.79651 33.0766 7.09701 33.5109 6.46284 34.0304C5.73342 34.6451 5.75466 35.5219 6.03793 36.3703C6.27588 37.0869 6.72203 37.5982 7.58176 37.7696ZM20.2341 23.0296C18.7073 24.5451 18.5755 26.0748 19.7681 27.6384C20.2327 28.2489 20.744 28.8239 21.217 29.4273C22.0102 30.4428 22.4068 31.5815 22.2227 32.8832C22.183 33.1665 22.1292 33.4384 22.0697 33.784C22.9195 33.3279 23.2722 32.6778 23.3628 31.8407C23.4974 30.5915 23.0866 29.5193 22.3331 28.5534C21.8714 27.9628 21.3898 27.3891 20.938 26.7928C20.2922 25.943 19.9579 24.9884 20.0882 23.9049C20.1208 23.6485 20.1732 23.395 20.2341 23.0296ZM34.5875 6.48369C33.8396 5.45966 33.1201 4.46538 32.3879 3.47818C32.1287 3.12834 31.8695 3.19491 31.6287 3.52209C31.1811 4.14387 30.7236 4.75857 30.2718 5.3761C30.0041 5.74152 29.7378 6.10977 29.4673 6.48227L34.5875 6.48369ZM22.6518 6.47378C21.887 5.42709 21.1689 4.42856 20.4295 3.4456C20.1831 3.11842 19.9225 3.21474 19.7044 3.515C19.2865 4.09005 18.8659 4.66225 18.4481 5.2373L17.5473 6.47378H22.6518ZM16.0997 14.8614C15.4156 13.7425 14.4908 13.074 13.3973 12.6307C13.3271 12.6064 13.2508 12.6064 13.1806 12.6307C12.0475 13.0386 11.1184 13.6915 10.4895 14.877C12.3179 14.3236 14.2683 14.3182 16.0997 14.8614ZM7.54069 24.2236C6.67246 25.0394 5.88638 25.7079 5.1867 26.4557C4.51696 27.1597 3.90633 27.9177 3.36102 28.7219C3.03101 29.2176 2.90212 29.8465 2.68825 30.4031C3.57772 29.5179 4.41337 28.6412 5.29576 27.8183C6.32829 26.8467 7.1257 25.7518 7.54069 24.2236ZM6.72062 29.1171L6.84101 29.1681C7.12428 28.8083 7.39905 28.433 7.70782 28.0931C8.01659 27.7531 8.416 27.4203 8.73609 27.0605C9.07436 26.7128 9.37839 26.3334 9.64398 25.9275C10.2403 24.936 10.1638 23.4446 9.50234 22.5905C9.50234 24.2646 8.88764 25.6725 7.84379 26.9175C7.60869 27.1843 7.40615 27.4781 7.24042 27.7928C7.03222 28.2134 6.89058 28.6709 6.72062 29.1128V29.1171ZM31.9771 7.65219L29.5438 7.45673C29.8271 8.46093 30.6146 9.18044 31.497 9.2555C31.2505 8.64364 31.3865 8.12242 31.9771 7.65219ZM19.4225 9.33482C19.1392 8.64505 19.3135 8.11817 19.8106 7.65927L17.6478 7.45106C17.764 8.40427 18.3022 8.99631 19.4225 9.33482ZM7.86504 19.6813C8.70069 18.8641 8.82674 17.8684 8.64686 16.6885C7.35798 17.4845 8.05199 18.6998 7.86504 19.6813ZM12.5872 11.0514C12.4521 10.777 12.2256 10.5583 11.9467 10.4329C11.6677 10.3075 11.3538 10.2833 11.0589 10.3645C10.4796 10.5061 10.0052 11.033 9.97541 11.6067C10.7077 10.7682 11.6127 10.7866 12.5872 11.0514ZM20.142 1.65958C19.9437 1.51794 19.8148 1.35081 19.7086 1.36356C19.6389 1.38603 19.5762 1.42614 19.5266 1.47999C19.4769 1.53384 19.4421 1.59961 19.4253 1.67091C19.4253 1.77288 19.6052 1.95418 19.7171 1.95418C19.829 1.95418 19.948 1.80546 20.142 1.65958ZM32.1386 1.64258C31.9219 1.50094 31.7845 1.34656 31.6698 1.35931C31.555 1.37205 31.4601 1.56043 31.3567 1.67232C31.4701 1.7743 31.5777 1.95559 31.6981 1.95559C31.8185 1.95559 31.9346 1.79838 32.1386 1.64258Z" fill="#334480"/>
<path d="M11.3378 25.6173L12.4327 25.9629C11.4285 24.6188 11.4823 23.3044 11.8095 22.0084H14.9836C14.6847 24.0267 14.0148 25.9629 12.6168 27.6073L12.7471 27.7659L15.0445 26.2816C14.696 27.5265 14.1366 28.6724 13.0431 29.382C12.1792 29.9485 11.1877 30.3267 10.2104 30.6907C9.34078 31.0164 8.42015 31.2062 7.47119 31.4697C7.5012 31.3368 7.54048 31.2062 7.58875 31.0788C8.06963 29.9957 8.7972 29.0402 9.71329 28.2885C10.5489 27.6101 11.3081 26.8524 11.3378 25.6173Z" fill="white"/>
<path d="M22.1222 22.8185C21.9805 22.1628 21.8389 21.5438 21.7412 20.9277C21.7122 20.7339 21.7444 20.5359 21.8332 20.3612C22.3374 19.4207 22.8247 18.4689 23.3912 17.5653C24.2934 16.1248 24.6319 14.5399 24.8076 12.8814C25.0583 10.5529 25.4194 8.23713 25.6446 5.9058C25.7126 5.19762 25.503 4.47103 25.3684 3.76002C25.3373 3.59289 25.1192 3.4555 24.9775 3.31387C24.809 3.14391 24.5894 3.00794 24.4691 2.81106C24.3657 2.6411 24.2821 2.36491 24.3529 2.21053C24.411 2.08447 24.707 2.03915 24.9039 2.01648C25.2707 1.97399 25.6418 1.97541 26.0554 1.95558C25.8868 2.5717 25.3472 2.38049 24.8812 2.52212C24.9634 2.68217 25.0115 2.92862 25.1149 2.94703C25.5611 3.05467 25.6149 3.33795 25.6333 3.73311C25.6588 4.29965 25.8713 4.40871 26.5865 4.29965C26.8698 5.39167 26.5865 6.4596 26.4321 7.52612C26.1177 9.7328 25.7409 11.931 25.4407 14.1391C25.3529 14.7821 25.4166 15.4478 25.4407 16.1022C25.4605 16.8302 25.3557 17.5185 24.969 18.153C24.0144 19.7252 23.0598 21.286 22.1222 22.8185Z" fill="white"/>
<path d="M10.1 17.7211C10.76 17.5171 11.3294 17.265 11.9228 17.1744C13.2485 16.9747 14.5728 16.9789 15.8532 17.4846C16.2781 17.6545 16.5033 17.8684 16.2625 18.3627C16.0671 18.765 15.9679 19.2125 15.7767 19.6176C15.2853 20.6586 14.4524 21.2535 13.2953 21.2478C12.1381 21.2422 11.294 20.6685 10.8181 19.6134C10.5674 19.0539 10.3832 18.4647 10.1 17.7211ZM12.3661 19.4278C13.0007 19.898 13.6225 19.9136 14.2386 19.4278H12.3661ZM12.7231 18.6106C13.1253 19.1247 13.5899 19.1063 13.8222 18.6106H12.7231Z" fill="white"/>
<path d="M7.58168 37.7696C6.72337 37.5983 6.26872 37.0855 6.03502 36.3703C5.75175 35.5205 5.73333 34.6437 6.45993 34.0304C7.09454 33.5108 7.79451 33.0765 8.54197 32.7387C9.5405 32.2742 10.5985 31.9385 11.6254 31.5348C12.7585 31.0915 13.8505 30.583 14.7258 29.6936C14.3383 30.6737 13.6423 31.501 12.7429 32.0504C11.7996 32.6566 10.7982 33.1735 9.81669 33.7302C9.4102 33.9625 8.99237 34.1763 8.60429 34.4384C7.26725 35.3377 6.99389 36.1961 7.58168 37.7696Z" fill="white"/>
<path d="M20.2342 23.0296C20.1733 23.3936 20.1223 23.6485 20.0926 23.9063C19.9594 24.9898 20.2937 25.9416 20.9424 26.7943C21.3942 27.3906 21.8758 27.9656 22.3375 28.5548C23.0924 29.5208 23.5017 30.5915 23.3672 31.8422C23.2765 32.6806 22.9196 33.3308 22.074 33.7854C22.1335 33.4398 22.1874 33.1636 22.227 32.8846C22.4111 31.583 22.016 30.4442 21.2214 29.4287C20.7483 28.8239 20.237 28.2489 19.7725 27.6398C18.5756 26.0748 18.7059 24.5451 20.2342 23.0296Z" fill="white"/>
<path d="M34.5875 6.48368H29.4688C29.7393 6.11118 30.0055 5.74293 30.2732 5.37751C30.7251 4.75856 31.1811 4.14386 31.6301 3.52349C31.8709 3.19065 32.1301 3.12975 32.3893 3.47959C33.1201 4.46537 33.8396 5.45966 34.5875 6.48368Z" fill="white"/>
<path d="M22.6532 6.47378H17.5543L18.448 5.24439C18.873 4.67076 19.2879 4.09714 19.7044 3.52209C19.9225 3.22041 20.1845 3.12551 20.4295 3.45269C21.1703 4.42856 21.887 5.4271 22.6532 6.47378Z" fill="white"/>
<path d="M16.0997 14.8614C14.2674 14.316 12.3153 14.3199 10.4852 14.8727C11.1198 13.6872 12.0432 13.0315 13.1763 12.6264C13.2465 12.6021 13.3228 12.6021 13.393 12.6264C14.4907 13.074 15.4156 13.7425 16.0997 14.8614Z" fill="white"/>
<path d="M7.54055 24.2236C7.12273 25.7547 6.32957 26.8495 5.29563 27.8126C4.41182 28.6369 3.57758 29.5123 2.68811 30.3975C2.90198 29.8408 3.03087 29.212 3.36088 28.7163C3.90619 27.912 4.51682 27.1541 5.18657 26.4501C5.88625 25.7037 6.67091 25.0366 7.54055 24.2236Z" fill="white"/>
<path d="M6.72058 29.1128C6.89054 28.6695 7.03218 28.2134 7.24038 27.7885C7.40621 27.4744 7.60875 27.181 7.84375 26.9146C8.88761 25.6682 9.50656 24.2618 9.50231 22.5877C10.1623 23.4375 10.2402 24.9346 9.64394 25.9246C9.37835 26.3305 9.07432 26.71 8.73606 27.0577C8.4103 27.4174 8.02788 27.7305 7.70778 28.0902C7.38769 28.45 7.12566 28.8041 6.84239 29.1638L6.72058 29.1128Z" fill="white"/>
<path d="M31.977 7.6522C31.3878 8.11818 31.2518 8.64365 31.4969 9.2541C30.6145 9.17903 29.8284 8.45952 29.5437 7.45532L31.977 7.6522Z" fill="white"/>
<path d="M19.4226 9.33481C18.3023 8.9963 17.7627 8.40426 17.6479 7.45105L19.8107 7.65925C19.3136 8.11957 19.1351 8.64362 19.4226 9.33481Z" fill="white"/>
<path d="M7.86509 19.6813C8.05346 18.6998 7.35803 17.4831 8.64692 16.6885C8.82538 17.8698 8.70074 18.8655 7.86509 19.6813Z" fill="white"/>
<path d="M12.587 11.0514C11.6126 10.7923 10.7075 10.7682 9.97668 11.6067C10.005 11.0401 10.4795 10.5076 11.0602 10.3645C11.3549 10.2837 11.6685 10.3081 11.9471 10.4334C12.2258 10.5588 12.4521 10.7773 12.587 11.0514Z" fill="white"/>
<path d="M20.142 1.65959C19.9479 1.80123 19.8247 1.96836 19.7171 1.95986C19.6094 1.95136 19.4239 1.77148 19.4253 1.67659C19.442 1.60529 19.4769 1.53952 19.5265 1.48567C19.5762 1.43182 19.6389 1.39171 19.7086 1.36924C19.8148 1.34941 19.9437 1.51512 20.142 1.65959Z" fill="white"/>
<path d="M32.1386 1.64261C31.9346 1.79982 31.81 1.96979 31.6995 1.96129C31.589 1.95279 31.4715 1.77716 31.3582 1.67802C31.4615 1.56612 31.555 1.382 31.6712 1.365C31.7873 1.348 31.9219 1.5038 32.1386 1.64261Z" fill="white"/>
<path d="M12.3662 19.4278H14.2386C13.6254 19.9136 13.0036 19.898 12.3662 19.4278Z" fill="#334480"/>
<path d="M12.726 18.612H13.825C13.5928 19.1077 13.1268 19.1247 12.726 18.612Z" fill="#334480"/>
</svg>
