<svg width="36" height="44" viewBox="0 0 36 44" fill="none" xmlns="http://www.w3.org/2000/svg">
<g opacity="0.25">
<path fill-rule="evenodd" clip-rule="evenodd" d="M13.8026 32.2168L16.688 35.1019C17.8026 36.2168 19.627 36.217 20.7421 35.1019L27.6184 28.2255H35.5799L22.0134 41.7921C20.1992 43.6061 17.2307 43.6061 15.4165 41.7921L9.76782 36.1434L13.8026 32.2168Z" fill="#F16318"/>
<path fill-rule="evenodd" clip-rule="evenodd" d="M21.2587 14.29L20.7422 13.7733C19.6271 12.6581 17.8027 12.6581 16.6881 13.7733C13.8089 16.6525 10.9297 19.5317 8.05051 22.4109C7.20553 23.2559 7.00082 24.509 7.43729 25.5513C7.8541 26.5539 11.484 29.8953 12.5358 30.7073L8.38845 34.764C6.04583 32.4213 3.70334 30.0785 1.36046 27.736C-0.453487 25.9219 -0.453487 22.9534 1.36046 21.1391L14.6788 7.84778L6.83119 3.8147e-06H14.7927C21.699 6.9069 28.674 13.7436 35.58 20.6497H27.6184L25.2449 18.2759L21.2587 14.29Z" fill="#1F304F"/>
<path d="M15.4165 41.7921C15.6025 41.9781 15.8007 42.1451 16.0085 42.2929C15.8007 42.1451 15.6026 41.9781 15.4165 41.7921ZM26.3347 29.5092L20.7421 35.1019C20.1846 35.6595 19.4498 35.9382 18.715 35.9382C17.9802 35.9382 17.2453 35.6593 16.688 35.1019L13.8026 32.2168L9.76782 36.1434L13.8026 32.2168L16.688 35.1019C17.2453 35.6593 17.9802 35.9382 18.715 35.9382C19.4498 35.9382 20.1846 35.6595 20.7421 35.1019L26.3347 29.5092Z" fill="white"/>
<path d="M26.3347 29.5092L20.7421 35.1019C20.1846 35.6595 19.4498 35.9382 18.715 35.9382C17.9802 35.9382 17.2453 35.6593 16.688 35.1019L13.8026 32.2168L9.76782 36.1434L15.4165 41.7921C15.6026 41.9781 15.8007 42.1451 16.0085 42.2929C16.814 42.8659 17.7641 43.1524 18.7145 43.1524C19.3666 43.1524 20.0188 43.0175 20.6241 42.7477C23.9138 39.2417 26.0273 34.6193 26.3347 29.5092Z" fill="#F2721D"/>
<path d="M18.715 12.9369C18.3835 12.9369 18.0519 12.9936 17.7366 13.1071C18.0519 12.9936 18.3832 12.9368 18.7147 12.937C19.3649 12.937 20.0151 13.1553 20.5425 13.5918C20.5422 13.5914 20.542 13.5911 20.5416 13.5907C20.0144 13.1548 19.3646 12.9369 18.715 12.9369ZM13.7386 8.78596L1.36046 21.1391C0.453485 22.0463 0 23.242 0 24.4376C0 23.242 0.453485 22.0463 1.36046 21.1391L13.7386 8.78596Z" fill="white"/>
<path d="M13.7386 8.786L1.36046 21.1391C0.453485 22.0463 0 23.242 0 24.4376C0 25.6333 0.453485 26.8289 1.36046 27.736C3.70334 30.0785 6.04583 32.4213 8.38845 34.764L12.5358 30.7073C11.484 29.8953 7.8541 26.5539 7.43728 25.5513C7.28889 25.1971 7.21463 24.8184 7.21437 24.4399C7.21384 23.7044 7.49268 22.9686 8.05051 22.4109C10.9297 19.5317 13.8089 16.6525 16.6881 13.7733C16.994 13.4673 17.3532 13.2452 17.7366 13.1072C18.0519 12.9936 18.3835 12.9369 18.715 12.9369C19.3646 12.9369 20.0144 13.1548 20.5416 13.5907C18.6257 11.5721 16.3169 9.9304 13.7386 8.786Z" fill="#1F304F"/>
</g>
</svg>
