<svg width="21" height="16" viewBox="0 0 21 16" fill="none" xmlns="http://www.w3.org/2000/svg">
<path d="M17.0051 7.47559C14.9696 5.36573 12.061 4.25775 8.35517 4.18172V0.417417C8.35517 0.248643 8.25322 0.0957312 8.09698 0.0313784C7.94074 -0.0321127 7.7619 0.00212004 7.64244 0.121621L0.122204 7.64185C-0.0407346 7.80479 -0.0407346 8.06968 0.122204 8.23262L7.64244 15.7529C7.76194 15.8732 7.94242 15.9091 8.09784 15.8431C8.25408 15.7787 8.35604 15.6258 8.35604 15.4571V11.7003C16.7511 11.8223 19.257 15.6392 19.2812 15.6768C19.359 15.8021 19.4943 15.8748 19.6364 15.8748C19.6715 15.8748 19.7074 15.8698 19.7434 15.8606C19.9213 15.813 20.0475 15.6559 20.0542 15.4712C20.06 15.2824 20.1845 10.772 17.0051 7.47559Z" fill="#212224"/>
</svg>
