<svg width="23" height="23" viewBox="0 0 23 23" fill="none" xmlns="http://www.w3.org/2000/svg">
<path d="M22.7303 11.3653C22.7303 5.08794 17.6419 0 11.3653 0C5.0884 0 0 5.08794 0 11.3653C0 17.6416 5.0884 22.73 11.3653 22.73C17.6419 22.73 22.7303 17.6416 22.7303 11.3653Z" fill="#25B7D3"/>
<path d="M14.4424 16.472C14.3789 16.3789 14.257 16.3458 14.1552 16.394C13.029 16.9272 11.7508 17.4908 11.5 17.54C11.4937 17.5344 11.4836 17.5241 11.4705 17.5063C11.4365 17.4602 11.4199 17.4001 11.4199 17.3223C11.4199 16.6853 11.9007 14.7474 12.8489 11.5628C13.6484 8.8871 13.7409 8.33308 13.7409 8.14915C13.7409 7.8652 13.6321 7.62528 13.4264 7.45527C13.2309 7.29406 12.9577 7.21237 12.6146 7.21237C12.0438 7.21237 11.3823 7.42907 10.5922 7.87487C9.82649 8.30702 8.97259 9.03896 8.05432 10.0504C7.98244 10.1296 7.97493 10.248 8.03623 10.3357C8.09762 10.4234 8.21146 10.4568 8.31046 10.4165C8.63284 10.2849 10.253 9.62124 10.4892 9.4729C10.6825 9.35168 10.8499 9.29016 10.9867 9.29016C10.9916 9.29016 10.9959 9.29034 10.9994 9.29061C11.001 9.29968 11.0026 9.31352 11.0026 9.33336C11.0026 9.47295 10.9739 9.63819 10.9176 9.82369C9.53696 14.2969 8.86585 17.0391 8.86585 18.2071C8.86585 18.6193 8.98042 18.9512 9.20633 19.1934C9.43653 19.4404 9.74705 19.5657 10.1293 19.5657C10.5366 19.5657 11.0323 19.3955 11.6447 19.0455C12.2374 18.7069 13.1419 17.9619 14.4101 16.7679C14.4923 16.6906 14.506 16.5651 14.4424 16.472Z" fill="white"/>
<path d="M14.3982 3.51241C14.1725 3.28147 13.8838 3.16438 13.5401 3.16438C13.1123 3.16438 12.7396 3.33347 12.4326 3.66699C12.1305 3.995 11.9773 4.39751 11.9773 4.86329C11.9773 5.2313 12.0901 5.53628 12.3126 5.76969C12.5381 6.00663 12.8229 6.12675 13.1591 6.12675C13.5695 6.12675 13.9401 5.94818 14.2607 5.59597C14.5757 5.24995 14.7355 4.84313 14.7355 4.38684C14.7355 4.03619 14.6221 3.74203 14.3982 3.51241Z" fill="white"/>
</svg>
