<svg width="21" height="21" viewBox="0 0 21 21" fill="none" xmlns="http://www.w3.org/2000/svg">
<rect opacity="0.3" x="0.661774" y="15.913" width="21.5474" height="6.23721" rx="3.11861" transform="rotate(-44.7793 0.661774 15.913)" fill="black"/>
<rect opacity="0.3" x="15.9119" y="20.365" width="21.5474" height="6.23721" rx="3.11861" transform="rotate(-134.959 15.9119 20.365)" fill="black"/>
<path d="M5.10202 8.20403C6.81521 8.20403 8.20403 6.81521 8.20403 5.10202C8.20403 3.38882 6.81521 2 5.10202 2C3.38882 2 2 3.38882 2 5.10202C2 6.81521 3.38882 8.20403 5.10202 8.20403Z" fill="black"/>
<path d="M5.10202 19C6.81521 19 8.20403 17.6112 8.20403 15.898C8.20403 14.1848 6.81521 12.796 5.10202 12.796C3.38882 12.796 2 14.1848 2 15.898C2 17.6112 3.38882 19 5.10202 19Z" fill="black"/>
<path d="M15.898 8.20403C17.6112 8.20403 19 6.81521 19 5.10202C19 3.38882 17.6112 2 15.898 2C14.1848 2 12.796 3.38882 12.796 5.10202C12.796 6.81521 14.1848 8.20403 15.898 8.20403Z" fill="black"/>
<path d="M15.898 19C17.6112 19 19 17.6112 19 15.898C19 14.1848 17.6112 12.796 15.898 12.796C14.1848 12.796 12.796 14.1848 12.796 15.898C12.796 17.6112 14.1848 19 15.898 19Z" fill="black"/>
</svg>
