<svg width="8" height="9" viewBox="0 0 8 9" fill="none" xmlns="http://www.w3.org/2000/svg">
<path d="M7.94405 4.36147L3.75393 0.0571369C3.71814 0.0204521 3.66963 -9.13635e-05 3.61908 3.48412e-07H0.190805C0.0856179 -0.000201418 0.000196707 0.087255 2.9554e-07 0.19531C-8.89825e-05 0.247402 0.0200521 0.297385 0.0559598 0.33418L4.11161 4.50001L0.0559598 8.66582C-0.018516 8.74212 -0.0186588 8.86601 0.0556205 8.94251C0.0914389 8.9794 0.140095 9.00009 0.190805 9H3.61908C3.66963 9.00009 3.71814 8.97955 3.75393 8.94286L7.94405 4.63851C8.01852 4.56221 8.01867 4.43832 7.94439 4.36182C7.94426 4.36171 7.94415 4.3616 7.94405 4.36147Z" />
</svg>
