<svg width="9" height="10" viewBox="0 0 9 10" fill="none" xmlns="http://www.w3.org/2000/svg">
<path d="M5.65893 10H1.67053C0.749375 10 0 9.29909 0 8.4375V3.14453C0 2.28294 0.749375 1.58203 1.67053 1.58203H5.65893C6.58009 1.58203 7.32947 2.28294 7.32947 3.14453V8.4375C7.32947 9.29909 6.58009 10 5.65893 10ZM1.67053 2.36328C1.21 2.36328 0.835267 2.71378 0.835267 3.14453V8.4375C0.835267 8.86826 1.21 9.21875 1.67053 9.21875H5.65893C6.11947 9.21875 6.4942 8.86826 6.4942 8.4375V3.14453C6.4942 2.71378 6.11947 2.36328 5.65893 2.36328H1.67053ZM9 7.46094V1.5625C9 0.700912 8.25063 0 7.32947 0H2.69374C2.46306 0 2.2761 0.174866 2.2761 0.390625C2.2761 0.606384 2.46306 0.78125 2.69374 0.78125H7.32947C7.79001 0.78125 8.16473 1.13174 8.16473 1.5625V7.46094C8.16473 7.6767 8.35169 7.85156 8.58237 7.85156C8.81304 7.85156 9 7.6767 9 7.46094Z" fill="black"/>
</svg>
