<svg width="39" height="38" viewBox="0 0 39 38" fill="none" xmlns="http://www.w3.org/2000/svg">
<path d="M38.25 18.9032C38.25 8.86981 29.8476 0.75 19.5 0.75C9.15245 0.75 0.75 8.86981 0.75 18.9032C0.75 28.9366 9.15245 37.0564 19.5 37.0564C29.8476 37.0564 38.25 28.9366 38.25 18.9032Z" fill="white" stroke="#EEEEEE" stroke-width="0.5"/>
<path d="M19.7309 25.9021L26.9048 18.5694C26.9659 18.5068 27.0002 18.4219 27 18.3334V12.3339C27.0003 12.1498 26.8546 12.0003 26.6745 12C26.5877 11.9998 26.5044 12.0351 26.443 12.0979L19.5 19.1953L12.557 12.0979C12.4298 11.9676 12.2233 11.9673 12.0958 12.0973C12.0343 12.16 11.9998 12.2452 12 12.3339L12 18.3334C11.9998 18.4219 12.0341 18.5068 12.0952 18.5694L19.2691 25.9021C19.3963 26.0324 19.6028 26.0327 19.7303 25.9027C19.7305 25.9025 19.7307 25.9023 19.7309 25.9021Z" fill="#EA0F0F" fill-opacity="0.17"/>
</svg>
