<svg width="22" height="23" viewBox="0 0 22 23" fill="none" xmlns="http://www.w3.org/2000/svg">
<path d="M6.97406 2.50636V0.366516H14.3039V2.50636" fill="#787680"/>
<path d="M10.639 22.3559C16.3064 22.3559 20.9007 17.7616 20.9007 12.0942C20.9007 6.4268 16.3064 1.83246 10.639 1.83246C4.9716 1.83246 0.377258 6.4268 0.377258 12.0942C0.377258 17.7616 4.9716 22.3559 10.639 22.3559Z" fill="#E0E0E2"/>
<path d="M10.639 20.89C15.4968 20.89 19.4348 16.952 19.4348 12.0942C19.4348 7.23647 15.4968 3.29846 10.639 3.29846C5.78121 3.29846 1.8432 7.23647 1.8432 12.0942C1.8432 16.952 5.78121 20.89 10.639 20.89Z" fill="#3D9AE2"/>
<path d="M18.1543 4.57889C17.159 3.58028 15.9746 2.79007 14.6704 2.25442V0.366491C14.6704 0.269291 14.6318 0.176073 14.563 0.107343C14.4943 0.0386123 14.4011 0 14.3039 0H6.97406C6.87686 0 6.78364 0.0386123 6.71491 0.107343C6.64618 0.176073 6.60757 0.269291 6.60757 0.366491V2.25442C4.49436 3.11887 2.7155 4.64053 1.53413 6.59432C0.352753 8.54811 -0.168392 10.8303 0.0477798 13.1032C0.263952 15.3761 1.20596 17.5191 2.73446 19.2152C4.26296 20.9112 6.29678 22.0703 8.53506 22.5209C10.7733 22.9714 13.0972 22.6896 15.1629 21.7171C17.2286 20.7446 18.9265 19.1331 20.0053 17.1208C21.0841 15.1086 21.4866 12.8026 21.1533 10.5438C20.8199 8.28513 19.7684 6.19369 18.1543 4.57889ZM7.34055 0.732982H13.9374V1.98565C11.793 1.29274 9.48491 1.29274 7.34055 1.98565V0.732982ZM17.636 19.0912C16.7174 20.0114 15.6265 20.7416 14.4256 21.24C13.2247 21.7385 11.9373 21.9953 10.6371 21.9959C9.33685 21.9965 8.04925 21.7408 6.84788 21.2435C5.64651 20.7462 4.55493 20.017 3.63553 19.0976C2.71613 18.1782 1.98693 17.0867 1.48963 15.8853C0.992335 14.6839 0.736677 13.3963 0.737276 12.0961C0.737875 10.7959 0.994718 9.50849 1.49312 8.30758C1.99153 7.10667 2.72173 6.01576 3.64197 5.0972C4.56053 4.17695 5.65144 3.44676 6.85235 2.94835C8.05326 2.44995 9.34063 2.1931 10.6409 2.1925C11.9411 2.19191 13.2287 2.44756 14.4301 2.94486C15.6314 3.44216 16.723 4.17135 17.6424 5.09076C18.5618 6.01016 19.291 7.10174 19.7883 8.30311C20.2856 9.50448 20.5413 10.7921 20.5407 12.0923C20.5401 13.3925 20.2832 14.6799 19.7848 15.8808C19.2864 17.0817 18.5562 18.1726 17.636 19.0912Z" fill="black"/>
<path d="M10.639 2.93195C5.58688 2.93195 1.47668 7.04214 1.47668 12.0942C1.47668 17.1463 5.58688 21.2565 10.639 21.2565C15.691 21.2565 19.8012 17.1463 19.8012 12.0942C19.8012 7.04214 15.691 2.93195 10.639 2.93195ZM10.639 20.5235C5.99103 20.5235 2.20967 16.7421 2.20967 12.0942C2.20967 7.44629 5.99103 3.66493 10.639 3.66493C15.2869 3.66493 19.0682 7.44629 19.0682 12.0942C19.0682 16.7421 15.2869 20.5235 10.639 20.5235Z" fill="black"/>
<path d="M6.60759 13.5602V9.16227C6.60759 9.06507 6.56897 8.97185 6.50024 8.90312C6.43151 8.83439 6.33829 8.79578 6.2411 8.79578H4.04215C3.94495 8.79578 3.85173 8.83439 3.783 8.90312C3.71427 8.97185 3.67566 9.06507 3.67566 9.16227V13.5602C3.67566 13.6574 3.71427 13.7506 3.783 13.8193C3.85173 13.888 3.94495 13.9266 4.04215 13.9266H6.2411C6.33829 13.9266 6.43151 13.888 6.50024 13.8193C6.56897 13.7506 6.60759 13.6574 6.60759 13.5602ZM5.8746 13.1937H4.40864V9.52876H5.8746V13.1937Z" fill="black"/>
<path d="M7.34055 13.9266H9.5395C9.6367 13.9266 9.72991 13.888 9.79864 13.8193C9.86738 13.7506 9.90599 13.6574 9.90599 13.5602V9.16227C9.90599 9.06507 9.86738 8.97185 9.79864 8.90312C9.72991 8.83439 9.6367 8.79578 9.5395 8.79578H7.34055C7.24335 8.79578 7.15013 8.83439 7.0814 8.90312C7.01267 8.97185 6.97406 9.06507 6.97406 9.16227V13.5602C6.97406 13.6574 7.01267 13.7506 7.0814 13.8193C7.15013 13.888 7.24335 13.9266 7.34055 13.9266ZM7.70704 9.52876H9.17301V13.1937H7.70704V9.52876Z" fill="black"/>
<path d="M11.7384 13.9266H13.9374C14.0346 13.9266 14.1278 13.888 14.1965 13.8193C14.2653 13.7506 14.3039 13.6574 14.3039 13.5602V9.16227C14.3039 9.06507 14.2653 8.97185 14.1965 8.90312C14.1278 8.83439 14.0346 8.79578 13.9374 8.79578H11.7384C11.6412 8.79578 11.548 8.83439 11.4793 8.90312C11.4106 8.97185 11.3719 9.06507 11.3719 9.16227V13.5602C11.3719 13.6574 11.4106 13.7506 11.4793 13.8193C11.548 13.888 11.6412 13.9266 11.7384 13.9266ZM12.1049 9.52876H13.5709V13.1937H12.1049V9.52876Z" fill="black"/>
<path d="M17.2358 8.79578H15.0368C14.9396 8.79578 14.8464 8.83439 14.7777 8.90312C14.709 8.97185 14.6703 9.06507 14.6703 9.16227V13.5602C14.6703 13.6574 14.709 13.7506 14.7777 13.8193C14.8464 13.888 14.9396 13.9266 15.0368 13.9266H17.2358C17.333 13.9266 17.4262 13.888 17.4949 13.8193C17.5637 13.7506 17.6023 13.6574 17.6023 13.5602V9.16227C17.6023 9.06507 17.5637 8.97185 17.4949 8.90312C17.4262 8.83439 17.333 8.79578 17.2358 8.79578ZM16.8693 13.1937H15.4033V9.52876H16.8693V13.1937Z" fill="black"/>
<path d="M10.639 10.9947C10.7362 10.9947 10.8294 10.9561 10.8982 10.8874C10.9669 10.8187 11.0055 10.7254 11.0055 10.6282V10.2618C11.0055 10.1646 10.9669 10.0713 10.8982 10.0026C10.8294 9.93388 10.7362 9.89526 10.639 9.89526C10.5418 9.89526 10.4486 9.93388 10.3799 10.0026C10.3111 10.0713 10.2725 10.1646 10.2725 10.2618V10.6282C10.2725 10.7254 10.3111 10.8187 10.3799 10.8874C10.4486 10.9561 10.5418 10.9947 10.639 10.9947Z" fill="black"/>
<path d="M10.639 12.8272C10.7362 12.8272 10.8294 12.7886 10.8982 12.7199C10.9669 12.6511 11.0055 12.5579 11.0055 12.4607V12.0942C11.0055 11.997 10.9669 11.9038 10.8982 11.8351C10.8294 11.7663 10.7362 11.7277 10.639 11.7277C10.5418 11.7277 10.4486 11.7663 10.3799 11.8351C10.3111 11.9038 10.2725 11.997 10.2725 12.0942V12.4607C10.2725 12.5579 10.3111 12.6511 10.3799 12.7199C10.4486 12.7886 10.5418 12.8272 10.639 12.8272Z" fill="black"/>
<path d="M16.1364 15.0261H5.14164C5.04444 15.0261 4.95122 15.0647 4.88249 15.1335C4.81376 15.2022 4.77515 15.2954 4.77515 15.3926C4.77515 15.4898 4.81376 15.583 4.88249 15.6518C4.95122 15.7205 5.04444 15.7591 5.14164 15.7591H16.1364C16.2336 15.7591 16.3268 15.7205 16.3955 15.6518C16.4642 15.583 16.5029 15.4898 16.5029 15.3926C16.5029 15.2954 16.4642 15.2022 16.3955 15.1335C16.3268 15.0647 16.2336 15.0261 16.1364 15.0261Z" fill="black"/>
<path d="M12.8379 16.1256H8.44004C8.34284 16.1256 8.24962 16.1642 8.18089 16.233C8.11216 16.3017 8.07355 16.3949 8.07355 16.4921C8.07355 16.5893 8.11216 16.6825 8.18089 16.7512C8.24962 16.82 8.34284 16.8586 8.44004 16.8586H12.8379C12.9351 16.8586 13.0283 16.82 13.0971 16.7512C13.1658 16.6825 13.2044 16.5893 13.2044 16.4921C13.2044 16.3949 13.1658 16.3017 13.0971 16.233C13.0283 16.1642 12.9351 16.1256 12.8379 16.1256Z" fill="black"/>
</svg>
