<svg width="20" height="20" viewBox="0 0 20 20" fill="none" xmlns="http://www.w3.org/2000/svg">
<path d="M19.0932 0.202524C18.8899 -0.000803682 18.6413 -0.0459877 18.4154 0.0443803L3.21101 6.14422C2.9625 6.23459 2.80435 6.50569 2.80435 6.75421C2.80435 7.00272 3.00768 7.25123 3.25619 7.3416L9.92083 9.39747L11.9767 16.0395C12.0445 16.288 12.2704 16.4688 12.5641 16.4914H12.5867C12.8352 16.4914 13.0611 16.3332 13.1741 16.0847L19.2513 0.880285C19.3417 0.654365 19.2965 0.38326 19.0932 0.202524Z" fill="white"/>
<path d="M5.14864 13.0716L1.80994 16.4103L2.70453 17.3049L6.04323 13.9662L5.14864 13.0716Z" fill="white"/>
<path d="M3.3387 9.48063L0 12.8193L0.894589 13.7139L4.23329 10.3752L3.3387 9.48063Z" fill="white"/>
<path d="M8.73324 14.8675L5.39453 18.2062L6.28912 19.1008L9.62782 15.7621L8.73324 14.8675Z" fill="white"/>
</svg>
