<svg width="17" height="17" viewBox="0 0 17 17" fill="none" xmlns="http://www.w3.org/2000/svg">
<path d="M3.10202 6.20403C4.81521 6.20403 6.20403 4.81521 6.20403 3.10202C6.20403 1.38882 4.81521 0 3.10202 0C1.38882 0 0 1.38882 0 3.10202C0 4.81521 1.38882 6.20403 3.10202 6.20403Z" fill="black"/>
<path d="M3.10202 17C4.81521 17 6.20403 15.6112 6.20403 13.898C6.20403 12.1848 4.81521 10.796 3.10202 10.796C1.38882 10.796 0 12.1848 0 13.898C0 15.6112 1.38882 17 3.10202 17Z" fill="black"/>
<path d="M13.898 6.20403C15.6112 6.20403 17 4.81521 17 3.10202C17 1.38882 15.6112 0 13.898 0C12.1848 0 10.796 1.38882 10.796 3.10202C10.796 4.81521 12.1848 6.20403 13.898 6.20403Z" fill="black"/>
<path d="M13.898 17C15.6112 17 17 15.6112 17 13.898C17 12.1848 15.6112 10.796 13.898 10.796C12.1848 10.796 10.796 12.1848 10.796 13.898C10.796 15.6112 12.1848 17 13.898 17Z" fill="black"/>
</svg>
