<svg width="35" height="39" viewBox="0 0 35 39" fill="none" xmlns="http://www.w3.org/2000/svg">
<path d="M17.2373 12.773C16.441 12.773 15.6626 13.0091 15.0005 13.4515C14.3384 13.8939 13.8224 14.5227 13.5176 15.2584C13.2129 15.9941 13.1332 16.8036 13.2885 17.5846C13.4439 18.3656 13.8273 19.083 14.3904 19.6461C14.9535 20.2091 15.6708 20.5926 16.4518 20.7479C17.2328 20.9033 18.0424 20.8235 18.778 20.5188C19.5137 20.2141 20.1425 19.698 20.5849 19.0359C21.0273 18.3739 21.2634 17.5954 21.2634 16.7991C21.2634 15.7313 20.8393 14.7073 20.0842 13.9522C19.3292 13.1972 18.3051 12.773 17.2373 12.773ZM17.2373 19.4832C16.7064 19.4832 16.1875 19.3258 15.7461 19.0309C15.3047 18.736 14.9607 18.3168 14.7575 17.8263C14.5544 17.3358 14.5012 16.7962 14.6048 16.2755C14.7083 15.7548 14.964 15.2766 15.3394 14.9012C15.7147 14.5258 16.193 14.2702 16.7137 14.1666C17.2343 14.0631 17.774 14.1162 18.2645 14.3194C18.7549 14.5225 19.1741 14.8665 19.469 15.3079C19.764 15.7493 19.9214 16.2683 19.9214 16.7991C19.9214 17.511 19.6386 18.1937 19.1352 18.6971C18.6319 19.2004 17.9492 19.4832 17.2373 19.4832Z" fill="#3D4353"/>
<path d="M32.6709 25.348V24.1804H31.3288V25.2339C30.7677 25.3144 30.25 25.5815 29.8593 25.9922L26.2626 23.9187C26.9467 22.5402 27.3026 21.0221 27.3026 19.4832C27.3026 17.9443 26.9467 16.4263 26.2626 15.0478L29.8593 12.9743C30.2545 13.3801 30.7697 13.6483 31.3288 13.7393V14.7861H32.6709V13.6185C32.8228 13.5667 32.969 13.4992 33.107 13.4172C33.7223 13.0608 34.171 12.4748 34.3547 11.7879C34.5384 11.101 34.442 10.3693 34.0867 9.75337C33.9136 9.44708 33.6806 9.17874 33.4016 8.96432C33.1226 8.74991 32.8034 8.59379 32.4628 8.50527C32.0442 8.39298 31.6045 8.38377 31.1815 8.47842C30.7584 8.57308 30.3646 8.76878 30.0337 9.0488L29.0205 8.46501L28.3495 9.62588L29.2688 10.156C29.0648 10.6832 29.0366 11.2622 29.1882 11.8067L25.5983 13.8802C24.7401 12.6034 23.6008 11.5403 22.2677 10.7726C20.9346 10.0048 19.4433 9.55288 17.9083 9.45141V5.29777C18.456 5.15489 18.9446 4.84252 19.3041 4.40531L20.2166 4.92871L20.8877 3.76784L19.8744 3.18404C19.948 2.79611 19.935 2.39673 19.8365 2.01437C19.738 1.63201 19.5563 1.2761 19.3045 0.972012C19.0526 0.667922 18.7368 0.423143 18.3794 0.255128C18.0221 0.0871131 17.6321 0 17.2373 0C16.8425 0 16.4525 0.0871131 16.0952 0.255128C15.7378 0.423143 15.422 0.667922 15.1701 0.972012C14.9183 1.2761 14.7366 1.63201 14.6381 2.01437C14.5396 2.39673 14.5266 2.79611 14.6002 3.18404L13.5869 3.76784L14.258 4.92871L15.1773 4.40531C15.535 4.84134 16.021 5.15361 16.5663 5.29777V9.45141C15.0313 9.55288 13.54 10.0048 12.2069 10.7726C10.8738 11.5403 9.73446 12.6034 8.87634 13.8802L5.28636 11.8067C5.43804 11.2622 5.4098 10.6832 5.20583 10.156L6.12514 9.62588L5.45411 8.46501L4.44087 9.0488C4.14148 8.79199 3.78916 8.60432 3.409 8.49915C3.02884 8.39398 2.63016 8.3739 2.24135 8.44032C1.85254 8.50674 1.48315 8.65804 1.15946 8.88345C0.835775 9.10887 0.565745 9.40285 0.368589 9.74449C0.171434 10.0861 0.0519987 10.467 0.0187822 10.8601C-0.0144343 11.2531 0.0393845 11.6486 0.176409 12.0185C0.313434 12.3884 0.530295 12.7235 0.811564 13.0001C1.09283 13.2766 1.43159 13.4877 1.80374 13.6185V14.7861H3.14579V13.7393C3.7054 13.6497 4.22096 13.3813 4.61533 12.9743L8.21202 15.0478C7.52795 16.4263 7.172 17.9443 7.172 19.4832C7.172 21.0221 7.52795 22.5402 8.21202 23.9187L4.61533 25.9922C4.22457 25.5815 3.70691 25.3144 3.14579 25.2339V24.1804H1.80374V25.348C1.65291 25.4026 1.507 25.4699 1.36758 25.5493C1.04063 25.7333 0.755888 25.9838 0.531732 26.2847C0.307576 26.5855 0.148981 26.93 0.0661815 27.296C-0.0166183 27.6619 -0.0217841 28.0411 0.0510175 28.4092C0.123819 28.7772 0.272971 29.1259 0.488849 29.4328C0.704727 29.7396 0.982536 29.9978 1.30435 30.1907C1.62617 30.3835 1.98484 30.5068 2.35723 30.5525C2.72961 30.5981 3.10744 30.5653 3.46633 30.4559C3.82523 30.3466 4.15721 30.1632 4.44087 29.9177L5.45411 30.5014L6.12514 29.3406L5.20583 28.8105C5.4098 28.2833 5.43804 27.7043 5.28636 27.1597L8.87634 25.0863C9.73084 26.3693 10.8686 27.4388 12.2019 28.2125C13.5352 28.9862 15.0284 29.4433 16.5663 29.5486V33.7022C16.0186 33.8451 15.53 34.1575 15.1705 34.5947L14.258 34.0713L13.5869 35.2322L14.6002 35.816C14.5266 36.2039 14.5396 36.6033 14.6381 36.9856C14.7366 37.368 14.9183 37.7239 15.1701 38.028C15.422 38.3321 15.7378 38.5769 16.0952 38.7449C16.4525 38.9129 16.8425 39 17.2373 39C17.6321 39 18.0221 38.9129 18.3794 38.7449C18.7368 38.5769 19.0526 38.3321 19.3045 38.028C19.5563 37.7239 19.738 37.368 19.8365 36.9856C19.935 36.6033 19.948 36.2039 19.8744 35.816L20.8877 35.2322L20.2166 34.0713L19.2973 34.5947C18.9445 34.1462 18.458 33.8219 17.9083 33.6687V29.5486C19.4433 29.4471 20.9346 28.9952 22.2677 28.2274C23.6008 27.4597 24.7401 26.3966 25.5983 25.1198L29.1882 27.1933C29.0366 27.7378 29.0648 28.3168 29.2688 28.844L28.3495 29.3741L29.0205 30.535L30.0337 29.9512C30.3363 30.1928 30.6876 30.366 31.0634 30.459C31.4392 30.552 31.8307 30.5627 32.2111 30.4901C32.5914 30.4176 32.9515 30.2637 33.2667 30.0389C33.582 29.8141 33.8448 29.5237 34.0373 29.1878C34.2298 28.8518 34.3473 28.4782 34.3817 28.0926C34.4162 27.707 34.3669 27.3184 34.2371 26.9537C34.1073 26.5889 33.9001 26.2565 33.6297 25.9794C33.3594 25.7022 33.0323 25.4868 32.6709 25.348ZM31.094 9.91442C31.3237 9.78133 31.5878 9.71939 31.8528 9.73645C32.1178 9.7535 32.3718 9.84878 32.5826 10.0102C32.7934 10.1717 32.9516 10.392 33.0371 10.6434C33.1227 10.8948 33.1317 11.1659 33.0631 11.4224C32.9945 11.6789 32.8514 11.9093 32.6518 12.0845C32.4522 12.2596 32.2051 12.3716 31.9419 12.4063C31.6786 12.441 31.411 12.3968 31.1728 12.2793C30.9347 12.1618 30.7368 11.9763 30.6041 11.7463C30.4328 11.4402 30.3881 11.0792 30.4797 10.7406C30.5712 10.4019 30.7917 10.1126 31.094 9.93455V9.91442ZM3.05856 12.3905C2.84526 12.4484 2.62097 12.4527 2.40561 12.4031C2.19025 12.3534 1.99048 12.2514 1.82404 12.1059C1.65761 11.9605 1.52966 11.7763 1.45157 11.5695C1.37347 11.3628 1.34765 11.1399 1.37639 10.9208C1.40513 10.7017 1.48754 10.493 1.61631 10.3134C1.74507 10.1338 1.91621 9.98872 2.11451 9.89114C2.31281 9.79356 2.53214 9.74647 2.75302 9.75404C2.9739 9.76161 3.1895 9.82362 3.38065 9.93455C3.60969 10.0675 3.79428 10.2652 3.9112 10.5028C4.02812 10.7404 4.07213 11.0073 4.0377 11.2698C4.00326 11.5324 3.89192 11.7789 3.71769 11.9783C3.54346 12.1777 3.31412 12.3211 3.05856 12.3905ZM4.0047 28.2065C3.92415 28.5063 3.74216 28.7689 3.48974 28.9496C3.23732 29.1303 2.93007 29.2178 2.62033 29.1974C2.31059 29.177 2.0175 29.0498 1.79099 28.8376C1.56448 28.6253 1.41855 28.3411 1.37805 28.0333C1.33755 27.7256 1.405 27.4133 1.5689 27.1497C1.73279 26.8861 1.98301 26.6874 2.27693 26.5875C2.57084 26.4877 2.89029 26.4928 3.18085 26.602C3.47142 26.7113 3.71514 26.9178 3.8705 27.1866C3.95885 27.3394 4.01618 27.5082 4.03921 27.6832C4.06224 27.8582 4.05051 28.0361 4.0047 28.2065ZM15.8953 2.70762C15.8953 2.44218 15.974 2.18271 16.1214 1.96201C16.2689 1.74132 16.4785 1.5693 16.7237 1.46773C16.9689 1.36615 17.2388 1.33957 17.4991 1.39136C17.7595 1.44314 17.9986 1.57096 18.1863 1.75865C18.374 1.94633 18.5018 2.18546 18.5536 2.4458C18.6053 2.70613 18.5788 2.97597 18.4772 3.2212C18.3756 3.46642 18.2036 3.67602 17.9829 3.82349C17.7622 3.97096 17.5027 4.04967 17.2373 4.04967C16.8814 4.04967 16.54 3.90827 16.2883 3.65659C16.0366 3.40491 15.8953 3.06355 15.8953 2.70762ZM12.5938 26.8645C12.7631 25.7543 13.3246 24.7415 14.1765 24.0096C15.0284 23.2778 16.1142 22.8754 17.2373 22.8754C18.3604 22.8754 19.4462 23.2778 20.2981 24.0096C21.15 24.7415 21.7115 25.7543 21.8808 26.8645C20.4939 27.7499 18.8827 28.2203 17.2373 28.2203C15.5919 28.2203 13.9807 27.7499 12.5938 26.8645ZM18.5793 36.2588C18.5793 36.5243 18.5006 36.7837 18.3532 37.0044C18.2057 37.2251 17.9961 37.3971 17.7509 37.4987C17.5057 37.6003 17.2358 37.6269 16.9755 37.5751C16.7151 37.5233 16.476 37.3955 16.2883 37.2078C16.1006 37.0201 15.9728 36.781 15.921 36.5207C15.8693 36.2603 15.8958 35.9905 15.9974 35.7453C16.099 35.5 16.271 35.2904 16.4917 35.143C16.7124 34.9955 16.9719 34.9168 17.2373 34.9168C17.5932 34.9168 17.9346 35.0582 18.1863 35.3099C18.438 35.5615 18.5793 35.9029 18.5793 36.2588ZM23.0618 25.9586C22.712 24.6821 21.9525 23.5558 20.9002 22.7531C19.8478 21.9503 18.5609 21.5155 17.2373 21.5155C15.9137 21.5155 14.6268 21.9503 13.5744 22.7531C12.5221 23.5558 11.7626 24.6821 11.4128 25.9586C10.0984 24.7797 9.17265 23.2296 8.75797 21.5134C8.3433 19.7971 8.4592 17.9954 9.09037 16.3464C9.72153 14.6974 10.8382 13.2787 12.2929 12.2779C13.7475 11.2771 15.4716 10.7413 17.2373 10.7413C19.003 10.7413 20.7271 11.2771 22.1817 12.2779C23.6364 13.2787 24.7531 14.6974 25.3842 16.3464C26.0154 17.9954 26.1313 19.7971 25.7166 21.5134C25.302 23.2296 24.3762 24.7797 23.0618 25.9586ZM32.9258 28.5421C32.7932 28.7721 32.5952 28.9575 32.3571 29.075C32.119 29.1925 31.8513 29.2367 31.5881 29.202C31.3248 29.1673 31.0778 29.0553 30.8782 28.8802C30.6786 28.7051 30.5354 28.4747 30.4669 28.2181C30.3983 27.9616 30.4073 27.6905 30.4928 27.4391C30.5784 27.1878 30.7366 26.9674 30.9474 26.806C31.1582 26.6445 31.4122 26.5492 31.6772 26.5322C31.9421 26.5151 32.2062 26.5771 32.436 26.7102C32.7436 26.8883 32.968 27.1813 33.0598 27.5248C33.1517 27.8682 33.1035 28.2341 32.9258 28.5421Z" fill="#3D4353"/>
<path d="M1.80377 16.1281H3.14582V17.4702H1.80377V16.1281Z" fill="#3D4353"/>
<path d="M1.80377 21.4963H3.14582V22.8384H1.80377V21.4963Z" fill="#3D4353"/>
<path d="M1.80377 18.8122H3.14582V20.1543H1.80377V18.8122Z" fill="#3D4353"/>
<path d="M6.61584 31.1667L7.28687 30.0044L8.44908 30.6755L7.77806 31.8377L6.61584 31.1667Z" fill="#3D4353"/>
<path d="M8.93896 32.5112L9.60999 31.3489L10.7722 32.02L10.1012 33.1822L8.93896 32.5112Z" fill="#3D4353"/>
<path d="M11.262 33.8557L11.933 32.6934L13.0953 33.3645L12.4242 34.5267L11.262 33.8557Z" fill="#3D4353"/>
<path d="M21.378 33.3569L22.5402 32.6858L23.2112 33.8481L22.049 34.5191L21.378 33.3569Z" fill="#3D4353"/>
<path d="M23.704 32.0135L24.8662 31.3424L25.5372 32.5046L24.375 33.1757L23.704 32.0135Z" fill="#3D4353"/>
<path d="M26.0233 30.6768L27.1855 30.0058L27.8565 31.168L26.6943 31.839L26.0233 30.6768Z" fill="#3D4353"/>
<path d="M31.3288 16.1281H32.6709V17.4702H31.3288V16.1281Z" fill="#3D4353"/>
<path d="M31.3288 18.8122H32.6709V20.1543H31.3288V18.8122Z" fill="#3D4353"/>
<path d="M31.3288 21.4963H32.6709V22.8384H31.3288V21.4963Z" fill="#3D4353"/>
<path d="M21.382 5.59929L22.053 4.43707L23.2153 5.1081L22.5442 6.27031L21.382 5.59929Z" fill="#3D4353"/>
<path d="M23.7051 6.94379L24.3761 5.78157L25.5383 6.4526L24.8673 7.61481L23.7051 6.94379Z" fill="#3D4353"/>
<path d="M26.0282 8.28828L26.6992 7.12607L27.8614 7.79709L27.1904 8.95931L26.0282 8.28828Z" fill="#3D4353"/>
<path d="M11.2594 5.11438L12.4216 4.44336L13.0926 5.60557L11.9304 6.27659L11.2594 5.11438Z" fill="#3D4353"/>
<path d="M6.62079 7.79446L7.783 7.12344L8.45403 8.28565L7.29181 8.95668L6.62079 7.79446Z" fill="#3D4353"/>
<path d="M8.94006 6.45105L10.1023 5.78003L10.7733 6.94224L9.61109 7.61326L8.94006 6.45105Z" fill="#3D4353"/>
</svg>
