<svg width="17" height="17" viewBox="0 0 17 17" fill="none" xmlns="http://www.w3.org/2000/svg">
<path d="M6.80006 1.74779C4.59029 3.95755 4.50244 7.46639 6.4835 9.81208L5.6752 10.6204C5.1236 10.3498 4.44632 10.408 3.96136 10.8314L0.662502 13.6982C-0.17146 14.4041 -0.227506 15.6765 0.547951 16.452C1.32792 17.232 2.60106 17.1647 3.29723 16.3433L6.16827 13.039C6.59191 12.5537 6.65008 11.8764 6.37961 11.3247L7.18783 10.5165C9.53357 12.4976 13.0424 12.4097 15.2522 10.2C17.5826 7.86957 17.5826 4.07821 15.2522 1.74782C12.9218 -0.582569 9.13045 -0.582635 6.80006 1.74779ZM13.8435 8.79119C12.29 10.3447 9.76223 10.3447 8.2087 8.79119C6.65522 7.23772 6.65522 4.7099 8.2087 3.15643C9.76223 1.60296 12.29 1.60296 13.8435 3.15643C15.3969 4.7099 15.397 7.23772 13.8435 8.79119Z" fill="#18191D"/>
</svg>
