<svg width="20" height="21" viewBox="0 0 20 21" fill="none" xmlns="http://www.w3.org/2000/svg">
<path d="M8.82343 13.4412C8.51167 13.44 8.21343 13.3153 7.99401 13.0941L6.22933 11.3294C5.76991 10.87 5.76991 10.1241 6.22933 9.66474C6.68874 9.20537 7.43464 9.20533 7.89401 9.66474L8.88811 10.6588L12.1764 7.84119C12.7158 7.47884 13.4469 7.62295 13.8087 8.16236C14.1093 8.6106 14.0669 9.20529 13.7058 9.60588L9.58811 13.1353C9.37815 13.3259 9.10698 13.4347 8.82343 13.4412Z" fill="#66C430"/>
<path d="M10 20.5C4.47707 20.5 0 16.0229 0 10.5C0 4.97707 4.47707 0.5 10 0.5C15.5229 0.5 20 4.97707 20 10.5C20 16.0229 15.5229 20.5 10 20.5ZM10 2.85293C5.77648 2.85293 2.35293 6.27648 2.35293 10.5C2.35293 14.7235 5.77648 18.1471 10 18.1471C14.2235 18.1471 17.6471 14.7235 17.6471 10.5C17.6471 6.27648 14.2235 2.85293 10 2.85293Z" fill="#66C430"/>
</svg>
