<svg width="25" height="25" viewBox="0 0 25 25" fill="none" xmlns="http://www.w3.org/2000/svg">
<path d="M22.8342 24.8C21.7484 24.8 20.8683 23.9533 20.8683 22.9088V4.13331C20.8683 3.57652 20.417 3.12518 19.8602 3.12518H1.00813C0.451341 3.12518 0 3.57657 0 4.13331V22.9088C0 23.9533 0.880158 24.8 1.96584 24.8H22.8342Z" fill="#E7ECF6"/>
<path d="M1.61304 13.9575V21.0245C1.61304 21.3001 1.83643 21.5235 2.11204 21.5235H8.17094C8.44655 21.5235 8.66995 21.3001 8.66995 21.0245V13.9575C8.66995 13.6819 8.44655 13.4585 8.17094 13.4585H2.11204C1.83643 13.4585 1.61304 13.6819 1.61304 13.9575Z" fill="#DF75A5"/>
<path d="M1.61304 5.13692V10.9932C1.61304 11.2413 1.8141 11.4423 2.06215 11.4423H18.8062C19.0543 11.4423 19.2553 11.2413 19.2553 10.9932V5.13692C19.2553 4.88887 19.0543 4.68781 18.8062 4.68781H2.0621C1.8141 4.68781 1.61304 4.88892 1.61304 5.13692Z" fill="#FFE07D"/>
<path d="M23.8171 0C23.2742 0 22.8341 0.440055 22.8341 0.982942V18.7008C22.8341 19.2576 22.3828 19.709 21.826 19.709H20.8683V4.13332C20.8683 3.57653 20.417 3.12519 19.8602 3.12519H2.06671V0.982942C2.06671 0.440055 2.50677 0 3.04961 0L23.8171 0Z" fill="#D8E2F1"/>
<path d="M20.8683 22.9088C20.8683 23.9533 21.7484 24.8 22.8342 24.8C23.9198 24.8 24.8 23.9533 24.8 22.9088V1.00649C24.8 0.473532 24.3856 0.0195756 23.8529 0.000636584C23.2937 -0.0192228 22.8341 0.428146 22.8341 0.982949V18.7009C22.8341 19.2576 22.3828 19.709 21.826 19.709H20.8683V22.9088Z" fill="#A2B9E2"/>
<path d="M18.881 13.8328H10.6862C10.4795 13.8328 10.312 13.6653 10.312 13.4586C10.312 13.2519 10.4795 13.0844 10.6862 13.0844H18.881C19.0877 13.0844 19.2553 13.2519 19.2553 13.4586C19.2553 13.6653 19.0877 13.8328 18.881 13.8328Z" fill="#5E54AC"/>
<path d="M18.881 15.4458H10.6862C10.4795 15.4458 10.312 15.2782 10.312 15.0716C10.312 14.8649 10.4795 14.6973 10.6862 14.6973H18.881C19.0877 14.6973 19.2553 14.8649 19.2553 15.0716C19.2553 15.2782 19.0877 15.4458 18.881 15.4458Z" fill="#5E54AC"/>
<path d="M18.881 17.0588H10.6862C10.4795 17.0588 10.312 16.8913 10.312 16.6846C10.312 16.4779 10.4795 16.3104 10.6862 16.3104H18.881C19.0877 16.3104 19.2553 16.4779 19.2553 16.6846C19.2553 16.8913 19.0877 17.0588 18.881 17.0588Z" fill="#5E54AC"/>
<path d="M18.881 18.6718H10.6862C10.4795 18.6718 10.312 18.5043 10.312 18.2976C10.312 18.0909 10.4795 17.9233 10.6862 17.9233H18.881C19.0877 17.9233 19.2553 18.0909 19.2553 18.2976C19.2553 18.5043 19.0877 18.6718 18.881 18.6718Z" fill="#5E54AC"/>
<path d="M18.881 20.2848H10.6862C10.4795 20.2848 10.312 20.1173 10.312 19.9106C10.312 19.7039 10.4795 19.5364 10.6862 19.5364H18.881C19.0877 19.5364 19.2553 19.7039 19.2553 19.9106C19.2553 20.1173 19.0877 20.2848 18.881 20.2848Z" fill="#5E54AC"/>
<path d="M18.881 21.8978H10.6862C10.4795 21.8978 10.312 21.7303 10.312 21.5236C10.312 21.3169 10.4795 21.1494 10.6862 21.1494H18.881C19.0877 21.1494 19.2553 21.3169 19.2553 21.5236C19.2553 21.7303 19.0877 21.8978 18.881 21.8978Z" fill="#5E54AC"/>
<path d="M18.8811 23.5108H1.98727C1.78058 23.5108 1.61304 23.3433 1.61304 23.1366C1.61304 22.9299 1.78058 22.7624 1.98727 22.7624H18.8811C19.0877 22.7624 19.2553 22.9299 19.2553 23.1366C19.2553 23.3433 19.0877 23.5108 18.8811 23.5108Z" fill="#5E54AC"/>
<path d="M3.09005 10.2035C2.88337 10.2035 2.71582 10.036 2.71582 9.82928V6.30739C2.71582 6.14362 2.82233 5.99884 2.97869 5.95012C3.1351 5.90139 3.30497 5.95995 3.39801 6.09475L5.17833 8.67274L5.15542 6.30448C5.15344 6.0978 5.31934 5.92861 5.52602 5.92662C5.52723 5.92657 5.52849 5.92657 5.5297 5.92657C5.73469 5.92657 5.90189 6.09175 5.90383 6.29722L5.93682 9.70673C5.93687 9.91826 5.82008 10.0891 5.63941 10.1455C5.463 10.2007 5.27613 10.1312 5.16351 9.96849L3.46433 7.50796V9.82933C3.46428 10.036 3.29673 10.2035 3.09005 10.2035Z" fill="#9DC6FB"/>
<path d="M8.63172 9.45502H7.51921V8.43928H8.52206C8.72874 8.43928 8.89629 8.27174 8.89629 8.06505C8.89629 7.85837 8.72874 7.69083 8.52206 7.69083H7.51921V6.67509H8.63172C8.8384 6.67509 9.00595 6.50755 9.00595 6.30086C9.00595 6.09418 8.8384 5.92664 8.63172 5.92664H7.14498C6.9383 5.92664 6.77075 6.09418 6.77075 6.30086V9.82934C6.77075 10.036 6.9383 10.2036 7.14498 10.2036H8.63172C8.8384 10.2036 9.00595 10.036 9.00595 9.82934C9.00595 9.62266 8.8384 9.45502 8.63172 9.45502Z" fill="#9DC6FB"/>
<path d="M16.7166 10.2035C16.1396 10.2035 15.5763 9.96204 15.2097 9.55754C15.0709 9.40438 15.0825 9.16771 15.2357 9.02894C15.3888 8.89012 15.6255 8.90179 15.7643 9.0549C15.9913 9.30547 16.3473 9.45504 16.7165 9.45504C17.0926 9.45504 17.3586 9.22308 17.3987 8.99876C17.4379 8.7791 17.2538 8.57687 16.8934 8.44396C16.3482 8.24285 15.8643 8.02744 15.8439 8.01834C15.8259 8.01035 15.8086 8.00085 15.7921 7.9901C15.442 7.76191 15.2617 7.36162 15.3214 6.9454C15.3853 6.50011 15.712 6.13703 16.174 5.99791C17.1037 5.7179 17.8703 6.35001 17.9025 6.37703C18.0607 6.51004 18.0812 6.74613 17.9482 6.90432C17.8157 7.06209 17.5807 7.08291 17.4225 6.95136C17.4106 6.94172 16.9234 6.55402 16.3898 6.71459C16.1265 6.79393 16.0731 6.97684 16.0623 7.05177C16.0453 7.16991 16.0893 7.27913 16.1805 7.34879C16.2956 7.39926 16.7083 7.5779 17.1524 7.74176C18.004 8.05583 18.2186 8.66498 18.1355 9.13032C18.0245 9.75221 17.4278 10.2035 16.7166 10.2035Z" fill="#9DC6FB"/>
<path d="M14.1404 5.94022C13.9378 5.90002 13.7407 6.03148 13.7003 6.23424L13.2399 8.54781L12.5137 6.19064C12.4529 5.99312 12.2434 5.88239 12.0459 5.94318C11.9101 5.98503 11.8152 6.09721 11.7891 6.22746L11.0708 8.54805L10.6119 6.22823C10.5718 6.02542 10.3747 5.89358 10.1722 5.93373C9.96947 5.97384 9.83762 6.17074 9.87773 6.37345L10.5652 9.84894C10.5687 9.86681 10.5736 9.88439 10.5797 9.90154C10.6439 10.0825 10.8156 10.2035 11.0074 10.2035H11.0104C11.2035 10.2022 11.375 10.0786 11.4371 9.89577C11.4382 9.89253 11.4393 9.88924 11.4403 9.88594L12.1564 7.57247L12.8692 9.88647C12.8708 9.89156 12.8725 9.89665 12.8743 9.90164C12.9385 10.0825 13.1102 10.2035 13.3019 10.2035H13.305C13.498 10.2022 13.6695 10.0785 13.7316 9.89577C13.7369 9.88027 13.7412 9.86439 13.7443 9.84831L14.4344 6.38033C14.4747 6.17762 14.3431 5.98057 14.1404 5.94022Z" fill="#9DC6FB"/>
</svg>
