<svg width="23" height="21" viewBox="0 0 23 21" fill="none" xmlns="http://www.w3.org/2000/svg">
<path d="M0.727132 1.59328L4.4759 0.0461772C4.57227 0.00622455 4.67559 -0.00809103 4.77772 0.004356C4.87986 0.016803 4.97803 0.0556734 5.06452 0.117911C5.15101 0.180149 5.22346 0.264057 5.27617 0.363038C5.32888 0.46202 5.36042 0.573377 5.3683 0.688353L6.34268 14.7081L8.97932 13.5385L7.93565 0.948259L21.3014 7.06932L22.16 12.2304L17.7462 14.8456L17.1335 9.7528L14.1892 8.37644L15.1053 15.2715C15.1418 15.5465 15.0991 15.8275 14.9834 16.0733C14.8677 16.3192 14.6851 16.5172 14.4622 16.6384L7.13874 20.6224L1.28319 17.8621C1.07225 17.7626 0.890838 17.5978 0.760076 17.3871C0.629314 17.1763 0.554586 16.9282 0.544596 16.6716L0.00121036 2.82262C-0.00980659 2.55773 0.0546137 2.29578 0.185134 2.07475C0.315654 1.85372 0.505492 1.68508 0.727132 1.59328Z" fill="#464B4E"/>
</svg>
