<svg width="25" height="25" viewBox="0 0 25 25" fill="none" xmlns="http://www.w3.org/2000/svg">
<path d="M22.8342 24.8C21.7484 24.8 20.8683 23.9533 20.8683 22.9088V4.13334C20.8683 3.57655 20.417 3.12521 19.8602 3.12521H1.00813C0.451341 3.12521 0 3.5766 0 4.13334V22.9088C0 23.9533 0.880158 24.8 1.96584 24.8H22.8342Z" fill="#E7ECF6"/>
<path d="M1.61304 13.9575V21.0245C1.61304 21.3002 1.83643 21.5235 2.11204 21.5235H8.17094C8.44655 21.5235 8.66995 21.3002 8.66995 21.0245V13.9575C8.66995 13.6819 8.44655 13.4585 8.17094 13.4585H2.11204C1.83643 13.4586 1.61304 13.682 1.61304 13.9575Z" fill="#DF75A5"/>
<path d="M1.61304 5.13692V10.9932C1.61304 11.2413 1.8141 11.4423 2.06215 11.4423H18.8062C19.0543 11.4423 19.2553 11.2413 19.2553 10.9932V5.13692C19.2553 4.88887 19.0543 4.68781 18.8062 4.68781H2.0621C1.8141 4.68781 1.61304 4.88892 1.61304 5.13692Z" fill="#FFE07D"/>
<path d="M23.8171 0C23.2742 0 22.8341 0.440055 22.8341 0.982942V18.7008C22.8341 19.2576 22.3828 19.709 21.826 19.709H20.8683V4.13332C20.8683 3.57653 20.417 3.12519 19.8602 3.12519H2.06671V0.982942C2.06671 0.440055 2.50677 0 3.04961 0L23.8171 0Z" fill="#D8E2F1"/>
<path d="M20.8683 22.9088C20.8683 23.9533 21.7484 24.8 22.8342 24.8C23.9198 24.8 24.8 23.9533 24.8 22.9088V1.00649C24.8 0.473532 24.3856 0.0195756 23.8529 0.000636584C23.2937 -0.0192228 22.8341 0.428146 22.8341 0.982949V18.7009C22.8341 19.2576 22.3828 19.709 21.826 19.709H20.8683V22.9088Z" fill="#A2B9E2"/>
<path d="M18.881 13.8328H10.6862C10.4795 13.8328 10.312 13.6652 10.312 13.4586C10.312 13.2519 10.4795 13.0843 10.6862 13.0843H18.881C19.0877 13.0843 19.2553 13.2519 19.2553 13.4586C19.2553 13.6652 19.0877 13.8328 18.881 13.8328Z" fill="#5E54AC"/>
<path d="M18.881 15.4458H10.6862C10.4795 15.4458 10.312 15.2783 10.312 15.0716C10.312 14.8649 10.4795 14.6974 10.6862 14.6974H18.881C19.0877 14.6974 19.2553 14.8649 19.2553 15.0716C19.2553 15.2783 19.0877 15.4458 18.881 15.4458Z" fill="#5E54AC"/>
<path d="M18.881 17.0588H10.6862C10.4795 17.0588 10.312 16.8913 10.312 16.6846C10.312 16.4779 10.4795 16.3104 10.6862 16.3104H18.881C19.0877 16.3104 19.2553 16.4779 19.2553 16.6846C19.2553 16.8913 19.0877 17.0588 18.881 17.0588Z" fill="#5E54AC"/>
<path d="M18.881 18.6718H10.6862C10.4795 18.6718 10.312 18.5043 10.312 18.2976C10.312 18.0909 10.4795 17.9233 10.6862 17.9233H18.881C19.0877 17.9233 19.2553 18.0909 19.2553 18.2976C19.2553 18.5043 19.0877 18.6718 18.881 18.6718Z" fill="#5E54AC"/>
<path d="M18.881 20.2848H10.6862C10.4795 20.2848 10.312 20.1173 10.312 19.9106C10.312 19.7039 10.4795 19.5364 10.6862 19.5364H18.881C19.0877 19.5364 19.2553 19.7039 19.2553 19.9106C19.2553 20.1173 19.0877 20.2848 18.881 20.2848Z" fill="#5E54AC"/>
<path d="M18.881 21.8978H10.6862C10.4795 21.8978 10.312 21.7303 10.312 21.5236C10.312 21.3169 10.4795 21.1494 10.6862 21.1494H18.881C19.0877 21.1494 19.2553 21.3169 19.2553 21.5236C19.2553 21.7303 19.0877 21.8978 18.881 21.8978Z" fill="#5E54AC"/>
<path d="M18.8811 23.5108H1.98727C1.78058 23.5108 1.61304 23.3433 1.61304 23.1366C1.61304 22.9299 1.78058 22.7624 1.98727 22.7624H18.8811C19.0877 22.7624 19.2553 22.9299 19.2553 23.1366C19.2553 23.3433 19.0877 23.5108 18.8811 23.5108Z" fill="#5E54AC"/>
<path d="M3.09005 10.2035C2.88337 10.2035 2.71582 10.036 2.71582 9.82931V6.30742C2.71582 6.14365 2.82233 5.99887 2.97869 5.95015C3.1351 5.90142 3.30497 5.95998 3.39801 6.09478L5.17833 8.67277L5.15542 6.30451C5.15344 6.09783 5.31934 5.92864 5.52602 5.92665C5.52723 5.92661 5.52849 5.92661 5.5297 5.92661C5.73469 5.92661 5.90189 6.09178 5.90383 6.29725L5.93682 9.70676C5.93687 9.91829 5.82008 10.0891 5.63941 10.1456C5.463 10.2007 5.27613 10.1312 5.16351 9.96852L3.46433 7.50799V9.82936C3.46428 10.036 3.29673 10.2035 3.09005 10.2035Z" fill="#9DC6FB"/>
<path d="M8.63172 9.45505H7.51921V8.43931H8.52206C8.72874 8.43931 8.89629 8.27177 8.89629 8.06509C8.89629 7.8584 8.72874 7.69086 8.52206 7.69086H7.51921V6.67512H8.63172C8.8384 6.67512 9.00595 6.50758 9.00595 6.30089C9.00595 6.09421 8.8384 5.92667 8.63172 5.92667H7.14498C6.9383 5.92667 6.77075 6.09421 6.77075 6.30089V9.82937C6.77075 10.0361 6.9383 10.2036 7.14498 10.2036H8.63172C8.8384 10.2036 9.00595 10.0361 9.00595 9.82937C9.00595 9.62269 8.8384 9.45505 8.63172 9.45505Z" fill="#9DC6FB"/>
<path d="M16.7166 10.2035C16.1396 10.2035 15.5763 9.96207 15.2097 9.55757C15.0709 9.40441 15.0825 9.16774 15.2357 9.02897C15.3888 8.89015 15.6255 8.90182 15.7643 9.05493C15.9913 9.3055 16.3473 9.45507 16.7165 9.45507C17.0926 9.45507 17.3586 9.22311 17.3987 8.99879C17.4379 8.77913 17.2538 8.5769 16.8934 8.44399C16.3482 8.24288 15.8643 8.02747 15.8439 8.01837C15.8259 8.01038 15.8086 8.00088 15.7921 7.99013C15.442 7.76194 15.2617 7.36165 15.3214 6.94543C15.3853 6.50014 15.712 6.13706 16.174 5.99794C17.1037 5.71793 17.8703 6.35004 17.9025 6.37706C18.0607 6.51007 18.0812 6.74616 17.9482 6.90435C17.8157 7.06212 17.5807 7.08294 17.4225 6.95139C17.4106 6.94175 16.9234 6.55405 16.3898 6.71462C16.1265 6.79397 16.0731 6.97687 16.0623 7.0518C16.0453 7.16994 16.0893 7.27916 16.1805 7.34882C16.2956 7.39929 16.7083 7.57793 17.1524 7.74179C18.004 8.05586 18.2186 8.66501 18.1355 9.13035C18.0245 9.75224 17.4278 10.2035 16.7166 10.2035Z" fill="#9DC6FB"/>
<path d="M14.1404 5.94025C13.9378 5.90005 13.7407 6.03151 13.7003 6.23427L13.2399 8.54784L12.5137 6.19068C12.4529 5.99315 12.2434 5.88242 12.0459 5.94321C11.9101 5.98506 11.8152 6.09724 11.7891 6.22749L11.0708 8.54808L10.6119 6.22826C10.5718 6.02545 10.3747 5.89361 10.1722 5.93376C9.96947 5.97387 9.83762 6.17077 9.87773 6.37348L10.5652 9.84897C10.5687 9.86684 10.5736 9.88442 10.5797 9.90157C10.6439 10.0825 10.8156 10.2035 11.0074 10.2035H11.0104C11.2035 10.2022 11.375 10.0786 11.4371 9.89581C11.4382 9.89256 11.4393 9.88927 11.4403 9.88597L12.1564 7.5725L12.8692 9.88651C12.8708 9.89159 12.8725 9.89668 12.8743 9.90167C12.9385 10.0825 13.1102 10.2035 13.3019 10.2035H13.305C13.498 10.2022 13.6695 10.0786 13.7316 9.89581C13.7369 9.88031 13.7412 9.86442 13.7443 9.84834L14.4344 6.38036C14.4747 6.17765 14.3431 5.9806 14.1404 5.94025Z" fill="#9DC6FB"/>
</svg>
