<svg viewBox="0 0 15 19" fill="none" xmlns="http://www.w3.org/2000/svg">
<path d="M14.4332 4.3881C14.4396 4.38085 14.4461 4.37406 14.4522 4.3668L14.4252 4.34325C14.3209 3.79266 14.1384 3.24547 13.8778 2.70644C12.8748 0.631659 10.6583 0.321926 9.42637 0.321926C9.16651 0.321926 8.93412 0.334842 8.74139 0.351609C8.45925 0.208411 8.14162 0.1316 7.79033 0.123669L7.77976 0.123444L7.76917 0.123897C7.72518 0.12571 6.67848 0.173064 5.55085 0.604469C4.01001 1.19403 3.06929 2.21817 2.83037 3.56607L2.82702 3.5901C2.73962 4.43613 2.76748 4.84308 2.81779 5.58218C2.82793 5.73058 2.83905 5.89372 2.8504 6.07748C2.9014 6.90244 2.21933 7.64495 1.72119 8.18714C1.65195 8.26259 1.58658 8.33375 1.52782 8.3999C1.24011 8.72458 1.298 9.02413 1.35813 9.17389C1.52824 9.59715 2.09453 9.83935 2.56081 9.93497C2.55023 9.9651 2.54044 9.99456 2.53086 10.0233C2.49011 10.1455 2.46517 10.2161 2.42677 10.2488C2.30339 10.3532 2.24238 10.5019 2.25907 10.6562C2.28336 10.8787 2.47175 11.067 2.66213 11.2029C2.62706 11.3266 2.60046 11.478 2.61048 11.6361C2.63718 12.0594 2.95238 12.1319 3.11617 12.15C3.1025 12.2615 3.07755 12.4058 3.05862 12.5155C2.95249 13.13 2.89651 13.5539 3.07755 13.84C3.20983 14.0487 3.47481 14.0771 3.7164 14.0771C4.05922 14.0771 4.56414 14.0109 5.15915 13.9203C5.65406 14.5883 6.27378 15.5642 6.34079 15.9889C6.20852 16.3146 6.04463 16.656 5.84189 17.0078L6.41752 17.3394C7.56899 15.3416 7.57422 13.6626 7.53169 13.0787C7.73355 12.936 7.93674 12.7706 8.13592 12.5812C8.12513 13.2398 8.07458 14.6162 7.84379 15.2764C7.62021 15.9157 7.11995 16.9317 6.85886 17.4478L6.20618 17.8853L6.57606 18.4372L11.4336 15.1812L11.0637 14.6295L10.9789 14.6862C10.9428 14.4585 10.8962 14.1624 10.8504 13.8659L11.1679 13.7832C10.8217 12.4547 11.443 11.2695 11.6365 10.9451C11.7096 10.9197 11.7548 10.9027 11.7642 10.8993L11.8145 10.8803L11.8561 10.8463C11.8999 10.8109 12.9348 9.96239 13.7081 8.54061C14.4441 7.18771 14.686 5.77749 14.4332 4.3881Z" fill="#DCDBDB"/>
<path d="M9.96351 10.7789C9.96351 10.7789 9.48085 12.185 9.52856 12.2516C9.57612 12.318 9.45425 13.0931 9.45425 13.0931L9.33899 13.7946L9.52856 14.798L9.40992 14.9752C9.40992 14.9752 6.68631 16.9682 6.68631 17.0014C6.68631 17.0347 4.93867 17.8232 4.93867 17.8232L4.35015 17.2781C4.35015 17.2781 4.7512 16.2316 5.0821 15.9189C5.41298 15.6063 5.38371 15.6284 5.38371 15.6284L3.94786 13.9301L3.67474 13.4861C3.67474 13.4861 5.78935 12.8272 5.82273 12.7719C5.85593 12.7166 6.86348 11.9082 6.8746 11.8308C6.88557 11.7533 7.27311 11.0785 7.27311 11.0785C7.27311 11.0785 7.47398 10.945 7.5894 10.9338C7.70498 10.9229 9.96351 10.7789 9.96351 10.7789Z" fill="white"/>
<path d="M11.761 3.46877L11.2738 2.59124L11.5009 2.39741L12.0414 3.2536L11.761 3.46877ZM10.8087 2.13895L10.1094 1.652L10.2921 1.33448L10.9712 1.78479L10.8087 2.13895ZM10.1094 5.24289L10.0797 4.91204H10.08C10.1009 4.91027 11.5312 4.77061 12.4003 4.04253C12.3017 3.65151 12.1589 3.26094 11.9706 2.87169C11.179 1.2339 9.48065 0.872411 8.17297 0.86264C8.27562 0.999864 8.36649 1.14996 8.44642 1.31117C8.72922 1.33337 9.17981 1.40109 9.66771 1.6016C10.4091 1.90624 11.3809 2.58348 11.8003 4.07916L11.1605 4.25858C11.0486 3.8589 10.8909 3.52894 10.7062 3.25627C10.7184 3.32533 10.7252 3.39616 10.7252 3.46877C10.7252 4.13557 10.1825 4.67824 9.51561 4.67824C9.45805 4.67824 9.40161 4.67402 9.34617 4.66603C9.372 4.84987 9.39749 5.1019 9.41106 5.24289H9.81221V5.33727L10.1169 5.32727L10.1094 5.24289Z" fill="#52AAE3"/>
<path d="M10.3793 5.92461L10.947 5.76853C11.4299 5.60969 11.9274 5.38092 12.3816 5.05155L12.563 5.30189C12.562 5.12502 12.5513 4.94775 12.5319 4.77087C11.7401 5.29516 10.7691 5.48649 10.3478 5.54809L10.3793 5.92461Z" fill="#52AAE3"/>
<path d="M8.82375 2.47733C9.02006 2.33994 9.25856 2.25909 9.51574 2.25909C9.51829 2.25909 9.52099 2.25909 9.52355 2.25909C9.22794 2.12385 8.94357 2.05033 8.71222 2.01056C8.7553 2.16127 8.79214 2.31736 8.82375 2.47733Z" fill="#52AAE3"/>
<path d="M12.5226 5.98039C12.5326 5.90125 12.5403 5.82211 12.5467 5.74295C11.9167 6.15136 11.2409 6.40245 10.6227 6.55535L10.5227 7.1845C10.874 7.10573 11.2311 6.98586 11.5081 6.80355L11.8735 7.35836C10.9249 7.98307 9.35235 7.99997 9.18716 7.99997C9.18158 7.99997 9.17755 7.99997 9.17524 7.99997L9.17755 7.64593L8.71438 7.66476C8.68691 7.88241 8.66654 8.05223 8.6629 8.14059C8.62102 9.13934 8.40107 9.96078 8.10724 10.6258C8.31401 10.6151 8.52665 10.5882 8.73378 10.5524C9.16006 9.62632 9.38501 8.45949 9.38732 8.4472L9.43592 8.19112L9.69641 8.17748C9.7116 8.17671 11.2127 8.08969 12.1077 7.4934C12.1348 7.42962 12.1607 7.36565 12.1853 7.30187C12.0241 7.09133 11.6115 6.49408 11.6115 6.49408L12.5226 5.98039Z" fill="#52AAE3"/>
<path d="M2.66808 13.2694C2.56755 13.2811 2.46445 13.2878 2.35834 13.2881C2.37314 13.2886 2.3894 13.2888 2.40732 13.2888C2.51053 13.2888 2.6368 13.281 2.78042 13.2674C2.74201 13.2681 2.70473 13.2687 2.66808 13.2694Z" fill="white"/>
<path d="M5.19163 11.0927C5.41654 10.4062 5.53992 9.57628 6.06477 8.97839C5.80756 9.09984 5.48524 9.20432 5.08219 9.28046C5.08219 9.28046 6.34312 8.57563 6.9487 7.18047C6.9487 7.18047 7.18462 7.7317 6.87154 8.28673C7.4838 7.54952 7.50962 6.16975 7.51097 5.65982C7.51208 5.24254 7.97903 3.88267 8.25293 3.12068C8.16052 2.32698 7.95611 1.61923 7.56519 1.16535C7.28605 0.840946 6.93022 0.677073 6.47807 0.664124C6.37407 0.669929 5.43748 0.731103 4.46392 1.10663C3.14801 1.61433 2.37887 2.43525 2.17766 3.54643C2.09761 4.32763 2.12246 4.69131 2.17167 5.41267C2.17867 5.51627 2.18624 5.62723 2.19403 5.74645C2.19403 5.74645 2.5934 4.93646 3.31679 5.12847C4.04016 5.32047 4.98665 6.30684 4.98665 6.30684C4.98665 6.30684 3.38916 5.47965 3.03633 5.80629C2.89279 5.93912 2.80563 6.0463 2.75185 6.12712C3.1971 6.09586 3.65191 6.15881 4.03426 6.2441L4.51635 6.22424L4.03426 6.2441C4.58605 6.36734 4.98665 6.5368 4.98665 6.5368L3.01248 7.06191C3.01248 7.06191 3.3767 7.66873 3.59035 7.71987C3.79388 7.76853 2.5305 8.29431 2.06599 6.82302C1.81616 7.51647 1.28884 8.09093 0.901503 8.51244C0.835127 8.58478 0.772457 8.65287 0.716107 8.71673C0.704988 8.72923 0.696303 8.74039 0.68927 8.75021C0.742384 8.78749 0.815324 8.83081 0.9105 8.87077C1.20746 8.99513 1.66751 9.1023 1.86481 9.05541C1.97437 9.02929 2.0866 8.93195 2.13581 8.90047C2.33388 8.77298 2.33877 9.39812 1.92103 9.6388C1.93027 9.75088 1.92737 9.89265 1.88162 10.0226C1.87115 10.0525 1.86145 10.0813 1.85211 10.1094C1.81371 10.2246 1.77152 10.3499 1.69357 10.4664C1.86013 10.4874 2.59966 10.4872 2.91642 10.6406C3.19331 10.7748 2.54721 10.7823 2.18023 10.8683L2.05397 11.1C2.03248 11.1404 1.98394 11.2545 1.96848 11.3729C2.02591 11.3782 2.09373 11.3883 2.16586 11.4102C2.45723 11.3914 2.99512 11.3793 3.04367 11.5466C3.11015 11.7752 2.34511 12.8815 2.34424 12.8828C2.32431 13.0304 2.31006 13.1777 2.31607 13.2762C2.41615 13.2739 2.53595 13.2717 2.66824 13.2693C4.06621 13.1063 4.92999 11.8915 5.19163 11.0927Z" fill="white"/>
<path d="M8.14286 15.4904L7.16792 15.9385C7.11751 16.0769 7.06393 16.2136 7.00677 16.3473L8.17223 15.566C8.16244 15.5412 8.15252 15.5159 8.14286 15.4904Z" fill="#B6B5B5"/>
<path d="M7.92939 14.8574C7.83902 14.5573 7.75602 14.2416 7.68181 13.93C7.61697 14.3064 7.5354 14.6971 7.43268 15.0855L7.92939 14.8574Z" fill="#B6B5B5"/>
<path d="M5.56751 13.3473C5.44111 13.4101 5.31807 13.4638 5.19952 13.5092C5.30177 13.6501 5.42294 13.8303 5.5214 14.0147C5.55369 13.7537 5.56562 13.5284 5.56751 13.3473Z" fill="#B6B5B5"/>
<path d="M7.23271 12.0281C7.16929 12.1029 7.10635 12.1733 7.04478 12.2387C6.97292 12.315 6.90013 12.3875 6.8269 12.4572C6.81614 13.1159 6.76563 14.4924 6.5347 15.1524C6.31115 15.7918 5.8109 16.8077 5.54987 17.3238L5.75578 17.1859C6.83779 15.8607 7.14551 13.335 7.23271 12.0281Z" fill="#B6B5B5"/>
<path d="M9.45607 11.0784C8.99948 11.1915 8.4471 11.2932 7.9309 11.2951C7.92963 11.3783 7.92675 11.5095 7.91943 11.6797C7.9454 11.8454 8.00071 12.1854 8.08087 12.6077C8.21315 12.3978 8.63979 11.7493 8.83788 11.7864C9.03486 11.8233 8.98577 14.0052 9.20348 14.875L9.66995 14.5622C9.63377 14.3345 9.58708 14.0386 9.54135 13.7418L9.21606 13.8267C8.92712 12.7178 9.18898 11.7179 9.45607 11.0784Z" fill="#B6B5B5"/>
<path d="M7.51094 5.65998C7.5096 6.16963 7.48377 7.54952 6.87151 8.28672C6.73291 8.53218 6.48685 8.77867 6.06474 8.97833C5.53989 9.57625 5.41652 10.4061 5.1916 11.0927C4.92997 11.8913 4.06619 13.1061 2.66821 13.2693C2.70482 13.2687 2.74213 13.2679 2.78054 13.2673C3.2032 13.2271 3.77882 13.1361 4.37949 13.0412L4.47291 13.0264C5.56337 12.8542 7.86022 11.4264 7.99927 8.11267C8.00495 7.97755 8.03369 7.75125 8.07355 7.43772C8.19703 6.46526 8.42938 4.6363 8.2529 3.12067C7.979 3.88265 7.51205 5.24255 7.51094 5.65998Z" fill="#B6B5B5"/>
<path d="M2.31604 13.2763C2.31628 13.2795 2.31628 13.283 2.31661 13.2862C2.32885 13.2871 2.34287 13.2877 2.35846 13.2881C2.46456 13.2878 2.56769 13.2811 2.66821 13.2694C2.53594 13.2717 2.41613 13.2741 2.31604 13.2763Z" fill="#B6B5B5"/>
<path d="M9.17959 7.33541C9.18594 7.33541 9.45863 7.3356 9.83229 7.29575L9.92802 6.69391C9.47465 6.76357 9.08777 6.78388 8.82252 6.78759C8.79141 7.05694 8.76012 7.30413 8.73255 7.52149C8.72622 7.57104 8.72008 7.61873 8.71429 7.66455L9.17754 7.64592L9.17959 7.33541Z" fill="#B5E6EA"/>
<path d="M10.348 5.54787C10.2291 5.56521 10.1535 5.5724 10.1389 5.57377L10.1169 5.32733L9.81232 5.33707V6.03587C9.97426 6.01115 10.1455 5.97982 10.3229 5.9401L10.3793 5.92453L10.348 5.54787Z" fill="#B5E6EA"/>
<path d="M8.98174 4.5538C8.97428 5.09477 8.93831 5.62855 8.89246 6.11987C8.96872 6.11749 9.05434 6.11369 9.14798 6.10771V5.24291H9.41103C9.39747 5.10174 9.37195 4.84991 9.34616 4.66606C9.21711 4.64792 9.09452 4.60942 8.98174 4.5538Z" fill="#B5E6EA"/>
<path d="M11.5992 8.46973C10.97 8.69105 10.3319 8.78313 9.98769 8.81925C9.91351 9.14983 9.76075 9.7617 9.52856 10.3722C9.83301 10.2884 10.0687 10.208 10.1687 10.1724C10.3377 10.0256 11.0119 9.41149 11.5992 8.46973Z" fill="#B5E6EA"/>
<path d="M11.6116 6.49408C11.6116 6.49408 12.0243 7.09138 12.1854 7.30185C12.3545 6.86222 12.4672 6.42143 12.5227 5.98029L11.6116 6.49408Z" fill="#B5E6EA"/>
<path d="M7.92937 14.858L7.43259 15.0862C7.53535 14.6978 7.61697 14.3069 7.68175 13.9306C7.75602 14.2421 7.83896 14.5578 7.92937 14.858ZM7.16781 15.9391L8.14282 15.491C8.1525 15.5166 8.16241 15.5418 8.17222 15.5666L7.00672 16.3479C7.06382 16.2141 7.11747 16.0775 7.16781 15.9391ZM4.58685 13.6815C4.76665 13.6522 4.97453 13.596 5.19966 13.5096C5.31814 13.4641 5.44128 13.4105 5.56763 13.3478C5.56575 13.5289 5.55372 13.754 5.52144 14.015C5.48894 14.2772 5.43591 14.5754 5.35152 14.9017C5.12004 14.4613 4.81832 14.0086 4.58685 13.6815ZM12.5631 5.30222L12.3817 5.05193C11.9273 5.38134 11.4299 5.61027 10.9469 5.76895C10.7343 5.83897 10.5247 5.89536 10.3227 5.9406C10.1455 5.98038 9.97424 6.01175 9.81223 6.03631V5.33769V5.24335H9.41108H9.14798V6.10814C9.05435 6.11428 8.96874 6.11814 8.89246 6.12042C8.93832 5.62914 8.97428 5.09534 8.98174 4.55428C9.09455 4.60997 9.21713 4.64862 9.34617 4.66658C9.40162 4.67455 9.45807 4.67886 9.51563 4.67886C10.1826 4.67886 10.7252 4.13621 10.7252 3.4692C10.7252 3.39668 10.7184 3.32575 10.7062 3.25686C10.8909 3.52944 11.0486 3.85953 11.1606 4.25919L11.8003 4.07982C11.3809 2.58394 10.4091 1.90669 9.66771 1.60228C9.17982 1.40177 8.72923 1.33402 8.44642 1.31175C8.3665 1.15056 8.27562 1.00029 8.17299 0.863206C9.48066 0.872982 11.179 1.23445 11.9707 2.87221C12.1589 3.26141 12.3019 3.65197 12.4003 4.043C11.5312 4.77116 10.1009 4.91074 10.08 4.91257H10.0797L10.1094 5.24335L10.1169 5.32791L10.1388 5.57435C10.1535 5.57299 10.2289 5.56594 10.3479 5.54844C10.7692 5.48682 11.7401 5.29563 12.532 4.77139C12.5513 4.94826 12.562 5.12536 12.5631 5.30222ZM9.51563 2.25975C9.25844 2.25975 9.01993 2.34046 8.82366 2.47777C8.79203 2.31795 8.75517 2.16177 8.71209 2.01104C8.94346 2.05105 9.22782 2.12448 9.52342 2.25975C9.52085 2.25975 9.5182 2.25975 9.51563 2.25975ZM12.1853 7.30235C12.1607 7.36624 12.1347 7.43011 12.1077 7.49378C11.2125 8.09031 9.7116 8.17716 9.69634 8.17807L9.43593 8.19148L9.38725 8.44769C9.3849 8.45997 9.16 9.62667 8.73369 10.5529C8.52658 10.5888 8.31394 10.6156 8.1072 10.6263C8.401 9.96131 8.62102 9.13994 8.66288 8.14101C8.66656 8.0528 8.68692 7.88276 8.71433 7.66519C8.7201 7.61949 8.72612 7.57175 8.73246 7.52219C8.76006 7.30486 8.79149 7.05752 8.82243 6.78834C9.08775 6.78447 9.47466 6.76402 9.92793 6.69445L9.83217 7.29621C9.45864 7.33623 9.18594 7.336 9.1795 7.336L9.17748 7.64654L9.17514 8.00051C9.17748 8.00051 9.1815 8.00051 9.18704 8.00051C9.35229 8.00051 10.9249 7.98347 11.8735 7.35896L11.5082 6.80403C11.2312 6.98635 10.8739 7.10617 10.5226 7.18504L10.6227 6.556C11.2408 6.40301 11.9168 6.15202 12.5465 5.7435C12.5404 5.82261 12.5324 5.90171 12.5226 5.98083C12.4669 6.4221 12.3544 6.86268 12.1853 7.30235ZM9.52853 10.3728C9.76069 9.76215 9.91345 9.15039 9.9876 8.81984C10.3319 8.78369 10.9699 8.69163 11.5991 8.47019C11.0119 9.41206 10.3376 10.0263 10.1686 10.173C10.0686 10.2084 9.83306 10.2889 9.52853 10.3728ZM10.0609 3.4692C10.0609 3.76973 9.81623 4.01435 9.51563 4.01435C9.2149 4.01435 8.97029 3.76973 8.97029 3.4692C8.97029 3.16843 9.2149 2.9238 9.51563 2.9238C9.81623 2.9238 10.0609 3.16843 10.0609 3.4692ZM2.35839 13.2886C2.34281 13.2882 2.32876 13.2875 2.31653 13.2866C2.31619 13.2834 2.31619 13.28 2.31597 13.2766C2.30996 13.1782 2.32421 13.0308 2.34413 12.8833C2.36329 12.743 2.38745 12.6025 2.40426 12.505C2.43676 12.3163 2.46762 12.1378 2.47753 11.9924C2.49812 11.6877 2.40661 11.4961 2.20552 11.4231C2.19204 11.4183 2.1789 11.4147 2.16576 11.4108C2.09363 11.389 2.02581 11.3788 1.96836 11.3735C1.98384 11.2549 2.03238 11.141 2.05386 11.1005L2.18013 10.8688L2.21463 10.8054L1.9176 10.6481C1.8361 10.6049 1.74369 10.5431 1.678 10.4901C1.68355 10.4824 1.68835 10.4746 1.69346 10.4669C1.77141 10.3503 1.81361 10.225 1.85201 10.11C1.86138 10.0818 1.87106 10.0529 1.88152 10.0231C1.92728 9.8931 1.93017 9.75147 1.92094 9.63939C1.91302 9.54233 1.8961 9.46753 1.88976 9.44207L1.83209 9.21109L1.5947 9.19154C1.12252 9.15289 0.681167 8.90419 0.664252 8.79937C0.664571 8.79437 0.670367 8.77756 0.689192 8.75074C0.696193 8.74096 0.704878 8.72959 0.716017 8.71731C0.772353 8.65342 0.83503 8.58545 0.90139 8.51293C1.28875 8.09145 1.81607 7.51696 2.06589 6.82358C2.16833 6.5394 2.22434 6.23522 2.20452 5.91308C2.20096 5.85556 2.19738 5.80078 2.19394 5.74713C2.18615 5.62777 2.17858 5.51684 2.17155 5.41339C2.12233 4.69205 2.09751 4.32808 2.17757 3.54694C2.37875 2.43571 3.14791 1.61501 4.46382 1.10737C5.43737 0.731803 6.37396 0.670424 6.47795 0.66474C6.93011 0.677698 7.28593 0.841608 7.56507 1.16579C7.956 1.61979 8.16042 2.3275 8.2528 3.12137C8.42928 4.63703 8.19693 6.46575 8.07345 7.4383C8.03357 7.75181 8.00487 7.97823 7.99918 8.11327C7.86012 11.427 5.56329 12.8547 4.47284 13.027L4.37942 13.0418C3.77874 13.1368 3.20313 13.2277 2.78048 13.268C2.63685 13.2814 2.51058 13.2893 2.40737 13.2893C2.38947 13.2893 2.37321 13.2891 2.35839 13.2886ZM13.1239 4.26466C13.1305 4.2576 13.1369 4.25056 13.1433 4.24329L13.1162 4.21986C13.0116 3.66925 12.8293 3.12205 12.5688 2.58303C11.5657 0.50833 9.34928 0.198467 8.11742 0.198467C7.85744 0.198467 7.62508 0.211426 7.43248 0.228249C7.15021 0.0850256 6.83268 0.00818331 6.48129 0.000226451L6.47083 0L6.46025 0.000455122C6.41627 0.00227383 5.36944 0.0495591 4.24182 0.481048C2.70098 1.07031 1.76028 2.0947 1.52135 3.44259L1.51801 3.46646C1.4306 4.31262 1.45843 4.71979 1.50875 5.45864C1.519 5.60709 1.53003 5.77009 1.54138 5.95401C1.59236 6.77879 0.910301 7.5215 0.412247 8.06371C0.342909 8.13919 0.277639 8.21012 0.218827 8.2765C-0.0688703 8.60114 -0.0109441 8.90077 0.0491643 9.05036C0.219214 9.47366 0.785492 9.716 1.25179 9.81149C1.24122 9.84173 1.2313 9.87106 1.22182 9.89993C1.18109 10.0218 1.15615 10.0925 1.11773 10.1252C0.994485 10.2298 0.933353 10.3785 0.950153 10.5326C0.974319 10.7552 1.16272 10.9436 1.35311 11.0796C1.31815 11.203 1.29141 11.3544 1.30144 11.5127C1.32826 11.9357 1.64347 12.0085 1.80716 12.0265C1.79355 12.1378 1.76851 12.2824 1.7496 12.392C1.64347 13.0065 1.5876 13.4305 1.76862 13.7165C1.90088 13.9254 2.16576 13.9536 2.40737 13.9536H2.40749C2.75017 13.9536 3.25511 13.8875 3.85022 13.797C4.34503 14.4648 4.96473 15.4408 5.03175 15.8655C4.89949 16.1909 4.73572 16.5324 4.53286 16.8843L5.10848 17.216C6.25995 15.2181 6.26518 13.5392 6.22264 12.9554C6.42461 12.8126 6.62781 12.6471 6.82688 12.4577C6.90013 12.3882 6.97286 12.3154 7.04468 12.2392C7.10635 12.1738 7.16926 12.1033 7.23274 12.0285C7.14544 13.3355 6.83781 15.8611 5.7557 17.1864L5.54984 17.3243L4.89714 17.7618L5.26703 18.3136L10.1245 15.0577L9.75467 14.506L9.66994 14.5628L9.20342 14.8756L8.73758 15.1877C8.45533 14.4247 8.22697 13.3791 8.0808 12.6082C8.00073 12.1858 7.94539 11.8459 7.91934 11.6802C7.9267 11.5102 7.9296 11.379 7.93082 11.2958C8.447 11.2937 8.99946 11.1921 9.45607 11.0789C9.18885 11.7184 8.92709 12.7182 9.21601 13.8272L9.54134 13.7424L9.85889 13.6599C9.51273 12.3311 10.1341 11.146 10.3274 10.8216C10.4006 10.7961 10.4459 10.7793 10.4551 10.7759L10.5054 10.7568L10.5472 10.7229C10.5908 10.6874 11.6257 9.83877 12.3992 8.41722C13.1351 7.06433 13.3772 5.65414 13.1239 4.26466Z" fill="#100F0D"/>
<path d="M3.04351 11.5465C2.99496 11.3792 2.45708 11.3915 2.16571 11.4101C2.17884 11.4142 2.19198 11.4178 2.20545 11.4227C2.40653 11.4956 2.49805 11.687 2.47745 11.9918C2.46754 12.1374 2.4367 12.3157 2.40418 12.5046C2.38738 12.6019 2.36322 12.7423 2.34408 12.8828C2.34496 12.8815 3.10997 11.7752 3.04351 11.5465Z" fill="#B6B5B5"/>
<path d="M2.13572 8.90032C2.0865 8.93193 1.97426 9.02934 1.86471 9.05539C1.66742 9.10228 1.20736 8.9953 0.910415 8.87079C0.815218 8.83086 0.742301 8.78761 0.689198 8.75027C0.670375 8.77684 0.664575 8.79387 0.664246 8.79873C0.681176 8.90378 1.12252 9.15229 1.59471 9.191L1.8321 9.21046L1.88977 9.44159C1.89611 9.46694 1.91304 9.5418 1.92093 9.63869C2.3387 9.39818 2.3338 8.77303 2.13572 8.90032Z" fill="#B6B5B5"/>
<path d="M2.91643 10.6404C2.59966 10.4871 1.86014 10.4873 1.69358 10.4664C1.68846 10.474 1.68369 10.4819 1.6781 10.4895C1.74379 10.5424 1.8362 10.6044 1.91772 10.6474L2.21476 10.8049L2.18025 10.8681C2.54723 10.7822 3.19334 10.7747 2.91643 10.6404Z" fill="#B6B5B5"/>
<path d="M3.59031 7.71991C3.37666 7.66867 3.01246 7.06177 3.01246 7.06177C3.01246 7.06177 2.66342 6.63633 2.54762 6.30588L2.5239 6.30687L2.54762 6.30588C2.52868 6.2517 2.51577 6.20006 2.51188 6.15336C2.59115 6.14114 2.67143 6.13268 2.75183 6.12716C2.8056 6.04637 2.89278 5.93917 3.03629 5.80616C3.38912 5.47965 4.98663 6.30687 4.98663 6.30687C4.98663 6.30687 4.04014 5.32043 3.31675 5.12851C2.59338 4.93657 2.194 5.74665 2.194 5.74665C2.19746 5.80025 2.20101 5.85523 2.20458 5.91257C2.2244 6.23454 2.16841 6.53879 2.06598 6.82314C2.53048 8.29431 3.79385 7.76859 3.59031 7.71991Z" fill="#B6B5B5"/>
<path d="M8.97028 3.46865C8.97028 3.76935 9.21488 4.01393 9.51563 4.01393C9.81623 4.01393 10.0608 3.76935 10.0608 3.46865C10.0608 3.16796 9.81623 2.92337 9.51563 2.92337C9.21488 2.92337 8.97028 3.16796 8.97028 3.46865Z" fill="#B5E6EA"/>
<path d="M10.3228 5.9401C10.5247 5.89481 10.7343 5.83836 10.947 5.76849L10.3792 5.92456L10.3228 5.9401Z" fill="#66ACE1"/>
<path d="M4.03418 6.24404L4.51628 6.22418" stroke="#B5E6EA" stroke-linecap="round" stroke-linejoin="round"/>
<path d="M2.5238 6.30676L2.54687 6.30585" stroke="#B5E6EA" stroke-linecap="round" stroke-linejoin="round"/>
<path d="M2.54765 6.30578C2.66344 6.63627 3.0125 7.06174 3.0125 7.06174L4.98666 6.53675C4.98666 6.53675 4.58606 6.36732 4.03425 6.24405C3.65191 6.15878 3.19708 6.09591 2.75186 6.12706C2.67147 6.13256 2.59118 6.14111 2.5119 6.15326C2.5158 6.19999 2.52873 6.25165 2.54765 6.30578Z" fill="#100F0D"/>
<path d="M6.87144 8.28661C7.18453 7.73169 7.04491 7.16449 6.9486 7.18044C6.85231 7.19658 6.54176 7.93231 6.30228 8.22076C5.71708 8.9255 5.03356 9.18022 5.0821 9.28035C5.13055 9.38048 5.80748 9.0999 6.06468 8.97831C6.31932 8.85802 6.50993 8.72048 6.65145 8.57634C6.74452 8.48172 6.81645 8.38416 6.87144 8.28661Z" fill="#100F0D"/>
<path d="M10.1095 1.65176L10.8088 2.13894L10.9713 1.78479L10.2922 1.33444L10.1095 1.65176Z" fill="#B5E6EA"/>
<path d="M11.501 2.3974L11.2739 2.59111L11.761 3.46861L12.0414 3.25365L11.501 2.3974Z" fill="#B5E6EA"/>
</svg>
