<svg viewBox="0 0 19 19" fill="none" xmlns="http://www.w3.org/2000/svg">
<path d="M18.2146 12.1887C18.2146 14.0463 18.2152 15.9037 18.2118 17.7614C18.2118 17.8324 18.237 17.8983 18.1991 17.9817C18.0846 18.2362 17.8438 18.2914 17.6117 18.1253C17.4497 18.0092 17.2874 17.8919 17.1198 17.7826C16.9301 17.659 16.7507 17.519 16.5651 17.3891C16.448 17.307 16.3177 17.2406 16.2108 17.1475C16.0567 17.0132 15.8682 16.9319 15.7145 16.7972C15.6158 16.7105 15.4925 16.6525 15.3836 16.5766C15.2423 16.4779 15.1056 16.3719 14.9646 16.2726C14.8114 16.1651 14.6501 16.0683 14.5018 15.9545C14.3427 15.8325 14.1443 15.7492 14.0539 15.5534C14.0042 15.4459 13.9577 15.3397 13.9577 15.2116C13.9616 12.5323 13.9574 9.85325 13.9644 7.17389C13.9653 6.82328 13.8144 6.58964 13.5333 6.40709C13.3153 6.26553 13.1132 6.10031 12.8939 5.96128C12.5527 5.74466 12.2326 5.49874 11.8986 5.27172C11.6417 5.09706 11.3899 4.91482 11.1325 4.74045C10.8864 4.57399 10.6378 4.40971 10.3999 4.23347C10.1674 4.06101 9.92954 3.89517 9.69262 3.72995C9.48419 3.5846 9.27984 3.43105 9.06224 3.29736C8.87213 3.18071 8.69564 3.04229 8.5128 2.91366C8.34737 2.79763 8.18226 2.6816 8.0162 2.56651C7.86595 2.46216 7.71635 2.35622 7.56578 2.25218C7.37189 2.11817 7.17799 1.98292 6.98916 1.84104C6.77438 1.6796 6.78735 1.43431 6.98599 1.28895C7.34342 1.02789 7.71034 0.780072 8.07313 0.526261C8.28601 0.377128 8.49667 0.224526 8.71208 0.0791768C8.89648 -0.0450484 9.30452 -0.0160416 9.48671 0.117012C9.64392 0.231778 9.81125 0.331726 9.97035 0.443971C10.1573 0.575763 10.3385 0.715752 10.5255 0.847544C10.6843 0.959473 10.8494 1.06289 11.0091 1.17356C11.166 1.28202 11.3191 1.39616 11.4753 1.50556C11.6715 1.64302 11.8691 1.77798 12.0659 1.91481C12.219 2.02138 12.3712 2.12921 12.5248 2.23546C12.6441 2.31775 12.7658 2.39657 12.8844 2.47982C13.0844 2.62012 13.2808 2.76547 13.4819 2.90419C13.6379 3.01139 13.7964 3.1167 13.9483 3.228C14.1064 3.34371 14.2718 3.44997 14.4268 3.5704C14.5716 3.68297 14.7307 3.77755 14.8823 3.88224C15.0404 3.99133 15.1967 4.10357 15.3546 4.21361C15.5092 4.32144 15.6648 4.42863 15.8198 4.53583C15.9646 4.6361 16.1098 4.73636 16.2544 4.83725C16.4701 4.98765 16.6855 5.13836 16.9003 5.2897C17.0436 5.3906 17.185 5.49432 17.3289 5.59459C17.4824 5.70179 17.6399 5.80268 17.7913 5.91272C17.9426 6.02244 18.1045 6.12649 18.1658 6.31755C18.1956 6.40993 18.2168 6.50547 18.2142 6.60416C18.2132 6.63599 18.214 6.66753 18.214 6.69937C18.2146 8.5287 18.2146 10.3587 18.2146 12.1887Z" fill="#186AB4"/>
<path d="M11.0048 13.1956C11.0048 14.7616 11.0017 16.3275 11.0079 17.8936C11.0089 18.1596 10.7501 18.255 10.5834 18.2088C10.4249 18.165 10.3053 18.0532 10.1794 17.9594C10.0237 17.8435 9.86206 17.7374 9.70507 17.6234C9.46462 17.4486 9.22199 17.277 8.97656 17.1092C8.79839 16.9873 8.62459 16.8588 8.44425 16.7395C8.21719 16.5886 8.00384 16.4167 7.78177 16.258C7.61481 16.1387 7.44227 16.0275 7.27408 15.91C7.08127 15.7749 6.8947 15.6298 6.83147 15.387C6.81434 15.3215 6.78039 15.249 6.81186 15.1719C6.82431 15.1414 6.81528 15.1013 6.81528 15.0657C6.81528 13.0677 6.81528 11.0694 6.81559 9.07136C6.81559 8.75835 6.66639 8.5398 6.41131 8.37323C6.16587 8.21295 5.93196 8.0344 5.69243 7.86467C5.48531 7.71793 5.27632 7.5737 5.06982 7.42601C4.8711 7.28431 4.67954 7.13127 4.47491 6.9987C4.13977 6.78173 3.83049 6.52823 3.49722 6.30875C3.29351 6.1746 3.10757 6.01244 2.90043 5.88458C2.6441 5.72619 2.41829 5.5256 2.16225 5.36689C2.04016 5.29131 1.90686 5.20031 1.89844 5.02932C1.88942 4.84511 2.00528 4.74433 2.14575 4.64861C2.31052 4.53619 2.47808 4.42755 2.63102 4.29592C2.75779 4.18665 2.90666 4.10352 3.04465 4.00716C3.25458 3.86041 3.4645 3.71336 3.67287 3.56409C3.8719 3.42176 4.09367 3.37768 4.32135 3.45168C4.44345 3.49135 4.54935 3.58362 4.6596 3.65699C4.83715 3.77477 5.01967 3.88719 5.18661 4.01913C5.34546 4.14478 5.51241 4.25782 5.67562 4.37685C5.88274 4.52768 6.09236 4.67507 6.30011 4.82495C6.50662 4.9739 6.71312 5.12348 6.92305 5.2655C7.2613 5.49443 7.58585 5.74288 7.92441 5.97118C8.12033 6.10344 8.30939 6.24955 8.50344 6.38433C8.66011 6.49297 8.82082 6.60004 8.97656 6.71024C9.11578 6.80881 9.25376 6.9121 9.3933 7.01098C9.56647 7.1341 9.74713 7.24873 9.91625 7.37595C10.1907 7.5822 10.4878 7.75666 10.7479 7.98117C10.9201 8.12981 11.0073 8.31938 11.0067 8.55681C11.0033 10.103 11.0048 11.6494 11.0048 13.1956Z" fill="#186AB4"/>
<path d="M4.17385 14.2181C4.17385 15.425 4.17292 16.6323 4.1751 17.8393C4.17541 17.9711 4.15368 18.094 4.0367 18.1641C3.8831 18.2563 3.72608 18.2277 3.58366 18.1272C3.41795 18.0102 3.24078 17.9066 3.08408 17.7809C2.86314 17.6041 2.62235 17.4558 2.39676 17.2863C2.27853 17.1976 2.14045 17.1207 2.02254 17.0325C1.87546 16.923 1.71566 16.8311 1.57322 16.7132C1.39294 16.564 1.17852 16.4567 0.994203 16.3121C0.849293 16.1981 0.690419 16.1061 0.545198 15.9924C0.421077 15.8953 0.279271 15.8212 0.167563 15.707C0.0511995 15.5882 0.00155149 15.4396 0.00155149 15.2788C-8.91093e-09 12.8292 0.000620601 10.3799 0 7.93054C0 7.78781 0.0543026 7.66743 0.183387 7.61933C0.295096 7.57776 0.410216 7.57745 0.535889 7.65719C0.784129 7.8145 1.01623 7.99384 1.25578 8.1617C1.53816 8.35935 1.82116 8.55699 2.1026 8.75588C2.34432 8.92654 2.58418 9.10215 2.83428 9.26195C3.03319 9.38916 3.21316 9.54615 3.41237 9.67275C3.58304 9.78134 3.74129 9.90701 3.91195 10.0159C4.01746 10.0829 4.08138 10.2018 4.12855 10.325C4.18905 10.4832 4.17354 10.6455 4.17385 10.8074C4.17448 11.9443 4.17385 13.0811 4.17385 14.2181Z" fill="#186AB4"/>
</svg>
