<svg width="25" height="29" viewBox="0 0 25 29" fill="none" xmlns="http://www.w3.org/2000/svg">
<path d="M20.0146 26.6225C19.9948 26.523 18.787 20.4553 18.7737 20.393C18.6286 19.6906 18.2356 19.1526 17.6588 18.806C17.313 18.5974 17.1166 18.5642 16.8924 18.4953C17.05 18.5504 14.002 17.4851 12.7738 17.0558C12.5307 16.9724 12.3674 16.7439 12.3674 16.4869V15.2257C10.7899 16.0145 9.13566 15.9647 7.66732 15.2481V16.4869C7.66732 16.7439 7.50404 16.9725 7.26095 17.0558C7.08784 17.1152 7.88805 16.8408 5.56788 17.6363H5.56628C5.56634 17.6365 5.56645 17.6367 5.56645 17.6367L5.56628 17.6369L3.14406 18.4953C3.03224 18.5283 2.81135 18.5935 2.82541 18.5893C2.24917 18.8042 1.74949 19.2123 1.46949 19.783C1.27568 20.1761 1.33318 20.0381 0.392641 24.7594C0.0443817 26.5628 -0.032509 26.6942 0.011044 27.0971C0.132257 28.2234 1.29067 28.1058 1.32203 28.1195C3.54318 28.1195 10.2364 28.1195 10.0256 28.1195C10.049 28.1195 11.05 28.1195 10.9877 28.1195C12.5344 28.1195 18.0177 28.1195 18.7141 28.1195C18.7266 28.1153 20.2418 28.2307 20.0146 26.6225Z" fill="#6C7D87"/>
<path d="M1.43642 26.6225L2.67727 19.8271C2.66008 19.9096 2.76937 18.9181 3.70217 18.2974C2.66041 18.6666 2.98329 18.5189 2.66304 18.6561C2.05852 18.9291 1.58971 19.393 1.35854 20.0467C1.26605 20.3092 1.32603 20.0784 0.392683 24.7594C0.0444238 26.5628 -0.032412 26.6943 0.0110862 27.0971C0.132299 28.2233 1.29071 28.1058 1.32207 28.1194C1.46015 28.1194 2.56633 28.1194 2.73675 28.1194C1.7386 28.1195 1.3073 27.5358 1.43642 26.6225Z" fill="#566A75"/>
<path d="M3.8824 28.1195C3.07466 28.1195 2.14428 28.1195 1.32205 28.1195C1.28926 28.1051 -0.0311177 28.2378 0.0018904 26.8613C0.00908516 26.5678 0.045828 26.5555 0.39266 24.7594L0.412706 24.6587H3.8824V28.1195Z" fill="#DD9A5E"/>
<path d="M1.79503 24.6588H0.41276L0.392714 24.7594C0.0446188 26.5617 0.00913922 26.5674 0.00194446 26.8613C-0.0309538 28.2332 1.29607 28.1081 1.3221 28.1195C1.46018 28.1195 2.56636 28.1195 2.73678 28.1195C1.81744 28.1195 1.39806 27.6358 1.41662 26.8613C1.41882 26.7714 1.45232 26.5834 1.79503 24.6588Z" fill="#D18C54"/>
<path d="M7.6673 15.0305C7.6673 18.5486 7.6673 14.6297 7.66735 17.4006H7.66884V17.4853C7.66884 18.0482 8.02835 18.5486 8.56209 18.7273C9.41865 19.0141 10.5184 19.0468 11.4726 18.7273C12.0063 18.5486 12.3658 18.0483 12.3658 17.4853V17.4006H12.3673C12.3673 16.8493 12.3673 15.3254 12.3673 15.0305C10.8446 15.8424 9.12762 15.8092 7.6673 15.0305Z" fill="#DD9A5E"/>
<path d="M9.08384 17.871H9.08202C9.08191 14.9256 9.08197 15.907 9.08191 15.7013C8.59366 15.6034 8.11754 15.4354 7.66724 15.1953C7.66724 18.7133 7.66724 14.6297 7.66729 17.4006H7.66877V17.4853C7.66877 18.0482 8.02829 18.5486 8.56202 18.7273C8.82598 18.8156 9.10471 18.8795 9.39409 18.9164C9.03435 18.428 9.08933 17.9084 9.08384 17.871Z" fill="#D18C54"/>
<path d="M3.88238 23.2705C3.64798 23.2705 3.45795 23.4605 3.45795 23.6949V28.1195C3.75233 28.1195 3.9908 28.1195 4.30676 28.1195V23.6949C4.30682 23.4605 4.11679 23.2705 3.88238 23.2705Z" fill="#566A75"/>
<path d="M23.7574 28.1195H10.0173C9.444 28.1195 8.97925 27.6547 8.97925 27.0815C8.97925 26.7529 9.24562 26.4865 9.57416 26.4865H24.2005C24.529 26.4865 24.7954 26.7529 24.7954 27.0815C24.7954 27.6547 24.3306 28.1195 23.7574 28.1195Z" fill="#C6C6C6"/>
<path d="M11.653 27.0815C11.653 26.7529 11.9193 26.4865 12.2479 26.4865H9.57416C9.24562 26.4865 8.97925 26.7529 8.97925 27.0815V27.0815C8.97925 27.6548 9.444 28.1195 10.0173 28.1195H12.6909C12.1176 28.1195 11.653 27.6547 11.653 27.0815Z" fill="#B7B7B7"/>
<path d="M22.8574 17.4007H10.9173C10.5439 17.4007 10.2383 17.7063 10.2383 18.0797V25.8075C10.2383 26.181 10.5439 26.4866 10.9173 26.4866H22.8574C23.2309 26.4866 23.5365 26.181 23.5365 25.8075V18.0797C23.5365 17.7063 23.2309 17.4007 22.8574 17.4007Z" fill="#EDEDED"/>
<path d="M11.653 25.8075V18.0797C11.653 17.7063 11.9586 17.4007 12.3321 17.4007H10.9174C10.5439 17.4007 10.2383 17.7063 10.2383 18.0797V25.8075C10.2383 26.181 10.5439 26.4866 10.9174 26.4866H12.3321C11.9586 26.4866 11.653 26.181 11.653 25.8075Z" fill="#DADADA"/>
<path d="M16.8876 22.9243C17.4293 22.9243 17.8684 22.4852 17.8684 21.9435C17.8684 21.4018 17.4293 20.9626 16.8876 20.9626C16.3459 20.9626 15.9067 21.4018 15.9067 21.9435C15.9067 22.4852 16.3459 22.9243 16.8876 22.9243Z" fill="#DADADA"/>
<path d="M16.8878 20.9635C16.1399 20.9623 15.6581 21.7763 16.0379 22.434C16.4178 23.092 17.3635 23.0812 17.7363 22.4332C16.9819 22.4322 16.5108 21.6186 16.8878 20.9635Z" fill="#C6C6C6"/>
<path d="M9.88942 0.00667866C6.23387 0.0206288 3.14764 3.00486 3.14764 6.79623V9.36932H16.7287C16.7287 6.93096 16.7287 7.70134 16.7287 5.5199C16.7287 2.89063 15.1111 2.28495 15.1111 2.28495C13.0994 -0.195489 9.89211 0.00662374 9.89211 0.00662374" fill="#4C4846"/>
<path d="M10.8068 0.0472056C6.6638 -0.424409 3.29237 2.70257 3.15341 6.52865C3.14271 6.80375 3.1499 6.70083 3.14765 9.36932H4.76526V6.79623C4.76526 3.28386 7.42403 0.418478 10.8068 0.0472056Z" fill="#3D3938"/>
<path d="M4.82016 8.56131C3.96843 8.25781 3.04382 8.82224 3.04382 9.64574C3.04382 10.469 3.96832 11.0337 4.82016 10.7302V8.56131Z" fill="#DD9A5E"/>
<path d="M15.0561 8.56131C15.9078 8.25781 16.8324 8.82224 16.8324 9.64574C16.8324 10.469 15.9079 11.0337 15.0561 10.7302V8.56131Z" fill="#DD9A5E"/>
<path d="M3.1682 9.14709C2.67066 10.0916 3.71819 11.1229 4.82014 10.7302V9.73289C4.1775 9.96181 3.45896 9.69917 3.1682 9.14709Z" fill="#D18C54"/>
<path d="M15.0562 9.73289V10.7302C16.1581 11.1229 17.2056 10.0916 16.7081 9.14709C16.5 9.5422 15.699 9.96192 15.0562 9.73289Z" fill="#D18C54"/>
<path d="M14.8776 6.4125C15.0096 6.42525 15.1111 6.5347 15.1111 6.66723C15.1111 11.0225 15.1139 10.6937 15.1037 10.8962C15.0366 12.2208 14.4701 13.4371 13.5487 14.3361C10.3198 17.4844 4.93172 15.2517 4.76965 10.8356C4.76207 10.6409 4.76525 8.38519 4.76525 8.39156C4.76525 7.37732 5.66537 6.60347 6.66923 6.74841C8.25027 6.97661 10.558 6.88796 12.5717 5.16671C12.7786 4.98986 13.0926 5.04698 13.2248 5.28496C13.4743 5.73427 13.9704 6.32496 14.8776 6.4125Z" fill="#EDAE6B"/>
<path d="M6.18504 10.8356C6.17856 10.6687 6.17994 7.61296 6.18049 6.74976C5.39087 6.86822 4.76531 7.54612 4.76531 8.39154C4.76531 8.38516 4.76213 10.6409 4.76971 10.8356C4.88916 14.0916 7.84962 16.1601 10.6909 15.7606C8.35797 15.4381 6.28462 13.5494 6.18504 10.8356Z" fill="#DD9A5E"/>
</svg>
