<svg width="23" height="18" viewBox="0 0 23 18" fill="none" xmlns="http://www.w3.org/2000/svg">
<path d="M0 0H9.12357C9.79888 1.07564 10.3049 1.82653 10.4737 1.95062C10.6425 2.0739 10.8443 2.13587 11.08 2.13587C11.3154 2.13587 11.5175 2.0739 11.6863 1.95062C11.855 1.82653 12.361 1.07564 13.0364 0H22.16C20.8721 2.14512 12.8216 16.0942 11.911 16.7629C11.6801 16.9322 11.403 17.0171 11.08 17.0171C10.7568 17.0171 10.4798 16.9322 10.2489 16.7629C9.98614 16.5702 9.12879 15.2704 8.01141 13.4694V4.78337H12.9352C13.5066 4.78337 13.9519 4.94088 14.2713 5.25638C14.5912 5.57205 14.7509 5.99852 14.7509 6.53576C14.7509 7.06459 14.5912 7.49088 14.2713 7.81499C13.9519 8.13892 13.5066 8.301 12.9352 8.301H9.20094V9.87459H12.9352C13.4724 9.87459 13.9519 9.79139 14.3738 9.625C14.796 9.45869 15.1518 9.22627 15.4416 8.92791C15.7317 8.62932 15.9534 8.27355 16.1068 7.85977C16.2601 7.44595 16.3369 6.9877 16.3369 6.48451C16.3369 5.97288 16.2601 5.51252 16.1068 5.10293C15.9534 4.6935 15.7317 4.3462 15.4416 4.0607C15.1518 3.77488 14.796 3.55313 14.3738 3.3953C13.9519 3.23763 13.4724 3.1588 12.9352 3.1588H6.40024V10.8288C3.80567 6.52263 0.751337 1.25181 0 0Z" fill="#002A51"/>
</svg>
