<svg width="26" height="29" viewBox="0 0 26 29" fill="none" xmlns="http://www.w3.org/2000/svg">
<path d="M17.2285 28.12H8.872C8.46893 28.0043 8.22442 27.596 8.13826 26.8948C7.87454 25.8207 3.7318 26.668 2.83539 25.7639C2.68708 25.6067 2.63825 25.3474 2.69001 24.9862C2.83575 23.9621 3.10044 23.0369 2.28511 22.4897C1.74148 22.1754 2.00038 21.4084 2.73644 21.1791C2.46779 21.1291 2.25336 21.0641 2.09322 20.9823C1.79388 20.7126 1.80124 20.2486 1.9926 19.6171C2.14573 19.352 2.20235 18.698 2.02667 18.4947C1.76984 18.195 1.12219 17.9939 0.549412 17.6806C-0.119028 17.2006 -0.177253 16.7023 0.373238 16.1886C1.64111 15.2909 2.53009 14.8083 2.93144 13.5667C2.77988 12.5912 2.74094 11.5928 2.8316 10.6022C2.82889 10.494 2.8311 10.3965 2.83982 10.3133C3.45822 4.39792 8.45364 -5.72205e-06 14.2722 -5.72205e-06C14.6723 -5.72205e-06 15.0763 0.02071 15.4828 0.0632172C20.8498 0.624031 24.967 4.7887 25.6843 9.90211C26.1983 13.2109 25.2013 16.6862 23.3535 19.1848C22.9749 19.7142 22.6473 20.2007 22.3637 20.6576C21.5539 18.5904 20.6545 16.6287 19.6678 14.7833C19.6196 14.6926 19.5314 14.6233 19.4414 14.5876C19.465 14.5058 19.4553 14.4154 19.4042 14.3329C19.261 14.1014 19.1156 13.8642 18.9727 13.6324C18.8913 13.4999 18.7409 13.4224 18.5977 13.4224C18.5505 13.4224 18.5037 13.4306 18.4608 13.4485C18.3355 13.5003 18.2112 13.5549 18.0894 13.6167C18.0411 13.5378 17.9536 13.491 17.8675 13.491C17.834 13.491 17.8004 13.4981 17.7697 13.5135C17.7457 13.5253 17.7204 13.537 17.6964 13.552C17.1685 12.638 16.6755 11.6846 16.3237 10.7701C15.9765 9.86675 15.7964 8.99302 15.97 8.29111C15.1163 7.77709 14.2551 7.29629 13.3921 6.86157C12.5537 6.43971 11.7071 6.05964 10.8797 5.69029C11.6693 6.76798 12.4676 7.85639 13.2696 8.95016C12.4676 7.85639 11.6693 6.76798 10.8797 5.69029C11.2835 6.33326 11.6068 6.96695 11.9429 7.60492C11.5114 7.01803 11.0822 6.43507 10.6559 5.85461C10.7505 6.76441 10.8507 7.67921 10.955 8.59938C11.0592 9.51919 11.1678 10.4383 11.2399 11.3095C12.0458 11.4724 12.8113 11.9425 13.5228 12.5869C14.2383 13.2348 14.8766 14.0782 15.4475 14.9309C14.8766 14.0782 14.2383 13.2348 13.5228 12.5869C12.8113 11.9425 12.0458 11.4724 11.2399 11.3095C11.1678 10.4383 11.0592 9.51919 10.955 8.59938C10.8507 7.67921 10.7505 6.76441 10.6559 5.85461C10.7178 7.76316 10.5587 9.62349 10.5806 11.5317C11.3728 11.7514 12.1033 12.0246 12.767 12.718C13.4346 13.4152 14.0115 14.3018 14.5201 15.1927C14.4966 15.2123 14.4705 15.2238 14.4462 15.2388C14.3387 15.3049 14.3012 15.4477 14.3608 15.5624C14.2401 15.6342 14.1194 15.7042 13.9993 15.7771C13.8311 15.8792 13.7725 16.1054 13.8615 16.2718C13.9893 16.5119 14.1119 16.7412 14.2347 16.9702C14.2837 17.0612 14.358 17.1138 14.4437 17.1366C14.3969 17.2999 14.4626 17.4002 14.5337 17.5313C15.0374 18.4593 20.5237 28.12 17.2285 28.12ZM13.425 9.96926C13.2639 9.96926 13.1088 9.89532 13.0131 9.75423C12.8774 9.55419 12.8974 9.29272 13.0424 9.10197C13.0342 9.09054 13.026 9.07946 13.0177 9.06804C13.1595 9.09982 13.2889 9.18913 13.3639 9.31986C13.4875 9.53455 13.441 9.78638 13.2739 9.94676C13.3224 9.96177 13.3735 9.96926 13.425 9.96926C13.5296 9.96926 13.6368 9.93819 13.7318 9.87354C13.6368 9.93819 13.5296 9.96926 13.425 9.96926ZM13.9658 9.44203C13.9661 9.34416 13.9372 9.24485 13.8768 9.15483C13.7775 9.00767 13.6075 8.92301 13.436 8.92265C13.6075 8.92301 13.7775 9.00767 13.8768 9.15483C13.9372 9.24485 13.9661 9.34416 13.9658 9.44203ZM12.9538 8.98123C12.7491 8.7019 12.5448 8.42364 12.3408 8.14609C12.5448 8.42364 12.7491 8.7019 12.9538 8.98123ZM13.4346 8.92265H13.435H13.4346Z" fill="#CE6D79"/>
<path d="M18.9885 28.12H17.2285C20.5237 28.12 15.0374 18.4593 14.5337 17.5313C14.4627 17.4002 14.3969 17.2999 14.4437 17.1366C14.358 17.1138 14.2837 17.0612 14.2348 16.9702C14.1119 16.7412 13.9894 16.5119 13.8615 16.2718C13.7725 16.1054 13.8311 15.8792 13.9994 15.7771C14.1194 15.7042 14.2401 15.6342 14.3609 15.5624C14.3012 15.4477 14.3387 15.3049 14.4462 15.2388C14.4705 15.2238 14.4966 15.2123 14.5202 15.1927C14.0115 14.3018 13.4346 13.4152 12.767 12.718C12.1033 12.0246 11.3728 11.7514 10.5807 11.5317C10.5587 9.62349 10.7179 7.76316 10.6559 5.85461C10.7505 6.76441 10.8507 7.67921 10.9551 8.59938C11.0593 9.51919 11.1678 10.4383 11.2399 11.3095C12.0458 11.4724 12.8113 11.9425 13.5229 12.5869C14.2383 13.2348 14.8767 14.0782 15.4475 14.9309C15.4253 14.9519 15.4 14.9655 15.3771 14.9819C15.3125 15.028 15.2778 15.1027 15.2778 15.1791C15.2778 15.2241 15.29 15.2699 15.315 15.3109C15.1996 15.3909 15.0838 15.4695 14.9695 15.5506C14.867 15.6231 14.8131 15.7428 14.8131 15.8614C14.8131 15.9289 14.8306 15.9961 14.867 16.0539C15.012 16.2843 15.1503 16.5044 15.2892 16.724C15.3446 16.8116 15.4225 16.8583 15.5093 16.8751C15.5032 16.9044 15.5003 16.9316 15.5003 16.9569C15.5 17.0759 15.5611 17.1588 15.6272 17.2623C16.1726 18.1164 20.1008 24.2332 20.1001 26.8916C20.1001 27.6446 19.7847 28.12 18.9885 28.12ZM13.425 9.96926C13.3735 9.96926 13.3225 9.96177 13.2739 9.94676C13.4411 9.78638 13.4875 9.53455 13.3639 9.31986C13.2889 9.18913 13.1596 9.09982 13.0178 9.06804C12.9963 9.0391 12.9753 9.01017 12.9538 8.98123C12.7491 8.7019 12.5448 8.42364 12.3409 8.14609C12.208 7.96534 12.0755 7.78495 11.9429 7.60492C11.6068 6.96695 11.2835 6.33326 10.8797 5.69029C11.6693 6.76798 12.4677 7.85639 13.2696 8.95016C13.3232 8.93158 13.3789 8.92265 13.4346 8.92265H13.435C13.4353 8.92265 13.4357 8.92265 13.4361 8.92265C13.6075 8.92301 13.7775 9.00767 13.8768 9.15483C13.9372 9.24485 13.9661 9.34416 13.9658 9.44203C13.9658 9.60884 13.8822 9.77102 13.7318 9.87354C13.6368 9.93819 13.5296 9.96926 13.425 9.96926Z" fill="#003366"/>
<path fill-rule="evenodd" clip-rule="evenodd" d="M20.0787 27.2095L22.3637 20.6576C21.5539 18.5904 20.6545 16.6287 19.6679 14.7833C19.6197 14.6926 19.5314 14.6233 19.4414 14.5872C19.465 14.5058 19.4553 14.4154 19.4043 14.3329C19.261 14.1014 19.1156 13.8642 18.9731 13.6324C18.8645 13.4563 18.6345 13.377 18.4609 13.4485C18.3355 13.5002 18.2112 13.5549 18.0894 13.6167C18.0219 13.5063 17.879 13.4592 17.7697 13.5135C17.7458 13.5253 17.7204 13.537 17.6965 13.552C17.1685 12.6379 16.6756 11.6846 16.3237 10.7701C15.9765 9.86674 15.7965 8.99302 15.9701 8.29111C15.1164 7.77709 14.2551 7.29629 13.3921 6.86156C12.5538 6.4397 11.7072 6.05964 10.8797 5.69029C11.6693 6.76798 12.4677 7.85638 13.2696 8.95015C13.4889 8.87407 13.745 8.95944 13.8768 9.15483C14.0408 9.39845 13.9704 9.71136 13.7318 9.87353C13.4911 10.0371 13.171 9.98712 13.0131 9.75422C12.8774 9.55383 12.8974 9.29235 13.0424 9.10196C12.2408 8.0082 11.4432 6.92658 10.6559 5.8546C10.7505 6.76441 10.8507 7.67921 10.9551 8.59937C11.0593 9.51918 11.1678 10.4383 11.24 11.3095C12.0458 11.4724 12.8113 11.9425 13.5229 12.5869C14.2383 13.2348 14.8767 14.0782 15.4475 14.9309C15.4253 14.9519 15.4 14.9655 15.3771 14.9819C15.2746 15.0555 15.2475 15.2006 15.315 15.3109C15.1996 15.3909 15.0839 15.4695 14.9695 15.5506C14.8088 15.6646 14.7667 15.8942 14.867 16.0539C15.0121 16.2843 15.1503 16.5044 15.2892 16.724C15.3446 16.8115 15.4225 16.8583 15.5093 16.8751C15.4743 17.0412 15.5471 17.137 15.6272 17.2623C16.1955 18.1525 20.4387 24.7594 20.0787 27.2095Z" fill="white"/>
</svg>
