<svg width="26" height="26" viewBox="0 0 26 26" fill="none" xmlns="http://www.w3.org/2000/svg">
<path d="M0 9.89767V24.0987C0 25.0493 0.770727 25.82 1.72133 25.82H24.0987C25.0493 25.82 25.82 25.0493 25.82 24.0987V8.60667C25.82 8.13115 25.4349 7.746 24.9593 7.746H19.365" fill="#4C506E"/>
<path d="M25.82 12.91C25.82 12.4345 25.4349 12.0493 24.9593 12.0493H2.15167C0.963516 12.0493 0 11.0858 0 9.89767C0 8.70952 0.963516 7.746 2.15167 7.746H24.9593C25.4349 7.746 25.82 8.13115 25.82 8.60667V12.91Z" fill="#363A4F"/>
<path d="M2.15168 9.03699C1.67616 9.03699 1.29102 9.42214 1.29102 9.89765V11.8677C1.55481 11.983 1.84528 12.0493 2.15168 12.0493H24.9593V9.03699H2.15168Z" fill="#2C2F41"/>
<path d="M21.3015 9.89766H3.65783C3.30151 9.89766 3.01233 9.60847 3.01233 9.25216C3.01233 8.89584 3.30151 8.60666 3.65783 8.60666H21.3015C21.6578 8.60666 21.947 8.89584 21.947 9.25216C21.947 9.60847 21.6578 9.89766 21.3015 9.89766Z" fill="#4C506E"/>
<path d="M12.91 12.91C16.475 12.91 19.365 10.02 19.365 6.455C19.365 2.89 16.475 0 12.91 0C9.34502 0 6.45502 2.89 6.45502 6.455C6.45502 10.02 9.34502 12.91 12.91 12.91Z" fill="#F6B940"/>
<path d="M12.91 0C9.34514 0 6.45502 2.89012 6.45502 6.455C6.45502 7.91039 6.94258 9.24829 7.75462 10.328H14.201C15.1516 10.328 15.9224 9.55727 15.9224 8.60667V0.747919C15.0225 0.271971 13.9988 0 12.91 0Z" fill="#FAD85D"/>
<path d="M8.60664 6.45499H7.74597C7.74597 9.3025 10.0625 11.619 12.91 11.619V10.7583C10.5371 10.7583 8.60664 8.82784 8.60664 6.45499Z" fill="#FCE797"/>
<path d="M12.91 1.29099V2.15165C15.2828 2.15165 17.2133 4.08213 17.2133 6.45499H18.074C18.074 3.60747 15.7575 1.29099 12.91 1.29099Z" fill="#FCE797"/>
<path d="M15.9223 5.164C15.9223 4.21469 15.1503 3.44267 14.201 3.44267V2.582H13.3403V3.44267H12.91V2.582H12.0493V3.44267H10.328V4.30333H11.1887V8.60667H10.328V9.46733H12.0493V10.328H12.91V9.46733H13.3403V10.328H14.201V9.46733C15.1503 9.46733 15.9223 8.69532 15.9223 7.746C15.9223 7.2296 15.6891 6.77087 15.3276 6.455C15.6891 6.13914 15.9223 5.6804 15.9223 5.164ZM15.0617 7.746C15.0617 8.22066 14.6757 8.60667 14.201 8.60667H12.0493V6.88533H14.201C14.6757 6.88533 15.0617 7.27134 15.0617 7.746ZM12.0493 6.02467V4.30333H14.201C14.6757 4.30333 15.0617 4.68934 15.0617 5.164C15.0617 5.63866 14.6757 6.02467 14.201 6.02467H12.0493Z" fill="white"/>
<path d="M3.01233 12.0493V21.5167C3.01233 22.4673 3.78306 23.238 4.73366 23.238H25.82V12.91C25.82 12.4345 25.4348 12.0493 24.9593 12.0493H19.365" fill="#787FAA"/>
<path d="M25.82 16.3527H21.947C20.7589 16.3527 19.7953 17.3162 19.7953 18.5043C19.7953 19.6925 20.7589 20.656 21.947 20.656H25.82" fill="#4C506E"/>
<path d="M21.947 19.365C22.4223 19.365 22.8076 18.9797 22.8076 18.5043C22.8076 18.029 22.4223 17.6437 21.947 17.6437C21.4716 17.6437 21.0863 18.029 21.0863 18.5043C21.0863 18.9797 21.4716 19.365 21.947 19.365Z" fill="#363A4F"/>
<path d="M17.4285 14.201H5.37914C5.02283 14.201 4.73364 13.9118 4.73364 13.5555C4.73364 13.1992 5.02283 12.91 5.37914 12.91H17.4285C17.7848 12.91 18.074 13.1992 18.074 13.5555C18.074 13.9118 17.7848 14.201 17.4285 14.201Z" fill="#9DA1BF"/>
<path d="M23.4531 22.3773H11.4038C11.0475 22.3773 10.7583 22.0882 10.7583 21.7318C10.7583 21.3755 11.0475 21.0863 11.4038 21.0863H23.4531C23.8094 21.0863 24.0986 21.3755 24.0986 21.7318C24.0986 22.0882 23.8094 22.3773 23.4531 22.3773Z" fill="#9DA1BF"/>
</svg>
