<svg viewBox="0 0 18 19" fill="none" xmlns="http://www.w3.org/2000/svg">
<path d="M17.6032 3.99024C15.8238 3.99024 14.0408 3.99024 12.2614 3.99024C12.0052 3.99024 11.9104 3.93719 11.9104 3.66489C11.9104 2.54031 11.9104 1.41219 11.9104 0.287603C11.9104 -0.0412845 11.9104 -0.0412844 11.6121 0.0577355C10.2889 0.503325 8.97628 0.987815 7.63907 1.38389C6.38961 1.75522 5.82454 2.40946 5.93334 3.72854C5.93334 3.93719 5.87719 3.99024 5.67362 3.99024C4.84532 3.99024 4.02054 3.99024 3.19224 3.99024C2.83003 3.98863 2.47656 4.1023 2.18224 4.31503C1.88792 4.52777 1.66777 4.82871 1.5532 5.17494C1.04077 6.70621 0.538883 8.24102 0.026462 9.77229C-0.0332034 9.95619 0.00189373 10.0057 0.194929 10.0022C0.984619 10.0022 1.77431 10.0022 2.56751 10.0022H11.742C11.7214 10.0332 11.6945 10.0594 11.663 10.0789C11.6315 10.0984 11.5962 10.1109 11.5594 10.1153L7.20035 11.5865C6.83269 11.6986 6.51169 11.9292 6.28662 12.2429C6.06155 12.5565 5.94484 12.9359 5.9544 13.3229C5.9544 14.3025 5.9544 15.282 5.9544 16.2616C5.9544 16.7306 6.13929 17.1803 6.46839 17.5119C6.79749 17.8436 7.24385 18.0298 7.70927 18.0298C8.53756 18.0298 9.36235 18.0298 10.1906 18.0298C10.4334 18.0333 10.6737 17.98 10.8926 17.8742C11.2258 17.7225 11.5051 17.4719 11.6933 17.1559C11.8814 16.84 11.9694 16.4737 11.9455 16.106C11.9455 14.1751 11.9455 12.2407 11.9455 10.3098C11.9455 10.0587 12.0192 10.0057 12.2544 10.0092C13.037 10.0092 13.8162 10.0092 14.5989 10.0092C14.989 10.0298 15.3745 9.91695 15.693 9.68909C16.0115 9.46122 16.2444 9.13166 16.3537 8.7538C16.8346 7.2579 17.3119 5.76199 17.8138 4.26254C17.8875 4.03268 17.8419 3.99024 17.6032 3.99024Z" fill="#292929"/>
</svg>
