<svg width="23" height="26" viewBox="0 0 23 26" fill="none" xmlns="http://www.w3.org/2000/svg">
<path d="M6.37501 22.8478L17.0634 16.5919C17.2725 16.4715 17.3971 16.3502 17.3897 16.0777C17.3833 15.8259 17.2252 15.7597 17.0681 15.6517C16.8654 15.5138 16.7317 15.6687 16.5892 15.751C13.6263 17.4582 10.6647 19.1678 7.70442 20.8797C7.00916 21.2813 6.30977 21.6755 5.62095 22.0877C5.34938 22.2504 5.17155 22.2122 4.80715 21.9127L0.645724 19.5029C0.159093 19.3168 -0.0017389 19.1836 0.00239678 18.8242C0.0134253 17.0367 0.0092896 15.2492 0.00653246 13.4621C0.00653246 13.2631 0.0111276 13.099 0.223886 12.9773C2.6621 11.5808 5.03046 10.1742 7.46501 8.77038L7.70626 8.62242C7.70992 10.1848 7.68004 12.2526 7.69614 13.8182L7.70809 14.212C6.93884 14.6329 5.83831 15.3025 5.06308 15.711C4.73179 15.8851 4.71432 16.1764 4.83931 16.369C4.97716 16.5785 5.2184 16.7932 5.58417 16.5799C8.54379 14.8549 11.5106 13.1424 14.4846 11.4425C14.4575 10.5313 14.4704 9.63474 14.4704 8.627L20.344 12.0164C20.8591 12.3137 21.3696 12.6189 21.8912 12.9047C22.0828 13.0099 22.1609 13.1312 22.16 13.3573C22.1505 15.2043 22.1505 17.0512 22.16 18.8982C22.16 19.1013 22.0984 19.2157 21.9192 19.3187C18.3758 21.358 14.6459 23.5141 11.1076 25.5626L6.37501 22.8478Z" fill="#292929"/>
<path d="M11.0741 0C14.5577 2.02189 18.3506 4.21059 21.8383 6.22603C21.9831 6.30966 22.16 6.35655 22.1563 6.59963C22.1467 8.3536 22.1512 10.1081 22.1512 11.9347L13.4732 6.92587C13.4732 7.78565 13.4815 8.56547 13.4705 9.34524C13.4631 9.86313 13.3951 10.8732 13.3951 10.8732C13.3951 10.8732 12.5629 11.4103 12.1255 11.6635C11.0088 12.3101 9.89171 12.9553 8.7172 13.6344L8.69973 6.91855C6.06853 8.45654 3.01179 10.2082 0.373231 11.7306C0.273975 11.7876 0.170123 11.8358 0.00561512 11.9204C0.00561512 11.323 0.00561512 10.7785 0.00561512 10.2335C0.00561512 9.08469 0.0134269 7.94006 0.000100873 6.79356C-0.00311577 6.5261 0.0699478 6.36666 0.312575 6.2274C3.80585 4.22207 7.2942 2.20876 10.7777 0.187484L11.0741 0Z" fill="#292929"/>
</svg>
