<svg width="69" height="68" viewBox="0 0 69 68" fill="none" xmlns="http://www.w3.org/2000/svg">
<path d="M34.0063 13.1509H37.2973V67.9998H34.0063V13.1509Z" fill="#47B4D5" fill-opacity="0.25"/>
<path d="M31.8124 13.1509C30.3583 13.1526 28.9642 13.7311 27.9359 14.7593C26.9077 15.7875 26.3293 17.1816 26.3275 18.6358V62.515C26.3293 63.9691 26.9077 65.3632 27.9359 66.3914C28.9642 67.4197 30.3583 67.9981 31.8124 67.9998V13.1509Z" fill="#47B4D5" fill-opacity="0.25"/>
<path d="M44.9761 33.9937H62.5278V37.2846H44.9761V33.9937Z" fill="#47B4D5" fill-opacity="0.25"/>
<path d="M44.9761 43.8667H62.5278V47.1576H44.9761V43.8667Z" fill="#47B4D5" fill-opacity="0.25"/>
<path d="M64.7218 13.1509H39.4913V67.9998H64.7218C65.5946 67.9998 66.4317 67.6531 67.0488 67.036C67.666 66.4188 68.0127 65.5817 68.0127 64.7089V16.4418C68.0127 15.569 67.666 14.7319 67.0488 14.1148C66.4317 13.4976 65.5946 13.1509 64.7218 13.1509ZM64.7218 48.2542C64.7218 48.5452 64.6062 48.8242 64.4005 49.0299C64.1948 49.2356 63.9158 49.3512 63.6248 49.3512H43.8792C43.5883 49.3512 43.3092 49.2356 43.1035 49.0299C42.8978 48.8242 42.7822 48.5452 42.7822 48.2542V42.7693C42.7822 42.4784 42.8978 42.1994 43.1035 41.9936C43.3092 41.7879 43.5883 41.6723 43.8792 41.6723H63.6248C63.9158 41.6723 64.1948 41.7879 64.4005 41.9936C64.6062 42.1994 64.7218 42.4784 64.7218 42.7693V48.2542ZM64.7218 38.3814C64.7218 38.6723 64.6062 38.9514 64.4005 39.1571C64.1948 39.3628 63.9158 39.4784 63.6248 39.4784H43.8792C43.5883 39.4784 43.3092 39.3628 43.1035 39.1571C42.8978 38.9514 42.7822 38.6723 42.7822 38.3814V32.8965C42.7822 32.6056 42.8978 32.3265 43.1035 32.1208C43.3092 31.9151 43.5883 31.7995 43.8792 31.7995H63.6248C63.9158 31.7995 64.1948 31.9151 64.4005 32.1208C64.6062 32.3265 64.7218 32.6056 64.7218 32.8965V38.3814Z" fill="#47B4D5" fill-opacity="0.25"/>
<path d="M41.219 1.33655C36.4406 -1.18651 31.163 0.56866 27.4234 5.7837C23.6849 0.566466 18.4084 -1.1887 13.63 1.33655C11.809 2.32084 10.292 3.78443 9.24301 5.56891C8.19406 7.35339 7.65316 9.39078 7.67885 11.4606V13.072C7.67885 21.3345 16.0159 30.4109 27.0702 34.1834C27.2998 34.2624 27.5492 34.2624 27.7788 34.1834C38.8331 30.4109 47.1701 21.3345 47.1701 13.072V11.4606C47.1958 9.39078 46.6549 7.35339 45.6059 5.56891C44.557 3.78443 43.0399 2.32084 41.219 1.33655V1.33655ZM44.9762 13.072C44.9762 20.3549 37.4564 28.4297 27.4245 31.984C17.3926 28.433 9.87281 20.356 9.87281 13.072V11.4606C9.84826 9.79051 10.2806 8.14551 11.1232 6.70338C11.9658 5.26125 13.1865 4.07684 14.6534 3.2782C19.3288 0.811093 23.7672 3.78281 26.4822 8.35173C26.5867 8.50557 26.7272 8.63151 26.8916 8.71856C27.0559 8.80561 27.2391 8.85111 27.425 8.85111C27.611 8.85111 27.7942 8.80561 27.9585 8.71856C28.1228 8.63151 28.2634 8.50557 28.3679 8.35173C31.525 3.03467 36.0577 1.09192 40.1944 3.2782C41.6616 4.0766 42.8826 5.26092 43.7254 6.70309C44.5682 8.14525 45.0007 9.79038 44.9762 11.4606V13.072Z" fill="#100F0D"/>
<path d="M27.8446 26.272C20.0287 23.0294 15.3577 17.0146 15.3577 13.0721C15.3577 12.7811 15.2421 12.5021 15.0364 12.2964C14.8307 12.0907 14.5517 11.9751 14.2607 11.9751C13.9698 11.9751 13.6908 12.0907 13.4851 12.2964C13.2793 12.5021 13.1638 12.7811 13.1638 13.0721C13.1638 17.6706 18.0146 24.5695 27.0043 28.2992C27.2732 28.4107 27.5753 28.4108 27.8441 28.2995C28.113 28.1882 28.3267 27.9746 28.4381 27.7058C28.5495 27.437 28.5496 27.1349 28.4383 26.866C28.327 26.5971 28.1135 26.3835 27.8446 26.272V26.272Z" fill="#100F0D"/>
<path d="M53.752 10.063H50.4611C50.1701 10.063 49.8911 10.1786 49.6854 10.3843C49.4796 10.59 49.3641 10.869 49.3641 11.16C49.3641 11.4509 49.4796 11.7299 49.6854 11.9356C49.8911 12.1414 50.1701 12.2569 50.4611 12.2569H53.752C54.0429 12.2569 54.322 12.1414 54.5277 11.9356C54.7334 11.7299 54.849 11.4509 54.849 11.16C54.849 10.869 54.7334 10.59 54.5277 10.3843C54.322 10.1786 54.0429 10.063 53.752 10.063Z" fill="#100F0D"/>
<path d="M5.4849 11.16C5.4849 10.869 5.36932 10.59 5.1636 10.3843C4.95788 10.1786 4.67885 10.063 4.38792 10.063H1.09698C0.806042 10.063 0.527021 10.1786 0.321298 10.3843C0.115574 10.59 0 10.869 0 11.16C0 11.4509 0.115574 11.7299 0.321298 11.9356C0.527021 12.1414 0.806042 12.2569 1.09698 12.2569H4.38792C4.67885 12.2569 4.95788 12.1414 5.1636 11.9356C5.36932 11.7299 5.4849 11.4509 5.4849 11.16Z" fill="#100F0D"/>
<path d="M49.1272 3.3572L52.168 2.09786C52.4284 1.98104 52.633 1.76731 52.7384 1.50205C52.8438 1.2368 52.8417 0.940911 52.7325 0.677208C52.6232 0.413506 52.4155 0.202757 52.1535 0.0897093C51.8914 -0.0233388 51.5955 -0.029784 51.3288 0.071742L48.288 1.33107C48.1508 1.38327 48.0255 1.46245 47.9196 1.56392C47.8136 1.66539 47.729 1.7871 47.6709 1.92183C47.6128 2.05657 47.5823 2.2016 47.5812 2.34833C47.5801 2.49506 47.6085 2.64052 47.6647 2.77608C47.7208 2.91165 47.8036 3.03458 47.9081 3.13758C48.0126 3.24059 48.1367 3.32158 48.2731 3.37576C48.4094 3.42995 48.5553 3.45622 48.702 3.45303C48.8487 3.44984 48.9933 3.41725 49.1272 3.3572V3.3572Z" fill="#100F0D"/>
<path d="M5.72186 18.9651L2.68103 20.2211C2.4122 20.3324 2.1986 20.5459 2.0872 20.8147C1.9758 21.0835 1.97573 21.3855 2.08702 21.6543C2.1983 21.9232 2.41182 22.1368 2.68059 22.2482C2.94937 22.3596 3.25139 22.3596 3.52022 22.2483L6.56105 20.989C6.81477 20.868 7.01238 20.6543 7.11308 20.3918C7.21379 20.1294 7.20991 19.8383 7.10225 19.5787C6.99458 19.319 6.79135 19.1106 6.53449 18.9964C6.27763 18.8822 5.98675 18.871 5.72186 18.9651Z" fill="#100F0D"/>
<path d="M10.3599 26.6733L8.0321 29C7.92733 29.1012 7.84376 29.2222 7.78626 29.356C7.72877 29.4899 7.69851 29.6338 7.69725 29.7795C7.69598 29.9251 7.72374 30.0696 7.77889 30.2044C7.83405 30.3392 7.9155 30.4617 8.0185 30.5647C8.1215 30.6677 8.24398 30.7491 8.3788 30.8043C8.51361 30.8595 8.65806 30.8872 8.80372 30.8859C8.94937 30.8847 9.09332 30.8544 9.22715 30.7969C9.36099 30.7394 9.48204 30.6559 9.58323 30.5511L11.911 28.2244C12.0158 28.1232 12.0994 28.0022 12.1569 27.8683C12.2143 27.7345 12.2446 27.5905 12.2459 27.4449C12.2471 27.2992 12.2194 27.1548 12.1642 27.02C12.1091 26.8852 12.0276 26.7627 11.9246 26.6597C11.8216 26.5567 11.6991 26.4752 11.5643 26.4201C11.4295 26.3649 11.2851 26.3372 11.1394 26.3384C10.9937 26.3397 10.8498 26.3699 10.716 26.4274C10.5821 26.4849 10.4611 26.5685 10.3599 26.6733V26.6733Z" fill="#100F0D"/>
<path d="M17.9312 32.5272C17.6625 32.416 17.3607 32.4161 17.092 32.5274C16.8234 32.6386 16.6099 32.852 16.4986 33.1206L15.2392 36.1604C15.1804 36.294 15.1489 36.4381 15.1465 36.5841C15.144 36.7301 15.1708 36.8751 15.2252 37.0107C15.2796 37.1462 15.3605 37.2695 15.4631 37.3734C15.5658 37.4772 15.6881 37.5596 15.823 37.6155C15.9579 37.6714 16.1026 37.6999 16.2487 37.6992C16.3947 37.6985 16.5391 37.6686 16.6735 37.6113C16.8078 37.554 16.9294 37.4705 17.031 37.3657C17.1326 37.2608 17.2123 37.1367 17.2653 37.0006L18.5247 33.9598C18.6358 33.6911 18.6358 33.3893 18.5245 33.1207C18.4132 32.852 18.1998 32.6385 17.9312 32.5272Z" fill="#100F0D"/>
<path d="M39.4474 33.116C39.3952 32.9788 39.316 32.8536 39.2146 32.7476C39.1131 32.6416 38.9914 32.557 38.8567 32.4989C38.7219 32.4408 38.5769 32.4103 38.4302 32.4092C38.2834 32.4081 38.138 32.4365 38.0024 32.4927C37.8668 32.5488 37.7439 32.6316 37.6409 32.7361C37.5379 32.8406 37.4569 32.9647 37.4027 33.1011C37.3485 33.2375 37.3223 33.3833 37.3255 33.53C37.3286 33.6767 37.3612 33.8213 37.4213 33.9552L38.6806 36.996C38.7337 37.132 38.8133 37.2561 38.915 37.361C39.0166 37.4659 39.1382 37.5494 39.2725 37.6067C39.4068 37.6639 39.5513 37.6938 39.6973 37.6945C39.8433 37.6952 39.988 37.6668 40.1229 37.6108C40.2578 37.5549 40.3802 37.4726 40.4828 37.3687C40.5855 37.2649 40.6664 37.1415 40.7208 37.006C40.7752 36.8705 40.8019 36.7255 40.7995 36.5794C40.7971 36.4334 40.7656 36.2894 40.7067 36.1557L39.4474 33.116Z" fill="#100F0D"/>
<path d="M27.4245 36.3906C27.1336 36.3906 26.8545 36.5062 26.6488 36.7119C26.4431 36.9176 26.3275 37.1967 26.3275 37.4876V40.7785C26.3275 41.0695 26.4431 41.3485 26.6488 41.5542C26.8545 41.7599 27.1336 41.8755 27.4245 41.8755C27.7154 41.8755 27.9945 41.7599 28.2002 41.5542C28.4059 41.3485 28.5215 41.0695 28.5215 40.7785V37.4876C28.5215 37.1967 28.4059 36.9176 28.2002 36.7119C27.9945 36.5062 27.7154 36.3906 27.4245 36.3906Z" fill="#100F0D"/>
<path d="M44.4891 26.6737C44.2822 26.4738 44.0051 26.3633 43.7175 26.3658C43.4298 26.3683 43.1547 26.4836 42.9513 26.687C42.7479 26.8904 42.6325 27.1655 42.63 27.4532C42.6275 27.7408 42.7381 28.0179 42.9379 28.2248L45.2657 30.5515C45.3669 30.6563 45.488 30.7398 45.6218 30.7973C45.7556 30.8548 45.8996 30.8851 46.0452 30.8863C46.1909 30.8876 46.3353 30.8598 46.4702 30.8047C46.605 30.7495 46.7275 30.6681 46.8305 30.5651C46.9335 30.4621 47.0149 30.3396 47.0701 30.2048C47.1252 30.07 47.153 29.9255 47.1517 29.7799C47.1504 29.6342 47.1202 29.4903 47.0627 29.3564C47.0052 29.2226 46.9216 29.1015 46.8169 29.0004L44.4891 26.6737Z" fill="#100F0D"/>
<path d="M6.56102 1.33107L3.52019 0.071742C3.25343 -0.029784 2.95761 -0.0233388 2.69552 0.0897093C2.43344 0.202757 2.22573 0.413506 2.11651 0.677208C2.00729 0.940911 2.00515 1.2368 2.11055 1.50205C2.21595 1.76731 2.42058 1.98104 2.681 2.09786L5.72183 3.3572C5.98859 3.45872 6.28442 3.45228 6.5465 3.33923C6.80859 3.22618 7.01629 3.01543 7.12551 2.75173C7.23474 2.48803 7.23687 2.19214 7.13148 1.92688C7.02608 1.66163 6.82144 1.4479 6.56102 1.33107V1.33107Z" fill="#100F0D"/>
<path d="M52.1679 20.2208L49.1271 18.9648C48.8583 18.8535 48.5562 18.8535 48.2875 18.9649C48.0187 19.0763 47.8052 19.29 47.6939 19.5588C47.5826 19.8276 47.5827 20.1296 47.6941 20.3984C47.8055 20.6672 48.0191 20.8807 48.2879 20.992L51.3287 22.2513C51.4618 22.3064 51.6045 22.3348 51.7486 22.3347C51.8926 22.3347 52.0353 22.3063 52.1684 22.2511C52.3014 22.196 52.4224 22.1151 52.5242 22.0133C52.626 21.9114 52.7068 21.7904 52.7619 21.6573C52.817 21.5242 52.8454 21.3815 52.8454 21.2375C52.8453 21.0934 52.8169 20.9508 52.7618 20.8177C52.7066 20.6846 52.6258 20.5637 52.5239 20.4618C52.422 20.36 52.301 20.2792 52.1679 20.2241V20.2208Z" fill="#100F0D"/>
</svg>
