<svg width="70" height="68" viewBox="0 0 70 68" fill="none" xmlns="http://www.w3.org/2000/svg">
<path d="M40.1559 63.5409H18.9755C18.6799 63.5409 18.3963 63.4234 18.1873 63.2144C17.9782 63.0053 17.8608 62.7218 17.8608 62.4261V23.4097C17.8608 23.1141 17.9782 22.8305 18.1873 22.6215C18.3963 22.4124 18.6799 22.295 18.9755 22.295H40.1559V17.8359H16.746C15.8591 17.8359 15.0084 18.1883 14.3813 18.8154C13.7541 19.4426 13.4018 20.2932 13.4018 21.1802V64.6556C13.4018 65.5426 13.7541 66.3932 14.3813 67.0204C15.0084 67.6475 15.8591 67.9999 16.746 67.9999H40.1559V63.5409Z" fill="#47B4D5" fill-opacity="0.25"/>
<path d="M44.6149 55.7375H42.3854V61.3113H62.4509V24.5244H42.3854V30.0982H44.6149C44.9105 30.0982 45.1941 30.2156 45.4031 30.4247C45.6122 30.6337 45.7296 30.9173 45.7296 31.2129C45.7296 31.5086 45.6122 31.7921 45.4031 32.0012C45.1941 32.2102 44.9105 32.3277 44.6149 32.3277H42.3854V53.508H44.6149C44.9105 53.508 45.1941 53.6255 45.4031 53.8345C45.6122 54.0436 45.7296 54.3271 45.7296 54.6228C45.7296 54.9184 45.6122 55.202 45.4031 55.411C45.1941 55.6201 44.9105 55.7375 44.6149 55.7375ZM59.1067 55.7375H49.0739C48.7782 55.7375 48.4947 55.6201 48.2856 55.411C48.0766 55.202 47.9591 54.9184 47.9591 54.6228C47.9591 54.3271 48.0766 54.0436 48.2856 53.8345C48.4947 53.6255 48.7782 53.508 49.0739 53.508H59.1067C59.4023 53.508 59.6859 53.6255 59.8949 53.8345C60.104 54.0436 60.2214 54.3271 60.2214 54.6228C60.2214 54.9184 60.104 55.202 59.8949 55.411C59.6859 55.6201 59.4023 55.7375 59.1067 55.7375ZM49.0739 30.0982H59.1067C59.4023 30.0982 59.6859 30.2156 59.8949 30.4247C60.104 30.6337 60.2214 30.9173 60.2214 31.2129C60.2214 31.5086 60.104 31.7921 59.8949 32.0012C59.6859 32.2102 59.4023 32.3277 59.1067 32.3277H49.0739C48.7782 32.3277 48.4947 32.2102 48.2856 32.0012C48.0766 31.7921 47.9591 31.5086 47.9591 31.2129C47.9591 30.9173 48.0766 30.6337 48.2856 30.4247C48.4947 30.2156 48.7782 30.0982 49.0739 30.0982ZM45.7296 37.9015H59.1067C59.4023 37.9015 59.6859 38.0189 59.8949 38.228C60.104 38.437 60.2214 38.7206 60.2214 39.0162C60.2214 39.3119 60.104 39.5954 59.8949 39.8045C59.6859 40.0135 59.4023 40.131 59.1067 40.131H45.7296C45.434 40.131 45.1504 40.0135 44.9414 39.8045C44.7323 39.5954 44.6149 39.3119 44.6149 39.0162C44.6149 38.7206 44.7323 38.437 44.9414 38.228C45.1504 38.0189 45.434 37.9015 45.7296 37.9015ZM45.7296 45.7047H59.1067C59.4023 45.7047 59.6859 45.8222 59.8949 46.0312C60.104 46.2403 60.2214 46.5238 60.2214 46.8195C60.2214 47.1151 60.104 47.3987 59.8949 47.6077C59.6859 47.8168 59.4023 47.9342 59.1067 47.9342H45.7296C45.434 47.9342 45.1504 47.8168 44.9414 47.6077C44.7323 47.3987 44.6149 47.1151 44.6149 46.8195C44.6149 46.5238 44.7323 46.2403 44.9414 46.0312C45.1504 45.8222 45.434 45.7047 45.7296 45.7047Z" fill="#47B4D5" fill-opacity="0.25"/>
<path d="M65.7952 17.8359H42.3854V22.295H63.5657C63.8614 22.295 64.1449 22.4124 64.354 22.6215C64.563 22.8305 64.6805 23.1141 64.6805 23.4097V62.4261C64.6805 62.7218 64.563 63.0053 64.354 63.2144C64.1449 63.4234 63.8614 63.5409 63.5657 63.5409H42.3854V67.9999H65.7952C66.6822 67.9999 67.5328 67.6475 68.16 67.0204C68.7871 66.3932 69.1395 65.5426 69.1395 64.6556V21.1802C69.1395 20.2932 68.7871 19.4426 68.16 18.8154C67.5328 18.1883 66.6822 17.8359 65.7952 17.8359Z" fill="#47B4D5" fill-opacity="0.25"/>
<path d="M20.0903 61.3113H40.1559V55.7375H37.9264C37.6307 55.7375 37.3472 55.6201 37.1381 55.411C36.9291 55.202 36.8116 54.9184 36.8116 54.6228C36.8116 54.3271 36.9291 54.0436 37.1381 53.8345C37.3472 53.6255 37.6307 53.508 37.9264 53.508H40.1559V32.3277H37.9264C37.6307 32.3277 37.3472 32.2102 37.1381 32.0012C36.9291 31.7921 36.8116 31.5086 36.8116 31.2129C36.8116 30.9173 36.9291 30.6337 37.1381 30.4247C37.3472 30.2156 37.6307 30.0982 37.9264 30.0982H40.1559V24.5244H20.0903V61.3113ZM23.4346 30.0982H33.4674C33.763 30.0982 34.0465 30.2156 34.2556 30.4247C34.4647 30.6337 34.5821 30.9173 34.5821 31.2129C34.5821 31.5086 34.4647 31.7921 34.2556 32.0012C34.0465 32.2102 33.763 32.3277 33.4674 32.3277H23.4346C23.1389 32.3277 22.8554 32.2102 22.6463 32.0012C22.4373 31.7921 22.3198 31.5086 22.3198 31.2129C22.3198 30.9173 22.4373 30.6337 22.6463 30.4247C22.8554 30.2156 23.1389 30.0982 23.4346 30.0982ZM23.4346 37.9015H36.8116C37.1073 37.9015 37.3908 38.0189 37.5999 38.228C37.8089 38.437 37.9264 38.7206 37.9264 39.0162C37.9264 39.3119 37.8089 39.5954 37.5999 39.8045C37.3908 40.0135 37.1073 40.131 36.8116 40.131H23.4346C23.1389 40.131 22.8554 40.0135 22.6463 39.8045C22.4373 39.5954 22.3198 39.3119 22.3198 39.0162C22.3198 38.7206 22.4373 38.437 22.6463 38.228C22.8554 38.0189 23.1389 37.9015 23.4346 37.9015ZM23.4346 45.7047H36.8116C37.1073 45.7047 37.3908 45.8222 37.5999 46.0312C37.8089 46.2403 37.9264 46.5238 37.9264 46.8195C37.9264 47.1151 37.8089 47.3987 37.5999 47.6077C37.3908 47.8168 37.1073 47.9342 36.8116 47.9342H23.4346C23.1389 47.9342 22.8554 47.8168 22.6463 47.6077C22.4373 47.3987 22.3198 47.1151 22.3198 46.8195C22.3198 46.5238 22.4373 46.2403 22.6463 46.0312C22.8554 45.8222 23.1389 45.7047 23.4346 45.7047ZM23.4346 53.508H33.4674C33.763 53.508 34.0465 53.6255 34.2556 53.8345C34.4647 54.0436 34.5821 54.3271 34.5821 54.6228C34.5821 54.9184 34.4647 55.202 34.2556 55.411C34.0465 55.6201 33.763 55.7375 33.4674 55.7375H23.4346C23.1389 55.7375 22.8554 55.6201 22.6463 55.411C22.4373 55.202 22.3198 54.9184 22.3198 54.6228C22.3198 54.3271 22.4373 54.0436 22.6463 53.8345C22.8554 53.6255 23.1389 53.508 23.4346 53.508Z" fill="#47B4D5" fill-opacity="0.25"/>
<path d="M0.886407 47.2488C3.61198 47.8876 5.11133 49.0492 10.0575 49.0492C16.8887 49.0492 17.0559 46.8197 23.4345 46.8197C29.8243 46.8197 29.9492 49.0492 36.8116 49.0492C41.7009 49.0492 43.3641 47.8631 45.9871 47.2488C46.269 47.176 46.5112 46.9958 46.662 46.7467C46.8127 46.4976 46.86 46.1994 46.7938 45.9159C46.7275 45.6323 46.553 45.386 46.3074 45.2295C46.0619 45.073 45.7649 45.0188 45.4799 45.0784C43.7242 45.4887 42.5659 46.0538 40.8325 46.434L44.1344 33.2197C44.3226 32.4813 44.2516 31.7006 43.9333 31.0083C43.6149 30.3159 43.0685 29.7539 42.3854 29.4161L40.1492 28.3014V17.8361C40.1492 17.2448 39.9143 16.6777 39.4962 16.2596C39.078 15.8415 38.511 15.6066 37.9197 15.6066H35.6901V12.2623C35.6901 11.3753 35.3378 10.5247 34.7106 9.89754C34.0835 9.27037 33.2328 8.91803 32.3459 8.91803H26.7788V2.22951C26.7788 1.63821 26.5439 1.07112 26.1258 0.653008C25.7077 0.234894 25.1406 0 24.5493 0H22.3053C21.714 0 21.1469 0.234894 20.7288 0.653008C20.3107 1.07112 20.0758 1.63821 20.0758 2.22951V8.91803H14.5098C13.6229 8.91803 12.7722 9.27037 12.1451 9.89754C11.5179 10.5247 11.1656 11.3753 11.1656 12.2623V15.6066H8.93605C8.34474 15.6066 7.77766 15.8415 7.35955 16.2596C6.94143 16.6777 6.70654 17.2448 6.70654 17.8361V28.298L4.46923 29.4128C3.78564 29.7508 3.23897 30.3135 2.92076 31.0065C2.60255 31.6996 2.53213 32.4809 2.72129 33.2197L6.02431 46.4306C4.29755 46.0505 3.14713 45.4887 1.39362 45.0784C1.24977 45.0413 1.09994 45.0332 0.952939 45.0548C0.805938 45.0764 0.664731 45.1271 0.537618 45.204C0.410506 45.2809 0.300052 45.3825 0.212749 45.5027C0.125447 45.6229 0.063057 45.7594 0.0292471 45.9041C-0.00456283 46.0487 -0.00911068 46.1987 0.0158709 46.3452C0.0408526 46.4916 0.0948596 46.6316 0.174718 46.7569C0.254575 46.8822 0.358673 46.9903 0.480891 47.0747C0.60311 47.1592 0.740983 47.2184 0.886407 47.2488V47.2488ZM41.3888 31.4093C41.6156 31.5227 41.7971 31.7101 41.9031 31.9406C42.0091 32.171 42.0333 32.4307 41.9718 32.6768L38.4503 46.7617C37.9498 46.7963 37.4169 46.8197 36.8082 46.8197C30.5946 46.8197 30.5355 44.8544 24.5459 44.6147V22.9885L41.3888 31.4093ZM22.3053 2.22951H24.5493V8.91803H22.3053V2.22951ZM13.3951 12.2623C13.3951 11.9666 13.5125 11.6831 13.7216 11.474C13.9306 11.265 14.2142 11.1475 14.5098 11.1475H32.3459C32.6415 11.1475 32.9251 11.265 33.1341 11.474C33.3432 11.6831 33.4606 11.9666 33.4606 12.2623V15.6066H13.3951V12.2623ZM8.93605 17.8361H37.9197V27.181L23.9328 20.1826C23.9239 20.1826 23.9128 20.1826 23.9027 20.1759C23.7575 20.1033 23.5974 20.0655 23.4351 20.0655C23.2728 20.0655 23.1127 20.1033 22.9675 20.1759C22.9574 20.1759 22.9463 20.1759 22.9362 20.1826L8.93605 27.1833V17.8361ZM4.88392 32.679C4.82212 32.4328 4.84622 32.1728 4.95223 31.9421C5.05825 31.7115 5.23982 31.5239 5.46693 31.4104L22.3198 22.984V44.6102C16.3001 44.8488 16.2499 46.8163 10.0575 46.8163C9.44549 46.8163 8.90929 46.7918 8.40542 46.7572L4.88392 32.679Z" fill="#100F0D"/>
<path d="M45.4766 50.6523C42.5615 51.3334 41.3754 52.3936 36.8116 52.3936C30.433 52.3936 30.2602 50.1641 23.4345 50.1641C16.6089 50.1641 16.4372 52.3936 10.0631 52.3936C5.49257 52.3936 4.29644 51.3301 1.4003 50.6523C1.25645 50.6152 1.10662 50.6071 0.959623 50.6287C0.812622 50.6503 0.671415 50.701 0.544302 50.7779C0.417189 50.8548 0.306735 50.9564 0.219433 51.0766C0.13213 51.1968 0.0697403 51.3333 0.0359304 51.478C0.00212043 51.6226 -0.00242728 51.7726 0.0225543 51.9191C0.047536 52.0655 0.101543 52.2055 0.181401 52.3308C0.261259 52.4561 0.365356 52.5642 0.487575 52.6486C0.609793 52.7331 0.747667 52.7923 0.893091 52.8227C3.61198 53.4615 5.11132 54.6231 10.0575 54.6231C16.8887 54.6231 17.0559 52.3936 23.4345 52.3936C29.8243 52.3936 29.9492 54.6231 36.8116 54.6231C41.7009 54.6231 43.3641 53.437 45.9871 52.8227C46.269 52.7499 46.5112 52.5697 46.662 52.3206C46.8127 52.0715 46.86 51.7733 46.7938 51.4898C46.7275 51.2062 46.553 50.9599 46.3074 50.8034C46.0619 50.6469 45.7649 50.5927 45.4799 50.6523H45.4766Z" fill="#100F0D"/>
</svg>
