<svg width="71" height="68" viewBox="0 0 71 68" fill="none" xmlns="http://www.w3.org/2000/svg">
<path d="M64.5997 11.3335H19.2666C17.7642 11.3353 16.3239 11.9329 15.2616 12.9952C14.1993 14.0575 13.6017 15.4978 13.5999 17.0001V62.3332C13.6017 63.8356 14.1993 65.2759 15.2616 66.3382C16.3239 67.4005 17.7642 67.9981 19.2666 67.9999H64.5997C66.102 67.9981 67.5423 67.4005 68.6046 66.3382C69.6669 65.2759 70.2645 63.8356 70.2663 62.3332V17.0001C70.2645 15.4978 69.6669 14.0575 68.6046 12.9952C67.5423 11.9329 66.102 11.3353 64.5997 11.3335V11.3335ZM56.7378 40.6481L32.7962 54.4747C32.6239 54.5742 32.4285 54.6266 32.2296 54.6266C32.0306 54.6266 31.8352 54.5742 31.6629 54.4748C31.4906 54.3753 31.3476 54.2322 31.2481 54.0599C31.1486 53.8877 31.0962 53.6922 31.0962 53.4933V25.8401C31.096 25.6411 31.1483 25.4455 31.2477 25.273C31.3471 25.1006 31.4901 24.9574 31.6624 24.8578C31.8347 24.7582 32.0303 24.7057 32.2293 24.7057C32.4283 24.7056 32.6239 24.758 32.7962 24.8575L56.7378 38.6841C56.9103 38.7835 57.0536 38.9266 57.1533 39.099C57.2529 39.2714 57.3054 39.467 57.3054 39.6661C57.3054 39.8652 57.2529 40.0609 57.1533 40.2333C57.0536 40.4056 56.9103 40.5488 56.7378 40.6481Z" fill="#47B4D5" fill-opacity="0.25"/>
<path d="M33.3629 51.5259L53.9044 39.6668L33.3629 27.8076V51.5259Z" fill="#47B4D5" fill-opacity="0.25"/>
<path d="M42.2074 22.1003L17.6697 7.93375C17.4095 7.78584 17.1014 7.74683 16.8126 7.82524C16.5238 7.90365 16.2777 8.09312 16.1281 8.3523C15.9784 8.61148 15.9374 8.91932 16.0139 9.20865C16.0904 9.49799 16.2782 9.74532 16.5364 9.89668L41.0741 24.0633C41.203 24.1389 41.3456 24.1882 41.4937 24.2084C41.6418 24.2287 41.7924 24.2195 41.9369 24.1813C42.0814 24.143 42.2169 24.0766 42.3357 23.9858C42.4544 23.8951 42.554 23.7817 42.6287 23.6522C42.7034 23.5228 42.7518 23.3799 42.7711 23.2316C42.7904 23.0834 42.7801 22.9329 42.741 22.7886C42.7018 22.6444 42.6345 22.5093 42.5429 22.3912C42.4514 22.2731 42.3373 22.1742 42.2074 22.1003V22.1003Z" fill="#100F0D"/>
<path d="M56.0997 27.5039L49.2295 23.5373L50.3628 21.5743C50.5131 21.314 50.5538 21.0047 50.476 20.7144C50.3982 20.424 50.2083 20.1765 49.948 20.0262L15.5957 0.192979C15.3354 0.0426974 15.0261 0.0019717 14.7358 0.0797609C14.4454 0.15755 14.1979 0.347482 14.0476 0.607777L13.4809 1.58924L11.518 0.455911C11.1311 0.232415 10.704 0.08737 10.261 0.0290685C9.81798 -0.029233 9.36784 0.000352653 8.93629 0.116134C8.50474 0.231915 8.10025 0.431621 7.74593 0.703834C7.39162 0.976046 7.09443 1.31543 6.87137 1.70257L2.33805 9.5554C2.11456 9.94229 1.96951 10.3694 1.91121 10.8124C1.85291 11.2554 1.8825 11.7056 1.99828 12.1371C2.11406 12.5687 2.31376 12.9732 2.58598 13.3275C2.85819 13.6818 3.19757 13.979 3.58472 14.202L5.54764 15.3354L4.98097 16.3168C4.90639 16.4458 4.85795 16.5881 4.83843 16.7358C4.81891 16.8835 4.82869 17.0336 4.86721 17.1774C4.90574 17.3213 4.97225 17.4562 5.06294 17.5744C5.15364 17.6925 5.26674 17.7917 5.39577 17.8661L20.8238 26.7729L14.4431 36.8777C14.3404 37.0381 14.199 37.1701 14.0318 37.2614C13.8646 37.3527 13.6771 37.4004 13.4866 37.4001H7.93329V26.0668C7.93329 25.1651 7.57508 24.3003 6.93746 23.6627C6.29984 23.0251 5.43504 22.6669 4.53331 22.6669H1.13333C0.83275 22.6669 0.544484 22.7863 0.331944 22.9988C0.119404 23.2113 0 23.4996 0 23.8002V53.2667C0 53.5673 0.119404 53.8556 0.331944 54.0681C0.544484 54.2806 0.83275 54.4 1.13333 54.4H4.53331C5.43504 54.4 6.29984 54.0418 6.93746 53.4042C7.57508 52.7666 7.93329 51.9018 7.93329 51.0001V39.6668H13.4866C14.0613 39.668 14.6268 39.523 15.13 39.2454C15.6332 38.9679 16.0575 38.5669 16.363 38.0801L22.7924 27.8994L39.7515 37.6914C39.8804 37.7658 40.0228 37.814 40.1704 37.8333C40.318 37.8527 40.4679 37.8428 40.6117 37.8041C40.7555 37.7655 40.8902 37.6989 41.0082 37.6082C41.1263 37.5175 41.2253 37.4044 41.2996 37.2755L42.4329 35.3137L44.0479 36.2453C44.6355 36.5878 45.3127 36.7451 45.9911 36.6965C46.6694 36.648 47.3174 36.3959 47.8502 35.9733L56.2368 29.375C56.382 29.2603 56.4969 29.1117 56.5714 28.9422C56.646 28.7728 56.6778 28.5877 56.6643 28.4031C56.6508 28.2185 56.5923 28.0401 56.4938 27.8833C56.3954 27.7266 56.2601 27.5963 56.0997 27.5039V27.5039ZM5.66664 51.0001C5.66664 51.3006 5.54723 51.5889 5.33469 51.8014C5.12215 52.014 4.83389 52.1334 4.53331 52.1334H2.26666V24.9335H4.53331C4.83389 24.9335 5.12215 25.0529 5.33469 25.2655C5.54723 25.478 5.66664 25.7663 5.66664 26.0668V51.0001ZM4.71691 12.2335C4.45769 12.0824 4.26894 11.8347 4.19203 11.5448C4.11513 11.2548 4.15634 10.9461 4.30665 10.6865L8.83996 2.83363C8.91447 2.70469 9.01366 2.5917 9.13187 2.50112C9.25007 2.41054 9.38497 2.34414 9.52885 2.30572C9.67274 2.2673 9.82278 2.25762 9.9704 2.27722C10.118 2.29683 10.2603 2.34533 10.3892 2.41997L12.351 3.5533L6.68437 13.3679L4.71691 12.2335ZM39.8999 35.1629L7.51056 16.463C8.14183 15.3705 5.62924 19.7202 15.4439 2.72257L47.8332 21.4202L39.8999 35.1629ZM46.4449 34.1939C46.2675 34.3352 46.0516 34.4194 45.8254 34.4356C45.5993 34.4518 45.3735 34.3992 45.1778 34.2846L43.5628 33.3519L48.0962 25.5013L53.5169 28.6304L46.4449 34.1939Z" fill="#100F0D"/>
</svg>
