<svg width="68" height="68" viewBox="0 0 68 68" fill="none" xmlns="http://www.w3.org/2000/svg">
<path d="M56.6495 44.2822C55.3926 46.0876 53.739 47.5813 51.8154 48.6486C49.8918 49.7159 47.7494 50.3285 45.5523 50.4395C43.149 50.5407 40.7593 50.0303 38.6071 48.9561C36.4548 47.8819 34.6104 46.279 33.2465 44.2976C29.894 45.7336 27.036 48.1207 25.0257 51.1637C23.0154 54.2067 21.941 57.7722 21.9355 61.4193V64.7096C21.9355 65.5823 22.2821 66.4192 22.8992 67.0363C23.5163 67.6533 24.3532 68 25.2258 68H64.7097C65.5823 68 66.4192 67.6533 67.0363 67.0363C67.6533 66.4192 68 65.5823 68 64.7096V61.4193C67.9942 57.7652 66.9154 54.1932 64.8976 51.1467C62.8798 48.1002 60.0118 45.7133 56.6495 44.2822V44.2822Z" fill="#47B4D5" fill-opacity="0.25"/>
<path d="M39.4838 40.5684V42.8058C38.0959 42.8926 36.7222 43.135 35.3885 43.5286C36.5653 45.0667 38.0955 46.2983 39.8496 47.1193C41.6036 47.9403 43.5296 48.3263 45.4645 48.2447C47.2235 48.1563 48.9423 47.6873 50.5024 46.87C52.0625 46.0528 53.4267 44.9067 54.5009 43.5111C53.1814 43.1268 51.8233 42.8903 50.4516 42.8058V40.5684C53.1826 39.4467 55.4946 37.4992 57.0639 34.9985C58.6333 32.4977 59.3815 29.5689 59.2038 26.6218C59.0635 24.0783 58.2444 21.6188 56.8315 19.4991C55.4187 17.3794 53.4638 15.677 51.17 14.5688C48.8763 13.4606 46.3276 12.9872 43.7889 13.1977C41.2503 13.4083 38.8143 14.2951 36.7345 15.766C34.6547 17.2369 33.007 19.2382 31.9626 21.5616C30.9183 23.8851 30.5155 26.446 30.7961 28.9778C31.0768 31.5097 32.0306 33.9202 33.5585 35.9585C35.0863 37.9969 37.1324 39.5887 39.4838 40.5684V40.5684ZM44.9677 37.2902C44.7508 37.2902 44.5387 37.2258 44.3584 37.1053C44.178 36.9848 44.0374 36.8135 43.9544 36.6131C43.8714 36.4127 43.8497 36.1922 43.892 35.9794C43.9343 35.7667 44.0388 35.5712 44.1922 35.4178C44.3455 35.2645 44.541 35.16 44.7537 35.1177C44.9665 35.0754 45.187 35.0971 45.3874 35.1801C45.5878 35.2631 45.7591 35.4037 45.8796 35.584C46.0001 35.7644 46.0645 35.9765 46.0645 36.1934C46.0645 36.4843 45.9489 36.7632 45.7432 36.9689C45.5375 37.1746 45.2586 37.2902 44.9677 37.2902ZM39.6056 23.3041C39.7439 22.3223 40.1492 21.3973 40.7772 20.6301C41.4053 19.8629 42.2319 19.2829 43.1671 18.9534C44.1022 18.6239 45.1099 18.5575 46.0801 18.7615C47.0504 18.9655 47.946 19.432 48.6693 20.1102C49.3926 20.7884 49.9157 21.6522 50.1816 22.6074C50.4476 23.5625 50.4461 24.5724 50.1773 25.5268C49.9086 26.4811 49.3829 27.3434 48.6576 28.0194C47.9323 28.6955 47.0353 29.1594 46.0645 29.3605V32.8921C46.0645 33.183 45.9489 33.4619 45.7432 33.6676C45.5375 33.8733 45.2586 33.9889 44.9677 33.9889C44.6768 33.9889 44.3978 33.8733 44.1922 33.6676C43.9865 33.4619 43.8709 33.183 43.8709 32.8921V28.3767C43.8709 28.0858 43.9865 27.8068 44.1922 27.6011C44.3978 27.3954 44.6768 27.2799 44.9677 27.2799C45.4051 27.2796 45.8379 27.1903 46.2398 27.0174C46.6416 26.8445 47.004 26.5916 47.305 26.2741C47.6059 25.9566 47.8391 25.5812 47.9903 25.1707C48.1415 24.7603 48.2076 24.3233 48.1845 23.8865C48.1397 23.0752 47.7904 22.3106 47.2065 21.7456C46.6226 21.1806 45.8469 20.8566 45.0346 20.8385C44.2451 20.8144 43.4748 21.0844 42.8731 21.5961C42.2714 22.1078 41.8812 22.8248 41.7783 23.6079C41.7572 23.7572 41.7465 23.9079 41.7465 24.0587C41.7465 24.3496 41.6309 24.6285 41.4252 24.8342C41.2195 25.0399 40.9406 25.1554 40.6497 25.1554C40.3588 25.1554 40.0798 25.0399 39.8742 24.8342C39.6685 24.6285 39.5529 24.3496 39.5529 24.0587C39.5532 23.8062 39.5708 23.5541 39.6056 23.3041V23.3041Z" fill="#47B4D5" fill-opacity="0.25"/>
<path d="M41.4449 9.83587L34.0899 0.421161C33.8617 0.181059 33.5544 0.0314943 33.2246 0H3.29032C2.41767 0 1.58077 0.346658 0.963713 0.963713C0.346658 1.58077 0 2.41767 0 3.29032V51.5484C0 52.421 0.346658 53.2579 0.963713 53.875C1.58077 54.4921 2.41767 54.8387 3.29032 54.8387H38.3871C39.2597 54.8387 40.0966 54.4921 40.7137 53.875C41.3308 53.2579 41.6774 52.421 41.6774 51.5484V10.5115C41.658 10.2703 41.5781 10.0379 41.4449 9.83587V9.83587ZM33.7455 3.54368L37.7554 8.67658L32.7749 7.43503L33.7455 3.54368ZM38.3871 52.6452H3.29032C2.99944 52.6452 2.72047 52.5296 2.51479 52.3239C2.3091 52.1182 2.19355 51.8393 2.19355 51.5484V3.29032C2.19355 2.99944 2.3091 2.72047 2.51479 2.51479C2.72047 2.3091 2.99944 2.19355 3.29032 2.19355H31.8218L30.3806 7.96916C30.3103 8.25131 30.3549 8.54984 30.5047 8.79911C30.6544 9.04838 30.897 9.22799 31.1791 9.29845L39.4839 11.3681V51.5484C39.4839 51.8393 39.3683 52.1182 39.1626 52.3239C38.9569 52.5296 38.678 52.6452 38.3871 52.6452Z" fill="#100F0D"/>
<path d="M27.4194 46.0645H6.58066C6.28978 46.0645 6.01081 46.18 5.80512 46.3857C5.59944 46.5914 5.48389 46.8703 5.48389 47.1612C5.48389 47.4521 5.59944 47.7311 5.80512 47.9368C6.01081 48.1424 6.28978 48.258 6.58066 48.258H27.4194C27.7103 48.258 27.9892 48.1424 28.1949 47.9368C28.4006 47.7311 28.5161 47.4521 28.5161 47.1612C28.5161 46.8703 28.4006 46.5914 28.1949 46.3857C27.9892 46.18 27.7103 46.0645 27.4194 46.0645Z" fill="#100F0D"/>
<path d="M35.0968 39.4839H6.58066C6.28978 39.4839 6.01081 39.5994 5.80512 39.8051C5.59944 40.0108 5.48389 40.2898 5.48389 40.5807C5.48389 40.8715 5.59944 41.1505 5.80512 41.3562C6.01081 41.5619 6.28978 41.6774 6.58066 41.6774H35.0968C35.3877 41.6774 35.6666 41.5619 35.8723 41.3562C36.078 41.1505 36.1936 40.8715 36.1936 40.5807C36.1936 40.2898 36.078 40.0108 35.8723 39.8051C35.6666 39.5994 35.3877 39.4839 35.0968 39.4839Z" fill="#100F0D"/>
<path d="M35.0968 32.9033H6.58066C6.28978 32.9033 6.01081 33.0189 5.80512 33.2246C5.59944 33.4302 5.48389 33.7092 5.48389 34.0001C5.48389 34.291 5.59944 34.5699 5.80512 34.7756C6.01081 34.9813 6.28978 35.0969 6.58066 35.0969H35.0968C35.3877 35.0969 35.6666 34.9813 35.8723 34.7756C36.078 34.5699 36.1936 34.291 36.1936 34.0001C36.1936 33.7092 36.078 33.4302 35.8723 33.2246C35.6666 33.0189 35.3877 32.9033 35.0968 32.9033Z" fill="#100F0D"/>
<path d="M15.5819 14.8942C15.8727 14.8942 16.1517 14.7787 16.3574 14.573C16.5631 14.3673 16.6786 14.0884 16.6786 13.7975C16.6784 13.2439 16.7887 12.6958 17.0031 12.1854C17.2175 11.675 17.5318 11.2125 17.9274 10.8252C18.3229 10.4379 18.7919 10.1335 19.3067 9.92993C19.8216 9.72633 20.3719 9.62762 20.9253 9.6396C21.7309 9.65632 22.5143 9.90675 23.1802 10.3605C23.8461 10.8142 24.3659 11.4516 24.6762 12.1952C24.9865 12.9388 25.0741 13.7566 24.9283 14.549C24.7825 15.3415 24.4095 16.0745 23.8548 16.659C23.4678 17.0704 23.0004 17.398 22.4816 17.6214C21.9628 17.8448 21.4036 17.9592 20.8387 17.9575C20.5478 17.9575 20.2688 18.0731 20.0632 18.2788C19.8575 18.4845 19.7419 18.7634 19.7419 19.0543V24.5513C19.7419 24.8422 19.8575 25.1212 20.0632 25.3269C20.2688 25.5326 20.5478 25.6481 20.8387 25.6481C21.1296 25.6481 21.4086 25.5326 21.6142 25.3269C21.8199 25.1212 21.9355 24.8422 21.9355 24.5513V20.0546C23.4647 19.785 24.8425 18.9653 25.8092 17.7501C26.7758 16.5349 27.2647 15.0081 27.1835 13.4575C27.1007 11.8798 26.4331 10.3896 25.3109 9.27757C24.1887 8.16555 22.6925 7.51148 21.1141 7.44299C19.5358 7.3745 17.9885 7.89649 16.7742 8.90712C15.5599 9.91775 14.7657 11.3445 14.5465 12.9091C14.5061 13.202 14.4855 13.4974 14.4851 13.7931C14.4845 13.9375 14.5125 14.0806 14.5673 14.2142C14.6222 14.3477 14.7029 14.4691 14.8048 14.5715C14.9067 14.6738 15.0278 14.7549 15.1611 14.8103C15.2945 14.8657 15.4375 14.8942 15.5819 14.8942V14.8942Z" fill="#100F0D"/>
<path d="M20.8387 29.8884C21.4444 29.8884 21.9355 29.3973 21.9355 28.7916C21.9355 28.1859 21.4444 27.6948 20.8387 27.6948C20.233 27.6948 19.7419 28.1859 19.7419 28.7916C19.7419 29.3973 20.233 29.8884 20.8387 29.8884Z" fill="#100F0D"/>
</svg>
