<svg width="73" height="56" viewBox="0 0 73 56" fill="none" xmlns="http://www.w3.org/2000/svg">
<path d="M61.2808 4.68999C56.598 2.499 51.5909 0.906681 46.356 0C45.7131 1.16233 44.9621 2.72569 44.4442 3.96934C38.8795 3.13248 33.3659 3.13248 27.9035 3.96934C27.3858 2.72569 26.6176 1.16233 25.969 0C20.7285 0.906681 15.7156 2.50485 11.0328 4.70159C1.58744 18.9747 -0.973038 32.8934 0.307204 46.6144C6.57185 51.2927 12.6431 54.1346 18.6118 55.9942C20.0855 53.966 21.3999 51.8099 22.5321 49.5376C20.3757 48.7182 18.3102 47.707 16.3586 46.5331C16.8764 46.1495 17.3828 45.7484 17.8721 45.3358C29.7755 50.9033 42.7088 50.9033 54.47 45.3358C54.965 45.7484 55.4713 46.1495 55.9834 46.5331C54.0261 47.7127 51.955 48.7239 49.7985 49.5435C50.9308 51.8099 52.2395 53.9718 53.7189 56C59.6934 54.1403 65.7702 51.2985 72.0348 46.6144C73.537 30.7082 69.4687 16.9174 61.2808 4.68999ZM24.1538 38.1761C20.5805 38.1761 17.6502 34.8402 17.6502 30.778C17.6502 26.7157 20.518 23.3741 24.1538 23.3741C27.7898 23.3741 30.72 26.7098 30.6575 30.778C30.6631 34.8402 27.7898 38.1761 24.1538 38.1761ZM48.1882 38.1761C44.615 38.1761 41.6846 34.8402 41.6846 30.778C41.6846 26.7157 44.5523 23.3741 48.1882 23.3741C51.8241 23.3741 54.7545 26.7098 54.6919 30.778C54.6919 34.8402 51.8241 38.1761 48.1882 38.1761Z" fill="#5865F2"/>
</svg>
