<svg width="77" height="111" viewBox="0 0 77 111" fill="none" xmlns="http://www.w3.org/2000/svg">
<path d="M22.7226 43.4434C22.7129 43.3839 22.6954 43.3328 22.6679 43.2895C22.6489 43.243 22.6185 43.2094 22.5914 43.1803C22.5671 43.1499 22.5416 43.1292 22.5173 43.1147C22.4711 43.0859 22.442 43.073 22.442 43.073C22.442 43.073 22.4517 43.1018 22.4676 43.1515C22.4853 43.1965 22.4999 43.2669 22.4999 43.339C22.506 43.3758 22.4999 43.4159 22.495 43.456C22.495 43.4947 22.474 43.5348 22.4676 43.5729C22.4517 43.6114 22.4324 43.6502 22.4165 43.6773C22.4117 43.7029 22.3587 43.7542 22.3251 43.7943C22.3121 43.7959 22.2704 43.847 22.2368 43.8583C22.2016 43.8825 22.1632 43.8984 22.1247 43.9162C22.0862 43.9226 22.0478 43.9417 22.0093 43.9433C21.9693 43.9481 21.9292 43.953 21.8923 43.9498C21.817 43.9449 21.7576 43.9385 21.7049 43.9162C21.6567 43.8984 21.6248 43.8903 21.6248 43.8903C21.6248 43.8903 21.639 43.9162 21.6664 43.9627C21.679 43.985 21.6984 44.0121 21.7304 44.038C21.7608 44.0651 21.7964 44.0971 21.841 44.1149C21.8859 44.142 21.9373 44.1598 21.9948 44.1692C22.0526 44.1853 22.115 44.1821 22.1809 44.1773C22.2449 44.1627 22.3154 44.155 22.3748 44.1165C22.4453 44.0861 22.4821 44.0522 22.559 43.9866C22.5943 43.9368 22.6279 43.9097 22.6679 43.8295C22.708 43.7607 22.7145 43.6915 22.7306 43.6292C22.7339 43.5633 22.7387 43.4993 22.7226 43.4434Z" fill="#212224"/>
<path d="M24.585 41.3374C24.5692 41.318 24.553 41.3038 24.5368 41.2941C24.5081 41.2764 24.489 41.2699 24.489 41.2699C24.489 41.2699 24.4968 41.2877 24.5081 41.318C24.5162 41.3484 24.5243 41.3917 24.5272 41.4399C24.5307 41.4638 24.5255 41.488 24.5242 41.5119C24.5242 41.5378 24.5097 41.5633 24.5081 41.5892C24.4968 41.6131 24.4842 41.6386 24.4729 41.6548C24.4696 41.671 24.436 41.7029 24.4134 41.7301C24.4073 41.7301 24.3798 41.7637 24.3591 41.7718C24.3365 41.786 24.311 41.7957 24.287 41.8054C24.2628 41.8118 24.2373 41.8248 24.2134 41.8248C24.1875 41.8264 24.1636 41.8309 24.1377 41.8277C24.0915 41.8264 24.0531 41.8215 24.0175 41.8054C23.9871 41.7957 23.9681 41.7912 23.9681 41.7912C23.9681 41.7912 23.9775 41.8086 23.9952 41.8374C24.0017 41.8519 24.0143 41.8678 24.0337 41.8839C24.0531 41.9033 24.0786 41.9224 24.1057 41.9353C24.1332 41.9511 24.1668 41.9624 24.2037 41.9689C24.2405 41.9786 24.2822 41.977 24.3223 41.9738C24.3636 41.9641 24.4073 41.9592 24.4473 41.9353C24.4919 41.9159 24.5162 41.8936 24.5643 41.8519C24.5899 41.8196 24.6073 41.8038 24.6332 41.7524C24.6603 41.7075 24.6635 41.6645 24.6748 41.6228C24.6765 41.5811 24.6781 41.541 24.6684 41.5058C24.6619 41.4674 24.6525 41.4354 24.6332 41.4079C24.6218 41.3775 24.6028 41.3549 24.585 41.3374Z" fill="#212224"/>
<path d="M23.1426 45.9131C23.1329 45.8989 23.12 45.8892 23.1087 45.8827C23.0864 45.8682 23.0751 45.8636 23.0751 45.8636C23.0751 45.8636 23.0783 45.8762 23.0864 45.9005C23.0945 45.9212 23.1009 45.9531 23.1009 45.9871C23.1039 46.0045 23.1009 46.0223 23.099 46.0398C23.0974 46.0591 23.0896 46.0766 23.0864 46.0944C23.0783 46.1118 23.0702 46.1312 23.0625 46.1438C23.0589 46.1551 23.0366 46.1778 23.0208 46.1968C23.0143 46.1984 22.995 46.2227 22.9791 46.2275C22.9646 46.2369 22.9452 46.245 22.9293 46.2531C22.91 46.2563 22.8909 46.2657 22.8747 46.2657C22.8553 46.2676 22.8363 46.2705 22.8204 46.2692C22.7868 46.2676 22.7577 46.264 22.7338 46.2531C22.7112 46.245 22.6954 46.2417 22.6954 46.2417C22.6954 46.2417 22.7035 46.2547 22.7161 46.2753C22.7209 46.2867 22.7306 46.298 22.7451 46.3093C22.7594 46.3219 22.7755 46.3364 22.7978 46.3458C22.8172 46.3587 22.8411 46.3668 22.8683 46.3717C22.8941 46.3778 22.9229 46.3765 22.9549 46.3733C22.9836 46.3684 23.0143 46.3636 23.0447 46.3458C23.0767 46.3316 23.0929 46.317 23.1297 46.2867C23.1443 46.2627 23.1601 46.2498 23.1792 46.2146C23.1969 46.181 23.2002 46.1503 23.2066 46.1215C23.2082 46.0895 23.2099 46.0621 23.205 46.0349C23.2002 46.0078 23.1905 45.9838 23.1792 45.9645C23.1698 45.9422 23.1552 45.9276 23.1426 45.9131Z" fill="#212224"/>
<path d="M53.2916 43.4434C53.2816 43.3839 53.2625 43.3328 53.237 43.2895C53.2176 43.243 53.1872 43.2094 53.1598 43.1803C53.1358 43.1499 53.1087 43.1292 53.0854 43.1147C53.0379 43.0859 53.0108 43.073 53.0108 43.073C53.0108 43.073 53.0205 43.1018 53.036 43.1515C53.0541 43.1965 53.0677 43.2669 53.0686 43.339C53.0735 43.3758 53.0686 43.4159 53.0631 43.456C53.0631 43.4947 53.0412 43.5348 53.036 43.5729C53.0205 43.6114 53.0011 43.6502 52.9852 43.6773C52.9788 43.7029 52.9277 43.7542 52.8931 43.7943C52.8812 43.7959 52.8385 43.847 52.8049 43.8583C52.7703 43.8825 52.7319 43.8984 52.6934 43.9162C52.655 43.9226 52.6168 43.9417 52.5768 43.9433C52.5367 43.9481 52.4966 43.953 52.4611 43.9498C52.3858 43.9449 52.3263 43.9385 52.2727 43.9162C52.2248 43.8984 52.1935 43.8903 52.1935 43.8903C52.1935 43.8903 52.2061 43.9162 52.2336 43.9627C52.2471 43.985 52.2665 44.0121 52.2992 44.038C52.3289 44.0651 52.3641 44.0971 52.4097 44.1149C52.4533 44.142 52.5044 44.1598 52.5638 44.1692C52.6214 44.1853 52.6831 44.1821 52.748 44.1773C52.8136 44.1627 52.8828 44.155 52.9436 44.1165C53.0124 44.0861 53.0509 44.0522 53.1281 43.9866C53.163 43.9368 53.1969 43.9097 53.2354 43.8295C53.2771 43.7607 53.2832 43.6915 53.2978 43.6292C53.3026 43.5633 53.3068 43.4993 53.2916 43.4434Z" fill="#212224"/>
<path d="M55.1528 41.3374C55.1379 41.318 55.1217 41.3038 55.1059 41.2941C55.0752 41.2764 55.0574 41.2699 55.0574 41.2699C55.0574 41.2699 55.0658 41.2877 55.0752 41.318C55.0849 41.3484 55.093 41.3917 55.0946 41.4399C55.0985 41.4638 55.094 41.488 55.092 41.5119C55.092 41.5378 55.0778 41.5633 55.0752 41.5892C55.0658 41.6131 55.0513 41.6386 55.04 41.6548C55.0377 41.671 55.0048 41.7029 54.9825 41.7301C54.9753 41.7301 54.9488 41.7637 54.9278 41.7718C54.9055 41.786 54.88 41.7957 54.8555 41.8054C54.8315 41.8118 54.806 41.8248 54.7811 41.8248C54.7556 41.8264 54.7317 41.8309 54.7068 41.8277C54.6593 41.8264 54.6202 41.8215 54.5862 41.8054C54.5552 41.7957 54.5368 41.7912 54.5368 41.7912C54.5368 41.7912 54.5455 41.8086 54.5633 41.8374C54.5698 41.8519 54.5824 41.8678 54.6024 41.8839C54.6218 41.9033 54.6467 41.9224 54.6745 41.9353C54.7019 41.9511 54.7352 41.9624 54.7724 41.9689C54.8092 41.9786 54.8503 41.977 54.891 41.9738C54.9327 41.9641 54.976 41.9592 55.0154 41.9353C55.0607 41.9159 55.0842 41.8936 55.133 41.8519C55.1579 41.8196 55.1764 41.8038 55.2003 41.7524C55.2294 41.7075 55.2323 41.6645 55.2429 41.6228C55.2452 41.5811 55.2468 41.541 55.2365 41.5058C55.231 41.4674 55.2193 41.4354 55.2019 41.4079C55.1909 41.3775 55.1715 41.3549 55.1528 41.3374Z" fill="#212224"/>
<path d="M53.711 45.9131C53.7 45.8989 53.6887 45.8892 53.6768 45.8827C53.6535 45.8682 53.6438 45.8636 53.6438 45.8636C53.6438 45.8636 53.6471 45.8762 53.6535 45.9005C53.6632 45.9212 53.6697 45.9531 53.6697 45.9871C53.671 46.0045 53.6697 46.0223 53.6674 46.0398C53.6664 46.0591 53.6574 46.0766 53.6535 46.0944C53.6471 46.1118 53.6393 46.1312 53.6302 46.1438C53.6273 46.1551 53.6037 46.1778 53.5895 46.1968C53.5831 46.1984 53.5627 46.2227 53.5478 46.2275C53.5317 46.2369 53.5142 46.245 53.4965 46.2531C53.478 46.2563 53.4586 46.2657 53.4418 46.2657C53.4237 46.2676 53.405 46.2705 53.3875 46.2692C53.3555 46.2676 53.3265 46.264 53.3009 46.2531C53.2796 46.245 53.2641 46.2417 53.2641 46.2417C53.2641 46.2417 53.2722 46.2547 53.2841 46.2753C53.2899 46.2867 53.2977 46.298 53.3123 46.3093C53.3281 46.3219 53.3442 46.3364 53.3659 46.3458C53.3843 46.3587 53.4092 46.3668 53.4373 46.3717C53.4612 46.3778 53.4916 46.3765 53.523 46.3733C53.5524 46.3684 53.5831 46.3636 53.6128 46.3458C53.6445 46.3316 53.6616 46.317 53.6975 46.2867C53.7127 46.2627 53.7288 46.2498 53.7472 46.2146C53.7657 46.181 53.7689 46.1503 53.7747 46.1215C53.777 46.0895 53.7786 46.0621 53.7721 46.0349C53.7673 46.0078 53.7595 45.9838 53.7472 45.9645C53.7385 45.9422 53.724 45.9276 53.711 45.9131Z" fill="#212224"/>
<path d="M45.6711 70.5491C45.0894 70.9756 44.3994 71.346 43.6419 71.6569C44.6508 65.5552 45.2038 61.5417 45.2038 51.6493C45.2038 39.736 44.2142 36.5402 42.8126 33.3266C42.4559 32.477 42.1728 31.631 42.1489 31.5476C39.9507 24.3591 39.8825 19.6615 39.8473 17.1385C39.8411 16.7539 39.8346 16.4159 39.8233 16.1209V8.93878H40.4364L40.437 17.2028C40.4558 17.485 40.4597 17.8088 40.4684 18.1772C40.5198 20.5877 40.6135 25.0787 43.658 31.9532C43.6949 32.0333 44.0875 32.8425 44.5807 33.6533C46.5203 36.726 47.8925 39.7825 47.8925 51.1736C47.8925 60.7661 47.1072 64.576 45.6711 70.5491ZM44.4324 73.6634C44.2743 73.7675 44.0652 73.8622 43.8303 73.9811C43.5979 74.1091 43.3213 74.2212 43.0185 74.335C42.7173 74.4616 42.3757 74.5499 42.0218 74.6669C41.6615 74.7615 41.2805 74.8672 40.8785 74.9328C40.4771 75.002 40.0622 75.0737 39.6285 75.1012C39.1945 75.1539 38.7831 75.1477 38.34 75.1668C37.9057 75.1461 37.4697 75.151 37.0451 75.1012C36.6156 75.0737 36.2003 75.002 35.798 74.9328C35.3972 74.8672 35.0175 74.7615 34.6569 74.6652C34.3027 74.5483 33.9614 74.46 33.6599 74.3334C33.3571 74.2196 33.0814 74.1075 32.8471 73.9811C32.6102 73.8606 32.4018 73.7646 32.2447 73.6618C31.9258 73.4647 31.7416 73.3509 31.7416 73.3509C31.7416 73.3509 31.9436 73.4327 32.2897 73.5755C32.4593 73.6573 32.6775 73.7213 32.9211 73.8076C33.1629 73.8977 33.4453 73.9711 33.7497 74.0625C34.0509 74.1637 34.3925 74.2212 34.7448 74.3062C35.1022 74.3718 35.479 74.4377 35.8717 74.4923C36.2611 74.545 36.6683 74.5883 37.0835 74.6126C37.4962 74.6572 37.9176 74.6442 38.34 74.6588C38.7504 74.6442 39.1983 74.6556 39.5991 74.6126C40.0092 74.5867 40.4141 74.545 40.8067 74.4923C41.1987 74.4377 41.5762 74.3705 41.9333 74.3062C42.2862 74.2212 42.6268 74.1637 42.9287 74.0625C43.2318 73.9711 43.5139 73.8977 43.7582 73.8063C44.0019 73.7213 44.2213 73.6557 44.389 73.5755C44.7352 73.4327 44.9362 73.3509 44.9362 73.3509C44.9362 73.3509 44.7546 73.4682 44.4324 73.6634ZM31.0283 70.5491C29.5922 64.576 28.8053 60.7661 28.8053 51.1736C28.8053 39.7825 30.1803 36.726 32.1261 33.6424C32.6132 32.8425 33.0045 32.0333 33.0414 31.9532C36.0866 25.0787 36.1825 20.5877 36.2307 18.1772C36.2372 17.8088 36.2452 17.485 36.2627 17.1579V8.93878H37.142V16.0743C37.1307 16.4159 37.1268 16.7539 37.1236 17.1385C37.0923 19.6615 37.0354 24.3591 35.2033 31.5492C35.1823 31.631 34.9454 32.477 34.652 33.3137C33.4838 36.5402 32.6568 39.736 32.6568 51.6493C32.6568 61.6813 33.1293 65.6657 33.9934 71.9132C34.027 71.9548 34.0622 71.9917 34.0991 72.0318C32.9163 71.6679 31.8679 71.1634 31.0283 70.5491ZM34.9244 4.46873C34.9244 3.70573 35.128 2.97344 35.5158 2.33842C36.0688 2.08053 36.7739 1.90601 37.5337 1.83363V6.88731H36.1363L35.6425 6.75418C35.6332 6.75095 35.6215 6.74966 35.6121 6.7461C35.1617 6.08102 34.9244 5.29895 34.9244 4.46873ZM38.1884 38.3625C38.1884 38.8803 37.7693 39.3001 37.2525 39.3001C36.7322 39.3001 36.3141 38.8803 36.3141 38.3625C36.3141 37.8464 36.7322 37.4267 37.2525 37.4267C37.7693 37.4267 38.1884 37.8464 38.1884 38.3625ZM38.6221 41.2972C38.6221 41.5377 38.4276 41.7332 38.1884 41.7332C37.949 41.7332 37.7544 41.5377 37.7544 41.2972C37.7544 41.0584 37.949 40.8645 38.1884 40.8645C38.4276 40.8645 38.6221 41.0584 38.6221 41.2972ZM39.7665 35.4615C40.0967 35.4615 40.3637 35.729 40.3637 36.0593C40.3637 36.3896 40.0967 36.6572 39.7665 36.6572C39.4355 36.6572 39.168 36.3896 39.168 36.0593C39.168 35.729 39.4355 35.4615 39.7665 35.4615ZM40.543 2.10316C40.765 2.17038 40.9725 2.25052 41.1609 2.33842C41.5487 2.97344 41.7523 3.70573 41.7523 4.46873C41.7523 5.29895 41.5174 6.08102 41.0669 6.7461C41.0565 6.74966 41.0462 6.75095 41.0359 6.75418L40.543 6.88731V2.10316ZM45.3304 33.2465C44.8602 32.4741 44.4828 31.695 44.4601 31.6455C41.0129 23.8607 41.4295 19.3089 41.3051 17.1579V8.43077C41.4178 8.38908 41.5242 8.34416 41.624 8.29762C42.1812 7.25444 42.5153 5.94173 42.5153 4.51366C42.5153 3.21388 42.2387 2.01009 41.7682 1.01796C40.9186 0.392952 39.6976 -1.52588e-05 38.34 -1.52588e-05C36.9824 -1.52588e-05 35.7611 0.392952 34.9102 1.01796C34.4371 2.01009 34.1631 3.21388 34.1631 4.51366C34.1631 5.94173 34.4966 7.25444 35.0544 8.29762C35.1555 8.34416 35.2612 8.38908 35.3749 8.43077V17.1579C35.2466 19.3089 35.6651 23.8607 32.2157 31.6455C32.195 31.695 31.8165 32.4741 31.3486 33.2465C29.3356 36.4313 27.9188 39.6109 27.9188 51.1736C27.9188 62.1125 28.9255 65.5778 30.7572 73.2052C30.839 73.5484 31.062 73.8431 31.3696 74.016C33.2737 75.0867 35.7498 75.6768 38.34 75.6768C40.9302 75.6768 43.404 75.0867 45.3094 74.016C45.6168 73.8431 45.8401 73.5484 45.9218 73.2052C47.7532 65.5778 48.7622 62.1125 48.7622 51.1736C48.7622 39.6109 47.3425 36.4313 45.3304 33.2465Z" fill="#212224"/>
<path d="M37.9529 38.2197C37.9425 38.1509 37.9209 38.0917 37.8905 38.0404C37.8682 37.9877 37.832 37.9476 37.8007 37.9153C37.7725 37.8785 37.7422 37.8542 37.714 37.8384C37.6598 37.8048 37.6274 37.7902 37.6274 37.7902C37.6274 37.7902 37.6388 37.8222 37.6565 37.8817C37.6772 37.9347 37.694 38.0148 37.695 38.0998C37.7005 38.1431 37.695 38.1877 37.6885 38.2343C37.6885 38.2792 37.6636 38.3257 37.6565 38.3706C37.6388 38.4156 37.6165 38.4618 37.598 38.4925C37.5909 38.5212 37.5308 38.5807 37.4907 38.6269C37.4768 38.6301 37.4274 38.6912 37.3889 38.7038C37.3489 38.731 37.3036 38.7487 37.259 38.7694C37.2141 38.7762 37.1692 38.8001 37.1236 38.8017C37.0771 38.8066 37.0306 38.8127 36.9889 38.8082C36.9006 38.8034 36.8318 38.7969 36.7694 38.7694C36.7132 38.7487 36.678 38.7407 36.678 38.7407C36.678 38.7407 36.6922 38.771 36.7245 38.824C36.7403 38.8512 36.763 38.8803 36.7998 38.9106C36.835 38.9426 36.8751 38.9795 36.9297 39.0005C36.9795 39.0325 37.0393 39.0532 37.1081 39.0645C37.175 39.0823 37.2471 39.079 37.323 39.0726C37.3983 39.0564 37.4794 39.0467 37.5499 39.0037C37.63 38.9669 37.674 38.9284 37.7638 38.8512C37.8049 38.7937 37.843 38.7617 37.8889 38.6686C37.9367 38.5885 37.9441 38.5099 37.9619 38.4362C37.9664 38.3609 37.9713 38.2856 37.9529 38.2197Z" fill="#212224"/>
<path d="M40.1167 35.7724C40.099 35.7501 40.0806 35.7356 40.0612 35.7246C40.0269 35.702 40.0059 35.6939 40.0059 35.6939C40.0059 35.6939 40.0149 35.7149 40.0269 35.7517C40.0372 35.7853 40.0469 35.8367 40.0492 35.8926C40.0534 35.9201 40.0476 35.9489 40.046 35.9776C40.046 36.0064 40.0295 36.0355 40.0269 36.0658C40.0149 36.0946 39.9988 36.1221 39.9862 36.1428C39.983 36.1602 39.9445 36.1974 39.918 36.2294C39.9096 36.2294 39.8786 36.2678 39.8547 36.2775C39.8288 36.295 39.7994 36.3063 39.7713 36.3176C39.7432 36.3237 39.7134 36.3383 39.6847 36.3383C39.6549 36.3415 39.6268 36.348 39.5974 36.3431C39.5428 36.3399 39.4979 36.3367 39.4578 36.3176C39.4219 36.3063 39.4 36.2998 39.4 36.2998C39.4 36.2998 39.4106 36.3205 39.4316 36.3541C39.4384 36.3703 39.4539 36.3897 39.4772 36.4087C39.4988 36.4297 39.5286 36.4536 39.5603 36.4666C39.5926 36.4873 39.631 36.5002 39.6743 36.5066C39.717 36.5196 39.7648 36.516 39.8123 36.5131C39.8602 36.5018 39.9106 36.4953 39.9565 36.4682C40.0091 36.4456 40.0366 36.42 40.0935 36.3719C40.1222 36.335 40.1429 36.314 40.172 36.2549C40.205 36.2038 40.2088 36.1541 40.2208 36.1059C40.2231 36.0578 40.2257 36.0096 40.2137 35.9683C40.2063 35.9246 40.1943 35.8862 40.1736 35.8542C40.1607 35.8206 40.1378 35.7947 40.1167 35.7724Z" fill="#212224"/>
<path d="M38.4411 41.0906C38.4288 41.0744 38.4152 41.0634 38.4017 41.0554C38.3752 41.0392 38.3632 41.0327 38.3632 41.0327C38.3632 41.0327 38.3671 41.0489 38.3752 41.0744C38.3858 41.1003 38.3929 41.1371 38.3929 41.1772C38.3952 41.1963 38.3929 41.2173 38.3903 41.2379C38.3887 41.2606 38.3794 41.2812 38.3752 41.3022C38.3671 41.3229 38.3577 41.3439 38.348 41.3582C38.3438 41.3711 38.3176 41.3982 38.2999 41.4209C38.2927 41.4209 38.2695 41.4496 38.2511 41.4561C38.2333 41.4674 38.2123 41.4768 38.1926 41.4865C38.1709 41.4897 38.1483 41.501 38.1292 41.501C38.1076 41.5026 38.085 41.5058 38.0659 41.5039C38.0274 41.5026 37.9938 41.4978 37.9657 41.4865C37.9392 41.4768 37.9218 41.4735 37.9218 41.4735C37.9218 41.4735 37.9311 41.4865 37.9457 41.5104C37.9521 41.5233 37.9618 41.5378 37.9786 41.5504C37.9961 41.5666 38.0145 41.5828 38.0404 41.5937C38.062 41.6083 38.0908 41.618 38.1228 41.6228C38.1515 41.6309 38.1867 41.6293 38.2229 41.6257C38.2565 41.6196 38.2928 41.6131 38.327 41.5937C38.3638 41.5779 38.3839 41.5585 38.4256 41.5233C38.4433 41.4978 38.4618 41.4832 38.4834 41.4399C38.5041 41.4031 38.5083 41.3662 38.5154 41.3326C38.5177 41.2958 38.5196 41.2638 38.5132 41.2318C38.5073 41.1998 38.4976 41.1723 38.4834 41.15C38.4731 41.1242 38.4559 41.1064 38.4411 41.0906Z" fill="#212224"/>
<path d="M59.933 71.2639C59.4318 71.6313 58.8388 71.95 58.1863 72.2176C59.055 66.9671 59.531 63.5131 59.531 54.9992C59.531 44.748 58.6791 41.9975 57.4731 39.2312C57.1661 38.5018 56.9224 37.7728 56.9023 37.7004C55.0102 31.514 54.9517 27.4731 54.9217 25.3014C54.9158 24.9698 54.91 24.6796 54.9006 24.4266V18.2444H55.4277L55.4287 25.356C55.4449 25.5997 55.4478 25.877 55.4552 26.1943C55.5001 28.27 55.5803 32.1341 58.2005 38.05C58.2328 38.1189 58.5702 38.8163 58.9939 39.5133C60.664 42.1578 61.8446 44.7865 61.8446 54.5907C61.8446 62.8451 61.1691 66.1223 59.933 71.2639ZM58.8669 73.9439C58.7311 74.0338 58.5508 74.1155 58.3488 74.218C58.1485 74.3272 57.9106 74.4232 57.6502 74.5208C57.3913 74.6316 57.0972 74.7069 56.7918 74.8078C56.4826 74.8895 56.1539 74.9794 55.8094 75.0372C55.463 75.0964 55.1059 75.1587 54.7332 75.1813C54.3587 75.2263 54.0055 75.2214 53.6232 75.2373C53.2499 75.2198 52.8747 75.2246 52.5092 75.1813C52.1405 75.1587 51.7834 75.0947 51.4369 75.0372C51.0915 74.9794 50.7638 74.8879 50.4545 74.8061C50.1501 74.7053 49.856 74.63 49.5971 74.5208C49.3357 74.4232 49.0985 74.3272 48.8975 74.2164C48.6939 74.1139 48.5132 74.0322 48.3788 73.9423C48.1031 73.7743 47.9464 73.6747 47.9464 73.6747C47.9464 73.6747 48.1193 73.7452 48.4176 73.867C48.5633 73.9394 48.7517 73.9937 48.9605 74.0674C49.1693 74.1459 49.411 74.2086 49.6737 74.2888C49.9326 74.3734 50.2276 74.4248 50.5298 74.4969C50.8375 74.5531 51.1629 74.611 51.4996 74.6572C51.836 74.7037 52.1854 74.7405 52.5428 74.7615C52.897 74.8 53.2602 74.7887 53.6232 74.8016C53.9767 74.7887 54.3619 74.7984 54.7074 74.7599C55.0606 74.7389 55.4083 74.7037 55.7467 74.6572C56.0834 74.611 56.4089 74.5515 56.7165 74.4969C57.0193 74.4232 57.3128 74.3734 57.5726 74.2888C57.8334 74.2086 58.0764 74.1459 58.2874 74.0674C58.4962 73.9937 58.6846 73.9359 58.8287 73.867C59.127 73.7452 59.2999 73.6747 59.2999 73.6747C59.2999 73.6747 59.1438 73.7759 58.8669 73.9439ZM52.6879 42.7605C53.1326 42.7605 53.4936 43.1212 53.4936 43.5668C53.4936 44.0122 53.1326 44.3728 52.6879 44.3728C52.241 44.3728 51.88 44.0122 51.88 43.5668C51.88 43.1212 52.241 42.7605 52.6879 42.7605ZM51.7288 16.4799L51.3031 16.3645C51.2951 16.3613 51.2847 16.3597 51.2766 16.3564C50.8888 15.7841 50.6852 15.111 50.6852 14.3977C50.6852 13.7423 50.8598 13.1109 51.1933 12.5644C51.6693 12.3433 52.2768 12.1924 52.9306 12.1301V16.4799H51.7288ZM53.8668 46.0911C53.8668 46.2979 53.6991 46.466 53.4936 46.466C53.2874 46.466 53.1197 46.2979 53.1197 46.0911C53.1197 45.8859 53.2874 45.7175 53.4936 45.7175C53.6991 45.7175 53.8668 45.8859 53.8668 46.0911ZM54.8518 41.0681C55.1362 41.0681 55.3654 41.2988 55.3654 41.5839C55.3654 41.8676 55.1362 42.0971 54.8518 42.0971C54.5671 42.0971 54.3364 41.8676 54.3364 41.5839C54.3364 41.2988 54.5671 41.0681 54.8518 41.0681ZM55.5192 12.3624C55.7108 12.4199 55.8895 12.4891 56.0514 12.5644C56.3846 13.1109 56.5611 13.7423 56.5611 14.3977C56.5611 15.111 56.3585 15.7841 55.9713 16.3564C55.9616 16.3597 55.9529 16.3613 55.9442 16.3645L55.5192 16.4799V12.3624ZM59.6399 39.1624C59.2343 38.4973 58.9099 37.8271 58.8908 37.7841C55.9238 31.0861 56.2822 27.169 56.1755 25.3176V17.8088C56.2725 17.7716 56.3636 17.7315 56.4506 17.6931C56.9295 16.794 57.2165 15.6655 57.2165 14.4365C57.2165 13.3177 56.9796 12.2823 56.574 11.4281C55.843 10.891 54.7924 10.5514 53.6232 10.5514C52.4556 10.5514 51.4049 10.891 50.6723 11.4281C50.2661 12.2823 50.0299 13.3177 50.0299 14.4365C50.0299 15.6655 50.3168 16.794 50.7974 17.6931C50.884 17.7315 50.9755 17.7716 51.0714 17.8088V25.3176C50.9658 27.1157 51.2928 30.8728 48.5898 37.2292C48.7013 37.5882 48.806 37.9683 48.9052 38.3706C48.9951 38.1958 49.0526 38.0756 49.0649 38.05C51.6855 32.1341 51.7672 28.27 51.8096 26.1943C51.815 25.877 51.8218 25.5997 51.8361 25.3176V18.2444H52.5926V24.3849C52.5829 24.6796 52.5797 24.9698 52.5768 25.3014C52.5493 27.4731 52.5011 31.514 50.9247 37.7023C50.9066 37.7728 50.703 38.5018 50.4513 39.2215C50.122 40.129 49.8253 41.039 49.5745 42.2044C49.844 44.5189 49.993 47.418 49.993 51.1736C49.993 57.4915 49.6576 61.3543 49.0297 64.9347C49.2245 67.5455 49.5118 69.7479 49.8841 72.4373C49.9129 72.4742 49.9429 72.5062 49.9736 72.5401C49.0791 72.2644 48.2838 71.8925 47.611 71.4488C47.556 71.6779 47.5014 71.9038 47.4445 72.139L47.1191 73.4921C47.1142 73.5112 47.1039 73.529 47.0991 73.55C47.1695 73.8447 47.3612 74.0997 47.6255 74.2471C49.2646 75.1684 51.3952 75.6768 53.6232 75.6768C55.8524 75.6768 57.9817 75.1684 59.6221 74.2471C59.8862 74.0997 60.0784 73.8447 60.1486 73.55C61.7243 66.9848 62.5924 64.0036 62.5924 54.5907C62.5924 44.6404 61.3711 41.9032 59.6399 39.1624Z" fill="#212224"/>
<path d="M28.2984 73.9439C28.1624 74.0338 27.9827 74.1155 27.7807 74.218C27.5807 74.3272 27.3434 74.4232 27.082 74.5208C26.8222 74.6316 26.5291 74.7069 26.2246 74.8078C25.9134 74.8895 25.5867 74.9794 25.2403 75.0372C24.8942 75.0964 24.5383 75.1587 24.1651 75.1813C23.7915 75.2263 23.4373 75.2214 23.056 75.2373C22.6808 75.2198 22.3075 75.2246 21.942 75.1813C21.5717 75.1587 21.2143 75.0947 20.8681 75.0372C20.5236 74.9794 20.1966 74.8879 19.8857 74.8061C19.581 74.7053 19.2879 74.63 19.028 74.5208C18.7669 74.4232 18.5297 74.3272 18.3293 74.2164C18.1257 74.1139 17.9464 74.0322 17.8116 73.9423C17.536 73.7743 17.3773 73.6747 17.3773 73.6747C17.3773 73.6747 17.5502 73.7452 17.8485 73.867C17.9942 73.9394 18.1833 73.9937 18.3933 74.0674C18.6001 74.1459 18.8438 74.2086 19.1049 74.2888C19.3648 74.3734 19.6595 74.4248 19.961 74.4969C20.2687 74.5531 20.5941 74.611 20.9305 74.6572C21.2673 74.7037 21.6166 74.7405 21.974 74.7615C22.3298 74.8 22.6921 74.7887 23.056 74.8016C23.4086 74.7887 23.7947 74.7984 24.1392 74.7599C24.4918 74.7389 24.8399 74.7037 25.1779 74.6572C25.5159 74.611 25.8397 74.5515 26.1474 74.4969C26.4521 74.4232 26.744 74.3734 27.0051 74.2888C27.2646 74.2086 27.5083 74.1459 27.7183 74.0674C27.9284 73.9937 28.1174 73.9359 28.2616 73.867C28.5598 73.7452 28.7327 73.6747 28.7327 73.6747C28.7327 73.6747 28.5757 73.7759 28.2984 73.9439ZM16.7633 71.2639C15.5278 66.1223 14.8511 62.8451 14.8511 54.5907C14.8511 44.7865 16.0342 42.1578 17.7076 39.5036C18.1274 38.8163 18.4654 38.1189 18.4961 38.05C21.1167 32.1341 21.1984 28.27 21.2414 26.1943C21.2462 25.877 21.2527 25.5997 21.2689 25.3176V18.2444H22.0238V24.3849C22.0141 24.6796 22.0109 24.9698 22.0092 25.3014C21.9821 27.4731 21.9323 31.514 20.3569 37.7023C20.3375 37.7728 20.1342 38.5018 19.8825 39.2215C18.8758 41.9975 18.1642 44.748 18.1642 54.9992C18.1642 63.6317 18.5714 67.0614 19.315 72.4373C19.3454 72.4742 19.3741 72.5062 19.4065 72.5401C18.3885 72.2276 17.4862 71.7929 16.7633 71.2639ZM20.1165 14.3977C20.1165 13.7423 20.2926 13.1109 20.6245 12.5644C21.1021 12.3433 21.708 12.1924 22.3618 12.1301V16.4799H21.1596L20.735 16.3645C20.7272 16.3613 20.7159 16.3597 20.7078 16.3564C20.32 15.7841 20.1165 15.111 20.1165 14.3977ZM22.9245 43.5668C22.9245 44.0122 22.5638 44.3728 22.1198 44.3728C21.6725 44.3728 21.3122 44.0122 21.3122 43.5668C21.3122 43.1212 21.6725 42.7605 22.1198 42.7605C22.5638 42.7605 22.9245 43.1212 22.9245 43.5668ZM23.298 46.0911C23.298 46.2979 23.131 46.466 22.9245 46.466C22.7192 46.466 22.5512 46.2979 22.5512 46.0911C22.5512 45.8859 22.7192 45.7175 22.9245 45.7175C23.131 45.7175 23.298 45.8859 23.298 46.0911ZM24.2837 41.0681C24.5671 41.0681 24.7966 41.2988 24.7966 41.5839C24.7966 41.8676 24.5671 42.0971 24.2837 42.0971C23.9983 42.0971 23.7676 41.8676 23.7676 41.5839C23.7676 41.2988 23.9983 41.0681 24.2837 41.0681ZM24.952 12.3624C25.1427 12.4199 25.3204 12.4891 25.4823 12.5644C25.8174 13.1109 25.9923 13.7423 25.9923 14.3977C25.9923 15.111 25.7903 15.7841 25.4022 16.3564C25.3941 16.3597 25.3847 16.3613 25.375 16.3645L24.952 16.4799V12.3624ZM29.5601 73.4921L29.2395 72.1568C29.18 71.9148 29.1254 71.6856 29.0679 71.4517C28.6319 71.737 28.1527 71.9981 27.6191 72.2176C27.8657 70.7194 28.0806 69.3663 28.2632 68.0009C27.2407 63.3754 26.6877 59.3028 26.6877 51.1736C26.6877 46.3458 26.933 42.9318 27.3657 40.3549C27.2197 39.97 27.0658 39.6 26.9039 39.2312C26.5979 38.5018 26.3546 37.7728 26.3335 37.7004C24.4424 31.514 24.3829 27.4731 24.3525 25.3014C24.3477 24.9698 24.3412 24.6796 24.3315 24.4266V18.2444H24.8605V25.356C24.8767 25.5997 24.8799 25.877 24.888 26.1943C24.931 28.27 25.0128 32.1341 27.6317 38.05C27.643 38.0756 27.6973 38.1861 27.7807 38.3496C27.8786 37.957 27.9811 37.585 28.0887 37.2344C25.3847 30.876 25.7118 27.1157 25.6074 25.3176V17.8088C25.7053 17.7716 25.7951 17.7315 25.8814 17.6931C26.3607 16.794 26.6493 15.6655 26.6493 14.4365C26.6493 13.3177 26.4105 12.2823 26.0065 11.4281C25.2758 10.891 24.2242 10.5514 23.056 10.5514C21.8874 10.5514 20.8358 10.891 20.1035 11.4281C19.6979 12.2823 19.4611 13.3177 19.4611 14.4365C19.4611 15.6655 19.7477 16.794 20.2286 17.6931C20.3152 17.7315 20.4063 17.7716 20.5043 17.8088V25.3176C20.3937 27.169 20.7541 31.0861 17.7858 37.7841C17.7683 37.8271 17.4429 38.4973 17.0389 39.1624C15.308 41.9032 14.0868 44.6404 14.0868 54.5907C14.0868 64.0036 14.9539 66.9848 16.5309 73.55C16.6014 73.8447 16.7923 74.0997 17.0583 74.2471C18.6965 75.1684 20.8265 75.6768 23.056 75.6768C25.2852 75.6768 27.4136 75.1684 29.0533 74.2471C29.318 74.0997 29.5103 73.8447 29.5807 73.55C29.5759 73.529 29.5646 73.5112 29.5601 73.4921Z" fill="#212224"/>
<path d="M27.6567 32.2013C28.5519 32.2976 29.4613 32.3842 30.3855 32.4563C30.7485 31.8423 31.049 31.2351 31.0913 31.1436C31.2526 30.7781 31.4026 30.4239 31.5473 30.0746C30.0362 29.9718 28.5645 29.8357 27.1342 29.669C27.2479 30.4255 27.4147 31.2687 27.6567 32.2013Z" fill="#212224"/>
<path d="M66.8123 24.8497L65.9534 25.3128C63.7494 26.5021 60.8774 27.5071 57.5326 28.2989C57.595 29.0137 57.699 29.8229 57.8787 30.7365C61.1175 29.9835 63.9594 29.0376 66.2481 27.9269L70.6719 32.9228C67.0547 37.8514 66.0254 43.3679 65.7595 50.4058L65.7368 55.6502C61.7735 53.8902 51.0075 52.6289 38.3393 52.6289C25.7759 52.6289 15.079 53.8695 11.0375 55.6069V55.2126L10.9958 52.2443L10.959 51.7153C10.7693 44.0462 9.84599 38.1542 6.00579 32.9228L10.4293 27.9269C12.7164 29.0376 15.5583 29.9816 18.7974 30.7349C18.9761 29.8216 19.0811 29.0121 19.1429 28.2973C15.7978 27.5055 12.9274 26.5004 10.725 25.3128L9.86603 24.8497L2.80029 32.8284L3.4518 33.6392C7.42999 38.5821 8.31547 44.0733 8.50065 51.8849L8.57562 55.2284L8.57432 77.7093C8.42341 80.7367 8.7385 83.6665 9.53737 86.6655C12.0096 95.9453 18.9648 98.0064 25.6957 100C29.9952 101.275 34.4407 102.594 37.448 105.749L38.3393 106.684L39.2303 105.749C42.2374 102.592 46.6819 101.276 50.9833 100C57.71 98.0064 64.6681 95.9453 67.141 86.6639C67.9392 83.663 68.2546 80.7412 68.1057 77.7538L68.1428 53.3085L68.1781 51.8849C68.3639 44.0717 69.2487 38.5808 73.2266 33.6392L73.8791 32.8284L66.8123 24.8497Z" fill="#212224"/>
<path d="M45.1268 30.0762C45.2726 30.4255 45.4219 30.7813 45.5838 31.1468C45.5854 31.1468 45.8914 31.7815 46.2919 32.4563C47.2155 32.3842 48.1239 32.2992 49.0184 32.2013C49.2605 31.2687 49.4272 30.4271 49.541 29.669C48.1113 29.8357 46.6383 29.9737 45.1268 30.0762Z" fill="#212224"/>
<path d="M32.0249 28.8725C32.1293 28.5952 32.2253 28.3276 32.3184 28.0617C30.4624 27.9447 28.6527 27.7828 26.9186 27.5695C26.9331 27.8358 26.957 28.1208 26.9842 28.4191C28.6045 28.613 30.2924 28.762 32.0249 28.8725Z" fill="#FAB544"/>
<path d="M67.1067 22.0878L66.802 22.3315C64.8659 23.8769 61.5783 25.2038 57.4337 26.2069C57.4385 26.47 57.4466 26.757 57.4576 27.0662C61.588 26.079 64.9043 24.7646 67.0039 23.2099L75.5546 32.8648C70.3523 38.2343 69.3999 44.0555 69.3727 54.7572L69.3343 54.751V77.6691C69.4917 80.8087 69.1627 83.8555 68.3312 86.9809C65.6802 96.9293 58.3873 99.09 51.3352 101.18C45.9835 102.767 40.914 104.268 38.3399 109.07C35.7643 104.268 30.6948 102.767 25.3431 101.18C18.291 99.09 10.9984 96.9293 8.34903 86.9809C7.51558 83.8555 7.18692 80.8087 7.3456 77.6481V55.2348L7.30714 54.7572H7.30553C7.27838 44.0555 6.32794 38.2343 1.12365 32.8648L9.67434 23.2099C11.774 24.7646 15.0903 26.0773 19.2191 27.0662C19.2317 26.757 19.2382 26.47 19.243 26.2069C15.0997 25.2038 11.8124 23.8769 9.87632 22.3315L9.5719 22.0878L0 32.8972L0.272755 33.1712C5.58886 38.4909 6.48662 44.2782 6.48662 55.2413L6.52508 55.7189V77.6271C6.36317 80.8536 6.7012 83.9822 7.55566 87.1925C10.3252 97.5863 18.1804 99.9137 25.1108 101.967C30.549 103.579 35.6874 105.1 37.9647 110.168L38.3399 111L38.7132 110.168C40.9925 105.1 46.1296 103.579 51.5695 101.967C58.4998 99.9137 66.3547 97.5863 69.1246 87.1925C69.9784 83.9822 70.3151 80.8536 70.1548 77.6481V55.7189L70.1933 55.7254V55.2413C70.1933 44.2782 71.0894 38.4909 76.4058 33.1712L76.6799 32.8972L67.1067 22.0878Z" fill="#FAB544"/>
<path d="M44.3566 28.0617C44.4513 28.3276 44.5457 28.5952 44.6517 28.8725C46.3842 28.762 48.0718 28.613 49.6925 28.4191C49.7196 28.1208 49.7435 27.8358 49.7597 27.5695C48.0239 27.7828 46.2142 27.9463 44.3566 28.0617Z" fill="#FAB544"/>
<path d="M40.4767 94.4195L39.8558 93.7993L38.1747 95.4796L36.4931 93.7993L35.8716 94.4195L37.5532 96.103L35.8716 97.7843L36.4931 98.4045L38.1747 96.7237L39.8558 98.4045L40.4767 97.7843L38.7961 96.103L40.4767 94.4195Z" fill="white"/>
<path d="M30.4637 76.3031C30.4637 76.6762 30.557 76.8628 30.7435 76.8628C30.8453 76.8628 31.3371 76.6423 32.219 76.2013L32.7023 77.1426C31.176 78.5163 29.8277 79.2031 28.6576 79.2031C27.9283 79.2031 27.3687 78.9572 26.9786 78.4654C26.6055 77.9736 26.4189 77.363 26.4189 76.6338C26.4189 75.9046 26.826 73.9118 27.64 70.6557C28.471 67.3826 28.9289 65.1355 29.0137 63.9144C29.0137 63.6431 28.9204 63.3208 28.7339 62.9477C28.5643 62.5577 28.3862 62.2439 28.1997 62.0065L27.9453 61.6503L28.0216 61.2688C28.9883 60.9805 30.5824 60.8363 32.8041 60.8363C33.0076 61.2264 33.1094 61.7945 33.1094 62.5407C33.1094 63.2699 32.6684 65.3983 31.7865 68.9258C30.9047 72.4534 30.4637 74.9124 30.4637 76.3031ZM35.0222 78.9996H34.5389C34.6067 78.2364 35.0562 75.9978 35.8871 72.2838C36.7181 68.5527 37.2354 65.7629 37.4389 63.9144C37.4389 63.6431 37.3456 63.3208 37.1591 62.9477C36.9895 62.5577 36.8114 62.2439 36.6249 62.0065L36.3705 61.6503L36.4468 61.2688C37.3965 60.9805 39.0331 60.8363 41.3565 60.8363C41.577 61.2433 41.6872 61.6419 41.6872 62.0319C41.6872 62.422 41.6533 62.9053 41.5854 63.4819C43.7053 61.7182 45.4352 60.8363 46.775 60.8363C47.6568 60.8363 48.3691 61.1246 48.9118 61.7012C49.4546 62.2778 49.7259 63.0834 49.7259 64.1179C49.7259 65.1524 49.3612 67.1282 48.632 70.0452C47.9197 72.9452 47.5636 74.9718 47.5636 76.125C47.5636 76.6168 47.6484 76.8628 47.818 76.8628C47.9706 76.8628 48.3945 76.6932 49.0899 76.354L49.4206 76.2013L49.9294 77.1426C49.2171 77.7531 48.4794 78.2534 47.7162 78.6435C46.953 79.0166 46.2577 79.2031 45.6302 79.2031C45.0197 79.2031 44.5194 78.9827 44.1293 78.5417C43.7392 78.0838 43.5442 77.4733 43.5442 76.7101C43.5442 75.93 43.8919 74.0051 44.5872 70.9355C45.2995 67.8659 45.6556 65.9071 45.6556 65.0591C45.6556 64.2112 45.3249 63.7872 44.6635 63.7872C43.6629 63.7872 42.5267 64.2875 41.2547 65.2881C41.0682 66.1869 40.7205 67.6878 40.2117 69.7908C39.0924 74.4206 38.5328 77.3207 38.5328 78.4908C37.8714 78.83 36.7012 78.9996 35.0222 78.9996Z" fill="#FAB544"/>
<path d="M15.8622 88.7758H15.7545C15.7696 88.6056 15.8698 88.1064 16.0551 87.2781C16.2404 86.4461 16.3558 85.8239 16.4012 85.4117C16.4012 85.3512 16.3804 85.2793 16.3388 85.1961C16.301 85.1091 16.2612 85.0392 16.2196 84.9862L16.1629 84.9068L16.1799 84.8217C16.3917 84.7574 16.7567 84.7253 17.2748 84.7253C17.324 84.816 17.3486 84.9049 17.3486 84.9919C17.3486 85.0789 17.341 85.1867 17.3259 85.3153C17.7986 84.9219 18.1844 84.7253 18.4832 84.7253C18.6798 84.7253 18.8387 84.7896 18.9597 84.9181C19.0807 85.0467 19.1412 85.2264 19.1412 85.4571C19.1412 85.6878 19.0599 86.1284 18.8973 86.7789C18.7385 87.4256 18.659 87.8776 18.659 88.1347C18.659 88.2444 18.6779 88.2992 18.7158 88.2992C18.7498 88.2992 18.8443 88.2614 18.9994 88.1858L19.0732 88.1518L19.1866 88.3617C19.0278 88.4978 18.8633 88.6094 18.6931 88.6964C18.5229 88.7796 18.3678 88.8212 18.2279 88.8212C18.0917 88.8212 17.9802 88.772 17.8932 88.6737C17.8062 88.5716 17.7627 88.4354 17.7627 88.2652C17.7627 88.0912 17.8402 87.662 17.9953 86.9774C18.1541 86.2929 18.2336 85.8561 18.2336 85.667C18.2336 85.4779 18.1598 85.3833 18.0123 85.3833C17.7892 85.3833 17.5358 85.4949 17.2521 85.718C17.2105 85.9185 17.133 86.2532 17.0195 86.7222C16.7699 87.7546 16.6451 88.4014 16.6451 88.6623C16.4976 88.738 16.2367 88.7758 15.8622 88.7758ZM20.5999 86.5917C20.5999 86.7505 20.5489 87.0247 20.4468 87.4143C20.3446 87.8 20.2936 88.0534 20.2936 88.1744C20.2936 88.2917 20.3106 88.3503 20.3446 88.3503C20.3673 88.3503 20.4543 88.3144 20.6056 88.2425L20.6737 88.2085L20.7701 88.407C20.7361 88.4373 20.6907 88.4751 20.634 88.5205C20.5772 88.5659 20.4714 88.6283 20.3163 88.7077C20.1612 88.7833 20.0175 88.8212 19.8851 88.8212C19.7528 88.8212 19.6488 88.7815 19.5731 88.702C19.4975 88.6188 19.4597 88.5091 19.4597 88.373C19.4597 88.2331 19.5069 87.9872 19.6015 87.6355C19.696 87.28 19.7433 87.0493 19.7433 86.9434C19.7433 86.7846 19.6942 86.6352 19.5958 86.4952L19.5448 86.4272L19.5504 86.3534C19.7509 86.2967 20.0761 86.2683 20.5262 86.2683C20.5754 86.325 20.5999 86.4328 20.5999 86.5917ZM19.9532 85.65C19.8776 85.5743 19.8398 85.4741 19.8398 85.3493C19.8398 85.2245 19.8908 85.1148 19.9929 85.0203C20.0988 84.9257 20.2199 84.8784 20.356 84.8784C20.4921 84.8784 20.5981 84.9163 20.6737 84.9919C20.7493 85.0675 20.7871 85.1678 20.7871 85.2926C20.7871 85.4136 20.7323 85.5214 20.6226 85.6159C20.5167 85.7105 20.3976 85.7577 20.2652 85.7577C20.1329 85.7577 20.0289 85.7218 19.9532 85.65ZM21.6861 89.3658C21.5613 89.4414 21.4989 89.5152 21.4989 89.587C21.4989 89.6589 21.5386 89.6948 21.618 89.6948C21.7012 89.6948 21.7939 89.6551 21.896 89.5757C21.9981 89.5 22.0832 89.3752 22.1513 89.2013C21.9698 89.2353 21.8147 89.2901 21.6861 89.3658ZM23.371 86.2797C23.3861 86.2948 23.3937 86.3288 23.3937 86.3818C23.3937 86.4309 23.3899 86.4858 23.3823 86.5463C23.3748 86.603 23.3615 86.7335 23.3426 86.9377C23.3237 87.142 23.3048 87.3197 23.2859 87.471C23.093 89.1729 22.5749 90.0238 21.7315 90.0238C21.5953 90.0238 21.4705 89.9879 21.3571 89.9161C21.2474 89.8442 21.1926 89.7515 21.1926 89.6381C21.1926 89.4868 21.2852 89.3488 21.4705 89.2239C21.6558 89.0991 21.9054 89.0027 22.2194 88.9346C22.2194 88.9308 22.2307 88.8779 22.2534 88.7758C22.2761 88.6737 22.2912 88.5905 22.2988 88.5262C22.0719 88.6926 21.8582 88.7758 21.6577 88.7758C21.4611 88.7758 21.2984 88.6982 21.1699 88.5432C21.0451 88.3881 20.9827 88.1404 20.9827 87.8C20.9827 87.3538 21.0829 86.9831 21.2833 86.6881C21.4838 86.3893 21.7485 86.24 22.0775 86.24C22.2628 86.24 22.4463 86.2853 22.6278 86.3761C22.8207 86.308 23.0287 86.274 23.2519 86.274L23.371 86.2797ZM22.3328 86.5747C22.1702 86.5747 22.0416 86.707 21.9471 86.9718C21.8525 87.2327 21.8052 87.5239 21.8052 87.8454C21.8052 88.1631 21.8771 88.3219 22.0208 88.3219C22.1153 88.3219 22.2269 88.286 22.3555 88.2142C22.4614 87.5788 22.5371 87.055 22.5824 86.6427C22.4766 86.5974 22.3933 86.5747 22.3328 86.5747ZM24.261 85.0089C24.261 84.8841 24.2497 84.7952 24.227 84.7423C24.522 84.6402 24.7999 84.5891 25.0609 84.5891C25.0949 84.6231 25.112 84.7101 25.112 84.8501C25.112 85.0997 25.0061 85.6745 24.7943 86.5747C25.1006 86.3515 25.3691 86.24 25.5998 86.24C25.7436 86.24 25.8514 86.2853 25.9232 86.3761C25.9988 86.4669 26.0367 86.5879 26.0367 86.7392C26.0367 86.8867 25.9932 87.1306 25.9062 87.471C25.8192 87.8076 25.7757 88.0383 25.7757 88.1631C25.7757 88.2879 25.7909 88.3503 25.8211 88.3503C25.8514 88.3503 25.9308 88.3163 26.0593 88.2482L26.1274 88.2142L26.2295 88.4127C26.1955 88.443 26.1501 88.4808 26.0934 88.5262C26.0367 88.5716 25.9327 88.6321 25.7814 88.7077C25.6301 88.7833 25.4902 88.8212 25.3616 88.8212C25.2368 88.8212 25.1366 88.7815 25.0609 88.702C24.9853 88.6188 24.9474 88.5091 24.9474 88.373C24.9474 88.2331 24.9891 87.9816 25.0722 87.6185C25.1592 87.2516 25.2027 87.0209 25.2027 86.9264C25.2027 86.8281 25.163 86.7789 25.0836 86.7789C24.9853 86.7789 24.8623 86.8205 24.7148 86.9037C24.5069 87.8189 24.4028 88.4127 24.4028 88.685C24.244 88.7455 23.9736 88.7758 23.5916 88.7758C23.5878 88.7115 23.5859 88.6548 23.5859 88.6056C23.5859 88.443 23.6975 87.887 23.9206 86.9377C24.1475 85.9884 24.261 85.3455 24.261 85.0089ZM28.1873 86.308C28.1797 86.4026 28.1476 86.5123 28.0908 86.6371C27.9471 86.6219 27.8109 86.6144 27.6824 86.6144H27.5803C27.4063 87.4578 27.3193 87.9835 27.3193 88.1915C27.3193 88.3011 27.342 88.356 27.3874 88.356C27.4365 88.356 27.5632 88.3087 27.7675 88.2142L27.8696 88.4014C27.533 88.6812 27.2209 88.8212 26.9335 88.8212C26.8011 88.8212 26.6915 88.7796 26.6045 88.6964C26.5213 88.6132 26.4797 88.5035 26.4797 88.3673C26.4797 88.2274 26.4948 88.0704 26.5251 87.8965C26.5591 87.7225 26.6045 87.5107 26.6612 87.2611C26.718 87.0077 26.7596 86.8035 26.786 86.6484C26.6461 86.6598 26.5421 86.6711 26.474 86.6824C26.4664 86.6371 26.4627 86.5766 26.4627 86.5009C26.4627 86.4215 26.4683 86.3572 26.4797 86.308H26.8371C26.8674 86.1038 26.8825 85.9109 26.8825 85.7294L26.8768 85.5535V85.5365C27.1718 85.4344 27.4498 85.3833 27.7107 85.3833C27.7258 85.459 27.7334 85.5535 27.7334 85.667C27.7334 85.7804 27.7013 85.9941 27.637 86.308H28.1873ZM29.8376 88.0099C29.8376 88.2482 29.7318 88.443 29.52 88.5942C29.312 88.7455 29.0737 88.8212 28.8052 88.8212C28.5367 88.8212 28.323 88.7644 28.1641 88.651C28.0091 88.5375 27.9315 88.4373 27.9315 88.3503C27.9315 88.2974 27.9977 88.2123 28.1301 88.095C28.2625 87.974 28.374 87.9002 28.4648 87.8738C28.6539 88.0137 28.809 88.235 28.93 88.5375C29.0699 88.5262 29.1399 88.46 29.1399 88.339C29.1399 88.165 28.9867 87.9192 28.6804 87.6015C28.374 87.28 28.2208 87.0247 28.2208 86.8356C28.2208 86.6465 28.3059 86.5009 28.4761 86.3988C28.6463 86.2929 28.8505 86.24 29.0888 86.24C29.3309 86.24 29.5124 86.2834 29.6334 86.3704C29.7545 86.4536 29.815 86.569 29.815 86.7165C29.815 86.8602 29.6996 87.0606 29.4689 87.3178C29.4954 87.3443 29.5294 87.3802 29.571 87.4256C29.6126 87.4672 29.6675 87.5485 29.7355 87.6695C29.8036 87.7906 29.8376 87.904 29.8376 88.0099ZM29.293 87.1193C29.4519 86.9831 29.5313 86.8489 29.5313 86.7165C29.5313 86.5841 29.4405 86.5179 29.259 86.5179C29.172 86.5179 29.1002 86.5368 29.0434 86.5747C28.9867 86.6087 28.9583 86.6484 28.9583 86.6938C28.9583 86.777 29.0416 86.8942 29.2079 87.0455L29.293 87.1193ZM31.8383 84.7253L33.7331 84.7877L34.2663 84.7763C34.2777 84.8557 34.2834 84.9389 34.2834 85.0259C34.2834 85.1129 34.2683 85.1753 34.238 85.2131C34.2078 85.251 34.1529 85.2699 34.0735 85.2699C34.0659 85.2699 33.7993 85.2453 33.2736 85.1961C33.2585 85.3663 33.2017 85.6575 33.1034 86.0698C33.0051 86.482 32.9105 86.9226 32.8197 87.3916C32.729 87.8605 32.6817 88.2822 32.6779 88.6566C32.5304 88.7323 32.2279 88.7701 31.7702 88.7701H31.7305C31.7305 88.5734 31.8383 87.9872 32.0539 87.0115C32.2695 86.0357 32.3772 85.442 32.3772 85.2302C32.3772 85.215 32.3735 85.1886 32.3659 85.1507H32.139C31.8289 85.1507 31.5906 85.198 31.4242 85.2926C31.3372 85.1791 31.2843 85.0127 31.2653 84.7933C31.394 84.748 31.5849 84.7253 31.8383 84.7253ZM34.4633 88.8212C34.2023 88.8212 33.9981 88.7304 33.8506 88.5489C33.7031 88.3635 33.6293 88.1064 33.6293 87.7773C33.6293 87.3575 33.7409 86.9964 33.964 86.6938C34.191 86.3912 34.503 86.24 34.9001 86.24L35.1043 86.2513C35.1686 86.2173 35.2405 86.2002 35.3199 86.2002C35.6187 86.2002 35.7681 86.482 35.7681 87.0455C35.9231 87.038 36.0801 87.0172 36.2389 86.9831L36.3297 86.9604L36.3637 87.1817C36.2389 87.2346 36.0706 87.2819 35.8588 87.3235L35.7454 87.3462C35.6735 87.7433 35.5279 88.0893 35.3085 88.3843C35.0892 88.6756 34.8074 88.8212 34.4633 88.8212ZM34.7696 88.3333C34.9285 88.3333 35.0703 88.2312 35.1951 88.0269C35.3237 87.8227 35.4126 87.6071 35.4617 87.3802C35.057 87.3802 34.8547 87.2289 34.8547 86.9264C34.8547 86.8054 34.8793 86.6919 34.9285 86.586L34.9568 86.5293C34.9417 86.5217 34.9228 86.5179 34.9001 86.5179C34.8774 86.5179 34.8604 86.5217 34.849 86.5293C34.7545 86.5898 34.6656 86.7316 34.5824 86.9547C34.4992 87.1779 34.4576 87.4332 34.4576 87.7206C34.4576 88.1291 34.5616 88.3333 34.7696 88.3333ZM37.353 88.7815C37.2811 88.7815 37.2319 88.7796 37.2055 88.7758C37.2319 88.5564 37.3473 88.0005 37.5515 87.1079C37.7595 86.2116 37.8635 85.6443 37.8635 85.406C37.8635 85.3606 37.8371 85.302 37.7841 85.2302C37.7311 85.1545 37.6782 85.0921 37.6253 85.043L37.5515 84.9635L37.5685 84.8728C38.0867 84.7744 38.635 84.7253 39.2137 84.7253C39.9096 84.7253 40.2575 84.9995 40.2575 85.5478C40.2575 85.8164 40.1894 86.0622 40.0533 86.2853C39.9209 86.5047 39.7129 86.6768 39.4293 86.8016C39.6411 87.5088 39.8226 87.9664 39.9739 88.1744C40.042 88.2614 40.0949 88.3049 40.1327 88.3049C40.2008 88.3049 40.3067 88.2709 40.4504 88.2028L40.5185 88.1688L40.649 88.3787C40.509 88.5073 40.3464 88.6132 40.1611 88.6964C39.9795 88.7796 39.8075 88.8212 39.6448 88.8212C39.486 88.8212 39.3536 88.7531 39.2477 88.6169C39.1456 88.477 39.0511 88.2728 38.9641 88.0043C38.8809 87.7357 38.7958 87.3916 38.7088 86.9718C38.5878 86.9793 38.4951 86.9831 38.4308 86.9831C38.2379 87.8114 38.1321 88.3711 38.1131 88.6623C37.9505 88.7417 37.6971 88.7815 37.353 88.7815ZM38.6521 86.5974C38.879 86.5974 39.0568 86.4971 39.1853 86.2967C39.3177 86.0925 39.3839 85.8504 39.3839 85.5705C39.3839 85.423 39.3574 85.3039 39.3045 85.2131C39.2515 85.1224 39.1721 85.077 39.0662 85.077C39.0208 85.077 38.966 85.0846 38.9017 85.0997C38.8412 85.111 38.8109 85.1186 38.8109 85.1224C38.7504 85.5119 38.6521 86.0036 38.5159 86.5974H38.6521ZM40.6933 87.7717C40.6933 87.2989 40.8351 86.9264 41.1187 86.6541C41.4062 86.378 41.7314 86.24 42.0945 86.24C42.3176 86.24 42.5011 86.2948 42.6448 86.4045C42.7885 86.5141 42.8603 86.6616 42.8603 86.847C42.8603 87.0285 42.8131 87.1817 42.7185 87.3065C42.6277 87.4313 42.5162 87.5277 42.3838 87.5958C42.1153 87.7282 41.8695 87.8114 41.6463 87.8454L41.5102 87.8624C41.5367 88.2179 41.6823 88.3957 41.947 88.3957C42.0378 88.3957 42.1342 88.373 42.2363 88.3276C42.3384 88.2822 42.4178 88.2368 42.4746 88.1915L42.5597 88.1234L42.6958 88.3049C42.6656 88.3465 42.6051 88.4014 42.5143 88.4694C42.4235 88.5375 42.3384 88.5942 42.259 88.6396C42.0397 88.7607 41.7995 88.8212 41.5385 88.8212C41.2776 88.8212 41.0715 88.7285 40.9202 88.5432C40.7689 88.3579 40.6933 88.1007 40.6933 87.7717ZM41.5045 87.5845C41.6974 87.5504 41.8505 87.4691 41.964 87.3405C42.0775 87.2119 42.1342 87.0455 42.1342 86.8413C42.1342 86.6371 42.0737 86.5349 41.9527 86.5349C41.809 86.5349 41.6974 86.6579 41.618 86.9037C41.5423 87.1457 41.5045 87.3727 41.5045 87.5845ZM43.135 88.7701H43.0272C43.0272 88.5924 43.0802 88.252 43.1861 87.749C43.2958 87.246 43.3506 86.9604 43.3506 86.8923C43.3506 86.7675 43.2977 86.6352 43.1917 86.4952L43.1407 86.4272L43.1463 86.3534C43.3506 86.2967 43.6777 86.2683 44.1278 86.2683C44.1807 86.3402 44.2072 86.4574 44.2072 86.62C44.5476 86.3667 44.818 86.24 45.0184 86.24C45.2719 86.24 45.4212 86.3704 45.4666 86.6314C45.5687 86.5482 45.7011 86.4631 45.8637 86.3761C46.0301 86.2853 46.1776 86.24 46.3062 86.24C46.4386 86.24 46.5483 86.2834 46.6352 86.3704C46.7222 86.4536 46.7657 86.5709 46.7657 86.7222C46.7657 86.8734 46.7241 87.123 46.6409 87.471C46.5577 87.8189 46.5161 88.0534 46.5161 88.1744C46.5161 88.2917 46.5331 88.3503 46.5672 88.3503C46.5899 88.3503 46.6674 88.3144 46.7998 88.2425L46.8622 88.2085L46.9643 88.407C46.866 88.5054 46.7317 88.5999 46.5615 88.6907C46.3951 88.7777 46.2476 88.8212 46.119 88.8212C45.8353 88.8212 45.6935 88.6604 45.6935 88.339C45.6935 88.2217 45.7332 87.9872 45.8127 87.6355C45.8959 87.28 45.9375 87.0493 45.9375 86.9434C45.9375 86.8337 45.9053 86.7789 45.841 86.7789C45.7314 86.7789 45.6066 86.8205 45.4666 86.9037C45.4591 86.9793 45.4061 87.2365 45.3078 87.6752C45.2132 88.1139 45.1659 88.4543 45.1659 88.6964C45.0563 88.7455 44.7991 88.7701 44.3944 88.7701C44.3869 88.7285 44.3831 88.6283 44.3831 88.4694C44.3831 88.3106 44.4266 88.0402 44.5135 87.6582C44.6043 87.2762 44.6497 87.0342 44.6497 86.9321C44.6497 86.8299 44.6138 86.7789 44.5419 86.7789C44.4284 86.7789 44.3036 86.8243 44.1675 86.915C44.16 86.9491 44.1221 87.1155 44.054 87.4143C43.9179 88.0118 43.8498 88.4373 43.8498 88.6907C43.7175 88.7436 43.4792 88.7701 43.135 88.7701ZM47.1252 87.7717C47.1252 87.2989 47.2671 86.9264 47.5507 86.6541C47.8381 86.378 48.1634 86.24 48.5265 86.24C48.7496 86.24 48.933 86.2948 49.0768 86.4045C49.2205 86.5141 49.2923 86.6616 49.2923 86.847C49.2923 87.0285 49.245 87.1817 49.1505 87.3065C49.0597 87.4313 48.9482 87.5277 48.8158 87.5958C48.5473 87.7282 48.3015 87.8114 48.0783 87.8454L47.9422 87.8624C47.9686 88.2179 48.1143 88.3957 48.379 88.3957C48.4697 88.3957 48.5662 88.373 48.6683 88.3276C48.7704 88.2822 48.8498 88.2368 48.9066 88.1915L48.9917 88.1234L49.1278 88.3049C49.0975 88.3465 49.037 88.4014 48.9463 88.4694C48.8555 88.5375 48.7704 88.5942 48.691 88.6396C48.4717 88.7607 48.2315 88.8212 47.9705 88.8212C47.7096 88.8212 47.5034 88.7285 47.3522 88.5432C47.2009 88.3579 47.1252 88.1007 47.1252 87.7717ZM47.9365 87.5845C48.1294 87.5504 48.2825 87.4691 48.396 87.3405C48.5095 87.2119 48.5662 87.0455 48.5662 86.8413C48.5662 86.6371 48.5057 86.5349 48.3847 86.5349C48.2409 86.5349 48.1294 86.6579 48.0499 86.9037C47.9743 87.1457 47.9365 87.3727 47.9365 87.5845ZM49.567 88.7701H49.4592C49.4592 88.5924 49.5122 88.252 49.6181 87.749C49.7277 87.246 49.7826 86.9604 49.7826 86.8923C49.7826 86.7675 49.7296 86.6352 49.6237 86.4952L49.5727 86.4272L49.5783 86.3534C49.7826 86.2967 50.1097 86.2683 50.5598 86.2683C50.6127 86.3402 50.6392 86.4574 50.6392 86.62C50.9796 86.3667 51.25 86.24 51.4504 86.24C51.7038 86.24 51.8532 86.3704 51.8986 86.6314C52.0007 86.5482 52.1331 86.4631 52.2957 86.3761C52.4621 86.2853 52.6096 86.24 52.7382 86.24C52.8706 86.24 52.9802 86.2834 53.0672 86.3704C53.1542 86.4536 53.1977 86.5709 53.1977 86.7222C53.1977 86.8734 53.1561 87.123 53.0729 87.471C52.9897 87.8189 52.9481 88.0534 52.9481 88.1744C52.9481 88.2917 52.9651 88.3503 52.9992 88.3503C53.0218 88.3503 53.0994 88.3144 53.2317 88.2425L53.2942 88.2085L53.3963 88.407C53.2979 88.5054 53.1637 88.5999 52.9935 88.6907C52.8271 88.7777 52.6796 88.8212 52.551 88.8212C52.2673 88.8212 52.1255 88.6604 52.1255 88.339C52.1255 88.2217 52.1652 87.9872 52.2446 87.6355C52.3278 87.28 52.3695 87.0493 52.3695 86.9434C52.3695 86.8337 52.3373 86.7789 52.273 86.7789C52.1633 86.7789 52.0385 86.8205 51.8986 86.9037C51.891 86.9793 51.8381 87.2365 51.7397 87.6752C51.6452 88.1139 51.5979 88.4543 51.5979 88.6964C51.4882 88.7455 51.2311 88.7701 50.8264 88.7701C50.8188 88.7285 50.8151 88.6283 50.8151 88.4694C50.8151 88.3106 50.8585 88.0402 50.9455 87.6582C51.0363 87.2762 51.0817 87.0342 51.0817 86.9321C51.0817 86.8299 51.0457 86.7789 50.9739 86.7789C50.8604 86.7789 50.7356 86.8243 50.5995 86.915C50.5919 86.9491 50.5541 87.1155 50.486 87.4143C50.3499 88.0118 50.2818 88.4373 50.2818 88.6907C50.1494 88.7436 49.9111 88.7701 49.567 88.7701ZM55.0492 84.7933C55.0492 85.0808 54.9528 85.6443 54.7599 86.4839C54.9868 86.3213 55.1911 86.24 55.3726 86.24C55.5579 86.24 55.7148 86.3175 55.8435 86.4725C55.9758 86.6238 56.042 86.8564 56.042 87.1703C56.042 87.696 55.938 88.1026 55.73 88.39C55.5258 88.6774 55.2762 88.8212 54.9812 88.8212C54.8715 88.8212 54.7599 88.8079 54.6465 88.7815C54.5368 88.755 54.4536 88.7266 54.3968 88.6964L54.3117 88.6566C54.0697 88.7398 53.8333 88.7815 53.6026 88.7815C53.5799 88.7625 53.5686 88.6718 53.5686 88.5091C53.5686 88.3427 53.6745 87.7981 53.8863 86.8753C54.098 85.9487 54.204 85.3153 54.204 84.9749C54.204 84.9144 54.1945 84.8368 54.1756 84.7423C54.4706 84.6402 54.7523 84.5891 55.0209 84.5891C55.0398 84.6421 55.0492 84.7101 55.0492 84.7933ZM54.9982 86.7222C54.9263 86.7222 54.8185 86.7562 54.6748 86.8243C54.5008 87.558 54.4063 88.0837 54.3912 88.4014C54.5046 88.4505 54.6124 88.4751 54.7145 88.4751C54.8582 88.4751 54.9774 88.3427 55.0719 88.078C55.1702 87.8133 55.2194 87.522 55.2194 87.2044C55.2194 86.8829 55.1457 86.7222 54.9982 86.7222ZM56.2829 87.7717C56.2829 87.2989 56.4247 86.9264 56.7084 86.6541C56.9958 86.378 57.3211 86.24 57.6841 86.24C57.9073 86.24 58.0907 86.2948 58.2344 86.4045C58.3781 86.5141 58.45 86.6616 58.45 86.847C58.45 87.0285 58.4027 87.1817 58.3082 87.3065C58.2174 87.4313 58.1058 87.5277 57.9735 87.5958C57.705 87.7282 57.4591 87.8114 57.236 87.8454L57.0998 87.8624C57.1263 88.2179 57.2719 88.3957 57.5366 88.3957C57.6274 88.3957 57.7239 88.373 57.826 88.3276C57.9281 88.2822 58.0075 88.2368 58.0642 88.1915L58.1493 88.1234L58.2855 88.3049C58.2552 88.3465 58.1947 88.4014 58.1039 88.4694C58.0132 88.5375 57.9281 88.5942 57.8487 88.6396C57.6293 88.7607 57.3891 88.8212 57.1282 88.8212C56.8672 88.8212 56.6611 88.7285 56.5098 88.5432C56.3586 88.3579 56.2829 88.1007 56.2829 87.7717ZM57.0941 87.5845C57.287 87.5504 57.4402 87.4691 57.5537 87.3405C57.6671 87.2119 57.7239 87.0455 57.7239 86.8413C57.7239 86.6371 57.6634 86.5349 57.5423 86.5349C57.3986 86.5349 57.287 86.6579 57.2076 86.9037C57.132 87.1457 57.0941 87.3727 57.0941 87.5845ZM58.6849 88.7701H58.6452C58.6377 88.7398 58.6339 88.6718 58.6339 88.5659C58.6339 88.4562 58.6849 88.165 58.7871 87.6922C58.8892 87.2195 58.9402 86.9491 58.9402 86.881C58.9402 86.7638 58.8873 86.6352 58.7814 86.4952L58.7303 86.4272L58.736 86.3534C58.9402 86.2967 59.2674 86.2683 59.7174 86.2683C59.7628 86.3667 59.7855 86.5047 59.7855 86.6824C59.8271 86.6144 59.9141 86.5236 60.0465 86.4101C60.1788 86.2967 60.315 86.24 60.4549 86.24C60.6591 86.24 60.7613 86.4177 60.7613 86.7732C60.7423 86.7959 60.7159 86.8262 60.6818 86.864C60.6516 86.898 60.5873 86.9472 60.489 87.0115C60.3944 87.0758 60.3017 87.1155 60.211 87.1306C60.2072 87.1306 60.175 87.0796 60.1145 86.9774C60.054 86.8753 60.0087 86.8243 59.9784 86.8243C59.8839 86.8583 59.8006 86.915 59.7288 86.9945C59.5548 87.7773 59.4678 88.2841 59.4678 88.5148C59.4678 88.598 59.4697 88.6566 59.4735 88.6907C59.3411 88.7436 59.0783 88.7701 58.6849 88.7701Z" fill="white"/>
</svg>
