<svg width="66" height="34" viewBox="0 0 66 34" fill="none" xmlns="http://www.w3.org/2000/svg">
<path d="M58.1513 21.1521C57.9173 21.1521 57.6869 21.1521 57.4529 21.1521C56.141 21.1521 54.8293 21.1409 53.5177 21.1632C53.0791 21.1706 52.897 21.0666 52.9044 20.5835C52.9305 18.7553 52.9229 16.9233 52.908 15.095C52.9044 14.69 53.0232 14.5413 53.4396 14.5413C57.4304 14.5562 61.4251 14.5562 65.4162 14.5562C65.6912 14.5562 65.914 14.5636 65.9438 14.9464C66.1779 18.2945 65.7059 21.5088 64.0487 24.4666C61.3844 29.2194 57.3784 32.1588 51.9679 32.9837C45.0377 34.0429 38.5719 30.8099 35.131 24.8644C32.8344 20.8994 30.5454 16.9344 28.2527 12.9732C27.2902 11.3121 26.3239 9.6511 25.3765 7.98263C25.027 7.36577 24.5924 6.92728 23.8158 6.93843C23.0502 6.94958 22.6118 7.38435 22.2587 7.99749C17.5134 16.221 12.7681 24.4444 8.03766 32.6752C7.78499 33.1175 7.50257 33.281 6.9972 33.2736C4.83449 33.2475 2.67178 33.2661 0.50909 33.2624C0.364166 33.2624 0.219243 33.2475 0 33.2326C0.100332 33.032 0.16722 32.8685 0.256403 32.7162C3.95008 26.3173 7.64749 19.9221 11.3449 13.5231C13.1211 10.4537 14.8751 7.36948 16.6773 4.31495C19.2636 -0.0699129 25.0644 -1.14012 28.9995 2.07793C29.7947 2.72821 30.5007 3.57919 31.0247 4.46731C34.3505 10.1379 37.6169 15.8419 40.8944 21.5385C44.4134 27.6586 52.9454 28.2905 57.3228 22.7425C57.672 22.3003 57.9434 21.8024 58.2517 21.3304C58.2182 21.2747 58.1848 21.2115 58.1513 21.1521Z" fill="#1A6BB4"/>
<path d="M25.4322 15.1545L14.9754 33.452H22.8161L29.4232 21.9064L25.4322 15.1545Z" fill="#1A6BB4"/>
<path d="M36.1787 6.65974L40.0992 13.2667C40.0992 13.2667 42.5332 7.20226 48.813 6.84181C55.0931 6.47765 57.7425 11.4162 57.7425 11.4162H65.3307C65.3307 11.4162 62.1348 0.68815 50.0467 0.034137C50.0467 0.034137 42.1876 -0.872562 36.1787 6.65974Z" fill="#1A6BB4"/>
</svg>
