<svg width="152" height="44" viewBox="0 0 152 44" fill="none" xmlns="http://www.w3.org/2000/svg">
<path d="M44.168 18.862H48.155C51.1958 18.862 53.2636 16.9428 53.2636 14.1317C53.2636 11.3205 51.1958 9.40137 48.155 9.40137H44.168V18.862ZM45.5195 17.6861V10.5772H48.0738C50.412 10.5772 51.9121 12.0098 51.9121 14.1317C51.9121 16.2535 50.412 17.6861 48.0738 17.6861H45.5195ZM58.2125 18.943C60.3615 18.943 61.9292 17.4158 61.9292 15.2804C61.9292 13.1451 60.3615 11.6314 58.2125 11.6314C56.0637 11.6314 54.4824 13.1451 54.4824 15.2804C54.4824 17.4158 56.0637 18.943 58.2125 18.943ZM58.2125 17.8078C56.834 17.8078 55.7934 16.8077 55.7934 15.2804C55.7934 13.7532 56.834 12.7666 58.2125 12.7666C59.5911 12.7666 60.6182 13.7532 60.6182 15.2804C60.6182 16.8077 59.5911 17.8078 58.2125 17.8078ZM73.2019 11.6989L71.0664 17.4294L68.9446 11.6989H67.8498L65.6875 17.4023L63.6061 11.6989H62.3769L65.0387 18.862H66.2821L68.377 13.4289L70.4448 18.862H71.6882L74.3642 11.6989H73.2019ZM79.5055 11.6314C78.3703 11.6314 77.4513 12.0503 76.9242 12.7801V11.6989H75.6808V18.862H76.9782V15.1723C76.9782 13.6181 77.8703 12.7936 79.2487 12.7936C80.4786 12.7936 81.1814 13.4829 81.1814 14.8885V18.862H82.4789V14.7398C82.4789 12.6315 81.249 11.6314 79.5055 11.6314ZM84.8801 18.862H86.1775V8.83374H84.8801V18.862ZM91.7233 18.943C93.8721 18.943 95.4399 17.4158 95.4399 15.2804C95.4399 13.1451 93.8721 11.6314 91.7233 11.6314C89.5743 11.6314 87.993 13.1451 87.993 15.2804C87.993 17.4158 89.5743 18.943 91.7233 18.943ZM91.7233 17.8078C90.3447 17.8078 89.3041 16.8077 89.3041 15.2804C89.3041 13.7532 90.3447 12.7666 91.7233 12.7666C93.1018 12.7666 94.1289 13.7532 94.1289 15.2804C94.1289 16.8077 93.1018 17.8078 91.7233 17.8078ZM99.7772 11.6314C98.6283 11.6314 97.5607 11.9557 96.8173 12.5504L97.3579 13.5235C97.912 13.0504 98.777 12.7531 99.6285 12.7531C100.912 12.7531 101.548 13.3884 101.548 14.483V14.7398H99.4934C97.3579 14.7398 96.6146 15.6859 96.6146 16.8347C96.6146 18.0781 97.6417 18.943 99.2636 18.943C100.385 18.943 101.183 18.5647 101.615 17.9159V18.862H102.845V14.5371C102.845 12.5774 101.737 11.6314 99.7772 11.6314ZM99.4798 17.9429C98.4932 17.9429 97.8985 17.4969 97.8985 16.7807C97.8985 16.1725 98.2635 15.6724 99.5474 15.6724H101.548V16.6725C101.223 17.4969 100.453 17.9429 99.4798 17.9429ZM110.746 8.83374V12.7801C110.151 12.0098 109.259 11.6314 108.246 11.6314C106.151 11.6314 104.623 13.0909 104.623 15.2804C104.623 17.4699 106.151 18.943 108.246 18.943C109.3 18.943 110.219 18.5376 110.8 17.7267V18.862H112.043V8.83374H110.746ZM108.354 17.8078C106.975 17.8078 105.934 16.8077 105.934 15.2804C105.934 13.7532 106.975 12.7666 108.354 12.7666C109.719 12.7666 110.759 13.7532 110.759 15.2804C110.759 16.8077 109.719 17.8078 108.354 17.8078ZM122.587 18.9701C125.466 18.9701 127.601 16.9158 127.601 14.1317C127.601 11.3476 125.466 9.29326 122.587 9.29326C119.682 9.29326 117.546 11.3611 117.546 14.1317C117.546 16.9023 119.682 18.9701 122.587 18.9701ZM122.587 17.7673C120.465 17.7673 118.898 16.2265 118.898 14.1317C118.898 12.0368 120.465 10.4961 122.587 10.4961C124.682 10.4961 126.249 12.0368 126.249 14.1317C126.249 16.2265 124.682 17.7673 122.587 17.7673ZM133.302 11.6314C132.167 11.6314 131.248 12.0503 130.722 12.7801V11.6989H129.477V18.862H130.775V15.1723C130.775 13.6181 131.667 12.7936 133.046 12.7936C134.275 12.7936 134.978 13.4829 134.978 14.8885V18.862H136.276V14.7398C136.276 12.6315 135.046 11.6314 133.302 11.6314Z" fill="white"/>
<path d="M10.8461 39.4569C4.91014 39.4229 0 27.3047 0 21.1344C0 11.0534 7.56202 8.84642 10.4765 8.84642C11.7898 8.84642 13.1922 9.36231 14.4292 9.81905C15.2943 10.1374 16.1887 10.4658 16.6863 10.4658C16.9842 10.4658 17.6859 10.1865 18.3056 9.9411C19.6271 9.41515 21.2713 8.76086 23.186 8.76086C23.1895 8.76086 23.194 8.76086 23.1974 8.76086C24.6271 8.76086 28.9623 9.07543 31.5686 12.9886L32.1791 13.907L31.3004 14.5689C30.0453 15.5164 27.755 17.2439 27.755 20.6663C27.755 24.7191 30.3488 26.2781 31.5947 27.028C32.1448 27.3589 32.7142 27.6998 32.7142 28.446C32.7142 28.9342 28.8253 39.3964 23.178 39.3964C21.7961 39.3964 20.8194 38.9812 19.9578 38.6151C19.0859 38.2439 18.3341 37.9243 17.0913 37.9243C16.4615 37.9243 15.6649 38.2225 14.8217 38.5383C13.6693 38.9686 12.365 39.4569 10.8849 39.4569H10.8461Z" fill="white"/>
<path d="M23.784 0C23.9312 5.30347 20.1386 8.98257 16.3505 8.75105C15.7263 4.5196 20.1383 0 23.784 0Z" fill="white"/>
<path d="M40.1895 39.1207L46.8829 24.1034H50.3154L57.0303 39.1207H53.3832L47.8912 25.8626H49.2642L43.7507 39.1207H40.1895ZM43.5362 35.9027L44.4586 33.2639H52.1818L53.1258 35.9027H43.5362ZM65.1744 39.2923C64.202 39.2923 63.3509 39.0778 62.6215 38.6487C61.8921 38.2196 61.32 37.5688 60.9052 36.6964C60.5048 35.8097 60.3045 34.6941 60.3045 33.3497C60.3045 31.991 60.4976 30.8754 60.8838 30.003C61.2699 29.1306 61.8277 28.4799 62.5571 28.0508C63.2865 27.6217 64.159 27.4072 65.1744 27.4072C66.2615 27.4072 67.2339 27.6574 68.0921 28.1581C68.9646 28.6443 69.6511 29.3308 70.1516 30.2176C70.6664 31.1043 70.9239 32.1484 70.9239 33.3497C70.9239 34.5654 70.6664 35.6166 70.1516 36.5034C69.6511 37.3901 68.9646 38.0766 68.0921 38.5629C67.2339 39.0491 66.2615 39.2923 65.1744 39.2923ZM58.3523 43.2826V27.5788H61.5488V29.9387L61.4845 33.3712L61.699 36.7823V43.2826H58.3523ZM64.5952 36.5463C65.153 36.5463 65.6464 36.4176 66.0755 36.1601C66.5189 35.9027 66.8692 35.538 67.1267 35.066C67.3985 34.5798 67.5343 34.0076 67.5343 33.3497C67.5343 32.6775 67.3985 32.1054 67.1267 31.6335C66.8692 31.1615 66.5189 30.7968 66.0755 30.5394C65.6464 30.2819 65.153 30.1532 64.5952 30.1532C64.0374 30.1532 63.5369 30.2819 63.0935 30.5394C62.6501 30.7968 62.2997 31.1615 62.0422 31.6335C61.7848 32.1054 61.6561 32.6775 61.6561 33.3497C61.6561 34.0076 61.7848 34.5798 62.0422 35.066C62.2997 35.538 62.6501 35.9027 63.0935 36.1601C63.5369 36.4176 64.0374 36.5463 64.5952 36.5463ZM79.9864 39.2923C79.0139 39.2923 78.1628 39.0778 77.4334 38.6487C76.704 38.2196 76.132 37.5688 75.7172 36.6964C75.3168 35.8097 75.1165 34.6941 75.1165 33.3497C75.1165 31.991 75.3096 30.8754 75.6957 30.003C76.0819 29.1306 76.6397 28.4799 77.3691 28.0508C78.0985 27.6217 78.971 27.4072 79.9864 27.4072C81.0734 27.4072 82.0459 27.6574 82.904 28.1581C83.7765 28.6443 84.463 29.3308 84.9635 30.2176C85.4784 31.1043 85.7358 32.1484 85.7358 33.3497C85.7358 34.5654 85.4784 35.6166 84.9635 36.5034C84.463 37.3901 83.7765 38.0766 82.904 38.5629C82.0459 39.0491 81.0734 39.2923 79.9864 39.2923ZM73.1642 43.2826V27.5788H76.3608V29.9387L76.2964 33.3712L76.5109 36.7823V43.2826H73.1642ZM79.4071 36.5463C79.9649 36.5463 80.4583 36.4176 80.8874 36.1601C81.3309 35.9027 81.6812 35.538 81.9386 35.066C82.2104 34.5798 82.3462 34.0076 82.3462 33.3497C82.3462 32.6775 82.2104 32.1054 81.9386 31.6335C81.6812 31.1615 81.3309 30.7968 80.8874 30.5394C80.4583 30.2819 79.9649 30.1532 79.4071 30.1532C78.8493 30.1532 78.3489 30.2819 77.9054 30.5394C77.4621 30.7968 77.1116 31.1615 76.8542 31.6335C76.5968 32.1054 76.468 32.6775 76.468 33.3497C76.468 34.0076 76.5968 34.5798 76.8542 35.066C77.1116 35.538 77.4621 35.9027 77.9054 36.1601C78.3489 36.4176 78.8493 36.5463 79.4071 36.5463ZM99.2221 39.3781C98.0207 39.3781 96.8694 39.2207 95.7681 38.9061C94.6668 38.5771 93.7802 38.1553 93.1079 37.6404L94.2879 35.0231C94.9315 35.4808 95.6895 35.8598 96.5619 36.1601C97.4487 36.4462 98.3425 36.5892 99.2436 36.5892C99.9301 36.5892 100.481 36.5248 100.895 36.3961C101.325 36.2531 101.639 36.06 101.839 35.8169C102.04 35.5737 102.14 35.2948 102.14 34.9802C102.14 34.5798 101.982 34.265 101.668 34.0362C101.353 33.7931 100.938 33.6 100.423 33.457C99.9086 33.2996 99.3366 33.1567 98.7072 33.0279C98.0923 32.885 97.4701 32.7133 96.8408 32.5131C96.2259 32.3128 95.6609 32.0554 95.146 31.7407C94.6311 31.4261 94.2092 31.0113 93.8803 30.4965C93.5656 29.9816 93.4083 29.3237 93.4083 28.5228C93.4083 27.6646 93.6371 26.8851 94.0948 26.1844C94.5668 25.4692 95.2675 24.9044 96.1972 24.4895C97.1411 24.0605 98.3211 23.8459 99.737 23.8459C100.681 23.8459 101.611 23.9604 102.526 24.1892C103.441 24.4037 104.249 24.7327 104.95 25.1761L103.877 27.8148C103.177 27.4144 102.476 27.1211 101.775 26.9352C101.074 26.7349 100.388 26.6349 99.7155 26.6349C99.0433 26.6349 98.4927 26.7135 98.0636 26.8709C97.6346 27.0282 97.327 27.2356 97.1411 27.493C96.9553 27.7362 96.8623 28.0221 96.8623 28.3511C96.8623 28.7373 97.0196 29.0519 97.3342 29.2951C97.6488 29.5239 98.0636 29.7099 98.5785 29.8529C99.0934 29.9958 99.6584 30.1389 100.273 30.2819C100.903 30.4249 101.525 30.5895 102.14 30.7753C102.769 30.9612 103.341 31.2116 103.856 31.5262C104.371 31.8408 104.786 32.2556 105.1 32.7705C105.429 33.2854 105.594 33.9362 105.594 34.7227C105.594 35.5666 105.358 36.3389 104.886 37.0397C104.414 37.7405 103.706 38.3054 102.762 38.7345C101.832 39.1636 100.652 39.3781 99.2221 39.3781ZM112.452 39.2923C111.093 39.2923 110.035 38.949 109.277 38.2625C108.519 37.5618 108.14 36.5248 108.14 35.1518V25.0259H111.487V35.1089C111.487 35.5951 111.616 35.9742 111.873 36.2459C112.13 36.5034 112.481 36.6321 112.924 36.6321C113.453 36.6321 113.904 36.4891 114.276 36.203L115.177 38.5629C114.834 38.8061 114.419 38.9919 113.932 39.1207C113.461 39.2351 112.967 39.2923 112.452 39.2923ZM106.359 30.4106V27.8363H114.362V30.4106H106.359ZM122.191 39.2923C120.961 39.2923 119.867 39.0349 118.909 38.52C117.965 38.0051 117.214 37.3043 116.656 36.4176C116.113 35.5165 115.841 34.494 115.841 33.3497C115.841 32.1913 116.113 31.1687 116.656 30.2819C117.214 29.3809 117.965 28.6801 118.909 28.1795C119.867 27.6646 120.961 27.4072 122.191 27.4072C123.407 27.4072 124.494 27.6646 125.452 28.1795C126.41 28.6801 127.161 29.3737 127.705 30.2605C128.249 31.1472 128.52 32.177 128.52 33.3497C128.52 34.494 128.249 35.5165 127.705 36.4176C127.161 37.3043 126.41 38.0051 125.452 38.52C124.494 39.0349 123.407 39.2923 122.191 39.2923ZM122.191 36.5463C122.749 36.5463 123.25 36.4176 123.693 36.1601C124.136 35.9027 124.487 35.538 124.744 35.066C125.002 34.5798 125.13 34.0076 125.13 33.3497C125.13 32.6775 125.002 32.1054 124.744 31.6335C124.487 31.1615 124.136 30.7968 123.693 30.5394C123.25 30.2819 122.749 30.1532 122.191 30.1532C121.634 30.1532 121.133 30.2819 120.69 30.5394C120.246 30.7968 119.889 31.1615 119.617 31.6335C119.36 32.1054 119.231 32.6775 119.231 33.3497C119.231 34.0076 119.36 34.5798 119.617 35.066C119.889 35.538 120.246 35.9027 120.69 36.1601C121.133 36.4176 121.634 36.5463 122.191 36.5463ZM130.758 39.1207V27.5788H133.954V30.8397L133.504 29.8958C133.847 29.0805 134.397 28.4656 135.155 28.0508C135.913 27.6217 136.835 27.4072 137.923 27.4072V30.4965C137.779 30.4822 137.65 30.475 137.537 30.475C137.422 30.4607 137.301 30.4535 137.172 30.4535C136.256 30.4535 135.513 30.7182 134.941 31.2473C134.383 31.7622 134.104 32.5702 134.104 33.6715V39.1207H130.758ZM145.556 39.2923C144.24 39.2923 143.082 39.0349 142.081 38.52C141.094 38.0051 140.329 37.3043 139.786 36.4176C139.242 35.5165 138.97 34.494 138.97 33.3497C138.97 32.1913 139.235 31.1687 139.764 30.2819C140.308 29.3809 141.044 28.6801 141.974 28.1795C142.904 27.6646 143.955 27.4072 145.127 27.4072C146.257 27.4072 147.273 27.6504 148.174 28.1366C149.089 28.6086 149.812 29.2951 150.341 30.1961C150.869 31.0829 151.134 32.1484 151.134 33.3926C151.134 33.5214 151.127 33.6715 151.113 33.8432C151.099 34.0005 151.084 34.1507 151.07 34.2937H141.695V32.3414H149.311L148.024 32.9207C148.024 32.32 147.902 31.7979 147.659 31.3546C147.415 30.9113 147.08 30.568 146.651 30.3248C146.222 30.0674 145.721 29.9387 145.149 29.9387C144.577 29.9387 144.069 30.0674 143.626 30.3248C143.197 30.568 142.861 30.9183 142.617 31.376C142.374 31.8194 142.253 32.3486 142.253 32.9636V33.4785C142.253 34.1078 142.389 34.6656 142.66 35.1518C142.947 35.6238 143.339 35.9885 143.84 36.2459C144.355 36.4891 144.956 36.6106 145.642 36.6106C146.257 36.6106 146.793 36.5176 147.251 36.3317C147.723 36.1459 148.152 35.867 148.538 35.4951L150.319 37.4259C149.79 38.0265 149.125 38.4913 148.324 38.8203C147.523 39.1349 146.6 39.2923 145.556 39.2923Z" fill="white"/>
</svg>
