<svg width="19" height="22" viewBox="0 0 19 22" fill="none" xmlns="http://www.w3.org/2000/svg">
<path d="M17.7696 18.0548C18.8125 15.6139 18.3946 12.8319 16.6305 10.8746C16.3461 10.5594 16.2934 10.346 16.5126 9.94372C18.9944 5.45502 15.9733 0.0242276 11.0001 0.00808119C10.2027 0.00808119 9.40526 0.0207175 8.60784 0.000359032C8.28025 -0.00736315 8.17712 0.10847 8.17712 0.446139C8.19195 1.72591 8.19398 3.0064 8.17712 4.28687C8.17173 4.65122 8.2816 4.76354 8.63076 4.75793C9.85958 4.73828 11.0891 4.74529 12.3185 4.75793C12.5208 4.75793 12.8476 4.64981 12.7419 5.09559L12.7364 8.18447C12.7782 8.579 12.4898 8.473 12.3044 8.4744C11.1079 8.48282 9.91148 8.49336 8.71569 8.46949C8.30654 8.46107 8.16498 8.58532 8.17645 9.02408C8.20341 10.1305 8.18251 11.2389 8.18723 12.346C8.18723 13.1745 8.50337 13.4938 9.31156 13.4959C10.624 13.4959 11.937 13.5092 13.2488 13.4897C13.6431 13.484 13.7759 13.63 13.7664 14.0309C13.7462 14.9302 13.7476 15.8301 13.7664 16.7301C13.7738 17.1148 13.6363 17.2447 13.2703 17.2404C11.8919 17.225 10.5121 17.2489 9.13361 17.2314C6.57892 17.1991 4.62346 15.1758 4.61066 12.5152C4.59089 8.55303 4.59246 4.59061 4.61538 0.627962C4.61538 0.123212 4.48057 -0.00946923 4.00467 0.00176303C2.67678 0.0333538 1.34752 0.00948528 0.0189501 0.00737923C0.0189501 4.69333 -0.0316046 9.3807 0.0324313 14.0659C0.0856822 17.9972 3.13784 21.3985 6.89506 21.8583C8.73053 22.083 10.5775 21.9896 12.4163 21.9215C13.7441 21.8724 14.9204 21.3072 15.9686 20.4578C15.9686 20.4508 17.3774 19.0629 17.7696 18.0548Z" fill="#18191D"/>
</svg>
