<svg width="15" height="15" viewBox="0 0 15 15" fill="none" xmlns="http://www.w3.org/2000/svg">
<path d="M10.9959 3.66531C11.0931 3.76252 11.1477 3.89436 11.1477 4.03183C11.1477 4.16931 11.0931 4.30116 10.9959 4.39836L8.06364 7.3306L10.9959 10.2628C11.0931 10.36 11.1477 10.4919 11.1477 10.6294C11.1477 10.7668 11.0931 10.8987 10.9959 10.9959C10.8987 11.0931 10.7668 11.1477 10.6293 11.1477C10.4919 11.1477 10.36 11.0931 10.2628 10.9959L7.33058 8.06366L4.39835 10.9959C4.30114 11.0931 4.16929 11.1477 4.03182 11.1477C3.89434 11.1477 3.7625 11.0931 3.66529 10.9959C3.56808 10.8987 3.51347 10.7668 3.51347 10.6294C3.51347 10.4919 3.56808 10.36 3.66529 10.2628L6.59752 7.3306L3.66529 4.39836C3.56808 4.30115 3.51347 4.16931 3.51347 4.03184C3.51347 3.89436 3.56808 3.76252 3.66529 3.66531C3.7625 3.5681 3.89434 3.51348 4.03182 3.51348C4.16929 3.51348 4.30114 3.5681 4.39835 3.66531L7.33058 6.59754L10.2628 3.66531C10.36 3.5681 10.4919 3.51348 10.6293 3.51348C10.7668 3.51348 10.8987 3.5681 10.9959 3.66531Z" fill="#464B4E"/>
</svg>
