<svg width="53" height="55" viewBox="0 0 53 55" fill="none" xmlns="http://www.w3.org/2000/svg">
<path d="M43.0184 17.8482C41.3968 15.1643 39.1134 12.9415 36.3868 11.3927C33.6602 9.84393 30.5817 9.02097 27.446 9.00262C17.3295 8.93981 9.02199 17.1782 9.00105 27.2947C8.98535 35.3792 14.4445 43.4847 24.7818 45.458L24.3034 52.725L33.1166 44.7252C36.7081 43.5266 39.8415 41.2473 42.0878 38.1994L52.4209 38.1784C46.4111 52.0582 28.0154 61.0807 11.4213 50.1111C9.10259 48.5785 5.97261 45.6569 4.57721 43.289C-7.9626 21.9308 7.12411 0 27.3277 0C39.0865 0 49.1109 7.42716 52.9663 17.8451L43.0184 17.8482Z" fill="#166AB3"/>
<path d="M27.8637 38.2883C27.7792 38.2897 27.6948 38.2834 27.6114 38.2695C27.5421 38.2599 27.4719 38.2571 27.4021 38.2611C27.1927 38.2611 26.9833 38.2339 26.774 38.213C26.6766 38.2036 26.5793 38.1941 26.4819 38.1816C26.3845 38.169 26.2872 38.1617 26.1909 38.146C26.0025 38.1156 25.814 38.0832 25.6267 38.0413C25.3042 37.9753 24.9839 37.9 24.6678 37.8068C24.33 37.7084 23.998 37.5914 23.6733 37.4561C23.3812 37.3336 23.0944 37.2038 22.8139 37.0552C22.4486 36.8595 22.0939 36.6446 21.7513 36.4114C21.542 36.269 21.341 36.1131 21.1431 35.9539C21.0084 35.8451 20.8745 35.7348 20.7412 35.6232C20.6902 35.5798 20.6419 35.5333 20.5967 35.4839C20.481 35.3663 20.3785 35.2365 20.291 35.0966C20.1737 34.9057 20.111 34.6863 20.1099 34.4622C20.105 34.3193 20.1292 34.1768 20.1811 34.0435C20.2363 33.9062 20.324 33.7844 20.4367 33.6885C20.5494 33.5925 20.6837 33.5254 20.828 33.4929C20.9775 33.4545 21.1333 33.4467 21.2858 33.4701C21.4384 33.4935 21.5846 33.5475 21.7157 33.629C21.8035 33.6817 21.8846 33.7445 21.9576 33.8163C22.1083 33.9619 22.2559 34.1105 22.415 34.2466C22.7289 34.5235 23.063 34.7765 23.4147 35.0034C23.6789 35.1698 23.9549 35.3164 24.2407 35.4421C24.4898 35.5502 24.7458 35.6419 25.0069 35.7163C25.2467 35.7854 25.4864 35.8535 25.7292 35.9079C25.9582 35.9623 26.1899 36.0046 26.4233 36.0345C26.528 36.0461 26.6253 36.0649 26.7258 36.0796H26.752C26.9258 36.0796 27.0974 36.1235 27.2754 36.1099C27.3801 36.1015 27.4847 36.1361 27.5947 36.1329C27.804 36.1277 28.0134 36.1183 28.2228 36.1015C28.5816 36.0722 28.9378 36.0162 29.2884 35.9341C29.6872 35.8399 30.0776 35.7131 30.4556 35.5551C30.6859 35.4588 30.9089 35.3457 31.1287 35.2285C31.4063 35.0768 31.6751 34.9093 31.9337 34.7271C32.1605 34.5694 32.38 34.4022 32.5922 34.2257C32.8015 34.0519 33.0109 33.875 33.2203 33.7022C33.4174 33.5378 33.667 33.4494 33.9237 33.4531C34.1078 33.4551 34.2865 33.516 34.4335 33.6269C34.6135 33.7595 34.761 33.9313 34.8648 34.1293C34.928 34.2505 34.9575 34.3865 34.9501 34.5229C34.9428 34.6594 34.8988 34.7914 34.8229 34.905C34.7381 35.0412 34.638 35.1673 34.5246 35.2808C34.3958 35.4169 34.2629 35.5488 34.1268 35.6786C34.0368 35.7645 33.9384 35.8419 33.8431 35.9225C33.7238 36.0272 33.6044 36.1235 33.483 36.2198C33.1868 36.4482 32.8767 36.6579 32.5545 36.8479C32.2975 37.0007 32.033 37.1405 31.762 37.2667C31.5412 37.3713 31.313 37.4614 31.0837 37.5493C30.6631 37.7087 30.2323 37.8395 29.794 37.9408C29.4957 38.012 29.1942 38.0685 28.8917 38.1156C28.743 38.1386 28.5954 38.1774 28.4468 38.2036C28.2558 38.2514 28.0604 38.2798 27.8637 38.2883Z" fill="#A6C7E3"/>
</svg>
