<svg width="23" height="24" viewBox="0 0 23 24" fill="none" xmlns="http://www.w3.org/2000/svg">
<path d="M17.1825 10.9395C17.061 10.671 16.794 10.5 16.5 10.5H13.5V0.75C13.5 0.336 13.164 0 12.75 0H9.74997C9.33597 0 8.99997 0.336 8.99997 0.75V10.5H5.99997C5.70597 10.5 5.43897 10.6725 5.31747 10.9395C5.19447 11.208 5.24247 11.5215 5.43597 11.7435L10.686 17.7435C10.8285 17.907 11.034 18 11.25 18C11.466 18 11.6715 17.9055 11.814 17.7435L17.064 11.7435C17.259 11.523 17.304 11.208 17.1825 10.9395Z" fill="white"/>
<path d="M19.5 16.5V21H3V16.5H0V22.5C0 23.3295 0.672 24 1.5 24H21C21.8295 24 22.5 23.3295 22.5 22.5V16.5H19.5Z" fill="white"/>
</svg>
