<svg width="37" height="30" viewBox="0 0 37 30" fill="none" xmlns="http://www.w3.org/2000/svg">
<g opacity="0.25">
<path d="M7.91448 15.4323C6.88359 16.0033 5.65183 15.8024 4.57341 16.4526C4.46239 14.8032 4.50468 13.2966 4.80601 11.8111C4.93816 11.1767 4.82714 10.6956 4.50468 10.1458C2.91871 7.44443 2.30548 4.64257 3.82272 1.67682C4.26148 1.71911 4.02888 2.01516 4.02888 2.22133C4.02888 3.2945 4.19275 4.34124 4.59454 5.36153C4.86414 5.13421 4.68971 4.88573 4.6527 4.66898C4.55753 4.13505 4.52052 3.6064 4.56281 3.06719C4.6051 2.50152 4.54696 1.77726 4.92759 1.45479C5.33466 1.11116 5.8263 1.74554 6.28622 1.92529C8.13651 2.66011 9.97622 2.3535 11.8159 1.91471C14.5808 1.26447 17.3245 0.466208 20.2003 0.312899C21.2841 0.254747 22.3414 0.360477 23.367 0.693529C25.138 1.26447 26.301 2.45923 26.8244 4.24078C26.9354 4.61613 27.057 4.82231 27.4693 4.94918C30.9003 6.01176 32.4703 8.56514 32.9515 11.9432C33.131 13.1856 33.1258 14.4279 32.9936 15.6861C32.9301 16.3258 32.7665 16.4896 32.2059 16.1672C31.91 15.998 31.4817 16.0297 31.3391 15.6174C31.0905 15.2473 31.1329 14.8191 31.1064 14.4068C30.9901 12.567 30.2182 11.0339 28.9602 9.71761C28.516 9.25241 28.1935 9.22068 27.7389 9.75462C25.8675 11.9538 23.6524 13.6614 20.7977 14.3962C19.1748 14.8138 17.5359 15.0993 15.8548 14.872C15.4689 14.8191 14.8239 14.8984 14.7922 14.4596C14.7552 13.9997 15.4002 14.005 15.7808 13.9098C17.1764 13.5609 18.5139 13.0693 19.7721 12.382C20.1845 12.1547 20.581 11.9115 21.0039 11.441C18.2496 11.1926 15.6539 10.6005 13.0107 10.8701C10.9172 11.0815 9.45814 12.2763 8.55415 14.1636C8.35327 14.5918 8.19993 15.0464 7.91448 15.4323Z" fill="#1F304F"/>
<path d="M15.2575 17.7425C17.6893 18.6359 20.1052 18.2923 22.5423 17.7213C26.9618 16.6904 31.3498 17.0975 35.7111 18.1231C36.2396 18.25 36.4564 18.5619 36.4405 19.0799C36.4247 19.524 36.3825 19.9734 36.3825 20.4174C36.3825 20.7822 36.3453 21.0571 35.8644 21.0148C35.436 20.9778 35.4308 21.3267 35.3887 21.6175C35.251 22.6166 35.1982 23.6316 34.934 24.6149C34.1832 27.3798 32.0209 29.1771 29.1767 29.4204C27.8658 29.5313 26.5653 29.5526 25.2543 29.3993C23.9168 29.2406 22.8119 28.6962 21.9713 27.6335C20.8823 26.2538 20.1264 24.7259 19.9889 22.9444C19.9043 21.8342 19.5818 21.48 18.625 21.4959C17.6311 21.5117 17.2875 21.8977 17.2188 23.0396C17.1025 24.985 16.3148 26.5921 14.9984 28.051C12.6565 30.6415 4.20865 30.224 2.58567 25.4132C2.18918 24.2079 1.946 22.992 1.99887 21.7285C2.00944 21.3954 2.05174 21.0148 1.56009 21.0413C0.909846 21.073 0.87284 20.6818 0.862267 20.1901C0.830548 18.361 0.973284 18.1548 2.84471 17.8112C6.91534 17.0605 10.9965 16.8755 15.083 17.7266C15.1465 17.6631 15.2046 17.6737 15.2575 17.7425Z" fill="#1F304F"/>
<path d="M25.027 2.61772C22.1722 1.1375 19.4338 1.60271 16.7113 2.50671C14.9297 3.10409 13.1429 3.62746 11.2292 3.32084C10.4097 3.18867 9.64846 2.91905 8.81848 2.16837C12.5455 2.92434 15.6328 1.22737 18.8999 0.55598C20.2215 0.286368 21.5484 0.185924 22.8595 0.635277C23.8163 0.957755 24.5512 1.53399 25.027 2.61772Z" fill="#FDFEFD"/>
<path d="M9.67483 18.9796C11.5198 18.969 13.1269 19.228 14.697 19.725C15.6327 20.021 16.2037 20.6501 16.1297 21.5277C15.9605 23.5101 15.5112 25.3974 13.9727 26.8406C12.2229 28.4847 8.61751 28.7912 6.25972 27.4697C3.96009 26.1851 2.88693 23.7163 3.43144 21.0995C3.58475 20.354 4.01826 19.9576 4.68962 19.762C6.38661 19.2756 8.10473 18.9426 9.67483 18.9796Z" fill="white"/>
<path d="M33.295 24.2238C33.4166 25.5772 32.6713 26.5076 31.6881 27.2318C30.1337 28.3738 28.3258 28.1094 26.5389 28.0407C23.8639 27.9403 22.3414 26.5076 21.6277 24.0546C21.3158 22.9762 21.4691 21.8713 21.5537 20.7823C21.5855 20.3541 21.8498 19.984 22.278 19.8413C24.5882 19.0959 26.9407 18.7523 29.3618 19.2069C29.8641 20.2853 29.5944 21.4272 29.6262 22.5374C29.6686 24.1498 29.6369 24.1392 31.2704 24.1181C31.9522 24.1128 32.6395 23.8802 33.295 24.2238Z" fill="white"/>
<path d="M33.2951 24.2238C32.1745 24.2555 31.0485 24.2661 29.9276 24.3189C29.415 24.3401 29.3515 24.0758 29.3567 23.6581C29.3725 22.1726 29.3673 20.6924 29.3725 19.2069C30.7523 20.8193 32.1745 22.4052 33.2951 24.2238Z" fill="#E5E5E5"/>
<path d="M9.20972 23.8484C7.96211 23.8484 6.70919 23.8537 5.46158 23.8431C5.2237 23.8431 4.91177 23.9541 4.90121 23.4942C4.89593 23.0554 5.13381 23.0237 5.46158 23.0237C7.96211 23.029 10.4626 23.0343 12.9631 23.0237C13.3121 23.0237 13.5182 23.0766 13.5129 23.4995C13.5077 23.9647 13.1957 23.8378 12.9579 23.8431C11.705 23.8484 10.4573 23.8484 9.20972 23.8484Z" fill="#1F304F"/>
<path d="M9.26789 26.1692C8.22647 26.1692 7.18502 26.1692 6.14357 26.1692C5.87924 26.1692 5.60435 26.2221 5.61492 25.7886C5.62548 25.4186 5.79467 25.3445 6.11713 25.3445C8.23175 25.3498 10.3411 25.3498 12.4557 25.3445C12.7464 25.3445 12.9632 25.3657 12.979 25.7622C13.0002 26.2644 12.6724 26.164 12.3922 26.1692C11.3508 26.1745 10.3093 26.1692 9.26789 26.1692Z" fill="#1F304F"/>
<path d="M9.27312 21.4961C8.44311 21.4961 7.60785 21.4908 6.77787 21.5013C6.47126 21.5066 6.27563 21.4538 6.27563 21.0732C6.27563 20.6925 6.46597 20.6396 6.77787 20.6396C8.533 20.6449 10.2881 20.6449 12.0379 20.6396C12.3129 20.6396 12.4926 20.6925 12.5032 21.0203C12.5085 21.3533 12.4027 21.5066 12.0433 21.5013C11.1128 21.4855 10.193 21.4961 9.27312 21.4961Z" fill="#1F304F"/>
<path d="M23.9644 26.3649C23.6683 25.8204 23.8851 25.6248 24.4454 25.6248C26.5442 25.6301 28.643 25.6407 30.747 25.6195C31.3867 25.6142 31.3284 25.9261 31.1751 26.3438C29.0922 26.5341 27.0041 26.4019 24.9212 26.4072C24.6093 26.4072 24.2763 26.4971 23.9644 26.3649Z" fill="#1F304F"/>
<path d="M25.4922 23.029C26.116 23.029 26.7398 23.0396 27.3636 23.0237C27.7231 23.0132 27.8129 23.1823 27.8129 23.5101C27.8182 23.859 27.6332 23.8907 27.3636 23.8855C26.0843 23.8802 24.8102 23.8749 23.5309 23.8802C23.2665 23.8802 23.0762 23.859 23.0762 23.5048C23.0762 23.1771 23.1661 23.0132 23.5256 23.0237C24.1864 23.0396 24.8419 23.029 25.4922 23.029Z" fill="#1F304F"/>
<path d="M25.0428 20.5232C25.5768 20.5232 26.1107 20.5338 26.6394 20.5179C26.9883 20.5074 27.0993 20.6501 27.0993 20.9884C27.094 21.3109 26.9565 21.3796 26.6658 21.3744C25.5715 21.3638 24.4719 21.3532 23.3776 21.3744C23.0181 21.3796 22.9282 21.2527 22.9282 20.9144C22.9282 20.5867 23.0657 20.5127 23.3511 20.5179C23.9168 20.5338 24.4824 20.5285 25.0428 20.5232Z" fill="#1F304F"/>
<path d="M23.9644 26.3648C24.5089 26.0952 25.0587 26.3489 25.6085 26.3437C27.464 26.3225 29.3196 26.3384 31.1751 26.3437C31.133 26.4811 31.027 26.497 30.9003 26.497C28.6906 26.497 26.4807 26.497 24.271 26.4864C24.1705 26.4917 24.0701 26.4124 23.9644 26.3648Z" fill="#1F304F"/>
</g>
</svg>
