<svg width="18" height="18" viewBox="0 0 18 18" fill="none" xmlns="http://www.w3.org/2000/svg">
<path opacity="0.25" d="M7.20006 1.8506C4.86031 4.19035 4.76729 7.90559 6.86488 10.3893L6.00904 11.2451C5.42499 10.9587 4.70787 11.0202 4.19438 11.4685L0.701473 14.504C-0.181546 15.2514 -0.240889 16.5987 0.580184 17.4198C1.40604 18.2457 2.75407 18.1744 3.49119 17.3047L6.53111 13.806C6.97967 13.2922 7.04126 12.575 6.75488 11.9909L7.61065 11.1351C10.0944 13.2327 13.8096 13.1397 16.1494 10.8C18.6169 8.33249 18.6169 4.31811 16.1494 1.85064C13.6819 -0.616837 9.66754 -0.616908 7.20006 1.8506ZM14.6578 9.30832C13.0129 10.9532 10.3365 10.9532 8.69157 9.30832C7.04671 7.66347 7.04671 4.98695 8.69157 3.3421C10.3365 1.69725 13.0129 1.69725 14.6578 3.3421C16.3026 4.98695 16.3027 7.66347 14.6578 9.30832Z" fill="#212529"/>
</svg>
