<svg width="17" height="17" viewBox="0 0 17 17" fill="none" xmlns="http://www.w3.org/2000/svg">
<g opacity="0.25">
<path d="M10.0411 8.5L16.6805 1.86049C17.1064 1.43473 17.1066 0.745328 16.6806 0.319464C16.2547 -0.106433 15.5654 -0.106532 15.1395 0.319431L8.5 6.95894L1.86049 0.319464C1.43473 -0.1064 0.745299 -0.106532 0.319435 0.319398C-0.106462 0.745262 -0.106495 1.43456 0.319435 1.86046L6.95887 8.5L0.319402 15.1395C-0.105499 15.5644 -0.105499 16.2557 0.319402 16.6805C0.745233 17.1064 1.4346 17.1065 1.86046 16.6805L8.49993 10.041L15.1394 16.6805C15.5652 17.1064 16.2546 17.1064 16.6804 16.6805C17.1063 16.2547 17.1064 15.5653 16.6805 15.1394L10.0411 8.5Z" fill="#212529"/>
<path d="M10.0411 8.5L16.6805 1.86049C17.1064 1.43473 17.1066 0.745328 16.6806 0.319464C16.2547 -0.106433 15.5654 -0.106532 15.1395 0.319431L8.5 6.9589V10.0411L15.1395 16.6806C15.5652 17.1065 16.2547 17.1065 16.6805 16.6806C17.1064 16.2548 17.1065 15.5654 16.6805 15.1395L10.0411 8.5Z" fill="#212529"/>
</g>
</svg>
