<svg width="306" height="84" viewBox="0 0 306 84" fill="none" xmlns="http://www.w3.org/2000/svg">
<path d="M134.016 29.1785C137.156 29.1785 139.818 29.8155 142.002 31.0896C144.186 32.3637 145.71 34.252 146.575 36.7547C147.485 39.2118 147.576 42.2377 146.848 45.8324L142.821 66.0355H134.289L138.248 46.0372C138.839 43.0795 138.567 40.7817 137.429 39.1436C136.291 37.46 134.221 36.6181 131.218 36.6181C128.078 36.6181 125.484 37.4827 123.437 39.2118C121.389 40.9409 120.001 43.58 119.274 47.1293L115.451 66.0355H106.92L114.154 29.588H122.277L120.229 39.9626L118.864 36.6864C120.593 34.0928 122.754 32.2044 125.348 31.0213C127.987 29.7928 130.877 29.1785 134.016 29.1785ZM170.092 66.5131C167.134 66.5131 164.426 65.8763 161.969 64.6022C159.558 63.3281 157.624 61.5083 156.168 59.1417C154.757 56.7302 154.052 53.841 154.052 50.4737C154.052 47.3795 154.552 44.5356 155.554 41.9419C156.6 39.3483 158.056 37.0959 159.922 35.1848C161.788 33.2737 163.949 31.7949 166.406 30.7483C168.909 29.7018 171.639 29.1785 174.596 29.1785C177.645 29.1785 180.262 29.7245 182.445 30.8166C184.675 31.9086 186.359 33.5695 187.496 35.7991C188.634 37.9832 189.157 40.7134 189.066 43.9895C188.975 48.4943 188.156 52.4532 186.609 55.8656C185.062 59.2329 182.901 61.8492 180.125 63.7151C177.349 65.5805 174.005 66.5131 170.092 66.5131ZM172.276 59.2103C174.733 59.2103 176.894 58.6416 178.76 57.5036C180.626 56.3206 182.105 54.7056 183.196 52.658C184.288 50.6102 184.835 48.244 184.835 45.5594C184.835 42.7383 183.992 40.5086 182.309 38.8705C180.626 37.2324 178.259 36.4134 175.211 36.4134C172.799 36.4134 170.638 37.0049 168.726 38.188C166.861 39.3255 165.382 40.9181 164.29 42.9657C163.198 45.0134 162.652 47.3795 162.652 50.0642C162.652 52.8853 163.494 55.1151 165.177 56.7532C166.861 58.3913 169.227 59.2103 172.276 59.2103ZM181.217 66.0355L182.855 57.7084L185.176 48.0165L186.336 38.2562L188.043 29.588H196.574L189.339 66.0355H181.217ZM216.883 66.5131C213.925 66.5131 211.218 65.8763 208.761 64.6022C206.349 63.3281 204.415 61.5083 202.959 59.1417C201.549 56.7302 200.843 53.841 200.843 50.4737C200.843 47.3795 201.344 44.5356 202.345 41.9419C203.392 39.3483 204.847 37.0959 206.713 35.1848C208.579 33.2737 210.74 31.7949 213.197 30.7483C215.7 29.7018 218.43 29.1785 221.387 29.1785C224.436 29.1785 227.053 29.7245 229.237 30.8166C231.466 31.9086 233.15 33.5695 234.287 35.7991C235.425 37.9832 235.949 40.7134 235.857 43.9895C235.766 48.4943 234.947 52.4532 233.4 55.8656C231.853 59.2329 229.692 61.8492 226.916 63.7151C224.141 65.5805 220.796 66.5131 216.883 66.5131ZM219.067 59.2103C221.524 59.2103 223.685 58.6416 225.551 57.5036C227.417 56.3206 228.896 54.7056 229.987 52.658C231.079 50.6102 231.626 48.244 231.626 45.5594C231.626 42.7383 230.784 40.5086 229.1 38.8705C227.417 37.2324 225.051 36.4134 222.002 36.4134C219.59 36.4134 217.429 37.0049 215.518 38.188C213.652 39.3255 212.173 40.9181 211.081 42.9657C209.989 45.0134 209.443 47.3795 209.443 50.0642C209.443 52.8853 210.285 55.1151 211.968 56.7532C213.652 58.3913 216.018 59.2103 219.067 59.2103ZM228.008 66.0355L229.647 57.7084L231.967 48.0165L233.127 38.2562L234.834 29.588H243.365L236.13 66.0355H228.008ZM257.053 66.0355L248.658 29.588H257.053L264.288 61.7355H259.988L280.123 29.588H288.723L265.858 66.0355H257.053ZM286.752 66.0355L293.987 29.588H302.519L295.284 66.0355H286.752ZM300.198 23.5817C298.651 23.5817 297.4 23.1267 296.444 22.2166C295.534 21.261 295.079 20.1235 295.079 18.8039C295.079 17.2568 295.603 15.96 296.649 14.9134C297.741 13.8669 299.152 13.3436 300.881 13.3436C302.382 13.3436 303.611 13.7987 304.567 14.7087C305.522 15.5732 306 16.6425 306 17.9166C306 19.6002 305.477 20.9653 304.43 22.0118C303.384 23.0584 301.973 23.5817 300.198 23.5817Z" fill="#100F0D"/>
<path fill-rule="evenodd" clip-rule="evenodd" d="M23.0539 21.9954C25.9883 18.9771 29.0796 18.9592 31.2169 20.086C36.47 22.8542 37.4974 31.3579 38.0084 37.4412C38.4164 42.3008 39.0515 46.5524 39.85 51.3061C40.7205 56.4887 41.658 65.9266 43.1028 70.2773C44.0086 73.0088 45.7007 74.5588 47.7757 75.5315C54.6472 78.757 70.27 81.1972 74.2454 72.6643C71.3101 75.684 68.2193 75.7009 66.0816 74.5742C60.8284 71.8068 59.8005 63.3026 59.2896 57.2191C58.8816 52.3596 58.2469 48.1081 57.4483 43.3532C56.5781 38.1707 55.6398 28.7339 54.1962 24.3821C53.2901 21.6512 51.5978 20.1018 49.5218 19.1278C42.6517 15.9031 27.0284 13.4627 23.0539 21.9954Z" fill="url(#paint0_linear_1_19)"/>
<path fill-rule="evenodd" clip-rule="evenodd" d="M12.0735 72.0858L10.9757 74.2941C10.4972 75.2575 10.9032 76.4175 11.8614 76.9053H11.862C12.8207 77.3932 14.0105 76.977 14.489 76.0136L15.5868 73.8053C16.0653 72.8419 15.6597 71.6819 14.7011 71.194L14.7005 71.193C13.7413 70.7067 12.5525 71.1214 12.0735 72.0858ZM5.11398 76.3438L3.13688 80.3203C2.65811 81.2837 3.06429 82.4452 4.02258 82.9325H4.02318C4.98177 83.4188 6.1711 83.0042 6.64958 82.0408L8.6267 78.0633C9.10528 77.1009 8.69985 75.9399 7.74095 75.4531L7.74054 75.4521C6.7818 74.9647 5.59244 75.3799 5.11398 76.3438ZM2.87543 67.6977L0.201335 73.0779C-0.27714 74.0413 0.128445 75.2017 1.08719 75.6901H1.08778C2.04637 76.1764 3.23571 75.7623 3.71418 74.7984L6.38902 69.4183C6.86693 68.4548 6.46191 67.2938 5.50301 66.8065H5.5023C4.54339 66.3197 3.35465 66.7343 2.87543 67.6977ZM37.8307 35.5013C33.9276 43.3933 28.6682 53.7535 24.8644 61.4663C24.8333 61.6496 24.7759 61.8303 24.6895 62.0038L20.0995 71.2386C19.6211 72.202 18.4311 72.6176 17.4725 72.1303C16.5139 71.6415 16.1078 70.4815 16.5868 69.5181C18.5603 65.5477 20.3533 61.7658 22.3036 57.8421C22.7821 56.8797 22.3765 55.7187 21.4179 55.2308H21.4173C20.4587 54.7435 19.2694 55.1587 18.7908 56.1226C16.6213 60.4871 14.4562 64.8551 12.2865 69.2196C11.808 70.1835 10.6183 70.5987 9.66008 70.1114H9.6589C8.70093 69.6235 8.29535 68.4625 8.77382 67.5001C10.6098 63.8052 12.4077 60.1507 14.2415 56.462C14.72 55.4986 14.314 54.3396 13.3554 53.8508H13.3548C12.3965 53.3629 11.2068 53.7786 10.7283 54.742C9.21053 57.7955 7.68403 60.7082 6.18006 63.7341C5.70143 64.6975 4.61687 64.784 3.55364 64.6253H3.5529C2.48967 64.4656 2.18872 62.9765 2.6672 62.0131L3.75279 59.8283L3.6951 59.8195C9.35376 48.1736 11.2914 44.1356 17.2161 32.6215C18.8045 29.5345 20.575 25.6404 22.483 22.8388C22.7537 22.4417 23.0339 22.0725 23.3209 21.7298C26.1745 18.977 29.1442 18.9933 31.217 20.0859C35.9307 22.5702 37.2424 29.673 37.8307 35.5013Z" fill="url(#paint1_linear_1_19)"/>
<path fill-rule="evenodd" clip-rule="evenodd" d="M69.4965 64.9662L66.8218 70.3473C66.3427 71.3097 66.7492 72.4707 67.7085 72.9575C68.6662 73.4458 69.8564 73.0291 70.3355 72.0668L73.0092 66.6856C73.4884 65.7233 73.0819 64.5617 72.1236 64.0744H72.1226C71.1643 63.5871 69.9747 64.0027 69.4965 64.9662ZM62.8536 56.5812L61.7566 58.7895C61.2769 59.7534 61.6834 60.9134 62.6411 61.4007H62.6422C63.6004 61.8886 64.7901 61.4729 65.2682 60.5095L66.3663 58.3012C66.8454 57.3388 66.4395 56.1773 65.4812 55.6899H65.4801C64.5219 55.2021 63.3322 55.6167 62.8536 56.5812ZM78.6407 20.4846L67.1351 18.7617L110.654 0C100.037 21.7484 90.4523 42.8328 78.6038 63.9951C78.1457 64.8141 76.8239 65.2835 75.8508 64.7542C75.1669 64.3841 74.4656 63.4432 75.1695 62.1148L81.1956 50.7393C81.989 49.2437 81.4592 48.1789 80.6765 47.707C79.7894 47.1732 78.5296 47.4226 77.6583 49.0671L71.4356 60.8126C69.5508 64.3698 66.3345 62.3017 67.8933 59.1852C70.1723 54.6308 72.5721 50.0327 74.9959 45.4587C76.6806 42.2762 73.1746 40.5461 71.4587 43.7854L67.1669 51.886C66.6826 52.7997 65.6399 53.3976 64.8305 53.2963C63.7269 53.157 62.958 51.9249 63.7269 50.3751C68.6821 40.4052 73.6793 30.4556 78.6407 20.4846Z" fill="url(#paint2_linear_1_19)"/>
<defs>
<linearGradient id="paint0_linear_1_19" x1="26.435" y1="8.87605" x2="73.3905" y2="90.1576" gradientUnits="userSpaceOnUse">
<stop stop-color="#8ED8C6"/>
<stop offset="0.175355" stop-color="#47B4D5"/>
<stop offset="0.683681" stop-color="#356CBE"/>
<stop offset="1" stop-color="#29449D"/>
</linearGradient>
<linearGradient id="paint1_linear_1_19" x1="-9.84575" y1="104.705" x2="41.7823" y2="8.79024" gradientUnits="userSpaceOnUse">
<stop stop-color="#8ED8C6"/>
<stop offset="0.322581" stop-color="#47B4D5"/>
<stop offset="0.698925" stop-color="#356CBE"/>
<stop offset="1" stop-color="#29449D"/>
</linearGradient>
<linearGradient id="paint2_linear_1_19" x1="53.9521" y1="76.0033" x2="101.493" y2="-10.9498" gradientUnits="userSpaceOnUse">
<stop stop-color="#8ED8C6"/>
<stop offset="0.322581" stop-color="#47B4D5"/>
<stop offset="0.698925" stop-color="#356CBE"/>
<stop offset="1" stop-color="#29449D"/>
</linearGradient>
</defs>
</svg>
