<svg width="32" height="35" viewBox="0 0 32 35" fill="none" xmlns="http://www.w3.org/2000/svg">
<path d="M21.353 34.852H10.996C10.4964 34.7086 10.1934 34.2026 10.0866 33.3335C9.75973 32.0022 4.62521 33.0524 3.51419 31.9318C3.33037 31.737 3.26985 31.4156 3.334 30.968C3.51463 29.6987 3.84269 28.5521 2.83218 27.8738C2.1584 27.4842 2.47928 26.5337 3.39156 26.2495C3.05859 26.1875 2.79282 26.1069 2.59435 26.0055C2.22335 25.6713 2.23247 25.0962 2.46963 24.3135C2.65943 23.985 2.7296 23.1743 2.51187 22.9224C2.19355 22.551 1.39085 22.3017 0.680943 21.9134C-0.147524 21.3184 -0.219687 20.7008 0.462593 20.0642C2.03399 18.9516 3.1358 18.3535 3.63324 16.8146C3.44539 15.6055 3.39714 14.3681 3.5095 13.1405C3.50613 13.0063 3.50888 12.8854 3.51968 12.7823C4.28612 5.45079 10.4775 -7.62939e-06 17.6891 -7.62939e-06C18.1849 -7.62939e-06 18.6856 0.0256691 19.1895 0.0783501C25.8414 0.773426 30.9442 5.93513 31.8332 12.2727C32.4703 16.3737 31.2346 20.6809 28.9444 23.7778C28.4751 24.4339 28.0692 25.0369 27.7176 25.6031C26.714 23.0411 25.5992 20.6096 24.3764 18.3225C24.3166 18.2101 24.2073 18.1242 24.0957 18.0799C24.1249 17.9785 24.113 17.8665 24.0497 17.7643C23.8721 17.4774 23.692 17.1834 23.5149 16.8961C23.4139 16.7318 23.2275 16.6357 23.05 16.6357C22.9916 16.6357 22.9336 16.6459 22.8804 16.6681C22.725 16.7323 22.571 16.8 22.42 16.8766C22.3602 16.7787 22.2518 16.7208 22.1451 16.7208C22.1035 16.7208 22.0618 16.7296 22.0238 16.7486C21.9941 16.7633 21.9627 16.7779 21.933 16.7965C21.2787 15.6635 20.6677 14.4819 20.2316 13.3485C19.8013 12.2289 19.5782 11.146 19.7933 10.276C18.7352 9.63896 17.6678 9.04305 16.5982 8.50426C15.5591 7.9814 14.5099 7.51035 13.4844 7.05257C14.4629 8.38827 15.4524 9.73724 16.4463 11.0929C15.4524 9.73724 14.4629 8.38827 13.4844 7.05257C13.9848 7.84947 14.3855 8.63486 14.8021 9.42556C14.2673 8.69817 13.7353 7.97565 13.2069 7.25622C13.3242 8.38384 13.4484 9.51765 13.5777 10.6581C13.7069 11.7981 13.8414 12.9372 13.9308 14.017C14.9296 14.2189 15.8783 14.8015 16.7602 15.6002C17.647 16.4033 18.4382 17.4486 19.1456 18.5054C18.4382 17.4486 17.647 16.4033 16.7602 15.6002C15.8783 14.8015 14.9296 14.2189 13.9308 14.017C13.8414 12.9372 13.7069 11.7981 13.5777 10.6581C13.4484 9.51765 13.3242 8.38384 13.2069 7.25622C13.2837 9.62169 13.0864 11.9274 13.1137 14.2924C14.0955 14.5647 15.0009 14.9034 15.8234 15.7627C16.6509 16.6269 17.3659 17.7257 17.9963 18.8299C17.9671 18.8542 17.9348 18.8684 17.9047 18.887C17.7714 18.9689 17.7249 19.146 17.7989 19.2881C17.6492 19.3771 17.4996 19.4639 17.3508 19.5542C17.1423 19.6808 17.0697 19.961 17.1799 20.1674C17.3384 20.4649 17.4903 20.7491 17.6426 21.0329C17.7032 21.1458 17.7953 21.2108 17.9016 21.2392C17.8436 21.4415 17.925 21.5659 18.0131 21.7284C18.6374 22.8786 25.4372 34.852 21.353 34.852ZM16.6389 12.3559C16.4393 12.3559 16.2471 12.2643 16.1285 12.0894C15.9602 11.8415 15.985 11.5174 16.1648 11.281C16.1546 11.2668 16.1444 11.2531 16.1342 11.239C16.31 11.2784 16.4703 11.389 16.5632 11.5511C16.7164 11.8172 16.6589 12.1293 16.4517 12.3281C16.5119 12.3466 16.5752 12.3559 16.6389 12.3559C16.7687 12.3559 16.9015 12.3174 17.0192 12.2373C16.9015 12.3174 16.7687 12.3559 16.6389 12.3559ZM17.3092 11.7025C17.3097 11.5812 17.2738 11.4581 17.199 11.3465C17.0759 11.1641 16.8652 11.0592 16.6527 11.0588C16.8652 11.0592 17.0759 11.1641 17.199 11.3465C17.2738 11.4581 17.3097 11.5812 17.3092 11.7025ZM16.055 11.1314C15.8013 10.7852 15.5481 10.4403 15.2953 10.0963C15.5481 10.4403 15.8013 10.7852 16.055 11.1314ZM16.6509 11.0588H16.6513H16.6509Z" fill="#CE6D79"/>
</svg>
