<svg width="499" height="69" viewBox="0 0 499 69" fill="none" xmlns="http://www.w3.org/2000/svg">
<path d="M115.069 58.2916L111.765 68.0916H110.673L107.803 59.7336L104.919 68.0916H103.841L100.537 58.2916H101.601L104.429 66.7196L107.355 58.2916H108.321L111.205 66.7616L114.075 58.2916H115.069ZM122.61 64.7176H116.45C116.506 65.4829 116.8 66.1036 117.332 66.5796C117.864 67.0462 118.536 67.2796 119.348 67.2796C119.805 67.2796 120.225 67.2002 120.608 67.0416C120.99 66.8736 121.322 66.6309 121.602 66.3136L122.162 66.9576C121.835 67.3496 121.424 67.6482 120.93 67.8536C120.444 68.0589 119.908 68.1616 119.32 68.1616C118.564 68.1616 117.892 68.0029 117.304 67.6856C116.725 67.3589 116.272 66.9109 115.946 66.3416C115.619 65.7722 115.456 65.1282 115.456 64.4096C115.456 63.6909 115.61 63.0469 115.918 62.4776C116.235 61.9082 116.664 61.4649 117.206 61.1476C117.756 60.8302 118.372 60.6716 119.054 60.6716C119.735 60.6716 120.346 60.8302 120.888 61.1476C121.429 61.4649 121.854 61.9082 122.162 62.4776C122.47 63.0376 122.624 63.6816 122.624 64.4096L122.61 64.7176ZM119.054 61.5256C118.344 61.5256 117.747 61.7542 117.262 62.2116C116.786 62.6596 116.515 63.2476 116.45 63.9756H121.672C121.606 63.2476 121.331 62.6596 120.846 62.2116C120.37 61.7542 119.772 61.5256 119.054 61.5256ZM136.711 58.2916V68.0916H135.689V63.5696H129.557V68.0916H128.521V58.2916H129.557V62.6596H135.689V58.2916H136.711ZM142.275 60.6716C143.237 60.6716 143.974 60.9142 144.487 61.3996C145.001 61.8756 145.257 62.5849 145.257 63.5276V68.0916H144.305V66.9436C144.081 67.3262 143.75 67.6249 143.311 67.8396C142.882 68.0542 142.369 68.1616 141.771 68.1616C140.95 68.1616 140.297 67.9656 139.811 67.5736C139.326 67.1816 139.083 66.6636 139.083 66.0196C139.083 65.3942 139.307 64.8902 139.755 64.5076C140.213 64.1249 140.936 63.9336 141.925 63.9336H144.263V63.4856C144.263 62.8509 144.086 62.3702 143.731 62.0436C143.377 61.7076 142.859 61.5396 142.177 61.5396C141.711 61.5396 141.263 61.6189 140.833 61.7776C140.404 61.9269 140.035 62.1369 139.727 62.4076L139.279 61.6656C139.653 61.3482 140.101 61.1056 140.623 60.9376C141.146 60.7602 141.697 60.6716 142.275 60.6716ZM141.925 67.3776C142.485 67.3776 142.966 67.2516 143.367 66.9996C143.769 66.7382 144.067 66.3649 144.263 65.8796V64.6756H141.953C140.693 64.6756 140.063 65.1142 140.063 65.9916C140.063 66.4209 140.227 66.7616 140.553 67.0136C140.88 67.2562 141.337 67.3776 141.925 67.3776ZM154.009 60.7276L150.733 68.0916H149.711L146.449 60.7276H147.485L150.243 66.9996L153.029 60.7276H154.009ZM161.615 64.7176H155.455C155.511 65.4829 155.805 66.1036 156.337 66.5796C156.869 67.0462 157.541 67.2796 158.353 67.2796C158.811 67.2796 159.231 67.2002 159.613 67.0416C159.996 66.8736 160.327 66.6309 160.607 66.3136L161.167 66.9576C160.841 67.3496 160.43 67.6482 159.935 67.8536C159.45 68.0589 158.913 68.1616 158.325 68.1616C157.569 68.1616 156.897 68.0029 156.309 67.6856C155.731 67.3589 155.278 66.9109 154.951 66.3416C154.625 65.7722 154.461 65.1282 154.461 64.4096C154.461 63.6909 154.615 63.0469 154.923 62.4776C155.241 61.9082 155.67 61.4649 156.211 61.1476C156.762 60.8302 157.378 60.6716 158.059 60.6716C158.741 60.6716 159.352 60.8302 159.893 61.1476C160.435 61.4649 160.859 61.9082 161.167 62.4776C161.475 63.0376 161.629 63.6816 161.629 64.4096L161.615 64.7176ZM158.059 61.5256C157.35 61.5256 156.753 61.7542 156.267 62.2116C155.791 62.6596 155.521 63.2476 155.455 63.9756H160.677C160.612 63.2476 160.337 62.6596 159.851 62.2116C159.375 61.7542 158.778 61.5256 158.059 61.5256ZM168.577 68.1756C168.017 68.1756 167.499 68.0542 167.023 67.8116C166.547 67.5689 166.159 67.2236 165.861 66.7756L166.477 66.0756C167.018 66.8782 167.723 67.2796 168.591 67.2796C169.804 67.2796 170.411 66.5609 170.411 65.1236V59.1876H166.827V58.2916H171.433V65.0816C171.433 66.1082 171.19 66.8829 170.705 67.4056C170.229 67.9189 169.519 68.1756 168.577 68.1756ZM177.34 68.1616C176.631 68.1616 175.992 68.0029 175.422 67.6856C174.853 67.3589 174.405 66.9109 174.078 66.3416C173.752 65.7722 173.588 65.1282 173.588 64.4096C173.588 63.6909 173.752 63.0469 174.078 62.4776C174.405 61.9082 174.853 61.4649 175.422 61.1476C175.992 60.8302 176.631 60.6716 177.34 60.6716C178.05 60.6716 178.689 60.8302 179.258 61.1476C179.828 61.4649 180.271 61.9082 180.588 62.4776C180.915 63.0469 181.078 63.6909 181.078 64.4096C181.078 65.1282 180.915 65.7722 180.588 66.3416C180.271 66.9109 179.828 67.3589 179.258 67.6856C178.689 68.0029 178.05 68.1616 177.34 68.1616ZM177.34 67.2796C177.863 67.2796 178.33 67.1629 178.74 66.9296C179.16 66.6869 179.487 66.3462 179.72 65.9076C179.954 65.4689 180.07 64.9696 180.07 64.4096C180.07 63.8496 179.954 63.3502 179.72 62.9116C179.487 62.4729 179.16 62.1369 178.74 61.9036C178.33 61.6609 177.863 61.5396 177.34 61.5396C176.818 61.5396 176.346 61.6609 175.926 61.9036C175.516 62.1369 175.189 62.4729 174.946 62.9116C174.713 63.3502 174.596 63.8496 174.596 64.4096C174.596 64.9696 174.713 65.4689 174.946 65.9076C175.189 66.3462 175.516 66.6869 175.926 66.9296C176.346 67.1629 176.818 67.2796 177.34 67.2796ZM183.108 60.7276H184.102V68.0916H183.108V60.7276ZM183.612 59.1176C183.406 59.1176 183.234 59.0476 183.094 58.9076C182.954 58.7676 182.884 58.5996 182.884 58.4036C182.884 58.2169 182.954 58.0536 183.094 57.9136C183.234 57.7736 183.406 57.7036 183.612 57.7036C183.817 57.7036 183.99 57.7736 184.13 57.9136C184.27 58.0442 184.34 58.2029 184.34 58.3896C184.34 58.5949 184.27 58.7676 184.13 58.9076C183.99 59.0476 183.817 59.1176 183.612 59.1176ZM190.619 60.6716C191.543 60.6716 192.276 60.9422 192.817 61.4836C193.368 62.0156 193.643 62.7949 193.643 63.8216V68.0916H192.649V63.9196C192.649 63.1542 192.458 62.5709 192.075 62.1696C191.693 61.7682 191.147 61.5676 190.437 61.5676C189.644 61.5676 189.014 61.8056 188.547 62.2816C188.09 62.7482 187.861 63.3969 187.861 64.2276V68.0916H186.867V60.7276H187.819V62.0856C188.09 61.6376 188.463 61.2922 188.939 61.0496C189.425 60.7976 189.985 60.6716 190.619 60.6716ZM202.781 64.7176H196.621C196.677 65.4829 196.971 66.1036 197.503 66.5796C198.035 67.0462 198.707 67.2796 199.519 67.2796C199.977 67.2796 200.397 67.2002 200.779 67.0416C201.162 66.8736 201.493 66.6309 201.773 66.3136L202.333 66.9576C202.007 67.3496 201.596 67.6482 201.101 67.8536C200.616 68.0589 200.079 68.1616 199.491 68.1616C198.735 68.1616 198.063 68.0029 197.475 67.6856C196.897 67.3589 196.444 66.9109 196.117 66.3416C195.791 65.7722 195.627 65.1282 195.627 64.4096C195.627 63.6909 195.781 63.0469 196.089 62.4776C196.407 61.9082 196.836 61.4649 197.377 61.1476C197.928 60.8302 198.544 60.6716 199.225 60.6716C199.907 60.6716 200.518 60.8302 201.059 61.1476C201.601 61.4649 202.025 61.9082 202.333 62.4776C202.641 63.0376 202.795 63.6816 202.795 64.4096L202.781 64.7176ZM199.225 61.5256C198.516 61.5256 197.919 61.7542 197.433 62.2116C196.957 62.6596 196.687 63.2476 196.621 63.9756H201.843C201.778 63.2476 201.503 62.6596 201.017 62.2116C200.541 61.7542 199.944 61.5256 199.225 61.5256ZM211.539 57.7036V68.0916H210.587V66.6356C210.288 67.1302 209.891 67.5082 209.397 67.7696C208.911 68.0309 208.361 68.1616 207.745 68.1616C207.054 68.1616 206.429 68.0029 205.869 67.6856C205.309 67.3682 204.87 66.9249 204.553 66.3556C204.235 65.7862 204.077 65.1376 204.077 64.4096C204.077 63.6816 204.235 63.0329 204.553 62.4636C204.87 61.8942 205.309 61.4556 205.869 61.1476C206.429 60.8302 207.054 60.6716 207.745 60.6716C208.342 60.6716 208.879 60.7976 209.355 61.0496C209.84 61.2922 210.237 61.6516 210.545 62.1276V57.7036H211.539ZM207.829 67.2796C208.342 67.2796 208.804 67.1629 209.215 66.9296C209.635 66.6869 209.961 66.3462 210.195 65.9076C210.437 65.4689 210.559 64.9696 210.559 64.4096C210.559 63.8496 210.437 63.3502 210.195 62.9116C209.961 62.4729 209.635 62.1369 209.215 61.9036C208.804 61.6609 208.342 61.5396 207.829 61.5396C207.306 61.5396 206.835 61.6609 206.415 61.9036C206.004 62.1369 205.677 62.4729 205.435 62.9116C205.201 63.3502 205.085 63.8496 205.085 64.4096C205.085 64.9696 205.201 65.4689 205.435 65.9076C205.677 66.3462 206.004 66.6869 206.415 66.9296C206.835 67.1629 207.306 67.2796 207.829 67.2796ZM220.085 59.1876H216.641V58.2916H224.565V59.1876H221.121V68.0916H220.085V59.1876ZM229.762 60.6716C230.686 60.6716 231.419 60.9422 231.96 61.4836C232.511 62.0156 232.786 62.7949 232.786 63.8216V68.0916H231.792V63.9196C231.792 63.1542 231.601 62.5709 231.218 62.1696C230.835 61.7682 230.289 61.5676 229.58 61.5676C228.787 61.5676 228.157 61.8056 227.69 62.2816C227.233 62.7482 227.004 63.3969 227.004 64.2276V68.0916H226.01V57.7036H227.004V62.0156C227.275 61.5862 227.648 61.2549 228.124 61.0216C228.6 60.7882 229.146 60.6716 229.762 60.6716ZM241.924 64.7176H235.764C235.82 65.4829 236.114 66.1036 236.646 66.5796C237.178 67.0462 237.85 67.2796 238.662 67.2796C239.119 67.2796 239.539 67.2002 239.922 67.0416C240.305 66.8736 240.636 66.6309 240.916 66.3136L241.476 66.9576C241.149 67.3496 240.739 67.6482 240.244 67.8536C239.759 68.0589 239.222 68.1616 238.634 68.1616C237.878 68.1616 237.206 68.0029 236.618 67.6856C236.039 67.3589 235.587 66.9109 235.26 66.3416C234.933 65.7722 234.77 65.1282 234.77 64.4096C234.77 63.6909 234.924 63.0469 235.232 62.4776C235.549 61.9082 235.979 61.4649 236.52 61.1476C237.071 60.8302 237.687 60.6716 238.368 60.6716C239.049 60.6716 239.661 60.8302 240.202 61.1476C240.743 61.4649 241.168 61.9082 241.476 62.4776C241.784 63.0376 241.938 63.6816 241.938 64.4096L241.924 64.7176ZM238.368 61.5256C237.659 61.5256 237.061 61.7542 236.576 62.2116C236.1 62.6596 235.829 63.2476 235.764 63.9756H240.986C240.921 63.2476 240.645 62.6596 240.16 62.2116C239.684 61.7542 239.087 61.5256 238.368 61.5256ZM247.835 58.2916H248.871V68.0916H247.835V58.2916ZM255.602 60.6716C256.526 60.6716 257.259 60.9422 257.8 61.4836C258.351 62.0156 258.626 62.7949 258.626 63.8216V68.0916H257.632V63.9196C257.632 63.1542 257.441 62.5709 257.058 62.1696C256.675 61.7682 256.129 61.5676 255.42 61.5676C254.627 61.5676 253.997 61.8056 253.53 62.2816C253.073 62.7482 252.844 63.3969 252.844 64.2276V68.0916H251.85V60.7276H252.802V62.0856C253.073 61.6376 253.446 61.2922 253.922 61.0496C254.407 60.7976 254.967 60.6716 255.602 60.6716ZM268.072 57.7036V68.0916H267.12V66.6356C266.821 67.1302 266.424 67.5082 265.93 67.7696C265.444 68.0309 264.894 68.1616 264.278 68.1616C263.587 68.1616 262.962 68.0029 262.402 67.6856C261.842 67.3682 261.403 66.9249 261.086 66.3556C260.768 65.7862 260.61 65.1376 260.61 64.4096C260.61 63.6816 260.768 63.0329 261.086 62.4636C261.403 61.8942 261.842 61.4556 262.402 61.1476C262.962 60.8302 263.587 60.6716 264.278 60.6716C264.875 60.6716 265.412 60.7976 265.888 61.0496C266.373 61.2922 266.77 61.6516 267.078 62.1276V57.7036H268.072ZM264.362 67.2796C264.875 67.2796 265.337 67.1629 265.748 66.9296C266.168 66.6869 266.494 66.3462 266.728 65.9076C266.97 65.4689 267.092 64.9696 267.092 64.4096C267.092 63.8496 266.97 63.3502 266.728 62.9116C266.494 62.4729 266.168 62.1369 265.748 61.9036C265.337 61.6609 264.875 61.5396 264.362 61.5396C263.839 61.5396 263.368 61.6609 262.948 61.9036C262.537 62.1369 262.21 62.4729 261.968 62.9116C261.734 63.3502 261.618 63.8496 261.618 64.4096C261.618 64.9696 261.734 65.4689 261.968 65.9076C262.21 66.3462 262.537 66.6869 262.948 66.9296C263.368 67.1629 263.839 67.2796 264.362 67.2796ZM270.84 60.7276H271.834V68.0916H270.84V60.7276ZM271.344 59.1176C271.139 59.1176 270.966 59.0476 270.826 58.9076C270.686 58.7676 270.616 58.5996 270.616 58.4036C270.616 58.2169 270.686 58.0536 270.826 57.9136C270.966 57.7736 271.139 57.7036 271.344 57.7036C271.549 57.7036 271.722 57.7736 271.862 57.9136C272.002 58.0442 272.072 58.2029 272.072 58.3896C272.072 58.5949 272.002 58.7676 271.862 58.9076C271.722 59.0476 271.549 59.1176 271.344 59.1176ZM277.176 60.6716C278.137 60.6716 278.875 60.9142 279.388 61.3996C279.901 61.8756 280.158 62.5849 280.158 63.5276V68.0916H279.206V66.9436C278.982 67.3262 278.651 67.6249 278.212 67.8396C277.783 68.0542 277.269 68.1616 276.672 68.1616C275.851 68.1616 275.197 67.9656 274.712 67.5736C274.227 67.1816 273.984 66.6636 273.984 66.0196C273.984 65.3942 274.208 64.8902 274.656 64.5076C275.113 64.1249 275.837 63.9336 276.826 63.9336H279.164V63.4856C279.164 62.8509 278.987 62.3702 278.632 62.0436C278.277 61.7076 277.759 61.5396 277.078 61.5396C276.611 61.5396 276.163 61.6189 275.734 61.7776C275.305 61.9269 274.936 62.1369 274.628 62.4076L274.18 61.6656C274.553 61.3482 275.001 61.1056 275.524 60.9376C276.047 60.7602 276.597 60.6716 277.176 60.6716ZM276.826 67.3776C277.386 67.3776 277.867 67.2516 278.268 66.9996C278.669 66.7382 278.968 66.3649 279.164 65.8796V64.6756H276.854C275.594 64.6756 274.964 65.1142 274.964 65.9916C274.964 66.4209 275.127 66.7616 275.454 67.0136C275.781 67.2562 276.238 67.3776 276.826 67.3776ZM286.61 60.6716C287.534 60.6716 288.266 60.9422 288.808 61.4836C289.358 62.0156 289.634 62.7949 289.634 63.8216V68.0916H288.64V63.9196C288.64 63.1542 288.448 62.5709 288.066 62.1696C287.683 61.7682 287.137 61.5676 286.428 61.5676C285.634 61.5676 285.004 61.8056 284.538 62.2816C284.08 62.7482 283.852 63.3969 283.852 64.2276V68.0916H282.858V60.7276H283.81V62.0856C284.08 61.6376 284.454 61.2922 284.93 61.0496C285.415 60.7976 285.975 60.6716 286.61 60.6716ZM302.72 58.2916V68.0916H301.726V60.2516L297.876 66.8456H297.386L293.536 60.2936V68.0916H292.542V58.2916H293.396L297.652 65.5576L301.866 58.2916H302.72ZM308.279 60.6716C309.241 60.6716 309.978 60.9142 310.491 61.3996C311.005 61.8756 311.261 62.5849 311.261 63.5276V68.0916H310.309V66.9436C310.085 67.3262 309.754 67.6249 309.315 67.8396C308.886 68.0542 308.373 68.1616 307.775 68.1616C306.954 68.1616 306.301 67.9656 305.815 67.5736C305.33 67.1816 305.087 66.6636 305.087 66.0196C305.087 65.3942 305.311 64.8902 305.759 64.5076C306.217 64.1249 306.94 63.9336 307.929 63.9336H310.267V63.4856C310.267 62.8509 310.09 62.3702 309.735 62.0436C309.381 61.7076 308.863 61.5396 308.181 61.5396C307.715 61.5396 307.267 61.6189 306.837 61.7776C306.408 61.9269 306.039 62.1369 305.731 62.4076L305.283 61.6656C305.657 61.3482 306.105 61.1056 306.627 60.9376C307.15 60.7602 307.701 60.6716 308.279 60.6716ZM307.929 67.3776C308.489 67.3776 308.97 67.2516 309.371 66.9996C309.773 66.7382 310.071 66.3649 310.267 65.8796V64.6756H307.957C306.697 64.6756 306.067 65.1142 306.067 65.9916C306.067 66.4209 306.231 66.7616 306.557 67.0136C306.884 67.2562 307.341 67.3776 307.929 67.3776ZM314.913 62.1696C315.147 61.6749 315.492 61.3016 315.949 61.0496C316.416 60.7976 316.99 60.6716 317.671 60.6716V61.6376L317.433 61.6236C316.659 61.6236 316.052 61.8616 315.613 62.3376C315.175 62.8136 314.955 63.4809 314.955 64.3396V68.0916H313.961V60.7276H314.913V62.1696ZM322.201 64.3956L320.465 65.9916V68.0916H319.471V57.7036H320.465V64.7456L324.861 60.7276H326.093L322.943 63.7376L326.387 68.0916H325.169L322.201 64.3956ZM333.99 64.7176H327.83C327.886 65.4829 328.18 66.1036 328.712 66.5796C329.244 67.0462 329.916 67.2796 330.728 67.2796C331.186 67.2796 331.606 67.2002 331.988 67.0416C332.371 66.8736 332.702 66.6309 332.982 66.3136L333.542 66.9576C333.216 67.3496 332.805 67.6482 332.31 67.8536C331.825 68.0589 331.288 68.1616 330.7 68.1616C329.944 68.1616 329.272 68.0029 328.684 67.6856C328.106 67.3589 327.653 66.9109 327.326 66.3416C327 65.7722 326.836 65.1282 326.836 64.4096C326.836 63.6909 326.99 63.0469 327.298 62.4776C327.616 61.9082 328.045 61.4649 328.586 61.1476C329.137 60.8302 329.753 60.6716 330.434 60.6716C331.116 60.6716 331.727 60.8302 332.268 61.1476C332.81 61.4649 333.234 61.9082 333.542 62.4776C333.85 63.0376 334.004 63.6816 334.004 64.4096L333.99 64.7176ZM330.434 61.5256C329.725 61.5256 329.128 61.7542 328.642 62.2116C328.166 62.6596 327.896 63.2476 327.83 63.9756H333.052C332.987 63.2476 332.712 62.6596 332.226 62.2116C331.75 61.7542 331.153 61.5256 330.434 61.5256ZM339.906 67.6436C339.719 67.8116 339.486 67.9422 339.206 68.0356C338.935 68.1196 338.65 68.1616 338.352 68.1616C337.661 68.1616 337.129 67.9749 336.756 67.6016C336.382 67.2282 336.196 66.7009 336.196 66.0196V61.5676H334.88V60.7276H336.196V59.1176H337.19V60.7276H339.43V61.5676H337.19V65.9636C337.19 66.4022 337.297 66.7382 337.512 66.9716C337.736 67.1956 338.053 67.3076 338.464 67.3076C338.669 67.3076 338.865 67.2749 339.052 67.2096C339.248 67.1442 339.416 67.0509 339.556 66.9296L339.906 67.6436ZM351.735 65.4736H346.275L345.099 68.0916H344.021L348.501 58.2916H349.523L354.003 68.0916H352.911L351.735 65.4736ZM351.357 64.6336L349.005 59.3696L346.653 64.6336H351.357ZM361.914 60.7276V68.0916H360.962V66.7476C360.7 67.1956 360.341 67.5456 359.884 67.7976C359.426 68.0402 358.904 68.1616 358.316 68.1616C357.354 68.1616 356.594 67.8956 356.034 67.3636C355.483 66.8222 355.208 66.0336 355.208 64.9976V60.7276H356.202V64.8996C356.202 65.6742 356.393 66.2622 356.776 66.6636C357.158 67.0649 357.704 67.2656 358.414 67.2656C359.188 67.2656 359.8 67.0322 360.248 66.5656C360.696 66.0896 360.92 65.4316 360.92 64.5916V60.7276H361.914ZM367.75 68.1616C367.022 68.1616 366.368 68.0029 365.79 67.6856C365.22 67.3682 364.772 66.9249 364.446 66.3556C364.119 65.7769 363.956 65.1282 363.956 64.4096C363.956 63.6909 364.119 63.0469 364.446 62.4776C364.772 61.9082 365.22 61.4649 365.79 61.1476C366.368 60.8302 367.022 60.6716 367.75 60.6716C368.384 60.6716 368.949 60.7976 369.444 61.0496C369.948 61.2922 370.344 61.6516 370.634 62.1276L369.892 62.6316C369.649 62.2676 369.341 61.9969 368.968 61.8196C368.594 61.6329 368.188 61.5396 367.75 61.5396C367.218 61.5396 366.737 61.6609 366.308 61.9036C365.888 62.1369 365.556 62.4729 365.314 62.9116C365.08 63.3502 364.964 63.8496 364.964 64.4096C364.964 64.9789 365.08 65.4829 365.314 65.9216C365.556 66.3509 365.888 66.6869 366.308 66.9296C366.737 67.1629 367.218 67.2796 367.75 67.2796C368.188 67.2796 368.594 67.1909 368.968 67.0136C369.341 66.8362 369.649 66.5656 369.892 66.2016L370.634 66.7056C370.344 67.1816 369.948 67.5456 369.444 67.7976C368.94 68.0402 368.375 68.1616 367.75 68.1616ZM376.546 67.6436C376.36 67.8116 376.126 67.9422 375.846 68.0356C375.576 68.1196 375.291 68.1616 374.992 68.1616C374.302 68.1616 373.77 67.9749 373.396 67.6016C373.023 67.2282 372.836 66.7009 372.836 66.0196V61.5676H371.52V60.7276H372.836V59.1176H373.83V60.7276H376.07V61.5676H373.83V65.9636C373.83 66.4022 373.938 66.7382 374.152 66.9716C374.376 67.1956 374.694 67.3076 375.104 67.3076C375.31 67.3076 375.506 67.2749 375.692 67.2096C375.888 67.1442 376.056 67.0509 376.196 66.9296L376.546 67.6436ZM378.356 60.7276H379.35V68.0916H378.356V60.7276ZM378.86 59.1176C378.654 59.1176 378.482 59.0476 378.342 58.9076C378.202 58.7676 378.132 58.5996 378.132 58.4036C378.132 58.2169 378.202 58.0536 378.342 57.9136C378.482 57.7736 378.654 57.7036 378.86 57.7036C379.065 57.7036 379.238 57.7736 379.378 57.9136C379.518 58.0442 379.588 58.2029 379.588 58.3896C379.588 58.5949 379.518 58.7676 379.378 58.9076C379.238 59.0476 379.065 59.1176 378.86 59.1176ZM385.125 68.1616C384.416 68.1616 383.777 68.0029 383.207 67.6856C382.638 67.3589 382.19 66.9109 381.863 66.3416C381.537 65.7722 381.373 65.1282 381.373 64.4096C381.373 63.6909 381.537 63.0469 381.863 62.4776C382.19 61.9082 382.638 61.4649 383.207 61.1476C383.777 60.8302 384.416 60.6716 385.125 60.6716C385.835 60.6716 386.474 60.8302 387.043 61.1476C387.613 61.4649 388.056 61.9082 388.373 62.4776C388.7 63.0469 388.863 63.6909 388.863 64.4096C388.863 65.1282 388.7 65.7722 388.373 66.3416C388.056 66.9109 387.613 67.3589 387.043 67.6856C386.474 68.0029 385.835 68.1616 385.125 68.1616ZM385.125 67.2796C385.648 67.2796 386.115 67.1629 386.525 66.9296C386.945 66.6869 387.272 66.3462 387.505 65.9076C387.739 65.4689 387.855 64.9696 387.855 64.4096C387.855 63.8496 387.739 63.3502 387.505 62.9116C387.272 62.4729 386.945 62.1369 386.525 61.9036C386.115 61.6609 385.648 61.5396 385.125 61.5396C384.603 61.5396 384.131 61.6609 383.711 61.9036C383.301 62.1369 382.974 62.4729 382.731 62.9116C382.498 63.3502 382.381 63.8496 382.381 64.4096C382.381 64.9696 382.498 65.4689 382.731 65.9076C382.974 66.3462 383.301 66.6869 383.711 66.9296C384.131 67.1629 384.603 67.2796 385.125 67.2796ZM394.645 60.6716C395.569 60.6716 396.302 60.9422 396.843 61.4836C397.394 62.0156 397.669 62.7949 397.669 63.8216V68.0916H396.675V63.9196C396.675 63.1542 396.484 62.5709 396.101 62.1696C395.718 61.7682 395.172 61.5676 394.463 61.5676C393.67 61.5676 393.04 61.8056 392.573 62.2816C392.116 62.7482 391.887 63.3969 391.887 64.2276V68.0916H390.893V60.7276H391.845V62.0856C392.116 61.6376 392.489 61.2922 392.965 61.0496C393.45 60.7976 394.01 60.6716 394.645 60.6716Z" fill="#5F6163"/>
<path d="M194.289 29.3276H183.3L181.258 34.3768H173.758L185.23 8.38795H192.47L203.98 34.3768H196.331L194.289 29.3276ZM192.136 23.907L188.795 15.5906L185.453 23.907H192.136ZM217.512 34.8966C213.65 34.8966 210.643 33.8447 208.49 31.7408C206.361 29.637 205.297 26.6544 205.297 22.7932V8.38795H212.648V22.5705C212.648 26.7287 214.294 28.8078 217.586 28.8078C220.853 28.8078 222.487 26.7287 222.487 22.5705V8.38795H229.726V22.7932C229.726 26.6544 228.65 29.637 226.496 31.7408C224.368 33.8447 221.373 34.8966 217.512 34.8966ZM247.664 34.8966C244.941 34.8966 242.491 34.3273 240.313 33.1888C238.159 32.0255 236.464 30.4166 235.226 28.3623C233.989 26.3079 233.37 23.9813 233.37 21.3824C233.37 18.7835 233.989 16.4569 235.226 14.4025C236.464 12.3482 238.159 10.7517 240.313 9.61314C242.491 8.44982 244.941 7.86817 247.664 7.86817C250.04 7.86817 252.181 8.28894 254.087 9.13049C255.993 9.97203 257.577 11.1848 258.839 12.7689L254.161 17.0014C252.478 14.9718 250.436 13.957 248.035 13.957C246.624 13.957 245.362 14.2664 244.248 14.8852C243.159 15.504 242.305 16.3826 241.686 17.5212C241.092 18.635 240.795 19.9221 240.795 21.3824C240.795 22.8427 241.092 24.1422 241.686 25.2807C242.305 26.3945 243.159 27.2608 244.248 27.8796C245.362 28.4984 246.624 28.8078 248.035 28.8078C250.436 28.8078 252.478 27.793 254.161 25.7634L258.839 29.9959C257.577 31.5799 255.993 32.7928 254.087 33.6343C252.181 34.4758 250.04 34.8966 247.664 34.8966ZM267.431 14.2169H259.449V8.38795H282.727V14.2169H274.782V34.3768H267.431V14.2169ZM285.466 8.38795H292.817V34.3768H285.466V8.38795ZM311.153 34.8966C308.406 34.8966 305.931 34.315 303.728 33.1517C301.55 31.9883 299.829 30.3795 298.567 28.3251C297.329 26.2708 296.711 23.9565 296.711 21.3824C296.711 18.8083 297.329 16.494 298.567 14.4396C299.829 12.3853 301.55 10.7764 303.728 9.61314C305.931 8.44982 308.406 7.86817 311.153 7.86817C313.9 7.86817 316.363 8.44982 318.541 9.61314C320.744 10.7764 322.464 12.3853 323.702 14.4396C324.964 16.494 325.595 18.8083 325.595 21.3824C325.595 23.9565 324.964 26.2708 323.702 28.3251C322.464 30.3795 320.744 31.9883 318.541 33.1517C316.363 34.315 313.9 34.8966 311.153 34.8966ZM311.153 28.8078C312.465 28.8078 313.653 28.4984 314.717 27.8796C315.782 27.2608 316.623 26.3945 317.242 25.2807C317.861 24.1422 318.17 22.8427 318.17 21.3824C318.17 19.9221 317.861 18.635 317.242 17.5212C316.623 16.3826 315.782 15.504 314.717 14.8852C313.653 14.2664 312.465 13.957 311.153 13.957C309.841 13.957 308.653 14.2664 307.589 14.8852C306.525 15.504 305.683 16.3826 305.064 17.5212C304.445 18.635 304.136 19.9221 304.136 21.3824C304.136 22.8427 304.445 24.1422 305.064 25.2807C305.683 26.3945 306.525 27.2608 307.589 27.8796C308.653 28.4984 309.841 28.8078 311.153 28.8078ZM354.172 8.38795V34.3768H348.121L336.648 20.5285V34.3768H329.446V8.38795H335.497L346.97 22.2363V8.38795H354.172ZM368.491 34.8966C366.387 34.8966 364.345 34.6367 362.365 34.117C360.385 33.5972 358.776 32.9041 357.538 32.0378L359.951 26.6173C361.115 27.3846 362.464 28.0034 363.998 28.4737C365.533 28.9439 367.043 29.1791 368.528 29.1791C371.349 29.1791 372.76 28.4737 372.76 27.0628C372.76 26.3203 372.352 25.7758 371.535 25.4292C370.743 25.058 369.456 24.6743 367.674 24.2783C365.718 23.8575 364.085 23.412 362.773 22.9417C361.461 22.4467 360.335 21.667 359.395 20.6027C358.454 19.5384 357.984 18.1028 357.984 16.296C357.984 14.7119 358.417 13.2887 359.283 12.0264C360.149 10.7393 361.437 9.72452 363.144 8.98198C364.877 8.23944 366.993 7.86817 369.493 7.86817C371.201 7.86817 372.884 8.06618 374.542 8.4622C376.201 8.83347 377.661 9.39037 378.923 10.1329L376.659 15.5906C374.183 14.254 371.783 13.5857 369.456 13.5857C367.996 13.5857 366.931 13.8085 366.263 14.254C365.595 14.6748 365.261 15.2317 365.261 15.9247C365.261 16.6178 365.657 17.1375 366.449 17.4841C367.241 17.8306 368.515 18.1895 370.273 18.5607C372.253 18.9815 373.886 19.4394 375.174 19.9344C376.485 20.4047 377.612 21.172 378.552 22.2363C379.517 23.2759 380 24.6991 380 26.5059C380 28.0653 379.567 29.4761 378.701 30.7384C377.834 32.0007 376.535 33.0155 374.802 33.7828C373.07 34.5254 370.966 34.8966 368.491 34.8966Z" fill="#15172A"/>
<path d="M119 10.8514V32.0945C119 37.6157 123.476 42.0916 128.997 42.0916V9.99704V0C123.476 0 119 4.47595 119 9.99704V10.8514Z" fill="#CD1E25"/>
<path d="M167.965 9.99704C167.965 4.47595 163.489 0 157.968 0H148.481H138.484H132.833V9.99704H138.484V42.0916H148.481V9.99704H157.968V42.0916C163.489 42.0916 167.965 37.6157 167.965 32.0945V9.99704V10.4679V9.99704Z" fill="#15172A"/>
</svg>
