<svg width="522" height="109" viewBox="0 0 522 109" fill="none" xmlns="http://www.w3.org/2000/svg">
<path d="M115.449 39.9984H98.5673V27.6707H147.8V39.9984H130.996V82.6349H115.449V39.9984ZM168.953 39.3702C176.02 39.3702 181.411 40.9931 185.128 44.2385C188.845 47.4317 190.703 52.3525 190.703 59.0003V82.6349H176.805V77.1385C174.658 81.274 170.471 83.3416 164.242 83.3416C160.944 83.3416 158.091 82.7659 155.683 81.6142C153.275 80.4627 151.443 78.9184 150.187 76.9815C148.982 74.9924 148.381 72.7414 148.381 70.2287C148.381 66.1981 149.925 63.0834 153.013 60.8848C156.102 58.6341 160.865 57.5084 167.304 57.5084H175.784C175.522 53.0067 172.512 50.7557 166.754 50.7557C164.713 50.7557 162.645 51.0961 160.551 51.7764C158.457 52.4046 156.677 53.2947 155.212 54.4461L150.187 44.317C152.542 42.7466 155.395 41.5427 158.745 40.7051C162.148 39.8153 165.55 39.3702 168.953 39.3702ZM168.403 73.9192C170.131 73.9192 171.649 73.5005 172.957 72.6628C174.266 71.8255 175.208 70.5952 175.784 68.9724V65.2819H169.345C165 65.2819 162.828 66.7217 162.828 69.6005C162.828 70.9093 163.325 71.9562 164.32 72.7414C165.315 73.5266 166.676 73.9192 168.403 73.9192ZM227.131 82.6349L219.514 71.485L211.348 82.6349H195.173L211.348 61.3559L195.644 40.0769H212.447L219.985 50.8342L227.837 40.0769H243.62L227.916 60.8063L244.17 82.6349H227.131Z" fill="#1F304F"/>
<path d="M276.767 83.5774C271.166 83.5774 266.088 82.3735 261.534 79.9654C257.032 77.5052 253.472 74.1289 250.855 69.8363C248.29 65.4916 247.007 60.5973 247.007 55.153C247.007 49.709 248.29 44.8408 250.855 40.5482C253.472 36.2035 257.032 32.8272 261.534 30.4192C266.088 27.9589 271.192 26.7287 276.845 26.7287C281.609 26.7287 285.901 27.5663 289.722 29.2414C293.596 30.9165 296.842 33.3244 299.459 36.4652L291.293 44.0031C287.576 39.7109 282.97 37.5645 277.473 37.5645C274.071 37.5645 271.035 38.3236 268.365 39.8416C265.695 41.3074 263.601 43.375 262.083 46.0447C260.617 48.7143 259.885 51.7506 259.885 55.153C259.885 58.5558 260.617 61.5917 262.083 64.2614C263.601 66.9311 265.695 69.025 268.365 70.543C271.035 72.0088 274.071 72.7416 277.473 72.7416C282.97 72.7416 287.576 70.5694 291.293 66.2244L299.459 73.7623C296.842 76.9556 293.596 79.3897 289.722 81.0647C285.849 82.74 281.53 83.5774 276.767 83.5774ZM332.86 39.763C338.096 39.763 342.311 41.3334 345.502 44.4742C348.75 47.6151 350.37 52.2741 350.37 58.4509V82.6351H338.121V60.3354C338.121 56.9854 337.389 54.4988 335.923 52.8759C334.459 51.2009 332.339 50.3633 329.562 50.3633C326.475 50.3633 324.016 51.3319 322.182 53.2685C320.35 55.153 319.433 57.9797 319.433 61.7487V82.6351H307.185V24.3731H319.433V44.7883C321.057 43.1658 323.02 41.9355 325.322 41.0979C327.628 40.2081 330.14 39.763 332.86 39.763ZM378.515 39.763C385.057 39.763 390.083 41.3334 393.591 44.4742C397.096 47.5629 398.852 52.2478 398.852 58.5294V82.6351H387.388V77.3743C385.083 81.3003 380.792 83.2633 374.511 83.2633C371.263 83.2633 368.436 82.7137 366.03 81.6144C363.675 80.5151 361.869 78.9971 360.612 77.0602C359.356 75.1236 358.728 72.925 358.728 70.4645C358.728 66.5385 360.192 63.4501 363.125 61.1991C366.109 58.9484 370.688 57.8227 376.866 57.8227H386.603C386.603 55.153 385.789 53.1115 384.169 51.6981C382.545 50.2326 380.111 49.4996 376.866 49.4996C374.614 49.4996 372.391 49.8661 370.192 50.5988C368.044 51.2794 366.213 52.2217 364.696 53.4256L360.298 44.8669C362.601 43.2443 365.349 41.988 368.543 41.0979C371.788 40.2081 375.11 39.763 378.515 39.763ZM377.573 75.0187C379.665 75.0187 381.524 74.5475 383.148 73.6053C384.768 72.6109 385.921 71.1712 386.603 69.2867V64.9681H378.201C373.176 64.9681 370.663 66.617 370.663 69.9148C370.663 71.4852 371.263 72.7416 372.469 73.6838C373.725 74.5739 375.425 75.0187 377.573 75.0187ZM409.936 40.3912H422.185V82.6351H409.936V40.3912ZM416.06 34.5022C413.812 34.5022 411.977 33.8479 410.564 32.5392C409.151 31.2305 408.444 29.6078 408.444 27.671C408.444 25.7341 409.151 24.1114 410.564 22.8027C411.977 21.494 413.812 20.8397 416.06 20.8397C418.312 20.8397 420.143 21.4679 421.557 22.7242C422.97 23.9805 423.677 25.5509 423.677 27.4354C423.677 29.4769 422.97 31.1782 421.557 32.5392C420.143 33.8479 418.312 34.5022 416.06 34.5022ZM459.231 39.763C464.463 39.763 468.678 41.3334 471.873 44.4742C475.117 47.6151 476.741 52.2741 476.741 58.4509V82.6351H464.492V60.3354C464.492 56.9854 463.757 54.4988 462.293 52.8759C460.826 51.2009 458.706 50.3633 455.933 50.3633C452.842 50.3633 450.383 51.3319 448.552 53.2685C446.718 55.153 445.804 57.9797 445.804 61.7487V82.6351H433.555V40.3912H445.254V45.338C446.875 43.5584 448.891 42.1972 451.3 41.2549C453.706 40.2605 456.351 39.763 459.231 39.763ZM502.056 83.2633C498.548 83.2633 495.121 82.8446 491.77 82.007C488.418 81.1172 485.749 80.0179 483.761 78.7091L487.844 69.9148C489.728 71.119 492.005 72.1134 494.675 72.8986C497.345 73.6317 499.961 73.9979 502.527 73.9979C507.709 73.9979 510.301 72.7155 510.301 70.1504C510.301 68.9465 509.594 68.0828 508.18 67.5592C506.767 67.036 504.594 66.5909 501.663 66.2244C498.208 65.7011 495.357 65.099 493.105 64.4184C490.853 63.7381 488.89 62.5339 487.216 60.8065C485.592 59.079 484.781 56.6188 484.781 53.4256C484.781 50.7559 485.541 48.4003 487.058 46.3587C488.629 44.2651 490.881 42.6422 493.811 41.4905C496.795 40.3391 500.303 39.763 504.333 39.763C507.317 39.763 510.275 40.1035 513.206 40.7838C516.19 41.412 518.649 42.3021 520.587 43.4535L516.504 52.1692C512.788 50.0756 508.73 49.0284 504.333 49.0284C501.717 49.0284 499.754 49.395 498.444 50.1277C497.134 50.8608 496.481 51.803 496.481 52.9544C496.481 54.2632 497.188 55.1794 498.601 55.7027C500.014 56.2262 502.266 56.7234 505.354 57.1945C508.809 57.7706 511.635 58.3987 513.834 59.079C516.032 59.7072 517.942 60.885 519.566 62.6124C521.19 64.3399 522 66.748 522 69.8363C522 72.4539 521.215 74.7831 519.644 76.8246C518.074 78.8662 515.772 80.463 512.735 81.6144C509.751 82.7137 506.192 83.2633 502.056 83.2633Z" fill="#F16318"/>
<path fill-rule="evenodd" clip-rule="evenodd" d="M34.7596 81.1321L42.0259 88.3977C44.8328 91.2053 49.4272 91.2063 52.2354 88.3977L69.5523 71.0809H89.6017L55.4369 105.246C50.8682 109.814 43.3925 109.814 38.8238 105.246L24.5987 91.0206L34.7596 81.1321Z" fill="#F16318"/>
<path fill-rule="evenodd" clip-rule="evenodd" d="M53.5364 35.9868L52.2355 34.6856C49.4273 31.8771 44.8329 31.8771 42.026 34.6856C34.7754 41.9365 27.5246 49.187 20.2738 56.4379C18.1459 58.5658 17.6303 61.7214 18.7295 64.3465C19.7792 66.8714 28.9204 75.2859 31.5693 77.3309L21.1248 87.547C15.2253 81.6473 9.32621 75.7473 3.42607 69.8482C-1.14202 65.2799 -1.14202 57.8042 3.42607 53.2352L36.9661 19.7632L17.2031 0H37.2526C54.6451 17.3938 72.2104 34.6108 89.6018 52.0028H69.5521L63.5748 46.0245L53.5364 35.9868Z" fill="#142039"/>
<path d="M38.8238 105.246C39.2921 105.714 39.7915 106.135 40.3145 106.507C39.7915 106.135 39.2924 105.714 38.8238 105.246ZM66.3195 74.3136L52.2354 88.3979C50.8315 89.8022 48.9812 90.5041 47.1307 90.5041C45.2801 90.5041 43.4295 89.8019 42.0259 88.3979L34.7596 81.1323L24.5987 91.0208L34.7596 81.1323L42.0259 88.3979C43.4295 89.8019 45.2801 90.5041 47.1307 90.5041C48.9812 90.5041 50.8315 89.8022 52.2354 88.3979L66.3195 74.3136Z" fill="white"/>
<path d="M66.3195 74.3136L52.2354 88.3979C50.8315 89.8022 48.9812 90.5041 47.1307 90.5041C45.2801 90.5041 43.4295 89.8019 42.0259 88.3979L34.7596 81.1323L24.5987 91.0208L38.8238 105.246C39.2924 105.714 39.7915 106.135 40.3145 106.507C42.3431 107.95 44.7358 108.672 47.1291 108.672C48.7714 108.672 50.4138 108.332 51.9383 107.653C60.2228 98.8235 65.5453 87.1827 66.3195 74.3136Z" fill="#F2721D"/>
<path d="M47.1304 32.5793C46.2956 32.5793 45.4604 32.7219 44.6664 33.008C45.4604 32.7219 46.295 32.5793 47.1298 32.5796C48.7671 32.5796 50.4047 33.1293 51.7326 34.2286C51.732 34.2276 51.7314 34.2267 51.7304 34.2257C50.4025 33.128 48.7661 32.5793 47.1304 32.5793ZM34.5983 22.1259L3.42606 53.2349C1.14202 55.5198 0 58.5309 0 61.5417C0 58.5309 1.14202 55.5198 3.42606 53.2349L34.5983 22.1259Z" fill="white"/>
<path d="M34.5983 22.1259L3.42606 53.2352C1.14202 55.5198 0 58.5309 0 61.5417C0 64.5531 1.14202 67.5639 3.42606 69.8482C9.32621 75.7473 15.2253 81.6473 21.1248 87.547L31.5693 77.3309C28.9204 75.2859 19.7791 66.8713 18.7295 64.3464C18.3558 63.4544 18.1688 62.5009 18.1681 61.5473C18.1668 59.6952 18.869 57.8424 20.2738 56.4379C27.5245 49.187 34.7754 41.9364 42.026 34.6855C42.7964 33.9148 43.701 33.3554 44.6665 33.008C45.4604 32.7222 46.2956 32.5793 47.1304 32.5793C48.7662 32.5793 50.4025 33.128 51.7304 34.2257C46.9055 29.1422 41.0913 25.0079 34.5983 22.1259Z" fill="#1F304F"/>
</svg>
