<svg width="522" height="187" viewBox="0 0 522 187" fill="none" xmlns="http://www.w3.org/2000/svg">
<path d="M12.3358 118.482C12.3358 119.619 12.6203 120.189 13.1893 120.189C13.4996 120.189 14.9996 119.516 17.6891 118.171L19.1632 121.042C14.5082 125.232 10.3962 127.326 6.82738 127.326C4.60333 127.326 2.89648 126.577 1.70684 125.076C0.568969 123.576 0 121.714 0 119.49C0 117.266 1.24134 111.189 3.72402 101.258C6.25841 91.2759 7.65492 84.4224 7.91355 80.6984C7.91355 79.871 7.6291 78.8879 7.06013 77.7502C6.54292 76.5604 5.99984 75.6039 5.43087 74.8796L4.65503 73.7934L4.88778 72.6297C7.83597 71.7502 12.6979 71.3107 19.4735 71.3107C20.0942 72.5006 20.4045 74.2329 20.4045 76.5089C20.4045 78.7327 19.0597 85.2243 16.3702 95.9824C13.6806 106.74 12.3358 114.241 12.3358 118.482ZM25.773 126.628H24.2989C24.2989 124.197 25.023 119.542 26.4712 112.663C27.9712 105.784 28.7212 101.879 28.7212 100.948C28.7212 99.2409 27.9971 97.4304 26.5488 95.5169L25.8506 94.5859L25.9281 93.5773C28.7212 92.8015 33.1952 92.4135 39.3501 92.4135C40.0226 93.293 40.3846 94.8962 40.4363 97.2237C44.9362 93.7585 48.7378 92.0256 51.8411 92.0256C53.7032 92.0256 55.1776 92.6724 56.2637 93.9652C57.4014 95.2581 57.9706 96.8873 57.9706 98.853C57.9706 100.767 57.3754 104.103 56.1861 108.861C54.9963 113.62 54.4014 116.826 54.4014 118.482C54.4014 120.085 54.6083 120.887 55.0224 120.887C55.3327 120.887 56.4189 120.395 58.2809 119.413L59.2119 118.947L60.6084 121.663C60.1429 122.077 59.5223 122.594 58.7464 123.214C57.9706 123.835 56.5219 124.688 54.4014 125.775C52.3325 126.809 50.4705 127.326 48.8154 127.326C45.0396 127.326 43.1518 125.18 43.1518 120.887C43.1518 119.076 43.7207 115.74 44.8586 110.879C46.0482 106.017 46.643 102.887 46.643 101.491C46.643 100.094 46.2034 99.3961 45.3241 99.3961C43.8242 99.3961 41.988 100.043 39.8157 101.336C39.6605 102.215 39.1433 104.543 38.264 108.318C36.4537 116.438 35.5485 122.18 35.5485 125.542C33.7383 126.266 30.4798 126.628 25.773 126.628ZM99.851 121.663C95.4547 125.438 91.5756 127.326 88.2134 127.326C84.9033 127.326 82.9892 125.671 82.4722 122.361C80.9205 123.913 79.1876 125.128 77.2741 126.007C75.3605 126.887 73.6791 127.326 72.2311 127.326C69.7484 127.326 67.6276 126.24 65.8692 124.068C64.1109 121.895 63.2314 118.533 63.2314 113.982C63.2314 107.154 64.6794 101.801 67.5761 97.922C70.4727 93.9913 73.7313 92.0256 77.3516 92.0256C81.0241 92.0256 84.1014 92.853 86.5841 94.5083C88.1873 86.1293 88.9892 79.5346 88.9892 74.7244L88.6013 71.4659C92.4805 70.1209 96.2821 69.4487 100.006 69.4487C100.42 70.3282 100.627 71.3368 100.627 72.4745C100.627 76.25 99.4891 83.9308 97.2131 95.5169C94.9371 107.051 93.7994 114.887 93.7994 119.025C93.7994 120.266 94.0837 120.887 94.6528 120.887C94.9632 120.887 95.9457 120.395 97.601 119.413L98.3769 118.947L99.851 121.663ZM81.1533 96.6031C79.3428 96.6031 77.7656 98.3875 76.4206 101.956C75.1278 105.525 74.481 109.068 74.481 112.585C74.481 116.051 74.7138 118.275 75.1793 119.258C75.6963 120.24 76.4467 120.732 77.4292 120.732C79.1361 120.732 80.8168 120.033 82.4722 118.637C82.6273 116.568 83.7911 109.689 85.9634 97.9996C84.2051 97.0686 82.6013 96.6031 81.1533 96.6031ZM118.079 96.8358C118.079 99.0082 117.381 102.758 115.985 108.085C114.588 113.361 113.89 116.826 113.89 118.482C113.89 120.085 114.123 120.887 114.588 120.887C114.898 120.887 116.088 120.395 118.157 119.413L119.088 118.947L120.407 121.663C119.941 122.077 119.321 122.594 118.545 123.214C117.769 123.835 116.321 124.688 114.2 125.775C112.08 126.809 110.114 127.326 108.304 127.326C106.494 127.326 105.071 126.783 104.037 125.697C103.003 124.559 102.485 123.059 102.485 121.197C102.485 119.284 103.132 115.921 104.425 111.111C105.718 106.25 106.364 103.094 106.364 101.646C106.364 99.4737 105.692 97.4304 104.347 95.5169L103.649 94.5859L103.726 93.5773C106.468 92.8015 110.916 92.4135 117.071 92.4135C117.744 93.1894 118.079 94.6635 118.079 96.8358ZM109.235 83.9569C108.201 82.9223 107.683 81.5518 107.683 79.845C107.683 78.1381 108.381 76.638 109.778 75.3451C111.227 74.0522 112.881 73.4055 114.743 73.4055C116.605 73.4055 118.054 73.9225 119.088 74.9572C120.123 75.9918 120.64 77.3623 120.64 79.0691C120.64 80.7245 119.89 82.1985 118.39 83.4914C116.942 84.7843 115.312 85.431 113.502 85.431C111.692 85.431 110.27 84.9394 109.235 83.9569ZM146.278 94.2756C146.382 94.1719 146.666 93.4997 147.132 92.2584C149.563 92.2584 152.821 92.9827 156.907 94.4307C155.614 98.7239 154.58 103.224 153.804 107.93C153.028 112.585 152.64 115.921 152.64 117.939C152.64 119.904 152.847 120.887 153.261 120.887C153.571 120.887 154.709 120.395 156.675 119.413L157.606 118.947L159.002 121.663C158.537 122.077 157.916 122.594 157.14 123.214C156.416 123.835 155.019 124.688 152.951 125.775C150.882 126.809 149.02 127.326 147.365 127.326C144.158 127.326 142.296 125.878 141.779 122.982C138.468 125.878 135.468 127.326 132.779 127.326C130.141 127.326 127.891 126.292 126.029 124.223C124.218 122.154 123.314 118.896 123.314 114.447C123.314 107.516 124.736 102.06 127.581 98.0772C130.425 94.0428 133.865 92.0256 137.899 92.0256C140.796 92.0256 143.589 92.7754 146.278 94.2756ZM137.434 120.732C138.675 120.732 140.072 120.24 141.623 119.258C141.985 111.965 143.201 104.749 145.27 97.6117C143.718 96.9395 142.399 96.6031 141.313 96.6031C139.451 96.6031 137.848 98.439 136.503 102.112C135.21 105.732 134.563 109.741 134.563 114.137C134.563 118.533 135.52 120.732 137.434 120.732ZM162.529 126.628H161.055C161.055 124.197 161.78 119.542 163.228 112.663C164.728 105.784 165.478 101.879 165.478 100.948C165.478 99.2409 164.754 97.4304 163.305 95.5169L162.607 94.5859L162.685 93.5773C165.478 92.8015 169.952 92.4135 176.107 92.4135C176.779 93.293 177.141 94.8962 177.193 97.2237C181.693 93.7585 185.494 92.0256 188.598 92.0256C190.46 92.0256 191.934 92.6724 193.02 93.9652C194.158 95.2581 194.727 96.8873 194.727 98.853C194.727 100.767 194.132 104.103 192.942 108.861C191.753 113.62 191.158 116.826 191.158 118.482C191.158 120.085 191.365 120.887 191.778 120.887C192.089 120.887 193.175 120.395 195.037 119.413L195.968 118.947L197.365 121.663C196.899 122.077 196.278 122.594 195.503 123.214C194.727 123.835 193.279 124.688 191.158 125.775C189.089 126.809 187.227 127.326 185.572 127.326C181.796 127.326 179.908 125.18 179.908 120.887C179.908 119.076 180.477 115.74 181.615 110.879C182.805 106.017 183.399 102.887 183.399 101.491C183.399 100.094 182.96 99.3961 182.081 99.3961C180.581 99.3961 178.744 100.043 176.572 101.336C176.417 102.215 175.9 104.543 175.02 108.318C173.211 116.438 172.305 122.18 172.305 125.542C170.495 126.266 167.237 126.628 162.529 126.628Z" fill="#212224"/>
<path d="M330.872 126.706H329.398C329.605 124.378 330.976 117.551 333.51 106.223C336.044 94.8447 337.622 86.3359 338.242 80.6984C338.242 79.871 337.958 78.8879 337.389 77.7502C336.872 76.5604 336.329 75.6039 335.76 74.8796L334.984 73.7934L335.217 72.6297C338.113 71.7502 343.104 71.3107 350.19 71.3107C350.863 72.5521 351.199 73.7674 351.199 74.9572C351.199 76.147 351.095 77.6211 350.889 79.3795C357.354 74.0001 362.63 71.3107 366.716 71.3107C369.405 71.3107 371.577 72.1902 373.233 73.9486C374.888 75.707 375.715 78.1642 375.715 81.3191C375.715 84.4739 374.603 90.5 372.379 99.3961C370.207 108.241 369.121 114.421 369.121 117.939C369.121 119.439 369.38 120.189 369.897 120.189C370.362 120.189 371.655 119.672 373.776 118.637L374.784 118.171L376.336 121.042C374.164 122.904 371.914 124.43 369.586 125.619C367.259 126.757 365.138 127.326 363.224 127.326C361.362 127.326 359.837 126.654 358.647 125.309C357.457 123.913 356.863 122.051 356.863 119.723C356.863 117.344 357.923 111.473 360.043 102.112C362.216 92.7499 363.302 86.776 363.302 84.1897C363.302 81.6033 362.293 80.3105 360.276 80.3105C357.224 80.3105 353.759 81.8361 349.88 84.8879C349.311 87.6294 348.251 92.2069 346.699 98.6202C343.285 112.741 341.579 121.585 341.579 125.154C339.561 126.189 335.993 126.706 330.872 126.706ZM395.665 96.8358C395.665 99.0082 394.967 102.758 393.57 108.085C392.174 113.361 391.476 116.826 391.476 118.482C391.476 120.085 391.708 120.887 392.174 120.887C392.484 120.887 393.673 120.395 395.743 119.413L396.674 118.947L397.993 121.663C397.527 122.077 396.906 122.594 396.131 123.214C395.355 123.835 393.906 124.688 391.786 125.775C389.665 126.809 387.699 127.326 385.889 127.326C384.079 127.326 382.656 126.783 381.622 125.697C380.588 124.559 380.071 123.059 380.071 121.197C380.071 119.284 380.717 115.921 382.01 111.111C383.303 106.25 383.95 103.094 383.95 101.646C383.95 99.4737 383.277 97.4304 381.933 95.5169L381.234 94.5859L381.312 93.5773C384.053 92.8015 388.501 92.4135 394.656 92.4135C395.329 93.1894 395.665 94.6635 395.665 96.8358ZM386.82 83.9569C385.786 82.9222 385.269 81.5518 385.269 79.845C385.269 78.1381 385.967 76.638 387.364 75.3451C388.812 74.0522 390.467 73.4055 392.329 73.4055C394.191 73.4055 395.639 73.9225 396.674 74.9572C397.708 75.9918 398.225 77.3623 398.225 79.0691C398.225 80.7245 397.475 82.1985 395.975 83.4914C394.527 84.7843 392.897 85.431 391.088 85.431C389.277 85.431 387.855 84.9394 386.82 83.9569ZM410.519 134.774C408.812 135.809 407.959 136.818 407.959 137.8C407.959 138.783 408.502 139.274 409.588 139.274C410.726 139.274 411.993 138.731 413.39 137.645C414.786 136.61 415.95 134.903 416.881 132.524C414.398 132.99 412.278 133.74 410.519 134.774ZM433.561 92.5687C433.769 92.7754 433.872 93.2409 433.872 93.9652C433.872 94.6374 433.82 95.3878 433.716 96.2151C433.613 96.991 433.432 98.7754 433.173 101.568C432.915 104.361 432.656 106.793 432.398 108.861C429.76 132.136 422.674 143.774 411.14 143.774C409.278 143.774 407.571 143.282 406.019 142.3C404.52 141.317 403.769 140.05 403.769 138.498C403.769 136.43 405.037 134.542 407.571 132.835C410.106 131.128 413.519 129.809 417.812 128.878C417.812 128.826 417.967 128.102 418.277 126.706C418.588 125.309 418.795 124.171 418.898 123.292C415.795 125.568 412.872 126.706 410.131 126.706C407.442 126.706 405.218 125.645 403.459 123.525C401.752 121.404 400.899 118.016 400.899 113.361C400.899 107.258 402.27 102.189 405.01 98.1547C407.752 94.0689 411.372 92.0256 415.872 92.0256C418.407 92.0256 420.915 92.6463 423.398 93.8876C426.036 92.9566 428.881 92.4911 431.932 92.4911L433.561 92.5687ZM419.363 96.6031C417.14 96.6031 415.381 98.4136 414.088 102.034C412.795 105.603 412.148 109.586 412.148 113.982C412.148 118.327 413.131 120.499 415.096 120.499C416.39 120.499 417.915 120.007 419.674 119.025C421.122 110.335 422.156 103.172 422.777 97.5341C421.329 96.9134 420.191 96.6031 419.363 96.6031ZM445.734 75.1899C445.734 73.4831 445.579 72.2678 445.268 71.5435C449.303 70.147 453.104 69.4487 456.673 69.4487C457.139 69.9142 457.371 71.1041 457.371 73.0176C457.371 76.4313 455.923 84.2933 453.027 96.6031C457.216 93.5512 460.888 92.0256 464.044 92.0256C466.009 92.0256 467.483 92.6463 468.466 93.8876C469.5 95.129 470.018 96.7843 470.018 98.853C470.018 100.87 469.422 104.206 468.233 108.861C467.043 113.465 466.449 116.62 466.449 118.327C466.449 120.033 466.655 120.887 467.069 120.887C467.483 120.887 468.569 120.421 470.328 119.49L471.259 119.025L472.655 121.74C472.19 122.154 471.569 122.671 470.793 123.292C470.018 123.913 468.595 124.74 466.526 125.775C464.457 126.809 462.544 127.326 460.785 127.326C459.078 127.326 457.707 126.783 456.673 125.697C455.639 124.559 455.122 123.059 455.122 121.197C455.122 119.284 455.69 115.844 456.828 110.878C458.018 105.862 458.613 102.706 458.613 101.413C458.613 100.068 458.07 99.3961 456.984 99.3961C455.639 99.3961 453.958 99.9652 451.941 101.103C449.095 113.62 447.673 121.74 447.673 125.464C445.501 126.292 441.803 126.706 436.579 126.706C436.527 125.826 436.501 125.05 436.501 124.378C436.501 122.154 438.027 114.551 441.079 101.568C444.182 88.5859 445.734 79.7934 445.734 75.1899ZM499.429 92.9566C499.326 94.2495 498.886 95.7496 498.11 97.4565C496.145 97.2498 494.283 97.1462 492.524 97.1462H491.127C488.748 108.68 487.558 115.87 487.558 118.714C487.558 120.215 487.869 120.964 488.489 120.964C489.162 120.964 490.895 120.318 493.688 119.025L495.084 121.585C490.481 125.413 486.214 127.326 482.283 127.326C480.473 127.326 478.973 126.757 477.783 125.619C476.645 124.482 476.076 122.982 476.076 121.12C476.076 119.206 476.283 117.059 476.697 114.68C477.162 112.301 477.783 109.404 478.559 105.991C479.335 102.526 479.904 99.7325 480.266 97.6117C478.352 97.7668 476.929 97.922 475.998 98.0772C475.895 97.4565 475.843 96.6291 475.843 95.5945C475.843 94.5083 475.921 93.6288 476.076 92.9566H480.964C481.378 90.1636 481.584 87.5258 481.584 85.0431L481.507 82.638V82.4052C485.541 81.0087 489.343 80.3105 492.912 80.3105C493.119 81.3451 493.222 82.638 493.222 84.1897C493.222 85.7413 492.783 88.6635 491.903 92.9566H499.429ZM522 116.232C522 119.49 520.551 122.154 517.655 124.223C514.81 126.292 511.552 127.326 507.88 127.326C504.207 127.326 501.285 126.55 499.113 124.999C496.992 123.447 495.932 122.077 495.932 120.887C495.932 120.162 496.837 118.999 498.647 117.396C500.457 115.74 501.983 114.732 503.225 114.37C505.81 116.283 507.931 119.309 509.587 123.447C511.5 123.292 512.457 122.387 512.457 120.732C512.457 118.353 510.362 114.99 506.173 110.646C501.983 106.25 499.889 102.758 499.889 100.172C499.889 97.5856 501.052 95.5945 503.38 94.198C505.707 92.7499 508.5 92.0256 511.759 92.0256C515.069 92.0256 517.552 92.6202 519.207 93.81C520.862 94.9477 521.69 96.5255 521.69 98.5427C521.69 100.508 520.112 103.249 516.957 106.767C517.319 107.128 517.784 107.62 518.354 108.241C518.922 108.81 519.673 109.921 520.604 111.577C521.535 113.232 522 114.784 522 116.232ZM514.552 104.051C516.724 102.189 517.811 100.353 517.811 98.5427C517.811 96.7322 516.569 95.8272 514.086 95.8272C512.897 95.8272 511.914 96.086 511.138 96.6031C510.362 97.0686 509.975 97.6117 509.975 98.2323C509.975 99.37 511.112 100.974 513.388 103.043L514.552 104.051Z" fill="#212224"/>
<path d="M235.622 73.2746C235.606 73.1753 235.577 73.0896 235.531 73.017C235.498 72.9388 235.448 72.8823 235.402 72.8339C235.361 72.7824 235.318 72.7482 235.278 72.7234C235.201 72.675 235.152 72.6539 235.152 72.6539C235.152 72.6539 235.168 72.7017 235.194 72.7855C235.224 72.8606 235.249 72.9791 235.249 73.0995C235.259 73.1616 235.249 73.2286 235.24 73.2963C235.24 73.3608 235.206 73.4285 235.194 73.4924C235.168 73.557 235.135 73.6215 235.109 73.6675C235.101 73.7103 235.012 73.7966 234.955 73.8636C234.934 73.8661 234.864 73.9517 234.808 73.971C234.748 74.0113 234.684 74.038 234.62 74.0678C234.555 74.079 234.49 74.1106 234.426 74.1137C234.358 74.1218 234.291 74.1299 234.23 74.1243C234.103 74.1162 234.003 74.1056 233.915 74.0678C233.834 74.038 233.78 74.0243 233.78 74.0243C233.78 74.0243 233.805 74.0678 233.851 74.146C233.872 74.1832 233.904 74.2292 233.958 74.2726C234.009 74.3179 234.068 74.3713 234.144 74.4011C234.219 74.447 234.305 74.4768 234.401 74.4923C234.499 74.5196 234.603 74.5141 234.714 74.506C234.821 74.4818 234.939 74.4687 235.039 74.4042C235.157 74.3533 235.219 74.2962 235.348 74.1863C235.407 74.1025 235.463 74.0572 235.531 73.9226C235.598 73.8071 235.609 73.691 235.636 73.5868C235.641 73.4763 235.649 73.3689 235.622 73.2746Z" fill="#212224"/>
<path d="M238.746 69.7424C238.72 69.7095 238.692 69.6859 238.666 69.6698C238.617 69.64 238.585 69.6288 238.585 69.6288C238.585 69.6288 238.598 69.6586 238.617 69.7095C238.631 69.7604 238.645 69.833 238.65 69.9144C238.655 69.9541 238.647 69.995 238.645 70.0348C238.645 70.0782 238.62 70.121 238.617 70.1645C238.598 70.2048 238.577 70.2477 238.558 70.2743C238.553 70.3017 238.496 70.3556 238.458 70.401C238.449 70.401 238.402 70.4574 238.367 70.4711C238.329 70.4947 238.287 70.5108 238.247 70.527C238.206 70.5381 238.163 70.5599 238.123 70.5599C238.08 70.5623 238.04 70.5698 237.996 70.5648C237.918 70.5623 237.854 70.5543 237.794 70.527C237.743 70.5108 237.712 70.5034 237.712 70.5034C237.712 70.5034 237.727 70.5325 237.757 70.581C237.768 70.6052 237.789 70.6318 237.822 70.6592C237.854 70.6914 237.897 70.7237 237.943 70.7454C237.989 70.7715 238.045 70.7907 238.107 70.8013C238.169 70.8181 238.238 70.8149 238.306 70.8094C238.375 70.7932 238.449 70.7852 238.516 70.7454C238.59 70.7125 238.631 70.6753 238.712 70.6052C238.755 70.5512 238.784 70.5245 238.827 70.4382C238.872 70.3631 238.878 70.2911 238.897 70.221C238.9 70.1508 238.902 70.0838 238.886 70.0248C238.876 69.9603 238.859 69.9063 238.827 69.8604C238.808 69.8095 238.776 69.7716 238.746 69.7424Z" fill="#212224"/>
<path d="M236.327 77.4176C236.311 77.394 236.289 77.3778 236.27 77.3667C236.233 77.3425 236.214 77.335 236.214 77.335C236.214 77.335 236.219 77.3561 236.233 77.3965C236.246 77.4312 236.257 77.4852 236.257 77.5417C236.262 77.5709 236.257 77.6007 236.254 77.6305C236.251 77.6627 236.238 77.6919 236.233 77.7217C236.219 77.7509 236.205 77.7838 236.192 77.8049C236.187 77.8235 236.149 77.862 236.122 77.8936C236.112 77.8961 236.079 77.9371 236.053 77.9451C236.029 77.9607 235.996 77.9743 235.969 77.988C235.937 77.9936 235.904 78.0091 235.878 78.0091C235.845 78.0122 235.813 78.0171 235.787 78.0153C235.73 78.0122 235.682 78.0066 235.641 77.988C235.603 77.9743 235.577 77.9693 235.577 77.9693C235.577 77.9693 235.59 77.9904 235.611 78.0252C235.62 78.0444 235.636 78.0637 235.66 78.0823C235.684 78.1034 235.711 78.1276 235.749 78.1438C235.781 78.1655 235.821 78.1791 235.867 78.1872C235.91 78.1971 235.958 78.1953 236.012 78.1897C236.06 78.1816 236.112 78.1735 236.163 78.1438C236.217 78.1196 236.243 78.0953 236.305 78.0444C236.33 78.0041 236.356 77.9824 236.388 77.9234C236.418 77.8669 236.423 77.8154 236.434 77.7676C236.437 77.7136 236.439 77.6677 236.431 77.6224C236.423 77.5765 236.407 77.5367 236.388 77.5038C236.372 77.4666 236.348 77.4424 236.327 77.4176Z" fill="#212224"/>
<path d="M286.901 73.2746C286.885 73.1753 286.853 73.0896 286.81 73.017C286.777 72.9388 286.726 72.8823 286.681 72.8339C286.64 72.7824 286.595 72.7482 286.556 72.7234C286.476 72.675 286.43 72.6539 286.43 72.6539C286.43 72.6539 286.447 72.7017 286.473 72.7855C286.503 72.8606 286.526 72.9791 286.528 73.0995C286.536 73.1616 286.528 73.2286 286.519 73.2963C286.519 73.3608 286.481 73.4285 286.473 73.4924C286.447 73.557 286.414 73.6215 286.388 73.6675C286.377 73.7103 286.291 73.7966 286.233 73.8636C286.213 73.8661 286.142 73.9517 286.085 73.971C286.028 74.0113 285.963 74.038 285.898 74.0678C285.834 74.079 285.77 74.1106 285.702 74.1137C285.635 74.1218 285.568 74.1299 285.509 74.1243C285.382 74.1162 285.282 74.1056 285.192 74.0678C285.112 74.038 285.059 74.0243 285.059 74.0243C285.059 74.0243 285.081 74.0678 285.127 74.146C285.149 74.1832 285.182 74.2292 285.237 74.2726C285.286 74.3179 285.346 74.3713 285.422 74.4011C285.496 74.447 285.581 74.4768 285.681 74.4923C285.777 74.5196 285.881 74.5141 285.99 74.506C286.1 74.4818 286.216 74.4687 286.318 74.4042C286.434 74.3533 286.498 74.2962 286.627 74.1863C286.686 74.1025 286.743 74.0572 286.807 73.9226C286.877 73.8071 286.888 73.691 286.912 73.5868C286.92 73.4763 286.927 73.3689 286.901 73.2746Z" fill="#212224"/>
<path d="M290.023 69.7424C289.998 69.7095 289.972 69.6859 289.945 69.6698C289.894 69.64 289.864 69.6288 289.864 69.6288C289.864 69.6288 289.878 69.6586 289.894 69.7095C289.91 69.7604 289.923 69.833 289.926 69.9144C289.933 69.9541 289.925 69.995 289.921 70.0348C289.921 70.0782 289.898 70.121 289.894 70.1645C289.878 70.2048 289.853 70.2477 289.835 70.2743C289.831 70.3017 289.775 70.3556 289.738 70.401C289.726 70.401 289.681 70.4574 289.647 70.4711C289.609 70.4947 289.566 70.5108 289.525 70.527C289.485 70.5381 289.442 70.5599 289.4 70.5599C289.357 70.5623 289.317 70.5698 289.275 70.5648C289.196 70.5623 289.13 70.5543 289.073 70.527C289.022 70.5108 288.99 70.5034 288.99 70.5034C288.99 70.5034 289.005 70.5325 289.035 70.581C289.046 70.6052 289.067 70.6318 289.1 70.6592C289.133 70.6914 289.175 70.7237 289.221 70.7454C289.267 70.7715 289.323 70.7907 289.385 70.8013C289.447 70.8181 289.516 70.8149 289.584 70.8094C289.655 70.7932 289.727 70.7852 289.793 70.7454C289.869 70.7125 289.908 70.6753 289.99 70.6052C290.032 70.5512 290.063 70.5245 290.103 70.4382C290.152 70.3631 290.157 70.2911 290.175 70.221C290.178 70.1508 290.182 70.0838 290.164 70.0248C290.155 69.9603 290.135 69.9063 290.106 69.8604C290.088 69.8095 290.055 69.7716 290.023 69.7424Z" fill="#212224"/>
<path d="M287.605 77.4176C287.586 77.394 287.567 77.3778 287.548 77.3667C287.508 77.3425 287.492 77.335 287.492 77.335C287.492 77.335 287.497 77.3561 287.508 77.3965C287.525 77.4312 287.535 77.4852 287.535 77.5417C287.538 77.5709 287.535 77.6007 287.531 77.6305C287.53 77.6627 287.515 77.6919 287.508 77.7217C287.497 77.7509 287.484 77.7838 287.469 77.8049C287.464 77.8235 287.425 77.862 287.401 77.8936C287.39 77.8961 287.356 77.9371 287.331 77.9451C287.304 77.9607 287.274 77.9743 287.245 77.988C287.214 77.9936 287.181 78.0091 287.153 78.0091C287.123 78.0122 287.091 78.0171 287.062 78.0153C287.008 78.0122 286.96 78.0066 286.917 77.988C286.881 77.9743 286.855 77.9693 286.855 77.9693C286.855 77.9693 286.869 77.9904 286.888 78.0252C286.898 78.0444 286.911 78.0637 286.936 78.0823C286.962 78.1034 286.99 78.1276 287.026 78.1438C287.057 78.1655 287.098 78.1791 287.145 78.1872C287.186 78.1971 287.237 78.1953 287.289 78.1897C287.338 78.1816 287.39 78.1735 287.44 78.1438C287.493 78.1196 287.522 78.0953 287.582 78.0444C287.607 78.0041 287.634 77.9824 287.666 77.9234C287.697 77.8669 287.702 77.8154 287.711 77.7676C287.715 77.7136 287.718 77.6677 287.707 77.6224C287.699 77.5765 287.686 77.5367 287.666 77.5038C287.651 77.4666 287.626 77.4424 287.605 77.4176Z" fill="#212224"/>
<path d="M274.118 118.744C273.142 119.46 271.985 120.081 270.714 120.603C272.407 110.367 273.334 103.635 273.334 87.0406C273.334 67.0563 271.674 61.6951 269.323 56.3043C268.724 54.8791 268.249 53.4599 268.21 53.32C264.522 41.2613 264.407 33.3812 264.348 29.149C264.339 28.5039 264.327 27.9368 264.309 27.4419V15.394H265.337L265.338 29.2569C265.369 29.7301 265.376 30.2733 265.391 30.8913C265.477 34.9349 265.634 42.4686 270.741 54.0004C270.803 54.1348 271.461 55.4922 272.289 56.8524C275.543 62.0068 277.844 67.1339 277.844 86.2424C277.844 102.334 276.527 108.725 274.118 118.744ZM272.04 123.969C271.775 124.144 271.424 124.302 271.03 124.502C270.64 124.717 270.177 124.905 269.668 125.095C269.163 125.308 268.59 125.456 267.996 125.652C267.392 125.811 266.753 125.988 266.078 126.098C265.405 126.214 264.709 126.335 263.982 126.381C263.254 126.469 262.563 126.459 261.821 126.49C261.092 126.456 260.36 126.464 259.648 126.381C258.928 126.335 258.231 126.214 257.556 126.098C256.884 125.988 256.247 125.811 255.642 125.649C255.048 125.453 254.475 125.305 253.97 125.093C253.461 124.902 252.999 124.713 252.606 124.502C252.209 124.299 251.859 124.139 251.596 123.966C251.061 123.635 250.751 123.445 250.751 123.445C250.751 123.445 251.09 123.582 251.671 123.822C251.956 123.959 252.321 124.066 252.73 124.211C253.135 124.362 253.61 124.485 254.12 124.638C254.625 124.808 255.199 124.905 255.789 125.047C256.389 125.157 257.021 125.268 257.679 125.36C258.333 125.448 259.016 125.52 259.713 125.561C260.405 125.636 261.112 125.614 261.821 125.638C262.509 125.614 263.26 125.633 263.932 125.561C264.62 125.518 265.299 125.448 265.958 125.36C266.616 125.268 267.249 125.155 267.848 125.047C268.44 124.905 269.012 124.808 269.517 124.638C270.026 124.485 270.499 124.362 270.909 124.208C271.318 124.066 271.686 123.956 271.967 123.822C272.548 123.582 272.885 123.445 272.885 123.445C272.885 123.445 272.58 123.642 272.04 123.969ZM249.555 118.744C247.146 108.725 245.826 102.334 245.826 86.2424C245.826 67.1339 248.132 62.0068 251.396 56.834C252.214 55.4922 252.87 54.1348 252.932 54.0004C258.04 42.4686 258.201 34.9349 258.282 30.8913C258.293 30.2733 258.306 29.7301 258.335 29.1815V15.394H259.811V27.3638C259.792 27.9368 259.785 28.5039 259.78 29.149C259.727 33.3812 259.632 41.2613 256.558 53.3227C256.523 53.4599 256.126 54.8791 255.634 56.2827C253.674 61.6951 252.286 67.0563 252.286 87.0406C252.286 103.869 253.079 110.553 254.529 121.033C254.585 121.102 254.644 121.164 254.706 121.231C252.722 120.621 250.963 119.775 249.555 118.744ZM256.09 7.89555C256.09 6.61566 256.432 5.38723 257.083 4.32199C258.01 3.88939 259.193 3.59664 260.467 3.47521V11.9527H258.124L257.295 11.7294C257.28 11.724 257.26 11.7218 257.244 11.7158C256.488 10.6002 256.09 9.28827 256.09 7.89555ZM261.566 64.7523C261.566 65.6207 260.863 66.3245 259.996 66.3245C259.123 66.3245 258.422 65.6207 258.422 64.7523C258.422 63.8865 259.123 63.182 259.996 63.182C260.863 63.182 261.566 63.8865 261.566 64.7523ZM262.293 69.6749C262.293 70.0783 261.967 70.406 261.566 70.406C261.164 70.406 260.838 70.0783 260.838 69.6749C260.838 69.2745 261.164 68.9493 261.566 68.9493C261.967 68.9493 262.293 69.2745 262.293 69.6749ZM264.213 59.8855C264.767 59.8855 265.215 60.3344 265.215 60.8884C265.215 61.4424 264.767 61.8913 264.213 61.8913C263.658 61.8913 263.209 61.4424 263.209 60.8884C263.209 60.3344 263.658 59.8855 264.213 59.8855ZM265.516 3.92735C265.888 4.04011 266.236 4.17454 266.552 4.32199C267.203 5.38723 267.544 6.61566 267.544 7.89555C267.544 9.28827 267.15 10.6002 266.394 11.7158C266.377 11.7218 266.36 11.724 266.343 11.7294L265.516 11.9527V3.92735ZM273.547 56.1699C272.758 54.8742 272.125 53.5672 272.086 53.4843C266.304 40.4254 267.002 32.7898 266.794 29.1815V14.5418C266.983 14.4719 267.161 14.3966 267.329 14.3185C268.264 12.5686 268.824 10.3665 268.824 7.97096C268.824 5.79057 268.361 3.77121 267.571 2.10694C266.146 1.0585 264.098 0.399292 261.821 0.399292C259.543 0.399292 257.494 1.0585 256.067 2.10694C255.273 3.77121 254.814 5.79057 254.814 7.97096C254.814 10.3665 255.373 12.5686 256.308 14.3185C256.478 14.3966 256.655 14.4719 256.846 14.5418V29.1815C256.631 32.7898 257.333 40.4254 251.547 53.4843C251.512 53.5672 250.877 54.8742 250.092 56.1699C246.715 61.5124 244.339 66.8465 244.339 86.2424C244.339 104.592 246.028 110.405 249.1 123.2C249.237 123.776 249.611 124.27 250.128 124.56C253.322 126.356 257.475 127.346 261.821 127.346C266.165 127.346 270.315 126.356 273.511 124.56C274.027 124.27 274.401 123.776 274.539 123.2C277.611 110.405 279.304 104.592 279.304 86.2424C279.304 66.8465 276.922 61.5124 273.547 56.1699Z" fill="#212224"/>
<path d="M261.171 64.5118C261.153 64.3963 261.117 64.297 261.066 64.2114C261.029 64.1226 260.968 64.0556 260.916 64.0016C260.868 63.9395 260.818 63.8992 260.77 63.8725C260.679 63.816 260.625 63.7918 260.625 63.7918C260.625 63.7918 260.644 63.8452 260.674 63.9451C260.708 64.0339 260.737 64.1686 260.738 64.3107C260.747 64.3833 260.738 64.4584 260.728 64.5366C260.728 64.6117 260.685 64.6899 260.674 64.765C260.644 64.8407 260.607 64.9183 260.576 64.9698C260.564 65.0176 260.463 65.1176 260.396 65.1951C260.373 65.2007 260.289 65.3031 260.225 65.3242C260.158 65.3696 260.081 65.3993 260.007 65.4341C259.932 65.4453 259.856 65.4856 259.78 65.4881C259.702 65.4968 259.623 65.5067 259.554 65.4993C259.406 65.4912 259.29 65.48 259.186 65.4341C259.092 65.3993 259.033 65.3857 259.033 65.3857C259.033 65.3857 259.056 65.4366 259.11 65.526C259.137 65.5713 259.175 65.6203 259.237 65.6712C259.296 65.7246 259.363 65.7866 259.455 65.822C259.538 65.8754 259.638 65.9102 259.754 65.9288C259.866 65.9592 259.987 65.9536 260.114 65.9424C260.24 65.9157 260.377 65.899 260.495 65.827C260.63 65.7655 260.703 65.701 260.854 65.5713C260.922 65.4751 260.986 65.4211 261.063 65.2653C261.144 65.1306 261.156 64.999 261.186 64.8755C261.194 64.7489 261.202 64.6229 261.171 64.5118Z" fill="#212224"/>
<path d="M264.801 60.4068C264.771 60.3694 264.74 60.345 264.707 60.3266C264.65 60.2886 264.615 60.2751 264.615 60.2751C264.615 60.2751 264.629 60.3103 264.65 60.3721C264.667 60.4285 264.683 60.5147 264.687 60.6085C264.694 60.6545 264.685 60.7028 264.682 60.751C264.682 60.7993 264.654 60.8481 264.65 60.899C264.629 60.9473 264.603 60.9934 264.582 61.0281C264.576 61.0573 264.512 61.1197 264.467 61.1733C264.453 61.1733 264.401 61.2378 264.361 61.2541C264.317 61.2834 264.268 61.3024 264.221 61.3213C264.174 61.3316 264.124 61.356 264.076 61.356C264.026 61.3615 263.978 61.3723 263.929 61.3641C263.837 61.3587 263.762 61.3533 263.695 61.3213C263.635 61.3024 263.598 61.2915 263.598 61.2915C263.598 61.2915 263.616 61.3262 263.651 61.3826C263.662 61.4097 263.689 61.4422 263.728 61.4742C263.764 61.5094 263.814 61.5495 263.867 61.5713C263.921 61.606 263.986 61.6276 264.058 61.6385C264.13 61.6601 264.21 61.6542 264.29 61.6493C264.37 61.6303 264.454 61.6195 264.531 61.574C264.62 61.536 264.666 61.4932 264.762 61.4124C264.809 61.3506 264.844 61.3154 264.893 61.2162C264.948 61.1305 264.955 61.047 264.975 60.9662C264.979 60.8855 264.983 60.8047 264.963 60.7353C264.951 60.6622 264.93 60.5976 264.896 60.5439C264.874 60.4876 264.836 60.4442 264.801 60.4068Z" fill="#212224"/>
<path d="M261.99 69.3278C261.969 69.3012 261.947 69.2825 261.924 69.2689C261.879 69.2422 261.859 69.231 261.859 69.231C261.859 69.231 261.866 69.2583 261.879 69.3012C261.897 69.3446 261.909 69.406 261.909 69.4737C261.913 69.5054 261.909 69.5407 261.905 69.5755C261.902 69.6134 261.886 69.6481 261.879 69.6835C261.866 69.7176 261.85 69.753 261.834 69.7772C261.827 69.7989 261.783 69.8442 261.753 69.8821C261.741 69.8821 261.702 69.9305 261.671 69.9411C261.641 69.9603 261.606 69.9758 261.573 69.992C261.537 69.9975 261.499 70.0168 261.467 70.0168C261.431 70.0193 261.392 70.0249 261.361 70.0217C261.296 70.0193 261.24 70.0112 261.192 69.992C261.148 69.9758 261.119 69.9702 261.119 69.9702C261.119 69.9702 261.135 69.992 261.159 70.0323C261.169 70.054 261.186 70.0782 261.214 70.0993C261.243 70.1266 261.274 70.154 261.318 70.172C261.354 70.1968 261.402 70.2129 261.456 70.221C261.504 70.2346 261.564 70.2315 261.624 70.226C261.68 70.2154 261.741 70.2048 261.799 70.172C261.86 70.1459 261.894 70.113 261.964 70.054C261.994 70.0112 262.025 69.987 262.061 69.9144C262.095 69.8523 262.103 69.7909 262.115 69.7344C262.118 69.6723 262.122 69.6189 262.111 69.5649C262.101 69.5116 262.085 69.465 262.061 69.4278C262.043 69.3843 262.015 69.3545 261.99 69.3278Z" fill="#212224"/>
<path d="M298.042 119.944C297.201 120.56 296.207 121.095 295.112 121.544C296.569 112.736 297.368 106.942 297.368 92.6598C297.368 75.4641 295.939 70.85 293.916 66.2093C293.401 64.9859 292.992 63.7632 292.958 63.6415C289.784 53.2639 289.686 46.4853 289.636 42.8424C289.626 42.2861 289.616 41.7993 289.601 41.3749V31.0043H290.485L290.486 42.934C290.514 43.3427 290.518 43.8078 290.531 44.3402C290.606 47.8221 290.741 54.3042 295.136 64.2281C295.19 64.3435 295.756 65.5135 296.467 66.6828C299.269 71.1188 301.249 75.528 301.249 91.9745C301.249 105.822 300.116 111.319 298.042 119.944ZM296.254 124.439C296.026 124.59 295.723 124.727 295.385 124.899C295.049 125.082 294.65 125.244 294.213 125.407C293.779 125.593 293.285 125.72 292.773 125.889C292.254 126.026 291.703 126.177 291.125 126.273C290.544 126.373 289.945 126.478 289.32 126.515C288.691 126.591 288.099 126.583 287.457 126.609C286.832 126.58 286.202 126.588 285.589 126.515C284.97 126.478 284.371 126.37 283.79 126.273C283.211 126.177 282.661 126.023 282.143 125.886C281.632 125.717 281.138 125.591 280.704 125.407C280.266 125.244 279.868 125.082 279.53 124.897C279.189 124.725 278.886 124.588 278.661 124.437C278.198 124.155 277.935 123.988 277.935 123.988C277.935 123.988 278.225 124.106 278.725 124.311C278.97 124.432 279.286 124.523 279.636 124.647C279.986 124.778 280.392 124.884 280.832 125.018C281.267 125.16 281.761 125.246 282.269 125.367C282.785 125.462 283.33 125.558 283.895 125.636C284.459 125.714 285.046 125.776 285.646 125.811C286.24 125.876 286.849 125.857 287.457 125.879C288.051 125.857 288.697 125.873 289.277 125.809C289.869 125.773 290.452 125.714 291.02 125.636C291.585 125.558 292.13 125.458 292.647 125.367C293.154 125.244 293.647 125.16 294.083 125.018C294.52 124.884 294.928 124.778 295.282 124.647C295.632 124.523 295.948 124.426 296.19 124.311C296.69 124.106 296.98 123.988 296.98 123.988C296.98 123.988 296.718 124.158 296.254 124.439ZM285.889 72.1298C286.635 72.1298 287.24 72.735 287.24 73.4823C287.24 74.2296 286.635 74.8341 285.889 74.8341C285.139 74.8341 284.533 74.2296 284.533 73.4823C284.533 72.735 285.139 72.1298 285.889 72.1298ZM284.279 28.0444L283.566 27.8508C283.552 27.8454 283.535 27.8427 283.522 27.8373C282.871 26.8772 282.529 25.748 282.529 24.5516C282.529 23.4521 282.822 22.3929 283.381 21.4762C284.18 21.1054 285.199 20.8522 286.296 20.7476V28.0444H284.279ZM287.866 77.7171C287.866 78.0634 287.585 78.3458 287.24 78.3458C286.894 78.3458 286.613 78.0634 286.613 77.7171C286.613 77.3726 286.894 77.0902 287.24 77.0902C287.585 77.0902 287.866 77.3726 287.866 77.7171ZM289.519 69.2909C289.996 69.2909 290.38 69.6776 290.38 70.1561C290.38 70.6322 289.996 71.017 289.519 71.017C289.041 71.017 288.654 70.6322 288.654 70.1561C288.654 69.6776 289.041 69.2909 289.519 69.2909ZM290.638 21.1373C290.96 21.2338 291.26 21.3498 291.531 21.4762C292.09 22.3929 292.386 23.4521 292.386 24.5516C292.386 25.748 292.046 26.8772 291.397 27.8373C291.381 27.8427 291.366 27.8454 291.351 27.8508L290.638 28.0444V21.1373ZM297.551 66.0938C296.87 64.9785 296.326 63.8538 296.294 63.7818C291.317 52.5461 291.918 45.9752 291.739 42.8694V30.2735C291.902 30.2112 292.055 30.1439 292.2 30.0795C293.004 28.5713 293.485 26.6782 293.485 24.6166C293.485 22.7398 293.088 21.0029 292.408 19.5701C291.181 18.6691 289.419 18.0994 287.457 18.0994C285.499 18.0994 283.736 18.6691 282.507 19.5701C281.826 21.0029 281.43 22.7398 281.43 24.6166C281.43 26.6782 281.911 28.5713 282.717 30.0795C282.863 30.1439 283.016 30.2112 283.177 30.2735V42.8694C283 45.8858 283.548 52.1883 279.014 62.8508C279.201 63.4535 279.377 64.0909 279.543 64.7656C279.694 64.4726 279.791 64.2709 279.811 64.2281C284.207 54.3042 284.344 47.8221 284.415 44.3402C284.425 43.8078 284.436 43.3427 284.459 42.8694V31.0043H285.729V41.3049C285.713 41.7993 285.707 42.2861 285.702 42.8424C285.656 46.4853 285.575 53.2639 282.931 63.6446C282.9 63.7632 282.559 64.9859 282.137 66.1931C281.585 67.7156 281.087 69.2419 280.666 71.197C281.118 75.0793 281.368 79.9428 281.368 86.2426C281.368 96.8406 280.806 103.32 279.752 109.327C280.079 113.706 280.561 117.401 281.185 121.913C281.234 121.974 281.284 122.028 281.336 122.085C279.835 121.622 278.501 120.998 277.372 120.254C277.28 120.638 277.188 121.017 277.093 121.412L276.547 123.681C276.539 123.714 276.522 123.744 276.514 123.779C276.632 124.273 276.953 124.701 277.397 124.948C280.146 126.494 283.72 127.347 287.457 127.347C291.197 127.347 294.769 126.494 297.521 124.948C297.963 124.701 298.286 124.273 298.404 123.779C301.048 112.766 302.504 107.765 302.504 91.9745C302.504 75.2835 300.455 70.6917 297.551 66.0938Z" fill="#212224"/>
<path d="M244.975 124.439C244.748 124.59 244.446 124.727 244.107 124.899C243.772 125.082 243.374 125.244 242.935 125.407C242.5 125.593 242.007 125.72 241.497 125.889C240.975 126.026 240.427 126.177 239.846 126.273C239.265 126.373 238.668 126.478 238.042 126.515C237.416 126.591 236.821 126.583 236.182 126.609C235.552 126.58 234.926 126.588 234.313 126.515C233.692 126.478 233.092 126.37 232.512 126.273C231.934 126.177 231.385 126.023 230.863 125.886C230.352 125.717 229.861 125.591 229.425 125.407C228.987 125.244 228.589 125.082 228.253 124.897C227.911 124.725 227.61 124.588 227.384 124.437C226.922 124.155 226.656 123.988 226.656 123.988C226.656 123.988 226.946 124.106 227.446 124.311C227.69 124.432 228.008 124.523 228.36 124.647C228.707 124.778 229.115 124.884 229.554 125.018C229.989 125.16 230.484 125.246 230.99 125.367C231.506 125.462 232.052 125.558 232.616 125.636C233.181 125.714 233.767 125.776 234.366 125.811C234.963 125.876 235.571 125.857 236.182 125.879C236.773 125.857 237.421 125.873 237.999 125.809C238.59 125.773 239.174 125.714 239.741 125.636C240.308 125.558 240.851 125.458 241.368 125.367C241.879 125.244 242.368 125.16 242.806 125.018C243.241 124.884 243.65 124.778 244.003 124.647C244.355 124.523 244.672 124.426 244.914 124.311C245.414 124.106 245.704 123.988 245.704 123.988C245.704 123.988 245.441 124.158 244.975 124.439ZM225.625 119.944C223.553 111.319 222.418 105.822 222.418 91.9745C222.418 75.528 224.403 71.1188 227.209 66.6667C227.914 65.5135 228.481 64.3435 228.533 64.2281C232.928 54.3042 233.065 47.8221 233.137 44.3402C233.145 43.8078 233.157 43.3427 233.184 42.8694V31.0043H234.45V41.3049C234.434 41.7993 234.428 42.2861 234.426 42.8424C234.38 46.4853 234.297 53.2639 231.654 63.6446C231.621 63.7632 231.28 64.9859 230.858 66.1931C229.169 70.85 227.976 75.4641 227.976 92.6598C227.976 107.141 228.659 112.894 229.906 121.913C229.957 121.974 230.006 122.028 230.06 122.085C228.352 121.561 226.838 120.831 225.625 119.944ZM231.251 24.5516C231.251 23.4521 231.546 22.3929 232.103 21.4762C232.904 21.1054 233.921 20.8522 235.017 20.7476V28.0444H233L232.288 27.8508C232.275 27.8454 232.256 27.8427 232.242 27.8373C231.592 26.8772 231.251 25.748 231.251 24.5516ZM235.961 73.4823C235.961 74.2296 235.356 74.8341 234.611 74.8341C233.861 74.8341 233.257 74.2296 233.257 73.4823C233.257 72.735 233.861 72.1298 234.611 72.1298C235.356 72.1298 235.961 72.735 235.961 73.4823ZM236.588 77.7171C236.588 78.0634 236.307 78.3458 235.961 78.3458C235.617 78.3458 235.335 78.0634 235.335 77.7171C235.335 77.3726 235.617 77.0902 235.961 77.0902C236.307 77.0902 236.588 77.3726 236.588 77.7171ZM238.241 69.2909C238.717 69.2909 239.101 69.6776 239.101 70.1561C239.101 70.6322 238.717 71.017 238.241 71.017C237.763 71.017 237.375 70.6322 237.375 70.1561C237.375 69.6776 237.763 69.2909 238.241 69.2909ZM239.362 21.1373C239.682 21.2338 239.98 21.3498 240.252 21.4762C240.814 22.3929 241.107 23.4521 241.107 24.5516C241.107 25.748 240.769 26.8772 240.117 27.8373C240.104 27.8427 240.088 27.8454 240.072 27.8508L239.362 28.0444V21.1373ZM247.092 123.681L246.554 121.441C246.455 121.036 246.363 120.651 246.266 120.259C245.535 120.738 244.731 121.176 243.836 121.544C244.25 119.03 244.611 116.76 244.917 114.47C243.202 106.711 242.274 99.8794 242.274 86.2426C242.274 78.1441 242.685 72.4172 243.411 68.0942C243.166 67.4487 242.908 66.8281 242.637 66.2093C242.123 64.9859 241.715 63.7632 241.68 63.6415C238.507 53.2639 238.408 46.4853 238.357 42.8424C238.349 42.2861 238.337 41.7993 238.321 41.3749V31.0043H239.209V42.934C239.236 43.3427 239.241 43.8078 239.255 44.3402C239.327 47.8221 239.464 54.3042 243.858 64.2281C243.876 64.2709 243.968 64.4565 244.107 64.7308C244.272 64.0717 244.444 63.4479 244.624 62.8595C240.088 52.1937 240.636 45.8858 240.461 42.8694V30.2735C240.626 30.2112 240.777 30.1439 240.921 30.0795C241.725 28.5713 242.209 26.6782 242.209 24.6166C242.209 22.7398 241.809 21.0029 241.131 19.5701C239.905 18.6691 238.141 18.0994 236.182 18.0994C234.221 18.0994 232.457 18.6691 231.229 19.5701C230.549 21.0029 230.151 22.7398 230.151 24.6166C230.151 26.6782 230.632 28.5713 231.439 30.0795C231.584 30.1439 231.737 30.2112 231.901 30.2735V42.8694C231.715 45.9752 232.32 52.5461 227.341 63.7818C227.312 63.8538 226.766 64.9785 226.088 66.0938C223.184 70.6917 221.136 75.2835 221.136 91.9745C221.136 107.765 222.59 112.766 225.236 123.779C225.354 124.273 225.674 124.701 226.121 124.948C228.868 126.494 232.442 127.347 236.182 127.347C239.921 127.347 243.491 126.494 246.242 124.948C246.686 124.701 247.009 124.273 247.127 123.779C247.119 123.744 247.099 123.714 247.092 123.681Z" fill="#212224"/>
<path d="M243.899 54.4167C245.401 54.5783 246.926 54.7236 248.477 54.8444C249.086 53.8144 249.59 52.7958 249.661 52.6424C249.931 52.0292 250.183 51.4351 250.426 50.8491C247.891 50.6767 245.422 50.4484 243.022 50.1687C243.213 51.4378 243.493 52.8522 243.899 54.4167Z" fill="#212224"/>
<path d="M309.582 42.0841L308.141 42.8609C304.444 44.856 299.626 46.5419 294.015 47.8701C294.12 49.0692 294.295 50.4267 294.596 51.9592C300.029 50.6961 304.796 49.1094 308.636 47.2461L316.057 55.6266C309.989 63.8943 308.262 73.1479 307.816 84.9543L307.778 93.7516C301.129 90.7991 283.07 88.6833 261.819 88.6833C240.744 88.6833 222.8 90.7644 216.021 93.679V93.0174L215.95 88.0384L215.889 87.1508C215.571 74.2862 214.022 64.402 207.58 55.6266L215 47.2461C218.837 49.1094 223.604 50.6928 229.038 51.9565C229.338 50.4245 229.514 49.0665 229.617 47.8673C224.006 46.5392 219.191 44.8532 215.496 42.8609L214.056 42.0841L202.203 55.4682L203.296 56.8284C209.969 65.1201 211.454 74.3315 211.765 87.4351L211.891 93.0441L211.889 130.755C211.636 135.834 212.164 140.749 213.504 145.779C217.651 161.346 229.318 164.804 240.61 168.148C247.822 170.286 255.279 172.499 260.324 177.792L261.819 179.36L263.314 177.792C268.358 172.496 275.813 170.288 283.029 168.148C294.313 164.804 305.986 161.346 310.133 145.777C311.472 140.743 312.002 135.841 311.752 130.83L311.814 89.8234L311.873 87.4351C312.185 74.329 313.669 65.1176 320.342 56.8284L321.436 55.4682L309.582 42.0841Z" fill="#212224"/>
<path d="M273.205 50.8518C273.449 51.4378 273.7 52.0347 273.971 52.6478C273.974 52.6478 274.488 53.7125 275.159 54.8444C276.708 54.7236 278.232 54.581 279.733 54.4167C280.139 52.8522 280.419 51.4405 280.609 50.1687C278.211 50.4484 275.74 50.6799 273.205 50.8518Z" fill="#212224"/>
<path d="M251.227 48.8325C251.402 48.3674 251.563 47.9185 251.719 47.4724C248.606 47.2761 245.57 47.0045 242.661 46.6467C242.685 47.0934 242.726 47.5716 242.771 48.0719C245.489 48.3972 248.32 48.6471 251.227 48.8325Z" fill="#FAB544"/>
<path d="M310.076 37.4514L309.565 37.8601C306.317 40.4525 300.802 42.6784 293.85 44.3611C293.858 44.8024 293.871 45.2838 293.89 45.8025C300.819 44.1464 306.382 41.9417 309.904 39.3336L324.248 55.5296C315.52 64.5369 313.923 74.3019 313.878 92.2535L313.813 92.2436V130.689C314.077 135.955 313.525 141.066 312.13 146.308C307.683 162.997 295.45 166.622 283.62 170.127C274.642 172.789 266.138 175.308 261.82 183.364C257.499 175.308 248.996 172.789 240.018 170.127C228.188 166.622 215.955 162.997 211.511 146.308C210.113 141.066 209.561 135.955 209.828 130.653V93.0548L209.763 92.2535H209.761C209.715 74.3019 208.121 64.5369 199.39 55.5296L213.734 39.3336C217.256 41.9417 222.82 44.1437 229.745 45.8025C229.767 45.2838 229.777 44.8024 229.785 44.3611C222.835 42.6784 217.32 40.4525 214.073 37.8601L213.562 37.4514L197.505 55.5839L197.963 56.0435C206.881 64.967 208.386 74.6755 208.386 93.066L208.451 93.8673V130.618C208.18 136.03 208.746 141.278 210.18 146.664C214.826 164.099 228.003 168.003 239.629 171.447C248.751 174.152 257.37 176.704 261.191 185.205L261.82 186.6L262.446 185.205C266.27 176.704 274.888 174.152 284.013 171.447C295.638 168.003 308.815 164.099 313.461 146.664C314.894 141.278 315.458 136.03 315.19 130.653V93.8673L315.254 93.8778V93.066C315.254 74.6755 316.757 64.967 325.675 56.0435L326.135 55.5839L310.076 37.4514Z" fill="#FAB544"/>
<path d="M271.913 47.4724C272.072 47.9185 272.231 48.3674 272.408 48.8325C275.315 48.6471 278.146 48.3972 280.864 48.0719C280.909 47.5716 280.95 47.0934 280.977 46.6467C278.066 47.0045 275.029 47.2788 271.913 47.4724Z" fill="#FAB544"/>
<path d="M265.405 158.787L264.363 157.747L261.543 160.565L258.722 157.747L257.68 158.787L260.501 161.611L257.68 164.431L258.722 165.472L261.543 162.652L264.363 165.472L265.405 164.431L262.585 161.611L265.405 158.787Z" fill="white"/>
<path d="M248.608 128.397C248.608 129.023 248.764 129.335 249.078 129.335C249.248 129.335 250.073 128.966 251.552 128.226L252.364 129.805C249.803 132.109 247.542 133.261 245.578 133.261C244.355 133.261 243.416 132.849 242.762 132.024C242.136 131.199 241.823 130.175 241.823 128.951C241.823 127.728 242.506 124.386 243.872 118.923C245.266 113.433 246.033 109.663 246.175 107.615C246.175 107.159 246.019 106.619 245.706 105.993C245.422 105.339 245.123 104.813 244.81 104.414L244.384 103.817L244.511 103.177C246.133 102.693 248.807 102.451 252.534 102.451C252.876 103.106 253.046 104.059 253.046 105.311C253.046 106.534 252.306 110.104 250.827 116.021C249.348 121.939 248.608 126.064 248.608 128.397ZM256.255 132.92H255.444C255.558 131.64 256.312 127.884 257.706 121.654C259.1 115.396 259.967 110.716 260.309 107.615C260.309 107.159 260.152 106.619 259.839 105.993C259.555 105.339 259.256 104.813 258.943 104.414L258.517 103.817L258.645 103.177C260.238 102.693 262.983 102.451 266.88 102.451C267.25 103.134 267.435 103.803 267.435 104.457C267.435 105.111 267.378 105.922 267.265 106.889C270.821 103.931 273.723 102.451 275.97 102.451C277.449 102.451 278.644 102.935 279.554 103.902C280.465 104.869 280.92 106.221 280.92 107.956C280.92 109.692 280.309 113.006 279.085 117.899C277.89 122.764 277.293 126.163 277.293 128.098C277.293 128.923 277.436 129.335 277.72 129.335C277.975 129.335 278.687 129.051 279.853 128.482L280.408 128.226L281.261 129.805C280.067 130.829 278.829 131.669 277.549 132.323C276.269 132.948 275.102 133.261 274.05 133.261C273.026 133.261 272.187 132.892 271.532 132.152C270.878 131.384 270.55 130.36 270.55 129.08C270.55 127.771 271.134 124.542 272.3 119.393C273.495 114.243 274.093 110.957 274.093 109.535C274.093 108.113 273.538 107.402 272.428 107.402C270.75 107.402 268.844 108.241 266.71 109.919C266.397 111.427 265.813 113.945 264.96 117.473C263.082 125.239 262.144 130.104 262.144 132.066C261.034 132.636 259.071 132.92 256.255 132.92Z" fill="#FAB544"/>
<path d="M224.114 149.319H223.933C223.958 149.034 224.127 148.197 224.437 146.808C224.748 145.412 224.942 144.368 225.018 143.676C225.018 143.575 224.983 143.455 224.914 143.315C224.85 143.169 224.783 143.052 224.714 142.963L224.618 142.83L224.647 142.687C225.002 142.579 225.614 142.525 226.484 142.525C226.566 142.677 226.607 142.827 226.607 142.972C226.607 143.118 226.594 143.299 226.569 143.515C227.362 142.855 228.009 142.525 228.51 142.525C228.841 142.525 229.107 142.633 229.31 142.848C229.513 143.064 229.614 143.365 229.614 143.753C229.614 144.14 229.478 144.879 229.205 145.97C228.939 147.055 228.806 147.813 228.806 148.244C228.806 148.428 228.837 148.521 228.901 148.521C228.958 148.521 229.117 148.457 229.377 148.33L229.5 148.273L229.691 148.625C229.424 148.853 229.148 149.041 228.863 149.187C228.577 149.326 228.317 149.396 228.082 149.396C227.854 149.396 227.667 149.313 227.521 149.148C227.375 148.977 227.302 148.749 227.302 148.464C227.302 148.171 227.432 147.451 227.692 146.303C227.959 145.155 228.092 144.422 228.092 144.105C228.092 143.787 227.968 143.629 227.721 143.629C227.347 143.629 226.921 143.816 226.445 144.19C226.376 144.527 226.245 145.088 226.056 145.875C225.637 147.607 225.427 148.692 225.427 149.13C225.18 149.256 224.742 149.319 224.114 149.319ZM232.061 145.656C232.061 145.923 231.976 146.382 231.804 147.036C231.633 147.683 231.547 148.108 231.547 148.311C231.547 148.508 231.576 148.606 231.633 148.606C231.671 148.606 231.817 148.545 232.071 148.425L232.185 148.368L232.347 148.701C232.29 148.752 232.214 148.815 232.118 148.892C232.023 148.968 231.846 149.072 231.586 149.205C231.326 149.332 231.084 149.396 230.863 149.396C230.64 149.396 230.466 149.329 230.339 149.196C230.212 149.056 230.149 148.873 230.149 148.644C230.149 148.41 230.228 147.997 230.387 147.407C230.545 146.811 230.624 146.423 230.624 146.246C230.624 145.98 230.542 145.729 230.377 145.494L230.292 145.38L230.301 145.257C230.637 145.161 231.183 145.114 231.938 145.114C232.02 145.209 232.061 145.389 232.061 145.656ZM230.977 144.076C230.85 143.949 230.786 143.781 230.786 143.572C230.786 143.362 230.872 143.179 231.043 143.02C231.221 142.861 231.424 142.782 231.652 142.782C231.881 142.782 232.058 142.845 232.185 142.972C232.312 143.099 232.375 143.267 232.375 143.476C232.375 143.679 232.283 143.861 232.1 144.019C231.922 144.178 231.722 144.257 231.5 144.257C231.278 144.257 231.103 144.197 230.977 144.076ZM233.883 150.309C233.674 150.437 233.569 150.56 233.569 150.681C233.569 150.801 233.636 150.861 233.769 150.861C233.909 150.861 234.064 150.795 234.235 150.661C234.407 150.535 234.549 150.326 234.664 150.033C234.36 150.09 234.099 150.183 233.883 150.309ZM236.71 145.132C236.735 145.158 236.748 145.215 236.748 145.304C236.748 145.386 236.742 145.478 236.729 145.58C236.716 145.675 236.694 145.894 236.662 146.237C236.631 146.579 236.599 146.877 236.567 147.131C236.243 149.986 235.374 151.414 233.96 151.414C233.731 151.414 233.522 151.353 233.332 151.232C233.147 151.112 233.055 150.957 233.055 150.766C233.055 150.512 233.211 150.281 233.522 150.072C233.833 149.862 234.252 149.701 234.778 149.586C234.778 149.58 234.797 149.491 234.835 149.319C234.873 149.148 234.898 149.009 234.911 148.901C234.531 149.18 234.172 149.319 233.836 149.319C233.506 149.319 233.233 149.19 233.018 148.93C232.808 148.67 232.704 148.254 232.704 147.683C232.704 146.934 232.872 146.312 233.208 145.818C233.544 145.317 233.988 145.066 234.54 145.066C234.851 145.066 235.159 145.142 235.463 145.294C235.786 145.18 236.136 145.123 236.51 145.123L236.71 145.132ZM234.968 145.627C234.695 145.627 234.48 145.849 234.321 146.294C234.163 146.731 234.083 147.22 234.083 147.759C234.083 148.292 234.204 148.559 234.445 148.559C234.603 148.559 234.791 148.498 235.006 148.378C235.184 147.312 235.311 146.433 235.387 145.741C235.209 145.666 235.07 145.627 234.968 145.627ZM238.203 143.001C238.203 142.791 238.184 142.642 238.146 142.554C238.64 142.382 239.107 142.297 239.545 142.297C239.602 142.354 239.63 142.5 239.63 142.734C239.63 143.153 239.453 144.118 239.097 145.627C239.611 145.253 240.062 145.066 240.449 145.066C240.69 145.066 240.87 145.142 240.991 145.294C241.118 145.446 241.181 145.649 241.181 145.903C241.181 146.151 241.109 146.56 240.963 147.131C240.817 147.696 240.744 148.082 240.744 148.292C240.744 148.501 240.769 148.606 240.82 148.606C240.87 148.606 241.004 148.549 241.22 148.435L241.334 148.378L241.505 148.711C241.448 148.761 241.372 148.825 241.277 148.901C241.181 148.977 241.007 149.079 240.753 149.205C240.499 149.332 240.265 149.396 240.049 149.396C239.839 149.396 239.672 149.329 239.545 149.196C239.418 149.056 239.354 148.873 239.354 148.644C239.354 148.41 239.424 147.988 239.564 147.379C239.71 146.763 239.782 146.376 239.782 146.217C239.782 146.052 239.716 145.97 239.582 145.97C239.418 145.97 239.211 146.04 238.964 146.179C238.615 147.714 238.44 148.711 238.44 149.167C238.174 149.269 237.72 149.319 237.08 149.319C237.074 149.212 237.071 149.116 237.071 149.034C237.071 148.761 237.257 147.829 237.632 146.237C238.013 144.644 238.203 143.565 238.203 143.001ZM244.789 145.18C244.776 145.338 244.722 145.523 244.627 145.732C244.386 145.707 244.158 145.694 243.942 145.694H243.771C243.479 147.109 243.333 147.991 243.333 148.339C243.333 148.524 243.371 148.616 243.447 148.616C243.53 148.616 243.742 148.536 244.085 148.378L244.256 148.692C243.691 149.161 243.168 149.396 242.686 149.396C242.464 149.396 242.28 149.326 242.134 149.187C241.994 149.047 241.925 148.863 241.925 148.635C241.925 148.4 241.95 148.136 242.001 147.845C242.058 147.553 242.134 147.197 242.229 146.779C242.325 146.354 242.394 146.011 242.439 145.751C242.204 145.77 242.029 145.789 241.915 145.808C241.903 145.732 241.896 145.631 241.896 145.504C241.896 145.371 241.906 145.263 241.925 145.18H242.524C242.575 144.838 242.6 144.514 242.6 144.209L242.591 143.915V143.886C243.086 143.715 243.552 143.629 243.99 143.629C244.015 143.756 244.028 143.915 244.028 144.105C244.028 144.295 243.974 144.653 243.866 145.18H244.789ZM247.557 148.035C247.557 148.435 247.38 148.761 247.025 149.015C246.675 149.269 246.276 149.396 245.826 149.396C245.375 149.396 245.016 149.301 244.75 149.11C244.49 148.92 244.36 148.752 244.36 148.606C244.36 148.517 244.471 148.374 244.693 148.178C244.915 147.974 245.102 147.851 245.255 147.807C245.572 148.041 245.832 148.413 246.035 148.92C246.27 148.901 246.387 148.79 246.387 148.587C246.387 148.295 246.13 147.883 245.616 147.35C245.102 146.811 244.845 146.382 244.845 146.065C244.845 145.748 244.988 145.504 245.273 145.332C245.559 145.155 245.902 145.066 246.301 145.066C246.708 145.066 247.012 145.139 247.215 145.285C247.418 145.424 247.52 145.618 247.52 145.865C247.52 146.106 247.326 146.443 246.939 146.874C246.983 146.919 247.04 146.979 247.111 147.055C247.18 147.125 247.272 147.261 247.386 147.464C247.5 147.667 247.557 147.857 247.557 148.035ZM246.644 146.541C246.911 146.312 247.044 146.088 247.044 145.865C247.044 145.643 246.891 145.532 246.587 145.532C246.441 145.532 246.32 145.564 246.225 145.627C246.13 145.684 246.083 145.751 246.083 145.827C246.083 145.967 246.222 146.163 246.501 146.417L246.644 146.541ZM250.913 142.525L254.092 142.63L254.987 142.611C255.005 142.744 255.015 142.884 255.015 143.03C255.015 143.175 254.99 143.28 254.939 143.344C254.888 143.407 254.796 143.439 254.663 143.439C254.65 143.439 254.203 143.398 253.321 143.315C253.296 143.601 253.201 144.089 253.036 144.78C252.871 145.472 252.712 146.211 252.56 146.998C252.408 147.785 252.329 148.492 252.322 149.12C252.075 149.247 251.567 149.31 250.799 149.31H250.733C250.733 148.981 250.913 147.997 251.275 146.36C251.637 144.723 251.818 143.727 251.818 143.372C251.818 143.347 251.812 143.302 251.798 143.239H251.418C250.898 143.239 250.498 143.318 250.219 143.476C250.073 143.287 249.984 143.007 249.953 142.639C250.168 142.563 250.489 142.525 250.913 142.525ZM255.317 149.396C254.88 149.396 254.537 149.244 254.289 148.939C254.042 148.628 253.918 148.197 253.918 147.645C253.918 146.94 254.105 146.335 254.48 145.827C254.86 145.32 255.383 145.066 256.049 145.066L256.392 145.085C256.5 145.028 256.62 145 256.754 145C257.255 145 257.506 145.472 257.506 146.417C257.766 146.405 258.029 146.369 258.296 146.312L258.448 146.274L258.505 146.646C258.296 146.734 258.013 146.814 257.658 146.883L257.468 146.922C257.347 147.588 257.103 148.168 256.735 148.663C256.367 149.152 255.894 149.396 255.317 149.396ZM255.831 148.578C256.097 148.578 256.335 148.406 256.545 148.064C256.76 147.721 256.91 147.359 256.992 146.979C256.313 146.979 255.974 146.725 255.974 146.217C255.974 146.014 256.015 145.824 256.097 145.646L256.145 145.551C256.12 145.538 256.088 145.532 256.049 145.532C256.012 145.532 255.983 145.538 255.964 145.551C255.806 145.653 255.657 145.891 255.517 146.265C255.377 146.639 255.308 147.068 255.308 147.55C255.308 148.235 255.482 148.578 255.831 148.578ZM260.165 149.329C260.044 149.329 259.962 149.326 259.917 149.319C259.962 148.952 260.155 148.019 260.497 146.522C260.847 145.018 261.021 144.067 261.021 143.667C261.021 143.591 260.976 143.493 260.888 143.372C260.799 143.245 260.71 143.141 260.621 143.058L260.497 142.925L260.526 142.773C261.395 142.608 262.315 142.525 263.286 142.525C264.453 142.525 265.037 142.985 265.037 143.905C265.037 144.355 264.923 144.767 264.694 145.142C264.472 145.51 264.123 145.798 263.647 146.008C264.003 147.194 264.307 147.962 264.561 148.311C264.675 148.457 264.764 148.53 264.828 148.53C264.942 148.53 265.119 148.473 265.36 148.359L265.474 148.302L265.693 148.653C265.459 148.869 265.186 149.047 264.875 149.187C264.571 149.326 264.282 149.396 264.009 149.396C263.743 149.396 263.52 149.282 263.343 149.053C263.172 148.819 263.013 148.476 262.867 148.025C262.727 147.575 262.585 146.998 262.439 146.294C262.236 146.306 262.081 146.312 261.973 146.312C261.649 147.702 261.472 148.641 261.439 149.13C261.167 149.262 260.742 149.329 260.165 149.329ZM262.344 145.666C262.724 145.666 263.023 145.497 263.238 145.161C263.46 144.818 263.571 144.412 263.571 143.943C263.571 143.696 263.527 143.496 263.438 143.344C263.349 143.191 263.216 143.115 263.038 143.115C262.962 143.115 262.87 143.128 262.763 143.153C262.661 143.172 262.61 143.185 262.61 143.191C262.509 143.845 262.344 144.669 262.115 145.666H262.344ZM265.768 147.636C265.768 146.842 266.006 146.217 266.482 145.761C266.964 145.298 267.51 145.066 268.118 145.066C268.493 145.066 268.801 145.158 269.041 145.342C269.282 145.526 269.403 145.774 269.403 146.084C269.403 146.389 269.324 146.646 269.165 146.855C269.013 147.065 268.826 147.226 268.604 147.34C268.153 147.562 267.741 147.702 267.367 147.759L267.138 147.788C267.182 148.384 267.427 148.682 267.871 148.682C268.023 148.682 268.185 148.644 268.356 148.568C268.527 148.492 268.661 148.416 268.756 148.339L268.899 148.225L269.127 148.53C269.076 148.599 268.975 148.692 268.822 148.806C268.67 148.92 268.527 149.015 268.394 149.091C268.027 149.295 267.623 149.396 267.186 149.396C266.748 149.396 266.402 149.241 266.148 148.93C265.895 148.619 265.768 148.187 265.768 147.636ZM267.128 147.322C267.452 147.264 267.709 147.128 267.899 146.912C268.09 146.696 268.185 146.417 268.185 146.075C268.185 145.732 268.084 145.561 267.88 145.561C267.639 145.561 267.452 145.767 267.319 146.179C267.192 146.585 267.128 146.966 267.128 147.322ZM269.864 149.31H269.683C269.683 149.012 269.772 148.441 269.949 147.597C270.133 146.754 270.226 146.274 270.226 146.16C270.226 145.951 270.137 145.729 269.959 145.494L269.873 145.38L269.883 145.257C270.226 145.161 270.774 145.114 271.529 145.114C271.618 145.234 271.662 145.431 271.662 145.703C272.233 145.278 272.687 145.066 273.023 145.066C273.448 145.066 273.699 145.285 273.775 145.723C273.946 145.583 274.168 145.44 274.441 145.294C274.72 145.142 274.968 145.066 275.183 145.066C275.406 145.066 275.589 145.139 275.735 145.285C275.881 145.424 275.954 145.621 275.954 145.875C275.954 146.129 275.884 146.548 275.745 147.131C275.606 147.714 275.535 148.108 275.535 148.311C275.535 148.508 275.564 148.606 275.621 148.606C275.659 148.606 275.789 148.545 276.011 148.425L276.116 148.368L276.287 148.701C276.123 148.866 275.897 149.025 275.612 149.177C275.332 149.323 275.085 149.396 274.869 149.396C274.393 149.396 274.156 149.126 274.156 148.587C274.156 148.39 274.222 147.997 274.356 147.407C274.495 146.811 274.565 146.423 274.565 146.246C274.565 146.062 274.511 145.97 274.403 145.97C274.219 145.97 274.01 146.04 273.775 146.179C273.762 146.306 273.673 146.737 273.508 147.474C273.35 148.21 273.271 148.781 273.271 149.187C273.087 149.269 272.655 149.31 271.976 149.31C271.963 149.241 271.957 149.072 271.957 148.806C271.957 148.539 272.03 148.086 272.176 147.445C272.328 146.804 272.405 146.398 272.405 146.227C272.405 146.055 272.345 145.97 272.224 145.97C272.034 145.97 271.824 146.046 271.595 146.198C271.583 146.255 271.52 146.535 271.405 147.036C271.177 148.038 271.063 148.752 271.063 149.177C270.841 149.266 270.441 149.31 269.864 149.31ZM276.557 147.636C276.557 146.842 276.795 146.217 277.271 145.761C277.753 145.298 278.299 145.066 278.908 145.066C279.282 145.066 279.59 145.158 279.831 145.342C280.072 145.526 280.192 145.774 280.192 146.084C280.192 146.389 280.113 146.646 279.955 146.855C279.803 147.065 279.615 147.226 279.393 147.34C278.943 147.562 278.53 147.702 278.156 147.759L277.927 147.788C277.972 148.384 278.216 148.682 278.66 148.682C278.813 148.682 278.975 148.644 279.146 148.568C279.317 148.492 279.45 148.416 279.546 148.339L279.688 148.225L279.917 148.53C279.866 148.599 279.764 148.692 279.612 148.806C279.46 148.92 279.317 149.015 279.184 149.091C278.816 149.295 278.413 149.396 277.975 149.396C277.538 149.396 277.192 149.241 276.938 148.93C276.684 148.619 276.557 148.187 276.557 147.636ZM277.918 147.322C278.242 147.264 278.498 147.128 278.689 146.912C278.88 146.696 278.975 146.417 278.975 146.075C278.975 145.732 278.873 145.561 278.67 145.561C278.429 145.561 278.242 145.767 278.109 146.179C277.981 146.585 277.918 146.966 277.918 147.322ZM280.653 149.31H280.472C280.472 149.012 280.562 148.441 280.739 147.597C280.923 146.754 281.015 146.274 281.015 146.16C281.015 145.951 280.926 145.729 280.748 145.494L280.663 145.38L280.672 145.257C281.015 145.161 281.564 145.114 282.319 145.114C282.407 145.234 282.452 145.431 282.452 145.703C283.023 145.278 283.476 145.066 283.813 145.066C284.238 145.066 284.489 145.285 284.564 145.723C284.736 145.583 284.958 145.44 285.231 145.294C285.51 145.142 285.757 145.066 285.973 145.066C286.195 145.066 286.379 145.139 286.525 145.285C286.671 145.424 286.743 145.621 286.743 145.875C286.743 146.129 286.674 146.548 286.534 147.131C286.395 147.714 286.325 148.108 286.325 148.311C286.325 148.508 286.354 148.606 286.411 148.606C286.449 148.606 286.579 148.545 286.801 148.425L286.905 148.368L287.077 148.701C286.912 148.866 286.686 149.025 286.401 149.177C286.122 149.323 285.875 149.396 285.659 149.396C285.183 149.396 284.945 149.126 284.945 148.587C284.945 148.39 285.012 147.997 285.145 147.407C285.284 146.811 285.354 146.423 285.354 146.246C285.354 146.062 285.3 145.97 285.192 145.97C285.009 145.97 284.8 146.04 284.564 146.179C284.552 146.306 284.463 146.737 284.298 147.474C284.14 148.21 284.06 148.781 284.06 149.187C283.876 149.269 283.445 149.31 282.766 149.31C282.753 149.241 282.747 149.072 282.747 148.806C282.747 148.539 282.82 148.086 282.966 147.445C283.118 146.804 283.194 146.398 283.194 146.227C283.194 146.055 283.134 145.97 283.013 145.97C282.823 145.97 282.614 146.046 282.385 146.198C282.373 146.255 282.309 146.535 282.195 147.036C281.967 148.038 281.853 148.752 281.853 149.177C281.63 149.266 281.231 149.31 280.653 149.31ZM289.85 142.639C289.85 143.121 289.688 144.067 289.365 145.475C289.745 145.203 290.088 145.066 290.392 145.066C290.703 145.066 290.967 145.196 291.182 145.456C291.404 145.71 291.515 146.1 291.515 146.626C291.515 147.508 291.341 148.19 290.992 148.673C290.649 149.155 290.23 149.396 289.736 149.396C289.551 149.396 289.365 149.373 289.174 149.329C288.99 149.285 288.851 149.238 288.755 149.187L288.612 149.12C288.206 149.259 287.81 149.329 287.423 149.329C287.385 149.298 287.366 149.145 287.366 148.873C287.366 148.593 287.544 147.68 287.899 146.132C288.254 144.578 288.432 143.515 288.432 142.944C288.432 142.842 288.416 142.712 288.384 142.554C288.879 142.382 289.352 142.297 289.802 142.297C289.834 142.385 289.85 142.5 289.85 142.639ZM289.764 145.875C289.643 145.875 289.463 145.932 289.222 146.046C288.929 147.277 288.771 148.159 288.746 148.692C288.936 148.774 289.117 148.815 289.288 148.815C289.529 148.815 289.729 148.593 289.888 148.149C290.053 147.705 290.135 147.217 290.135 146.683C290.135 146.145 290.011 145.875 289.764 145.875ZM291.919 147.636C291.919 146.842 292.157 146.217 292.633 145.761C293.115 145.298 293.661 145.066 294.27 145.066C294.644 145.066 294.952 145.158 295.193 145.342C295.434 145.526 295.555 145.774 295.555 146.084C295.555 146.389 295.475 146.646 295.317 146.855C295.164 147.065 294.977 147.226 294.755 147.34C294.304 147.562 293.892 147.702 293.518 147.759L293.29 147.788C293.334 148.384 293.578 148.682 294.022 148.682C294.175 148.682 294.336 148.644 294.507 148.568C294.679 148.492 294.812 148.416 294.907 148.339L295.05 148.225L295.278 148.53C295.228 148.599 295.126 148.692 294.974 148.806C294.822 148.92 294.679 149.015 294.546 149.091C294.178 149.295 293.775 149.396 293.337 149.396C292.899 149.396 292.554 149.241 292.3 148.93C292.046 148.619 291.919 148.187 291.919 147.636ZM293.28 147.322C293.604 147.264 293.861 147.128 294.051 146.912C294.241 146.696 294.336 146.417 294.336 146.075C294.336 145.732 294.235 145.561 294.032 145.561C293.791 145.561 293.604 145.767 293.47 146.179C293.344 146.585 293.28 146.966 293.28 147.322ZM295.949 149.31H295.882C295.869 149.259 295.863 149.145 295.863 148.968C295.863 148.784 295.949 148.295 296.12 147.502C296.291 146.709 296.377 146.255 296.377 146.141C296.377 145.945 296.288 145.729 296.111 145.494L296.025 145.38L296.034 145.257C296.377 145.161 296.926 145.114 297.68 145.114C297.757 145.278 297.795 145.51 297.795 145.808C297.865 145.694 298.011 145.541 298.233 145.352C298.454 145.161 298.683 145.066 298.918 145.066C299.261 145.066 299.432 145.364 299.432 145.96C299.4 145.998 299.356 146.049 299.298 146.112C299.248 146.17 299.14 146.252 298.975 146.36C298.816 146.468 298.661 146.535 298.508 146.56C298.502 146.56 298.448 146.474 298.347 146.303C298.245 146.132 298.169 146.046 298.119 146.046C297.96 146.103 297.82 146.198 297.7 146.332C297.408 147.645 297.262 148.495 297.262 148.882C297.262 149.022 297.265 149.12 297.271 149.177C297.049 149.266 296.608 149.31 295.949 149.31Z" fill="white"/>
</svg>
