<svg width="21" height="20" viewBox="0 0 21 20" fill="none" xmlns="http://www.w3.org/2000/svg">
<path d="M20.2687 13.1963C20.2687 15.2075 20.2693 17.2185 20.2656 19.2298C20.2656 19.3066 20.2936 19.378 20.2515 19.4684C20.1245 19.7439 19.8574 19.8036 19.5999 19.6237C19.4202 19.4981 19.2401 19.3711 19.0542 19.2527C18.8437 19.1189 18.6448 18.9673 18.4388 18.8267C18.309 18.7379 18.1644 18.6659 18.0458 18.5651C17.8749 18.4197 17.6658 18.3317 17.4952 18.1859C17.3858 18.092 17.2489 18.0292 17.1282 17.947C16.9714 17.8402 16.8198 17.7254 16.6633 17.6179C16.4935 17.5015 16.3145 17.3968 16.15 17.2735C15.9735 17.1414 15.7534 17.0513 15.6531 16.8393C15.598 16.7229 15.5464 16.6079 15.5464 16.4692C15.5507 13.5684 15.5461 10.6678 15.5538 7.76697C15.5549 7.38738 15.3874 7.13443 15.0756 6.93678C14.8338 6.78352 14.6095 6.60465 14.3664 6.45411C13.9878 6.21959 13.6327 5.95334 13.2621 5.70755C12.9772 5.51844 12.6979 5.32114 12.4123 5.13236C12.1393 4.95214 11.8635 4.77428 11.5996 4.58346C11.3417 4.39675 11.0779 4.21719 10.8151 4.03832C10.5838 3.88095 10.3571 3.71471 10.1157 3.56997C9.90486 3.44367 9.70907 3.29381 9.50625 3.15454C9.32273 3.02892 9.13957 2.90329 8.95536 2.77869C8.78868 2.66571 8.62272 2.55101 8.4557 2.43837C8.24061 2.29329 8.02551 2.14685 7.81603 1.99324C7.57778 1.81846 7.59217 1.55288 7.81252 1.39551C8.20903 1.11287 8.61606 0.844563 9.01852 0.569768C9.25467 0.408307 9.48835 0.243089 9.72732 0.0857225C9.93187 -0.0487727 10.3845 -0.0173678 10.5866 0.126686C10.761 0.250939 10.9466 0.35915 11.1231 0.480675C11.3305 0.623363 11.5316 0.774925 11.7389 0.917613C11.9151 1.0388 12.0982 1.15076 12.2754 1.27058C12.4495 1.38801 12.6193 1.51158 12.7927 1.63002C13.0102 1.77886 13.2295 1.92497 13.4478 2.07312C13.6176 2.18849 13.7864 2.30524 13.9568 2.42027C14.0892 2.50937 14.2242 2.59471 14.3558 2.68483C14.5776 2.83673 14.7955 2.9941 15.0186 3.14429C15.1916 3.26035 15.3674 3.37437 15.5359 3.49486C15.7114 3.62015 15.8949 3.73519 16.0668 3.86558C16.2274 3.98745 16.4039 4.08986 16.572 4.20319C16.7475 4.3213 16.9208 4.44282 17.096 4.56196C17.2675 4.6787 17.4402 4.79476 17.6121 4.91082C17.7727 5.01938 17.9338 5.12793 18.0942 5.23716C18.3335 5.39999 18.5724 5.56317 18.8107 5.72701C18.9697 5.83626 19.1265 5.94855 19.2861 6.05711C19.4564 6.17317 19.6311 6.2824 19.7991 6.40154C19.9669 6.52033 20.1465 6.63299 20.2146 6.83984C20.2476 6.93986 20.2711 7.04329 20.2683 7.15014C20.2672 7.18461 20.268 7.21875 20.268 7.25323C20.2687 9.2338 20.2687 11.215 20.2687 13.1963Z" fill="#186AB4"/>
<path d="M12.2707 14.2865C12.2707 15.9819 12.2672 17.6773 12.2742 19.3729C12.2752 19.6609 11.9881 19.7642 11.8032 19.7142C11.6274 19.6667 11.4947 19.5457 11.3551 19.4441C11.1823 19.3186 11.003 19.2038 10.8289 19.0804C10.5621 18.8911 10.293 18.7053 10.0207 18.5236C9.82305 18.3917 9.63025 18.2525 9.4302 18.1233C9.17831 17.96 8.94163 17.7739 8.69528 17.602C8.51008 17.4729 8.31867 17.3525 8.13209 17.2253C7.91821 17.079 7.71124 16.9219 7.6411 16.6591C7.6221 16.5881 7.58443 16.5097 7.61934 16.4262C7.63315 16.3931 7.62313 16.3497 7.62313 16.3112C7.62313 14.148 7.62313 11.9845 7.62348 9.82128C7.62348 9.4824 7.45797 9.24579 7.175 9.06544C6.90272 8.89191 6.64325 8.69859 6.37754 8.51484C6.14777 8.35596 5.91593 8.19981 5.68685 8.03992C5.46641 7.8865 5.25391 7.72081 5.0269 7.57727C4.65513 7.34237 4.31204 7.06791 3.94233 6.83029C3.71636 6.68505 3.51008 6.50947 3.2803 6.37105C2.99595 6.19956 2.74545 5.98239 2.46143 5.81056C2.32599 5.72873 2.17811 5.6302 2.16877 5.44508C2.15876 5.24564 2.28729 5.13653 2.44311 5.03289C2.6259 4.91118 2.81178 4.79356 2.98143 4.65105C3.12207 4.53274 3.28722 4.44274 3.44029 4.33842C3.67317 4.17953 3.90604 4.02032 4.13719 3.85872C4.35798 3.70462 4.604 3.65689 4.85656 3.73701C4.99201 3.77997 5.10949 3.87986 5.23179 3.9593C5.42875 4.08681 5.63123 4.20852 5.81642 4.35138C5.99264 4.48741 6.17783 4.6098 6.35888 4.73867C6.58865 4.90197 6.82118 5.06154 7.05164 5.22381C7.28073 5.38508 7.5098 5.54702 7.74268 5.70078C8.11792 5.94864 8.47794 6.21763 8.85352 6.46481C9.07086 6.608 9.28059 6.76619 9.49585 6.91212C9.66964 7.02974 9.84793 7.14565 10.0207 7.26497C10.1751 7.37169 10.3282 7.48351 10.483 7.59057C10.6751 7.72387 10.8755 7.84797 11.0631 7.98571C11.3675 8.20901 11.6972 8.3979 11.9856 8.64097C12.1767 8.80189 12.2735 9.00714 12.2728 9.2642C12.269 10.9382 12.2707 12.6125 12.2707 14.2865Z" fill="#186AB4"/>
<path d="M4.69302 15.3935C4.69302 16.7002 4.69198 18.0073 4.6944 19.3142C4.69474 19.4568 4.67064 19.5899 4.54087 19.6658C4.37048 19.7656 4.1963 19.7347 4.0383 19.6258C3.85448 19.4992 3.65794 19.3871 3.48411 19.251C3.23901 19.0595 2.9719 18.8989 2.72165 18.7154C2.5905 18.6194 2.43732 18.5361 2.30652 18.4407C2.14335 18.3221 1.96608 18.2227 1.80808 18.095C1.60809 17.9334 1.37023 17.8173 1.16576 17.6607C1.00501 17.5373 0.828764 17.4376 0.667667 17.3146C0.529977 17.2095 0.372668 17.1292 0.248747 17.0056C0.119663 16.877 0.0645873 16.716 0.0645873 16.542C0.0628662 13.8899 0.0635547 11.238 0.0628662 8.58621C0.0628662 8.43168 0.123105 8.30135 0.266302 8.24927C0.390223 8.20426 0.517929 8.20393 0.65734 8.29026C0.932719 8.46058 1.1902 8.65474 1.45593 8.83648C1.76918 9.05047 2.08312 9.26445 2.39533 9.47978C2.66348 9.66455 2.92956 9.85468 3.207 10.0277C3.42765 10.1654 3.6273 10.3354 3.84829 10.4725C4.03762 10.59 4.21317 10.7261 4.40249 10.844C4.51953 10.9166 4.59043 11.0452 4.64276 11.1786C4.70988 11.3499 4.69267 11.5256 4.69302 11.701C4.69371 12.9318 4.69302 14.1626 4.69302 15.3935Z" fill="#186AB4"/>
</svg>
