<svg width="194" height="53" viewBox="0 0 194 53" fill="none" xmlns="http://www.w3.org/2000/svg">
<path d="M6.33727 43.2744C7.86891 43.2744 9.27642 43.266 10.6839 43.2819C10.9854 43.2819 11.1562 43.2063 11.3102 42.93C12.2062 41.3162 13.1265 39.7164 14.0366 38.111C14.2802 37.6808 14.2774 37.6761 13.7799 37.6752C10.2238 37.6752 6.66675 37.6668 3.11065 37.6854C2.7009 37.6854 2.51049 37.5529 2.34249 37.1917C1.12209 34.5626 0.334152 31.7538 0.00908977 28.8736C-0.0347782 28.4946 0.0753583 28.4069 0.444036 28.4134C4.39215 28.4321 8.34026 28.4041 12.2874 28.447C14.59 28.4722 16.8917 28.447 19.1943 28.476C19.3502 28.476 19.4902 28.5068 19.5919 28.3238C20.599 26.5252 21.6136 24.7323 22.6328 22.9253C22.4247 22.8114 22.2361 22.8627 22.0588 22.8618C14.9149 22.8587 7.77091 22.8587 0.626974 22.8618C0.0398907 22.8618 0.0520244 22.8618 0.136027 22.3018C0.567041 19.3872 1.48188 16.5651 2.84277 13.9519C2.99024 13.6719 3.15451 13.5599 3.48399 13.5609C6.47634 13.5702 9.46869 13.5609 12.4601 13.5543C15.3423 13.5478 18.2255 13.5665 21.1068 13.5189C23.2684 13.4834 25.4292 13.5189 27.5908 13.4834C27.8774 13.4834 28.0314 13.5627 28.1742 13.8166C30.3346 17.6621 32.5043 21.5019 34.6834 25.3361C34.8552 25.6385 34.829 25.8495 34.6666 26.137C31.5374 31.6811 28.4147 37.229 25.2985 42.7806C25.2229 42.9141 25.1547 43.0523 25.0857 43.1829C25.1949 43.3295 25.3302 43.2688 25.4422 43.2688C27.3089 43.2688 29.171 43.2632 31.0349 43.2809C31.3513 43.2809 31.5016 43.1717 31.6425 42.9076C33.7152 39.1219 35.7954 35.3399 37.883 31.5617C37.9642 31.4142 38.05 31.2686 38.135 31.1211C38.3217 31.1659 38.3497 31.3218 38.415 31.4319C40.721 35.3023 43.0273 39.1726 45.334 43.0429C45.4759 43.28 45.4432 43.3995 45.2715 43.5852C41.0713 48.1223 35.9472 50.9765 29.8131 51.8296C21.2496 53.0205 13.8312 50.5425 7.57771 44.5774C7.16796 44.1928 6.80115 43.7672 6.33727 43.2744Z" fill="#04AF76"/>
<path d="M7.16528 7.97006C9.15962 5.90526 11.4786 4.18093 14.0301 2.86551C17.7281 0.966123 21.6622 -0.0111051 25.8157 9.51989e-05C33.2098 0.0206291 39.5015 2.70684 44.7162 7.94673C44.9962 8.22673 45.0112 8.43207 44.8189 8.77555C42.7655 12.4468 40.7221 16.1236 38.6886 19.806C38.5953 19.9693 38.5019 20.128 38.4086 20.2923C38.1892 20.2195 38.1519 20.0123 38.0614 19.8611C35.8393 16.0685 33.6236 12.2729 31.414 8.47407C31.1806 8.07833 30.938 7.95699 30.4909 7.95699C22.9406 7.97193 15.3901 7.97535 7.83917 7.96726L7.16528 7.97006Z" fill="#04AF76"/>
<path d="M48.6322 13.2458C53.3923 21.4305 52.78 31.6863 48.8515 38.4232L47.5598 36.1832C45.6153 32.8094 43.6686 29.4365 41.7197 26.0646C41.5517 25.7753 41.533 25.569 41.7095 25.2638C43.9408 21.4059 46.1616 17.5434 48.3718 13.6761C48.4483 13.5455 48.5304 13.4148 48.6322 13.2458Z" fill="#04AF76"/>
<path d="M84.119 10.686V6.20423H65.8816V30.3369H71.4666V21.5457H82.6365V17.0639H71.4666V10.686H84.119ZM101.075 30.7506C108.66 30.7506 114.279 25.4759 114.279 18.2705C114.279 11.0652 108.66 5.79053 101.075 5.79053C93.4561 5.79053 87.8711 11.0997 87.8711 18.2705C87.8711 25.4414 93.4561 30.7506 101.075 30.7506ZM101.075 25.993C96.7657 25.993 93.525 22.8557 93.525 18.2705C93.525 13.6853 96.7657 10.5481 101.075 10.5481C105.384 10.5481 108.625 13.6853 108.625 18.2705C108.625 22.8557 105.384 25.993 101.075 25.993ZM141.575 30.3369L136.162 22.5799C139.3 21.2354 141.127 18.5808 141.127 14.9609C141.127 9.54832 137.093 6.20423 130.646 6.20423H120.2V30.3369H125.785V23.6142H130.646H130.922L135.576 30.3369H141.575ZM135.473 14.9609C135.473 17.581 133.749 19.1669 130.336 19.1669H125.785V10.755H130.336C133.749 10.755 135.473 12.3063 135.473 14.9609ZM152.826 25.8551V20.2701H164.03V15.9262H152.826V10.686H165.513V6.20423H147.275V30.3369H165.961V25.8551H152.826ZM193.543 30.3369L184.545 17.8568L192.957 6.20423H186.924L181.477 14.0301L175.926 6.20423H169.583L178.064 18.0637L169.135 30.3369H175.547L181.27 21.9594L187.096 30.3369H193.543Z" fill="white"/>
<path d="M84.119 10.686V6.20423H65.8816V30.3369H71.4666V21.5457H82.6365V17.0639H71.4666V10.686H84.119ZM101.075 30.7506C108.66 30.7506 114.279 25.4759 114.279 18.2705C114.279 11.0652 108.66 5.79053 101.075 5.79053C93.4561 5.79053 87.8711 11.0997 87.8711 18.2705C87.8711 25.4414 93.4561 30.7506 101.075 30.7506ZM101.075 25.993C96.7657 25.993 93.525 22.8557 93.525 18.2705C93.525 13.6853 96.7657 10.5481 101.075 10.5481C105.384 10.5481 108.625 13.6853 108.625 18.2705C108.625 22.8557 105.384 25.993 101.075 25.993ZM141.575 30.3369L136.162 22.5799C139.3 21.2354 141.127 18.5808 141.127 14.9609C141.127 9.54832 137.093 6.20423 130.646 6.20423H120.2V30.3369H125.785V23.6142H130.646H130.922L135.576 30.3369H141.575ZM135.473 14.9609C135.473 17.581 133.749 19.1669 130.336 19.1669H125.785V10.755H130.336C133.749 10.755 135.473 12.3063 135.473 14.9609ZM152.826 25.8551V20.2701H164.03V15.9262H152.826V10.686H165.513V6.20423H147.275V30.3369H165.961V25.8551H152.826ZM193.543 30.3369L184.545 17.8568L192.957 6.20423H186.924L181.477 14.0301L175.926 6.20423H169.583L178.064 18.0637L169.135 30.3369H175.547L181.27 21.9594L187.096 30.3369H193.543Z" fill="white"/>
<path d="M84.119 10.686V6.20423H65.8816V30.3369H71.4666V21.5457H82.6365V17.0639H71.4666V10.686H84.119ZM101.075 30.7506C108.66 30.7506 114.279 25.4759 114.279 18.2705C114.279 11.0652 108.66 5.79053 101.075 5.79053C93.4561 5.79053 87.8711 11.0997 87.8711 18.2705C87.8711 25.4414 93.4561 30.7506 101.075 30.7506ZM101.075 25.993C96.7657 25.993 93.525 22.8557 93.525 18.2705C93.525 13.6853 96.7657 10.5481 101.075 10.5481C105.384 10.5481 108.625 13.6853 108.625 18.2705C108.625 22.8557 105.384 25.993 101.075 25.993ZM141.575 30.3369L136.162 22.5799C139.3 21.2354 141.127 18.5808 141.127 14.9609C141.127 9.54832 137.093 6.20423 130.646 6.20423H120.2V30.3369H125.785V23.6142H130.646H130.922L135.576 30.3369H141.575ZM135.473 14.9609C135.473 17.581 133.749 19.1669 130.336 19.1669H125.785V10.755H130.336C133.749 10.755 135.473 12.3063 135.473 14.9609ZM152.826 25.8551V20.2701H164.03V15.9262H152.826V10.686H165.513V6.20423H147.275V30.3369H165.961V25.8551H152.826ZM193.543 30.3369L184.545 17.8568L192.957 6.20423H186.924L181.477 14.0301L175.926 6.20423H169.583L178.064 18.0637L169.135 30.3369H175.547L181.27 21.9594L187.096 30.3369H193.543Z" fill="#292929"/>
<path d="M71.1101 48.7222C72.6574 48.7222 73.9918 48.1828 74.9003 47.1607L73.9776 46.2664C73.211 47.0755 72.2741 47.4588 71.181 47.4588C68.9381 47.4588 67.2772 45.8405 67.2772 43.6402C67.2772 41.4398 68.9381 39.8215 71.181 39.8215C72.2741 39.8215 73.211 40.1906 73.9776 40.9998L74.9003 40.1054C73.9918 39.0833 72.6574 38.5581 71.1243 38.5581C68.1006 38.5581 65.8577 40.7016 65.8577 43.6402C65.8577 46.5787 68.1006 48.7222 71.1101 48.7222ZM82.4201 48.7222C85.0463 48.7222 86.6221 47.2033 86.6221 44.3215V38.6717H85.2451V44.2648C85.2451 46.4651 84.223 47.4588 82.4343 47.4588C80.6457 47.4588 79.6378 46.4651 79.6378 44.2648V38.6717H78.2182V44.3215C78.2182 47.2033 79.8081 48.7222 82.4201 48.7222ZM99.1429 48.6086L96.7864 45.2727C98.1775 44.7758 98.9725 43.6685 98.9725 42.1354C98.9725 39.9777 97.411 38.6717 94.8274 38.6717H90.952V48.6086H92.3715V45.585H94.8274C95.0403 45.585 95.2532 45.5708 95.452 45.5566L97.5955 48.6086H99.1429ZM94.7848 44.3783H92.3715V39.9067H94.7848C96.6018 39.9067 97.5529 40.7158 97.5529 42.1354C97.5529 43.555 96.6018 44.3783 94.7848 44.3783ZM110.876 48.6086L108.52 45.2727C109.911 44.7758 110.706 43.6685 110.706 42.1354C110.706 39.9777 109.145 38.6717 106.561 38.6717H102.685V48.6086H104.105V45.585H106.561C106.774 45.585 106.987 45.5708 107.186 45.5566L109.329 48.6086H110.876ZM106.518 44.3783H104.105V39.9067H106.518C108.335 39.9067 109.286 40.7158 109.286 42.1354C109.286 43.555 108.335 44.3783 106.518 44.3783ZM115.839 47.3736V44.1654H120.821V42.9588H115.839V39.9067H121.432V38.6717H114.419V48.6086H121.631V47.3736H115.839ZM132.475 38.6717V46.0818L126.513 38.6717H125.349V48.6086H126.768V41.1985L132.73 48.6086H133.894V38.6717H132.475ZM142.732 48.7222C144.279 48.7222 145.613 48.1828 146.522 47.1607L145.599 46.2664C144.833 47.0755 143.896 47.4588 142.803 47.4588C140.56 47.4588 138.899 45.8405 138.899 43.6402C138.899 41.4398 140.56 39.8215 142.803 39.8215C143.896 39.8215 144.833 40.1906 145.599 40.9998L146.522 40.1054C145.613 39.0833 144.279 38.5581 142.746 38.5581C139.722 38.5581 137.479 40.7016 137.479 43.6402C137.479 46.5787 139.722 48.7222 142.732 48.7222ZM149.967 48.6086H151.386V38.6717H149.967V48.6086ZM157.2 47.3736V44.1654H162.183V42.9588H157.2V39.9067H162.793V38.6717H155.781V48.6086H162.992V47.3736H157.2ZM169.606 48.7222C172.232 48.7222 173.453 47.4162 173.453 45.8973C173.453 42.249 167.434 43.7679 167.434 41.3405C167.434 40.4745 168.158 39.7647 169.847 39.7647C170.728 39.7647 171.707 40.0203 172.573 40.5739L173.041 39.4382C172.218 38.8704 171.011 38.5581 169.847 38.5581C167.235 38.5581 166.043 39.8641 166.043 41.3972C166.043 45.0881 172.062 43.555 172.062 45.9824C172.062 46.8484 171.324 47.5156 169.606 47.5156C168.328 47.5156 167.065 47.0329 166.327 46.3657L165.802 47.473C166.597 48.2112 168.087 48.7222 169.606 48.7222Z" fill="#292929"/>
</svg>
