<svg width="45" height="50" viewBox="0 0 45 50" fill="none" xmlns="http://www.w3.org/2000/svg">
<path d="M23.6022 42.8965C19.8976 42.8965 16.4412 41.8228 13.5191 39.9658L28.5474 23.9844L35.3056 38.816C32.0798 41.3711 28.016 42.8965 23.6022 42.8965ZM26.434 19.3909L16.018 30.3266L23.6637 13.606L26.434 19.3909ZM4.67073 23.8731C4.67073 13.3834 13.163 4.84996 23.6022 4.84996C28.2819 4.84996 32.5702 6.56298 35.8777 9.40244L29.9019 15.6479L26.212 7.58393C24.5275 7.43435 22.8695 7.43135 21.2436 7.58393L8.48028 35.3018C6.08943 32.1191 4.67073 28.1589 4.67073 23.8731ZM40.9395 39.9628L38.7796 35.2284L31.9744 20.3149L38.9632 12.7701L42.2066 9.27358C41.2811 8.08838 40.2508 6.99434 39.1238 6.00845C34.9757 2.36238 29.5428 0.15625 23.6022 0.15625C10.5678 0.15625 0 10.7723 0 23.8731C0 30.1097 2.39384 35.7799 6.30838 40.0128L3.0796 47.0266L5.54055 48.4491L10.2581 43.4332C14.0531 46.0584 18.651 47.5898 23.6022 47.5898C28.7078 47.5898 33.437 45.9589 37.2994 43.1895L40.0378 49.2L44.25 47.2141L40.9395 39.9628Z" fill="#5ABEA0"/>
</svg>
