<svg width="203" height="36" viewBox="0 0 203 36" fill="none" xmlns="http://www.w3.org/2000/svg">
<path fill-rule="evenodd" clip-rule="evenodd" d="M17.5697 0.664551C19.7943 0.664551 21.9051 1.08314 23.8635 1.82531C22.6848 1.54036 21.4487 1.40673 20.1748 1.40673C11.3139 1.40673 4.14524 8.57572 4.14524 17.4368C4.14524 26.2977 11.3139 33.4668 20.1748 33.4668C24.8334 33.4668 29.0167 31.4881 31.9449 28.3327C28.7694 32.8389 23.5023 35.7851 17.5697 35.7851C7.8722 35.7851 0 27.9334 0 18.2353C0 8.51777 7.8722 0.664551 17.5697 0.664551Z" fill="#78C92E"/>
<path fill-rule="evenodd" clip-rule="evenodd" d="M27.2674 7.79656L34.3789 3.38538L25.7651 33.2752L19.4521 34.9865L27.2674 7.79656Z" fill="#78C92E"/>
<path fill-rule="evenodd" clip-rule="evenodd" d="M6.04675 20.8014L13.1583 16.3903L9.27915 29.8348L3.87915 28.389L6.04675 20.8014Z" fill="#78C92E"/>
<path fill-rule="evenodd" clip-rule="evenodd" d="M16.657 14.299L23.7306 10.0198L16.5429 34.9865L11.1428 33.4844L16.657 14.299Z" fill="#78C92E"/>
<path d="M45.3756 26.9626C43.653 26.9626 42.0914 26.5923 40.6907 25.8518C39.3062 25.0951 38.2115 24.0567 37.4065 22.7366C36.6177 21.4003 36.2232 19.8951 36.2232 18.2208C36.2232 16.5464 36.6177 15.0492 37.4065 13.7291C38.2115 12.3928 39.3062 11.3544 40.6907 10.6139C42.0914 9.85721 43.6611 9.47888 45.3998 9.47888C46.8648 9.47888 48.185 9.73647 49.3602 10.2516C50.5516 10.7668 51.5496 11.5074 52.3546 12.4733L49.8432 14.7916C48.7001 13.4715 47.2834 12.8114 45.593 12.8114C44.5465 12.8114 43.6128 13.0448 42.7917 13.5117C41.9706 13.9625 41.3267 14.5984 40.8598 15.4195C40.409 16.2406 40.1836 17.1743 40.1836 18.2208C40.1836 19.2673 40.409 20.201 40.8598 21.022C41.3267 21.8431 41.9706 22.487 42.7917 22.9539C43.6128 23.4047 44.5465 23.6301 45.593 23.6301C47.2834 23.6301 48.7001 22.962 49.8432 21.6258L52.3546 23.944C51.5496 24.9261 50.5516 25.6747 49.3602 26.1899C48.1688 26.7051 46.8406 26.9626 45.3756 26.9626ZM65.7989 23.0505H57.9505L56.4533 26.6729H52.4446L59.979 9.76867H63.8428L71.4014 26.6729H67.2961L65.7989 23.0505ZM64.5673 20.0802L61.8868 13.6083L59.2063 20.0802H64.5673ZM80.4724 9.76867C81.9696 9.76867 83.2656 10.0182 84.3603 10.5173C85.4712 11.0164 86.3245 11.7247 86.9201 12.6424C87.5158 13.56 87.8136 14.6467 87.8136 15.9025C87.8136 17.1422 87.5158 18.2289 86.9201 19.1626C86.3245 20.0802 85.4712 20.7886 84.3603 21.2877C83.2656 21.7706 81.9696 22.0121 80.4724 22.0121H77.0674V26.6729H73.1552V9.76867H80.4724ZM80.255 18.8245C81.4303 18.8245 82.3238 18.5749 82.9355 18.0759C83.5473 17.5607 83.8532 16.8362 83.8532 15.9025C83.8532 14.9526 83.5473 14.2281 82.9355 13.7291C82.3238 13.2139 81.4303 12.9563 80.255 12.9563H77.0674V18.8245H80.255ZM90.6067 9.76867H94.5188V26.6729H90.6067V9.76867ZM102.032 12.9563H96.6227V9.76867H111.354V12.9563H105.944V26.6729H102.032V12.9563ZM123.742 23.0505H115.894L114.396 26.6729H110.388L117.922 9.76867H121.786L129.345 26.6729H125.239L123.742 23.0505ZM122.511 20.0802L119.83 13.6083L117.149 20.0802H122.511ZM131.098 9.76867H135.01V23.4852H143.486V26.6729H131.098V9.76867ZM145.673 9.76867H149.585V26.6729H145.673V9.76867ZM167.289 23.4852V26.6729H152.51V24.1372L161.783 12.9563H152.703V9.76867H166.926V12.3043L157.677 23.4852H167.289ZM182.886 23.5335V26.6729H169.798V9.76867H182.572V12.908H173.686V16.5786H181.534V19.6214H173.686V23.5335H182.886ZM185.999 9.76867H193.679C195.514 9.76867 197.132 10.1228 198.532 10.8312C199.949 11.5235 201.044 12.5055 201.817 13.7774C202.605 15.0492 203 16.5303 203 18.2208C203 19.9112 202.605 21.3924 201.817 22.6642C201.044 23.936 199.949 24.9261 198.532 25.6345C197.132 26.3267 195.514 26.6729 193.679 26.6729H185.999V9.76867ZM193.485 23.4611C195.176 23.4611 196.52 22.9941 197.518 22.0604C198.532 21.1105 199.04 19.8306 199.04 18.2208C199.04 16.6109 198.532 15.339 197.518 14.4052C196.52 13.4554 195.176 12.9805 193.485 12.9805H189.911V23.4611H193.485Z" fill="#2E2D2D"/>
</svg>
