<svg width="30" height="33" viewBox="0 0 30 33" fill="none" xmlns="http://www.w3.org/2000/svg">
<path d="M15.8575 28.7156C13.3685 28.7156 11.0463 27.9943 9.08301 26.7466L19.18 16.0093L23.7206 25.9741C21.5533 27.6908 18.823 28.7156 15.8575 28.7156ZM17.76 12.923L10.7619 20.2704L15.8988 9.03643L17.76 12.923ZM3.1381 15.9345C3.1381 8.88687 8.84377 3.15353 15.8575 3.15353C19.0016 3.15353 21.8828 4.30446 24.1049 6.21219L20.09 10.4083L17.6109 4.99039C16.4792 4.8899 15.3652 4.88788 14.2728 4.99039L5.6976 23.613C4.09127 21.4747 3.1381 18.814 3.1381 15.9345ZM27.5058 26.7446L26.0546 23.5637L21.4825 13.5439L26.178 8.47478L28.3571 6.12561C27.7353 5.32932 27.0431 4.59427 26.2859 3.93188C23.4989 1.48222 19.8487 0 15.8575 0C7.10012 0 0 7.13252 0 15.9345C0 20.1246 1.60834 23.9343 4.23837 26.7782L2.06908 31.4905L3.7225 32.4462L6.89207 29.0763C9.44175 30.84 12.5309 31.8689 15.8575 31.8689C19.2878 31.8689 22.4651 30.7732 25.0602 28.9125L26.9 32.9507L29.73 31.6165L27.5058 26.7446Z" fill="#5ABEA0"/>
</svg>
