<svg width="45" height="54" viewBox="0 0 45 54" fill="none" xmlns="http://www.w3.org/2000/svg">
<path fill-rule="evenodd" clip-rule="evenodd" d="M17.1661 40.2433L20.7547 43.8315C22.1408 45.218 24.4098 45.2183 25.7966 43.8315L34.3485 35.2794H44.25L27.3777 52.1519C25.1214 54.4079 21.4295 54.4079 19.1732 52.1519L12.1481 45.1268L17.1661 40.2433Z" fill="#F16318"/>
<path fill-rule="evenodd" clip-rule="evenodd" d="M26.439 17.948L25.7966 17.3055C24.4098 15.9185 22.1408 15.9185 20.7546 17.3055C17.1738 20.8863 13.593 24.4671 10.0122 28.0479C8.96136 29.0988 8.70675 30.6572 9.24958 31.9535C9.76797 33.2004 14.2824 37.356 15.5905 38.3659L10.4325 43.4111C7.51906 40.4975 4.60576 37.5839 1.69197 34.6706C-0.563991 32.4145 -0.563991 28.7226 1.69197 26.4661L18.2557 9.93602L8.49579 0.17593H18.3973C26.9866 8.76588 35.6612 17.2686 44.25 25.8575H34.3483L31.3965 22.9052L26.439 17.948Z" fill="#1F304F"/>
<path d="M19.1732 52.1518C19.4046 52.3831 19.6511 52.5908 19.9095 52.7747C19.6511 52.5908 19.4047 52.3831 19.1732 52.1518ZM32.752 36.8758L25.7966 43.8314C25.1032 44.5248 24.1895 44.8715 23.2755 44.8715C22.3616 44.8715 21.4477 44.5247 20.7547 43.8314L17.1661 40.2432L12.1481 45.1267L17.1661 40.2432L20.7547 43.8314C21.4477 44.5247 22.3616 44.8715 23.2755 44.8715C24.1895 44.8715 25.1032 44.5248 25.7966 43.8314L32.752 36.8758Z" fill="white"/>
<path d="M32.752 36.8758L25.7966 43.8314C25.1032 44.5248 24.1895 44.8714 23.2755 44.8714C22.3616 44.8714 21.4477 44.5247 20.7547 43.8314L17.1661 40.2432L12.1481 45.1267L19.1732 52.1518C19.4047 52.3831 19.6511 52.5908 19.9095 52.7747C20.9113 53.4873 22.0929 53.8436 23.2749 53.8436C24.0859 53.8436 24.897 53.6758 25.6498 53.3403C29.7411 48.98 32.3696 43.2311 32.752 36.8758Z" fill="#F2721D"/>
<path d="M23.2754 16.2652C22.8631 16.2652 22.4507 16.3358 22.0586 16.477C22.4507 16.3358 22.8628 16.2652 23.275 16.2654C24.0836 16.2654 24.8924 16.5369 25.5482 17.0797C25.5479 17.0792 25.5476 17.0789 25.5471 17.0784C24.8914 16.5362 24.0833 16.2652 23.2754 16.2652ZM17.0864 11.1029L1.69197 26.4661C0.563989 27.5944 0 29.0815 0 30.5684C0 29.0815 0.563989 27.5944 1.69197 26.4661L17.0864 11.1029Z" fill="white"/>
<path d="M17.0864 11.1029L1.69197 26.4661C0.563989 27.5944 0 29.0815 0 30.5684C0 32.0555 0.563989 33.5424 1.69197 34.6706C4.60576 37.5839 7.51906 40.4975 10.4325 43.4111L15.5905 38.3659C14.2824 37.356 9.76797 33.2004 9.24958 31.9535C9.06503 31.513 8.97267 31.042 8.97234 30.5712C8.97169 29.6565 9.31848 28.7415 10.0122 28.0479C13.593 24.4671 17.1738 20.8863 20.7546 17.3055C21.1351 16.9249 21.5818 16.6486 22.0586 16.477C22.4507 16.3358 22.8631 16.2652 23.2754 16.2652C24.0833 16.2652 24.8914 16.5362 25.5471 17.0784C23.1643 14.5679 20.293 12.5261 17.0864 11.1029Z" fill="#1F304F"/>
</svg>
