<svg width="118" height="97" viewBox="0 0 118 97" fill="none" xmlns="http://www.w3.org/2000/svg">
<path d="M23.335 50.0534C19.9257 51.9416 15.852 51.2772 12.2853 53.4277C11.9182 47.9728 12.0581 42.99 13.0546 38.0771C13.4917 35.979 13.1246 34.388 12.0581 32.5697C6.81296 23.6355 4.78485 14.3692 9.80267 4.56086C11.2538 4.70073 10.4845 5.67981 10.4845 6.36167C10.4845 9.91086 11.0265 13.3726 12.3553 16.747C13.247 15.9952 12.67 15.1734 12.5476 14.4566C12.2329 12.6908 12.1105 10.9424 12.2504 9.15906C12.3903 7.28831 12.1979 4.89305 13.4568 3.82654C14.803 2.6901 16.429 4.78814 17.9501 5.38259C24.0693 7.81282 30.1537 6.79877 36.238 5.34762C45.382 3.19713 54.456 0.557094 63.9671 0.0500669C67.5513 -0.142254 71.048 0.20742 74.4398 1.30889C80.2969 3.19713 84.1433 7.14844 85.8742 13.0404C86.2413 14.2818 86.6434 14.9636 88.0072 15.3833C99.3541 18.8975 104.547 27.3421 106.138 38.5142C106.732 42.6228 106.715 46.7315 106.278 50.8926C106.068 53.0081 105.526 53.5501 103.673 52.4836C102.693 51.9241 101.277 52.029 100.805 50.6653C99.9835 49.4415 100.123 48.0253 100.036 46.6616C99.6513 40.5772 97.0987 35.507 92.9376 31.1535C91.4689 29.615 90.4024 29.5101 88.8988 31.2759C82.7096 38.5491 75.3839 44.1964 65.9428 46.6266C60.5753 48.0078 55.1553 48.9519 49.5955 48.2001C48.3192 48.0253 46.1862 48.2875 46.0813 46.8364C45.9589 45.3153 48.0919 45.3328 49.3507 45.0181C53.9664 43.8642 58.3898 42.2382 62.5509 39.9653C63.9146 39.2135 65.2259 38.4093 66.6246 36.8532C57.5156 36.0315 48.9311 34.0733 40.1893 34.965C33.2658 35.6643 28.4403 39.6156 25.4506 45.8573C24.7862 47.2735 24.2792 48.7771 23.335 50.0534Z" fill="#1A6BB4"/>
<path d="M47.6198 57.6937C55.6623 60.6485 63.6524 59.512 71.7123 57.6238C86.3287 54.2145 100.84 55.5607 115.264 58.9526C117.013 59.3722 117.729 60.4037 117.677 62.1171C117.624 63.5857 117.485 65.0718 117.485 66.5405C117.485 67.7468 117.362 68.656 115.771 68.5161C114.355 68.3937 114.338 69.5477 114.198 70.5093C113.743 73.8137 113.568 77.1705 112.694 80.4225C110.211 89.5665 103.061 95.5109 93.6544 96.3152C89.3184 96.6823 85.0174 96.7523 80.6815 96.2452C76.2581 95.7207 72.604 93.9199 69.8241 90.4057C66.2225 85.8424 63.7223 80.7897 63.2677 74.8977C62.988 71.2261 61.9215 70.0547 58.7569 70.1071C55.47 70.1596 54.3336 71.4359 54.1063 75.2124C53.7216 81.6464 51.1166 86.9614 46.7631 91.7869C39.0179 100.354 11.079 98.9727 5.71147 83.0625C4.40019 79.0763 3.59594 75.055 3.77078 70.8764C3.80574 69.775 3.94561 68.5161 2.31963 68.6035C0.169139 68.7084 0.0467533 67.4147 0.0117859 65.7887C-0.0931162 59.7393 0.378943 59.0575 6.56817 57.921C20.0306 55.4383 33.528 54.8264 47.0429 57.6413C47.2527 57.4315 47.445 57.4664 47.6198 57.6937Z" fill="#1A6BB4"/>
<path d="M79.9297 7.67293C70.4885 2.7775 61.432 4.31607 52.4279 7.30578C46.5359 9.28143 40.6264 11.0123 34.2973 9.99826C31.5873 9.56117 29.0697 8.6695 26.3247 6.18682C38.6507 8.68699 48.8612 3.07473 59.6661 0.854299C64.037 -0.0373684 68.4254 -0.369558 72.7614 1.11655C75.9259 2.18306 78.3562 4.08878 79.9297 7.67293Z" fill="#FDFEFD"/>
<path d="M29.1571 61.785C35.2589 61.75 40.5739 62.6067 45.7666 64.2502C48.8612 65.2293 50.7494 67.3098 50.5047 70.2121C49.9452 76.7685 48.4591 83.0102 43.3713 87.7832C37.5842 93.2206 25.6604 94.2347 17.8626 89.8638C10.2572 85.6152 6.70805 77.4504 8.50886 68.7959C9.01589 66.3307 10.4496 65.0195 12.67 64.3726C18.2822 62.7641 23.9644 61.6626 29.1571 61.785Z" fill="white"/>
<path d="M107.274 79.1288C107.676 83.6046 105.211 86.6817 101.959 89.077C96.8189 92.8535 90.8394 91.9793 84.93 91.752C76.0832 91.4198 71.0479 86.6817 68.6876 78.5693C67.6561 75.0026 68.1631 71.3485 68.4428 67.7469C68.5477 66.3307 69.4219 65.1069 70.8381 64.6348C78.4785 62.1696 86.2587 61.0332 94.2662 62.5368C95.9272 66.1034 95.0355 69.8799 95.1404 73.5515C95.2803 78.884 95.1754 78.849 100.578 78.7791C102.833 78.7616 105.106 77.9923 107.274 79.1288Z" fill="white"/>
<path d="M107.274 79.1288C103.568 79.2337 99.8436 79.2686 96.137 79.4435C94.4411 79.5134 94.2313 78.6392 94.2488 77.258C94.3013 72.3451 94.2838 67.4497 94.3013 62.5368C98.8645 67.8693 103.568 73.1144 107.274 79.1288Z" fill="#E5E5E5"/>
<path d="M27.6186 77.8874C23.4925 77.8874 19.3488 77.9049 15.2227 77.8699C14.4359 77.8699 13.4044 78.2371 13.3694 76.716C13.3519 75.2648 14.1387 75.1599 15.2227 75.1599C23.4925 75.1774 31.7623 75.1949 40.032 75.1599C41.186 75.1599 41.8678 75.3348 41.8503 76.7335C41.8329 78.272 40.8013 77.8524 40.0146 77.8699C35.8709 77.8874 31.7448 77.8874 27.6186 77.8874Z" fill="#1A6BB4"/>
<path d="M27.8107 85.5627C24.3664 85.5627 20.9222 85.5627 17.4779 85.5627C16.6037 85.5627 15.6945 85.7375 15.7295 84.3039C15.7645 83.08 16.324 82.8353 17.3905 82.8353C24.3839 82.8527 31.3599 82.8527 38.3534 82.8353C39.315 82.8353 40.0318 82.9052 40.0843 84.2165C40.1542 85.8774 39.0702 85.5452 38.1436 85.5627C34.6993 85.5802 31.255 85.5627 27.8107 85.5627Z" fill="#1A6BB4"/>
<path d="M27.8282 70.1071C25.0832 70.1071 22.3208 70.0896 19.5759 70.1246C18.5618 70.1421 17.9149 69.9673 17.9149 68.7084C17.9149 67.4496 18.5443 67.2748 19.5759 67.2748C25.3804 67.2923 31.185 67.2923 36.9721 67.2748C37.8813 67.2748 38.4757 67.4496 38.5107 68.5336C38.5282 69.6351 38.1785 70.1421 36.9896 70.1246C33.9125 70.0722 30.8703 70.1071 27.8282 70.1071Z" fill="#1A6BB4"/>
<path d="M76.4153 86.2097C75.4362 84.4089 76.1531 83.762 78.0063 83.762C84.9474 83.7795 91.8884 83.8144 98.8469 83.7445C100.962 83.727 100.77 84.7585 100.263 86.1398C93.3745 86.7692 86.4684 86.3321 79.5799 86.3496C78.5483 86.3496 77.4469 86.6468 76.4153 86.2097Z" fill="#1A6BB4"/>
<path d="M81.4683 75.1775C83.5314 75.1775 85.5944 75.2124 87.6575 75.16C88.8464 75.125 89.1436 75.6845 89.1436 76.7685C89.1611 77.9224 88.5492 78.0273 87.6575 78.0098C83.4265 77.9923 79.2129 77.9749 74.9818 77.9923C74.1077 77.9923 73.4782 77.9224 73.4782 76.751C73.4782 75.667 73.7755 75.125 74.9644 75.16C77.1498 75.2124 79.3178 75.1775 81.4683 75.1775Z" fill="#1A6BB4"/>
<path d="M79.9822 66.8902C81.7481 66.8902 83.5139 66.9251 85.2623 66.8727C86.4162 66.8377 86.7834 67.3098 86.7834 68.4287C86.7659 69.4952 86.3113 69.7225 85.3497 69.7051C81.7306 69.6701 78.094 69.6351 74.4749 69.7051C73.286 69.7225 72.9888 69.3029 72.9888 68.184C72.9888 67.1 73.4433 66.8552 74.3875 66.8727C76.2582 66.9251 78.129 66.9077 79.9822 66.8902Z" fill="#1A6BB4"/>
<path d="M76.4155 86.2096C78.2164 85.318 80.0347 86.1572 81.853 86.1397C87.9897 86.0698 94.1265 86.1222 100.263 86.1397C100.123 86.5943 99.7737 86.6467 99.3541 86.6467C92.046 86.6467 84.7378 86.6467 77.4296 86.6118C77.0974 86.6292 76.7652 86.367 76.4155 86.2096Z" fill="#1A6BB4"/>
</svg>
