<svg width="110" height="97" viewBox="0 0 110 97" fill="none" xmlns="http://www.w3.org/2000/svg">
<path d="M62.9963 54.8425L69.0748 69.4893C72.9437 70.1135 76.9657 70.564 81.1355 70.7979C81.1355 70.7979 54.7082 9.33185 54.6893 9.28714C51.8555 2.69449 42.9105 0.417841 37.1501 4.59628C34.4023 6.58921 32.9253 9.7325 31.6786 12.7898C30.4715 15.7491 29.1354 18.6465 27.8733 21.5817C25.8546 26.2777 23.8359 30.972 21.8154 35.6681C21.4939 36.4178 16.3817 47.1785 16.7497 47.4485C21.8636 51.1971 28.611 55.5096 36.8337 59.4129L43.9233 42.9244L53.8347 65.9764C58.1438 67.2746 62.7091 68.3854 67.5186 69.228L61.7617 55.3531C59.7842 55.8277 57.7019 54.8218 56.8954 52.8822C56.0924 50.946 56.8507 48.7639 58.584 47.6944L47.7097 21.4906C44.8828 22.3005 41.8375 20.9077 40.6837 18.1255C39.4405 15.1318 40.8591 11.6996 43.8545 10.4547C46.8482 9.21321 50.2804 10.6335 51.5236 13.6272C52.6791 16.4077 51.515 19.5475 48.946 20.9782L59.8186 47.182C61.796 46.7091 63.8767 47.7167 64.6814 49.6512C65.4879 51.5925 64.7261 53.7764 62.9963 54.8407V54.8425ZM99.782 27.2321C94.5254 27.2321 90.476 30.3564 90.476 34.2099V70.9561C93.32 70.8942 96.2226 70.7291 99.1853 70.4488V64.1812C97.397 63.8957 96.03 62.3602 96.03 60.4894C96.03 58.6185 97.397 57.0847 99.1853 56.7976V41.8721C96.582 41.5729 94.5547 39.3874 94.5547 36.7049C94.5547 33.8178 96.8949 31.4759 99.7837 31.4759C102.673 31.4759 105.009 33.8178 105.009 36.7049C105.009 39.3857 102.982 41.5712 100.377 41.8721V56.7976C102.167 57.0847 103.536 58.622 103.536 60.4894C103.536 62.3568 102.167 63.8957 100.377 64.1812V70.3319C103.228 70.0361 106.132 69.6355 109.09 69.1196V34.2099C109.09 30.3564 105.039 27.2321 99.7837 27.2321H99.782ZM99.782 0C94.4928 0 90.2077 4.28506 90.2077 9.57603C90.2077 14.867 94.491 19.1452 99.782 19.1452C105.073 19.1452 109.358 14.8636 109.358 9.57603C109.358 4.2885 105.07 0 99.782 0Z" fill="url(#paint0_linear_715_5102)"/>
<path d="M109.088 69.1179V90.0239C109.088 93.8756 105.037 97 99.782 97C94.5271 97 90.476 93.8756 90.476 90.0239V70.9561C93.32 70.8942 96.2226 70.7291 99.1853 70.4488V82.0573C96.582 82.3548 94.5547 84.542 94.5547 87.2245C94.5547 90.1133 96.8949 92.4536 99.7837 92.4536C102.673 92.4536 105.009 90.1133 105.009 87.2245C105.009 84.542 102.982 82.3565 100.377 82.0573V70.3302C103.228 70.0344 106.132 69.6338 109.09 69.1179H109.088Z" fill="url(#paint1_linear_715_5102)"/>
<path d="M19.1486 87.4291C19.1486 92.7149 14.8601 96.9999 9.57258 96.9999C4.28505 96.9999 0 92.7149 0 87.4291C0 82.1433 4.28677 77.853 9.57258 77.853C14.8584 77.853 19.1486 82.1381 19.1486 87.4291Z" fill="url(#paint2_linear_715_5102)"/>
<path d="M79.3837 96.0526C73.5029 98.582 66.6867 95.8669 64.1573 89.9861L57.7933 75.1845H23.5817V75.0228C21.7917 74.997 19.8899 74.605 18.0311 73.8054C12.1521 71.2777 8.92108 65.6531 10.8177 61.2426L16.7501 47.4451C21.8639 51.1937 28.6113 55.5062 36.8341 59.4096L33.6083 66.9118H54.2391L53.835 65.973C58.1441 67.2712 62.7095 68.382 67.519 69.2246L72.3336 80.8314C69.7647 82.2586 68.6005 85.3984 69.7561 88.1789C70.9993 91.176 74.4314 92.5929 77.4234 91.3514C80.4154 90.1099 81.8374 86.6743 80.5942 83.6806C79.4387 80.9002 76.3969 79.5073 73.57 80.3172L69.0751 69.486C72.944 70.1101 76.966 70.5607 81.1359 70.7945L85.4501 80.8314C87.9796 86.7052 85.261 93.5249 79.3819 96.0491L79.3837 96.0526Z" fill="url(#paint3_linear_715_5102)"/>
<defs>
<linearGradient id="paint0_linear_715_5102" x1="63.0444" y1="-0.00171952" x2="63.0444" y2="70.9561" gradientUnits="userSpaceOnUse">
<stop stop-color="#9FD6DF"/>
<stop offset="0.36" stop-color="#7CA2C4"/>
<stop offset="0.99" stop-color="#3D4394"/>
</linearGradient>
<linearGradient id="paint1_linear_715_5102" x1="90.476" y1="83.0581" x2="109.088" y2="83.0581" gradientUnits="userSpaceOnUse">
<stop stop-color="#243365"/>
<stop offset="1" stop-color="#9A4C97"/>
</linearGradient>
<linearGradient id="paint2_linear_715_5102" x1="0" y1="87.4256" x2="19.1486" y2="87.4256" gradientUnits="userSpaceOnUse">
<stop stop-color="#243365"/>
<stop offset="1" stop-color="#9A4C97"/>
</linearGradient>
<linearGradient id="paint3_linear_715_5102" x1="10.2761" y1="72.2234" x2="86.3976" y2="72.2234" gradientUnits="userSpaceOnUse">
<stop stop-color="#243365"/>
<stop offset="1" stop-color="#9A4C97"/>
</linearGradient>
</defs>
</svg>
