<svg width="198" height="97" viewBox="0 0 198 97" fill="none" xmlns="http://www.w3.org/2000/svg">
<path d="M136.161 58.2051C134.288 55.4317 132.414 52.6582 130.615 49.8098C130.09 48.9849 129.528 48.7229 128.591 48.8354C126.979 49.0602 125.405 49.2851 123.793 49.2851C122.594 49.2851 122.219 49.6224 122.257 50.8588C122.407 55.9564 122.482 61.0535 122.482 66.1882C122.482 68.5868 122.369 70.9855 122.257 73.3463C122.219 74.2462 122.557 74.546 123.456 74.5085C125.517 74.4336 127.579 74.4336 129.64 74.5085C130.54 74.546 130.914 74.2462 130.839 73.3463C130.727 71.4352 130.69 69.4863 130.652 67.537C130.615 66.7503 130.652 65.9258 130.652 65.1387C130.764 65.1009 130.877 65.0638 130.989 65.0263C131.364 65.4386 131.776 65.8505 132.076 66.3381C133.725 68.6993 135.412 71.0604 137.023 73.4966C137.586 74.3586 138.185 74.5835 139.197 74.5085C140.696 74.3961 142.196 74.4707 143.732 74.4707H145.306C145.456 66.0757 145.606 57.8303 145.719 49.51H136.874C137.023 52.7328 137.173 55.9564 137.323 59.1796C136.686 58.8797 136.386 58.5799 136.161 58.2051Z" fill="#0098D3"/>
<path d="M95.759 57.6801C97.8578 57.7551 99.432 59.704 99.3945 62.1026C99.357 64.4263 97.7079 66.2253 95.6091 66.2253C93.4728 66.2253 91.7862 64.2389 91.8237 61.8028C91.8987 59.4045 93.6227 57.5677 95.759 57.6801ZM98.3451 75.0329C103.817 73.834 107.94 68.2121 108.089 61.8778C107.827 60.4536 107.714 58.9544 107.303 57.5677C105.803 52.433 101.156 48.6851 96.2837 48.5352C90.8492 48.3478 86.1269 51.571 84.2155 56.893C83.241 59.5166 83.1286 62.1776 83.6158 64.9136C84.8526 71.9971 91.4864 76.5321 98.3451 75.0329Z" fill="#0098D3"/>
<path d="M78.5186 60.0413C79.6055 57.9053 80.6175 55.844 81.7044 53.8572C82.2291 52.9202 81.9667 52.2456 81.2171 51.571C78.4062 48.9474 75.0706 48.0858 71.3601 48.6851C65.8882 49.585 61.9529 53.97 61.0159 60.0038C60.1164 65.9255 63.2272 71.9971 68.3993 74.3583C72.7469 76.3447 78.4062 75.3331 81.0672 71.9971C81.442 71.5102 81.7793 70.5354 81.5544 70.086C80.5425 68.0993 79.3057 66.2253 78.1438 64.2768C75.0331 66.6379 72.5969 66.8624 70.9479 65.1009C69.3737 63.4522 69.2988 60.7534 70.7605 59.0297C72.447 57.0054 74.321 57.2303 78.5186 60.0413Z" fill="#0098D3"/>
<path d="M149.879 67.5748C149.204 68.0991 148.454 68.5867 147.592 69.1864C148.792 71.5476 149.879 73.7963 151.116 76.0076C151.265 76.3074 152.09 76.5698 152.39 76.4573C154.451 75.4454 156.587 74.5459 158.424 73.2341C161.947 70.6855 162.734 66.9002 160.822 62.9648C160.411 62.1403 159.998 61.3158 159.623 60.4912C159.023 59.2169 159.361 58.1672 160.411 57.343L162.097 55.9937C161.235 54.3821 160.373 52.883 159.623 51.3838C157.974 48.1231 157.862 48.0857 154.451 49.547C153.514 49.9596 152.652 50.4468 151.828 51.084C149.429 52.9201 148.567 55.3941 149.242 58.28C149.542 59.5543 150.291 60.7161 150.928 61.8405C152.353 64.2766 152.09 65.8882 149.879 67.5748Z" fill="#0098D3"/>
<path d="M111.238 74.5084C113.636 74.4335 115.998 74.5084 118.396 74.4706C118.734 74.4706 119.071 74.396 119.371 74.3585V49.4724H110.151V52.9955C110.226 56.668 110.338 60.3414 110.338 64.0518C110.338 67.1251 110.188 70.2358 110.076 73.3091C110.038 74.2086 110.301 74.5459 111.238 74.5084Z" fill="#0098D3"/>
<path d="M50.4466 59.2917C49.8844 60.5288 48.6851 60.4539 47.111 60.2665C47.1485 58.9547 46.9236 58.1298 47.1485 57.0429C48.2728 57.0429 49.5097 57.0808 50.1093 57.4927C50.4841 57.755 50.6715 58.8044 50.4466 59.2917ZM56.2934 65.813C55.9935 65.1759 55.9186 64.6515 56.5932 64.1265C59.704 61.7656 60.0038 58.4675 59.3666 55.0194C58.767 51.8337 55.7312 49.5471 51.9083 49.3597C48.6851 49.2102 45.4619 49.3222 42.2387 49.3222H38.4908V50.8589C38.6032 54.0824 38.8281 57.3053 38.8281 60.5288C38.8281 64.6886 38.6782 68.8113 38.4908 72.9715C38.4158 74.3582 38.9406 74.5456 40.1399 74.5085C42.5385 74.3961 44.8997 74.4707 47.2984 74.4707C47.4858 74.4707 47.6357 74.4332 47.9355 74.3582C47.7856 71.8097 47.6357 69.3364 47.4858 66.8253C47.5982 66.8253 47.7481 66.8253 47.8606 66.7875C48.6476 68.9987 49.3972 71.2104 50.2218 73.4213C50.3717 73.8339 50.8964 74.4332 51.2712 74.4332C54.1571 74.5085 57.0429 74.4707 60.2287 74.4707C58.8045 71.3228 57.5676 68.549 56.2934 65.813Z" fill="#0098D3"/>
<path d="M13.6799 63.1896C13.5299 63.6394 12.8553 64.239 12.4431 64.2015C11.9558 64.1641 11.2437 63.6394 11.0938 63.1521C10.6815 61.9153 11.5061 61.1283 12.4056 60.4162C13.4175 61.1283 14.1296 61.9528 13.6799 63.1896ZM16.6407 50.0719C16.4533 49.5847 15.7037 48.9101 15.4039 48.985C13.4175 49.5472 11.5061 49.3973 9.55716 48.8726C8.62019 48.6103 8.058 48.9101 7.75817 49.922C5.35951 57.5303 2.88589 65.1385 0.412269 72.7468C0.262353 73.234 0.149916 73.7587 0 74.5083C2.96085 74.5083 5.69682 74.5083 8.43279 74.4708C8.69514 74.4708 9.10741 74.096 9.14489 73.8337C9.33229 72.6343 10.1568 72.4095 11.1688 72.372C12.1057 72.3345 13.0052 72.372 13.9422 72.297C14.8042 72.2221 15.2915 72.5219 15.2165 73.4589C15.1415 74.4708 15.7037 74.5833 16.5283 74.5083C18.1399 74.3959 19.7515 74.3209 21.3631 74.3209C22.4874 74.3209 23.6493 74.4708 25.036 74.5833C23.9491 70.9478 23.0871 67.5747 21.9253 64.2765C20.2387 59.5167 18.4397 54.7943 16.6407 50.0719Z" fill="#0098D3"/>
<path d="M26.3477 50.0719C26.3477 57.8301 26.3477 65.6258 26.3102 73.3839C26.3102 74.3584 26.7225 74.5083 27.547 74.5083C29.8332 74.4708 32.1195 74.5083 34.4432 74.5083C34.8554 74.5083 35.2302 74.4708 35.605 74.4333V49.5098H26.4226C26.3852 49.7346 26.3477 49.922 26.3477 50.0719Z" fill="#0098D3"/>
<path d="M66.9375 46.3991H54.382C54.382 46.3991 63.4894 17.8775 94.2972 20.9133C96.9582 15.9661 105.316 0 126.604 0C147.892 0 159.286 20.1637 159.286 20.1637C159.286 20.1637 193.13 19.4142 197.29 56.2932C197.29 60.866 199.201 83.6529 171.804 94.7092C171.804 94.7092 164.945 96.9958 152.015 96.9958H92.011C92.011 96.9958 69.561 97.7454 58.5422 79.1183H72.4095C72.4095 79.1183 78.1063 85.3773 93.6976 85.3773H160.223C160.223 85.3773 181.886 85.7521 186.083 62.9274C186.083 62.9274 189.494 46.9613 175.065 36.692C175.065 36.692 163.297 28.3342 151.865 34.4058C151.865 34.4058 149.204 11.9558 126.38 11.9558C103.555 11.9558 101.269 36.2797 101.269 36.2797C101.269 36.2797 82.3039 23.3869 66.9375 46.3991Z" fill="#0098D3"/>
</svg>
