<svg width="118" height="97" viewBox="0 0 118 97" fill="none" xmlns="http://www.w3.org/2000/svg">
<path d="M3.85564 7.49419L23.7336 0.2172C24.2446 0.029278 24.7925 -0.0380572 25.3341 0.020489C25.8756 0.0790351 26.3962 0.261867 26.8548 0.554609C27.3134 0.847353 27.6976 1.24202 27.9771 1.7076C28.2566 2.17317 28.4238 2.69695 28.4656 3.23776L33.6323 69.1814L47.613 63.6802L42.079 4.46025L112.951 33.2515L117.504 57.5275L94.0995 69.8284L90.8507 45.8736L75.2387 39.3997L80.0962 71.8317C80.2898 73.1251 80.0635 74.4462 79.45 75.6031C78.8366 76.7596 77.8682 77.6908 76.6861 78.261L37.8534 97L6.80417 84.0165C5.68565 83.5485 4.72371 82.7735 4.03033 81.7821C3.33696 80.7912 2.94071 79.624 2.88774 78.4171L0.00641799 13.2765C-0.0519999 12.0306 0.289591 10.7985 0.981679 9.75885C1.67377 8.71919 2.68039 7.92599 3.85564 7.49419Z" fill="#464B4E"/>
</svg>
