<svg width="134" height="97" viewBox="0 0 134 97" fill="none" xmlns="http://www.w3.org/2000/svg">
<path fill-rule="evenodd" clip-rule="evenodd" d="M48.0367 17.6195C53.4069 17.6195 57.8078 22.02 57.8078 27.3936V87.2249C57.8078 92.5951 53.4069 97 48.0367 97C42.6631 97 38.2587 92.5951 38.2587 87.2249V27.3936C38.2587 22.02 42.6631 17.6195 48.0367 17.6195ZM92.29 0C97.6599 0 102.064 4.40418 102.064 9.77497V87.2249C102.064 92.5951 97.6599 97 92.29 97C86.9192 97 82.515 92.5951 82.515 87.2249V9.77497C82.515 4.40418 86.9192 0 92.29 0Z" fill="#ED115B"/>
<path fill-rule="evenodd" clip-rule="evenodd" d="M102.064 45.0094V55.1067C95.5129 58.976 89.067 62.0879 82.5148 64.6653V57.4712C89.9267 55.8591 98.0894 49.4133 102.064 45.0094Z" fill="#CD164A"/>
<path fill-rule="evenodd" clip-rule="evenodd" d="M38.2593 46.5139V56.6118C44.8142 60.6937 51.2601 62.9468 57.8082 65.7407V58.4362C50.3978 56.7183 42.3405 51.0251 38.2593 46.5139Z" fill="#CD164A"/>
<path fill-rule="evenodd" clip-rule="evenodd" d="M14.7369 39.5285C41.481 63.3768 67.4762 70.0392 93.3653 59.5118C98.3056 57.4712 103.353 54.7844 108.294 51.5611C113.99 47.8023 119.79 43.0744 125.479 37.5975C130.637 32.6572 137.083 38.3504 131.389 43.9333C114.633 60.4776 93.6845 72.7226 69.5173 73.0456C59.9587 73.262 50.937 71.2213 42.4497 67.675C34.1764 64.4527 26.0128 59.6181 17.9598 53.2792C14.7369 50.9189 11.7272 48.4484 8.82731 45.8679C4.10307 41.786 8.93743 34.4811 14.7369 39.5285Z" fill="#ED115B"/>
<path d="M3.24451 49.8427C1.52305 48.1246 0.557513 45.9736 0.128123 43.7203C-0.301268 40.9267 0.341122 37.81 2.16883 35.3402C3.99696 32.7637 6.67999 31.2584 9.57998 30.8292C11.8376 30.5061 14.2014 30.7217 16.3483 31.7979C17.637 32.7637 16.8844 35.3402 14.5207 34.2684C13.0195 33.7281 11.5145 33.5161 10.0094 33.7281C7.96874 34.1616 5.92753 35.2335 4.63943 37.062C3.2445 38.9922 2.81511 41.1438 3.13768 43.2904C3.35068 44.7922 3.99697 46.19 5.06882 47.3722C6.46367 48.8733 5.06882 51.2377 3.24451 49.8427Z" fill="#ED115B"/>
</svg>
