<svg width="88" height="97" viewBox="0 0 88 97" fill="none" xmlns="http://www.w3.org/2000/svg">
<path d="M87.8812 97L60.1674 84.5625H15.6933C7.06207 84.5625 0 77.4995 0 68.8683V15.6933C0 7.06174 7.06207 0 15.6933 0H72.1879C80.8191 0 87.8812 7.06174 87.8812 15.6933V97Z" fill="#4B5BB2"/>
<path d="M50.9857 75.1476H36.8954V65.6919H50.9857V75.1476Z" fill="#D8DCF2"/>
<path d="M65.0858 54.0763C69.7194 54.0763 73.5091 52.9804 73.5091 46.705C73.5091 40.4768 69.7194 39.3353 65.0858 39.3353V54.0763Z" fill="#FFFDFE"/>
<path d="M17.531 50.473C17.531 59.739 25.1106 67.3192 34.3768 67.3192H53.5043C62.7686 67.3192 70.3508 59.739 70.3508 50.473V45.6536C70.3508 36.3876 62.7686 28.8077 53.5043 28.8077H34.3768C25.1106 28.8077 17.531 36.3876 17.531 45.6536V50.473Z" fill="#FFFDFE"/>
<path d="M53.5043 58.4003C59.2042 58.4003 63.8411 53.7635 63.8411 48.0629C63.8411 42.364 59.2042 37.7268 53.5043 37.7268H34.3768C28.6775 37.7268 24.0406 42.364 24.0406 48.0629C24.0406 53.7635 28.6775 58.4003 34.3768 58.4003H53.5043Z" fill="#D8DCF2"/>
<path d="M51.3099 35.1251C51.3099 30.4918 50.2157 26.7018 43.9393 26.7018C37.7125 26.7018 36.5697 30.4918 36.5697 35.1251H51.3099Z" fill="#FFFDFE"/>
<path d="M40.7564 17.354C40.7564 15.5934 42.1836 14.1684 43.9393 14.1684C45.7002 14.1684 47.1274 15.5934 47.1274 17.354C47.1274 19.1145 45.7002 20.5395 43.9393 20.5395C42.1836 20.5395 40.7564 19.1145 40.7564 17.354Z" fill="#FFFDFE"/>
<path d="M41.7328 18.0049C41.7328 16.2444 43.1601 14.8194 44.9158 14.8194C45.3578 14.8194 45.779 14.9096 46.1617 15.0723C45.5876 14.5134 44.8041 14.1684 43.9393 14.1684C42.1836 14.1684 40.7564 15.5934 40.7564 17.3539C40.7564 18.6735 41.5584 19.8045 42.6999 20.2882C42.1039 19.7098 41.7328 18.9013 41.7328 18.0049Z" fill="#D8DCF2"/>
<path d="M42.8783 27.6459H45.005V19.6575H42.8783V27.6459Z" fill="#FFFDFE"/>
<path d="M34.3768 28.8077H38.2013C30.4508 28.8077 21.0918 36.3876 21.0918 45.6536V50.473C21.0918 59.739 29.3224 67.3192 38.5886 67.3192H34.3768C25.1106 67.3192 17.531 59.739 17.531 50.473V45.6536C17.531 36.3876 25.1106 28.8077 34.3768 28.8077Z" fill="#D8DCF2"/>
<path d="M20.2308 39.4867C16.8406 39.9495 14.3721 41.6404 14.3721 46.705C14.3721 51.5004 16.616 53.2804 19.7631 53.8461C20.3353 53.949 20.762 39.4141 20.2308 39.4867Z" fill="#D8DCF2"/>
<path d="M37.4397 48.0629C37.4397 46.5341 36.1989 45.2963 34.6731 45.2963C33.1436 45.2963 31.9064 46.5341 31.9064 48.0629C31.9064 49.593 33.1436 50.8302 34.6731 50.8302C36.1989 50.8302 37.4397 49.593 37.4397 48.0629Z" fill="#4B5BB2"/>
<path d="M55.9755 48.0629C55.9755 46.5341 54.7383 45.2963 53.2092 45.2963C51.6794 45.2963 50.4422 46.5341 50.4422 48.0629C50.4422 49.5924 51.6794 50.8302 53.2092 50.8302C54.7383 50.8302 55.9755 49.5924 55.9755 48.0629Z" fill="#4B5BB2"/>
<path d="M43.9405 72.363C33.5409 72.363 27.7137 77.0403 27.7137 84.5746V85.4329H60.1673V84.5746C60.1673 77.0403 54.4241 72.363 43.9405 72.363Z" fill="white"/>
</svg>
