<svg width="77" height="97" viewBox="0 0 77 97" fill="none" xmlns="http://www.w3.org/2000/svg">
<path d="M5.42559 23.3885C5.42559 23.3885 2.97352 22.8043 3.20787 26.0737L0.059627 94.7212C0.059627 94.7212 -0.518808 97.4065 1.92754 96.9401L74.4034 96.9263C74.4034 96.9263 77.6671 97.6603 76.7469 94.4983L73.6112 25.9571C73.6112 25.9571 74.6618 23.0387 70.8093 23.1553L5.42559 23.3885Z" fill="#6669B0"/>
<path d="M62.0124 23.4753L61.53 23.6502C61.1311 23.6273 60.7298 23.5862 60.3331 23.5862C45.7717 23.5862 31.2102 23.5862 16.6487 23.5862C16.092 23.5862 15.5353 23.6639 14.9786 23.7005C14.946 23.6037 14.8916 23.5157 14.8197 23.4433C14.7922 13.2429 21.4077 4.16056 31.5977 0.987166C41.5043 -2.09935 52.9918 2.25835 58.3269 11.1772C60.2017 14.3129 61.4934 17.6372 61.6878 21.3341C61.7255 22.0555 61.8981 22.7631 62.0124 23.4753Z" fill="#55C9EA"/>
<path d="M14.9795 23.706C15.5362 23.6649 16.0929 23.5917 16.6497 23.5917C31.2111 23.5856 45.7726 23.5856 60.3341 23.5917C60.7331 23.5917 61.1343 23.634 61.531 23.6557C62.0214 32.5403 55.7969 43.0025 44.6203 46.0615C31.7884 49.5756 19.0628 42.1062 15.7146 29.3887C15.231 27.5345 14.8846 25.6448 14.9795 23.706Z" fill="#1F304F"/>
</svg>
