<svg width="97" height="97" viewBox="0 0 97 97" fill="none" xmlns="http://www.w3.org/2000/svg">
<path d="M48.5 0C31.2026 0 16.0229 9.05673 7.43683 22.6858H57.791C69.6674 22.6858 79.3289 32.3472 79.3289 44.2238C79.3289 56.1001 69.6674 65.7621 57.791 65.7621H53.1219L70.1602 91.9029C86.0721 83.9459 97 67.5008 97 48.5C97 21.7142 75.2857 0 48.5 0ZM54.3444 96.6486C52.4278 96.8781 50.478 97 48.5 97C21.7142 97 0 75.2857 0 48.5C0 45.0384 0.365536 41.663 1.05475 38.4066H57.791C60.9984 38.4066 63.6081 41.0167 63.6081 44.2238C63.6081 47.431 60.9984 50.0403 57.791 50.0403H24.0106L54.3444 96.6486Z" fill="#44C2F4"/>
</svg>
