<svg width="97" height="97" viewBox="0 0 97 97" fill="none" xmlns="http://www.w3.org/2000/svg">
<path d="M48.5 0C21.7123 0 0 21.7123 0 48.5C0 75.2877 21.7123 97 48.5 97C75.2877 97 97 75.2877 97 48.5C97 21.7123 75.2877 0 48.5 0Z" fill="#182542"/>
<path d="M69.1747 65.8852L64.913 59.9801C66.0401 59.343 74 55.429 74 44.6316C74 24.8912 52.9613 23.5827 52.9613 23.5827H38.9434C38.8729 23.5259 38.8142 23.4576 38.7438 23.4007C38.6733 23.3438 38.6029 23.2869 38.5325 23.23C38.2977 23.0366 38.0511 22.8432 37.8046 22.6725C37.018 22.1378 36.1492 21.7054 35.2217 21.421C34.3294 21.1479 33.3902 21 32.404 21C27.203 21 23 25.1301 23 30.2273C23 35.3246 27.2148 39.4547 32.404 39.4547C33.4606 39.4547 34.4703 39.284 35.4213 38.9655C36.6305 38.5672 37.7341 37.9301 38.6616 37.1109C38.7438 37.0426 38.8142 36.9743 38.8847 36.8947H48.6761C53.8536 36.8947 56.3308 39.2385 56.3308 43.0842C56.3308 46.9299 53.6188 49.2737 48.4296 49.2737H47.8543H41.8197H31.6526H23V52.7894H29.3633V55.4063H23V58.0345H29.3633V60.6514H23V63.2683H29.3633V65.8852H23V76H44.6139V65.8852H41.8197V63.2683V65.0205V63.2683H47.8543H48.4296L50.038 65.8852H47.3142V76H73.9883V65.8852H69.1747ZM35.7852 33.4359C35.703 33.5155 35.6209 33.5952 35.5504 33.6634C35.0691 34.0844 34.529 34.3916 33.9302 34.585C33.4489 34.7443 32.9323 34.824 32.4275 34.824C29.8329 34.824 27.7314 32.7532 27.7314 30.216C27.7314 27.6787 29.8446 25.608 32.4275 25.608C32.9088 25.608 33.3785 25.6763 33.8363 25.8128C34.4468 25.9948 34.9986 26.302 35.4917 26.7116L35.5974 26.8026C36.5601 27.6674 37.1119 28.862 37.1236 30.1477C37.1236 30.1818 37.1236 30.216 37.1236 30.2501C37.1001 31.4561 36.6305 32.5825 35.7852 33.4359Z" fill="#59A2DD"/>
</svg>
