<svg width="130" height="97" viewBox="0 0 130 97" fill="none" xmlns="http://www.w3.org/2000/svg">
<path d="M56.8843 62.8538L36.7634 82.9733C35.4523 81.9205 34.1919 80.7975 32.9925 79.5962C31.9858 78.5866 31.0318 77.5419 30.1326 76.4567C27.32 73.0688 25.0326 69.3083 23.3074 65.2293C21.0627 59.9194 19.8714 54.2936 19.7656 48.5004C19.7575 48.2116 19.7556 47.9254 19.7556 47.6393C19.7556 41.5383 20.951 35.6183 23.3074 30.0465C24.6917 26.7774 26.4391 23.7107 28.5275 20.8708L21.083 13.4255C13.6995 22.8685 9.29553 34.7491 9.29553 47.6393C9.29553 47.9254 9.29741 48.2143 9.30362 48.5004C9.50851 61.9845 14.5356 74.3213 22.7289 83.8587C24.7524 86.2127 26.9666 88.3966 29.3513 90.3835L22.7351 97C21.4585 95.9094 20.2183 94.7621 19.023 93.5635C18.0182 92.5593 17.0523 91.5281 16.1207 90.4672C11.5218 85.2382 7.8259 79.3505 5.10424 72.923C1.82864 65.17 0.113647 56.9634 0.00404665 48.5004C0.00215698 48.2116 0 47.9254 0 47.6393C0 38.8739 1.71688 30.3677 5.10424 22.3556C7.48711 16.7243 10.6186 11.5089 14.4465 6.79011C15.441 5.56453 16.4838 4.36865 17.5741 3.2111C18.0468 2.70332 18.53 2.20633 19.023 1.71313C19.6055 1.12841 20.1981 0.558273 20.8009 7.62939e-06L41.3847 20.582C40.2401 21.5808 39.1563 22.6498 38.1475 23.7836C37.086 24.9741 36.1058 26.2321 35.2088 27.5521C31.3242 33.2886 29.0512 40.2048 29.0512 47.6393C29.0512 47.9254 29.0552 48.2143 29.0611 48.5004C29.252 56.5423 32.0973 63.9336 36.7553 69.8347L43.4364 63.1507C42.2737 61.5391 41.2954 59.806 40.5141 57.9622C39.2416 54.9523 38.5454 51.7749 38.4417 48.5004C38.4317 48.2143 38.4274 47.9254 38.4274 47.6393C38.4274 44.0624 39.1298 40.5881 40.5141 37.3136C40.9482 36.2878 41.4436 35.2971 41.9975 34.3414C42.8033 32.9512 43.7309 31.6419 44.7802 30.4163C45.2307 29.8926 45.7037 29.3797 46.1966 28.8857C46.7813 28.2999 47.392 27.7438 48.0231 27.2228L54.6459 33.8474C53.4259 34.7599 52.3299 35.8316 51.3946 37.0301C50.3817 38.3151 49.5535 39.7459 48.9407 41.2846C48.1573 43.2525 47.7251 45.396 47.7251 47.6393C47.7251 47.9254 47.7332 48.2143 47.7453 48.5004C47.8895 51.3916 48.748 54.0938 50.1504 56.4397C51.7639 59.1419 54.0979 61.369 56.8843 62.8538Z" fill="#302F2F"/>
<path d="M129.895 47.6393C129.895 47.9254 129.893 48.2116 129.891 48.5004C129.782 56.9634 128.067 65.17 124.791 72.923C122.07 79.3505 118.374 85.2382 113.777 90.4672C112.845 91.5281 111.877 92.5593 110.873 93.5635C109.675 94.7621 108.437 95.904 107.162 97L86.4915 76.3325C88.9797 74.4617 91.2162 72.2751 93.1402 69.8347C97.7982 63.9336 100.643 56.5423 100.834 48.5004C100.84 48.2143 100.844 47.9254 100.844 47.6393C100.844 40.2048 98.5713 33.2886 94.6867 27.5521L87.8979 34.3414C88.4519 35.2971 88.9472 36.2878 89.3794 37.3136C90.7656 40.5881 91.4678 44.0624 91.4678 47.6393C91.4678 47.9254 91.4637 48.2143 91.4537 48.5004C91.3504 51.7749 90.6542 54.9523 89.3794 57.9622C88.6001 59.806 87.6221 61.5391 86.4588 63.1507C85.6309 64.2953 84.7114 65.3751 83.7007 66.3901C82.4911 67.5995 81.1821 68.6793 79.7837 69.6242L73.0112 62.8538C75.7998 61.369 78.1338 59.1419 79.7473 56.4397C81.1456 54.0938 82.0062 51.3916 82.1501 48.5004C82.1623 48.2143 82.1704 47.9254 82.1704 47.6393C82.1704 45.396 81.7382 43.2525 80.955 41.2846C80.342 39.7459 79.5119 38.3151 78.5031 37.0302C77.5655 35.8289 76.4695 34.7599 75.2496 33.8474L95.1111 13.987C95.7217 14.535 96.3186 15.0993 96.9052 15.6824C97.3984 16.1764 97.8773 16.6785 98.3418 17.1914C99.4198 18.3684 100.429 19.5966 101.368 20.8708C103.457 23.7107 105.204 26.7774 106.586 30.0465C108.944 35.6183 110.14 41.5384 110.14 47.6393C110.14 47.9254 110.138 48.2116 110.13 48.5004C110.024 54.2936 108.833 59.9194 106.586 65.2293C104.863 69.3083 102.576 73.0688 99.7648 76.4567L107.166 83.8587C115.362 74.3213 120.387 61.9845 120.592 48.5004C120.598 48.2143 120.6 47.9254 120.6 47.6393C120.6 34.7491 116.196 22.8685 108.815 13.4255C107.836 12.1757 106.805 10.9663 105.726 9.80549C104.695 8.69328 103.617 7.62428 102.497 6.59846L109.095 1.52588e-05C109.697 0.558281 110.29 1.12841 110.873 1.71313C111.366 2.20417 111.849 2.70332 112.322 3.20894C113.411 4.36865 114.453 5.56453 115.449 6.79012C119.277 11.5089 122.409 16.7244 124.791 22.3556C128.178 30.3677 129.895 38.8739 129.895 47.6393Z" fill="#302F2F"/>
<path d="M74.093 48.5004C74.093 53.5512 69.9995 57.6464 64.9478 57.6464C59.8962 57.6464 55.8027 53.5512 55.8027 48.5004C55.8027 43.4496 59.8962 39.3545 64.9478 39.3545C69.9995 39.3545 74.093 43.4496 74.093 48.5004Z" fill="#302F2F"/>
<path d="M22.7352 97C21.4586 95.9094 20.2184 94.7621 19.0231 93.5635C18.0183 92.5593 17.0524 91.5281 16.1208 90.4672C11.5219 85.2382 7.82597 79.3505 5.10432 72.923C1.82872 65.17 0.11372 56.9634 0.00411987 48.5004H9.30369C9.50859 61.9845 14.5356 74.3213 22.729 83.8587C24.7525 86.2127 26.9667 88.3966 29.3514 90.3835L22.7352 97Z" fill="#302F2F"/>
<path d="M36.7635 82.9733C35.4524 81.9204 34.192 80.7974 32.9926 79.5962C31.9859 78.5865 31.0319 77.5418 30.1327 76.4566C27.3201 73.0687 25.0328 69.3083 23.3075 65.2293C21.0629 59.9193 19.8716 54.2935 19.7657 48.5004H29.0613C29.2521 56.5422 32.0974 63.9335 36.7554 69.8347L43.4365 63.1507C42.2738 61.5391 41.2955 59.806 40.5143 57.9622C39.2417 54.9522 38.5455 51.7749 38.4418 48.5004H47.7455C47.8896 51.3916 48.7481 54.0938 50.1505 56.4397C51.764 59.1419 54.098 61.369 56.8844 62.8537L36.7635 82.9733Z" fill="#302F2F"/>
<path d="M64.9478 57.6464C59.8962 57.6464 55.8027 53.5512 55.8027 48.5004H74.093C74.093 53.5512 69.9995 57.6464 64.9478 57.6464Z" fill="#302F2F"/>
<path d="M79.7837 69.6242L73.0112 62.8538C75.7998 61.369 78.1338 59.1419 79.7473 56.4397C81.1456 54.0938 82.0062 51.3916 82.1501 48.5004H91.4538C91.3504 51.7749 90.6542 54.9523 89.3794 57.9622C88.6001 59.806 87.6221 61.5391 86.4588 63.1507C85.6309 64.2953 84.7114 65.3751 83.7007 66.3902C82.4911 67.5995 81.1821 68.6793 79.7837 69.6242Z" fill="#302F2F"/>
<path d="M107.162 97L86.4916 76.3325C88.9797 74.4617 91.2163 72.2751 93.1402 69.8347C97.7983 63.9336 100.644 56.5423 100.834 48.5004H110.13C110.024 54.2936 108.833 59.9194 106.586 65.2293C104.863 69.3083 102.576 73.0688 99.7648 76.4567L107.166 83.8587C115.362 74.3213 120.387 61.9845 120.592 48.5004H129.891C129.782 56.9634 128.067 65.17 124.791 72.923C122.07 79.3505 118.374 85.2382 113.777 90.4672C112.845 91.5281 111.877 92.5593 110.873 93.5635C109.675 94.7621 108.437 95.904 107.162 97Z" fill="#302F2F"/>
<path d="M38.1474 23.7836L17.5741 3.21109C18.0468 2.70331 18.53 2.20633 19.023 1.71312C19.6055 1.12841 20.1981 0.55827 20.8009 7.62939e-06L41.3847 20.582C40.2401 21.5808 39.1563 22.6498 38.1474 23.7836Z" fill="#302F2F"/>
<path d="M51.3946 37.0302L44.7802 30.4163C45.2308 29.8926 45.7037 29.3797 46.1966 28.8857C46.7814 28.2999 47.392 27.7438 48.0231 27.2228L54.6459 33.8474C53.426 34.7599 52.33 35.8316 51.3946 37.0302Z" fill="#302F2F"/>
<path d="M78.5031 37.0302C77.5656 35.8289 76.4696 34.7599 75.2497 33.8474L95.1111 13.987C95.7218 14.535 96.3186 15.0992 96.9052 15.6823C97.3984 16.1764 97.8773 16.6785 98.3419 17.1914L78.5031 37.0302Z" fill="#302F2F"/>
<path d="M105.726 9.80547C104.695 8.69326 103.617 7.62426 102.497 6.59844L109.095 -3.8147e-06C109.698 0.558257 110.29 1.1284 110.873 1.71311C111.366 2.20415 111.849 2.7033 112.322 3.20892L105.726 9.80547Z" fill="#302F2F"/>
</svg>
