<svg width="95" height="97" viewBox="0 0 95 97" fill="none" xmlns="http://www.w3.org/2000/svg">
<path fill-rule="evenodd" clip-rule="evenodd" d="M28.6532 49.3081C23.2604 49.3081 18.8892 44.9209 18.8892 39.508C18.8892 34.0954 23.2604 29.7082 28.6532 29.7082L29.4995 29.7453H55.6132H58.5797L88.3254 0L65.9746 10.7495H28.6532C12.8285 10.7495 0 23.6251 0 39.508C0 52.7826 8.9617 63.9579 21.1429 67.2703L39.1065 49.3081H28.6532Z" fill="#0DABD1"/>
<path fill-rule="evenodd" clip-rule="evenodd" d="M66.0623 47.6919C71.4538 47.6919 75.825 52.0788 75.825 57.4903C75.825 62.9032 71.4538 67.2901 66.0623 67.2901L65.215 67.2543H39.1023H36.1345L6.38879 97L28.7396 86.2501H66.0623C81.8856 86.2501 94.7155 73.3749 94.7155 57.4903C94.7155 44.216 85.7538 33.0418 73.5716 29.7307L55.608 47.6919H66.0623Z" fill="#1A2663"/>
</svg>
