<svg width="729" height="107" viewBox="0 0 729 107" fill="none" xmlns="http://www.w3.org/2000/svg">
<path d="M58.2286 14.3166H59.959V23.1016H58.2286V14.3166Z" fill="white"/>
<path d="M64.3377 26.426C64.3377 27.1932 63.7153 27.8176 62.9481 27.8176H9.65975C8.89261 27.8176 8.27023 27.1932 8.27023 26.426V10.9881C8.27023 10.221 8.89261 9.59857 9.65975 9.59857H62.9481C63.7153 9.59857 64.3377 10.221 64.3377 10.9881V26.426ZM67.7743 0H4.8274C2.1633 0 0 2.16289 0 4.82823V101.476C0 104.145 2.1633 106.302 4.8274 106.302H39.1792V62.4858H60.105V49.7463H72.6025V4.82823C72.6025 2.16289 70.4458 0 67.7743 0Z" fill="white"/>
<path d="M59.959 14.3166V23.1016H58.2286V14.3166H59.959Z" fill="#1A6BB4"/>
<path d="M40.6952 49.7355V53.8354H55.1718V49.7355H40.6952Z" fill="#1A6BB4"/>
<path d="M23.7034 49.6498V42.1804H18.9855V49.6498H11.0839V53.6223H18.9855V61.3919H23.7034V53.6223H31.605V49.6498H23.7034Z" fill="#1A6BB4"/>
<path d="M23.9168 84.9404L29.6384 76.19H25.2788L21.1551 82.713L17.0315 76.19H12.6702L18.3984 84.9404L12.3654 94.4054H16.8282L21.1551 87.271L25.4869 94.4054H29.9793L23.9168 84.9404Z" fill="#1A6BB4"/>
<path d="M100.56 106.307H86.7975V40.1009H100.56V106.307Z" fill="white"/>
<path d="M79.6338 106.306H65.8733V55.5125H79.6338V106.306Z" fill="white"/>
<path d="M58.7086 106.306H44.946V68.2571H58.7086V106.306Z" fill="white"/>
<path d="M58.2286 14.3166V23.1016H59.959V14.3166H58.2286Z" fill="white"/>
<path d="M173.821 75.2566H143.281L137.606 89.3035H116.765L148.646 17.0031H168.765L200.749 89.3035H179.495L173.821 75.2566ZM167.837 60.1768L158.551 37.0406L149.265 60.1768H167.837ZM241.541 90.7495C233.975 90.7495 227.165 89.1658 221.113 85.9983C215.128 82.762 210.417 78.2863 206.978 72.5711C203.538 66.8559 201.819 60.3833 201.819 53.1533C201.819 45.9232 203.538 39.4506 206.978 33.7355C210.417 28.0203 215.128 23.579 221.113 20.4115C227.165 17.1752 233.975 15.5571 241.541 15.5571C248.144 15.5571 254.094 16.7276 259.39 19.0688C264.687 21.41 269.089 24.784 272.597 29.1909L259.597 40.9655C254.92 35.3192 249.245 32.496 242.573 32.496C238.652 32.496 235.144 33.3567 232.049 35.0782C229.023 36.7996 226.65 39.2441 224.93 42.4115C223.279 45.5101 222.454 49.0907 222.454 53.1533C222.454 57.2159 223.279 60.8309 224.93 63.9983C226.65 67.0969 229.023 69.507 232.049 71.2284C235.144 72.9498 238.652 73.8105 242.573 73.8105C249.245 73.8105 254.92 70.9874 259.597 65.3411L272.597 77.1157C269.089 81.5226 264.687 84.8966 259.39 87.2378C254.094 89.5789 248.144 90.7495 241.541 90.7495ZM316.202 90.7495C308.636 90.7495 301.826 89.1658 295.773 85.9983C289.789 82.762 285.078 78.2863 281.638 72.5711C278.199 66.8559 276.48 60.3833 276.48 53.1533C276.48 45.9232 278.199 39.4506 281.638 33.7355C285.078 28.0203 289.789 23.579 295.773 20.4115C301.826 17.1752 308.636 15.5571 316.202 15.5571C322.805 15.5571 328.755 16.7276 334.051 19.0688C339.348 21.41 343.75 24.784 347.258 29.1909L334.258 40.9655C329.58 35.3192 323.906 32.496 317.234 32.496C313.313 32.496 309.805 33.3567 306.71 35.0782C303.683 36.7996 301.31 39.2441 299.591 42.4115C297.94 45.5101 297.115 49.0907 297.115 53.1533C297.115 57.2159 297.94 60.8309 299.591 63.9983C301.31 67.0969 303.683 69.507 306.71 71.2284C309.805 72.9498 313.313 73.8105 317.234 73.8105C323.906 73.8105 329.58 70.9874 334.258 65.3411L347.258 77.1157C343.75 81.5226 339.348 84.8966 334.051 87.2378C328.755 89.5789 322.805 90.7495 316.202 90.7495ZM391.274 90.7495C383.639 90.7495 376.761 89.1314 370.639 85.895C364.586 82.6587 359.806 78.183 356.298 72.4678C352.859 66.7526 351.139 60.3145 351.139 53.1533C351.139 45.9921 352.859 39.5539 356.298 33.8387C359.806 28.1236 364.586 23.6478 370.639 20.4115C376.761 17.1752 383.639 15.5571 391.274 15.5571C398.909 15.5571 405.753 17.1752 411.806 20.4115C417.928 23.6478 422.708 28.1236 426.147 33.8387C429.655 39.5539 431.409 45.9921 431.409 53.1533C431.409 60.3145 429.655 66.7526 426.147 72.4678C422.708 78.183 417.928 82.6587 411.806 85.895C405.753 89.1314 398.909 90.7495 391.274 90.7495ZM391.274 73.8105C394.92 73.8105 398.221 72.9498 401.179 71.2284C404.137 69.507 406.475 67.0969 408.195 63.9983C409.915 60.8309 410.774 57.2159 410.774 53.1533C410.774 49.0907 409.915 45.5101 408.195 42.4115C406.475 39.2441 404.137 36.7996 401.179 35.0782C398.221 33.3567 394.92 32.496 391.274 32.496C387.629 32.496 384.327 33.3567 381.369 35.0782C378.412 36.7996 376.073 39.2441 374.354 42.4115C372.634 45.5101 371.774 49.0907 371.774 53.1533C371.774 57.2159 372.634 60.8309 374.354 63.9983C376.073 67.0969 378.412 69.507 381.369 71.2284C384.327 72.9498 387.629 73.8105 391.274 73.8105ZM475.435 90.7495C464.705 90.7495 456.348 87.8231 450.364 81.9702C444.448 76.1173 441.491 67.8199 441.491 57.0782V17.0031H461.919V56.4584C461.919 68.0265 466.493 73.8105 475.641 73.8105C484.721 73.8105 489.261 68.0265 489.261 56.4584V17.0031H509.38V57.0782C509.38 67.8199 506.388 76.1173 500.403 81.9702C494.488 87.8231 486.165 90.7495 475.435 90.7495ZM591.933 17.0031V89.3035H575.116L543.235 50.7777V89.3035H523.219V17.0031H540.036L571.917 55.5289V17.0031H591.933ZM621.716 33.219H599.534V17.0031H664.224V33.219H642.145V89.3035H621.716V33.219ZM697.016 90.7495C691.169 90.7495 685.494 90.0265 679.992 88.5805C674.489 87.1345 670.018 85.2065 666.579 82.7965L673.285 67.7167C676.518 69.8512 680.267 71.5727 684.532 72.881C688.796 74.1893 692.992 74.8434 697.119 74.8434C704.96 74.8434 708.881 72.881 708.881 68.9561C708.881 66.8904 707.746 65.3755 705.476 64.4115C703.275 63.3786 699.698 62.3113 694.746 61.2096C689.312 60.039 684.772 58.7996 681.127 57.4913C677.481 56.1142 674.352 53.9451 671.738 50.9843C669.124 48.0234 667.817 44.0297 667.817 39.0031C667.817 34.5962 669.021 30.6369 671.428 27.1251C673.836 23.5445 677.412 20.7214 682.158 18.6557C686.973 16.5899 692.854 15.5571 699.801 15.5571C704.547 15.5571 709.225 16.1079 713.833 17.2096C718.442 18.2425 722.5 19.7918 726.008 21.8575L719.714 37.0406C712.836 33.3223 706.164 31.4632 699.698 31.4632C695.64 31.4632 692.682 32.0829 690.825 33.3223C688.968 34.4929 688.04 36.0422 688.04 37.9702C688.04 39.8982 689.14 41.3442 691.341 42.3082C693.542 43.2722 697.085 44.2707 701.968 45.3035C707.471 46.4741 712.01 47.748 715.587 49.1251C719.233 50.4334 722.362 52.568 724.976 55.5289C727.659 58.4209 729 62.3802 729 67.4068C729 71.7448 727.796 75.6697 725.389 79.1814C722.981 82.6932 719.37 85.5163 714.555 87.6509C709.741 89.7166 703.894 90.7495 697.016 90.7495Z" fill="white"/>
</svg>
