<svg width="34" height="34" viewBox="0 0 34 34" fill="none" xmlns="http://www.w3.org/2000/svg">
<path d="M34 17C34 17.4509 33.8209 17.8833 33.5021 18.2021C33.1833 18.5209 32.7509 18.7 32.3 18.7H18.7V32.3C18.7 32.7509 18.5209 33.1833 18.2021 33.5021C17.8833 33.8209 17.4509 34 17 34C16.5491 34 16.1167 33.8209 15.7979 33.5021C15.4791 33.1833 15.3 32.7509 15.3 32.3V18.7H1.7C1.24913 18.7 0.81673 18.5209 0.497918 18.2021C0.179107 17.8833 0 17.4509 0 17C0 16.5491 0.179107 16.1167 0.497918 15.7979C0.81673 15.4791 1.24913 15.3 1.7 15.3H15.3V1.7C15.3 1.24913 15.4791 0.81673 15.7979 0.497918C16.1167 0.179107 16.5491 0 17 0C17.4509 0 17.8833 0.179107 18.2021 0.497918C18.5209 0.81673 18.7 1.24913 18.7 1.7V15.3H32.3C32.7509 15.3 33.1833 15.4791 33.5021 15.7979C33.8209 16.1167 34 16.5491 34 17Z" fill="#3D4353"/>
</svg>
