<svg width="8" height="8" viewBox="0 0 8 8" fill="none" xmlns="http://www.w3.org/2000/svg">
<path d="M4.0381 7.28419L7.7021 3.88889C7.73332 3.8599 7.75081 3.82059 7.75073 3.77962L7.75073 1.00166C7.7509 0.916423 7.67646 0.847205 7.58448 0.847046C7.54013 0.846974 7.49759 0.863294 7.46627 0.892391L3.92017 4.17873L0.374082 0.892391C0.309129 0.832042 0.203674 0.831926 0.13855 0.892116C0.107151 0.92114 0.0895384 0.960567 0.0896165 1.00166L0.0896165 3.77962C0.0895384 3.82059 0.107026 3.8599 0.138253 3.88889L3.80227 7.28419C3.86722 7.34454 3.97268 7.34465 4.0378 7.28446C4.03789 7.28436 4.03799 7.28428 4.0381 7.28419Z" fill="#E5E5E5"/>
</svg>
