<svg width="59" height="73" viewBox="0 0 59 73" fill="none" xmlns="http://www.w3.org/2000/svg">
<path fill-rule="evenodd" clip-rule="evenodd" d="M20.9019 49.2097L24.5992 49.8543V54.0152L20.9019 53.3704V49.2097ZM20.5741 32.39L16.81 31.7333V23.535L20.5741 24.1921V28.1141V28.4827V32.39ZM8.51596 34.5695V30.3626L12.4562 31.0501V35.257L8.51596 34.5695ZM58.1661 -2.10578e-06H11.566C8.76749 -2.10578e-06 6.47771 2.29001 6.47771 5.08947C6.47771 7.88869 8.97301 9.77428 11.745 10.1659L14.709 10.585L16.6474 10.861V15.043V19.1541L20.9019 19.8966V24.1869L28.7091 25.5493V21.259L33.0623 22.0183V26.3707L28.9514 25.6541V29.9442L24.927 29.2418V33.2258L20.9019 32.5244V36.7303V36.8005V44.8563L24.9206 45.5578V49.809L28.7091 50.4699V42.4452L24.5992 41.7283V37.3749L28.7091 38.0925V33.8092L33.0623 34.5688V38.9222L28.9514 38.2044V42.4015L33.0623 43.1191V51.2302L37.3014 51.9689L41.0396 52.6217V69.5522L24.6274 66.4325V62.6421V58.3726L20.5682 57.664V53.4021L16.81 52.7467V57.0086L12.4562 56.2497V51.8968L16.5495 52.6111V48.3487L20.5682 49.0497V45.049L16.5495 44.3483V36.0412L12.785 35.3838V39.667L8.51596 38.9222V42.6953L12.785 43.4396V47.793L8.43157 47.034V42.9316L4.16233 42.1872V37.8338L8.43157 38.5792V34.6245L4.16233 33.8794V29.6033L0 28.8767V24.5243L4.35388 25.2838V29.5597L8.43157 30.2711V25.9952L12.4562 26.6974V22.7136L16.5495 23.4276V19.3798L12.295 18.6371V14.2837L16.6474 15.043L20.9996 15.8032V11.4809L41.0396 14.3344V48.2681L37.3014 47.6164V51.9689V56.3223L32.948 55.563V51.3108L28.9514 50.6136V54.8648L24.9206 54.1617V58.3399L28.9796 59.0485V63.4016L24.6274 62.6421L20.274 61.8823V65.6053L7.10544 63.1029V65.965L41.0396 72.4145L43.8547 72.95V70.0868V11.8922L14.709 7.74125L12.2573 7.39229C10.8809 7.196 9.50427 6.73397 9.50427 5.34408V5.34336C9.50427 3.95276 10.6419 2.8151 12.0323 2.8151H14.709H55.351V56.3749H54.1176V59.1898H55.351H58.1661V56.3749V2.8151V-2.10578e-06Z" fill="#100F0D"/>
<path fill-rule="evenodd" clip-rule="evenodd" d="M46.5143 67.5751V10.4774L14.378 6.34683V6.22357L48.2724 8.70489V10.7038V67.5751V69.6344H46.5143H45.1209V67.5751H46.5143ZM14.378 4.87468L50.9324 6.94043V62.2801H49.539V64.3397H52.69V63.7167V62.2801V7.03976V4.75094H50.9324H14.378V4.87468Z" fill="#B6B5B5"/>
</svg>
