<svg width="91" height="73" viewBox="0 0 91 73" fill="none" xmlns="http://www.w3.org/2000/svg">
<path d="M25.2987 0.331714L41.0708 1.98995C41.4765 2.03201 41.867 2.16761 42.2115 2.3861C42.5559 2.60459 42.845 2.90001 43.056 3.24912C43.267 3.59824 43.3942 3.99154 43.4274 4.39811C43.4607 4.80467 43.3992 5.21341 43.2478 5.5922L24.8322 51.8022L36.0524 52.71L51.9895 10.9161L90.0554 53.7677L85.0571 71.6551L65.2479 72.2218L71.0157 54.9821L62.6741 45.4537L55.1736 68.946C54.8742 69.8829 54.2835 70.6997 53.4875 71.2775C52.6915 71.8552 51.7318 72.1637 50.7483 72.1579L18.4352 71.9708L1.88138 52.9478C1.28515 52.2623 0.895931 51.4215 0.759058 50.5234C0.622185 49.6252 0.743292 48.7067 1.10827 47.8747L20.793 2.9619C21.1673 2.10176 21.8058 1.38316 22.6159 0.910257C23.426 0.437352 24.3657 0.234714 25.2987 0.331714Z" fill="#464B4E"/>
</svg>
