<svg width="30" height="30" viewBox="0 0 30 30" fill="none" xmlns="http://www.w3.org/2000/svg">
<g clip-path="url(#clip0_166_428)">
<path d="M12.5 30C9.91638 30 7.8125 27.8975 7.8125 25.3125C7.8125 24.795 8.2325 24.375 8.75 24.375C9.2675 24.375 9.6875 24.795 9.6875 25.3125C9.6875 26.8639 10.95 28.125 12.5 28.125C14.05 28.125 15.3125 26.8639 15.3125 25.3125C15.3125 24.795 15.7325 24.375 16.25 24.375C16.7675 24.375 17.1875 24.795 17.1875 25.3125C17.1875 27.8975 15.0838 30 12.5 30Z" fill="#1F304F"/>
<path d="M22.8124 26.25H2.18742C0.981216 26.25 0 25.2688 0 24.0626C0 23.4224 0.278778 22.8163 0.764923 22.4C0.79628 22.3725 0.829925 22.3475 0.864944 22.3249C2.69989 20.7236 3.75 18.4199 3.75 15.9874V12.4999C3.75 8.42881 6.50871 4.93378 10.4588 3.99994C10.9637 3.88367 11.4688 4.19243 11.5876 4.69758C11.7062 5.20134 11.3937 5.70626 10.8913 5.82505C7.78999 6.55747 5.625 9.30245 5.625 12.4999V15.9874C5.625 19.0075 4.30115 21.8651 1.99631 23.8261C1.97754 23.8412 1.96129 23.855 1.94115 23.8687C1.9075 23.9113 1.875 23.9763 1.875 24.0626C1.875 24.2324 2.01759 24.375 2.18742 24.375H22.8124C22.9825 24.375 23.1251 24.2324 23.1251 24.0626C23.1251 23.9749 23.0926 23.9113 23.0576 23.8687C23.0388 23.855 23.0212 23.8412 23.0038 23.8261C21.8839 22.8712 20.9999 21.7188 20.3776 20.4C20.1551 19.9324 20.3549 19.3737 20.8237 19.1512C21.2963 18.9287 21.85 19.1313 22.0713 19.5987C22.5661 20.6438 23.2599 21.5613 24.1374 22.3288C24.1699 22.3512 24.2038 22.375 24.2324 22.4C24.7213 22.8163 25.0001 23.4224 25.0001 24.0626C25.0001 25.2688 24.0189 26.25 22.8124 26.25Z" fill="#1F304F"/>
<path d="M21.8748 16.2499C17.3949 16.2499 13.75 12.605 13.75 8.12508C13.75 3.64494 17.3949 0 21.8748 0C26.355 0 29.9999 3.64494 29.9999 8.12508C29.9999 12.605 26.355 16.2499 21.8748 16.2499ZM21.8748 1.875C18.4286 1.875 15.625 4.6788 15.625 8.12508C15.625 11.5714 18.4286 14.3749 21.8748 14.3749C25.3211 14.3749 28.1249 11.5714 28.1249 8.12508C28.1249 4.6788 25.3211 1.875 21.8748 1.875Z" fill="#1F304F"/>
<path d="M22.1876 11.8751C21.6701 11.8751 21.2501 11.4551 21.2501 10.9376V6.87488H20.625C20.1075 6.87488 19.6875 6.45489 19.6875 5.93738C19.6875 5.41988 20.1075 4.99988 20.625 4.99988H22.1876C22.7051 4.99988 23.1251 5.41988 23.1251 5.93738V10.9376C23.1251 11.4551 22.7051 11.8751 22.1876 11.8751Z" fill="#1F304F"/>
</g>
<defs>
<clipPath id="clip0_166_428">
<rect width="30" height="30" fill="white"/>
</clipPath>
</defs>
</svg>
