<svg width="23" height="23" viewBox="0 0 23 23" fill="none" xmlns="http://www.w3.org/2000/svg">
<path d="M19.1084 14.1927C18.5913 13.882 17.9211 14.0321 17.5859 14.5336L15.911 17.0475V12.1227C15.911 11.495 15.4022 10.9862 14.7745 10.9862C14.1468 10.9862 13.638 11.495 13.638 12.1227C13.638 11.495 13.1292 10.9862 12.5015 10.9862C11.8738 10.9862 11.365 11.495 11.365 12.1227C11.365 11.495 10.8562 10.9862 10.2285 10.9862C9.60078 10.9862 9.09199 11.495 9.09199 12.1227C9.09199 11.495 8.5832 10.9862 7.95548 10.9862C7.32776 10.9862 6.81897 11.495 6.81897 12.1227V20.0782C6.81897 21.3336 7.83651 22.3512 9.09199 22.3512H13.816C14.8806 22.3512 15.867 21.7928 16.4148 20.8798L19.4963 15.744C19.8176 15.2083 19.6437 14.5139 19.1084 14.1927Z" fill="#FFB782"/>
<path d="M11.7438 20.0782H10.9861C10.9884 18.1962 12.5136 16.6709 14.3957 16.6687H15.911V17.4264H14.3957C12.9319 17.4279 11.7454 18.6144 11.7438 20.0782Z" fill="#F2A46F"/>
<path d="M15.9111 14.0169H6.81903V14.7746H15.9111V14.0169Z" fill="#F5AB76"/>
<path d="M9.47088 12.1227H8.7132V15.9111H9.47088V12.1227Z" fill="#F2A46F"/>
<path d="M11.7438 12.1227H10.9861V15.9111H11.7438V12.1227Z" fill="#F2A46F"/>
<path d="M14.0169 12.1227H13.2592V15.9111H14.0169V12.1227Z" fill="#F2A46F"/>
<path d="M22.3513 0.378815H0.378845V5.6825H22.3513V0.378815Z" fill="#4398D1"/>
<path d="M19.6994 1.89413H3.03067C2.40295 1.89413 1.89417 2.40292 1.89417 3.03064C1.89417 3.65836 2.40295 4.16715 3.03067 4.16715H19.6994C20.3271 4.16715 20.8359 3.65836 20.8359 3.03064C20.8359 2.40292 20.3271 1.89413 19.6994 1.89413Z" fill="#126099"/>
<path d="M19.3206 4.92484H3.40955V14.0169H19.3206V4.92484Z" fill="#628A27"/>
<path d="M19.3206 3.40952H3.40955V12.5015H19.3206V3.40952Z" fill="#6B962A"/>
<path d="M19.3206 1.89413H3.40955V10.9862H19.3206V1.89413Z" fill="#88B337"/>
<path d="M16.6687 9.47085H6.06137C6.06137 8.84313 5.55258 8.33434 4.92487 8.33434V4.54599C5.55258 4.54599 6.06137 4.0372 6.06137 3.40948H16.6687C16.6687 4.0372 17.1775 4.54599 17.8052 4.54599V8.33434C17.1775 8.33434 16.6687 8.84313 16.6687 9.47085Z" fill="#6B962A"/>
<path d="M7.19787 6.06137H6.44019V6.81906H7.19787V6.06137Z" fill="#88B337"/>
<path d="M16.2899 6.06137H15.5322V6.81906H16.2899V6.06137Z" fill="#88B337"/>
<path d="M3.40953 16.6687C1.94572 16.6672 0.759219 15.4807 0.75769 14.0169H1.51537C1.51649 15.0625 2.36395 15.9099 3.40953 15.911V16.6687Z" fill="#DADDDF"/>
<path d="M11.365 9.47084C12.8296 9.47084 14.0169 8.11397 14.0169 6.44018C14.0169 4.76639 12.8296 3.40952 11.365 3.40952C9.90046 3.40952 8.7132 4.76639 8.7132 6.44018C8.7132 8.11397 9.90046 9.47084 11.365 9.47084Z" fill="#88B337"/>
<path d="M19.3206 1.89413H3.40955V3.40947H19.3206V1.89413Z" fill="#80A834"/>
<path d="M19.6615 14.1764C19.6857 14.1267 19.699 14.0722 19.6994 14.0169V4.54598C20.5362 4.54598 21.2147 3.86749 21.2147 3.03065C21.2147 2.19382 20.5362 1.51532 19.6994 1.51532H3.03065C2.19382 1.51532 1.51532 2.19382 1.51532 3.03065C1.51532 3.86749 2.19382 4.54598 3.03065 4.54598V14.0168C3.03065 14.226 3.20036 14.3957 3.40948 14.3957H6.44014V20.0782C6.44167 21.542 7.62817 22.7285 9.09198 22.73H13.8164C15.0132 22.7266 16.1212 22.0992 16.7399 21.0749L19.8213 15.939C20.1612 15.3803 20.0964 14.6651 19.6615 14.1764ZM16.2899 14.3957H17.2237L16.2899 15.7974V14.3957ZM3.78834 11.365H18.9417V12.1227H3.78834V11.365ZM20.4571 3.03065C20.4571 3.44926 20.118 3.78834 19.6994 3.78834V2.273C20.118 2.273 20.4571 2.61205 20.4571 3.03065ZM18.9417 2.273V10.6073H3.78834V2.273H18.9417ZM2.273 3.03065C2.273 2.61205 2.61205 2.27297 3.03069 2.27297V3.7883C2.61205 3.78834 2.273 3.44929 2.273 3.03065ZM3.78834 13.638V12.8803H18.9417V13.638H3.78834ZM19.1716 15.5492L16.0902 20.6843C15.6095 21.481 14.7476 21.9693 13.8172 21.9724H9.09202C8.04644 21.9712 7.19898 21.1238 7.19786 20.0782V14.3957H8.71319V15.911H9.47088V14.3957H10.9862V15.911H11.7439V14.3957H13.2592V15.911H14.0169V14.3957H15.5322V16.6687H14.3957C12.5137 16.671 10.9884 18.1962 10.9862 20.0782H11.7439C11.7454 18.6144 12.9319 17.4279 14.3957 17.4264H15.911C16.0376 17.4268 16.1557 17.3639 16.2262 17.259L17.901 14.7465C18.1314 14.401 18.5981 14.3075 18.9436 14.5374C19.2777 14.7602 19.3781 15.2061 19.1716 15.5504V15.5492Z" fill="black"/>
<path d="M22.3512 0H0.378824C0.169708 0 0 0.169708 0 0.378824V5.6825C0 5.89162 0.169708 6.06133 0.378824 6.06133H2.27298V5.30364H0.757685V0.757685H21.9724V5.30368H20.4571V6.06136H22.3512C22.5603 6.06136 22.7301 5.89166 22.7301 5.68254V0.378824C22.7301 0.169708 22.5603 0 22.3512 0Z" fill="black"/>
<path d="M4.92484 8.71321C5.34345 8.71321 5.68253 9.05226 5.68253 9.4709C5.68253 9.68001 5.85224 9.84972 6.06135 9.84972H16.6687C16.8778 9.84972 17.0475 9.68001 17.0475 9.4709C17.0475 9.05229 17.3866 8.71321 17.8052 8.71321C18.0143 8.71321 18.184 8.5435 18.184 8.33439V4.546C18.184 4.33689 18.0143 4.16718 17.8052 4.16718C17.3866 4.16718 17.0475 3.82813 17.0475 3.40949C17.0475 3.20038 16.8778 3.03067 16.6687 3.03067H6.06135C5.85224 3.03067 5.68253 3.20038 5.68253 3.40949C5.68253 3.8281 5.34349 4.16718 4.92484 4.16718C4.71573 4.16718 4.54602 4.33689 4.54602 4.546V8.33435C4.54598 8.54347 4.71573 8.71321 4.92484 8.71321ZM9.09202 6.44019C9.09202 4.97788 10.1115 3.78835 11.365 3.78835C12.6186 3.78835 13.6381 4.97788 13.6381 6.44019C13.6381 7.90251 12.6186 9.09203 11.365 9.09203C10.1115 9.09203 9.09202 7.90251 9.09202 6.44019ZM16.3376 3.78835C16.4766 4.32175 16.893 4.73808 17.4264 4.87714V8.00328C16.893 8.14231 16.4767 8.55864 16.3376 9.09207H13.2656C13.9976 8.40563 14.4078 7.44338 14.3957 6.44023C14.4078 5.43708 13.9975 4.47483 13.2656 3.78839H16.3376V3.78835ZM5.30367 4.8771C5.83706 4.73808 6.25339 4.32175 6.39246 3.78832H9.46443C8.73251 4.47476 8.32225 5.43701 8.33437 6.44016C8.32225 7.44331 8.73254 8.40556 9.46443 9.092H6.39246C6.25343 8.5586 5.8371 8.14227 5.30367 8.00321V4.8771Z" fill="black"/>
<path d="M7.19787 6.06137H6.44019V6.81906H7.19787V6.06137Z" fill="black"/>
<path d="M16.2899 6.06137H15.5322V6.81906H16.2899V6.06137Z" fill="black"/>
<path d="M1.51534 14.0169H0.75769C0.759219 15.4807 1.94572 16.6672 3.40953 16.6687V15.911C2.36392 15.9099 1.51649 15.0625 1.51534 14.0169Z" fill="black"/>
</svg>
