<svg width="52" height="51" viewBox="0 0 52 51" fill="none" xmlns="http://www.w3.org/2000/svg">
<path d="M50.685 16.5112C50.9886 14.79 51.3483 12.75 51.3483 12.75C52.5899 5.70831 48.6771 0 37.6588 0H4.89211C4.19086 0 3.516 0.57375 3.39233 1.275L3.16754 2.55C3.04387 3.25125 3.43785 4.03805 4.04309 4.29841L11.4747 7.49611L9.8766 16.5589H25.1765L26.2978 10.2H33.9477C35.3561 10.2 36.2964 11.3416 36.0481 12.75L35.3765 16.5589C35.1282 17.9673 33.7853 19.1089 32.3768 19.1089H25.7069H24.727H9.4269H1.92404C1.10663 19.1089 0.319959 19.7778 0.175757 20.5952L0.0254338 21.4477C-0.118641 22.2651 0.3642 23.1381 1.09873 23.3876L22.6798 30.7191L30.012 33.2099C31.2775 33.6397 32.1019 35.1298 31.8535 36.5382L31.5517 38.25C31.3035 39.6584 29.9605 40.8 28.5522 40.8H20.9023L22.2076 33.3968L7.70884 28.4714L3.16614 51H28.6661C39.8038 51 45.4435 46.2374 46.4794 40.3624C46.4794 40.3624 46.7283 38.9512 47.1186 36.7376C48.33 29.8669 45.5767 28.8044 44.4146 28.2735C43.5108 27.8607 40.8717 26.5051 40.8717 26.5051L40.8943 26.3776C40.8943 26.3776 49.3418 24.1294 50.685 16.5112Z" fill="url(#paint0_linear)"/>
<defs>
<linearGradient id="paint0_linear" x1="44.3837" y1="-0.169954" x2="3.58416" y2="50.4104" gradientUnits="userSpaceOnUse">
<stop stop-color="#50C7AD"/>
<stop offset="1" stop-color="#008F96"/>
</linearGradient>
</defs>
</svg>
