<svg width="21" height="22" viewBox="0 0 21 22" fill="none" xmlns="http://www.w3.org/2000/svg">
<rect x="0.25" y="1.05646" width="20.5" height="20.5" rx="4.75" fill="white" stroke="#EEEEEE" stroke-width="0.5"/>
<g opacity="0.25">
<path d="M11.0341 15.0439C11.0359 15.0447 11.0378 15.0448 11.0397 15.0442C11.0415 15.0437 11.043 15.0425 11.0441 15.0409C11.0803 15.0076 11.117 14.9749 11.1523 14.9416L11.3821 14.7127L11.5366 14.5588L11.6984 14.3984L11.8518 14.2465L12.0117 14.0876L12.3225 13.7783L12.4873 13.614L12.6363 13.4651L12.7991 13.3027L12.955 13.1469L13.094 13.0083C13.1073 12.9942 13.1221 12.9815 13.1382 12.9706C13.1435 12.9669 13.1492 12.9637 13.1551 12.9612C13.1618 12.9581 13.1693 12.9571 13.1765 12.9583C13.1837 12.9596 13.1905 12.963 13.1958 12.9681C13.2037 12.9751 13.2104 12.9833 13.2157 12.9924C13.2241 13.0073 13.232 13.0222 13.2395 13.0376C13.2985 13.1588 13.3601 13.2784 13.4286 13.3946C13.4783 13.481 13.5319 13.5664 13.5885 13.6488C13.6382 13.7217 13.6878 13.7952 13.7439 13.8652C13.8 13.9353 13.8481 13.9993 13.9038 14.0638C13.9594 14.1284 14.003 14.18 14.0577 14.2351C14.1123 14.2902 14.1604 14.3424 14.2146 14.3935L14.3069 14.4794C14.3201 14.4912 14.3318 14.5047 14.3417 14.5196C14.3471 14.5276 14.3507 14.5368 14.3521 14.5464C14.3536 14.5594 14.3502 14.5725 14.3426 14.5831C14.3337 14.5956 14.3231 14.607 14.3114 14.6169C14.2721 14.6517 14.2299 14.6834 14.1892 14.7162C14.1053 14.7832 14.0184 14.8467 13.9306 14.9083C13.8267 14.9808 13.7201 15.0493 13.6108 15.1139C13.5085 15.1744 13.4045 15.2312 13.2985 15.2842C12.9945 15.4363 12.6754 15.556 12.3463 15.6416C12.247 15.6677 12.1464 15.6906 12.0445 15.7101C11.974 15.7237 11.9031 15.7359 11.832 15.7469C11.7649 15.7568 11.6979 15.7657 11.6304 15.7737C11.5922 15.7782 11.5534 15.7816 11.5147 15.7851C11.4606 15.7896 11.407 15.794 11.3529 15.7975C11.3125 15.8002 11.2721 15.8022 11.2317 15.8035C11.1066 15.8075 10.9835 15.8075 10.8564 15.8035C10.7869 15.8035 10.7174 15.798 10.6484 15.7916C10.6042 15.7876 10.56 15.7846 10.5158 15.7801C10.4716 15.7757 10.4195 15.7692 10.3713 15.7628C10.3232 15.7563 10.2785 15.7494 10.2323 15.7424C10.1534 15.7305 10.0749 15.7156 9.99651 15.6992C9.85352 15.6698 9.71203 15.6339 9.57202 15.5915C9.39575 15.5386 9.22254 15.4759 9.0532 15.4038C8.94696 15.3584 8.84237 15.3097 8.73943 15.2573C8.6365 15.2051 8.53075 15.1466 8.42218 15.0821C8.31627 15.0182 8.213 14.9505 8.11238 14.879C8.0025 14.8009 7.89575 14.7182 7.79216 14.6308C7.74251 14.5876 7.69286 14.543 7.64322 14.4983C7.59357 14.4535 7.52853 14.3955 7.4759 14.3418C7.42327 14.2882 7.36916 14.2316 7.31703 14.1756C7.2649 14.1194 7.21029 14.0544 7.15766 13.9928C7.10504 13.9312 7.05588 13.8652 7.00624 13.8007C6.94964 13.7267 6.89751 13.6518 6.84538 13.5733C6.79325 13.4948 6.73864 13.406 6.6875 13.3206C6.63041 13.2258 6.57976 13.1275 6.52962 13.0292C6.47253 12.9179 6.42238 12.8033 6.37373 12.6881C6.31117 12.5392 6.26004 12.3902 6.21188 12.2373C6.15823 12.0631 6.11496 11.8859 6.0823 11.7066C6.07038 11.644 6.06244 11.5805 6.05102 11.5179C6.04109 11.4638 6.03563 11.4092 6.02918 11.355C6.02421 11.3148 6.02074 11.2746 6.01776 11.2344C6.01329 11.1724 6.00932 11.1103 6.00485 11.0482C6.00485 11.0443 6.00485 11.0403 6.00485 11.0363C6.00485 10.9475 5.99839 10.8586 6.00038 10.7697C6.00237 10.6808 6.00385 10.5984 6.00981 10.513C6.01577 10.4276 6.02173 10.3487 6.03215 10.2648C6.03712 10.2246 6.04159 10.1844 6.04705 10.1447C6.07978 9.90575 6.12955 9.66948 6.19599 9.43768C6.24216 9.28228 6.29529 9.12787 6.35437 8.97794C6.40401 8.86226 6.45019 8.74708 6.50629 8.63488C6.55594 8.53161 6.61005 8.42834 6.66864 8.32905C6.71828 8.24415 6.76793 8.15925 6.82304 8.07734C6.87815 7.99542 6.92531 7.92442 6.98042 7.85044C7.03553 7.77647 7.07972 7.71441 7.13632 7.65185C7.19291 7.5893 7.23908 7.52922 7.29221 7.46965C7.34533 7.41007 7.3915 7.35894 7.44661 7.30532C7.5459 7.20238 7.65099 7.10424 7.76187 7.0109C7.86381 6.92386 7.96907 6.84111 8.07763 6.76267C8.17958 6.68886 8.28433 6.61886 8.3919 6.55266C8.49384 6.4901 8.59793 6.43135 8.70418 6.37641C8.85834 6.29662 9.01661 6.22503 9.17832 6.16193C9.33552 6.10023 9.49576 6.04654 9.65841 6.00108C9.79908 5.96202 9.94123 5.92892 10.0849 5.90178C10.1683 5.88622 10.2519 5.87249 10.3356 5.86057C10.4076 5.85015 10.4796 5.84171 10.5521 5.83376C10.5953 5.8288 10.6389 5.82532 10.6821 5.82234C10.7497 5.81738 10.8177 5.81291 10.8852 5.80993C10.9527 5.80695 11.0093 5.80646 11.0719 5.80646C11.1344 5.80646 11.198 5.80646 11.261 5.80646C11.3335 5.80877 11.406 5.81291 11.4785 5.81887C11.5371 5.82383 11.5961 5.8288 11.6542 5.83575C11.7123 5.8427 11.7759 5.85114 11.8364 5.86008C11.9059 5.8705 11.975 5.88291 12.044 5.89682C12.139 5.91568 12.2333 5.93753 12.327 5.96235C12.5399 6.0188 12.7488 6.0898 12.952 6.17484C13.0563 6.21853 13.1591 6.26553 13.2603 6.31584C13.3696 6.37012 13.4766 6.42821 13.5816 6.4901C13.6865 6.552 13.7894 6.6172 13.8904 6.68571C13.9996 6.75969 14.1058 6.83466 14.2096 6.91806L14.2816 6.97516C14.2943 6.98521 14.3058 6.9967 14.3159 7.00942C14.323 7.01777 14.3271 7.02824 14.3277 7.03919C14.3282 7.05015 14.3251 7.06098 14.3188 7.06998C14.3109 7.08234 14.3018 7.09382 14.2915 7.10424C14.2721 7.1241 14.2533 7.14396 14.2334 7.16233C14.2046 7.18914 14.1768 7.21744 14.149 7.24574C14.0703 7.32584 13.9941 7.40858 13.9206 7.49398C13.868 7.55504 13.8179 7.61859 13.7672 7.68164C13.7106 7.75314 13.658 7.8281 13.6059 7.90257C13.5538 7.97705 13.4996 8.06442 13.449 8.14734C13.3919 8.24018 13.3413 8.33649 13.2906 8.43331C13.2658 8.48295 13.241 8.5326 13.2191 8.57877C13.2122 8.59317 13.2042 8.60757 13.1963 8.62147C13.1916 8.62999 13.1853 8.63756 13.1779 8.64381C13.1728 8.64846 13.1666 8.65162 13.1599 8.65293C13.1531 8.65425 13.1461 8.65367 13.1397 8.65126C13.1283 8.64741 13.1175 8.64171 13.1079 8.63438C13.0925 8.62246 13.0777 8.61055 13.0627 8.59764C12.9868 8.5321 12.9083 8.47005 12.8274 8.41097C12.7252 8.33583 12.619 8.26638 12.5092 8.20294C12.4127 8.14678 12.3132 8.09589 12.2113 8.05052C12.0252 7.96805 11.8308 7.90596 11.6314 7.86534C11.5546 7.84978 11.4773 7.83753 11.3996 7.8286C11.2534 7.81205 11.1061 7.80724 10.9592 7.8142C10.8454 7.81955 10.732 7.83166 10.6196 7.85044C10.4627 7.87645 10.3079 7.91362 10.1564 7.96166C9.9915 8.01323 9.83056 8.07661 9.67479 8.15131C9.57724 8.19809 9.48213 8.24979 9.38981 8.30621C9.26921 8.38043 9.15421 8.46339 9.04576 8.55444C9.00356 8.58969 8.96285 8.62643 8.92263 8.66417C8.8551 8.72794 8.79097 8.79523 8.73049 8.86574C8.67588 8.92879 8.62574 8.99482 8.57708 9.06433C8.51879 9.14669 8.46509 9.23221 8.41622 9.3205C8.35752 9.42649 8.30561 9.5361 8.26083 9.64868C8.19006 9.8256 8.13474 10.0083 8.0955 10.1948C8.0816 10.2587 8.06952 10.3229 8.05926 10.3874C8.04983 10.447 8.04288 10.5076 8.03742 10.5677C8.02652 10.6802 8.02238 10.7932 8.02501 10.9062C8.02501 10.9733 8.03047 11.0403 8.03692 11.1048C8.04338 11.1694 8.05231 11.2428 8.06323 11.3114C8.07416 11.3799 8.08706 11.44 8.10246 11.5035C8.16563 11.7696 8.26591 12.0255 8.40034 12.2636C8.44999 12.349 8.49963 12.4334 8.55722 12.5118C8.60687 12.5808 8.65652 12.6494 8.71113 12.7139C8.76574 12.7784 8.81043 12.8281 8.86008 12.8817C8.96134 12.9862 9.06985 13.0834 9.18477 13.1727C9.28173 13.2478 9.3832 13.3169 9.48861 13.3797C9.78467 13.556 10.1085 13.681 10.4463 13.749C10.5213 13.7644 10.5953 13.7764 10.6732 13.7863C10.7364 13.7943 10.8 13.7997 10.8638 13.8027C10.8857 13.8027 10.9075 13.8027 10.9294 13.8027C10.9461 13.8023 10.9628 13.8041 10.979 13.8082C10.9909 13.8113 11.0018 13.8176 11.0105 13.8263C11.0192 13.835 11.0255 13.8459 11.0287 13.8578C11.0343 13.8781 11.0367 13.8992 11.0356 13.9203C11.0327 14.0196 11.0331 14.116 11.0331 14.2133C11.0331 14.4807 11.0331 14.7481 11.0331 15.0156C11.0321 15.025 11.0325 15.0346 11.0341 15.0439Z" fill="#166AB3"/>
<path d="M11.0883 12.6832C11.073 12.6834 11.0577 12.6822 11.0426 12.6797C11.0297 12.6784 11.0167 12.6784 11.0039 12.6797C10.9661 12.6797 10.9284 12.6747 10.8907 12.6708C10.8733 12.6708 10.8554 12.6673 10.838 12.6648C10.8207 12.6623 10.8028 12.6613 10.7854 12.6583C10.7512 12.6529 10.7174 12.6469 10.6831 12.64C10.6246 12.6281 10.567 12.6142 10.5099 12.5973C10.4487 12.5794 10.3885 12.5583 10.3296 12.5337C10.277 12.5114 10.2249 12.488 10.1742 12.4612C10.1082 12.4258 10.0441 12.3868 9.98212 12.3446C9.94389 12.3188 9.90764 12.2904 9.8719 12.2617L9.79891 12.2016C9.78962 12.1937 9.78083 12.1852 9.7726 12.1763C9.752 12.1554 9.73369 12.1325 9.71799 12.1077C9.69678 12.0732 9.68545 12.0336 9.68522 11.993C9.68438 11.9673 9.68877 11.9416 9.69813 11.9176C9.70817 11.8928 9.72408 11.8708 9.74448 11.8535C9.76489 11.8362 9.78919 11.8242 9.8153 11.8183C9.84232 11.8114 9.87045 11.8101 9.89801 11.8143C9.92557 11.8186 9.95198 11.8284 9.97566 11.8431C9.9915 11.8526 10.0062 11.8639 10.0193 11.8769C10.0467 11.9032 10.0735 11.93 10.1023 11.9548C10.1591 12.005 10.2197 12.0508 10.2835 12.0919C10.3311 12.122 10.3809 12.1485 10.4324 12.1713C10.4774 12.1909 10.5237 12.2075 10.5709 12.2209C10.6141 12.2333 10.6578 12.2457 10.7015 12.2557C10.7429 12.2655 10.7849 12.2731 10.8271 12.2785C10.8455 12.2785 10.8639 12.284 10.8817 12.287H10.8867C10.918 12.287 10.9492 12.2949 10.9805 12.2924C10.9999 12.2924 11.0188 12.2969 11.0381 12.2964C11.0758 12.2964 11.1141 12.2939 11.1513 12.291C11.2162 12.2856 11.2806 12.2755 11.3439 12.2607C11.416 12.2436 11.4866 12.2207 11.5549 12.1921C11.5966 12.1748 11.6369 12.1544 11.6766 12.1331C11.7269 12.1056 11.7756 12.0752 11.8226 12.0422C11.8636 12.0137 11.9033 11.9835 11.9417 11.9514C11.9794 11.9201 12.0167 11.8878 12.0554 11.8575C12.0911 11.8277 12.1364 11.8116 12.183 11.8123C12.2163 11.8126 12.2487 11.8236 12.2753 11.8436C12.3079 11.8676 12.3345 11.8987 12.3533 11.9345C12.3647 11.9564 12.3701 11.981 12.3688 12.0058C12.3675 12.0305 12.3595 12.0543 12.3458 12.075C12.3304 12.0996 12.3123 12.1224 12.2917 12.143C12.2684 12.1678 12.2421 12.1926 12.2197 12.215C12.2033 12.2304 12.1855 12.2448 12.1701 12.2592C12.1547 12.2735 12.1269 12.2954 12.105 12.3128C12.0515 12.3541 11.9955 12.3921 11.9373 12.4265C11.8907 12.454 11.8428 12.4792 11.7937 12.5019C11.7536 12.5208 11.7123 12.5372 11.6711 12.5516C11.595 12.5805 11.5171 12.6042 11.4378 12.6226C11.3836 12.6355 11.3291 12.6454 11.2744 12.6543C11.2476 12.6583 11.2208 12.6653 11.194 12.6702C11.1593 12.6781 11.1239 12.6824 11.0883 12.6832Z" fill="#A6C7E3"/>
</g>
</svg>
