<svg width="268" height="51" viewBox="0 0 268 51" fill="none" xmlns="http://www.w3.org/2000/svg">
<path d="M24.1195 43.7069C20.3338 43.7069 16.8016 42.6089 13.8155 40.7101L29.173 24.367L36.0795 39.5341C32.783 42.147 28.6302 43.7069 24.1195 43.7069ZM27.0134 19.6696L16.3691 30.8527L24.1824 13.754L27.0134 19.6696ZM4.77311 24.2533C4.77311 13.5263 13.4515 4.79987 24.1195 4.79987C28.9017 4.79987 33.2841 6.55165 36.6641 9.45532L30.5574 15.8421L26.7864 7.59567C25.0652 7.44273 23.3709 7.43964 21.7093 7.59567L8.66615 35.9404C6.2229 32.6858 4.77311 28.6361 4.77311 24.2533ZM41.8369 40.707L39.6295 35.8654L32.6753 20.6145L39.8174 12.8991L43.1318 9.32355C42.1859 8.11155 41.1331 6.99275 39.9814 5.98457C35.7422 2.25604 30.1903 0 24.1195 0C10.7994 0 0 10.8561 0 24.2533C0 30.631 2.44632 36.4294 6.44666 40.7582L3.1471 47.9305L5.66201 49.3851L10.483 44.2559C14.3611 46.9403 19.0599 48.5064 24.1195 48.5064C29.337 48.5064 34.17 46.8386 38.1169 44.0066L40.9154 50.153L45.2199 48.1222L41.8369 40.707Z" fill="#5ABEA0"/>
<path d="M62.4035 40.0812C60.2109 40.0812 58.1693 39.725 56.2782 39.0123C54.4146 38.2724 52.784 37.2446 51.3863 35.9292C50.0159 34.5863 48.9471 33.0104 48.1798 31.2016C47.4125 29.3928 47.0287 27.4196 47.0287 25.2819C47.0287 23.1442 47.4125 21.171 48.1798 19.3622C48.9471 17.5534 50.0297 15.9913 51.4274 14.6758C52.8251 13.3329 54.4557 12.3052 56.3194 11.5926C58.183 10.8526 60.2247 10.4827 62.4446 10.4827C64.8016 10.4827 66.9528 10.8938 68.8987 11.7159C70.8446 12.5107 72.489 13.7029 73.8318 15.2924L70.3786 18.54C69.3371 17.4164 68.1725 16.5805 66.8844 16.0324C65.5962 15.4569 64.1985 15.1691 62.6913 15.1691C61.184 15.1691 59.7999 15.4157 58.5392 15.9091C57.306 16.4024 56.2234 17.1012 55.2916 18.0056C54.3872 18.91 53.6746 19.9789 53.154 21.2121C52.6607 22.4454 52.414 23.802 52.414 25.2819C52.414 26.7618 52.6607 28.1184 53.154 29.3517C53.6746 30.585 54.3872 31.6538 55.2916 32.5582C56.2234 33.4626 57.306 34.1615 58.5392 34.6548C59.7999 35.1481 61.184 35.3947 62.6913 35.3947C64.1985 35.3947 65.5962 35.1207 66.8844 34.5726C68.1725 33.997 69.3371 33.1337 70.3786 31.9827L73.8318 35.2714C72.489 36.8336 70.8446 38.0257 68.8987 38.8479C66.9528 39.6701 64.7878 40.0812 62.4035 40.0812ZM75.5138 39.6701L88.4631 10.8938H93.7251L106.716 39.6701H101.125L89.9842 13.7303H92.1218L81.0224 39.6701H75.5138ZM81.4746 33.0104L82.9134 28.8173H98.4526L99.8914 33.0104H81.4746ZM111.609 39.6701V10.8938H125.092C128.545 10.8938 131.176 11.5789 132.985 12.9492C134.794 14.2921 135.698 16.1009 135.698 18.3756C135.698 19.9103 135.342 21.2259 134.63 22.3221C133.917 23.3909 132.958 24.2269 131.752 24.8297C130.573 25.4052 129.285 25.693 127.888 25.693L128.628 24.2131C130.244 24.2131 131.697 24.5146 132.985 25.1175C134.273 25.693 135.287 26.5425 136.027 27.6662C136.795 28.79 137.178 30.1877 137.178 31.8594C137.178 34.3259 136.233 36.2443 134.342 37.6146C132.451 38.985 129.642 39.6701 125.914 39.6701H111.609ZM116.953 35.477H125.586C127.586 35.477 129.121 35.1481 130.19 34.4903C131.259 33.8326 131.793 32.7775 131.793 31.3249C131.793 29.8999 131.259 28.8584 130.19 28.2007C129.121 27.5156 127.586 27.1729 125.586 27.1729H116.542V23.0209H124.517C126.38 23.0209 127.805 22.692 128.792 22.0343C129.806 21.3766 130.313 20.3899 130.313 19.0745C130.313 17.7316 129.806 16.7312 128.792 16.0735C127.805 15.4157 126.38 15.0869 124.517 15.0869H116.953V35.477ZM144.115 39.6701V10.8938H149.459V39.6701H144.115ZM158.476 39.6701V10.8938H162.875L180.921 33.0515H178.743V10.8938H184.046V39.6701H179.647L161.6 17.5123H163.779V39.6701H158.476ZM197.923 22.8565H212.229V27.2552H197.923V22.8565ZM198.334 35.1892H214.573V39.6701H192.99V10.8938H213.997V15.3746H198.334V35.1892ZM227.6 39.6701V15.4157H218.063V10.8938H242.482V15.4157H232.944V39.6701H227.6ZM256.366 40.0812C254.118 40.0812 251.967 39.7661 249.912 39.1357C247.857 38.4779 246.225 37.642 245.02 36.628L246.87 32.476C248.021 33.3804 249.445 34.1341 251.145 34.737C252.843 35.3399 254.584 35.6414 256.366 35.6414C257.873 35.6414 259.092 35.477 260.025 35.1481C260.956 34.8192 261.64 34.3808 262.08 33.8326C262.518 33.2571 262.738 32.6131 262.738 31.9005C262.738 31.0234 262.422 30.3246 261.793 29.8039C261.162 29.2557 260.339 28.8311 259.326 28.5295C258.339 28.2007 257.229 27.8991 255.996 27.6251C254.79 27.3511 253.571 27.0358 252.337 26.6796C251.131 26.2959 250.021 25.8163 249.008 25.2408C248.021 24.6379 247.211 23.8431 246.582 22.8565C245.951 21.8699 245.637 20.6093 245.637 19.0745C245.637 17.5123 246.048 16.0872 246.87 14.7991C247.719 13.4836 248.993 12.4422 250.693 11.6748C252.42 10.88 254.598 10.4827 257.229 10.4827C258.956 10.4827 260.668 10.7019 262.368 11.1404C264.066 11.5789 265.546 12.2092 266.808 13.0314L265.122 17.1834C263.834 16.4161 262.504 15.8542 261.135 15.498C259.764 15.1143 258.448 14.9224 257.188 14.9224C255.708 14.9224 254.502 15.1006 253.571 15.4569C252.666 15.8131 251.994 16.279 251.556 16.8546C251.145 17.4301 250.94 18.0878 250.94 18.8278C250.94 19.7048 251.24 20.4173 251.844 20.9655C252.473 21.4861 253.283 21.8972 254.27 22.1987C255.283 22.5003 256.407 22.8016 257.641 23.1031C258.874 23.3771 260.093 23.6924 261.299 24.0486C262.533 24.4049 263.642 24.8708 264.629 25.4464C265.642 26.0219 266.45 26.8029 267.055 27.7896C267.683 28.7762 268 30.0232 268 31.5305C268 33.0653 267.575 34.4903 266.726 35.8058C265.903 37.094 264.629 38.1353 262.902 38.9301C261.176 39.6974 258.997 40.0812 256.366 40.0812Z" fill="#182542"/>
</svg>
