<svg width="73" height="73" viewBox="0 0 73 73" fill="none" xmlns="http://www.w3.org/2000/svg">
<path d="M52.9476 1.17661H12.9428L1.17664 12.9427V71.7734H52.9476V1.17661Z" fill="#E6E9ED"/>
<path d="M54.1242 71.7734C63.8715 71.7734 71.7734 63.8716 71.7734 54.1242C71.7734 44.3768 63.8715 36.475 54.1242 36.475C44.3768 36.475 36.475 44.3768 36.475 54.1242C36.475 63.8716 44.3768 71.7734 54.1242 71.7734Z" fill="#69D6F4"/>
<path d="M27.0621 43.5347H31.7685V67.0669H27.0621V43.5347Z" fill="#B4DD7F"/>
<path d="M17.6492 48.2411H22.3556V67.0669H17.6492V48.2411Z" fill="#B4DD7F"/>
<path d="M8.23627 52.9476H12.9427V67.0669H8.23627V52.9476Z" fill="#B4DD7F"/>
<path d="M70.7379 2.21203C71.3733 2.8474 71.7734 3.72986 71.7734 4.70645C70.232 10.8601 67.0434 16.4961 62.5605 20.979L54.2536 29.2859L47.0645 36.475L45.8879 35.2984L43.5347 32.9452L51.0414 25.4384C51.5121 24.9677 51.7709 24.3324 51.7709 23.6735C51.7709 22.991 51.4886 22.3556 51.0414 21.9085C50.5943 21.4614 49.959 21.179 49.2765 21.179C48.6176 21.179 47.9823 21.4379 47.5116 21.9085L40.0048 29.4153L37.6516 27.0621L36.475 25.8855L43.6641 18.6964L48.2411 14.1194L51.971 10.3895C52.2887 10.0718 52.6181 9.75412 52.9476 9.4482C57.254 5.45948 62.5252 2.61208 68.2435 1.17661C69.2201 1.17661 70.1026 1.57666 70.7379 2.21203V2.21203Z" fill="#E6E9ED"/>
<path d="M60.0073 16.4726C61.9567 16.4726 63.5371 14.8922 63.5371 12.9427C63.5371 10.9933 61.9567 9.4129 60.0073 9.4129C58.0578 9.4129 56.4774 10.9933 56.4774 12.9427C56.4774 14.8922 58.0578 16.4726 60.0073 16.4726Z" fill="#69D6F4"/>
<path d="M57.1128 36.7221L58.8306 41.1815L55.3008 44.7113L50.1355 39.546L48.1117 37.5222L47.0645 36.475L54.2536 29.2859L57.1128 36.7221Z" fill="#FF826E"/>
<path d="M51.0415 21.9085C51.4886 22.3556 51.771 22.991 51.771 23.6735C51.771 24.3324 51.5121 24.9677 51.0415 25.4384L43.5347 32.9452L40.0048 29.4153L47.5116 21.9085C47.9823 21.4379 48.6176 21.179 49.2765 21.179C49.959 21.179 50.5943 21.4614 51.0415 21.9085Z" fill="#FCD770"/>
<path d="M48.2411 5.88306V14.1194L43.6641 18.6964L31.7685 14.1194L28.2387 17.6492L30.5919 20.0024H5.88306V12.9427H12.9427V5.88306H48.2411Z" fill="#FCD770"/>
<path d="M45.8879 35.2984L41.1815 37.6516L35.2984 31.7685L37.6516 27.0621L40.0049 29.4153L43.5347 32.9452L45.8879 35.2984Z" fill="#CCD1D9"/>
<path d="M43.6641 18.6964L36.475 25.8855L30.5919 20.0024L28.2387 17.6492L31.7685 14.1194L43.6641 18.6964Z" fill="#FF826E"/>
<path d="M60.0072 17.6492C62.6028 17.6492 64.7137 15.5383 64.7137 12.9427C64.7137 10.3471 62.6028 8.23629 60.0072 8.23629C57.4116 8.23629 55.3008 10.3471 55.3008 12.9427C55.3008 15.5383 57.4116 17.6492 60.0072 17.6492ZM60.0072 10.5895C61.305 10.5895 62.3605 11.6449 62.3605 12.9427C62.3605 14.2405 61.305 15.296 60.0072 15.296C58.7094 15.296 57.654 14.2405 57.654 12.9427C57.654 11.6449 58.7094 10.5895 60.0072 10.5895Z" fill="black"/>
<path d="M57.9894 35.7137L55.6279 29.5742L63.3912 21.8109C68.0306 17.1727 71.3239 11.3555 72.9147 4.99002L72.95 4.70645C72.95 2.11084 70.8392 0 68.2435 0L67.9588 0.0352984C62.8888 1.30251 58.18 3.66397 54.1242 6.91025V0H12.4556L0 12.4556V72.95H54.1242C64.5043 72.95 72.95 64.5043 72.95 54.1242C72.95 45.1525 66.6951 37.5269 57.9894 35.7137V35.7137ZM39.8801 62.3605C38.6576 60.2555 37.8928 57.8599 37.7104 55.3008H45.9114C45.9738 57.847 46.2374 60.2238 46.6703 62.3605H39.8801ZM47.2339 64.7137C47.834 66.8045 48.6165 68.5742 49.5354 69.9332C46.3703 69.0131 43.5947 67.1728 41.525 64.7137H47.2339ZM4.01696 11.7661L11.7661 4.01696V11.7661H4.01696ZM7.05968 14.1194H14.1194V7.05968H47.0645V13.6322L43.3747 17.3221L31.4767 12.7462L26.575 17.6492L27.7516 18.8258H7.05968V14.1194ZM29.9024 17.6492L32.0603 15.4925L41.5533 19.1435L36.475 24.2218L29.9024 17.6492ZM37.974 29.0482L43.9018 34.976L41.4132 36.2197L36.7303 31.5368L37.974 29.0482ZM41.6686 29.4153L48.3423 22.7416C48.5882 22.4957 48.9283 22.3556 49.2754 22.3556C50.0025 22.3556 50.5944 22.9475 50.5944 23.6746C50.5944 24.0217 50.4543 24.3618 50.2084 24.6077L43.5347 31.2814L41.6686 29.4153ZM47.834 38.9082L48.7035 39.7777C48.1494 40.8767 47.6622 42.1322 47.261 43.5347H41.525C43.197 41.5403 45.3455 39.9378 47.834 38.9082V38.9082ZM59.1472 45.8879C59.626 48.0599 59.9072 50.4579 59.9743 52.9476H48.2694C48.3376 50.4355 48.6176 48.0317 49.0883 45.8879H59.1472ZM49.7201 43.5347C49.946 42.824 50.1884 42.1463 50.459 41.5333L52.4605 43.5347H49.7201ZM39.8754 45.8879H46.6904C46.2444 48.0717 45.982 50.4673 45.9173 52.9476H37.6975C37.8799 50.4202 38.6447 48.0152 39.8754 45.8879V45.8879ZM48.2647 55.3008H59.9837C59.9143 57.9164 59.6249 60.2991 59.1754 62.3605H49.0718C48.6224 60.2991 48.3341 57.9164 48.2647 55.3008ZM62.3358 55.3008H70.5368C70.3544 57.8599 69.5896 60.2555 68.3671 62.3605H61.5757C62.0099 60.2238 62.2734 57.847 62.3358 55.3008ZM62.3275 52.9476C62.2628 50.479 62.0016 48.0882 61.5521 45.8879H68.4024C69.6167 47.9987 70.365 50.399 70.5438 52.9476H62.3275ZM66.7622 43.5347H58.1423L60.2037 41.4733L59.0236 38.4058C62.1063 39.3589 64.7725 41.1579 66.7622 43.5347ZM57.4575 40.8896L55.3008 43.0476L48.7282 36.475L53.8065 31.3967L57.4575 40.8896ZM68.3753 2.35676C69.5684 2.42382 70.5262 3.38159 70.5932 4.57467C69.0919 10.466 66.0268 15.8478 61.7275 20.1483L47.0645 34.8113L45.1984 32.9452L51.8722 26.2714C52.5558 25.5878 52.9476 24.6418 52.9476 23.6746C52.9476 21.6497 51.3003 20.0024 49.2754 20.0024C48.3082 20.0024 47.3622 20.3942 46.6786 21.0778L40.0048 27.7516L38.1387 25.8855L52.8017 11.2225C57.1022 6.92319 62.484 3.85811 68.3753 2.35676V2.35676ZM51.771 8.96697C51.5615 9.16581 51.3427 9.35407 51.1379 9.5588L49.4177 11.279V4.70645H14.1194V2.35323H51.771V8.96697ZM2.35323 70.5968V14.1194H4.70645V21.179H30.1048L34.8113 25.8855L35.6431 26.7173L36.2197 27.2939L33.8664 32.0003L40.9497 39.0835L45.6561 36.7303L46.0503 37.1245C39.5554 40.2154 35.2984 46.8315 35.2984 54.1242C35.2984 61.2074 39.2342 67.3834 45.0302 70.5968H2.35323ZM49.6931 64.7137H58.5541C57.3952 68.3965 55.7091 70.5968 54.123 70.5968C52.5369 70.5968 50.8532 68.3965 49.6931 64.7137ZM58.7118 69.9332C59.6307 68.573 60.4132 66.8045 61.0133 64.7137H66.7234C64.6537 67.1728 61.8781 69.0131 58.7118 69.9332V69.9332Z" fill="black"/>
<path d="M50.5944 48.2411H52.9476V50.5944H50.5944V48.2411Z" fill="black"/>
<path d="M55.3008 48.2411H57.654V50.5944H55.3008V48.2411Z" fill="black"/>
<path d="M50.5944 57.654H52.9476V60.0073H50.5944V57.654Z" fill="black"/>
<path d="M55.3008 57.654H57.654V60.0073H55.3008V57.654Z" fill="black"/>
<path d="M32.9451 42.3581H25.8855V65.8903H23.5322V47.0645H16.4726V65.8903H14.1193V51.771H7.05965V65.8903H4.70642V68.2435H35.2984V65.8903H32.9451V42.3581ZM28.2387 44.7113H30.5919V65.8903H28.2387V44.7113ZM18.8258 49.4177H21.179V65.8903H18.8258V49.4177ZM9.41287 54.1242H11.7661V65.8903H9.41287V54.1242Z" fill="black"/>
<path d="M4.70642 23.5323H7.05965V25.8855H4.70642V23.5323Z" fill="black"/>
<path d="M9.4129 23.5323H28.2387V25.8855H9.4129V23.5323Z" fill="black"/>
<path d="M4.70642 28.2387H28.2387V30.5919H4.70642V28.2387Z" fill="black"/>
<path d="M4.70642 32.9452H28.2387V35.2984H4.70642V32.9452Z" fill="black"/>
<path d="M4.70642 37.6516H18.8258V40.0048H4.70642V37.6516Z" fill="black"/>
<path d="M25.8855 37.6516H28.2387V40.0048H25.8855V37.6516Z" fill="black"/>
<path d="M21.179 37.6516H23.5322V40.0048H21.179V37.6516Z" fill="black"/>
</svg>
