<svg width="17" height="17" viewBox="0 0 17 17" fill="none" xmlns="http://www.w3.org/2000/svg">
<path d="M8.5 0C3.81291 0 0 3.81291 0 8.5C0 13.1871 3.81291 17 8.5 17C13.1871 17 17 13.1871 17 8.5C17 3.81291 13.1871 0 8.5 0Z" fill="#FF5752"/>
<path d="M9.26357 8.65746L11.8753 6.04572C12.0428 5.87824 12.0429 5.60706 11.8753 5.43954C11.7078 5.27201 11.4366 5.27197 11.2691 5.43953L8.65737 8.05127L6.04563 5.43954C5.87815 5.27202 5.60696 5.27197 5.43944 5.43951C5.2719 5.60703 5.27189 5.87818 5.43944 6.04571L8.05115 8.65746L5.43942 11.2692C5.27228 11.4363 5.27228 11.7083 5.43942 11.8754C5.60693 12.0429 5.8781 12.0429 6.04562 11.8754L8.65735 9.26364L11.2691 11.8754C11.4366 12.0429 11.7078 12.0429 11.8753 11.8754C12.0428 11.7079 12.0428 11.4367 11.8753 11.2692L9.26357 8.65746Z" fill="white"/>
</svg>
