<svg width="32" height="32" viewBox="0 0 32 32" fill="none" xmlns="http://www.w3.org/2000/svg">
<rect x="0.25" y="-0.25" width="30.5" height="30.5" rx="5.25" transform="matrix(-1 0 0 1 31.5 1)" fill="#E7E7E7" stroke="#E7E7E7" stroke-width="0.5"/>
<path d="M17.6754 15.9997L21.5807 12.0943C21.8312 11.8439 21.8313 11.4384 21.5807 11.1879C21.3303 10.9374 20.9248 10.9373 20.6743 11.1879L16.769 15.0932L12.8636 11.1879C12.6132 10.9374 12.2077 10.9373 11.9572 11.1879C11.7067 11.4384 11.7066 11.8438 11.9572 12.0943L15.8625 15.9997L11.9572 19.905C11.7072 20.1549 11.7072 20.5616 11.9572 20.8114C12.2076 21.062 12.6131 21.062 12.8636 20.8114L16.7689 16.9061L20.6742 20.8114C20.9247 21.0619 21.3302 21.0619 21.5807 20.8114C21.8312 20.5609 21.8312 20.1555 21.5807 19.9049L17.6754 15.9997Z" fill="#18191D"/>
<path d="M17.6752 15.9997L21.5806 12.0943C21.8311 11.8439 21.8312 11.4384 21.5806 11.1879C21.3301 10.9374 20.9246 10.9373 20.6741 11.1879L16.7688 15.0932V16.9061L20.6741 20.8115C20.9246 21.062 21.3301 21.062 21.5805 20.8115C21.8311 20.561 21.8311 20.1555 21.5806 19.905L17.6752 15.9997Z" fill="#18191D"/>
</svg>
