<svg viewBox="0 0 28 25" fill="none" xmlns="http://www.w3.org/2000/svg">
<path
    d="M21.4526 6.81661C20.5026 2.19949 15.9894 -0.773223 11.3723 0.176853C7.41871 0.99042 4.57563 4.46228 4.5575 8.49858C4.5575 8.69089 4.56544 8.88779 4.58252 9.09605C1.76989 9.39377 -0.268849 11.9152 0.0288698 14.7278C0.304824 17.3348 2.50494 19.3124 5.12648 19.3099H5.72394C5.71028 19.121 5.69551 18.9332 5.69551 18.7408C5.69551 14.6555 9.00733 11.3436 13.0927 11.3436C17.1781 11.3436 20.4899 14.6555 20.4899 18.7408C20.4899 18.9332 20.4751 19.1209 20.4614 19.3099H21.0589C24.5119 19.3193 27.3188 16.5277 27.3283 13.0746C27.3374 9.76132 24.76 7.01623 21.4526 6.81661Z"
    fill="#BBDEFB"
  />
<path
    d="M13.0928 25C16.5496 25 19.3519 22.1977 19.3519 18.7408C19.3519 15.284 16.5496 12.4817 13.0928 12.4817C9.63593 12.4817 6.83362 15.284 6.83362 18.7408C6.83362 22.1977 9.63593 25 13.0928 25Z"
    fill="#4CAF50"
  />
<path
    d="M13.0927 22.7239C12.7785 22.7239 12.5237 22.4692 12.5237 22.1549V15.3267C12.5237 15.0125 12.7785 14.7577 13.0927 14.7577C13.407 14.7577 13.6617 15.0125 13.6617 15.3267V22.1549C13.6617 22.4692 13.407 22.7239 13.0927 22.7239Z"
    fill="#FAFAFA"
  />
<path
    d="M15.3687 18.1726C15.2177 18.1729 15.0728 18.1131 14.9659 18.0064L13.0926 16.1321L11.2194 18.0064C10.9934 18.2248 10.6332 18.2185 10.4148 17.9925C10.2018 17.7719 10.2018 17.4224 10.4148 17.2018L12.6909 14.9258C12.9131 14.7036 13.2733 14.7036 13.4955 14.9258L15.7716 17.2018C15.9934 17.4244 15.9929 17.7847 15.7703 18.0065C15.6637 18.1129 15.5193 18.1725 15.3687 18.1726Z"
    fill="#FAFAFA"
  />
</svg>
