<svg width="76" height="73" viewBox="0 0 76 73" fill="none" xmlns="http://www.w3.org/2000/svg">
<path d="M61.769 29.0025C61.1608 29.0025 60.668 28.5095 60.668 27.9015V22.6707C60.668 22.0627 61.1608 21.5697 61.769 21.5697C62.3771 21.5697 62.8699 22.0627 62.8699 22.6707V27.9015C62.8699 28.5095 62.3771 29.0025 61.769 29.0025Z" fill="#5A5A5A"/>
<path d="M54.3104 27.9015H66.5172C67.2745 27.9015 67.8884 28.5154 67.8884 29.2727V41.8987H54.3104V27.9015Z" fill="#5A5A5A"/>
<path d="M66.5172 27.9015H62.6774C63.4347 27.9015 64.0486 28.5154 64.0486 29.2727V40.6166H67.8884V29.2727C67.8884 28.5154 67.2745 27.9015 66.5172 27.9015Z" fill="#444444"/>
<path d="M61.769 34.7748C62.3752 34.7748 62.8666 34.2834 62.8666 33.6773C62.8666 33.0711 62.3752 32.5797 61.769 32.5797C61.1628 32.5797 60.6714 33.0711 60.6714 33.6773C60.6714 34.2834 61.1628 34.7748 61.769 34.7748Z" fill="#DDEAFB"/>
<path d="M37.6527 8.02947C37.0445 8.02947 36.5518 7.53653 36.5518 6.92851V1.10095C36.5518 0.492933 37.0445 0 37.6527 0C38.2609 0 38.7537 0.492933 38.7537 1.10095V6.92851C38.7537 7.53653 38.2609 8.02947 37.6527 8.02947Z" fill="#5A5A5A"/>
<path d="M45.0072 6.92851H30.2982C29.5409 6.92851 28.927 7.5424 28.927 8.29971V14.9007H46.3786V8.29971C46.3784 7.5424 45.7645 6.92851 45.0072 6.92851Z" fill="#5A5A5A"/>
<path d="M45.0073 6.92851H40.9612C41.7185 6.92851 42.3324 7.5424 42.3324 8.29971V14.9007H46.3785V8.29971C46.3785 7.5424 45.7646 6.92851 45.0073 6.92851Z" fill="#444444"/>
<path d="M49.0764 12.9622H26.2291C25.4718 12.9622 24.8579 13.5761 24.8579 14.3334V20.3136H50.4476V14.3334C50.4476 13.5762 49.8337 12.9622 49.0764 12.9622Z" fill="#82AEE3"/>
<path d="M49.0764 12.9622H44.9786C45.7359 12.9622 46.3498 13.5761 46.3498 14.3334V20.3136H50.4476V14.3334C50.4476 13.5762 49.8337 12.9622 49.0764 12.9622Z" fill="#528FD8"/>
<path d="M54.3104 69.0164H71.6363V41.988C71.6363 41.2307 71.0224 40.6168 70.2651 40.6168H54.3104V69.0164Z" fill="#82AEE3"/>
<path d="M70.265 40.6168H66.7604C67.5177 40.6168 68.1316 41.2307 68.1316 41.988V69.0164H71.6362V41.988C71.6362 41.2307 71.0223 40.6168 70.265 40.6168Z" fill="#528FD8"/>
<path d="M71.6362 69.0164H55.4114V65.0827H71.6362V69.0164Z" fill="#FE646F"/>
<path d="M71.6364 69.0164H68.1267V65.0827H71.6364V69.0164Z" fill="#FD4755"/>
<path d="M74.0574 67.9154H71.6362H55.4114C54.8032 67.9154 54.3104 68.4084 54.3104 69.0164C54.3104 69.6244 54.8032 70.1173 55.4114 70.1173H71.6362H74.0574C74.6656 70.1173 75.1584 69.6244 75.1584 69.0164C75.1584 68.4084 74.6656 67.9154 74.0574 67.9154Z" fill="#5A5A5A"/>
<path d="M65.4518 48.8244H61.204C60.5958 48.8244 60.103 48.3315 60.103 47.7235C60.103 47.1155 60.5958 46.6225 61.204 46.6225H65.4518C66.0599 46.6225 66.5527 47.1155 66.5527 47.7235C66.5527 48.3315 66.0599 48.8244 65.4518 48.8244Z" fill="#DDEAFB"/>
<path d="M65.4518 54.0129H61.204C60.5958 54.0129 60.103 53.5199 60.103 52.9119C60.103 52.3039 60.5958 51.811 61.204 51.811H65.4518C66.0599 51.811 66.5527 52.3039 66.5527 52.9119C66.5527 53.5199 66.0599 54.0129 65.4518 54.0129Z" fill="#DDEAFB"/>
<path d="M65.4518 59.2012H61.204C60.5958 59.2012 60.103 58.7082 60.103 58.1002C60.103 57.4922 60.5958 56.9993 61.204 56.9993H65.4518C66.0599 56.9993 66.5527 57.4922 66.5527 58.1002C66.5527 58.7082 66.0599 59.2012 65.4518 59.2012Z" fill="#DDEAFB"/>
<path d="M15.9647 34.7888V22.6134C15.9647 22.6134 7.59851 23.7029 7.59851 33.1975L15.9647 34.7888Z" fill="#DDEAFB"/>
<path d="M14.8716 34.5887C14.2635 34.5887 13.7707 34.0958 13.7707 33.4877V16.8622C13.7707 16.2542 14.2635 15.7612 14.8716 15.7612C15.4798 15.7612 15.9726 16.2542 15.9726 16.8622V33.4877C15.9726 34.0958 15.4798 34.5887 14.8716 34.5887Z" fill="#5A5A5A"/>
<path d="M19.8935 32.9975V69.0162H3.66986V34.3685C3.66986 33.611 4.28346 32.9975 5.04091 32.9975H19.8935Z" fill="#82AEE3"/>
<path d="M15.9726 32.9975H19.8935V69.0162H15.9726V32.9975Z" fill="#528FD8"/>
<path d="M19.894 69.0164H3.66923V65.0827H19.894V69.0164Z" fill="#FE646F"/>
<path d="M19.894 69.0164H15.9604V65.0827H19.894V69.0164Z" fill="#FD4755"/>
<path d="M13.8723 39.9188H9.62451C9.01635 39.9188 8.52356 39.4258 8.52356 38.8178C8.52356 38.2098 9.01635 37.7169 9.62451 37.7169H13.8723C14.4804 37.7169 14.9732 38.2098 14.9732 38.8178C14.9732 39.4258 14.4804 39.9188 13.8723 39.9188Z" fill="#DDEAFB"/>
<path d="M13.8723 45.107H9.62451C9.01635 45.107 8.52356 44.6141 8.52356 44.0061C8.52356 43.3981 9.01635 42.9051 9.62451 42.9051H13.8723C14.4804 42.9051 14.9732 43.3981 14.9732 44.0061C14.9732 44.6141 14.4804 45.107 13.8723 45.107Z" fill="#DDEAFB"/>
<path d="M13.8723 50.2953H9.62451C9.01635 50.2953 8.52356 49.8024 8.52356 49.1944C8.52356 48.5864 9.01635 48.0934 9.62451 48.0934H13.8723C14.4804 48.0934 14.9732 48.5864 14.9732 49.1944C14.9732 49.8024 14.4804 50.2953 13.8723 50.2953Z" fill="#DDEAFB"/>
<path d="M13.8723 55.4838H9.62451C9.01635 55.4838 8.52356 54.9908 8.52356 54.3828C8.52356 53.7748 9.01635 53.2818 9.62451 53.2818H13.8723C14.4804 53.2818 14.9732 53.7748 14.9732 54.3828C14.9732 54.9908 14.4804 55.4838 13.8723 55.4838Z" fill="#DDEAFB"/>
<path d="M13.8723 60.672H9.62451C9.01635 60.672 8.52356 60.1791 8.52356 59.5711C8.52356 58.9631 9.01635 58.4701 9.62451 58.4701H13.8723C14.4804 58.4701 14.9732 58.9631 14.9732 59.5711C14.9732 60.1791 14.4804 60.672 13.8723 60.672Z" fill="#DDEAFB"/>
<path d="M19.8941 67.9154H3.66925C3.64445 67.9154 3.62008 67.9175 3.59571 67.9191C3.57134 67.9175 3.54698 67.9154 3.52217 67.9154H1.10095C0.492786 67.9154 0 68.4084 0 69.0164C0 69.6244 0.492786 70.1173 1.10095 70.1173H3.52217C3.54698 70.1173 3.57134 70.1153 3.59571 70.1137C3.62008 70.1153 3.64445 70.1173 3.66925 70.1173H19.8941C20.5022 70.1173 20.995 69.6244 20.995 69.0164C20.995 68.4084 20.5022 67.9154 19.8941 67.9154Z" fill="#5A5A5A"/>
<path d="M55.4114 69.0164L37.6757 70.9831L19.894 69.0164V20.3672C19.894 19.6099 20.5079 18.996 21.2652 18.996H54.04C54.7973 18.996 55.4112 19.6099 55.4112 20.3672V69.0164H55.4114Z" fill="#DDEAFB"/>
<path d="M54.0402 18.9958H50.0776C50.8349 18.9958 51.4488 19.6097 51.4488 20.367V70.1172L55.4114 69.0162V20.3672C55.4114 19.6099 54.7975 18.9958 54.0402 18.9958Z" fill="#CBE2FF"/>
<path d="M46.378 46.1208V65.0822L37.5792 65.797L28.9727 65.0822V46.1208C28.9727 45.4221 29.5393 44.8555 30.238 44.8555H45.1126C45.8114 44.8555 46.378 45.4221 46.378 46.1208Z" fill="#82AEE3"/>
<path d="M46.378 46.1208V65.0822H34.0269V44.8555H45.1126C45.8114 44.8555 46.378 45.4221 46.378 46.1208Z" fill="#528FD8"/>
<path d="M45.113 44.8553H37.6756V65.0827H46.3784V46.1207C46.3784 45.4218 45.8119 44.8553 45.113 44.8553Z" fill="#82AEE3"/>
<path d="M45.1131 44.8553H41.1238C41.8227 44.8553 42.3892 45.4218 42.3892 46.1207V65.0827H46.3785V46.1207C46.3785 45.4218 45.812 44.8553 45.1131 44.8553Z" fill="#528FD8"/>
<path d="M49.4071 65.0827H25.9443C25.357 65.0827 24.8808 65.5589 24.8808 66.1463V69.0164L37.5792 69.6137L50.4706 69.0164V66.1463C50.4706 65.5588 49.9944 65.0827 49.4071 65.0827Z" fill="#FE646F"/>
<path d="M49.4071 65.0827H45.7582C46.3456 65.0827 46.8218 65.5589 46.8218 66.1463V69.0164L48.5037 69.6137L50.4706 69.0164V66.1463C50.4706 65.5588 49.9944 65.0827 49.4071 65.0827Z" fill="#FD4755"/>
<path d="M27.7205 34.8842H25.9747C25.3705 34.8842 24.8808 35.3739 24.8808 35.9781V37.7239C24.8808 38.3281 25.3705 38.8178 25.9747 38.8178H27.7205C28.3247 38.8178 28.8144 38.3281 28.8144 37.7239V35.9781C28.8144 35.3739 28.3247 34.8842 27.7205 34.8842Z" fill="#82AEE3"/>
<path d="M49.3767 34.8842H47.6309C47.0267 34.8842 46.537 35.3739 46.537 35.9781V37.7239C46.537 38.3281 47.0267 38.8178 47.6309 38.8178H49.3767C49.9809 38.8178 50.4706 38.3281 50.4706 37.7239V35.9781C50.4706 35.3739 49.9808 34.8842 49.3767 34.8842Z" fill="#82AEE3"/>
<path d="M38.5486 34.8842H36.8028C36.1986 34.8842 35.7089 35.3739 35.7089 35.9781V37.7239C35.7089 38.3281 36.1986 38.8178 36.8028 38.8178H38.5486C39.1528 38.8178 39.6425 38.3281 39.6425 37.7239V35.9781C39.6425 35.3739 39.1528 34.8842 38.5486 34.8842Z" fill="#82AEE3"/>
<path d="M27.7205 25.0345H25.9747C25.3705 25.0345 24.8808 25.5242 24.8808 26.1284V27.8742C24.8808 28.4784 25.3705 28.9681 25.9747 28.9681H27.7205C28.3247 28.9681 28.8144 28.4784 28.8144 27.8742V26.1284C28.8144 25.5242 28.3247 25.0345 27.7205 25.0345Z" fill="#82AEE3"/>
<path d="M49.3767 25.0345H47.6309C47.0267 25.0345 46.537 25.5242 46.537 26.1284V27.8742C46.537 28.4784 47.0267 28.9681 47.6309 28.9681H49.3767C49.9809 28.9681 50.4706 28.4784 50.4706 27.8742V26.1284C50.4706 25.5242 49.9808 25.0345 49.3767 25.0345Z" fill="#82AEE3"/>
<path d="M38.5486 25.0345H36.8028C36.1986 25.0345 35.7089 25.5242 35.7089 26.1284V27.8742C35.7089 28.4784 36.1986 28.9681 36.8028 28.9681H38.5486C39.1528 28.9681 39.6425 28.4784 39.6425 27.8742V26.1284C39.6425 25.5242 39.1528 25.0345 38.5486 25.0345Z" fill="#82AEE3"/>
<path d="M55.4114 69.0164H19.894V71.5788C19.894 72.3361 20.5079 72.95 21.2652 72.95H54.04C54.7973 72.95 55.4112 72.3361 55.4112 71.5788V69.0164H55.4114Z" fill="#5A5A5A"/>
<path d="M51.4488 69.0164V71.5788C51.4488 72.3361 50.8349 72.95 50.0776 72.95H54.0402C54.7975 72.95 55.4114 72.3361 55.4114 71.5788V69.0164H51.4488Z" fill="#444444"/>
</svg>
