<svg width="25" height="23" viewBox="0 0 25 23" fill="none" xmlns="http://www.w3.org/2000/svg">
<path d="M4.30429 12.0561L4.75369 8.57812C4.75369 7.33035 6.32548 6.26509 7.44635 7.38596L8.21046 8.15007L4.30429 12.0561Z" fill="#FFCEBF"/>
<path d="M8.21036 8.14992L7.69781 8.66297H7.69731L6.9333 7.89896C6.3236 7.28926 5.58084 7.3262 5.02985 7.68797C5.53025 6.928 6.61302 6.55258 7.44635 7.3859L8.21036 8.14992Z" fill="#FFB09E"/>
<path d="M11.6731 3.97154L12.4373 4.73575L10.9089 6.26418L10.1447 5.49996C9.72284 5.07814 9.72284 4.39407 10.145 3.97189C10.3561 3.7608 10.6327 3.65526 10.9089 3.65526C11.1858 3.65526 11.462 3.76045 11.6731 3.97154Z" fill="#FFCEBF"/>
<path d="M12.1919 4.49031L12.4373 4.73575L10.9089 6.26418L10.6634 6.01873C10.2416 5.59691 10.2416 4.91284 10.6638 4.49066C10.8749 4.27957 11.1514 4.17403 11.4276 4.17403C11.7046 4.17403 11.9808 4.27922 12.1919 4.49031Z" fill="#FFB09E"/>
<path d="M10.1447 5.49997L10.9089 6.26418L9.38086 7.79225L8.61665 7.02804C8.19482 6.60622 8.19482 5.92215 8.617 5.49997C8.82774 5.28923 9.1043 5.18369 9.38086 5.18333C9.65742 5.18369 9.93363 5.28888 10.1447 5.49997Z" fill="#FFCEBF"/>
<path d="M10.6638 6.01909L10.9089 6.26418L9.38085 7.79225L9.13576 7.54716C8.71358 7.12498 8.71358 6.44092 9.13576 6.01874C9.34649 5.808 9.62305 5.70246 9.89962 5.7021C10.1762 5.70246 10.4527 5.808 10.6638 6.01909Z" fill="#FFB09E"/>
<path d="M8.61665 7.02798L9.38086 7.7922L7.85244 9.32062L7.08823 8.55641C6.6664 8.13459 6.66675 7.45016 7.08858 7.02834C7.29967 6.81725 7.57623 6.7117 7.85279 6.71135C8.1294 6.7117 8.40556 6.81689 8.61665 7.02798Z" fill="#FFCEBF"/>
<path d="M9.13576 7.54711L9.38085 7.7922L7.85243 9.32062L7.60733 9.07553C7.18515 8.65335 7.18551 7.96893 7.60733 7.54711C7.81842 7.33602 8.09499 7.23047 8.37155 7.23012C8.64816 7.23047 8.92472 7.33602 9.13576 7.54711Z" fill="#FFB09E"/>
<path d="M7.08826 8.55641L7.85248 9.32062L6.3244 10.8487L5.56019 10.0845C5.13837 9.66266 5.13837 8.97859 5.56054 8.55641C5.77163 8.34532 6.04784 8.24013 6.3244 8.23978C6.60097 8.24013 6.87717 8.34532 7.08826 8.55641Z" fill="#FFCEBF"/>
<path d="M7.6074 9.07553L7.85249 9.32062L6.32442 10.8487L6.07933 10.6036C5.65715 10.1814 5.65715 9.49736 6.07933 9.07518C6.29042 8.86409 6.56663 8.7589 6.84319 8.75854C7.11975 8.7589 7.39631 8.86444 7.6074 9.07553Z" fill="#FFB09E"/>
<path d="M12.4373 4.73575L20.4017 12.7001L18.2543 15.6438L14.946 18.1558C14.6252 17.835 14.3147 17.492 13.9596 17.2081C13.5531 16.8827 13.0849 16.6259 12.5915 16.4589C11.9375 16.2371 11.3436 15.8679 10.8556 15.3799L6.32437 10.8487L12.4373 4.73575Z" fill="#FFCEBF"/>
<path d="M11.6245 4.73575L17.7374 10.8486L13.2062 15.3798C12.7182 15.8678 12.1243 16.237 11.4702 16.4589C10.5001 16.7872 9.81938 17.4521 9.11573 18.1558L6.25732 15.878L3.66003 12.7001L11.6245 4.73575Z" fill="#FFCEBF"/>
<path d="M13.1528 6.26403L13.9169 5.49991C14.3389 5.07794 14.3389 4.39372 13.9169 3.97174C13.4949 3.54976 12.8107 3.54976 12.3887 3.97174L11.6246 4.73585L13.1528 6.26403Z" fill="#FFCEBF"/>
<path d="M14.681 7.79225L15.4451 7.02814C15.8671 6.60617 15.8671 5.92195 15.4451 5.49997C15.0231 5.07799 14.3389 5.07799 13.9169 5.49997L13.1528 6.26408L14.681 7.79225Z" fill="#FFCEBF"/>
<path d="M16.2091 9.32042L16.9733 8.55631C17.3952 8.13433 17.3952 7.45011 16.9733 7.02814C16.5513 6.60616 15.8671 6.60616 15.4451 7.02814L14.681 7.79225L16.2091 9.32042Z" fill="#FFCEBF"/>
<path d="M18.5012 8.55641C18.9234 8.97859 18.9234 9.66266 18.5016 10.0845L17.7374 10.8487L16.2093 9.32062L16.9735 8.55641C17.1846 8.34532 17.4608 8.24013 17.7374 8.23978C17.8315 8.24013 17.9252 8.25232 18.0168 8.27661C18.1942 8.32387 18.362 8.41722 18.5012 8.55641Z" fill="#FFCEBF"/>
<path d="M18.5017 10.0842L17.7372 10.8488L16.2092 9.32073L16.9732 10.0842L17.7372 9.32022C18.0201 9.03739 18.1137 8.63717 18.017 8.27641C18.1941 8.32397 18.3621 8.41707 18.5012 8.55621C18.9232 8.9787 18.9232 9.66276 18.5017 10.0842Z" fill="#FFB09E"/>
<path d="M18.9166 11.9912L17.59 12.2842L16.3317 12.5618C16.0739 12.6187 15.8378 12.7481 15.6511 12.9348L13.2062 15.3797C12.718 15.8679 12.1245 16.2373 11.4703 16.4589C10.4999 16.7864 9.81899 17.4524 9.11549 18.1559L8.6409 17.9465L8.35199 17.3919C9.05528 16.6886 9.73611 16.0223 10.7063 15.6949C11.36 15.4728 11.954 15.1034 12.4417 14.6157L14.5963 12.4615C14.8815 12.1764 14.8815 11.714 14.5964 11.4288C14.0477 10.8801 13.497 10.1682 12.7261 9.94008L10.8262 9.37744C9.64438 9.16357 9.80406 7.36066 11.0306 7.36066H13.7269C13.7558 7.36066 13.7851 7.36167 13.8145 7.36268C14.6169 7.38798 15.2868 7.82463 15.8545 8.39232L17.2652 9.80245C17.8738 10.4116 18.5159 11.2287 18.9166 11.9912Z" fill="#FFB09E"/>
<path d="M16.6311 8.39218L18.0415 9.80251C18.6504 10.4114 19.2922 11.2286 19.6929 11.9914L18.3667 12.2844L16.615 12.6708L14.4444 10.5002C13.7578 9.81354 12.5025 9.64364 11.6026 9.37714C10.3983 9.1616 10.605 7.36071 11.8073 7.36076H14.5035C14.5321 7.36076 14.5615 7.36147 14.5911 7.36253C15.3936 7.38793 16.0633 7.82438 16.6311 8.39218Z" fill="#FFCEBF"/>
<path d="M16.6311 8.39217L18.0414 9.80251C18.6504 10.4114 19.2922 11.2286 19.6929 11.9914L20.4017 12.7001L18.2543 15.6438L14.946 18.1558C14.6252 17.835 14.3147 17.492 13.9596 17.2081L17.1252 14.0425L17.8162 13.3515C18.2702 12.8975 18.3327 12.1834 17.9651 11.657C17.4406 10.9059 16.8437 10.1131 16.5331 9.80256L15.1228 8.39222C14.555 7.82443 13.8856 7.38833 13.0831 7.36223C13.0684 7.36187 14.5035 7.36081 14.5035 7.36081C14.5321 7.36081 14.5615 7.36152 14.5911 7.36258C15.3936 7.38793 16.0633 7.82438 16.6311 8.39217Z" fill="#FFB09E"/>
<path d="M12.0309 1.53475C11.8213 1.53475 11.6514 1.36485 11.6514 1.15528V0.379475C11.6514 0.169904 11.8213 0 12.0309 0C12.2405 0 12.4104 0.169904 12.4104 0.379475V1.15528C12.4104 1.36485 12.2405 1.53475 12.0309 1.53475Z" fill="#FFF0AD"/>
<path d="M10.2389 1.90258C10.0926 1.90258 9.9533 1.81758 9.89102 1.67505L9.58015 0.964267C9.49616 0.772253 9.58374 0.548514 9.77576 0.464523C9.96777 0.380482 10.1915 0.468116 10.2755 0.66013L10.5864 1.37091C10.6704 1.56293 10.5828 1.78667 10.3908 1.87066C10.3412 1.89231 10.2896 1.90258 10.2389 1.90258Z" fill="#FFF0AD"/>
<path d="M8.7438 2.95748C8.65166 2.95748 8.55927 2.92413 8.48626 2.85664L7.91664 2.32993C7.76278 2.1876 7.75337 1.94752 7.89565 1.79365C8.03798 1.63974 8.27796 1.63032 8.43192 1.77265L9.00154 2.29937C9.1554 2.44169 9.16482 2.68178 9.02254 2.83564C8.9477 2.91654 8.8459 2.95748 8.7438 2.95748Z" fill="#FFF0AD"/>
<path d="M13.8229 1.90258C13.7721 1.90258 13.7206 1.89231 13.6711 1.87071C13.4791 1.78672 13.3915 1.56298 13.4754 1.37101L13.7863 0.66023C13.8703 0.468215 14.0942 0.380683 14.2861 0.464572C14.4781 0.548563 14.5657 0.772302 14.4817 0.964266L14.1708 1.67505C14.1085 1.81753 13.9691 1.90258 13.8229 1.90258Z" fill="#FFF0AD"/>
<path d="M15.3179 2.95747C15.2158 2.95747 15.114 2.91649 15.0392 2.83564C14.8969 2.68172 14.9063 2.44164 15.0602 2.29936L15.6299 1.77265C15.7837 1.63032 16.0238 1.63978 16.1661 1.79365C16.3085 1.94756 16.299 2.18764 16.1451 2.32992L15.5755 2.85664C15.5025 2.92413 15.4101 2.95747 15.3179 2.95747Z" fill="#FFF0AD"/>
<path d="M20.4017 12.7001L23.0192 15.3176L20.2107 18.4777L16.6494 21.6874L14.3469 19.3849C14.173 19.211 14.173 18.9289 14.3469 18.7549L20.4017 12.7001Z" fill="#DDEAFB"/>
<path d="M23.019 15.3175L20.2107 18.4777L16.6494 21.6876L15.9405 20.9787L22.3106 14.6091L23.019 15.3175Z" fill="#CBE2FF"/>
<path d="M23.0191 15.3176L23.9313 16.2298C24.1053 16.4037 24.1053 16.6858 23.9313 16.8598L18.1915 22.5995C18.0176 22.7735 17.7355 22.7735 17.5615 22.5995L16.6493 21.6874L23.0191 15.3176Z" fill="#FFD15B"/>
<path d="M23.9312 16.8601L18.1915 22.5993C18.0175 22.7734 17.7351 22.7734 17.5611 22.5993L16.9807 22.0185C17.1553 22.1875 17.4331 22.1855 17.6051 22.0134L23.3453 16.2737C23.5189 16.0997 23.5189 15.8173 23.3453 15.6438L23.9312 16.2297C24.1053 16.4038 24.1053 16.6861 23.9312 16.8601Z" fill="#FFC344"/>
<path d="M3.6601 12.7001L9.71491 18.7549C9.88886 18.9289 9.88886 19.211 9.71491 19.385L7.41241 21.6874L4.16308 18.8091L1.04263 15.3176L3.6601 12.7001Z" fill="#DDEAFB"/>
<path d="M9.715 19.3847L9.31432 19.7857L2.9447 13.4155L3.66014 12.7001L9.71485 18.7548C9.88885 18.9287 9.88885 19.2107 9.715 19.3847Z" fill="#CBE2FF"/>
<path d="M7.41238 19.544C7.64857 19.544 7.84003 19.3525 7.84003 19.1164C7.84003 18.8802 7.64857 18.6887 7.41238 18.6887C7.1762 18.6887 6.98474 18.8802 6.98474 19.1164C6.98474 19.3525 7.1762 19.544 7.41238 19.544Z" fill="#FFF9DF"/>
<path d="M1.04262 15.3176L7.4124 21.6874L6.50024 22.5995C6.32629 22.7735 6.04421 22.7735 5.87021 22.5995L0.130464 16.8597C-0.0434879 16.6858 -0.0434879 16.4037 0.130464 16.2297L1.04262 15.3176Z" fill="#528FD8"/>
<path d="M0.427063 15.9299L1.04059 15.3164L7.40938 21.6852L6.79585 22.2987L0.427063 15.9299Z" fill="#0473CE"/>
</svg>
