<svg width="21" height="21" viewBox="0 0 21 21" fill="none" xmlns="http://www.w3.org/2000/svg">
<path d="M10.5 0C4.71007 0 0 4.71007 0 10.5C0 16.2899 4.71007 21 10.5 21C16.2899 21 21 16.2899 21 10.5C21 4.71007 16.2899 0 10.5 0Z" fill="#59A2DD"/>
<path d="M15.8217 8.2749L10.1342 13.9623C9.96356 14.1329 9.73958 14.2188 9.51559 14.2188C9.29161 14.2188 9.06763 14.1329 8.897 13.9623L6.0533 11.1186C5.71107 10.7765 5.71107 10.2235 6.0533 9.8814C6.39536 9.53918 6.94827 9.53918 7.2905 9.8814L9.51559 12.1065L14.5845 7.0377C14.9266 6.69548 15.4795 6.69548 15.8217 7.0377C16.1638 7.37977 16.1638 7.93268 15.8217 8.2749Z" fill="#FAFAFA"/>
</svg>
