<svg viewBox="0 0 124 31" fill="none" xmlns="http://www.w3.org/2000/svg">
	<path d="M31.0618 15.0299C31.0618 6.7291 24.1083 0 15.5309 0C6.95341 0 0 6.7291 0 15.0299C0 23.3307 6.95341 30.0598 15.5309 30.0598C24.1083 30.0598 31.0618 23.3307 31.0618 15.0299Z" fill="#F7931A" />
	<path d="M19.9524 14.134C21.0388 13.5413 21.626 12.355 21.4236 11.1648C21.1721 9.32746 18.9088 8.63378 17.1232 8.48782V5.72559H15.3629V8.46349H14.1809V5.72559H12.4206V8.46349H8.87463V10.2279H10.1949C10.7859 10.2279 11.0751 10.3983 11.0751 10.8607V18.4416C11.0751 19.0744 10.7481 19.2691 10.3961 19.2691H9.05066V21.07H12.4708V23.8688H14.2438V21.07H15.4257V23.8688H17.1484V21.07H17.5256C21.1469 21.07 22.354 19.3543 22.354 17.018C22.3251 15.6404 21.3381 14.4552 19.9524 14.134ZM14.1809 10.3374H15.4383C16.3185 10.3374 18.0537 10.4835 18.0537 11.8707C18.114 12.776 17.4363 13.5694 16.507 13.6838H14.1809V10.3374ZM16.1299 19.0987V19.0865H14.1809V15.436H16.4442C16.9723 15.436 18.959 15.6063 18.959 16.9692C18.959 18.3321 18.016 19.0987 16.1299 19.0987Z" fill="white" />
	<path d="M42.9211 17.3216C45.3476 17.3216 47.3565 16.4464 48.6692 14.8354L46.6007 12.926C45.6658 14.0199 44.4924 14.5768 43.1001 14.5768C40.4946 14.5768 38.6448 12.747 38.6448 10.1215C38.6448 7.49611 40.4946 5.66627 43.1001 5.66627C44.4924 5.66627 45.6658 6.22318 46.6007 7.29722L48.6692 5.38782C47.3565 3.79665 45.3476 2.92151 42.941 2.92151C38.605 2.92151 35.3829 5.92484 35.3829 10.1215C35.3829 14.3182 38.605 17.3216 42.9211 17.3216ZM64.1711 17.0829L61.0484 12.6077C62.8584 11.832 63.9125 10.3005 63.9125 8.21214C63.9125 5.08947 61.5855 3.16018 57.8661 3.16018H51.8396V17.0829H55.0617V13.2044H57.8661H58.0252L60.7103 17.0829H64.1711ZM60.6507 8.21214C60.6507 9.72374 59.6562 10.6387 57.6871 10.6387H55.0617V5.78561H57.6871C59.6562 5.78561 60.6507 6.68064 60.6507 8.21214ZM79.3584 3.16018H76.196L72.4766 9.34584L68.7573 3.16018H65.3363L70.7264 12.1105V17.0829H73.9485V12.1503L79.3584 3.16018ZM87.5917 3.16018H81.5651V17.0829H84.7873V13.2442H87.5917C91.311 13.2442 93.6381 11.3149 93.6381 8.21214C93.6381 5.08947 91.311 3.16018 87.5917 3.16018ZM87.4127 10.6188H84.7873V5.78561H87.4127C89.3817 5.78561 90.3762 6.68064 90.3762 8.21214C90.3762 9.72374 89.3817 10.6188 87.4127 10.6188ZM99.4284 17.0829H102.651V5.78561H107.106V3.16018H94.9732V5.78561H99.4284V17.0829ZM116.382 17.3216C120.758 17.3216 124 14.2785 124 10.1215C124 5.96461 120.758 2.92151 116.382 2.92151C111.987 2.92151 108.765 5.9845 108.765 10.1215C108.765 14.2586 111.987 17.3216 116.382 17.3216ZM116.382 14.5768C113.896 14.5768 112.026 12.7669 112.026 10.1215C112.026 7.47622 113.896 5.66627 116.382 5.66627C118.869 5.66627 120.738 7.47622 120.738 10.1215C120.738 12.7669 118.869 14.5768 116.382 14.5768Z" fill="#292929" />
	<path d="M41.0125 27.2933C41.9059 27.2933 42.6764 26.9819 43.201 26.3917L42.6682 25.8753C42.2256 26.3425 41.6846 26.5638 41.0535 26.5638C39.7584 26.5638 38.7994 25.6294 38.7994 24.3589C38.7994 23.0885 39.7584 22.154 41.0535 22.154C41.6846 22.154 42.2256 22.3671 42.6682 22.8344L43.201 22.318C42.6764 21.7278 41.9059 21.4245 41.0207 21.4245C39.2748 21.4245 37.9797 22.6622 37.9797 24.3589C37.9797 26.0556 39.2748 27.2933 41.0125 27.2933ZM47.543 27.2933C49.0594 27.2933 49.9692 26.4163 49.9692 24.7524V21.4901H49.1741V24.7196C49.1741 25.9901 48.584 26.5638 47.5512 26.5638C46.5184 26.5638 45.9365 25.9901 45.9365 24.7196V21.4901H45.1168V24.7524C45.1168 26.4163 46.0348 27.2933 47.543 27.2933ZM57.1988 27.2278L55.8382 25.3015C56.6414 25.0147 57.1004 24.3753 57.1004 23.4901C57.1004 22.2442 56.1988 21.4901 54.707 21.4901H52.4693V27.2278H53.289V25.4819H54.707C54.83 25.4819 54.9529 25.4737 55.0677 25.4655L56.3054 27.2278H57.1988ZM54.6824 24.7852H53.289V22.2032H54.6824C55.7316 22.2032 56.2808 22.6704 56.2808 23.4901C56.2808 24.3098 55.7316 24.7852 54.6824 24.7852ZM63.9738 27.2278L62.6132 25.3015C63.4164 25.0147 63.8755 24.3753 63.8755 23.4901C63.8755 22.2442 62.9738 21.4901 61.482 21.4901H59.2443V27.2278H60.064V25.4819H61.482C61.605 25.4819 61.7279 25.4737 61.8427 25.4655L63.0804 27.2278H63.9738ZM61.4574 24.7852H60.064V22.2032H61.4574C62.5066 22.2032 63.0558 22.6704 63.0558 23.4901C63.0558 24.3098 62.5066 24.7852 61.4574 24.7852ZM66.8391 26.5147V24.6622H69.7162V23.9655H66.8391V22.2032H70.0686V21.4901H66.0195V27.2278H70.1834V26.5147H66.8391ZM76.4449 21.4901V25.7688L73.0023 21.4901H72.3302V27.2278H73.1499V22.9491L76.5925 27.2278H77.2646V21.4901H76.4449ZM82.3672 27.2933C83.2607 27.2933 84.0312 26.9819 84.5558 26.3917L84.023 25.8753C83.5803 26.3425 83.0394 26.5638 82.4082 26.5638C81.1131 26.5638 80.1541 25.6294 80.1541 24.3589C80.1541 23.0885 81.1131 22.154 82.4082 22.154C83.0394 22.154 83.5803 22.3671 84.023 22.8344L84.5558 22.318C84.0312 21.7278 83.2607 21.4245 82.3754 21.4245C80.6295 21.4245 79.3345 22.6622 79.3345 24.3589C79.3345 26.0556 80.6295 27.2933 82.3672 27.2933ZM86.5447 27.2278H87.3644V21.4901H86.5447V27.2278ZM90.7215 26.5147V24.6622H93.5985V23.9655H90.7215V22.2032H93.951V21.4901H89.9018V27.2278H94.0658V26.5147H90.7215ZM97.8847 27.2933C99.4011 27.2933 100.106 26.5392 100.106 25.6622C100.106 23.5557 96.6306 24.4327 96.6306 23.0311C96.6306 22.5311 97.0486 22.1212 98.024 22.1212C98.5322 22.1212 99.0978 22.2688 99.5978 22.5885L99.8683 21.9327C99.3929 21.6049 98.6962 21.4245 98.024 21.4245C96.5159 21.4245 95.8273 22.1786 95.8273 23.0639C95.8273 25.195 99.3027 24.3098 99.3027 25.7114C99.3027 26.2114 98.8765 26.5966 97.8847 26.5966C97.147 26.5966 96.4175 26.3179 95.9913 25.9327L95.688 26.572C96.147 26.9983 97.0076 27.2933 97.8847 27.2933Z" fill="#292929" />
</svg>
