<svg width="35" height="35" viewBox="0 0 35 35" fill="none" xmlns="http://www.w3.org/2000/svg">
<path d="M34.47 0.398285H23.1266V9.95534V13.8853H34.47V0.398285Z" fill="#1F304F"/>
<path d="M34.47 17.1008V15.4261H23.1266V15.6717L9.99686 0.398285H0.41748V5.53408L7.56294 13.9077H0.41748V15.4484H8.88038L10.3095 17.1231H0.41748V18.6639H11.6269L13.056 20.3386H0.41748V21.8793H14.3735L15.8025 23.554H0.41748V25.0948H17.0977L24.8907 34.2276H34.47V28.8908V28.8238V28.6452V25.0724H31.3216C30.875 24.5589 30.4061 24.0453 29.9595 23.5317H34.47V21.857H28.4857C28.1061 21.4327 27.7265 21.0085 27.3692 20.5842L27.146 20.3386H34.4924V18.6639H25.7169L24.3771 17.1008H34.47V17.1008Z" fill="#1F304F"/>
<path opacity="0.5" d="M34.47 17.1008V15.4261H23.1266V15.6717L9.99686 0.398285H0.41748V5.53408L7.56294 13.9077H0.41748V15.4484H8.88038L10.3095 17.1231H0.41748V18.6639H11.6269L13.056 20.3386H0.41748V21.8793H14.3735L15.8025 23.554H0.41748V25.0948H17.0977L24.8907 34.2276H34.47V28.8908V28.8238V28.6452V25.0724H31.3216C30.875 24.5589 30.4061 24.0453 29.9595 23.5317H34.47V21.857H28.4857C28.1061 21.4327 27.7265 21.0085 27.3692 20.5842L27.146 20.3386H34.4924V18.6639H25.7169L24.3771 17.1008H34.47V17.1008Z" fill="#1F304F"/>
</svg>
