<svg width="14" height="14" viewBox="0 0 14 14" fill="none" xmlns="http://www.w3.org/2000/svg">
<path d="M11.5 7C11.2238 7 11 7.22386 11 7.50002V12.5C11 12.7762 10.7761 13 10.5 13H1.5C1.22385 13 0.999991 12.7762 0.999991 12.5V2.5C0.999991 2.22385 1.22385 1.99999 1.5 1.99999H7.50001C7.77616 1.99999 8.00002 1.77613 8.00002 1.49998C8.00002 1.22383 7.77616 1 7.50001 1H1.5C0.671573 1 0 1.67157 0 2.5V12.5C0 13.3284 0.671573 14 1.5 14H10.5C11.3284 14 12 13.3284 12 12.5V7.49999C12 7.22386 11.7762 7 11.5 7Z" fill="#18191D"/>
<path d="M13.44 0.560692C13.0809 0.201629 12.594 -5.06833e-05 12.0863 7.9105e-06C11.5782 -0.00145693 11.0908 0.200574 10.7328 0.561014L4.14674 7.14649C4.0921 7.20154 4.05088 7.26845 4.02624 7.34199L3.02625 10.342C2.93898 10.604 3.08063 10.8871 3.34263 10.9744C3.39346 10.9913 3.44669 10.9999 3.50025 11C3.55392 10.9999 3.60727 10.9913 3.65824 10.9745L6.65825 9.97452C6.73193 9.94991 6.79887 9.90848 6.85374 9.85352L13.4397 3.26752C14.1873 2.5201 14.1873 1.3082 13.44 0.560692Z" fill="#18191D"/>
</svg>
