<svg width="21" height="22" viewBox="0 0 21 22" fill="none" xmlns="http://www.w3.org/2000/svg">
<rect x="0.25" y="1.05646" width="20.5" height="20.5" rx="4.75" fill="white" stroke="#EEEEEE" stroke-width="0.5"/>
<path d="M14.3929 11.3065C14.2153 11.3065 14.0714 11.4504 14.0714 11.6279V14.8422C14.0714 15.0197 13.9275 15.1636 13.75 15.1636H7.96429C7.78676 15.1636 7.64285 15.0197 7.64285 14.8422V8.4136C7.64285 8.23607 7.78676 8.09216 7.96429 8.09216H11.8214C11.999 8.09216 12.1429 7.94826 12.1429 7.77073C12.1429 7.5932 11.999 7.44931 11.8214 7.44931H7.96429C7.43173 7.44931 7 7.88104 7 8.4136V14.8422C7 15.3747 7.43173 15.8065 7.96429 15.8065H13.75C14.2826 15.8065 14.7143 15.3747 14.7143 14.8422V11.6279C14.7143 11.4504 14.5704 11.3065 14.3929 11.3065Z" fill="black"/>
<path d="M15.6398 7.1669C15.409 6.93608 15.096 6.80642 14.7696 6.80646C14.443 6.80552 14.1296 6.9354 13.8995 7.16711L9.66562 11.4006C9.63049 11.436 9.60399 11.479 9.58815 11.5263L8.9453 13.4549C8.8892 13.6233 8.98026 13.8053 9.14869 13.8614C9.18137 13.8723 9.21559 13.8778 9.25001 13.8779C9.28452 13.8778 9.31881 13.8723 9.35158 13.8615L11.2802 13.2186C11.3275 13.2028 11.3706 13.1762 11.4058 13.1409L15.6397 8.90701C16.1202 8.42652 16.1203 7.64744 15.6398 7.1669Z" fill="black"/>
</svg>
