<svg width="193" height="41" viewBox="0 0 193 41" fill="none" xmlns="http://www.w3.org/2000/svg">
<g clip-path="url(#clip0_35_214)">
<path d="M31.8559 13.1728C31.6738 13.0483 31.4917 12.9275 31.2982 12.8181C31.1957 12.7615 31.0895 12.7086 30.9832 12.652C31.0895 12.7049 31.1957 12.7577 31.2982 12.8181C31.4917 12.9313 31.6776 13.0483 31.8559 13.1728ZM33.461 14.6483C33.7722 15.0294 34.0567 15.4407 34.2996 15.886C35.0205 17.1954 35.3886 18.7049 35.3886 20.3652C35.3886 22.0256 35.0243 23.5313 34.2996 24.8445C33.996 25.3917 33.6393 25.8935 33.2371 26.3464C33.6431 25.8935 33.9998 25.3954 34.3034 24.8445C35.0243 23.5351 35.3924 22.0256 35.3924 20.3652C35.3924 18.7086 35.0281 17.1992 34.3034 15.8898C34.0567 15.4445 33.7722 15.0294 33.461 14.6483ZM15.35 11.8558C15.7978 11.8558 16.1734 11.7124 16.4732 11.4294C16.7729 11.1464 16.9323 10.769 16.9323 10.3426C16.9323 9.91996 16.7767 9.5426 16.4808 9.24826C16.181 8.95014 15.8016 8.7992 15.35 8.7992H1.9214C1.49263 8.7992 1.12077 8.94637 0.81342 9.24071C0.502273 9.53505 0.339111 9.9275 0.339111 10.3728V30.3917C0.339111 30.8218 0.494684 31.1954 0.805831 31.5011C1.11698 31.8105 1.48883 31.9652 1.9252 31.9652H15.3576C15.8092 31.9652 16.1886 31.8143 16.4884 31.5162C16.7843 31.2218 16.9399 30.8445 16.9399 30.4218C16.9399 29.9917 16.7805 29.6181 16.4808 29.3351C16.181 29.052 15.8054 28.9086 15.3576 28.9086H3.50749V21.8822H12.0071C12.4207 21.8822 12.785 21.7426 13.0847 21.4709C13.3997 21.1803 13.5894 20.7652 13.5894 20.3388C13.5894 19.9162 13.4338 19.5388 13.1378 19.2445C12.8381 18.9464 12.4586 18.7992 12.0071 18.7992H3.4999V11.8558H15.35ZM32.9032 10.2784C31.1426 9.29354 29.1163 8.79543 26.8928 8.79543H21.7361C21.2884 8.79543 20.9051 8.94637 20.6054 9.24071C20.3056 9.53882 20.1538 9.91618 20.1538 10.3652V30.3879C20.1538 30.8369 20.3056 31.2143 20.6054 31.5124C20.9051 31.8105 21.2846 31.9615 21.7361 31.9615H26.8928C29.1201 31.9615 31.1426 31.4596 32.9032 30.4784C34.6714 29.4935 36.064 28.0973 37.0468 26.3426C38.0258 24.5917 38.5228 22.5803 38.5228 20.3652C38.5228 18.1501 38.0258 16.1426 37.0468 14.3992C36.064 12.652 34.6714 11.2671 32.9032 10.2784ZM34.3034 24.8407C33.9998 25.3879 33.6431 25.8898 33.2371 26.3426C32.6793 26.9652 32.0343 27.4973 31.2944 27.9275C30.0156 28.6709 28.5358 29.0445 26.889 29.0445H23.3146V11.7124H26.889C28.403 11.7124 29.7766 12.0332 30.9832 12.652C31.0895 12.7049 31.1957 12.7577 31.2982 12.8181C31.4917 12.9275 31.6738 13.0483 31.8559 13.1728C32.4631 13.5879 32.9981 14.0822 33.461 14.6483C33.7722 15.0294 34.0567 15.4407 34.3034 15.886C35.0243 17.1954 35.3924 18.7049 35.3924 20.3615C35.3886 22.0218 35.0243 23.5313 34.3034 24.8407ZM31.2944 27.9237C30.0194 28.6671 28.5358 29.0407 26.8928 29.0407H23.3184V11.7124H26.8928C28.4068 11.7124 29.7766 12.0332 30.9832 12.652C29.7766 12.0332 28.4068 11.7124 26.889 11.7124H23.3146V29.0445H26.889C28.5358 29.0445 30.0194 28.6671 31.2944 27.9237C32.0343 27.4935 32.6831 26.9615 33.2371 26.3388C32.6831 26.9652 32.0343 27.4973 31.2944 27.9237ZM59.2786 8.79543C58.827 8.79543 58.4476 8.94637 58.1478 9.24448C57.848 9.5426 57.6963 9.91996 57.6963 10.369V24.1539C57.6963 25.1577 57.4382 26.0671 56.926 26.8483C56.4099 27.6369 55.689 28.2634 54.7783 28.7086C53.8525 29.1615 52.7748 29.3879 51.5758 29.3879C50.354 29.3879 49.2574 29.1577 48.3126 28.7086C47.3829 28.2634 46.6544 27.6407 46.1383 26.852C45.6299 26.0709 45.368 25.1615 45.368 24.1577V10.369C45.368 9.92373 45.2163 9.5426 44.9165 9.24448C44.6167 8.94637 44.2373 8.79543 43.7858 8.79543C43.3342 8.79543 42.9548 8.94637 42.655 9.24448C42.3552 9.5426 42.2035 9.91996 42.2035 10.369V24.1539C42.2035 25.7388 42.6095 27.1766 43.4063 28.4294C44.2031 29.686 45.3301 30.6747 46.7606 31.3728C48.1722 32.0634 49.7924 32.4181 51.5758 32.4181C53.3402 32.4181 54.9415 32.0671 56.3378 31.3728C57.7456 30.6747 58.8612 29.6822 59.658 28.4294C60.4548 27.1728 60.8609 25.735 60.8609 24.1539V10.369C60.8609 9.92373 60.7091 9.5426 60.4093 9.24448C60.1133 8.94637 59.7301 8.79543 59.2786 8.79543ZM81.6318 9.2143C81.3548 8.9426 80.9829 8.79543 80.5579 8.79543H64.7236C64.2986 8.79543 63.9268 8.9426 63.6498 9.2143C63.369 9.49354 63.2248 9.85203 63.2248 10.2822C63.2248 10.686 63.3728 11.0445 63.646 11.32C63.9268 11.5992 64.2873 11.7426 64.7198 11.7426H71.0414V30.3917C71.0414 30.8218 71.197 31.1954 71.5081 31.5011C71.8117 31.803 72.1987 31.9652 72.6275 31.9652C73.1094 31.9652 73.5268 31.7766 73.8303 31.4218C74.0846 31.12 74.2098 30.7275 74.2098 30.3351V11.7426H80.5617C80.9943 11.7426 81.3548 11.603 81.6356 11.3237C81.9126 11.0483 82.0605 10.6898 82.0605 10.286C82.0529 9.85958 81.9088 9.48977 81.6318 9.2143ZM99.4278 11.8558C99.8756 11.8558 100.251 11.7124 100.551 11.4294C100.851 11.1464 101.01 10.769 101.01 10.3426C101.01 9.91996 100.855 9.5426 100.559 9.24826C100.259 8.95014 99.8794 8.7992 99.4278 8.7992H85.9954C85.5666 8.7992 85.1948 8.94637 84.8874 9.24071C84.5763 9.53505 84.4131 9.9275 84.4131 10.3728V30.3917C84.4131 30.8218 84.5687 31.1954 84.8798 31.5011C85.191 31.8105 85.5628 31.9652 85.9992 31.9652H99.4316C99.8832 31.9652 100.263 31.8143 100.562 31.5162C100.858 31.2218 101.014 30.8445 101.014 30.4218C101.014 29.9917 100.855 29.6181 100.555 29.3351C100.255 29.052 99.8794 28.9086 99.4316 28.9086H87.5815V21.8822H96.0811C96.4947 21.8822 96.859 21.7426 97.1587 21.4709C97.4737 21.1803 97.6634 20.7652 97.6634 20.3388C97.6634 19.9162 97.5078 19.5388 97.2118 19.2445C96.9121 18.9464 96.5326 18.7992 96.0811 18.7992H87.5815V11.8558H99.4278ZM110.527 12.7388C111.821 11.9464 113.24 11.5388 114.75 11.5388C115.854 11.5388 116.837 11.6822 117.664 11.969C118.48 12.252 119.246 12.7086 119.937 13.3275C120.214 13.5766 120.559 13.7011 120.965 13.7011C121.197 13.7011 121.421 13.6445 121.625 13.5237C121.796 13.4256 121.929 13.2973 122.012 13.1388C122.153 13.0483 122.267 12.9275 122.362 12.7803C122.483 12.5841 122.544 12.3652 122.544 12.1237C122.544 11.6898 122.369 11.335 122.062 11.1124C120.973 10.2067 119.831 9.53882 118.654 9.12373C117.482 8.70864 116.169 8.49731 114.746 8.49731C112.629 8.49731 110.659 9.03694 108.895 10.1011C107.134 11.1652 105.723 12.6181 104.695 14.4256C103.666 16.2332 103.146 18.2256 103.146 20.3464C103.146 22.4898 103.674 24.4898 104.71 26.2973C105.746 28.1049 107.165 29.5615 108.925 30.6218C110.69 31.686 112.652 32.2256 114.75 32.2256C117.74 32.2256 120.206 31.3615 122.077 29.6558L122.104 29.6294C122.396 29.3162 122.54 28.9426 122.54 28.52C122.54 28.0747 122.381 27.6898 122.081 27.403C121.781 27.12 121.424 26.9766 121.018 26.9766C120.707 26.9766 120.407 27.0822 120.1 27.3049C118.514 28.5615 116.712 29.1992 114.746 29.1992C113.217 29.1992 111.786 28.7992 110.492 28.0143C109.195 27.2256 108.151 26.1426 107.392 24.7954C106.634 23.4483 106.25 21.9539 106.25 20.3501C106.25 18.7879 106.637 17.3086 107.408 15.9652C108.174 14.6294 109.225 13.5388 110.527 12.7388ZM144.149 8.79543C143.823 8.78788 143.493 8.87467 143.224 9.0558C142.768 9.36147 142.525 9.82562 142.525 10.369V18.7917H129.48V10.369C129.48 9.92373 129.328 9.5426 129.028 9.24448C128.729 8.94637 128.349 8.79543 127.898 8.79543C127.469 8.79543 127.097 8.9426 126.79 9.23694C126.479 9.53128 126.315 9.92373 126.315 10.369V30.3879C126.315 30.8181 126.471 31.1917 126.782 31.4973C127.093 31.8067 127.465 31.9615 127.901 31.9615C128.383 31.9615 128.801 31.7728 129.104 31.4181C129.359 31.1162 129.484 30.7237 129.484 30.3313V21.7086H142.529V30.3879C142.529 30.8105 142.689 31.1954 142.996 31.4973C143.307 31.8067 143.679 31.9615 144.115 31.9615C144.597 31.9615 145.015 31.7728 145.318 31.4181C145.572 31.1162 145.698 30.7237 145.698 30.3313V10.369C145.698 9.92373 145.546 9.5426 145.246 9.24448C144.942 8.95392 144.582 8.80297 144.149 8.79543ZM169.686 11.8822L151.712 11.886V8.7992H158.88H167.432L169.686 11.8822ZM169.686 28.8935L151.712 28.8898V31.9766H158.88H167.432L169.686 28.8935ZM192.252 31.9803H188.241L183.27 25.6256L185.274 23.0671L192.252 31.9803ZM188.48 8.79543L183.289 15.4218L185.293 17.9803L192.487 8.79165L188.48 8.79543Z" fill="url(#paint0_linear_35_214)"/>
<mask id="mask0_35_214" style="mask-type:luminance" maskUnits="userSpaceOnUse" x="151" y="8" width="34" height="24">
<path d="M175.272 8.79541H169.686L177.681 19.003H151.708V22.0898V22.0935H177.666L169.925 31.9803H175.511L184.511 20.5954L175.272 8.79541Z" fill="white"/>
</mask>
<g mask="url(#mask0_35_214)">
<path d="M185.445 20.5729H147.083L160.894 6.48608H173.557L185.445 20.5729Z" fill="url(#paint1_linear_35_214)"/>
</g>
<mask id="mask1_35_214" style="mask-type:luminance" maskUnits="userSpaceOnUse" x="151" y="8" width="34" height="24">
<path d="M175.272 8.79541H169.686L177.681 19.003H151.708V22.0898V22.0935H177.666L169.925 31.9803H175.511L184.511 20.5954L175.272 8.79541Z" fill="white"/>
</mask>
<g mask="url(#mask1_35_214)">
<path d="M160.894 34.6558H173.557L185.445 20.5728H149.105L160.894 34.6558Z" fill="url(#paint2_linear_35_214)"/>
</g>
<mask id="mask2_35_214" style="mask-type:luminance" maskUnits="userSpaceOnUse" x="151" y="8" width="34" height="24">
<path d="M175.272 8.79541H169.686L177.681 19.003H151.708V22.0898V22.0935H177.666L169.925 31.9803H175.511L184.511 20.5954L175.272 8.79541Z" fill="white"/>
</mask>
<g mask="url(#mask2_35_214)">
<g opacity="0.72">
<mask id="mask3_35_214" style="mask-type:luminance" maskUnits="userSpaceOnUse" x="160" y="6" width="26" height="15">
<path d="M160.894 6.48608C160.894 6.48608 175.222 20.5691 185.441 20.5691L173.557 6.48608H160.894Z" fill="white"/>
</mask>
<g mask="url(#mask3_35_214)">
<mask id="mask4_35_214" style="mask-type:luminance" maskUnits="userSpaceOnUse" x="167" y="-4" width="36" height="29">
<path d="M172.263 -3.43391L167.004 16.2883L196.753 24.133L202.012 4.41078L172.263 -3.43391Z" fill="white"/>
</mask>
<g mask="url(#mask4_35_214)">
<g opacity="0.3">
<path opacity="0.1" d="M178.171 6.23315L177.56 9.21806L176.444 6.40297L178.171 6.23315Z" fill="white"/>
<path opacity="0.8" d="M177.56 9.21817L174.069 8.80308L176.444 6.40308L177.56 9.21817Z" fill="white"/>
<path opacity="0.45" d="M176.444 6.40308L174.069 8.80308L173.602 7.46345L176.444 6.40308Z" fill="white"/>
<path d="M182.132 7.27476L181.529 9.55401L180.618 7.18042L182.132 7.27476Z" fill="white"/>
<path opacity="0.8" d="M181.529 9.55401L179.241 10.1691L180.618 7.18042L181.529 9.55401Z" fill="white"/>
<path opacity="0.5" d="M180.618 7.18042L179.241 10.1691L177.56 9.21816L180.618 7.18042Z" fill="white"/>
<path opacity="0.6" d="M180.618 7.18032L177.56 9.21806L178.171 6.23315L180.618 7.18032Z" fill="white"/>
<path opacity="0.6" d="M184.978 8.87102L185.49 10.5955L183.066 8.45215L184.978 8.87102Z" fill="white"/>
<path opacity="0.75" d="M184.978 8.87101L183.066 8.45214L184.913 6.18799L184.978 8.87101Z" fill="white"/>
<path d="M185.49 10.5955L183.726 10.6333L183.066 8.45215L185.49 10.5955Z" fill="white"/>
<path opacity="0.1" d="M183.066 8.45215L183.726 10.6333L181.529 9.55404L183.066 8.45215Z" fill="white"/>
<path opacity="0.3" d="M183.066 8.45202L181.529 9.5539L182.132 7.27466L183.066 8.45202Z" fill="white"/>
<path opacity="0.1" d="M170.665 8.48225L169.792 10.5351L168.988 7.46338L170.665 8.48225Z" fill="white"/>
<path opacity="0.75" d="M169.792 10.5351L167.41 9.79923L168.988 7.46338L169.792 10.5351Z" fill="white"/>
<path opacity="0.75" d="M173.598 7.46338L172.991 9.73885L170.665 8.48225L173.598 7.46338Z" fill="white"/>
<path opacity="0.6" d="M174.069 8.80298L174.281 11.8407L172.991 9.73883L174.069 8.80298Z" fill="white"/>
<path opacity="0.5" d="M174.069 8.803L172.991 9.73885L173.598 7.46338L174.069 8.803Z" fill="white"/>
<path opacity="0.3" d="M172.991 9.73877L172.384 12.0142L169.792 10.535L172.991 9.73877Z" fill="white"/>
<path opacity="0.75" d="M172.991 9.73878L169.792 10.535L170.665 8.48218L172.991 9.73878Z" fill="white"/>
<path opacity="0.5" d="M177.56 9.21807L176.672 11.3464L174.069 8.80298L177.56 9.21807Z" fill="white"/>
<path opacity="0.5" d="M179.241 10.1692L179.199 11.7654L176.672 11.3465L179.241 10.1692Z" fill="white"/>
<path opacity="0.3" d="M179.241 10.169L176.672 11.3463L177.56 9.21802L179.241 10.169Z" fill="white"/>
<path opacity="0.5" d="M176.672 11.3464L176.236 13.4823L174.281 11.8408L176.672 11.3464Z" fill="white"/>
<path opacity="0.3" d="M176.672 11.3464L174.281 11.8407L174.069 8.80298L176.672 11.3464Z" fill="white"/>
<path opacity="0.1" d="M181.529 9.55396L180.922 11.8294L179.241 10.169L181.529 9.55396Z" fill="white"/>
<path opacity="0.3" d="M183.726 10.6333L182.762 14.2559L180.922 11.8295L183.726 10.6333Z" fill="white"/>
<path opacity="0.65" d="M183.726 10.6332L180.922 11.8294L181.529 9.55396L183.726 10.6332Z" fill="white"/>
<path opacity="0.6" d="M182.762 14.2558L180.998 14.7388L180.922 11.8293L182.762 14.2558Z" fill="white"/>
<path opacity="0.8" d="M180.922 11.8295L180.998 14.739L179.199 11.7654L180.922 11.8295Z" fill="white"/>
<path opacity="0.45" d="M180.922 11.8296L179.199 11.7654L179.241 10.1692L180.922 11.8296Z" fill="white"/>
<path opacity="0.8" d="M185.49 10.5994L185.524 12.6258L183.726 10.6333L185.49 10.5994Z" fill="white"/>
<path opacity="0.3" d="M186.564 14.5314L184.276 15.1503L185.524 12.6257L186.564 14.5314Z" fill="white"/>
<path opacity="0.1" d="M185.524 12.6257L184.276 15.1503L182.762 14.2559L185.524 12.6257Z" fill="white"/>
<path opacity="0.75" d="M185.524 12.6258L182.762 14.2559L183.726 10.6333L185.524 12.6258Z" fill="white"/>
<path opacity="0.75" d="M169.792 10.5352L170.1 12.6295L167.41 9.79932L169.792 10.5352Z" fill="white"/>
<path opacity="0.3" d="M172.388 12.0144L172.509 14.6597L170.1 12.6295L172.388 12.0144Z" fill="white"/>
<path opacity="0.6" d="M172.388 12.0144L170.1 12.6295L169.792 10.5352L172.388 12.0144Z" fill="white"/>
<path opacity="0.1" d="M172.509 14.6596L168.745 14.8747L170.1 12.6294L172.509 14.6596Z" fill="white"/>
<path opacity="0.6" d="M170.1 12.6294L168.745 14.8747L167.816 13.2445L170.1 12.6294Z" fill="white"/>
<path opacity="0.5" d="M170.1 12.6295L167.816 13.2446L167.41 9.79932L170.1 12.6295Z" fill="white"/>
<path opacity="0.1" d="M174.281 11.8408L174.065 13.6748L172.388 12.0144L174.281 11.8408Z" fill="white"/>
<path opacity="0.45" d="M176.239 13.4822L175.932 16.1426L174.065 13.6746L176.239 13.4822Z" fill="white"/>
<path opacity="0.2" d="M176.239 13.4823L174.065 13.6748L174.281 11.8408L176.239 13.4823Z" fill="white"/>
<path opacity="0.5" d="M175.932 16.1427L173.458 15.9503L174.065 13.6748L175.932 16.1427Z" fill="white"/>
<path opacity="0.6" d="M174.065 13.6748L173.458 15.9503L172.509 14.6597L174.065 13.6748Z" fill="white"/>
<path opacity="0.5" d="M174.065 13.6748L172.509 14.6597L172.388 12.0144L174.065 13.6748Z" fill="white"/>
<path opacity="0.1" d="M179.199 11.7654L178.425 14.6635L176.239 13.4824L179.199 11.7654Z" fill="white"/>
<path opacity="0.75" d="M180.998 14.7388L179.707 16.3765L178.425 14.6633L180.998 14.7388Z" fill="white"/>
<path d="M180.998 14.739L178.425 14.6635L179.199 11.7654L180.998 14.739Z" fill="white"/>
<path opacity="0.6" d="M179.707 16.3765L177.419 16.9954L178.425 14.6633L179.707 16.3765Z" fill="white"/>
<path opacity="0.75" d="M178.425 14.6633L177.419 16.9954L175.932 16.1426L178.425 14.6633Z" fill="white"/>
<path opacity="0.3" d="M178.425 14.6633L175.932 16.1426L176.239 13.4822L178.425 14.6633Z" fill="white"/>
<path opacity="0.8" d="M182.762 14.2559L181.992 15.7653L180.998 14.7389L182.762 14.2559Z" fill="white"/>
<path d="M184.276 15.1501L184.401 16.8445L181.992 15.7652L184.276 15.1501Z" fill="white"/>
<path opacity="0.5" d="M184.276 15.1502L181.992 15.7653L182.762 14.2559L184.276 15.1502Z" fill="white"/>
<path opacity="0.3" d="M184.401 16.8446L182.197 18.1616L181.992 15.7654L184.401 16.8446Z" fill="white"/>
<path opacity="0.8" d="M181.992 15.7654L182.197 18.1616L179.707 16.3767L181.992 15.7654Z" fill="white"/>
<path opacity="0.1" d="M181.992 15.7652L179.707 16.3765L180.998 14.7388L181.992 15.7652Z" fill="white"/>
<path opacity="0.75" d="M186.564 14.5312L185.957 16.8105L184.276 15.1501L186.564 14.5312Z" fill="white"/>
<path opacity="0.75" d="M185.957 16.8105L185.35 19.086L184.401 16.8445L185.957 16.8105Z" fill="white"/>
<path opacity="0.8" d="M185.957 16.8105L184.401 16.8445L184.276 15.1501L185.957 16.8105Z" fill="white"/>
<path opacity="0.8" d="M168.745 14.8748L168.889 17.1804L167.208 15.52L168.745 14.8748Z" fill="white"/>
<path opacity="0.1" d="M168.745 14.8748L167.208 15.5201L167.816 13.2446L168.745 14.8748Z" fill="white"/>
<path d="M168.889 17.1804L166.601 17.7955L167.208 15.52L168.889 17.1804Z" fill="white"/>
<path opacity="0.2" d="M172.509 14.6597L171.174 16.5653L168.745 14.8748L172.509 14.6597Z" fill="white"/>
<path opacity="0.8" d="M173.458 15.9502L172.855 18.2257L171.174 16.5653L173.458 15.9502Z" fill="white"/>
<path opacity="0.1" d="M173.458 15.9502L171.174 16.5653L172.509 14.6597L173.458 15.9502Z" fill="white"/>
<path d="M172.855 18.2256L170.567 18.8407L171.174 16.5652L172.855 18.2256Z" fill="white"/>
<path d="M171.174 16.5652L170.567 18.8407L168.889 17.1803L171.174 16.5652Z" fill="white"/>
<path opacity="0.8" d="M171.174 16.5653L168.889 17.1804L168.745 14.8748L171.174 16.5653Z" fill="white"/>
<path opacity="0.6" d="M175.928 16.1426L175.135 17.6106L173.458 15.9502L175.928 16.1426Z" fill="white"/>
<path opacity="0.6" d="M177.423 16.9956L176.816 19.2711L175.135 17.6107L177.423 16.9956Z" fill="white"/>
<path opacity="0.1" d="M177.423 16.9954L175.135 17.6105L175.928 16.1426L177.423 16.9954Z" fill="white"/>
<path d="M176.816 19.271L174.528 19.8861L175.135 17.6106L176.816 19.271Z" fill="white"/>
<path d="M175.135 17.6106L174.528 19.8861L172.855 18.2257L175.135 17.6106Z" fill="white"/>
<path opacity="0.5" d="M175.135 17.6106L172.855 18.2257L173.458 15.9502L175.135 17.6106Z" fill="white"/>
<path opacity="0.3" d="M179.707 16.3767L179.855 18.1692L177.423 16.9956L179.707 16.3767Z" fill="white"/>
<path opacity="0.1" d="M182.197 18.1616L180.781 20.3126L179.855 18.1692L182.197 18.1616Z" fill="white"/>
<path opacity="0.75" d="M182.197 18.1616L179.855 18.1692L179.707 16.3767L182.197 18.1616Z" fill="white"/>
<path d="M180.781 20.3126L178.493 20.9315L179.855 18.1692L180.781 20.3126Z" fill="white"/>
<path d="M179.855 18.1692L178.493 20.9315L176.816 19.2711L179.855 18.1692Z" fill="white"/>
<path d="M179.855 18.1692L176.816 19.2711L177.423 16.9956L179.855 18.1692Z" fill="white"/>
<path opacity="0.8" d="M184.397 16.8445L183.065 19.7011L182.197 18.1615L184.397 16.8445Z" fill="white"/>
<path opacity="0.65" d="M185.35 19.0859L184.743 21.3614L183.066 19.701L185.35 19.0859Z" fill="white"/>
<path opacity="0.5" d="M185.35 19.086L183.066 19.7011L184.397 16.8445L185.35 19.086Z" fill="white"/>
<path d="M184.743 21.3615L182.455 21.9729L183.065 19.7012L184.743 21.3615Z" fill="white"/>
<path d="M183.066 19.7012L182.455 21.9729L180.781 20.3125L183.066 19.7012Z" fill="white"/>
<path opacity="0.8" d="M183.066 19.7012L180.781 20.3126L182.197 18.1616L183.066 19.7012Z" fill="white"/>
</g>
</g>
</g>
</g>
</g>
</g>
<defs>
<linearGradient id="paint0_linear_35_214" x1="196.333" y1="20.4634" x2="25.988" y2="20.4634" gradientUnits="userSpaceOnUse">
<stop stop-color="#3C4C9B"/>
<stop offset="0.0832" stop-color="#3A4999"/>
<stop offset="0.4042" stop-color="#323E91"/>
<stop offset="0.7145" stop-color="#2A3887"/>
<stop offset="1" stop-color="#293682"/>
</linearGradient>
<linearGradient id="paint1_linear_35_214" x1="151.902" y1="10.6418" x2="183.472" y2="21.5849" gradientUnits="userSpaceOnUse">
<stop offset="0.00558659" stop-color="#64C5E0"/>
<stop offset="1" stop-color="#12A480"/>
</linearGradient>
<linearGradient id="paint2_linear_35_214" x1="183.199" y1="27.7369" x2="151.592" y2="27.3421" gradientUnits="userSpaceOnUse">
<stop offset="0.00558659" stop-color="#64C5E0"/>
<stop offset="1" stop-color="#28718D"/>
</linearGradient>
<clipPath id="clip0_35_214">
<rect width="192" height="40" fill="white" transform="translate(0.415039 0.463379)"/>
</clipPath>
</defs>
</svg>
