<svg width="37" height="39" viewBox="0 0 37 39" fill="none" xmlns="http://www.w3.org/2000/svg">
<g opacity="0.25">
<path fill-rule="evenodd" clip-rule="evenodd" d="M4.65132 4.51561C4.70476 4.49969 4.75779 4.48416 4.81021 4.46908C6.96862 3.85265 9.84953 3.78685 12.5919 3.75393C12.9011 3.74996 13.2184 3.75266 13.5422 3.75792L13.5428 3.76483C17.0534 3.83715 21.2583 4.46929 22.6605 5.19637C23.8739 5.82517 24.0049 6.44283 25.2469 8.77483C27.4674 13.1652 28.3764 17.2482 28.7529 22.0723C28.8055 22.7648 28.8627 23.0813 28.235 23.0326C27.5967 22.9327 26.9413 22.4546 26.218 22.1412C26.0273 22.0582 26.0648 22.1498 26.161 22.2414C26.8258 22.8782 27.8128 23.7006 28.5833 24.0433C30.0675 24.7048 31.7649 24.8909 33.4431 24.9274C33.554 23.4273 33.6011 21.783 33.6011 19.984L33.599 19.7049L33.6011 19.4257C33.6011 5.1836 30.6086 0.62738 17.2301 0.62738C10.8294 0.62738 6.80641 1.67096 4.35118 4.31817C4.23948 4.43825 4.17387 4.5112 4.06887 4.63822C4.01647 4.70068 4.01668 4.73066 4.09296 4.70236C4.30005 4.62584 4.45348 4.57555 4.65132 4.51561Z" fill="#5F6163"/>
<path fill-rule="evenodd" clip-rule="evenodd" d="M36.1464 24.9207C36.1359 24.9379 36.1221 24.9496 36.1031 24.9647C36.037 25.0167 35.9289 25.0599 35.8535 25.0867C32.1068 26.4231 26.4234 25.9129 23.5348 23.3441C23.1919 23.0396 23.0938 22.7371 23.452 22.3479C23.9028 21.8568 24.2459 21.6718 23.6593 21.7638C23.1064 21.86 22.4941 22.3007 22.2286 22.381C21.4738 22.6097 21.0085 22.5642 20.6792 21.7866C20.3927 21.1081 19.8555 20.6257 19.2772 20.191C18.6327 19.7066 17.6053 19.3894 16.9499 18.82C15.8713 17.8814 16.1836 16.5329 17.4439 15.8866C18.2898 15.4526 19.3694 15.304 20.3481 15.4767C21.8557 15.7429 22.1011 16.2189 22.8045 17.3582C23.2357 18.0568 23.6633 18.6523 24.0707 18.3412C24.6788 17.8772 23.4878 16.6381 24.2061 14.8659C24.7091 13.627 24.3036 12.9154 22.622 12.8892C21.5792 12.8729 20.9016 13.2355 19.953 13.5199C18.717 14.0146 17.6755 14.0053 16.4494 13.5027C14.6952 12.7836 14.6736 10.9567 15.7724 9.99804C16.7627 9.09593 15.9293 7.74088 13.7097 7.16303C12.3048 6.79749 9.01454 6.12951 7.23756 6.3494C6.7599 6.40849 6.50231 6.67383 7.11559 6.89099C7.75926 7.1186 9.17761 7.30808 10.4834 7.86854C11.9923 8.51597 12.7108 9.34703 13.1907 11.9309C13.4953 13.5719 14.2171 15.2334 14.1593 17.3905C14.1486 17.7948 13.1973 22.0595 13.0583 22.5887C12.6777 24.036 11.0975 24.0339 9.89399 23.5059C8.23755 22.7792 4.89469 20.8375 3.27054 19.8149C2.79349 19.5146 2.39044 19.2241 2.03685 18.9252C1.63966 18.5902 1.34769 18.2979 1.03854 17.9158C0.90167 17.746 0.873376 17.7888 0.869603 18.0155C0.863525 18.3788 0.861217 18.6242 0.85933 19.0013C0.858911 19.1419 0.858704 19.2834 0.858704 19.4257C0.859332 19.5188 0.85996 19.6118 0.860589 19.7049C0.85996 19.798 0.859332 19.891 0.858704 19.9841C0.858704 34.2263 3.85132 38.7824 17.2301 38.7824C28.3637 38.7824 32.3036 35.6263 33.313 26.3594C34.0701 26.1294 35.2899 25.6558 35.8399 25.2978C35.9673 25.2146 36.0956 25.1016 36.1482 25.0152C36.1725 24.9754 36.1728 24.9375 36.1656 24.9182C36.1563 24.9033 36.1524 24.9098 36.1464 24.9207ZM28.1304 29.7242C28.013 30.6693 27.7286 31.5387 27.3178 32.3087C25.7936 35.1688 22.5203 36.4676 19.3915 36.2311C17.6091 36.0959 15.9157 35.3911 14.6269 34.0082C13.4301 32.4796 12.9449 30.6595 13.5291 28.8504C14.2239 26.6738 16.6701 25.4638 19.128 26.5002C20.0626 26.8947 20.7515 27.6668 21.2125 28.5323C21.3673 28.8236 21.5514 29.1434 21.0381 29.2063C20.688 29.2493 20.3632 29.1412 20.1337 29.2713C19.9389 29.3814 19.7755 29.7488 19.5017 29.9647C19.3001 30.1235 19.1926 30.0663 19.1202 29.9334C18.936 29.5933 18.9775 29.2505 18.6273 28.797C17.7281 27.6327 15.4248 28.7595 16.3628 31.0697C17.3198 33.4269 21.3434 33.5353 22.6 31.7381C23.3283 30.6968 23.591 29.2038 23.3985 27.5681C23.3277 26.9655 22.9584 25.7574 23.3992 25.3135C24.0141 24.6937 25.7915 26.067 26.8036 27.0028C27.9122 28.0284 28.2174 28.1732 28.1304 29.7242Z" fill="#5F6163"/>
</g>
</svg>
