<svg viewBox="0 0 112 31" fill="none" xmlns="http://www.w3.org/2000/svg">
	<path d="M3.655 24.9581C4.53836 24.9581 5.35014 24.9533 6.16191 24.9625C6.33579 24.9625 6.4343 24.9188 6.52312 24.7595C7.0399 23.8288 7.57067 22.9061 8.09553 21.9802C8.23603 21.732 8.23441 21.7293 7.94749 21.7288C5.89653 21.7288 3.84502 21.724 1.79405 21.7347C1.55773 21.7347 1.44792 21.6583 1.35102 21.45C0.647161 19.9337 0.192721 18.3137 0.00524249 16.6525C-0.0200582 16.434 0.0434626 16.3834 0.256096 16.3871C2.53315 16.3979 4.81021 16.3818 7.08673 16.4065C8.41475 16.4211 9.74222 16.4065 11.0702 16.4232C11.1601 16.4232 11.2409 16.441 11.2996 16.3355C11.8804 15.2981 12.4655 14.264 13.0534 13.2219C12.9333 13.1562 12.8246 13.1858 12.7223 13.1853C8.60208 13.1835 4.48184 13.1835 0.361605 13.1853C0.0230068 13.1853 0.0300049 13.1853 0.0784529 12.8623C0.327039 11.1813 0.854667 9.55366 1.63956 8.04654C1.72461 7.88505 1.81935 7.82045 2.00938 7.82099C3.7352 7.82637 5.46103 7.82099 7.18632 7.81722C8.84863 7.81345 10.5115 7.82422 12.1732 7.79676C13.42 7.77631 14.6662 7.79676 15.9129 7.77631C16.0782 7.77631 16.167 7.82206 16.2493 7.96848C17.4953 10.1863 18.7467 12.4009 20.0035 14.6123C20.1026 14.7867 20.0875 14.9084 19.9938 15.0742C18.1891 18.2718 16.388 21.4715 14.5908 24.6734C14.5472 24.7504 14.5079 24.83 14.4681 24.9054C14.531 24.9899 14.6091 24.9549 14.6737 24.9549C15.7503 24.9549 16.8243 24.9517 17.8993 24.9619C18.0817 24.9619 18.1684 24.8989 18.2497 24.7466C19.4451 22.5632 20.6448 20.382 21.8489 18.2029C21.8957 18.1178 21.9452 18.0338 21.9942 17.9488C22.1019 17.9746 22.118 18.0645 22.1557 18.128C23.4857 20.3602 24.8158 22.5924 26.1462 24.8246C26.228 24.9614 26.2092 25.0303 26.1101 25.1374C23.6877 27.7541 20.7324 29.4003 17.1946 29.8923C12.2556 30.5792 7.9771 29.15 4.37041 25.7096C4.13409 25.4878 3.92254 25.2424 3.655 24.9581Z" fill="#04AF76" />
	<path d="M4.13257 4.5967C5.2828 3.40583 6.62025 2.41134 8.09185 1.65267C10.2246 0.557208 12.4936 -0.00640484 14.8891 5.49056e-05C19.1536 0.0118978 22.7824 1.56116 25.7899 4.58324C25.9514 4.74474 25.96 4.86316 25.8491 5.06126C24.6649 7.17862 23.4863 9.29921 22.3135 11.423C22.2597 11.5172 22.2058 11.6087 22.152 11.7035C22.0255 11.6615 22.004 11.542 21.9518 11.4548C20.6702 9.26745 19.3923 7.07832 18.1179 4.88739C17.9833 4.65914 17.8434 4.58916 17.5855 4.58916C13.2309 4.59778 8.87617 4.59975 4.52123 4.59508L4.13257 4.5967Z" fill="#04AF76" />
	<path d="M28.0483 7.63947C30.7937 12.3599 30.4406 18.2749 28.1748 22.1604L27.4298 20.8685C26.3083 18.9227 25.1856 16.9774 24.0616 15.0326C23.9647 14.8658 23.9539 14.7468 24.0557 14.5708C25.3426 12.3457 26.6234 10.118 27.8981 7.88763C27.9423 7.81226 27.9896 7.7369 28.0483 7.63947Z" fill="#04AF76" />
	<path d="M48.5153 6.16292V3.57808H37.9969V17.4965H41.2181V12.4262H47.6603V9.84136H41.2181V6.16292H48.5153ZM58.2947 17.7351C62.669 17.7351 65.91 14.6929 65.91 10.5373C65.91 6.38164 62.669 3.33948 58.2947 3.33948C53.9004 3.33948 50.6793 6.40153 50.6793 10.5373C50.6793 14.673 53.9004 17.7351 58.2947 17.7351ZM58.2947 14.9912C55.8092 14.9912 53.9402 13.1818 53.9402 10.5373C53.9402 7.89278 55.8092 6.08339 58.2947 6.08339C60.7801 6.08339 62.6491 7.89278 62.6491 10.5373C62.6491 13.1818 60.7801 14.9912 58.2947 14.9912ZM81.6528 17.4965L78.5311 13.0227C80.3405 12.2473 81.3943 10.7162 81.3943 8.62847C81.3943 5.50677 79.0679 3.57808 75.3497 3.57808H69.325V17.4965H72.5462V13.6192H75.3497H75.5088L78.193 17.4965H81.6528ZM78.1334 8.62847C78.1334 10.1396 77.1392 11.0542 75.1708 11.0542H72.5462V6.20269H75.1708C77.1392 6.20269 78.1334 7.09745 78.1334 8.62847ZM88.1417 14.9116V11.6905H94.6038V9.1852H88.1417V6.16292H95.4588V3.57808H84.9404V17.4965H95.7172V14.9116H88.1417ZM111.625 17.4965L106.436 10.2987L111.287 3.57808H107.808L104.666 8.09162L101.465 3.57808H97.8063L102.698 10.418L97.5478 17.4965H101.246L104.547 12.6648L107.907 17.4965H111.625Z" fill="white" />
	<path d="M48.5153 6.16292V3.57808H37.9969V17.4965H41.2181V12.4262H47.6603V9.84136H41.2181V6.16292H48.5153ZM58.2947 17.7351C62.669 17.7351 65.91 14.6929 65.91 10.5373C65.91 6.38164 62.669 3.33948 58.2947 3.33948C53.9004 3.33948 50.6793 6.40153 50.6793 10.5373C50.6793 14.673 53.9004 17.7351 58.2947 17.7351ZM58.2947 14.9912C55.8092 14.9912 53.9402 13.1818 53.9402 10.5373C53.9402 7.89278 55.8092 6.08339 58.2947 6.08339C60.7801 6.08339 62.6491 7.89278 62.6491 10.5373C62.6491 13.1818 60.7801 14.9912 58.2947 14.9912ZM81.6528 17.4965L78.5311 13.0227C80.3405 12.2473 81.3943 10.7162 81.3943 8.62847C81.3943 5.50677 79.0679 3.57808 75.3497 3.57808H69.325V17.4965H72.5462V13.6192H75.3497H75.5088L78.193 17.4965H81.6528ZM78.1334 8.62847C78.1334 10.1396 77.1392 11.0542 75.1708 11.0542H72.5462V6.20269H75.1708C77.1392 6.20269 78.1334 7.09745 78.1334 8.62847ZM88.1417 14.9116V11.6905H94.6038V9.1852H88.1417V6.16292H95.4588V3.57808H84.9404V17.4965H95.7172V14.9116H88.1417ZM111.625 17.4965L106.436 10.2987L111.287 3.57808H107.808L104.666 8.09162L101.465 3.57808H97.8063L102.698 10.418L97.5478 17.4965H101.246L104.547 12.6648L107.907 17.4965H111.625Z" fill="white" />
	<path d="M48.5153 6.16292V3.57808H37.9969V17.4965H41.2181V12.4262H47.6603V9.84136H41.2181V6.16292H48.5153ZM58.2947 17.7351C62.669 17.7351 65.91 14.6929 65.91 10.5373C65.91 6.38164 62.669 3.33948 58.2947 3.33948C53.9004 3.33948 50.6793 6.40153 50.6793 10.5373C50.6793 14.673 53.9004 17.7351 58.2947 17.7351ZM58.2947 14.9912C55.8092 14.9912 53.9402 13.1818 53.9402 10.5373C53.9402 7.89278 55.8092 6.08339 58.2947 6.08339C60.7801 6.08339 62.6491 7.89278 62.6491 10.5373C62.6491 13.1818 60.7801 14.9912 58.2947 14.9912ZM81.6528 17.4965L78.5311 13.0227C80.3405 12.2473 81.3943 10.7162 81.3943 8.62847C81.3943 5.50677 79.0679 3.57808 75.3497 3.57808H69.325V17.4965H72.5462V13.6192H75.3497H75.5088L78.193 17.4965H81.6528ZM78.1334 8.62847C78.1334 10.1396 77.1392 11.0542 75.1708 11.0542H72.5462V6.20269H75.1708C77.1392 6.20269 78.1334 7.09745 78.1334 8.62847ZM88.1417 14.9116V11.6905H94.6038V9.1852H88.1417V6.16292H95.4588V3.57808H84.9404V17.4965H95.7172V14.9116H88.1417ZM111.625 17.4965L106.436 10.2987L111.287 3.57808H107.808L104.666 8.09162L101.465 3.57808H97.8063L102.698 10.418L97.5478 17.4965H101.246L104.547 12.6648L107.907 17.4965H111.625Z" fill="#292929" />
	<path d="M41.0127 28.1002C41.9051 28.1002 42.6747 27.7891 43.1987 27.1996L42.6665 26.6838C42.2244 27.1505 41.6841 27.3715 41.0536 27.3715C39.76 27.3715 38.8021 26.4382 38.8021 25.1691C38.8021 23.9001 39.76 22.9668 41.0536 22.9668C41.6841 22.9668 42.2244 23.1796 42.6665 23.6463L43.1987 23.1305C42.6747 22.541 41.9051 22.2381 41.0209 22.2381C39.277 22.2381 37.9834 23.4744 37.9834 25.1691C37.9834 26.8639 39.277 28.1002 41.0127 28.1002ZM47.5357 28.1002C49.0504 28.1002 49.9592 27.2242 49.9592 25.5621V22.3036H49.165V25.5294C49.165 26.7984 48.5755 27.3715 47.5439 27.3715C46.5123 27.3715 45.931 26.7984 45.931 25.5294V22.3036H45.1123V25.5621C45.1123 27.2242 46.0293 28.1002 47.5357 28.1002ZM57.1805 28.0347L55.8214 26.1107C56.6238 25.8241 57.0822 25.1855 57.0822 24.3013C57.0822 23.0568 56.1816 22.3036 54.6916 22.3036H52.4564V28.0347H53.2752V26.2908H54.6916C54.8144 26.2908 54.9372 26.2826 55.0518 26.2744L56.2881 28.0347H57.1805ZM54.667 25.5949H53.2752V23.0159H54.667C55.715 23.0159 56.2635 23.4826 56.2635 24.3013C56.2635 25.12 55.715 25.5949 54.667 25.5949ZM63.9478 28.0347L62.5887 26.1107C63.391 25.8241 63.8495 25.1855 63.8495 24.3013C63.8495 23.0568 62.9489 22.3036 61.4588 22.3036H59.2237V28.0347H60.0424V26.2908H61.4588C61.5816 26.2908 61.7044 26.2826 61.8191 26.2744L63.0553 28.0347H63.9478ZM61.4343 25.5949H60.0424V23.0159H61.4343C62.4822 23.0159 63.0308 23.4826 63.0308 24.3013C63.0308 25.12 62.4822 25.5949 61.4343 25.5949ZM66.8098 27.3224V25.4721H69.6835V24.7762H66.8098V23.0159H70.0356V22.3036H65.9911V28.0347H70.1502V27.3224H66.8098ZM76.4046 22.3036V26.5774L72.966 22.3036H72.2946V28.0347H73.1133V23.7609L76.552 28.0347H77.2233V22.3036H76.4046ZM82.3202 28.1002C83.2126 28.1002 83.9822 27.7891 84.5062 27.1996L83.974 26.6838C83.5319 27.1505 82.9915 27.3715 82.3611 27.3715C81.0675 27.3715 80.1096 26.4382 80.1096 25.1691C80.1096 23.9001 81.0675 22.9668 82.3611 22.9668C82.9915 22.9668 83.5319 23.1796 83.974 23.6463L84.5062 23.1305C83.9822 22.541 83.2126 22.2381 82.3284 22.2381C80.5845 22.2381 79.2909 23.4744 79.2909 25.1691C79.2909 26.8639 80.5845 28.1002 82.3202 28.1002ZM86.4929 28.0347H87.3116V22.3036H86.4929V28.0347ZM90.6649 27.3224V25.4721H93.5386V24.7762H90.6649V23.0159H93.8907V22.3036H89.8462V28.0347H94.0053V27.3224H90.6649ZM97.8199 28.1002C99.3345 28.1002 100.039 27.347 100.039 26.4709C100.039 24.3668 96.5672 25.2428 96.5672 23.8428C96.5672 23.3434 96.9848 22.934 97.9591 22.934C98.4667 22.934 99.0316 23.0814 99.531 23.4007L99.8012 22.7457C99.3263 22.4182 98.6304 22.2381 97.9591 22.2381C96.4526 22.2381 95.7649 22.9913 95.7649 23.8756C95.7649 26.0043 99.2363 25.12 99.2363 26.5201C99.2363 27.0195 98.8105 27.4043 97.8199 27.4043C97.083 27.4043 96.3544 27.1259 95.9286 26.7411L95.6257 27.3797C96.0842 27.8055 96.9438 28.1002 97.8199 28.1002Z" fill="#292929" />
</svg>
