<svg width="23" height="24" viewBox="0 0 23 24" fill="none" xmlns="http://www.w3.org/2000/svg">
<path d="M11.4998 9.47362V13.9273H17.6889C17.4171 15.3595 16.6016 16.5723 15.3784 17.3877L19.1107 20.2837C21.2852 18.2765 22.5398 15.3283 22.5398 11.826C22.5398 11.0106 22.4666 10.2264 22.3306 9.47374L11.4998 9.47362Z" fill="#4285F4"/>
<path d="M5.05491 13.7534L4.21315 14.3978L1.23355 16.7187C3.12582 20.4718 7.00417 23.0646 11.4996 23.0646C14.6045 23.0646 17.2077 22.04 19.1104 20.2837L15.3782 17.3878C14.3536 18.0778 13.0468 18.496 11.4996 18.496C8.5096 18.496 5.96922 16.4783 5.05961 13.7601L5.05491 13.7534Z" fill="#34A853"/>
<path d="M1.23355 6.41049C0.449499 7.9577 0 9.70363 0 11.5645C0 13.4254 0.449499 15.1713 1.23355 16.7185C1.23355 16.7289 5.05998 13.7494 5.05998 13.7494C4.82998 13.0594 4.69403 12.3277 4.69403 11.5644C4.69403 10.8011 4.82998 10.0693 5.05998 9.37934L1.23355 6.41049Z" fill="#FBBC05"/>
<path d="M11.4998 4.64366C13.1935 4.64366 14.6989 5.2291 15.9012 6.35821L19.1943 3.06507C17.1975 1.20419 14.6049 0.0645752 11.4998 0.0645752C7.00441 0.0645752 3.12582 2.64684 1.23355 6.41049L5.05986 9.37959C5.96935 6.66138 8.50984 4.64366 11.4998 4.64366Z" fill="#EA4335"/>
</svg>
