<svg width="23" height="23" viewBox="0 0 23 23" fill="none" xmlns="http://www.w3.org/2000/svg">
<path d="M11.4998 9.40906V13.8627H17.6888C17.4171 15.295 16.6015 16.5077 15.3783 17.3232L19.1106 20.2191C21.2851 18.2119 22.5397 15.2637 22.5397 11.7614C22.5397 10.946 22.4665 10.1618 22.3306 9.40918L11.4998 9.40906Z" fill="#4285F4"/>
<path d="M5.055 13.6888L4.21324 14.3332L1.23364 16.6541C3.12591 20.4072 7.00426 23 11.4997 23C14.6046 23 17.2077 21.9754 19.1105 20.2191L15.3783 17.3232C14.3537 18.0132 13.0469 18.4314 11.4997 18.4314C8.5097 18.4314 5.96932 16.4137 5.0597 13.6955L5.055 13.6888Z" fill="#34A853"/>
<path d="M1.23355 6.34595C0.449499 7.89316 0 9.63909 0 11.5C0 13.3608 0.449499 15.1068 1.23355 16.654C1.23355 16.6644 5.05998 13.6849 5.05998 13.6849C4.82998 12.9949 4.69403 12.2631 4.69403 11.4998C4.69403 10.7366 4.82998 10.0048 5.05998 9.3148L1.23355 6.34595Z" fill="#FBBC05"/>
<path d="M11.4999 4.57909C13.1936 4.57909 14.699 5.16453 15.9013 6.29363L19.1944 3.00049C17.1976 1.13962 14.605 0 11.4999 0C7.0045 0 3.12591 2.58227 1.23364 6.34592L5.05995 9.31501C5.96945 6.5968 8.50993 4.57909 11.4999 4.57909Z" fill="#EA4335"/>
</svg>
