<svg width="23" height="24" viewBox="0 0 23 24" fill="none" xmlns="http://www.w3.org/2000/svg">
<path d="M11.4998 10.0676V14.5213H17.6889C17.4171 15.9535 16.6016 17.1663 15.3784 17.9817L19.1107 20.8777C21.2852 18.8705 22.5398 15.9223 22.5398 12.42C22.5398 11.6046 22.4666 10.8204 22.3306 10.0677L11.4998 10.0676Z" fill="#4285F4"/>
<path d="M5.05491 14.3474L4.21315 14.9918L1.23355 17.3127C3.12582 21.0658 7.00417 23.6586 11.4996 23.6586C14.6045 23.6586 17.2077 22.634 19.1104 20.8777L15.3782 17.9818C14.3536 18.6718 13.0468 19.09 11.4996 19.09C8.5096 19.09 5.96922 17.0723 5.05961 14.3541L5.05491 14.3474Z" fill="#34A853"/>
<path d="M1.23355 7.00449C0.449499 8.5517 0 10.2976 0 12.1585C0 14.0194 0.449499 15.7653 1.23355 17.3125C1.23355 17.3229 5.05998 14.3434 5.05998 14.3434C4.82998 13.6534 4.69403 12.9217 4.69403 12.1584C4.69403 11.3951 4.82998 10.6633 5.05998 9.97334L1.23355 7.00449Z" fill="#FBBC05"/>
<path d="M11.4998 5.23766C13.1935 5.23766 14.6989 5.8231 15.9012 6.9522L19.1943 3.65906C17.1975 1.79819 14.6049 0.658569 11.4998 0.658569C7.0044 0.658569 3.12582 3.24084 1.23355 7.00449L5.05986 9.97358C5.96935 7.25537 8.50984 5.23766 11.4998 5.23766Z" fill="#EA4335"/>
</svg>
