<svg width="28" height="28" viewBox="0 0 28 28" fill="none" xmlns="http://www.w3.org/2000/svg">
<path d="M17.4413 6.05037H15.152C14.9297 6.05037 14.7496 6.23054 14.7496 6.45279V8.38078C14.7496 8.60302 14.9297 8.7832 15.152 8.7832C15.3743 8.7832 15.5544 8.60302 15.5544 8.38078V6.85521H17.5408C17.8248 6.85521 18.0817 6.69827 18.2114 6.44565C18.3411 6.19304 18.3188 5.89278 18.1533 5.66205L14.3156 0.314266C14.1744 0.117454 13.9455 0 13.7033 0C13.461 0 13.2321 0.117454 13.0909 0.314266L9.25325 5.662C9.08772 5.89272 9.06539 6.19298 9.19508 6.4456C9.32477 6.69821 9.58173 6.85516 9.86568 6.85516H11.8521V14.2792C10.499 12.3721 8.80849 10.6924 6.89359 9.36226L7.96136 7.68335C8.1138 7.44377 8.11927 7.1427 7.97574 6.89771C7.8321 6.65266 7.56645 6.51015 7.28325 6.52624L0.711392 6.89449C0.469562 6.90801 0.247531 7.03813 0.117575 7.24245C-0.0124345 7.44683 -0.0361506 7.70304 0.054046 7.92792L0.873435 9.96826C0.956281 10.1746 1.19076 10.2745 1.39685 10.1917C1.60311 10.1089 1.70313 9.87457 1.62033 9.66837L0.827451 7.69408L7.22889 7.33539L6.00509 9.25962C5.88753 9.44441 5.93936 9.6893 6.12174 9.81067C8.41717 11.3377 10.3963 13.3834 11.8522 15.7313V20.7095C11.5213 19.6626 11.0913 18.6464 10.5655 17.6788C9.24064 15.2399 7.32075 13.1332 5.01352 11.5865C4.92348 11.5261 4.81274 11.5047 4.70682 11.5269C4.60069 11.5492 4.50808 11.6133 4.44991 11.7047L3.21672 13.6437L2.28407 11.3213C2.20122 11.115 1.9669 11.015 1.76065 11.0978C1.55439 11.1806 1.45437 11.4149 1.53717 11.6212L2.5069 14.036C2.61277 14.2995 2.85417 14.4795 3.13688 14.5057C3.41922 14.5316 3.68997 14.3993 3.84236 14.1596L4.90497 12.489C6.95342 13.9389 8.66077 15.8587 9.85828 18.0629C11.1626 20.464 11.852 23.1773 11.852 25.9096V27.0975C11.852 27.3197 12.0322 27.4999 12.2545 27.4999C12.4768 27.4999 12.6569 27.3197 12.6569 27.0975V6.45279C12.6569 6.23054 12.4768 6.05037 12.2545 6.05037H9.96511L13.7032 0.841388L17.4413 6.05037Z" fill="#100F0D"/>
<path d="M27.3426 7.24256C27.2126 7.03818 26.9906 6.90812 26.7488 6.8946L20.1769 6.52636C19.8937 6.51021 19.628 6.65282 19.4844 6.89782C19.3409 7.14282 19.3464 7.44388 19.4988 7.68346L20.5502 9.33667C18.6196 10.6712 16.9163 12.3597 15.5545 14.2793V10.0958C15.5545 9.87356 15.3744 9.69338 15.1521 9.69338C14.9298 9.69338 14.7496 9.87356 14.7496 10.0958V27.0976C14.7496 27.3198 14.9298 27.5 15.1521 27.5C15.3744 27.5 15.5545 27.3198 15.5545 27.0976V25.9097C15.5545 23.1774 16.244 20.464 17.5483 18.063C17.6126 17.9446 17.682 17.8212 17.7603 17.6857C17.8715 17.4933 17.8057 17.2471 17.6133 17.1359C17.4211 17.0246 17.1749 17.0904 17.0635 17.2828C16.9816 17.4245 16.9088 17.5541 16.8411 17.6788C16.3153 18.6465 15.8853 19.6627 15.5544 20.7096V15.7313C17.0182 13.3706 19.0102 11.3164 21.3218 9.78626C21.5047 9.66516 21.557 9.41984 21.4392 9.23472L20.2313 7.33544L26.6327 7.69414L24.2435 13.6438L22.9944 11.6799C22.9363 11.5885 22.8439 11.5245 22.7381 11.5021C22.6323 11.4797 22.5218 11.5009 22.4317 11.5609C20.7174 12.7035 19.2329 14.1328 18.0195 15.8093C17.8892 15.9893 17.9295 16.2409 18.1096 16.3713C18.1809 16.4229 18.2634 16.4477 18.3452 16.4477C18.4699 16.4477 18.5928 16.3899 18.6715 16.2812C19.7477 14.7944 21.0473 13.5115 22.5387 12.463L23.6178 14.1597C23.7703 14.3994 24.0406 14.5316 24.3233 14.5058C24.6061 14.4796 24.8475 14.2996 24.9533 14.0361L27.4062 7.92797C27.4963 7.70315 27.4726 7.44694 27.3426 7.24256Z" fill="#100F0D"/>
</svg>
