<svg width="23" height="23" viewBox="0 0 23 23" fill="none" xmlns="http://www.w3.org/2000/svg">
<path d="M9.86017 4.18224C9.75482 4.18224 9.6509 4.13389 9.58364 4.04248C9.27172 3.61869 8.7167 3.13253 7.84333 3.2258C6.81511 3.33532 6.05152 3.00809 5.59195 2.71433C5.43235 2.61231 5.38569 2.40024 5.48766 2.24064C5.58964 2.081 5.8018 2.03438 5.96135 2.13636C6.32845 2.37094 6.94034 2.63229 7.7707 2.54368C9.03097 2.40987 9.79362 3.17044 10.1361 3.63592C10.2484 3.78846 10.2157 4.00319 10.0631 4.11547C10.0019 4.16048 9.93076 4.18224 9.86017 4.18224Z" fill="#FFD064"/>
<path d="M6.26923 6.00361C6.20801 6.00361 6.14613 5.98728 6.0901 5.95287C5.92864 5.85378 5.87816 5.6426 5.97725 5.48113C6.41689 4.76492 7.22256 4.27267 8.30721 4.05762C9.09805 3.90087 9.76162 3.94379 9.78941 3.94575C9.9784 3.95871 10.1211 4.12239 10.1081 4.31138C10.0952 4.50024 9.93107 4.64185 9.74288 4.63013C9.71909 4.62854 7.39015 4.49047 6.56184 5.83997C6.49711 5.9455 6.38448 6.00361 6.26923 6.00361Z" fill="#FFD064"/>
<path d="M11.4392 19.1463C17.072 19.1463 20.1867 10.8841 11.2916 4.50267C11.0703 4.34392 10.9389 4.08834 10.9419 3.81602C10.9443 3.59099 11.0156 3.37252 11.1447 3.18815C11.5611 2.59348 12.1605 1.57623 12.52 0.756882C12.606 0.560659 12.4828 0.349607 12.2526 0.349607C11.7183 0.349651 11.7183 0 11.184 0C10.6497 0 10.6497 0.349651 10.1154 0.349651C9.66006 0.349651 9.47324 -0.042086 9.25189 0.242838C8.60631 1.07373 10.8175 3.99564 10.8175 3.99564C1.05187 10.4155 4.20064 19.1464 9.96642 19.1464H11.4392V19.1463Z" fill="#EABC6B"/>
<path d="M13.6535 3.9956C13.6535 3.9956 15.8975 1.08314 15.2522 0.247677C15.0323 -0.0370694 14.8448 0.349651 14.3899 0.349651C13.8556 0.349607 13.8556 0 13.3212 0C12.7869 0 12.7869 0.349607 12.2525 0.349607C12.2262 0.349607 12.2022 0.348142 12.1783 0.346499C11.9637 1.2668 10.9962 2.70052 10.4425 3.46819C10.6605 3.78814 10.8175 3.99555 10.8175 3.99555C10.6873 4.08119 10.5598 4.16732 10.4341 4.25375C19.7645 10.6669 16.6425 19.1463 10.9362 19.1463H14.5392C20.3224 19.1463 23.4517 10.4368 13.6535 3.9956Z" fill="#E8AE4D"/>
<path d="M14.0707 5.03149C12.7668 5.36081 11.4786 5.36081 10.1745 5.03149C9.7206 4.91686 9.46329 4.40646 9.62662 3.94249C9.62844 3.9373 9.63026 3.9321 9.63208 3.92691C9.76903 3.53792 10.1574 3.31964 10.5381 3.41522C11.6058 3.68327 12.6391 3.68336 13.7071 3.41522C14.0877 3.31964 14.4761 3.53792 14.6131 3.92691C14.6149 3.9321 14.6167 3.9373 14.6186 3.94249C14.7819 4.40646 14.5246 4.91686 14.0707 5.03149Z" fill="#FFE07D"/>
<path d="M1.81073 20.6443L6.77652 22.4926C7.19827 22.6496 7.64466 22.73 8.09469 22.73H13.2123C13.9285 22.73 14.6299 22.5265 15.2349 22.1431L21.6427 18.0828C22.0654 17.7074 22.1438 17.0766 21.8257 16.6091C21.4777 16.0977 20.9021 16.0088 20.2686 16.3084L14.03 19.0552L14.0374 18.0431C13.9548 17.2123 13.3151 16.5455 12.4885 16.4286L8.68935 15.9912C7.81296 15.8672 7.37505 15.5735 6.61102 15.1265C5.56797 14.5164 4.38131 14.1948 3.17289 14.1948H1.81073V20.6443Z" fill="#FFDDCE"/>
<path d="M6.47495 21.5078C6.91832 21.6728 7.38762 21.7573 7.86068 21.7573H13.2407C13.8135 21.7573 14.3771 21.6332 14.8941 21.3965L18.656 19.0127C19.0055 18.7912 19.2274 18.4057 19.216 17.9921C19.21 17.7727 19.143 17.5532 19.0116 17.3601C19.0116 17.3601 18.8971 17.1639 18.7794 16.9641L14.03 19.0552L14.0374 18.0431C13.9548 17.2123 13.3151 16.5455 12.4885 16.4286L8.68935 15.9912C7.81296 15.8672 7.37505 15.5735 6.61102 15.1265C5.56797 14.5164 4.38131 14.1948 3.17289 14.1948H1.81073V19.7717L6.47495 21.5078Z" fill="#FFDDCE"/>
<path d="M21.8258 16.6092C21.4777 16.0977 20.9021 16.0089 20.2686 16.3084L18.5526 17.0639C18.6357 17.1955 18.7018 17.3005 18.7018 17.3005C19.0199 17.7679 18.9415 18.3987 18.5188 18.7741L14.785 21.14C14.2933 21.3651 13.7571 21.4832 13.2123 21.4832H8.09475C7.64472 21.4832 7.19833 21.4028 6.77659 21.2459L1.81079 19.3975V20.6443L6.77659 22.4926C7.19833 22.6496 7.64472 22.73 8.09475 22.73H12.2759H13.2124C13.9286 22.73 14.63 22.5265 15.235 22.1432L21.6428 18.0828C22.0654 17.7074 22.1438 17.0765 21.8258 16.6092Z" fill="#FFCBBE"/>
<path d="M13.5716 17.0004L13.5715 17.0248L13.5876 17.0177C13.5823 17.0118 13.5769 17.0062 13.5716 17.0004Z" fill="#F5DBCC"/>
<path d="M14.03 19.0546H10.1509C9.96142 19.0546 9.80786 18.9011 9.80786 18.7116C9.80786 18.5221 9.96138 18.3686 10.1509 18.3686H14.035L14.03 19.0546Z" fill="#FFCBBE"/>
<path d="M2.87925 21.6334C2.87925 21.9937 2.58718 22.2858 2.22687 22.2858H0.652378C0.292072 22.2858 0 21.9937 0 21.6334V13.6452C0 13.2849 0.292072 12.9929 0.652378 12.9929H2.22687C2.58718 12.9929 2.87925 13.2849 2.87925 13.6452V21.6334Z" fill="#407093"/>
<path d="M12.991 10.6292C12.8339 10.5737 12.6894 10.5206 12.556 10.4693V8.28246C12.9617 8.34972 13.2052 8.55957 13.2231 8.57542C13.3624 8.70212 13.578 8.6928 13.7059 8.55416C13.8343 8.41489 13.8256 8.19798 13.6863 8.0695C13.6622 8.04717 13.2421 7.66875 12.556 7.58973V7.10206C12.556 6.91262 12.4024 6.75906 12.213 6.75906C12.0235 6.75906 11.87 6.91258 11.87 7.10206V7.61752C11.7873 7.63337 11.7026 7.65352 11.6155 7.67972C11.0337 7.85494 10.5988 8.35385 10.4805 8.98163C10.3731 9.5513 10.5537 10.0992 10.9519 10.4114C11.1804 10.5907 11.4682 10.7548 11.87 10.9303V13.6429C11.473 13.6262 11.2293 13.5515 10.8032 13.2728C10.6447 13.1691 10.4322 13.2135 10.3285 13.3721C10.2248 13.5306 10.2692 13.7431 10.4277 13.8468C10.9876 14.2131 11.3619 14.3087 11.87 14.3284V14.8729C11.87 15.0623 12.0235 15.2159 12.213 15.2159C12.4024 15.2159 12.556 15.0624 12.556 14.8729V14.3043C13.5188 14.1481 14.0806 13.3687 14.2028 12.6417C14.3556 11.7334 13.8798 10.9435 12.991 10.6292ZM11.3752 9.87165C11.1794 9.71809 11.0949 9.42571 11.1546 9.10864C11.21 8.81462 11.4122 8.45738 11.8134 8.33653C11.8325 8.33076 11.8513 8.32579 11.8701 8.32077V10.1735C11.6647 10.071 11.5036 9.97234 11.3752 9.87165ZM13.5264 12.5279C13.4507 12.978 13.1203 13.4586 12.556 13.6032V11.2017C12.6227 11.2261 12.6909 11.2508 12.7623 11.276C13.6159 11.5777 13.563 12.3105 13.5264 12.5279Z" fill="white"/>
</svg>
