<svg width="174" height="131" viewBox="0 0 174 131" fill="none" xmlns="http://www.w3.org/2000/svg">
<path fill-rule="evenodd" clip-rule="evenodd" d="M36.5393 34.897C41.1272 30.1778 45.9606 30.1498 49.3023 31.9115C57.5157 36.2398 59.1222 49.5355 59.9211 59.0469C60.559 66.6451 61.552 73.2925 62.8005 80.7252C64.1616 88.8282 65.6273 103.585 67.8863 110.387C69.3026 114.658 71.9482 117.081 75.1926 118.602C85.9363 123.645 110.363 127.461 116.579 114.119C111.989 118.841 107.157 118.867 103.814 117.106C95.6008 112.779 93.9937 99.482 93.1949 89.9703C92.557 82.3724 91.5645 75.7249 90.316 68.2905C88.9553 60.1875 87.4882 45.4328 85.2312 38.6287C83.8145 34.3588 81.1685 31.9363 77.9226 30.4135C67.1811 25.3715 42.7535 21.5559 36.5393 34.897Z" fill="url(#paint0_linear_1_148)"/>
<path fill-rule="evenodd" clip-rule="evenodd" d="M19.3717 113.215L17.6552 116.668C16.9071 118.174 17.5419 119.988 19.04 120.75H19.0409C20.54 121.513 22.4002 120.862 23.1483 119.356L24.8648 115.903C25.6129 114.397 24.9788 112.583 23.48 111.821L23.479 111.819C21.9793 111.059 20.1207 111.707 19.3717 113.215ZM8.49025 119.872L5.39899 126.09C4.65041 127.596 5.28549 129.412 6.78381 130.174H6.78474C8.28353 130.934 10.1431 130.286 10.8912 128.78L13.9825 122.561C14.7308 121.056 14.0969 119.241 12.5976 118.48L12.597 118.478C11.0979 117.716 9.23834 118.365 8.49025 119.872ZM4.9902 106.354L0.809178 114.766C0.0610675 116.272 0.695212 118.087 2.19423 118.85H2.19516C3.69395 119.611 5.55351 118.963 6.30161 117.456L10.4838 109.044C11.231 107.538 10.5978 105.722 9.09851 104.96H9.09739C7.59811 104.199 5.73948 104.848 4.9902 106.354ZM59.6438 56.0138C53.5412 68.3532 45.318 84.5517 39.3707 96.611C39.322 96.8975 39.2323 97.18 39.0971 97.4513L31.9206 111.89C31.1725 113.396 29.3119 114.046 27.8132 113.284C26.3144 112.52 25.6793 110.706 26.4283 109.2C29.514 102.992 32.3174 97.0792 35.3668 90.9443C36.1149 89.4396 35.4808 87.6243 33.982 86.8616H33.981C32.4822 86.0996 30.6227 86.7487 29.8744 88.2558C26.4822 95.0798 23.0971 101.909 19.7047 108.733C18.9566 110.241 17.0964 110.89 15.5982 110.128H15.5964C14.0985 109.365 13.4644 107.55 14.2125 106.045C17.0831 100.268 19.8941 94.554 22.7614 88.7865C23.5095 87.2802 22.8747 85.4681 21.376 84.7038H21.375C19.8767 83.941 18.0166 84.5909 17.2684 86.0972C14.8953 90.8715 12.5086 95.4256 10.1571 100.157C9.40874 101.663 7.713 101.798 6.05061 101.55H6.04945C4.38706 101.3 3.91651 98.9721 4.66463 97.4658L6.36198 94.0497L6.27178 94.0361C15.1193 75.8273 18.1488 69.5138 27.4123 51.5112C29.8958 46.6846 32.664 40.596 35.6472 36.2157C36.0704 35.5948 36.5085 35.0175 36.9574 34.4817C41.419 30.1776 46.0622 30.2031 49.3031 31.9113C56.673 35.7957 58.7239 46.9011 59.6438 56.0138Z" fill="url(#paint1_linear_1_148)"/>
<path fill-rule="evenodd" clip-rule="evenodd" d="M109.155 102.083L104.973 110.497C104.224 112.001 104.859 113.817 106.359 114.578C107.857 115.341 109.717 114.69 110.467 113.185L114.647 104.771C115.396 103.267 114.761 101.451 113.262 100.689H113.261C111.762 99.9268 109.902 100.577 109.155 102.083ZM98.7682 88.9728L97.053 92.4257C96.3031 93.9328 96.9386 95.7464 98.4361 96.5084H98.4377C99.936 97.2711 101.796 96.6212 102.544 95.1149L104.26 91.6621C105.01 90.1574 104.375 88.3413 102.877 87.5794H102.875C101.377 86.8166 99.5166 87.4649 98.7682 88.9728ZM123.452 32.5347L105.463 29.841L173.506 0.50647C156.906 34.5108 141.92 67.4768 123.394 100.565C122.678 101.845 120.611 102.579 119.09 101.752C118.02 101.173 116.924 99.7019 118.024 97.6249L127.447 79.8388C128.687 77.5005 127.859 75.8356 126.635 75.0978C125.248 74.2632 123.278 74.6531 121.916 77.2244L112.187 95.5887C109.24 101.151 104.211 97.917 106.648 93.0443C110.211 85.9234 113.963 78.7342 117.753 71.5826C120.387 66.6066 114.905 63.9015 112.223 68.9663L105.512 81.6318C104.755 83.0604 103.125 83.9953 101.859 83.8368C100.134 83.6191 98.9315 81.6926 100.134 79.2695C107.881 63.6813 115.695 48.1247 123.452 32.5347Z" fill="url(#paint2_linear_1_148)"/>
<defs>
<linearGradient id="paint0_linear_1_148" x1="41.8257" y1="14.3845" x2="115.242" y2="141.471" gradientUnits="userSpaceOnUse">
<stop stop-color="#8ED8C6"/>
<stop offset="0.175355" stop-color="#47B4D5"/>
<stop offset="0.683681" stop-color="#356CBE"/>
<stop offset="1" stop-color="#29449D"/>
</linearGradient>
<linearGradient id="paint1_linear_1_148" x1="-14.8997" y1="164.216" x2="65.8223" y2="14.2503" gradientUnits="userSpaceOnUse">
<stop stop-color="#8ED8C6"/>
<stop offset="0.322581" stop-color="#47B4D5"/>
<stop offset="0.698925" stop-color="#356CBE"/>
<stop offset="1" stop-color="#29449D"/>
</linearGradient>
<linearGradient id="paint2_linear_1_148" x1="84.8505" y1="119.34" x2="159.182" y2="-16.6139" gradientUnits="userSpaceOnUse">
<stop stop-color="#8ED8C6"/>
<stop offset="0.322581" stop-color="#47B4D5"/>
<stop offset="0.698925" stop-color="#356CBE"/>
<stop offset="1" stop-color="#29449D"/>
</linearGradient>
</defs>
</svg>
