<svg width="35" height="20" viewBox="0 0 35 20" fill="none" xmlns="http://www.w3.org/2000/svg">
<path d="M18.5116 13.4717L18.7349 12.9477L21.4528 6.55584L25.1527 15.7375L25.4581 16.4946C23.3484 15.566 20.931 14.5208 18.5116 13.4717ZM6.96299 11.6389L6.53071 11.4409L8.44184 7.40491L8.87491 7.60394L6.96299 11.6389ZM35 19.0218H31.7591C31.5972 18.8726 31.4483 18.7004 31.3127 18.5037C31.2289 18.3825 31.15 18.2506 31.0758 18.1105L22.6949 0H22.4406C22.3839 0.593223 21.914 1.80525 21.0292 3.63891L17.1589 12.2635L16.9257 12.7847C16.7901 12.725 16.6544 12.6662 16.5186 12.6074C15.8888 12.3336 15.264 12.0616 14.6507 11.7943C14.4592 11.711 14.2762 11.6588 14.3031 11.4466C14.3166 11.3404 14.3255 11.2334 14.3293 11.1282C14.3379 10.8534 14.0211 10.7084 13.8131 10.8922C13.8093 10.8951 13.8055 10.8989 13.8025 10.9007L13.3895 10.7122L13.8785 9.68022C14.1539 9.63473 14.414 9.4442 14.5515 9.15428C14.6565 8.93156 14.67 8.69176 14.6075 8.48519C14.5439 8.27766 14.4033 8.1043 14.2001 8.01135L14.1482 7.98679C14.0173 7.47786 13.6888 7.04572 13.2018 6.82113L10.5213 5.59117C10.0331 5.3675 9.4854 5.3978 9.00607 5.62713L8.95295 5.60249C8.54764 5.41677 8.049 5.62713 7.83799 6.07247C7.76879 6.21752 7.73983 6.36909 7.74485 6.51507C7.75049 6.66097 7.79092 6.80028 7.86213 6.91871L5.77962 11.3148C5.50244 11.3613 5.24256 11.5499 5.10577 11.8408C4.89396 12.2862 5.05086 12.7989 5.45618 12.9847L5.50908 13.0083C5.63922 13.5163 5.9675 13.9503 6.45468 14.1739L9.135 15.4039C9.62319 15.6275 10.1719 15.5963 10.6513 15.3689L10.7034 15.3926C11.1087 15.5783 11.6073 15.3679 11.8193 14.9216C11.9559 14.6316 11.9366 14.3142 11.796 14.0764L12.2707 13.0737L12.6972 13.2698C12.706 13.5304 13.0101 13.664 13.2123 13.485C13.2924 13.4149 13.3692 13.34 13.4444 13.2604C13.5917 13.105 13.7486 13.2092 13.9372 13.3002C14.5401 13.5902 15.1524 13.8868 15.7705 14.1862C15.9139 14.2554 16.0584 14.3256 16.2028 14.3956C16.7304 14.6515 17.2618 14.9083 17.7923 15.1651C20.6313 16.5429 23.4607 17.9169 25.7924 19.0218H16.5532C16.4904 18.8932 16.4578 18.77 16.4578 18.6525C16.4578 18.4402 16.5041 18.2128 16.5984 17.972L17.568 15.6911C17.0345 15.4314 16.5003 15.1728 15.9687 14.915L14.5101 18.1663C14.3727 18.419 14.217 18.6405 14.0437 18.8317V17.9727C14.0437 17.6564 13.7832 17.3998 13.4617 17.3998H13.4499C13.2368 16.8693 12.7161 16.5207 12.1366 16.5207H3.17796C2.59825 16.5207 2.07747 16.8693 1.86446 17.3998H1.85279C1.53135 17.3998 1.27066 17.6564 1.27066 17.9727V19.0218H0V19.9998H11.8855V20H17.9252V19.9998H24.7263V20H27.8831H33.1641H33.7293V19.9998H35V19.0218Z" fill="#1B3356"/>
</svg>
