<svg width="60" height="58" viewBox="0 0 60 58" fill="none" xmlns="http://www.w3.org/2000/svg">
<path d="M4.73682 32.1054H11.0526V57.3686H4.73682V32.1054Z" fill="#C2C2C2"/>
<path d="M11.0526 57.8947H4.73676C4.59718 57.8947 4.46331 57.8393 4.3646 57.7406C4.2659 57.6419 4.21045 57.508 4.21045 57.3684V32.1053C4.21045 31.9657 4.2659 31.8318 4.3646 31.7331C4.46331 31.6344 4.59718 31.5789 4.73676 31.5789H11.0526C11.1921 31.5789 11.326 31.6344 11.4247 31.7331C11.5234 31.8318 11.5789 31.9657 11.5789 32.1053V57.3684C11.5789 57.508 11.5234 57.6419 11.4247 57.7406C11.326 57.8393 11.1921 57.8947 11.0526 57.8947ZM5.26308 56.8421H10.5262V32.6316H5.26308V56.8421Z" fill="#212A41"/>
<path d="M30 11.0528H39.4737C40.3112 11.0528 41.1144 11.3855 41.7067 11.9777C42.2989 12.5699 42.6316 13.3731 42.6316 14.2107V38.4212C42.6316 39.5379 42.188 40.6089 41.3983 41.3985C40.6087 42.1881 39.5378 42.6317 38.4211 42.6317H34.2105V14.2107C34.2105 13.3731 33.8778 12.5699 33.2856 11.9777C32.6934 11.3855 31.8902 11.0528 31.0526 11.0528H30Z" fill="#E0C8A4"/>
<path d="M38.421 43.1579H34.2105C34.0709 43.1579 33.937 43.1024 33.8383 43.0037C33.7396 42.905 33.6842 42.7712 33.6842 42.6316V14.2105C33.6842 13.5126 33.4069 12.8432 32.9134 12.3497C32.4199 11.8562 31.7505 11.5789 31.0526 11.5789H29.9999C29.8604 11.5789 29.7265 11.5235 29.6278 11.4248C29.5291 11.3261 29.4736 11.1922 29.4736 11.0526C29.4736 10.913 29.5291 10.7792 29.6278 10.6805C29.7265 10.5818 29.8604 10.5263 29.9999 10.5263H39.4736C40.4507 10.5263 41.3878 10.9145 42.0788 11.6054C42.7697 12.2963 43.1578 13.2334 43.1578 14.2105V38.4211C43.1564 39.6769 42.6569 40.8809 41.7689 41.769C40.8809 42.657 39.6769 43.1565 38.421 43.1579ZM34.7368 42.1053H38.421C39.3981 42.1053 40.3352 41.7171 41.0261 41.0262C41.7171 40.3353 42.1052 39.3982 42.1052 38.4211V14.2105C42.1052 13.5126 41.828 12.8432 41.3344 12.3497C40.8409 11.8562 40.1716 11.5789 39.4736 11.5789H33.6284C33.9796 11.9213 34.2586 12.3305 34.449 12.7825C34.6394 13.2345 34.7372 13.7201 34.7368 14.2105V42.1053Z" fill="#212A41"/>
<path d="M34.2106 32.1054H11.0527V57.3686H34.2106V42.6317H38.4212C39.5379 42.6317 40.6088 42.1881 41.3984 41.3985C42.1881 40.6089 42.6317 39.5379 42.6317 38.4212V32.1054H34.2106Z" fill="#E0E0E0"/>
<path d="M34.2106 57.8947H11.0527C10.9131 57.8947 10.7792 57.8393 10.6805 57.7406C10.5818 57.6419 10.5264 57.508 10.5264 57.3684V32.1053C10.5264 31.9657 10.5818 31.8318 10.6805 31.7331C10.7792 31.6344 10.9131 31.5789 11.0527 31.5789H42.6316C42.7712 31.5789 42.9051 31.6344 43.0038 31.7331C43.1025 31.8318 43.1579 31.9657 43.1579 32.1053V38.421C43.1566 39.6769 42.657 40.8809 41.769 41.769C40.881 42.657 39.677 43.1565 38.4211 43.1579H34.7369V57.3684C34.7369 57.508 34.6814 57.6419 34.5827 57.7406C34.484 57.8393 34.3502 57.8947 34.2106 57.8947ZM11.579 56.8421H33.6843V42.6316C33.6843 42.492 33.7397 42.3581 33.8384 42.2594C33.9371 42.1607 34.071 42.1053 34.2106 42.1053H38.4211C39.3982 42.1053 40.3353 41.7171 41.0262 41.0262C41.7172 40.3353 42.1053 39.3982 42.1053 38.421V32.6316H11.579V56.8421Z" fill="#212A41"/>
<path d="M34.2104 43.1578C34.0708 43.1578 33.9369 43.1024 33.8382 43.0037C33.7395 42.905 33.6841 42.7711 33.6841 42.6315V38.421C33.6841 38.2814 33.7395 38.1475 33.8382 38.0488C33.9369 37.9501 34.0708 37.8947 34.2104 37.8947C34.35 37.8947 34.4839 37.9501 34.5826 38.0488C34.6813 38.1475 34.7367 38.2814 34.7367 38.421V42.6315C34.7367 42.7711 34.6813 42.905 34.5826 43.0037C34.4839 43.1024 34.35 43.1578 34.2104 43.1578Z" fill="#212A41"/>
<path d="M31.0524 17.3686C32.7965 17.3686 34.2103 15.9547 34.2103 14.2107C34.2103 12.4666 32.7965 11.0528 31.0524 11.0528C29.3084 11.0528 27.8945 12.4666 27.8945 14.2107C27.8945 15.9547 29.3084 17.3686 31.0524 17.3686Z" fill="#E0C8A4"/>
<path d="M31.0529 17.8947C30.3242 17.8947 29.6119 17.6787 29.006 17.2738C28.4002 16.869 27.9279 16.2936 27.6491 15.6204C27.3702 14.9472 27.2973 14.2064 27.4394 13.4918C27.5816 12.7771 27.9325 12.1206 28.4477 11.6054C28.963 11.0902 29.6194 10.7393 30.3341 10.5971C31.0488 10.455 31.7896 10.5279 32.4628 10.8068C33.136 11.0856 33.7113 11.5578 34.1162 12.1637C34.521 12.7696 34.7371 13.4819 34.7371 14.2105C34.7371 15.1876 34.3489 16.1247 33.658 16.8157C32.9671 17.5066 32.03 17.8947 31.0529 17.8947ZM31.0529 11.5789C30.5324 11.5789 30.0236 11.7333 29.5908 12.0225C29.1581 12.3116 28.8208 12.7226 28.6216 13.2035C28.4224 13.6843 28.3703 14.2134 28.4719 14.7239C28.5734 15.2344 28.824 15.7033 29.1921 16.0713C29.5601 16.4394 30.029 16.69 30.5395 16.7915C31.0499 16.8931 31.5791 16.841 32.0599 16.6418C32.5408 16.4426 32.9518 16.1053 33.2409 15.6726C33.5301 15.2398 33.6844 14.731 33.6844 14.2105C33.6844 13.5126 33.4072 12.8432 32.9137 12.3497C32.4202 11.8562 31.7508 11.5789 31.0529 11.5789Z" fill="#212A41"/>
<path d="M24.737 2.63158H16.316C14.6409 2.63158 13.0345 3.29699 11.85 4.48143C10.6656 5.66587 10.0002 7.27232 10.0002 8.94737V11.0526C9.16265 11.0526 8.35943 11.3853 7.76721 11.9776C7.17499 12.5698 6.84229 13.373 6.84229 14.2105C6.84229 15.0481 7.17499 15.8513 7.76721 16.4435C8.35943 17.0357 9.16265 17.3684 10.0002 17.3684V19.4737C10.0002 21.1487 10.6656 22.7552 11.85 23.9396C13.0345 25.1241 14.6409 25.7895 16.316 25.7895H24.737C26.4121 25.7895 28.0185 25.1241 29.203 23.9396C30.3874 22.7552 31.0528 21.1487 31.0528 19.4737V8.94737C31.0528 7.27232 30.3874 5.66587 29.203 4.48143C28.0185 3.29699 26.4121 2.63158 24.737 2.63158Z" fill="#E0C8A4"/>
<path d="M24.7367 26.3156H16.3157C14.5017 26.3134 12.7627 25.5918 11.48 24.3092C10.1974 23.0265 9.47579 21.2875 9.47356 19.4735V17.8567C8.59687 17.73 7.79519 17.2916 7.21537 16.622C6.63555 15.9523 6.31641 15.0962 6.31641 14.2104C6.31641 13.3246 6.63555 12.4684 7.21537 11.7988C7.79519 11.1291 8.59687 10.6908 9.47356 10.5641V8.94722C9.47579 7.13327 10.1974 5.39424 11.48 4.11158C12.7627 2.82892 14.5017 2.10734 16.3157 2.10512H24.7367C26.5507 2.10734 28.2897 2.82892 29.5723 4.11158C30.855 5.39424 31.5766 7.13327 31.5788 8.94722V19.4735C31.5766 21.2875 30.855 23.0265 29.5723 24.3092C28.2897 25.5918 26.5507 26.3134 24.7367 26.3156ZM16.3157 3.15775C14.7807 3.15942 13.3091 3.76992 12.2237 4.85529C11.1384 5.94067 10.5279 7.41227 10.5262 8.94722V11.0525C10.5262 11.1921 10.4707 11.3259 10.372 11.4246C10.2733 11.5233 10.1395 11.5788 9.99988 11.5788C9.30194 11.5788 8.63259 11.8561 8.13907 12.3496C7.64555 12.8431 7.3683 13.5124 7.3683 14.2104C7.3683 14.9083 7.64555 15.5777 8.13907 16.0712C8.63259 16.5647 9.30194 16.842 9.99988 16.842C10.1395 16.842 10.2733 16.8974 10.372 16.9961C10.4707 17.0948 10.5262 17.2287 10.5262 17.3683V19.4735C10.5279 21.0085 11.1384 22.4801 12.2237 23.5655C13.3091 24.6508 14.7807 25.2613 16.3157 25.263H24.7367C26.2717 25.2613 27.7433 24.6508 28.8286 23.5655C29.914 22.4801 30.5245 21.0085 30.5262 19.4735V8.94722C30.5245 7.41227 29.914 5.94067 28.8286 4.85529C27.7433 3.76992 26.2717 3.15942 24.7367 3.15775H16.3157Z" fill="#212A41"/>
<path d="M16.3159 24.2107C15.0601 24.2093 13.8561 23.7098 12.968 22.8217C12.08 21.9337 11.5805 20.7297 11.5791 19.4738C11.5791 19.3342 11.6346 19.2004 11.7333 19.1017C11.832 19.003 11.9658 18.9475 12.1054 18.9475C12.245 18.9475 12.3789 19.003 12.4776 19.1017C12.5763 19.2004 12.6317 19.3342 12.6317 19.4738C12.6317 20.4509 13.0199 21.388 13.7108 22.079C14.4017 22.7699 15.3388 23.158 16.3159 23.158C16.4555 23.158 16.5894 23.2135 16.6881 23.3122C16.7868 23.4109 16.8423 23.5448 16.8423 23.6844C16.8423 23.8239 16.7868 23.9578 16.6881 24.0565C16.5894 24.1552 16.4555 24.2107 16.3159 24.2107Z" fill="#FEE6C2"/>
<path d="M24.7368 24.2106C24.5972 24.2106 24.4633 24.1551 24.3646 24.0564C24.2659 23.9577 24.2104 23.8239 24.2104 23.6843C24.2104 23.5447 24.2659 23.4108 24.3646 23.3121C24.4633 23.2134 24.5972 23.158 24.7368 23.158C25.7139 23.158 26.651 22.7698 27.3419 22.0789C28.0328 21.388 28.421 20.4509 28.421 19.4738V10.0001C28.421 9.86048 28.4764 9.72661 28.5751 9.62791C28.6738 9.52921 28.8077 9.47376 28.9473 9.47376C29.0869 9.47376 29.2207 9.52921 29.3195 9.62791C29.4182 9.72661 29.4736 9.86048 29.4736 10.0001V19.4738C29.4722 20.7296 28.9727 21.9336 28.0847 22.8217C27.1967 23.7097 25.9926 24.2092 24.7368 24.2106Z" fill="#C2AA86"/>
<path d="M16.3159 25.7893H24.737V32.1051H16.3159V25.7893Z" fill="#E8D2A8"/>
<path d="M24.7369 32.6316H16.3159C16.1763 32.6316 16.0424 32.5762 15.9437 32.4775C15.845 32.3788 15.7896 32.2449 15.7896 32.1053V25.7895C15.7896 25.65 15.845 25.5161 15.9437 25.4174C16.0424 25.3187 16.1763 25.2632 16.3159 25.2632H24.7369C24.8765 25.2632 25.0104 25.3187 25.1091 25.4174C25.2078 25.5161 25.2632 25.65 25.2632 25.7895V32.1053C25.2632 32.2449 25.2078 32.3788 25.1091 32.4775C25.0104 32.5762 24.8765 32.6316 24.7369 32.6316ZM16.8422 31.579H24.2106V26.3159H16.8422V31.579Z" fill="#212A41"/>
<path d="M14.2105 0.526462H32.1053V3.68436C32.1053 4.80106 31.6617 5.87202 30.872 6.66165C30.0824 7.45127 29.0114 7.89488 27.8947 7.89488H10V4.73699C10 3.62029 10.4436 2.54932 11.2332 1.7597C12.0229 0.97007 13.0938 0.526462 14.2105 0.526462Z" fill="#6C696F"/>
<path d="M27.8947 8.42105H9.99995C9.86036 8.42105 9.72649 8.3656 9.62779 8.2669C9.52908 8.16819 9.47363 8.03432 9.47363 7.89474V4.73684C9.47503 3.48098 9.97453 2.27696 10.8626 1.38893C11.7506 0.500899 12.9546 0.00139308 14.2105 0H32.1052C32.2448 0 32.3787 0.0554511 32.4774 0.154154C32.5761 0.252858 32.6315 0.386728 32.6315 0.526316V3.68421C32.6301 4.94007 32.1306 6.1441 31.2426 7.03212C30.3546 7.92015 29.1505 8.41966 27.8947 8.42105ZM10.5263 7.36842H27.8947C28.8718 7.36842 29.8089 6.98026 30.4998 6.28934C31.1907 5.59842 31.5789 4.66132 31.5789 3.68421V1.05263H14.2105C13.2334 1.05263 12.2963 1.44079 11.6053 2.13171C10.9144 2.82263 10.5263 3.75973 10.5263 4.73684V7.36842Z" fill="#212A41"/>
<path d="M27.895 6.31564C27.7554 6.31564 27.6215 6.26019 27.5228 6.16149C27.4241 6.06278 27.3687 5.92891 27.3687 5.78933C27.3687 5.64974 27.4241 5.51587 27.5228 5.41716C27.6215 5.31846 27.7554 5.26301 27.895 5.26301C28.3137 5.26301 28.7153 5.09666 29.0115 4.80055C29.3076 4.50444 29.4739 4.10283 29.4739 3.68406V2.63143C29.4739 2.49184 29.5294 2.35797 29.6281 2.25927C29.7268 2.16057 29.8606 2.10512 30.0002 2.10512C30.1398 2.10512 30.2737 2.16057 30.3724 2.25927C30.4711 2.35797 30.5265 2.49184 30.5265 2.63143V3.68406C30.5265 4.382 30.2493 5.05135 29.7558 5.54487C29.2623 6.03839 28.5929 6.31564 27.895 6.31564Z" fill="#4E4B51"/>
<path d="M9.99979 2.63158H13.1577V6.8421C13.1577 7.9588 12.7141 9.02977 11.9245 9.81939C11.1348 10.609 10.0639 11.0526 8.94716 11.0526H7.89453V4.73684C7.89453 4.17849 8.11634 3.64301 8.51115 3.2482C8.90596 2.85338 9.44144 2.63158 9.99979 2.63158Z" fill="#4E4B51"/>
<path d="M8.9476 11.5788H7.89497C7.75538 11.5788 7.62151 11.5233 7.52281 11.4246C7.4241 11.3259 7.36865 11.1921 7.36865 11.0525V4.73669C7.36865 4.03876 7.64591 3.3694 8.13942 2.87589C8.63294 2.38237 9.30229 2.10512 10.0002 2.10512H13.1581C13.2977 2.10512 13.4316 2.16057 13.5303 2.25927C13.629 2.35797 13.6844 2.49184 13.6844 2.63143V6.84196C13.683 8.09782 13.1835 9.30184 12.2955 10.1899C11.4075 11.0779 10.2035 11.5774 8.9476 11.5788ZM8.42128 10.5262H8.9476C9.92471 10.5262 10.8618 10.138 11.5527 9.44709C12.2437 8.75616 12.6318 7.81907 12.6318 6.84196V3.15775H10.0002C9.58147 3.15775 9.17986 3.3241 8.88375 3.62021C8.58764 3.91632 8.42128 4.31793 8.42128 4.73669V10.5262Z" fill="#212A41"/>
<path d="M9.99995 9.1906C9.86036 9.1906 9.72649 9.13515 9.62779 9.03644C9.52908 8.93774 9.47363 8.80387 9.47363 8.66428V4.73691C9.47363 4.59733 9.52908 4.46346 9.62779 4.36475C9.72649 4.26605 9.86036 4.2106 9.99995 4.2106C10.1395 4.2106 10.2734 4.26605 10.3721 4.36475C10.4708 4.46346 10.5263 4.59733 10.5263 4.73691V8.66428C10.5263 8.80387 10.4708 8.93774 10.3721 9.03644C10.2734 9.13515 10.1395 9.1906 9.99995 9.1906Z" fill="#6C696F"/>
<path d="M9.99991 17.8943C9.2712 17.8943 8.55885 17.6783 7.95293 17.2735C7.34702 16.8686 6.87476 16.2932 6.59589 15.62C6.31702 14.9468 6.24406 14.2059 6.38624 13.4912C6.52842 12.7765 6.87934 12.1201 7.39464 11.6048C8.0966 10.9349 9.02961 10.5612 9.99991 10.5612C10.9702 10.5612 11.9032 10.9349 12.6052 11.6048C12.701 11.7041 12.7541 11.837 12.7529 11.975C12.7517 12.113 12.6963 12.245 12.5988 12.3426C12.5012 12.4402 12.3692 12.4955 12.2312 12.4967C12.0932 12.4979 11.9602 12.4449 11.861 12.349C11.3594 11.8708 10.6929 11.604 9.99991 11.604C9.30687 11.604 8.64043 11.8708 8.13886 12.349C7.89442 12.5934 7.70051 12.8835 7.56822 13.2028C7.43593 13.5222 7.36784 13.8644 7.36784 14.2101C7.36784 14.5557 7.43593 14.898 7.56822 15.2173C7.70051 15.5366 7.89442 15.8267 8.13886 16.0711C8.64043 16.5494 9.30687 16.8162 9.99991 16.8162C10.6929 16.8162 11.3594 16.5494 11.861 16.0711C11.9095 16.0209 11.9676 15.9808 12.0318 15.9532C12.096 15.9256 12.1651 15.9111 12.235 15.9105C12.3048 15.9099 12.3741 15.9232 12.4388 15.9496C12.5035 15.9761 12.5623 16.0152 12.6117 16.0646C12.6611 16.114 12.7002 16.1728 12.7267 16.2375C12.7531 16.3021 12.7664 16.3714 12.7658 16.4413C12.7652 16.5112 12.7507 16.5803 12.7231 16.6445C12.6955 16.7087 12.6554 16.7668 12.6052 16.8153C12.2638 17.1585 11.8578 17.4306 11.4106 17.6158C10.9634 17.801 10.4839 17.8956 9.99991 17.8943Z" fill="#212A41"/>
<path d="M31.0528 32.1053H26.8423L28.9475 28.9474L31.0528 32.1053Z" fill="#E0E0E0"/>
<path d="M31.0525 32.6317H26.842C26.7468 32.6317 26.6534 32.6058 26.5717 32.5569C26.49 32.5079 26.4232 32.4378 26.3782 32.3538C26.3333 32.2699 26.312 32.1754 26.3165 32.0803C26.3211 31.9852 26.3513 31.8931 26.4041 31.8138L28.5093 28.6559C28.5601 28.5876 28.6261 28.532 28.7021 28.4938C28.7782 28.4555 28.8621 28.4356 28.9472 28.4356C29.0323 28.4356 29.1163 28.4555 29.1923 28.4938C29.2684 28.532 29.3344 28.5876 29.3851 28.6559L31.4904 31.8138C31.5431 31.8931 31.5734 31.9852 31.5779 32.0803C31.5825 32.1754 31.5612 32.2699 31.5162 32.3538C31.4713 32.4378 31.4044 32.5079 31.3228 32.5569C31.2411 32.6058 31.1477 32.6317 31.0525 32.6317ZM27.8251 31.5791H30.0693L28.9472 29.8949L27.8251 31.5791Z" fill="#212A41"/>
<path d="M26.8421 32.1053H24.7368V28.9474H28.9473L26.8421 32.1053Z" fill="#C2C2C2"/>
<path d="M26.842 32.6314H24.7368C24.5972 32.6314 24.4633 32.576 24.3646 32.4773C24.2659 32.3786 24.2104 32.2447 24.2104 32.1051V28.9472C24.2104 28.8076 24.2659 28.6738 24.3646 28.5751C24.4633 28.4764 24.5972 28.4209 24.7368 28.4209H28.9473C29.0425 28.421 29.1359 28.4468 29.2176 28.4958C29.2992 28.5447 29.3661 28.6149 29.411 28.6988C29.456 28.7827 29.4773 28.8773 29.4727 28.9724C29.4682 29.0675 29.4379 29.1595 29.3852 29.2388L27.2799 32.3967C27.2319 32.4689 27.1668 32.528 27.0904 32.569C27.014 32.6099 26.9287 32.6314 26.842 32.6314ZM25.2631 31.5788H26.5599L27.9641 29.4735H25.2631V31.5788Z" fill="#212A41"/>
<path d="M22.6314 32.1053H18.4209L20.5262 28.9474L22.6314 32.1053Z" fill="#E0E0E0"/>
<path d="M22.6316 32.6317H18.4211C18.3259 32.6317 18.2325 32.6058 18.1508 32.5569C18.0691 32.5079 18.0023 32.4378 17.9573 32.3538C17.9124 32.2699 17.8911 32.1754 17.8956 32.0803C17.9002 31.9852 17.9304 31.8931 17.9832 31.8138L20.0884 28.6559C20.1392 28.5876 20.2052 28.532 20.2812 28.4938C20.3573 28.4555 20.4412 28.4356 20.5263 28.4356C20.6115 28.4356 20.6954 28.4555 20.7714 28.4938C20.8475 28.532 20.9135 28.5876 20.9642 28.6559L23.0695 31.8138C23.1222 31.8931 23.1525 31.9852 23.157 32.0803C23.1616 32.1754 23.1403 32.2699 23.0953 32.3538C23.0504 32.4378 22.9835 32.5079 22.9019 32.5569C22.8202 32.6058 22.7268 32.6317 22.6316 32.6317ZM19.4042 31.5791H21.6484L20.5263 29.8949L19.4042 31.5791Z" fill="#212A41"/>
<path d="M18.4212 32.1053H11.0527L13.158 28.9474H20.5264L18.4212 32.1053Z" fill="#C2C2C2"/>
<path d="M18.4213 32.6314H11.0529C10.9577 32.6314 10.8643 32.6055 10.7826 32.5566C10.701 32.5076 10.6341 32.4375 10.5892 32.3535C10.5442 32.2696 10.5229 32.1751 10.5275 32.08C10.532 31.9849 10.5623 31.8928 10.615 31.8135L12.7203 28.6556C12.7683 28.5835 12.8334 28.5243 12.9098 28.4833C12.9862 28.4424 13.0715 28.4209 13.1582 28.4209H20.5266C20.6218 28.421 20.7152 28.4468 20.7969 28.4958C20.8785 28.5447 20.9454 28.6149 20.9903 28.6988C21.0352 28.7827 21.0566 28.8773 21.052 28.9724C21.0475 29.0675 21.0172 29.1595 20.9645 29.2388L18.8592 32.3967C18.8112 32.4689 18.7461 32.528 18.6697 32.569C18.5933 32.6099 18.508 32.6314 18.4213 32.6314ZM12.0361 31.5788H18.1413L19.5455 29.4735H13.4403L12.0361 31.5788Z" fill="#212A41"/>
<path d="M27.8949 57.3685H21.5791L22.6317 38.4211H26.8423L27.8949 57.3685Z" fill="#D32E5E"/>
<path d="M27.8947 57.8947H21.5789C21.5072 57.8948 21.4363 57.8802 21.3704 57.852C21.3046 57.8237 21.2452 57.7823 21.1959 57.7302C21.1466 57.6782 21.1085 57.6166 21.0839 57.5493C21.0592 57.482 21.0486 57.4104 21.0526 57.3389L22.1052 38.3915C22.1128 38.2571 22.1715 38.1307 22.2694 38.0383C22.3673 37.9458 22.4969 37.8944 22.6315 37.8947H26.8421C26.9767 37.8944 27.1063 37.9458 27.2042 38.0383C27.3021 38.1307 27.3608 38.2571 27.3684 38.3915L28.421 57.3389C28.425 57.4104 28.4144 57.482 28.3897 57.5493C28.3651 57.6166 28.3269 57.6782 28.2777 57.7302C28.2284 57.7823 28.169 57.8237 28.1031 57.852C28.0373 57.8802 27.9664 57.8948 27.8947 57.8947ZM22.1347 56.842H27.3389L26.3442 38.9473H23.1294L22.1347 56.842Z" fill="#212A41"/>
<path d="M26.8422 32.1054H22.6316L20.5264 35.2633L22.6316 38.4212H26.8422L28.9474 35.2633L26.8422 32.1054Z" fill="#D32E5E"/>
<path d="M26.8423 38.9474H22.6318C22.5451 38.9473 22.4598 38.9259 22.3834 38.8849C22.307 38.844 22.2419 38.7848 22.1939 38.7126L20.0886 35.5547C20.0312 35.4684 20.0005 35.3669 20.0005 35.2632C20.0005 35.1594 20.0312 35.058 20.0886 34.9716L22.1939 31.8137C22.2419 31.7415 22.307 31.6823 22.3834 31.6414C22.4598 31.6004 22.5451 31.579 22.6318 31.5789H26.8423C26.929 31.579 27.0143 31.6004 27.0907 31.6414C27.1671 31.6823 27.2322 31.7415 27.2802 31.8137L29.3855 34.9716C29.443 35.058 29.4736 35.1594 29.4736 35.2632C29.4736 35.3669 29.443 35.4684 29.3855 35.5547L27.2802 38.7126C27.2322 38.7848 27.1671 38.844 27.0907 38.8849C27.0143 38.9259 26.929 38.9473 26.8423 38.9474ZM22.9139 37.8947H26.5602L28.316 35.2632L26.5613 32.6316H22.9139L21.1581 35.2632L22.9139 37.8947Z" fill="#212A41"/>
<path d="M30.0002 11.0528H41.5791V17.3686H30.0002C29.1627 17.3686 28.3594 17.0359 27.7672 16.4436C27.175 15.8514 26.8423 15.0482 26.8423 14.2107C26.8423 13.3731 27.175 12.5699 27.7672 11.9777C28.3594 11.3855 29.1627 11.0528 30.0002 11.0528Z" fill="#6C696F"/>
<path d="M41.5791 17.8947H30.0001C29.023 17.8947 28.0859 17.5066 27.395 16.8157C26.7041 16.1247 26.3159 15.1876 26.3159 14.2105C26.3159 13.2334 26.7041 12.2963 27.395 11.6054C28.0859 10.9145 29.023 10.5263 30.0001 10.5263H41.5791C41.7187 10.5263 41.8525 10.5818 41.9512 10.6805C42.0499 10.7792 42.1054 10.913 42.1054 11.0526V17.3684C42.1054 17.508 42.0499 17.6419 41.9512 17.7406C41.8525 17.8393 41.7187 17.8947 41.5791 17.8947ZM30.0001 11.5789C29.3022 11.5789 28.6328 11.8562 28.1393 12.3497C27.6458 12.8432 27.3685 13.5126 27.3685 14.2105C27.3685 14.9085 27.6458 15.5778 28.1393 16.0713C28.6328 16.5648 29.3022 16.8421 30.0001 16.8421H41.0528V11.5789H30.0001Z" fill="#212A41"/>
<path d="M41.5788 17.3686C43.3228 17.3686 44.7367 15.9547 44.7367 14.2107C44.7367 12.4666 43.3228 11.0528 41.5788 11.0528C39.8347 11.0528 38.4209 12.4666 38.4209 14.2107C38.4209 15.9547 39.8347 17.3686 41.5788 17.3686Z" fill="#B7C0D7"/>
<path d="M41.5792 17.8947C40.8506 17.8947 40.1383 17.6787 39.5324 17.2738C38.9265 16.869 38.4543 16.2936 38.1755 15.6204C37.8966 14.9472 37.8237 14.2064 37.9658 13.4918C38.108 12.7771 38.4589 12.1206 38.9741 11.6054C39.4893 11.0902 40.1458 10.7393 40.8605 10.5971C41.5751 10.455 42.3159 10.5279 42.9891 10.8068C43.6623 11.0856 44.2377 11.5578 44.6425 12.1637C45.0474 12.7696 45.2634 13.4819 45.2634 14.2105C45.2634 15.1876 44.8753 16.1247 44.1844 16.8157C43.4934 17.5066 42.5563 17.8947 41.5792 17.8947ZM41.5792 11.5789C41.0588 11.5789 40.55 11.7333 40.1172 12.0225C39.6844 12.3116 39.3471 12.7226 39.148 13.2035C38.9488 13.6843 38.8967 14.2134 38.9982 14.7239C39.0998 15.2344 39.3504 15.7033 39.7184 16.0713C40.0865 16.4394 40.5554 16.69 41.0658 16.7915C41.5763 16.8931 42.1054 16.841 42.5863 16.6418C43.0671 16.4426 43.4781 16.1053 43.7673 15.6726C44.0565 15.2398 44.2108 14.731 44.2108 14.2105C44.2108 13.5126 43.9336 12.8432 43.44 12.3497C42.9465 11.8562 42.2772 11.5789 41.5792 11.5789Z" fill="#212A41"/>
<path d="M21.5788 11.0528H33.1577V17.3686H21.5788C20.7413 17.3686 19.938 17.0359 19.3458 16.4436C18.7536 15.8514 18.4209 15.0482 18.4209 14.2107C18.4209 13.3731 18.7536 12.5699 19.3458 11.9777C19.938 11.3855 20.7413 11.0528 21.5788 11.0528Z" fill="#6C696F"/>
<path d="M33.1577 17.8947H21.5787C20.6016 17.8947 19.6645 17.5066 18.9736 16.8157C18.2827 16.1247 17.8945 15.1876 17.8945 14.2105C17.8945 13.2334 18.2827 12.2963 18.9736 11.6054C19.6645 10.9145 20.6016 10.5263 21.5787 10.5263H33.1577C33.2973 10.5263 33.4311 10.5818 33.5299 10.6805C33.6286 10.7792 33.684 10.913 33.684 11.0526V17.3684C33.684 17.508 33.6286 17.6419 33.5299 17.7406C33.4311 17.8393 33.2973 17.8947 33.1577 17.8947ZM21.5787 11.5789C20.8808 11.5789 20.2115 11.8562 19.7179 12.3497C19.2244 12.8432 18.9472 13.5126 18.9472 14.2105C18.9472 14.9085 19.2244 15.5778 19.7179 16.0713C20.2115 16.5648 20.8808 16.8421 21.5787 16.8421H32.6314V11.5789H21.5787Z" fill="#212A41"/>
<path d="M33.1579 17.3686C34.902 17.3686 36.3158 15.9547 36.3158 14.2107C36.3158 12.4666 34.902 11.0528 33.1579 11.0528C31.4138 11.0528 30 12.4666 30 14.2107C30 15.9547 31.4138 17.3686 33.1579 17.3686Z" fill="#B7C0D7"/>
<path d="M33.1578 17.8947C32.4292 17.8947 31.7169 17.6787 31.111 17.2738C30.5051 16.869 30.0329 16.2936 29.7541 15.6204C29.4752 14.9472 29.4023 14.2064 29.5444 13.4918C29.6866 12.7771 30.0375 12.1206 30.5527 11.6054C31.068 11.0902 31.7244 10.7393 32.4391 10.5971C33.1538 10.455 33.8945 10.5279 34.5677 10.8068C35.2409 11.0856 35.8163 11.5578 36.2212 12.1637C36.626 12.7696 36.8421 13.4819 36.8421 14.2105C36.8421 15.1876 36.4539 16.1247 35.763 16.8157C35.0721 17.5066 34.135 17.8947 33.1578 17.8947ZM33.1578 11.5789C32.6374 11.5789 32.1286 11.7333 31.6958 12.0225C31.2631 12.3116 30.9258 12.7226 30.7266 13.2035C30.5274 13.6843 30.4753 14.2134 30.5768 14.7239C30.6784 15.2344 30.929 15.7033 31.297 16.0713C31.6651 16.4394 32.134 16.69 32.6445 16.7915C33.1549 16.8931 33.684 16.841 34.1649 16.6418C34.6458 16.4426 35.0568 16.1053 35.3459 15.6726C35.6351 15.2398 35.7894 14.731 35.7894 14.2105C35.7894 13.5126 35.5122 12.8432 35.0187 12.3497C34.5251 11.8562 33.8558 11.5789 33.1578 11.5789Z" fill="#212A41"/>
<path d="M29.9997 11.0528H20.5261C19.6885 11.0528 18.8853 11.3855 18.2931 11.9777C17.7009 12.5699 17.3682 13.3731 17.3682 14.2107V40.5265H21.5787C22.6954 40.5265 23.7664 40.0829 24.556 39.2932C25.3456 38.5036 25.7892 37.4326 25.7892 36.3159V14.2107C25.7892 13.3731 26.1219 12.5699 26.7141 11.9777C27.3064 11.3855 28.1096 11.0528 28.9471 11.0528H29.9997Z" fill="#E0C8A4"/>
<path d="M21.5791 41.0526H17.3686C17.229 41.0526 17.0951 40.9972 16.9964 40.8985C16.8977 40.7998 16.8423 40.6659 16.8423 40.5263V14.2105C16.8423 13.2334 17.2304 12.2963 17.9214 11.6054C18.6123 10.9145 19.5494 10.5263 20.5265 10.5263H30.0002C30.1398 10.5263 30.2736 10.5818 30.3723 10.6805C30.471 10.7792 30.5265 10.913 30.5265 11.0526C30.5265 11.1922 30.471 11.3261 30.3723 11.4248C30.2736 11.5235 30.1398 11.5789 30.0002 11.5789H28.9475C28.2496 11.5789 27.5803 11.8562 27.0867 12.3497C26.5932 12.8432 26.316 13.5126 26.316 14.2105V36.3158C26.3146 37.5716 25.8151 38.7757 24.927 39.6637C24.039 40.5517 22.835 41.0512 21.5791 41.0526ZM17.8949 40H21.5791C22.5562 40 23.4933 39.6118 24.1843 38.9209C24.8752 38.23 25.2633 37.2929 25.2633 36.3158V14.2105C25.2629 13.7201 25.3608 13.2345 25.5512 12.7825C25.7415 12.3305 26.0206 11.9213 26.3718 11.5789H20.5265C19.8286 11.5789 19.1592 11.8562 18.6657 12.3497C18.1722 12.8432 17.8949 13.5126 17.8949 14.2105V40Z" fill="#212A41"/>
<path d="M4.73689 32.1054H25.7895V38.4212C25.7895 39.5379 25.3459 40.6089 24.5563 41.3985C23.7667 42.1881 22.6957 42.6317 21.579 42.6317H4.73689C3.62019 42.6317 2.54923 42.1881 1.7596 41.3985C0.969975 40.6089 0.526367 39.5379 0.526367 38.4212V36.3159C0.526367 35.1992 0.969975 34.1283 1.7596 33.3386C2.54923 32.549 3.62019 32.1054 4.73689 32.1054Z" fill="#C2C2C2"/>
<path d="M21.5789 43.1579H4.73684C3.48098 43.1565 2.27696 42.657 1.38893 41.769C0.500899 40.8809 0.00139308 39.6769 0 38.421V36.3158C0.00139308 35.0599 0.500899 33.8559 1.38893 32.9679C2.27696 32.0798 3.48098 31.5803 4.73684 31.5789H25.7895C25.9291 31.5789 26.0629 31.6344 26.1616 31.7331C26.2603 31.8318 26.3158 31.9657 26.3158 32.1053V38.421C26.3144 39.6769 25.8149 40.8809 24.9269 41.769C24.0388 42.657 22.8348 43.1565 21.5789 43.1579ZM4.73684 32.6316C3.75973 32.6316 2.82264 33.0197 2.13171 33.7107C1.44079 34.4016 1.05263 35.3387 1.05263 36.3158V38.421C1.05263 39.3982 1.44079 40.3353 2.13171 41.0262C2.82264 41.7171 3.75973 42.1053 4.73684 42.1053H21.5789C22.5561 42.1053 23.4932 41.7171 24.1841 41.0262C24.875 40.3353 25.2632 39.3982 25.2632 38.421V32.6316H4.73684Z" fill="#212A41"/>
<path d="M21.5791 41.0525C21.4395 41.0525 21.3056 40.997 21.2069 40.8983C21.1082 40.7996 21.0527 40.6658 21.0527 40.5262C21.0527 40.3866 21.1082 40.2527 21.2069 40.154C21.3056 40.0553 21.4395 39.9998 21.5791 39.9998C21.9978 39.9998 22.3994 39.8335 22.6955 39.5374C22.9916 39.2413 23.158 38.8397 23.158 38.4209V34.2104C23.158 34.0708 23.2134 33.9369 23.3122 33.8382C23.4109 33.7395 23.5447 33.6841 23.6843 33.6841C23.8239 33.6841 23.9578 33.7395 24.0565 33.8382C24.1552 33.9369 24.2106 34.0708 24.2106 34.2104V38.4209C24.2106 39.1188 23.9334 39.7882 23.4399 40.2817C22.9463 40.7752 22.277 41.0525 21.5791 41.0525Z" fill="#A4A4A4"/>
<path d="M38.4213 41.0525C38.2817 41.0525 38.1479 40.997 38.0492 40.8983C37.9505 40.7996 37.895 40.6658 37.895 40.5262C37.895 40.3866 37.9505 40.2527 38.0492 40.154C38.1479 40.0553 38.2817 39.9998 38.4213 39.9998C38.8401 39.9998 39.2417 39.8335 39.5378 39.5374C39.8339 39.2413 40.0003 38.8397 40.0003 38.4209V34.2104C40.0003 34.0708 40.0557 33.9369 40.1544 33.8382C40.2531 33.7395 40.387 33.6841 40.5266 33.6841C40.6662 33.6841 40.8001 33.7395 40.8988 33.8382C40.9975 33.9369 41.0529 34.0708 41.0529 34.2104V38.4209C41.0529 39.1188 40.7757 39.7882 40.2821 40.2817C39.7886 40.7752 39.1193 41.0525 38.4213 41.0525Z" fill="#C2C2C2"/>
<path d="M19.4736 30.5265C19.334 30.5265 19.2001 30.471 19.1014 30.3723C19.0027 30.2736 18.9473 30.1397 18.9473 30.0001V14.2107C18.9473 14.0711 19.0027 13.9372 19.1014 13.8385C19.2001 13.7398 19.334 13.6844 19.4736 13.6844C19.6132 13.6844 19.747 13.7398 19.8457 13.8385C19.9444 13.9372 19.9999 14.0711 19.9999 14.2107V30.0001C19.9999 30.1397 19.9444 30.2736 19.8457 30.3723C19.747 30.471 19.6132 30.5265 19.4736 30.5265Z" fill="#FEE6C2"/>
<path d="M40.5263 30.5265C40.3867 30.5265 40.2529 30.471 40.1542 30.3723C40.0555 30.2736 40 30.1397 40 30.0001V19.4738C40 19.3342 40.0555 19.2004 40.1542 19.1017C40.2529 19.003 40.3867 18.9475 40.5263 18.9475C40.6659 18.9475 40.7998 19.003 40.8985 19.1017C40.9972 19.2004 41.0526 19.3342 41.0526 19.4738V30.0001C41.0526 30.1397 40.9972 30.2736 40.8985 30.3723C40.7998 30.471 40.6659 30.5265 40.5263 30.5265Z" fill="#C2AA86"/>
<path d="M6.84223 55.7893C6.70265 55.7893 6.56878 55.7339 6.47007 55.6352C6.37137 55.5365 6.31592 55.4026 6.31592 55.263V44.7367C6.31592 44.5971 6.37137 44.4632 6.47007 44.3645C6.56878 44.2658 6.70265 44.2104 6.84223 44.2104C6.98182 44.2104 7.11569 44.2658 7.2144 44.3645C7.3131 44.4632 7.36855 44.5971 7.36855 44.7367V55.263C7.36855 55.4026 7.3131 55.5365 7.2144 55.6352C7.11569 55.7339 6.98182 55.7893 6.84223 55.7893Z" fill="#E0E0E0"/>
<path d="M13.1577 55.7893C13.0181 55.7893 12.8842 55.7339 12.7855 55.6352C12.6868 55.5365 12.6313 55.4026 12.6313 55.263V44.7367C12.6313 44.5971 12.6868 44.4632 12.7855 44.3645C12.8842 44.2658 13.0181 44.2104 13.1577 44.2104C13.2973 44.2104 13.4311 44.2658 13.5298 44.3645C13.6285 44.4632 13.684 44.5971 13.684 44.7367V55.263C13.684 55.4026 13.6285 55.5365 13.5298 55.6352C13.4311 55.7339 13.2973 55.7893 13.1577 55.7893Z" fill="#FEFEFE"/>
<path d="M54.2108 32.1054H39.4739C38.3112 32.1054 37.3687 33.048 37.3687 34.2107V48.9475C37.3687 50.1102 38.3112 51.0528 39.4739 51.0528H54.2108C55.3735 51.0528 56.316 50.1102 56.316 48.9475V34.2107C56.316 33.048 55.3735 32.1054 54.2108 32.1054Z" fill="#BED38E"/>
<path d="M54.2107 51.5789H39.4739C38.7759 51.5789 38.1066 51.3017 37.6131 50.8082C37.1195 50.3147 36.8423 49.6453 36.8423 48.9474V34.2105C36.8423 33.5126 37.1195 32.8432 37.6131 32.3497C38.1066 31.8562 38.7759 31.5789 39.4739 31.5789H54.2107C54.9086 31.5789 55.578 31.8562 56.0715 32.3497C56.565 32.8432 56.8423 33.5126 56.8423 34.2105V48.9474C56.8423 49.6453 56.565 50.3147 56.0715 50.8082C55.578 51.3017 54.9086 51.5789 54.2107 51.5789ZM39.4739 32.6316C39.0551 32.6316 38.6535 32.7979 38.3574 33.094C38.0613 33.3901 37.8949 33.7918 37.8949 34.2105V48.9474C37.8949 49.3661 38.0613 49.7677 38.3574 50.0638C38.6535 50.36 39.0551 50.5263 39.4739 50.5263H54.2107C54.6295 50.5263 55.0311 50.36 55.3272 50.0638C55.6233 49.7677 55.7897 49.3661 55.7897 48.9474V34.2105C55.7897 33.7918 55.6233 33.3901 55.3272 33.094C55.0311 32.7979 54.6295 32.6316 54.2107 32.6316H39.4739Z" fill="#212A41"/>
<path d="M57.3685 32.1054H42.6316C41.4689 32.1054 40.5264 33.048 40.5264 34.2107V48.9475C40.5264 50.1102 41.4689 51.0528 42.6316 51.0528H57.3685C58.5312 51.0528 59.4737 50.1102 59.4737 48.9475V34.2107C59.4737 33.048 58.5312 32.1054 57.3685 32.1054Z" fill="#BED38E"/>
<path d="M57.3684 51.5789H42.6316C41.9336 51.5789 41.2643 51.3017 40.7708 50.8082C40.2773 50.3147 40 49.6453 40 48.9474V34.2105C40 33.5126 40.2773 32.8432 40.7708 32.3497C41.2643 31.8562 41.9336 31.5789 42.6316 31.5789H57.3684C58.0664 31.5789 58.7357 31.8562 59.2292 32.3497C59.7227 32.8432 60 33.5126 60 34.2105V48.9474C60 49.6453 59.7227 50.3147 59.2292 50.8082C58.7357 51.3017 58.0664 51.5789 57.3684 51.5789ZM42.6316 32.6316C42.2128 32.6316 41.8112 32.7979 41.5151 33.094C41.219 33.3901 41.0526 33.7918 41.0526 34.2105V48.9474C41.0526 49.3661 41.219 49.7677 41.5151 50.0638C41.8112 50.36 42.2128 50.5263 42.6316 50.5263H57.3684C57.7872 50.5263 58.1888 50.36 58.4849 50.0638C58.781 49.7677 58.9474 49.3661 58.9474 48.9474V34.2105C58.9474 33.7918 58.781 33.3901 58.4849 33.094C58.1888 32.7979 57.7872 32.6316 57.3684 32.6316H42.6316Z" fill="#212A41"/>
<path d="M42.6318 49.4735C42.4922 49.4735 42.3583 49.4181 42.2596 49.3194C42.1609 49.2207 42.1055 49.0868 42.1055 48.9472V34.2104C42.1055 34.0708 42.1609 33.9369 42.2596 33.8382C42.3583 33.7395 42.4922 33.6841 42.6318 33.6841C42.7714 33.6841 42.9052 33.7395 43.0039 33.8382C43.1026 33.9369 43.1581 34.0708 43.1581 34.2104V48.9472C43.1581 49.0868 43.1026 49.2207 43.0039 49.3194C42.9052 49.4181 42.7714 49.4735 42.6318 49.4735Z" fill="#DCF1AC"/>
<path d="M57.3686 49.4735C57.229 49.4735 57.0951 49.4181 56.9964 49.3194C56.8977 49.2207 56.8423 49.0868 56.8423 48.9472V34.2104C56.8423 34.0708 56.8977 33.9369 56.9964 33.8382C57.0951 33.7395 57.229 33.6841 57.3686 33.6841C57.5082 33.6841 57.6421 33.7395 57.7408 33.8382C57.8395 33.9369 57.8949 34.0708 57.8949 34.2104V48.9472C57.8949 49.0868 57.8395 49.2207 57.7408 49.3194C57.6421 49.4181 57.5082 49.4735 57.3686 49.4735Z" fill="#A0B570"/>
<path d="M43.684 47.3691C43.6274 47.3693 43.5712 47.36 43.5177 47.3417C43.3852 47.2978 43.2757 47.203 43.2131 47.0782C43.1505 46.9534 43.1401 46.8089 43.184 46.6765L45.2893 40.3607C45.3321 40.2316 45.4232 40.1242 45.5435 40.0608C45.6637 39.9974 45.8039 39.983 45.9345 40.0207L52.8177 41.9881L54.763 36.1502C54.8071 36.0176 54.902 35.9079 55.027 35.8453C55.152 35.7827 55.2967 35.7724 55.4293 35.8165C55.5619 35.8606 55.6715 35.9556 55.7341 36.0805C55.7967 36.2055 55.8071 36.3502 55.763 36.4828L53.6577 42.7986C53.6149 42.9276 53.5238 43.0351 53.4035 43.0985C53.2832 43.1619 53.1431 43.1762 53.0124 43.1386L46.1293 41.1712L44.184 47.0091C44.1491 47.114 44.0819 47.2053 43.9922 47.2699C43.9024 47.3345 43.7946 47.3692 43.684 47.3691Z" fill="#212A41"/>
<path d="M56.3158 38.9474C56.2182 38.9474 56.1224 38.9202 56.0393 38.8689C55.9562 38.8176 55.889 38.7442 55.8453 38.6569L55.0274 37.0222L53.3937 37.839C53.2691 37.9003 53.1253 37.9098 52.9936 37.8655C52.862 37.8211 52.7533 37.7266 52.691 37.6024C52.6288 37.4783 52.6182 37.3346 52.6615 37.2026C52.7048 37.0706 52.7985 36.9611 52.9221 36.8979L55.0274 35.8453C55.1522 35.7828 55.2967 35.7724 55.4292 35.8164C55.5616 35.8604 55.6712 35.9553 55.7337 36.0801L56.7863 38.1853C56.8266 38.2656 56.8456 38.3547 56.8416 38.4444C56.8376 38.5341 56.8108 38.6212 56.7636 38.6976C56.7165 38.774 56.6506 38.837 56.5722 38.8807C56.4938 38.9245 56.4056 38.9474 56.3158 38.9474Z" fill="#212A41"/>
</svg>
