<svg width="80" height="73" viewBox="0 0 80 73" fill="none" xmlns="http://www.w3.org/2000/svg">
<path fill-rule="evenodd" clip-rule="evenodd" d="M72.8209 52.3939C66.9081 64.5589 54.4323 72.9462 40 72.9462C37.3747 72.9462 34.8149 72.666 32.3463 72.1383C34.0378 72.399 35.7701 72.5345 37.534 72.5345C51.3374 72.5345 63.2091 64.2553 68.4581 52.3939H72.8209V52.3939ZM40 1.81474e-06C60.1398 1.81474e-06 76.4731 16.3325 76.4731 36.473C76.4731 37.9093 76.387 39.3253 76.2251 40.7187L70.3225 30.4949C66.6431 15.8101 53.3578 4.93204 37.534 4.93204C18.869 4.93204 3.73267 20.0682 3.73267 38.7335C3.73267 39.3043 3.74835 39.8711 3.77698 40.435L3.74665 40.4876C3.60221 39.1688 3.52731 37.8297 3.52731 36.473C3.52731 16.3325 19.8596 1.81474e-06 40 1.81474e-06Z" fill="#277EFB"/>
<path fill-rule="evenodd" clip-rule="evenodd" d="M4.60083 39.0087C4.60015 38.9142 4.59717 38.8199 4.59717 38.7251C4.59717 20.4686 19.402 5.66399 37.6585 5.66399C40.0376 5.66399 42.3587 5.91792 44.5955 6.39596C43.0626 6.15992 41.4921 6.03637 39.8936 6.03637C25.4573 6.03637 13.352 16.0266 10.1089 29.4687L4.60083 39.0087ZM37.6585 71.7865C24.2763 71.7865 12.7498 63.8319 7.54795 52.3939H13.5903C18.9433 61.3318 28.7199 67.3162 39.8936 67.3162C51.0665 67.3162 60.8436 61.3318 66.1966 52.3939H67.7688C62.5666 63.8319 51.0401 71.7865 37.6585 71.7865Z" fill="#1E2931"/>
<path fill-rule="evenodd" clip-rule="evenodd" d="M0.161477 50.6813L0 50.4017L16.2462 22.2648H30.8746L14.4683 50.6813H0.161477Z" fill="#277EFB"/>
<path fill-rule="evenodd" clip-rule="evenodd" d="M22.2162 37.2629L16.2454 22.2649H16.2458L25.2592 24.984L24.1708 33.8764L22.2162 37.2629" fill="#B1CADC"/>
<path fill-rule="evenodd" clip-rule="evenodd" d="M30.8751 22.2648L47.2813 50.6813H32.6522L16.2454 22.2648H30.8751Z" fill="#1E2931"/>
<path fill-rule="evenodd" clip-rule="evenodd" d="M38.5983 35.6408L32.7383 50.4366L41.6932 47.8657L39.9992 37.79L38.5983 35.6408" fill="#B1CADC"/>
<path fill-rule="evenodd" clip-rule="evenodd" d="M32.8798 50.6813L32.7179 50.4017L48.9643 22.2648H63.5926L47.1868 50.6813H32.8798" fill="#1E2931"/>
<path fill-rule="evenodd" clip-rule="evenodd" d="M54.9342 37.2629L48.9634 22.2649H48.9643L57.9771 24.984L56.8889 33.8764L54.9342 37.2629Z" fill="#B1CADC"/>
<path fill-rule="evenodd" clip-rule="evenodd" d="M63.5934 22.2648L80 50.6813H65.37L48.9634 22.2648H63.5934Z" fill="#277EFB"/>
</svg>
