<svg width="69" height="73" viewBox="0 0 69 73" fill="none" xmlns="http://www.w3.org/2000/svg">
<path fill-rule="evenodd" clip-rule="evenodd" d="M8.1221 72.95H47.1597C58.9755 72.95 68.6432 63.2826 68.6432 51.4665C68.6432 39.6504 58.9752 29.9827 47.1597 29.9827H0V42.9347H21.0741H37.9882H47.1597C51.8266 42.9347 55.6912 46.7995 55.6912 51.4665C55.6912 56.1334 51.8266 59.998 47.1597 59.998H21.0741V51.0728H8.1221V72.95Z" fill="#12100E"/>
<path fill-rule="evenodd" clip-rule="evenodd" d="M8.12207 -1.90735e-06H42.5739C54.3897 -1.90735e-06 64.0574 9.66772 64.0574 21.4835V21.4838C64.0574 24.229 63.5349 26.8585 62.5855 29.2774C59.0667 26.8244 54.9429 25.1835 50.4923 24.6318C50.8872 23.6548 51.1054 22.5919 51.1054 21.4835C51.1054 16.8169 47.2409 12.952 42.5739 12.952H21.0741V21.8775H8.12207V-1.90735e-06Z" fill="#E41D25"/>
</svg>
