<svg width="69" height="68" viewBox="0 0 69 68" fill="none" xmlns="http://www.w3.org/2000/svg">
<path d="M50.453 47.1608C50.453 47.4517 50.3374 47.7306 50.1318 47.9363C49.9261 48.142 49.6471 48.2576 49.3562 48.2576H31.8073C31.5164 48.2576 31.2375 48.142 31.0318 47.9363C30.8261 47.7306 30.7105 47.4517 30.7105 47.1608V41.6768H13.1617V64.7097C13.1617 65.5823 13.5083 66.4193 14.1254 67.0363C14.7425 67.6534 15.5794 68.0001 16.4521 68.0001H64.7115C65.5841 68.0001 66.4211 67.6534 67.0381 67.0363C67.6552 66.4193 68.0019 65.5823 68.0019 64.7097V41.6768H50.453V47.1608ZM63.6147 62.516C63.6147 62.8069 63.4991 63.0859 63.2934 63.2916C63.0877 63.4973 62.8087 63.6128 62.5178 63.6128H18.6457C18.3548 63.6128 18.0758 63.4973 17.8701 63.2916C17.6644 63.0859 17.5489 62.8069 17.5489 62.516C17.5489 62.2252 17.6644 61.9462 17.8701 61.7405C18.0758 61.5348 18.3548 61.4192 18.6457 61.4192H62.5178C62.8087 61.4192 63.0877 61.5348 63.2934 61.7405C63.4991 61.9462 63.6147 62.2252 63.6147 62.516Z" fill="#47B4D5" fill-opacity="0.25"/>
<path d="M48.2594 41.6768H32.9041V46.064H48.2594V41.6768Z" fill="#47B4D5" fill-opacity="0.25"/>
<path d="M64.7115 26.3213H52.2276L48.1497 18.1534C48.0582 17.9703 47.9172 17.8164 47.7428 17.7092C47.5683 17.602 47.3673 17.5458 47.1626 17.5469H34.0009C33.7971 17.5468 33.5973 17.6035 33.4239 17.7106C33.2505 17.8178 33.1104 17.9711 33.0193 18.1534L28.9359 26.3213H16.4521C15.5794 26.3213 14.7425 26.668 14.1254 27.2851C13.5083 27.9021 13.1617 28.7391 13.1617 29.6117V39.483H68.0019V29.6117C68.0019 28.7391 67.6552 27.9021 67.0381 27.2851C66.4211 26.668 65.5841 26.3213 64.7115 26.3213ZM31.3883 26.3213L34.6788 19.7405H46.4848L49.7752 26.3213H31.3883Z" fill="#47B4D5" fill-opacity="0.25"/>
<path d="M28.5169 29.6459V27.4084C31.248 26.2867 33.5601 24.3391 35.1295 21.8383C36.6989 19.3375 37.4471 16.4086 37.2694 13.4614C37.0744 9.94658 35.5854 6.62828 33.0893 4.14601C30.5932 1.66374 27.2667 0.193178 23.7508 0.0177242C20.2349 -0.157729 16.7785 0.974341 14.0477 3.19577C11.3168 5.4172 9.50485 8.57077 8.96089 12.0487V12.0641C8.84335 12.7892 8.78102 13.5221 8.77444 14.2566C8.77962 17.069 9.61508 19.8173 11.176 22.1568C12.737 24.4963 14.9539 26.3228 17.5489 27.4073V29.6459C12.8041 29.931 8.34673 32.0153 5.0858 35.4737C1.82487 38.9321 0.00596257 43.5042 0 48.2576V51.548C0 52.4206 0.346668 53.2576 0.96374 53.8746C1.58081 54.4917 2.41774 54.8384 3.29041 54.8384H42.7754C43.648 54.8384 44.485 54.4917 45.102 53.8746C45.7191 53.2576 46.0658 52.4206 46.0658 51.548V48.2576C46.0598 43.5042 44.2409 38.9321 40.98 35.4737C37.719 32.0153 33.2617 29.931 28.5169 29.6459V29.6459ZM23.5297 2.20273C26.003 2.32228 28.3809 3.19391 30.3456 4.7011C32.3102 6.20829 33.768 8.27925 34.5241 10.6372C32.3325 10.1194 30.3295 8.99863 28.7418 7.40159C28.532 7.20157 28.2534 7.08999 27.9636 7.08999C27.6738 7.08999 27.3951 7.20157 27.1854 7.40159C26.0703 8.53342 24.7407 9.43161 23.2744 10.0437C21.8081 10.6557 20.2346 10.9693 18.6457 10.9662H11.4309C12.1661 8.35643 13.7607 6.07124 15.9565 4.48074C18.1524 2.89024 20.8208 2.08758 23.5297 2.20273V2.20273ZM21.9361 52.6448H3.29041C2.99952 52.6448 2.72055 52.5292 2.51486 52.3235C2.30916 52.1178 2.19361 51.8389 2.19361 51.548V48.2576C2.19924 44.7128 3.34802 41.2644 5.46935 38.4244C7.59068 35.5844 10.5714 33.5044 13.9689 32.4932L21.9361 39.9591V52.6448ZM16.5946 31.9481C17.2747 31.8578 17.9597 31.8101 18.6457 31.8055C18.9366 31.8055 19.2155 31.6899 19.4212 31.4842C19.6269 31.2786 19.7425 30.9996 19.7425 30.7087V26.6505C19.7423 26.4239 19.6721 26.203 19.5413 26.018C19.4105 25.8329 19.2256 25.693 19.012 25.6173C16.6633 24.7844 14.6296 23.2456 13.1896 21.2118C11.7495 19.178 10.9736 16.7486 10.968 14.2566C10.968 13.8881 10.99 13.5229 11.0229 13.1598H18.6457C22.0734 13.1684 25.3872 11.9294 27.9685 9.67417C29.9675 11.4043 32.4088 12.5436 35.0188 12.9646C35.0407 13.1686 35.0714 13.3693 35.0824 13.5755C35.2389 16.1827 34.5396 18.7697 33.091 20.9431C31.6424 23.1165 29.5237 24.7574 27.0571 25.6162C26.8427 25.6914 26.657 25.8313 26.5256 26.0166C26.3941 26.2018 26.3234 26.4233 26.3233 26.6505V30.7087C26.3233 30.9996 26.4389 31.2786 26.6446 31.4842C26.8502 31.6899 27.1292 31.8055 27.4201 31.8055C28.1061 31.8101 28.7911 31.8578 29.4711 31.9481L23.0329 37.9816L16.5946 31.9481ZM43.8722 51.548C43.8722 51.8389 43.7566 52.1178 43.5509 52.3235C43.3452 52.5292 43.0663 52.6448 42.7754 52.6448H24.1297V39.9591L32.0969 32.4932C35.4944 33.5044 38.4751 35.5844 40.5964 38.4244C42.7178 41.2644 43.8665 44.7128 43.8722 48.2576V51.548Z" fill="#100F0D"/>
</svg>
