<svg viewBox="0 0 131 31" fill="none" xmlns="http://www.w3.org/2000/svg">
	<path d="M53.7374 19.3126L53.7174 11.0993L49.5898 17.8655H48.1271L44.0196 11.2753V19.3126H40.974V5.62383H43.6589L48.9086 14.1304L54.0781 5.62383H56.743L56.783 19.3126H53.7374ZM69.9088 19.5473C68.4527 19.5473 67.1369 19.2408 65.9615 18.6282C64.7994 18.0155 63.8843 17.1746 63.2165 16.1055C62.5619 15.0235 62.2347 13.811 62.2347 12.4682C62.2347 11.1254 62.5619 9.91951 63.2165 8.85047C63.8843 7.76841 64.7994 6.92099 65.9615 6.30827C67.1369 5.69554 68.4527 5.38916 69.9088 5.38916C71.3646 5.38916 72.6739 5.69554 73.836 6.30827C74.9981 6.92099 75.913 7.76841 76.581 8.85047C77.2489 9.91951 77.5829 11.1254 77.5829 12.4682C77.5829 13.811 77.2489 15.0235 76.581 16.1055C75.913 17.1746 74.9981 18.0155 73.836 18.6282C72.6739 19.2408 71.3646 19.5473 69.9088 19.5473ZM69.9088 16.8486C70.7369 16.8486 71.4849 16.6661 72.1529 16.3011C72.8207 15.923 73.3417 15.4015 73.7158 14.7367C74.1031 14.0718 74.2968 13.3156 74.2968 12.4682C74.2968 11.6208 74.1031 10.8647 73.7158 10.1998C73.3417 9.53491 72.8207 9.01996 72.1529 8.65492C71.4849 8.27685 70.7369 8.08781 69.9088 8.08781C69.0804 8.08781 68.3325 8.27685 67.6647 8.65492C66.9966 9.01996 66.4691 9.53491 66.0818 10.1998C65.7077 10.8647 65.5207 11.6208 65.5207 12.4682C65.5207 13.3156 65.7077 14.0718 66.0818 14.7367C66.4691 15.4015 66.9966 15.923 67.6647 16.3011C68.3325 16.6661 69.0804 16.8486 69.9088 16.8486ZM95.8913 5.62383V19.3126H93.2264L86.2336 11.0016V19.3126H83.0277V5.62383H85.7126L92.6854 13.9349V5.62383H95.8913ZM113.075 16.7704V19.3126H102.215V5.62383H112.815V8.16603H105.441V11.1385H111.953V13.6024H105.441V16.7704H113.075ZM125.259 14.4629V19.3126H122.013V14.4238L116.583 5.62383H120.029L123.776 11.7056L127.523 5.62383H130.709L125.259 14.4629Z" fill="#464B4E" />
	<path d="M47.2408 22.7638V29.2056H46.5713V24.0521L43.9783 28.3865H43.6483L41.0553 24.0797V29.2056H40.3859V22.7638H40.961L43.8275 27.5399L46.6656 22.7638H47.2408ZM54.4736 27.4847H50.7963L50.0042 29.2056H49.2782L52.2955 22.7638H52.9838L56.0011 29.2056H55.2657L54.4736 27.4847ZM54.219 26.9325L52.6349 23.4724L51.0509 26.9325H54.219ZM62.543 29.2056L61.0344 27.135C60.8647 27.1534 60.6886 27.1626 60.5063 27.1626H58.7337V29.2056H58.0359V22.7638H60.5063C61.3486 22.7638 62.0086 22.96 62.4865 23.3527C62.9643 23.7455 63.2031 24.2852 63.2031 24.9724C63.2031 25.4755 63.0711 25.9018 62.807 26.2515C62.5494 26.595 62.1784 26.8435 61.6944 26.9969L63.3068 29.2056H62.543ZM60.4875 26.5828C61.1412 26.5828 61.6409 26.4418 61.9867 26.1595C62.3325 25.8772 62.5053 25.4815 62.5053 24.9724C62.5053 24.4508 62.3325 24.0521 61.9867 23.7761C61.6409 23.4938 61.1412 23.3527 60.4875 23.3527H58.7337V26.5828H60.4875ZM67.8389 26.1779L66.4905 27.5123V29.2056H65.7928V22.7638H66.4905V26.6565L70.3659 22.7638H71.1673L68.3103 25.681L71.3653 29.2056H70.5356L67.8389 26.1779ZM78.1067 28.6166V29.2056H73.4393V22.7638H77.9652V23.3527H74.137V25.6442H77.5504V26.2239H74.137V28.6166H78.1067ZM81.9721 23.3527H79.6526V22.7638H84.9894V23.3527H82.6699V29.2056H81.9721V23.3527ZM88.7655 29.2608C88.2752 29.2608 87.8038 29.1842 87.3512 29.0307C86.9047 28.8773 86.5591 28.6748 86.314 28.4233L86.5874 27.8988C86.8262 28.1319 87.1437 28.3221 87.5398 28.4694C87.9358 28.6104 88.3443 28.681 88.7655 28.681C89.3563 28.681 89.7994 28.5768 90.095 28.3681C90.3904 28.1535 90.5382 27.8774 90.5382 27.5399C90.5382 27.2822 90.4564 27.0768 90.2931 26.9233C90.1358 26.7699 89.9409 26.6535 89.7085 26.5736C89.4758 26.4878 89.1521 26.3958 88.7373 26.2976C88.2406 26.1749 87.8446 26.0583 87.5492 25.9479C87.2536 25.8312 86.999 25.6564 86.7854 25.4233C86.578 25.1903 86.4743 24.8741 86.4743 24.4754C86.4743 24.1504 86.5622 23.8559 86.7383 23.592C86.9141 23.3221 87.1845 23.1073 87.5492 22.9478C87.9136 22.7884 88.3662 22.7086 88.907 22.7086C89.2841 22.7086 89.6519 22.7608 90.0102 22.865C90.3746 22.9632 90.6891 23.1013 90.9531 23.2791L90.7174 23.8221C90.4406 23.6442 90.1453 23.5122 89.831 23.4264C89.5166 23.3343 89.2087 23.2883 88.907 23.2883C88.3285 23.2883 87.8917 23.3987 87.5963 23.6196C87.3071 23.8343 87.1626 24.1136 87.1626 24.457C87.1626 24.7147 87.2411 24.9234 87.3983 25.0828C87.5617 25.2363 87.7628 25.3559 88.0018 25.4417C88.2469 25.5215 88.5737 25.6104 88.9824 25.7086C89.4664 25.8252 89.856 25.9416 90.1516 26.0583C90.4533 26.1687 90.7079 26.3406 90.9154 26.5736C91.1228 26.8007 91.2265 27.1104 91.2265 27.5031C91.2265 27.8282 91.1353 28.1259 90.9531 28.3957C90.777 28.6596 90.5036 28.8713 90.1328 29.0307C89.7617 29.1842 89.3061 29.2608 88.7655 29.2608Z" fill="#464B4E" />
	<path d="M31.416 20.1093C31.416 23.1741 31.417 26.2385 31.4112 29.3034C31.4112 29.4205 31.4539 29.5292 31.3898 29.6669C31.1963 30.0868 30.7892 30.1778 30.3968 29.9037C30.1229 29.7122 29.8486 29.5188 29.5653 29.3383C29.2446 29.1344 28.9414 28.9034 28.6275 28.6891C28.4297 28.5538 28.2094 28.4441 28.0286 28.2905C27.7681 28.069 27.4495 27.9348 27.1896 27.7127C27.0229 27.5695 26.8143 27.4739 26.6303 27.3486C26.3914 27.1858 26.1604 27.011 25.922 26.8472C25.6631 26.6697 25.3905 26.5101 25.1396 26.3223C24.8707 26.121 24.5354 25.9836 24.3825 25.6606C24.2986 25.4832 24.2198 25.3079 24.2198 25.0966C24.2264 20.6763 24.2194 16.2562 24.2312 11.8357C24.2328 11.2573 23.9777 10.8718 23.5024 10.5706C23.1339 10.3371 22.7922 10.0645 22.4217 9.83513C21.8448 9.47775 21.3036 9.07202 20.739 8.69748C20.3049 8.4093 19.8792 8.10864 19.444 7.82097C19.028 7.54633 18.6077 7.2753 18.2056 6.98452C17.8126 6.7 17.4105 6.42638 17.01 6.15381C16.6577 5.914 16.3122 5.66067 15.9444 5.44011C15.623 5.24765 15.3247 5.01929 15.0156 4.80706C14.7359 4.61563 14.4568 4.42419 14.1761 4.23433C13.9221 4.06216 13.6692 3.88737 13.4147 3.71572C13.0869 3.49464 12.7592 3.27149 12.44 3.03741C12.0769 2.77107 12.0988 2.36637 12.4346 2.12656C13.0388 1.69585 13.6591 1.28699 14.2724 0.868244C14.6322 0.6222 14.9883 0.370432 15.3525 0.130629C15.6642 -0.0743225 16.354 -0.026466 16.6619 0.19305C16.9277 0.382395 17.2106 0.547293 17.4795 0.732478C17.7955 0.949914 18.1019 1.18087 18.4179 1.39831C18.6863 1.58297 18.9654 1.75359 19.2355 1.93618C19.5007 2.11513 19.7595 2.30343 20.0236 2.48392C20.3551 2.71072 20.6893 2.93337 21.0219 3.15913C21.2808 3.33494 21.538 3.51284 21.7976 3.68814C21.9994 3.82391 22.2051 3.95395 22.4056 4.09129C22.7436 4.32276 23.0756 4.56258 23.4157 4.79144C23.6793 4.9683 23.9472 5.14205 24.204 5.32566C24.4713 5.51657 24.7509 5.69189 25.0129 5.89058C25.2577 6.0763 25.5267 6.23234 25.7828 6.40505C26.0501 6.58504 26.3144 6.77021 26.5812 6.95176C26.8426 7.12966 27.1058 7.30652 27.3677 7.48338C27.6125 7.64881 27.858 7.81421 28.1024 7.98066C28.467 8.2288 28.8312 8.47745 29.1943 8.72713C29.4364 8.8936 29.6755 9.06472 29.9187 9.23015C30.1782 9.40701 30.4444 9.57346 30.7004 9.75501C30.9562 9.93604 31.2299 10.1077 31.3335 10.4229C31.3838 10.5753 31.4197 10.7329 31.4153 10.8958C31.4137 10.9483 31.4149 11.0003 31.4149 11.0529C31.416 14.071 31.416 17.0901 31.416 20.1093Z" fill="#186AB4" />
	<path d="M19.2282 21.7706C19.2282 24.3541 19.2229 26.9377 19.2335 29.5215C19.235 29.9604 18.7975 30.1178 18.5158 30.0415C18.2478 29.9692 18.0456 29.7848 17.8329 29.63C17.5697 29.4388 17.2964 29.2637 17.031 29.0757C16.6246 28.7874 16.2144 28.5042 15.7995 28.2273C15.4983 28.0262 15.2045 27.8142 14.8997 27.6173C14.5158 27.3684 14.1552 27.0849 13.7798 26.823C13.4976 26.6261 13.2059 26.4427 12.9216 26.2489C12.5956 26.026 12.2802 25.7865 12.1734 25.386C12.1444 25.2779 12.087 25.1583 12.1402 25.0312C12.1612 24.9807 12.146 24.9146 12.146 24.856C12.146 21.5595 12.146 18.2626 12.1465 14.9662C12.1465 14.4498 11.8943 14.0892 11.4631 13.8144C11.0482 13.55 10.6528 13.2554 10.2479 12.9754C9.89774 12.7333 9.54445 12.4953 9.19537 12.2517C8.85945 12.0179 8.53564 11.7654 8.18971 11.5467C7.62318 11.1887 7.10035 10.7705 6.53697 10.4084C6.19262 10.187 5.87829 9.91949 5.52814 9.70855C5.09483 9.44724 4.7131 9.11629 4.28029 8.85445C4.0739 8.72976 3.84856 8.57961 3.83433 8.29751C3.81907 7.9936 4.01493 7.82733 4.25239 7.6694C4.53092 7.48393 4.81418 7.30469 5.07271 7.08753C5.28701 6.90725 5.53867 6.7701 5.77193 6.61112C6.12681 6.36901 6.48167 6.12639 6.83391 5.88013C7.17036 5.6453 7.54525 5.57257 7.93013 5.69466C8.13654 5.76012 8.31555 5.91235 8.50193 6.0334C8.80205 6.22772 9.1106 6.41318 9.39281 6.63087C9.66134 6.83816 9.94354 7.02467 10.2194 7.22105C10.5696 7.46989 10.9239 7.71305 11.2751 7.96034C11.6242 8.20608 11.9733 8.45286 12.3282 8.68716C12.9 9.06487 13.4486 9.47477 14.0209 9.85143C14.3521 10.0696 14.6717 10.3107 14.9997 10.5331C15.2646 10.7123 15.5362 10.8889 15.7995 11.0708C16.0349 11.2334 16.2681 11.4038 16.504 11.5669C16.7967 11.7701 17.1021 11.9592 17.388 12.1691C17.8519 12.5093 18.3542 12.7972 18.7938 13.1676C19.085 13.4128 19.2324 13.7256 19.2314 14.1173C19.2256 16.6682 19.2282 19.2196 19.2282 21.7706Z" fill="#186AB4" />
	<path d="M7.68092 23.4575C7.68092 25.4487 7.67934 27.4405 7.68302 29.4319C7.68355 29.6494 7.64681 29.8522 7.44906 29.9678C7.18943 30.12 6.92399 30.0728 6.68323 29.9069C6.40311 29.7139 6.10361 29.543 5.83871 29.3357C5.46523 29.0438 5.05818 28.7992 4.67684 28.5196C4.47698 28.3732 4.24357 28.2463 4.04424 28.1009C3.7956 27.9202 3.52547 27.7687 3.2847 27.5741C2.97993 27.3279 2.61747 27.1509 2.30589 26.9123C2.06093 26.7243 1.79236 26.5724 1.54687 26.3849C1.33705 26.2247 1.09734 26.1024 0.9085 25.914C0.711794 25.718 0.627867 25.4728 0.627867 25.2076C0.625244 21.1662 0.626293 17.1251 0.625244 13.0841C0.625244 12.8486 0.71704 12.65 0.93525 12.5707C1.12409 12.5021 1.31869 12.5016 1.53114 12.6331C1.95077 12.8927 2.34313 13.1886 2.74808 13.4655C3.22542 13.7916 3.70381 14.1177 4.17958 14.4458C4.5882 14.7274 4.99367 15.0171 5.41644 15.2807C5.75269 15.4906 6.05693 15.7496 6.39367 15.9585C6.68218 16.1376 6.9497 16.345 7.23819 16.5247C7.41655 16.6352 7.5246 16.8313 7.60434 17.0345C7.70662 17.2956 7.6804 17.5633 7.68092 17.8305C7.68197 19.7062 7.68092 21.5817 7.68092 23.4575Z" fill="#186AB4" />
</svg>
