<svg width="51" height="51" viewBox="0 0 51 51" fill="none" xmlns="http://www.w3.org/2000/svg">
<path d="M50.9848 34.1176C50.9848 39.3173 50.9865 44.5163 50.977 49.7164C50.977 49.9151 51.0476 50.0994 50.9415 50.3331C50.621 51.0454 49.947 51.1998 49.2973 50.7348C48.8438 50.41 48.3896 50.0817 47.9203 49.7756C47.3893 49.4296 46.8873 49.0378 46.3676 48.6741C46.04 48.4445 45.6752 48.2585 45.3759 47.9979C44.9446 47.622 44.417 47.3945 43.9867 47.0176C43.7106 46.7747 43.3652 46.6124 43.0605 46.3998C42.665 46.1236 42.2824 45.827 41.8876 45.5491C41.459 45.248 41.0075 44.9773 40.5922 44.6585C40.1468 44.317 39.5916 44.084 39.3384 43.536C39.1995 43.235 39.0691 42.9376 39.0691 42.5791C39.0801 35.0796 39.0685 27.5804 39.0879 20.0806C39.0906 19.0992 38.6682 18.4452 37.8812 17.9342C37.2711 17.538 36.7053 17.0755 36.0917 16.6863C35.1365 16.08 34.2404 15.3917 33.3055 14.7562C32.5865 14.2673 31.8818 13.7572 31.1611 13.2691C30.4722 12.8032 29.7763 12.3433 29.1105 11.85C28.4597 11.3673 27.794 10.903 27.1308 10.4406C26.5473 10.0337 25.9754 9.60393 25.3662 9.22972C24.8341 8.9032 24.3401 8.51576 23.8283 8.15569C23.3653 7.83091 22.9031 7.50612 22.4383 7.18399C22.0177 6.89189 21.5989 6.59534 21.1775 6.30412C20.6348 5.92903 20.092 5.55043 19.5634 5.15329C18.9623 4.70142 18.9986 4.0148 19.5546 3.60793C20.5551 2.87719 21.5821 2.18352 22.5976 1.47307C23.1935 1.05563 23.7832 0.628477 24.3861 0.221625C24.9023 -0.126096 26.0444 -0.0449024 26.5544 0.327531C26.9945 0.648774 27.4628 0.928541 27.9082 1.24273C28.4314 1.61163 28.9388 2.00348 29.462 2.37238C29.9065 2.68568 30.3686 2.97516 30.8157 3.28493C31.2549 3.58854 31.6834 3.90802 32.1208 4.21423C32.6698 4.59903 33.2231 4.97678 33.7738 5.3598C34.2025 5.65809 34.6284 5.95991 35.0584 6.25732C35.3924 6.48767 35.733 6.7083 36.0651 6.94131C36.6247 7.33403 37.1745 7.7409 37.7376 8.1292C38.174 8.42925 38.6177 8.72404 39.0429 9.03556C39.4855 9.35946 39.9486 9.6569 40.3823 9.994C40.7877 10.3091 41.2331 10.5738 41.6572 10.8669C42.0998 11.1722 42.5373 11.4864 42.9793 11.7944C43.412 12.0962 43.8478 12.3963 44.2815 12.6963C44.6869 12.977 45.0934 13.2576 45.4981 13.5401C46.1018 13.961 46.7048 14.3829 47.3061 14.8065C47.707 15.0889 48.1029 15.3793 48.5056 15.6599C48.9352 15.96 49.3761 16.2424 49.8 16.5504C50.2235 16.8576 50.6767 17.1488 50.8483 17.6836C50.9316 17.9422 50.991 18.2096 50.9838 18.4858C50.9811 18.575 50.9831 18.6632 50.9831 18.7524C50.9848 23.8729 50.9848 28.9951 50.9848 34.1176Z" fill="#186AB4"/>
<path d="M30.8037 36.9361C30.8037 41.3194 30.7949 45.7027 30.8124 50.0864C30.815 50.8311 30.0905 51.0981 29.6241 50.9687C29.1803 50.846 28.8455 50.5331 28.4933 50.2705C28.0574 49.946 27.6049 49.6491 27.1655 49.3301C26.4924 48.8409 25.8133 48.3605 25.1263 47.8906C24.6276 47.5495 24.1411 47.1898 23.6363 46.8558C23.0007 46.4335 22.4035 45.9524 21.7819 45.508C21.3146 45.1741 20.8316 44.8629 20.3608 44.534C19.8211 44.1559 19.2989 43.7496 19.1219 43.0701C19.074 42.8866 18.9789 42.6838 19.067 42.4681C19.1019 42.3825 19.0766 42.2704 19.0766 42.1708C19.0766 36.5781 19.0766 30.9846 19.0775 25.3918C19.0775 24.5157 18.6598 23.9039 17.9458 23.4377C17.2588 22.989 16.6041 22.4892 15.9336 22.0141C15.3538 21.6034 14.7688 21.1997 14.1908 20.7863C13.6346 20.3897 13.0984 19.9613 12.5256 19.5902C11.5875 18.9829 10.7218 18.2733 9.78892 17.6589C9.21873 17.2834 8.69825 16.8295 8.11845 16.4716C7.40095 16.0283 6.76886 15.4668 6.0522 15.0226C5.71045 14.811 5.33732 14.5563 5.31376 14.0776C5.28849 13.562 5.6128 13.2799 6.006 13.012C6.4672 12.6973 6.93624 12.3932 7.36432 12.0248C7.71917 11.7189 8.13589 11.4862 8.52213 11.2165C9.10976 10.8057 9.69735 10.3941 10.2806 9.9763C10.8377 9.57789 11.4585 9.4545 12.0958 9.66164C12.4376 9.7727 12.734 10.031 13.0426 10.2363C13.5396 10.566 14.0505 10.8807 14.5178 11.25C14.9624 11.6017 15.4297 11.9181 15.8865 12.2513C16.4663 12.6735 17.053 13.0861 17.6346 13.5056C18.2126 13.9225 18.7906 14.3412 19.3782 14.7387C20.3251 15.3795 21.2335 16.075 22.1812 16.714C22.7296 17.0842 23.2588 17.4932 23.802 17.8705C24.2405 18.1746 24.6903 18.4743 25.1263 18.7828C25.516 19.0587 25.9022 19.3478 26.2928 19.6246C26.7775 19.9692 27.2832 20.29 27.7566 20.6462C28.5247 21.2235 29.3564 21.7118 30.0844 22.3403C30.5665 22.7563 30.8106 23.2869 30.8089 23.9515C30.7993 28.2794 30.8037 32.6082 30.8037 36.9361Z" fill="#186AB4"/>
<path d="M11.6831 39.7981C11.6831 43.1764 11.6805 46.5558 11.6866 49.9344C11.6875 50.3033 11.6266 50.6474 11.2992 50.8436C10.8693 51.1017 10.4298 51.0217 10.0311 50.7402C9.56727 50.4128 9.07134 50.1229 8.63271 49.771C8.01428 49.2759 7.34027 48.8609 6.70882 48.3865C6.37789 48.1381 5.99139 47.9229 5.66134 47.6762C5.24963 47.3695 4.80233 47.1124 4.40365 46.7824C3.89901 46.3646 3.29882 46.0643 2.7829 45.6596C2.37727 45.3406 1.93257 45.0828 1.52607 44.7648C1.17865 44.493 0.781713 44.2855 0.469028 43.9658C0.143314 43.6334 0.00434282 43.2173 0.00434282 42.7674C-2.49428e-08 35.9106 0.00173714 29.0546 0 22.1986C0 21.7991 0.152 21.4621 0.513323 21.3275C0.826011 21.2111 1.14825 21.2102 1.50002 21.4334C2.19487 21.8738 2.84456 22.3758 3.51509 22.8456C4.30549 23.3989 5.09764 23.9521 5.88544 24.5088C6.56205 24.9865 7.23345 25.478 7.9335 25.9253C8.49026 26.2814 8.99404 26.7209 9.55164 27.0752C10.0294 27.3792 10.4723 27.731 10.95 28.0358C11.2454 28.2234 11.4243 28.5561 11.5563 28.9008C11.7257 29.3438 11.6823 29.798 11.6831 30.2514C11.6849 33.4335 11.6831 36.6156 11.6831 39.7981Z" fill="#186AB4"/>
</svg>
