<svg width="40" height="30" viewBox="0 0 40 30" fill="none" xmlns="http://www.w3.org/2000/svg">
<path fill-rule="evenodd" clip-rule="evenodd" d="M8.31903 7.93701C9.37789 6.84786 10.4934 6.84141 11.2647 7.24799C13.1602 8.24693 13.531 11.3155 13.7154 13.5106C13.8626 15.2642 14.0918 16.7984 14.3799 18.5138C14.694 20.3839 15.0323 23.7895 15.5537 25.3596C15.8805 26.3453 16.4911 26.9045 17.2399 27.2555C19.7194 28.4195 25.3569 29.3 26.7915 26.2209C25.7324 27.3105 24.6169 27.3167 23.8456 26.9101C21.95 25.9114 21.5791 22.8428 21.3947 20.6475C21.2475 18.894 21.0184 17.3598 20.7304 15.644C20.4163 13.7739 20.0777 10.3686 19.5568 8.79825C19.2298 7.81281 18.6191 7.25369 17.87 6.90224C15.3909 5.7386 9.75322 4.85799 8.31903 7.93701Z" fill="url(#paint0_linear_73_646)"/>
<path fill-rule="evenodd" clip-rule="evenodd" d="M4.35672 26.0123L3.96058 26.809C3.78792 27.1567 3.93444 27.5753 4.28018 27.7513H4.2804C4.62636 27.9273 5.05569 27.7771 5.22835 27.4295L5.6245 26.6327C5.79716 26.285 5.6508 25.8664 5.30489 25.6904L5.30468 25.6901C4.95855 25.5146 4.5296 25.6641 4.35672 26.0123ZM1.84538 27.5486L1.13194 28.9836C0.959178 29.3313 1.10575 29.7503 1.45155 29.9262H1.45176C1.79767 30.1017 2.22684 29.9521 2.3995 29.6045L3.11294 28.1692C3.28565 27.8219 3.13935 27.4029 2.79334 27.2273L2.79317 27.2269C2.44721 27.0509 2.01804 27.2009 1.84538 27.5486ZM1.0376 24.4287L0.0726519 26.3701C-0.100006 26.7178 0.0463494 27.1365 0.392311 27.3127H0.392526C0.738434 27.4883 1.16761 27.3388 1.34026 26.9911L2.30548 25.0496C2.47793 24.7019 2.33178 24.2829 1.98577 24.1071H1.9855C1.63948 23.9315 1.21053 24.0811 1.0376 24.4287ZM13.6512 12.8106C12.2428 15.6585 10.3449 19.3969 8.97234 22.1802C8.9611 22.2462 8.94039 22.3115 8.9092 22.3741L7.25292 25.7064C7.08026 26.0541 6.65087 26.2041 6.30496 26.0283C5.95906 25.8519 5.81249 25.4332 5.98536 25.0856C6.69751 23.6529 7.34452 22.2882 8.04827 20.8724C8.22093 20.5251 8.07458 20.1061 7.72867 19.9301H7.72845C7.38254 19.7541 6.95337 19.9041 6.78066 20.2518C5.99778 21.8268 5.21652 23.403 4.43359 24.9779C4.26093 25.3257 3.8316 25.4756 3.48585 25.2997H3.48542C3.13973 25.1237 2.99337 24.7047 3.16603 24.3574C3.82853 23.024 4.47732 21.7054 5.13906 20.3743C5.31172 20.0267 5.16521 19.6084 4.8193 19.432H4.81908C4.47328 19.2561 4.044 19.4061 3.87129 19.7537C3.32363 20.8556 2.77279 21.9066 2.23007 22.9984C2.05736 23.3461 1.666 23.3774 1.28233 23.3201H1.28207C0.898399 23.2625 0.789801 22.7251 0.962459 22.3775L1.35419 21.589L1.33338 21.5859C3.37532 17.3834 4.0745 15.9263 6.21245 11.7715C6.78561 10.6575 7.4245 9.25232 8.11298 8.24138C8.21066 8.09809 8.31178 7.96486 8.41537 7.8412C9.44508 6.84785 10.5167 6.85372 11.2647 7.24798C12.9656 8.14445 13.4389 10.7075 13.6512 12.8106Z" fill="url(#paint1_linear_73_646)"/>
<path fill-rule="evenodd" clip-rule="evenodd" d="M25.0779 23.443L24.1127 25.3848C23.9399 25.7321 24.0865 26.1511 24.4326 26.3266C24.7783 26.503 25.2077 26.3526 25.3806 26.0053L26.3453 24.0635C26.5182 23.7162 26.3717 23.2972 26.0258 23.1213H26.0255C25.6797 22.9454 25.2504 23.0954 25.0779 23.443ZM22.6808 20.4174L22.2848 21.2142C22.1118 21.562 22.2585 21.9807 22.6041 22.1565H22.6045C22.9503 22.3325 23.3796 22.1825 23.5521 21.8348L23.9483 21.038C24.1212 20.6907 23.9747 20.2717 23.6289 20.0957H23.6285C23.2827 19.9197 22.8534 20.0693 22.6808 20.4174ZM28.3775 7.39186L24.2257 6.77018L39.9296 -7.62939e-06C36.0984 7.84792 32.6397 15.4562 28.3642 23.0927C28.199 23.3881 27.7219 23.5575 27.3707 23.3667C27.1239 23.2331 26.8709 22.8934 27.1249 22.4141L29.2995 18.3093C29.5857 17.7696 29.3946 17.3854 29.1122 17.2151C28.792 17.0225 28.3374 17.1125 28.023 17.7059L25.7775 21.9443C25.0974 23.2278 23.9369 22.4816 24.4993 21.3569C25.3217 19.7136 26.1877 18.0543 27.0624 16.4038C27.6703 15.2554 26.4051 14.6311 25.7859 15.8L24.2372 18.723C24.0624 19.0527 23.6861 19.2686 23.3941 19.2321C22.9958 19.1818 22.7183 18.7371 22.9958 18.1779C24.784 14.5802 26.5872 10.9899 28.3775 7.39186Z" fill="url(#paint2_linear_73_646)"/>
<defs>
<linearGradient id="paint0_linear_73_646" x1="9.53909" y1="3.20289" x2="26.483" y2="32.5334" gradientUnits="userSpaceOnUse">
<stop stop-color="#8ED8C6"/>
<stop offset="0.175355" stop-color="#47B4D5"/>
<stop offset="0.683681" stop-color="#356CBE"/>
<stop offset="1" stop-color="#29449D"/>
</linearGradient>
<linearGradient id="paint1_linear_73_646" x1="-3.55285" y1="37.783" x2="15.0772" y2="3.17195" gradientUnits="userSpaceOnUse">
<stop stop-color="#8ED8C6"/>
<stop offset="0.322581" stop-color="#47B4D5"/>
<stop offset="0.698925" stop-color="#356CBE"/>
<stop offset="1" stop-color="#29449D"/>
</linearGradient>
<linearGradient id="paint2_linear_73_646" x1="19.4685" y1="27.4259" x2="36.6238" y2="-3.95124" gradientUnits="userSpaceOnUse">
<stop stop-color="#8ED8C6"/>
<stop offset="0.322581" stop-color="#47B4D5"/>
<stop offset="0.698925" stop-color="#356CBE"/>
<stop offset="1" stop-color="#29449D"/>
</linearGradient>
</defs>
</svg>
