<svg width="83" height="73" viewBox="0 0 83 73" fill="none" xmlns="http://www.w3.org/2000/svg">
<path d="M81.1415 21.4726H0V62.5454C0 68.2913 4.65805 72.95 10.404 72.95H81.1415C82.0614 72.95 82.8075 72.2039 82.8075 71.2834V23.1386C82.8075 22.2181 82.0614 21.4726 81.1415 21.4726V21.4726Z" fill="#64BDFF"/>
<path d="M82.8075 23.1393V71.284C82.8075 72.2039 82.0614 72.95 81.1416 72.95H76.9409C77.8608 72.95 78.6069 72.2039 78.6069 71.284V23.1393C78.6069 22.2175 77.8608 21.4726 76.9409 21.4726H81.1416C82.0614 21.4726 82.8075 22.2175 82.8075 23.1393Z" fill="#43A3F9"/>
<path d="M14.6381 49.8152C14.6381 50.7357 13.8927 51.4811 12.9722 51.4811H10.4034C4.65805 51.4811 0 56.1392 0 61.8852V10.404C0 4.65805 4.65805 0 10.404 0H12.9722C13.892 0 14.6381 0.746122 14.6381 1.66598V49.8152Z" fill="#1685FB"/>
<path d="M75.038 43.0243C75.038 37.7256 70.7274 33.4156 65.4294 33.4156C60.3247 33.4156 56.1386 37.4167 55.8391 42.4475H50.0868C49.3969 42.4475 48.8378 43.0066 48.8378 43.6971V57.9713C48.8378 58.6612 49.3969 59.221 50.0868 59.221H64.3611C65.0516 59.221 65.6107 58.6612 65.6107 57.9713V52.6284C70.8254 52.5312 75.038 48.2616 75.038 43.0243ZM65.4294 35.9143C69.3495 35.9143 72.5387 39.1041 72.5387 43.0243C72.5387 46.8837 69.4475 50.0325 65.6107 50.1292V43.6971C65.6107 43.0066 65.0516 42.4475 64.3611 42.4475H58.3447C58.6398 38.7964 61.7032 35.9143 65.4294 35.9143V35.9143ZM63.1114 49.7444C60.923 48.9869 59.2166 47.1902 58.5854 44.9467H63.1114V49.7444ZM51.3365 56.7217V44.9467H56.0135C56.7527 48.5725 59.5413 51.4616 63.1114 52.3492V56.7217H51.3365Z" fill="#1685FB"/>
<path d="M72.8508 53.4959H70.071C69.3811 53.4959 68.8214 54.0556 68.8214 54.7455C68.8214 55.436 69.3811 55.9952 70.071 55.9952H72.8508C73.5413 55.9952 74.1005 55.436 74.1005 54.7455C74.1005 54.0556 73.5413 53.4959 72.8508 53.4959Z" fill="#1685FB"/>
<path d="M72.8508 56.7217H70.071C69.3811 56.7217 68.8214 57.2808 68.8214 57.9713C68.8214 58.6612 69.3811 59.2204 70.071 59.2204H72.8508C73.5413 59.2204 74.1005 58.6612 74.1005 57.9713C74.1005 57.2808 73.5413 56.7217 72.8508 56.7217Z" fill="#1685FB"/>
<path d="M21.5763 32.9178H23.5758C24.2657 32.9178 24.8255 32.3581 24.8255 31.6682C24.8255 30.9783 24.2657 30.4185 23.5758 30.4185H21.5763C20.8864 30.4185 20.3272 30.9783 20.3272 31.6682C20.3272 32.3581 20.8864 32.9178 21.5763 32.9178Z" fill="#1685FB"/>
<path d="M21.5763 36.5581H31.2228C31.9127 36.5581 32.4724 35.999 32.4724 35.3084C32.4724 34.6185 31.9127 34.0594 31.2228 34.0594H21.5763C20.8864 34.0594 20.3272 34.6185 20.3272 35.3084C20.3272 35.999 20.8864 36.5581 21.5763 36.5581Z" fill="#1685FB"/>
<path d="M29.2232 32.9178H31.2228C31.9127 32.9178 32.4724 32.3581 32.4724 31.6682C32.4724 30.9783 31.9127 30.4185 31.2228 30.4185H29.2232C28.5333 30.4185 27.9742 30.9783 27.9742 31.6682C27.9742 32.3581 28.5333 32.9178 29.2232 32.9178Z" fill="#1685FB"/>
<path d="M36.8702 32.9178H38.8697C39.5596 32.9178 40.1194 32.3581 40.1194 31.6682C40.1194 30.9783 39.5596 30.4185 38.8697 30.4185H36.8702C36.1803 30.4185 35.6205 30.9783 35.6205 31.6682C35.6205 32.3581 36.1803 32.9178 36.8702 32.9178Z" fill="#1685FB"/>
<path d="M21.5763 40.1718H31.2228C31.9127 40.1718 32.4724 39.6121 32.4724 38.9222C32.4724 38.2316 31.9127 37.6725 31.2228 37.6725H21.5763C20.8864 37.6725 20.3272 38.2316 20.3272 38.9222C20.3272 39.6121 20.8864 40.1718 21.5763 40.1718Z" fill="#1685FB"/>
<path d="M21.5763 43.7849H36.8702C37.5601 43.7849 38.1198 43.2252 38.1198 42.5353C38.1198 41.8454 37.5601 41.2856 36.8702 41.2856H21.5763C20.8864 41.2856 20.3272 41.8454 20.3272 42.5353C20.3272 43.2252 20.8864 43.7849 21.5763 43.7849Z" fill="#1685FB"/>
<path d="M21.5763 47.398H38.8697C39.5596 47.398 40.1194 46.8389 40.1194 46.1484C40.1194 45.4585 39.5596 44.8987 38.8697 44.8987H21.5763C20.8864 44.8987 20.3272 45.4585 20.3272 46.1484C20.3272 46.8389 20.8864 47.398 21.5763 47.398Z" fill="#1685FB"/>
<path d="M25.02 50.7205H21.5769C20.8864 50.7205 20.3272 51.2796 20.3272 51.9701V55.4133C20.3272 56.1038 20.8864 56.6629 21.5769 56.6629H25.02C25.7099 56.6629 26.2697 56.1032 26.2697 55.4133V51.9701C26.2697 51.2796 25.7099 50.7205 25.02 50.7205ZM23.7704 54.1636H22.8259V53.2198H23.7704V54.1636Z" fill="#1685FB"/>
<path d="M33.2817 50.7205H29.8386C29.1487 50.7205 28.5889 51.2796 28.5889 51.9701V55.4133C28.5889 56.1038 29.1487 56.6629 29.8386 56.6629H33.2817C33.9723 56.6629 34.5314 56.1032 34.5314 55.4133V51.9701C34.5314 51.2796 33.9723 50.7205 33.2817 50.7205ZM32.0321 54.1636H31.0882V53.2198H32.0321V54.1636Z" fill="#1685FB"/>
<path d="M41.544 50.7205H38.1002C37.4103 50.7205 36.8512 51.2796 36.8512 51.9701V55.4133C36.8512 56.1038 37.4103 56.6629 38.1002 56.6629H41.544C42.2339 56.6629 42.7937 56.1032 42.7937 55.4133V51.9701C42.7937 51.2796 42.2339 50.7205 41.544 50.7205ZM40.2944 54.1636H39.3505V53.2198H40.2944V54.1636Z" fill="#1685FB"/>
<path d="M25.02 59.4952H21.5769C20.8864 59.4952 20.3272 60.0549 20.3272 60.7448V64.1886C20.3272 64.8785 20.8864 65.4382 21.5769 65.4382H25.02C25.7099 65.4382 26.2697 64.8785 26.2697 64.1886V60.7448C26.2697 60.0549 25.7099 59.4952 25.02 59.4952ZM23.7704 62.9389H22.8259V61.9945H23.7704V62.9389Z" fill="#1685FB"/>
<path d="M33.2817 59.4952H29.8386C29.1487 59.4952 28.5889 60.0549 28.5889 60.7448V64.1886C28.5889 64.8785 29.1487 65.4382 29.8386 65.4382H33.2817C33.9723 65.4382 34.5314 64.8785 34.5314 64.1886V60.7448C34.5314 60.0549 33.9723 59.4952 33.2817 59.4952ZM32.0321 62.9389H31.0882V61.9945H32.0321V62.9389Z" fill="#1685FB"/>
<path d="M41.544 59.4952H38.1002C37.4103 59.4952 36.8512 60.0549 36.8512 60.7448V64.1886C36.8512 64.8785 37.4103 65.4382 38.1002 65.4382H41.544C42.2339 65.4382 42.7937 64.8785 42.7937 64.1886V60.7448C42.7937 60.0549 42.2339 59.4952 41.544 59.4952ZM40.2944 62.9389H39.3505V61.9945H40.2944V62.9389Z" fill="#1685FB"/>
<path d="M52.1471 34.815L46.7821 37.4824C46.1832 37.7799 45.5293 37.1917 45.7611 36.565L47.839 30.9454L52.1471 34.815Z" fill="#4E7693"/>
<path d="M53.3005 34.4852L74.8338 10.5133C75.2881 10.0085 75.247 9.2308 74.741 8.77592L71.3142 5.69793C70.8082 5.24369 70.0311 5.28602 69.5769 5.79144L48.0436 29.7634C47.5893 30.2694 47.631 31.0459 48.1371 31.5007L51.5632 34.5787C52.0698 35.033 52.8463 34.9919 53.3005 34.4852Z" fill="#C0FF66"/>
<path d="M53.3007 34.4852L74.834 10.5133C75.2882 10.0085 75.2471 9.23081 74.7411 8.77593L73.0277 7.23694L49.8506 33.0397L51.5633 34.5787C52.07 35.033 52.8464 34.9919 53.3007 34.4852Z" fill="#9BE058"/>
<path d="M72.5014 13.1099L74.8339 10.514C75.2876 10.0086 75.2471 9.23085 74.7404 8.77661L71.3143 5.69862C70.8083 5.24375 70.0306 5.28607 69.577 5.79149L67.2445 8.38807L72.5014 13.1099Z" fill="#FD82AC"/>
</svg>
