<svg width="63" height="51" viewBox="0 0 63 51" fill="none" xmlns="http://www.w3.org/2000/svg">
<path fill-rule="evenodd" clip-rule="evenodd" d="M27.9075 16.3406L31.008 14.5252L34.11 16.3406L37.2105 18.1559L34.11 19.9721L31.008 21.7874L27.9083 23.602V27.2343L31.008 29.0497L34.11 27.2343L37.2097 25.4182L40.311 23.6028L43.4123 21.7874L46.5127 19.9721L48.6456 18.7227L49.614 18.1559L46.9795 16.6144L46.5127 16.3406L43.4123 14.5252L40.311 12.7091L37.2105 10.8937L34.11 9.07756L31.008 7.26221L27.9075 9.07756L24.807 10.8937L21.7058 12.7091L18.605 14.5252L15.5042 16.3406L12.4033 18.1559L15.5042 19.9713V23.6028V27.2343V30.865V32.7312V34.4965L18.605 36.3119L21.7058 38.1272L24.807 39.9434L27.9075 41.7587L31.008 43.5749L34.11 41.7595L37.2105 39.9434L40.311 38.1272L43.4123 36.3119L46.5127 34.4965V30.865V27.2343L43.4123 29.0497L40.311 30.865L37.2097 32.6812L34.11 34.4965L31.008 36.3119L27.9075 34.4965L24.807 32.6812L21.7058 30.865V19.9721L24.807 18.1559L27.9075 16.3406ZM6.20166 21.7874L9.30197 23.6028V27.2343V30.865V34.4965V38.1272L12.4033 39.9434L15.5042 41.7587L18.605 43.5749L21.7058 45.3902L24.807 47.2056L27.9075 49.0217L31.008 50.8365L34.11 49.0217L37.2105 47.2056L40.311 45.3902L43.4123 43.5749L46.5127 41.7587L49.614 39.9434L52.7145 38.1272V34.4965V30.865V27.2343V23.6028L55.8157 21.7874V28.3607C55.5593 28.5186 55.3879 28.8163 55.3879 29.1306C55.3879 29.4442 55.5339 29.6974 55.7562 29.8609L55.6546 30.1808L55.0323 32.1271H56.2761H57.5208L56.8984 30.1808L56.796 29.8609C57.0191 29.6974 57.1636 29.4775 57.1636 29.1306C57.1636 28.783 56.9143 28.4011 56.5658 28.2789V21.3485L31.7581 6.82325L32.5082 6.3835L57.316 20.9087L58.9162 19.9721L62.0175 18.1559L58.9162 16.3406L55.8157 14.5252L52.7145 12.7091L49.614 10.8937L46.5127 9.07756L43.4123 7.26221L40.311 5.44685L37.2097 3.6315L34.11 1.81535L31.008 -1.14441e-05L27.9075 1.81535L24.807 3.6315L21.7058 5.44685L18.605 7.26221L15.5042 9.07756L12.4033 10.8937L9.30197 12.7091L6.20166 14.5252L3.10023 16.3406L0 18.1559L3.10023 19.9721L6.20166 21.7874Z" fill="#186AB4"/>
</svg>
