<svg width="23" height="20" viewBox="0 0 23 20" fill="none" xmlns="http://www.w3.org/2000/svg">
<path d="M11.559 0.0129039L6.18624 6.55098L4.95618 2.11356C5.80601 1.44451 6.77751 0.908217 7.85551 0.537601C9.08367 0.115374 10.3366 -0.0499252 11.559 0.0129039" fill="#F78E19"/>
<path d="M16.6295 1.70297L15.1846 3.4633L14.3823 0.571671C15.1751 0.851036 15.9317 1.23138 16.6295 1.70297" fill="#F14C1C"/>
<path d="M22.16 2.83427L16.8139 9.34194L15.1846 3.4633L16.6295 1.70297C17.4983 2.28675 18.2759 3.00891 18.9299 3.85112L22.16 2.83427" fill="#EE2B21"/>
<path d="M6.18625 6.55101L1.44471 12.323C0.484584 8.46927 1.94091 4.47865 4.95618 2.11359L6.18625 6.55101" fill="#F9A82D"/>
<path d="M15.1845 3.46326L7.81555 12.4313L6.18622 6.55097L11.559 0.0128937C12.5305 0.0603895 13.4811 0.250374 14.3822 0.571625L15.1845 3.46326Z" fill="#F47217"/>
<path d="M10.601 19.847L15.9738 13.3088L17.2039 17.7462C16.354 18.4154 15.3825 18.9515 14.3045 19.3223C13.0764 19.7443 11.8235 19.9097 10.601 19.847" fill="#F14C1C"/>
<path d="M5.53058 18.1568L6.9755 16.3963L7.7778 19.288C6.985 19.0085 6.22832 18.6283 5.53058 18.1568" fill="#F78E19"/>
<path d="M0 17.0256L5.34616 10.5178L6.97549 16.3963L5.53057 18.1568C4.66173 17.5731 3.88415 16.8507 3.23012 16.0084L0 17.0256" fill="#F9A82D"/>
<path d="M15.9738 13.3088L20.7153 7.53678C21.6753 11.3905 20.2192 15.3811 17.2039 17.7462L15.9738 13.3088Z" fill="#EE2B21"/>
<path d="M6.97546 16.3963L14.3445 7.42839L15.9738 13.3088L10.601 19.847C9.62951 19.7994 8.67892 19.6093 7.77777 19.288L6.97546 16.3963" fill="#F47217"/>
</svg>
