<svg width="42" height="55" viewBox="0 0 42 55" fill="none" xmlns="http://www.w3.org/2000/svg">
<path d="M41.1092 12.8947L28.2254 0H2.07874C0.931103 0 0 0.931102 0 2.07874V38.9655H41.1092V12.8947Z" fill="#EFF3F5"/>
<path d="M28.2257 10.8159C28.2257 11.9636 29.1568 12.8947 30.3044 12.8947H41.1204L28.2257 0V10.8159Z" fill="#DBDFE0"/>
<path d="M0.0109863 38.9547V52.9212C0.0109863 54.0689 0.942089 55 2.08973 55H39.0415C40.1891 55 41.1202 54.0689 41.1202 52.9212V38.9547H0.0109863Z" fill="#fc220a"/>
<path d="M10.0149 36.5945C9.35442 36.5945 8.71564 36.3455 8.13099 35.8583C7.14576 35.0354 7.06997 34.126 7.16741 33.5088C7.64379 30.7264 12.819 28.1821 15.8288 26.9262C17.4637 22.8336 18.882 18.0157 19.7589 14.3996C18.005 10.6427 17.3879 7.99015 17.9292 6.48523C18.1999 5.73818 18.7521 5.25097 19.5316 5.07774L19.6399 5.05609L19.7481 5.06692C19.8347 5.07774 20.6034 5.19684 21.2314 6.04133C22.0434 7.14566 22.2275 8.93208 21.7727 11.3573C21.6428 12.0502 21.4263 13.0462 21.1448 14.2372C22.7471 17.5718 24.9991 21.2529 26.8397 23.8081C28.3771 23.5915 29.8387 23.5157 31.0729 23.6457C33.379 23.8838 33.8662 24.8907 33.9528 25.4754C34.0828 26.3307 33.4548 27.2185 32.383 27.6732C30.8997 28.3012 28.4745 28.1388 26.504 25.5837C26.4174 25.4754 26.3308 25.3563 26.2442 25.2372C23.7107 25.6594 20.7658 26.4606 17.7776 27.5758C17.4637 27.6949 17.1605 27.814 16.8574 27.9331C14.8328 32.8917 12.8515 35.7392 10.9568 36.4212C10.6536 36.5403 10.3288 36.5945 10.0149 36.5945ZM15.1034 28.6801C10.8052 30.6181 8.67233 32.5344 8.47745 33.7362C8.43414 33.996 8.43414 34.3966 8.98631 34.8514C9.49517 35.2736 9.98237 35.3819 10.5237 35.187C12.0286 34.6457 13.631 32.0472 15.1034 28.6801ZM27.7708 25.0315C29.2324 26.7529 30.878 26.8937 31.8741 26.4606C32.3938 26.2441 32.6861 25.876 32.6536 25.6703C32.6212 25.4537 32.1339 25.0856 30.943 24.9665C30.0552 24.8799 28.9834 24.9016 27.7708 25.0315ZM20.6684 16.2185C20.008 18.7628 19.1093 21.8268 18.0591 24.7933C17.8751 25.3022 17.7019 25.7894 17.5178 26.2657C19.8672 25.3996 22.7038 24.5551 25.3997 24.0462C23.9489 21.9783 22.1625 19.1092 20.6684 16.2185ZM19.694 6.42026C19.445 6.50688 19.2826 6.66928 19.1851 6.95078C18.8062 7.99015 19.3042 9.94979 20.2678 12.2667C20.3544 11.8553 20.4302 11.4764 20.4952 11.1299C20.9932 8.43404 20.5168 7.27558 20.1812 6.83168C19.9971 6.58267 19.8023 6.46357 19.694 6.42026Z" fill="#fc220a"/>
<path d="M30.3471 46.1437H27.8677V43.621H30.3471C30.8126 43.621 31.1915 43.2421 31.1915 42.7766C31.1915 42.311 30.8126 41.9321 30.3471 41.9321H27.0341C26.5685 41.9321 26.1896 42.311 26.1896 42.7766V51.1781C26.1896 51.6437 26.5685 52.0226 27.0341 52.0226C27.4996 52.0226 27.8786 51.6437 27.8786 51.1781V47.8218H30.3579C30.8234 47.8218 31.2024 47.4429 31.2024 46.9773C31.1915 46.5118 30.8126 46.1437 30.3471 46.1437Z" fill="#EFF3F5"/>
<path d="M12.483 41.9428H10.7723C10.3068 41.9428 9.92786 42.3217 9.92786 42.7873V51.1889C9.92786 51.6544 10.3068 52.0334 10.7723 52.0334C11.2379 52.0334 11.6168 51.6544 11.6168 51.1889V47.8326H12.483C14.107 47.8326 15.4279 46.5117 15.4279 44.8877C15.4279 43.2637 14.107 41.9428 12.483 41.9428ZM12.483 46.1436H11.6168V43.621H12.483C13.1759 43.621 13.7389 44.184 13.7389 44.8769C13.7389 45.5698 13.1759 46.1436 12.483 46.1436Z" fill="#EFF3F5"/>
<path d="M19.7371 41.9429H17.5284C17.0629 41.9429 16.684 42.3218 16.684 42.7874V51.1889C16.684 51.6545 17.0629 52.0334 17.5284 52.0334H19.7371C22.5196 52.0334 24.7824 49.7706 24.7824 46.9881C24.7824 44.1948 22.5196 41.9429 19.7371 41.9429ZM19.7371 50.3336H18.3729V43.6102H19.7371C21.5885 43.6102 23.0934 45.1151 23.0934 46.9665C23.1042 48.8287 21.5885 50.3336 19.7371 50.3336Z" fill="#EFF3F5"/>
</svg>
