<svg width="29" height="29" viewBox="0 0 29 29" fill="none" xmlns="http://www.w3.org/2000/svg">
<path d="M29 14.5C29 14.8846 28.8472 15.2534 28.5753 15.5253C28.3034 15.7972 27.9346 15.95 27.55 15.95H15.95V27.55C15.95 27.9346 15.7972 28.3034 15.5253 28.5753C15.2534 28.8472 14.8846 29 14.5 29C14.1154 29 13.7466 28.8472 13.4747 28.5753C13.2028 28.3034 13.05 27.9346 13.05 27.55V15.95H1.45C1.06544 15.95 0.696623 15.7972 0.424695 15.5253C0.152767 15.2534 0 14.8846 0 14.5C0 14.1154 0.152767 13.7466 0.424695 13.4747C0.696623 13.2028 1.06544 13.05 1.45 13.05H13.05V1.45C13.05 1.06544 13.2028 0.696623 13.4747 0.424695C13.7466 0.152767 14.1154 0 14.5 0C14.8846 0 15.2534 0.152767 15.5253 0.424695C15.7972 0.696623 15.95 1.06544 15.95 1.45V13.05H27.55C27.9346 13.05 28.3034 13.2028 28.5753 13.4747C28.8472 13.7466 29 14.1154 29 14.5Z" fill="#E7E7E7"/>
</svg>
