<svg width="24" height="24" viewBox="0 0 24 24" fill="none" xmlns="http://www.w3.org/2000/svg">
<circle cx="12" cy="12" r="11.25" fill="white" stroke="#100F0D" stroke-width="0.5"/>
<path d="M12.6914 11.5791L12.6914 6.78674C12.6914 6.47939 12.4427 6.23053 12.1353 6.23058C11.8279 6.23055 11.5791 6.4793 11.5791 6.78673L11.5791 11.5791L6.78674 11.5791C6.47939 11.5791 6.23053 11.8278 6.23055 12.1352C6.23054 12.4426 6.4793 12.6914 6.78672 12.6914L11.5791 12.6914L11.5791 17.4838C11.5791 17.7905 11.8286 18.04 12.1352 18.0399C12.4426 18.04 12.6914 17.7912 12.6914 17.4838L12.6914 12.6914L17.4837 12.6914C17.7911 12.6915 18.0399 12.4427 18.0399 12.1353C18.0399 11.8279 17.7911 11.5791 17.4837 11.5791L12.6914 11.5791Z" fill="#100F0D"/>
<path d="M12.6915 11.5791L12.6915 6.78676C12.6915 6.47941 12.4428 6.23054 12.1353 6.23059C11.8279 6.23057 11.5791 6.47931 11.5791 6.78674L11.5791 11.5791L12.6915 12.6914L17.4838 12.6914C17.7912 12.6915 18.04 12.4427 18.04 12.1353C18.04 11.8279 17.7913 11.5791 17.4838 11.5791L12.6915 11.5791Z" fill="#100F0D"/>
</svg>
