<svg width="25" height="25" viewBox="0 0 25 25" fill="none" xmlns="http://www.w3.org/2000/svg">
<path d="M25 12.5C25 12.8315 24.8683 13.1495 24.6339 13.3839C24.3995 13.6183 24.0815 13.75 23.75 13.75H13.75V23.75C13.75 24.0815 13.6183 24.3995 13.3839 24.6339C13.1495 24.8683 12.8315 25 12.5 25C12.1685 25 11.8505 24.8683 11.6161 24.6339C11.3817 24.3995 11.25 24.0815 11.25 23.75V13.75H1.25C0.918479 13.75 0.600537 13.6183 0.366116 13.3839C0.131696 13.1495 0 12.8315 0 12.5C0 12.1685 0.131696 11.8505 0.366116 11.6161C0.600537 11.3817 0.918479 11.25 1.25 11.25H11.25V1.25C11.25 0.918479 11.3817 0.600537 11.6161 0.366116C11.8505 0.131696 12.1685 0 12.5 0C12.8315 0 13.1495 0.131696 13.3839 0.366116C13.6183 0.600537 13.75 0.918479 13.75 1.25V11.25H23.75C24.0815 11.25 24.3995 11.3817 24.6339 11.6161C24.8683 11.8505 25 12.1685 25 12.5Z" fill="#464B4E"/>
</svg>
