<svg width="43" height="43" viewBox="0 0 43 43" fill="none" xmlns="http://www.w3.org/2000/svg">
<path d="M43 21.5C43 22.0702 42.7735 22.6171 42.3703 23.0203C41.9671 23.4235 41.4202 23.65 40.85 23.65H23.65V40.85C23.65 41.4202 23.4235 41.9671 23.0203 42.3703C22.6171 42.7735 22.0702 43 21.5 43C20.9298 43 20.3829 42.7735 19.9797 42.3703C19.5765 41.9671 19.35 41.4202 19.35 40.85V23.65H2.15C1.57978 23.65 1.03292 23.4235 0.62972 23.0203C0.226517 22.6171 0 22.0702 0 21.5C0 20.9298 0.226517 20.3829 0.62972 19.9797C1.03292 19.5765 1.57978 19.35 2.15 19.35H19.35V2.15C19.35 1.57978 19.5765 1.03292 19.9797 0.62972C20.3829 0.226517 20.9298 0 21.5 0C22.0702 0 22.6171 0.226517 23.0203 0.62972C23.4235 1.03292 23.65 1.57978 23.65 2.15V19.35H40.85C41.4202 19.35 41.9671 19.5765 42.3703 19.9797C42.7735 20.3829 43 20.9298 43 21.5Z" fill="#E7E7E7"/>
</svg>
