<svg width="322" height="60" viewBox="0 0 322 60" fill="none" xmlns="http://www.w3.org/2000/svg">
<path d="M55.5412 41.7632V17.7856H65.9201C68.0666 17.7856 69.9163 18.1396 71.4692 18.8474C73.0221 19.5325 74.221 20.5259 75.0659 21.8275C75.9107 23.1291 76.3332 24.682 76.3332 26.486C76.3332 28.2672 75.9107 29.8086 75.0659 31.1103C74.221 32.4119 73.0221 33.4167 71.4692 34.1246C69.9163 34.8097 68.0666 35.1522 65.9201 35.1522H58.624L61.0903 32.6517V41.7632H55.5412ZM61.0903 33.2683L58.624 30.6307H65.6118C67.3245 30.6307 68.6034 30.2654 69.4482 29.5346C70.2931 28.8038 70.7156 27.7877 70.7156 26.486C70.7156 25.1616 70.2931 24.134 69.4482 23.4032C68.6034 22.6724 67.3245 22.3071 65.6118 22.3071H58.624L61.0903 19.6695V33.2683ZM90.814 42.1742C87.4114 42.1742 84.7511 41.2266 82.8329 39.3312C80.9147 37.4358 79.9556 34.7297 79.9556 31.213V17.7856H85.5047V31.0075C85.5047 33.2911 85.9728 34.9352 86.9091 35.9401C87.8454 36.9449 89.1584 37.4472 90.8483 37.4472C92.5382 37.4472 93.8511 36.9449 94.7875 35.9401C95.7238 34.9352 96.1919 33.2911 96.1919 31.0075V17.7856H101.672V31.213C101.672 34.7297 100.713 37.4358 98.7952 39.3312C96.8769 41.2266 94.2166 42.1742 90.814 42.1742ZM107.156 41.7632V17.7856H118.871C121.885 17.7856 124.146 18.3564 125.653 19.4982C127.183 20.6401 127.948 22.1472 127.948 24.0197C127.948 25.2757 127.64 26.3718 127.023 27.3081C126.407 28.2215 125.562 28.9295 124.488 29.4318C123.415 29.9342 122.182 30.1854 120.789 30.1854L121.44 28.781C122.947 28.781 124.283 29.0323 125.448 29.5346C126.612 30.0142 127.514 30.7335 128.154 31.6926C128.816 32.6517 129.147 33.8278 129.147 35.2207C129.147 37.276 128.336 38.8859 126.715 40.0505C125.094 41.1923 122.707 41.7632 119.556 41.7632H107.156ZM112.671 37.5842H119.145C120.583 37.5842 121.668 37.3559 122.399 36.8992C123.152 36.4196 123.529 35.666 123.529 34.6384C123.529 33.6336 123.152 32.8915 122.399 32.4119C121.668 31.9096 120.583 31.6583 119.145 31.6583H112.26V27.6164H118.186C119.533 27.6164 120.561 27.3881 121.269 26.9313C121.999 26.4518 122.365 25.7324 122.365 24.7733C122.365 23.837 121.999 23.1406 121.269 22.6838C120.561 22.2043 119.533 21.9645 118.186 21.9645H112.671V37.5842ZM133.349 41.7632V17.7856H138.898V37.2417H150.921V41.7632H133.349ZM154.021 41.7632V17.7856H159.57V41.7632H154.021ZM176.735 42.1742C174.885 42.1742 173.162 41.8774 171.563 41.2836C169.987 40.6671 168.617 39.7993 167.452 38.6804C166.288 37.5614 165.375 36.2483 164.712 34.7412C164.073 33.234 163.753 31.5784 163.753 29.7744C163.753 27.9704 164.073 26.3147 164.712 24.8076C165.375 23.3004 166.288 21.9873 167.452 20.8684C168.641 19.7495 170.021 18.8931 171.597 18.2994C173.173 17.6828 174.897 17.3745 176.769 17.3745C178.848 17.3745 180.72 17.7398 182.387 18.4706C184.077 19.1785 185.493 20.229 186.634 21.622L183.072 24.9103C182.25 23.974 181.337 23.2776 180.332 22.8209C179.328 22.3413 178.232 22.1015 177.043 22.1015C175.925 22.1015 174.897 22.2843 173.96 22.6496C173.025 23.0149 172.214 23.5402 171.528 24.2253C170.843 24.9103 170.307 25.721 169.919 26.6573C169.554 27.5936 169.37 28.6325 169.37 29.7744C169.37 30.9162 169.554 31.9552 169.919 32.8915C170.307 33.8278 170.843 34.6384 171.528 35.3235C172.214 36.0086 173.025 36.5338 173.96 36.8992C174.897 37.2645 175.925 37.4472 177.043 37.4472C178.232 37.4472 179.328 37.2189 180.332 36.7621C181.337 36.2826 182.25 35.5633 183.072 34.6042L186.634 37.8925C185.493 39.2855 184.077 40.3473 182.387 41.0781C180.72 41.8089 178.836 42.1742 176.735 42.1742ZM186.796 41.7632L197.484 17.7856H202.964L213.686 41.7632H207.862L199.094 20.5944H201.286L192.483 41.7632H186.796ZM192.14 36.6251L193.613 32.4119H205.944L207.451 36.6251H192.14ZM219.936 41.7632V22.3071H212.263V17.7856H233.158V22.3071H225.485V41.7632H219.936ZM236.143 41.7632V17.7856H241.692V41.7632H236.143ZM259.028 42.1742C257.134 42.1742 255.375 41.866 253.753 41.2494C252.155 40.6328 250.763 39.765 249.574 38.6461C248.41 37.5272 247.497 36.2141 246.834 34.7069C246.195 33.1998 245.875 31.5556 245.875 29.7744C245.875 27.9932 246.195 26.349 246.834 24.8418C247.497 23.3347 248.422 22.0216 249.609 20.9027C250.797 19.7837 252.189 18.9159 253.788 18.2994C255.387 17.6828 257.122 17.3745 258.994 17.3745C260.89 17.3745 262.625 17.6828 264.201 18.2994C265.8 18.9159 267.181 19.7837 268.345 20.9027C269.534 22.0216 270.459 23.3347 271.12 24.8418C271.783 26.3262 272.113 27.9704 272.113 29.7744C272.113 31.5556 271.783 33.2112 271.12 34.7412C270.459 36.2483 269.534 37.5614 268.345 38.6804C267.181 39.7765 265.8 40.6328 264.201 41.2494C262.625 41.866 260.902 42.1742 259.028 42.1742ZM258.994 37.4472C260.068 37.4472 261.049 37.2645 261.94 36.8992C262.854 36.5338 263.653 36.0086 264.338 35.3235C265.023 34.6384 265.548 33.8278 265.913 32.8915C266.302 31.9552 266.496 30.9162 266.496 29.7744C266.496 28.6325 266.302 27.5936 265.913 26.6573C265.548 25.721 265.023 24.9103 264.338 24.2253C263.676 23.5402 262.889 23.0149 261.974 22.6496C261.061 22.2843 260.068 22.1015 258.994 22.1015C257.922 22.1015 256.928 22.2843 256.014 22.6496C255.123 23.0149 254.336 23.5402 253.651 24.2253C252.965 24.9103 252.429 25.721 252.041 26.6573C251.676 27.5936 251.493 28.6325 251.493 29.7744C251.493 30.8933 251.676 31.9324 252.041 32.8915C252.429 33.8278 252.955 34.6384 253.616 35.3235C254.301 36.0086 255.101 36.5338 256.014 36.8992C256.928 37.2645 257.922 37.4472 258.994 37.4472ZM276.284 41.7632V17.7856H280.874L295.021 35.0495H292.795V17.7856H298.275V41.7632H293.72L279.539 24.4993H281.765V41.7632H276.284ZM311.827 42.1742C309.908 42.1742 308.069 41.923 306.312 41.4207C304.553 40.8954 303.137 40.2218 302.064 39.3997L303.948 35.2207C304.976 35.9515 306.185 36.5566 307.579 37.0362C308.994 37.4929 310.422 37.7213 311.861 37.7213C312.957 37.7213 313.836 37.6185 314.498 37.413C315.184 37.1847 315.685 36.8764 316.006 36.4881C316.324 36.0999 316.485 35.6546 316.485 35.1522C316.485 34.5129 316.234 34.0104 315.732 33.6451C315.228 33.2568 314.567 32.9485 313.745 32.7202C312.923 32.469 312.008 32.2407 311.005 32.0351C310.022 31.8068 309.028 31.5328 308.024 31.213C307.042 30.8933 306.141 30.4822 305.318 29.9799C304.496 29.4776 303.822 28.8153 303.297 27.9932C302.794 27.1711 302.544 26.1207 302.544 24.8418C302.544 23.4717 302.909 22.2271 303.64 21.1082C304.394 19.9663 305.512 19.0644 306.997 18.4021C308.504 17.717 310.388 17.3745 312.649 17.3745C314.156 17.3745 315.639 17.5572 317.102 17.9226C318.563 18.2651 319.853 18.7904 320.972 19.4982L319.26 23.7115C318.14 23.0721 317.021 22.6039 315.903 22.3071C314.783 21.9873 313.687 21.8275 312.615 21.8275C311.541 21.8275 310.662 21.9531 309.977 22.2043C309.292 22.4555 308.8 22.7866 308.504 23.1977C308.206 23.5859 308.059 24.0425 308.059 24.5678C308.059 25.1844 308.309 25.6867 308.812 26.075C309.314 26.4403 309.977 26.7373 310.799 26.9656C311.621 27.1939 312.522 27.4223 313.505 27.6506C314.509 27.879 315.502 28.1417 316.485 28.4385C317.489 28.7353 318.403 29.135 319.225 29.6374C320.048 30.1397 320.709 30.802 321.212 31.6241C321.737 32.4462 322 33.4852 322 34.7412C322 36.0885 321.623 37.3217 320.87 38.4406C320.116 39.5595 318.986 40.4616 317.479 41.1466C315.994 41.8317 314.11 42.1742 311.827 42.1742Z" fill="#4B9DDC"/>
<path d="M12.1198 41.8495C12.1126 41.7683 12.1108 41.7188 12.1108 41.7188C12.114 41.7625 12.1167 41.8055 12.1198 41.8495C12.1634 42.3173 12.4408 43.9595 14.1921 44.8783C14.1957 44.8692 14.1995 44.8604 14.2031 44.8513C12.9009 42.728 12.5779 40.7696 13.165 38.3939C13.7578 35.9993 14.067 32.9879 13.0947 32.0582C15.0053 32.3064 15.2095 35.1677 15.4735 37.0439C15.0217 33.5906 16.0709 27.2199 16.5639 26.247C17.3756 24.645 23.5636 16.3184 25.2022 14.0163C23.3659 16.8201 25.8134 22.1533 26.1114 24.9846C26.1172 24.977 26.1235 24.9687 26.1294 24.9614C26.2284 23.6707 27.1609 11.4242 28.0426 11.0195C32.4632 8.9884 35.3623 5.38886 35.9074 4.67684C35.9482 4.62138 35.9702 4.59143 35.9702 4.59143C33.5862 6.72706 30.4397 7.88128 28.9231 8.34703C27.0351 7.84616 25.0527 7.57795 23.0075 7.57795C10.3008 7.57795 0 17.8785 0 30.585C0 37.8975 3.41201 44.4126 8.73011 48.6267C9.8676 53.3236 10.0446 59.0219 10.0446 59.0219C10.369 56.4206 12.2607 43.8722 12.1198 41.8495Z" fill="#4B9DDC"/>
<path d="M44.9608 18.4179C44.9728 18.4013 44.9849 18.3847 44.9969 18.3684L44.7521 18.4759C44.8268 18.461 44.8964 18.4417 44.9608 18.4179Z" fill="#4B9DDC"/>
<path d="M44.9559 18.4247C43.3149 19.2518 36.1108 26.8121 33.9262 30.3189C33.2802 31.3558 26.6416 31.5717 23.4889 30.9545C25.7544 31.5771 30.6062 33.0204 32.8415 32.0796C31.0247 33.0574 27.2844 38.5916 24.9129 40.111C22.5421 41.6311 16.272 44.2817 15.4341 45.6422C17.3 44.584 19.4376 43.8028 20.7734 43.9637C19.4313 44.351 16.4009 45.6858 15.2057 47.2674C16.6529 46.172 17.0961 46.8867 17.1882 47.2745C16.9512 46.8924 14.6547 48.3035 13.412 49.3711C18.6113 35.7119 26.3918 24.2025 37.04 14.3903C36.2033 14.9834 35.351 15.6532 34.4898 16.3895C34.4862 16.3928 34.4823 16.3961 34.4787 16.3986C21.4747 28.5547 15.3648 41.3571 12.2499 50.9251C15.4605 52.6267 19.1208 53.5923 23.0076 53.5923C35.7142 53.5923 46.0151 43.2917 46.0151 30.5849C46.0151 27.0295 45.2082 23.6624 43.7679 20.6565C44.0695 19.9137 44.4687 19.0901 44.9559 18.4247Z" fill="#4B9DDC"/>
<path d="M35.7138 15.4773C39.7479 15.6038 45.6977 16.0281 46.0501 15.5986C48.7343 12.3287 53.381 0.842148 52.5688 0.329412C51.1349 -0.575568 42.6926 0.445632 39.6367 2.63886C37.2294 4.36722 36.0702 10.1167 35.3597 13.8891C36.1462 13.2419 47.9652 4.37405 48.7297 3.84465C47.9844 4.51634 37.1243 13.6858 35.7138 15.4773Z" fill="#4B9DDC"/>
</svg>
