<svg width="67" height="73" viewBox="0 0 67 73" fill="none" xmlns="http://www.w3.org/2000/svg">
<path d="M44.6948 72.95H23.0161C21.9704 72.6498 21.3361 71.5906 21.1126 69.7715C20.4284 66.985 9.68118 69.183 7.35568 66.8376C6.97092 66.4299 6.84424 65.7571 6.97852 64.8202C7.3566 62.1635 8.04328 59.7634 5.92813 58.3437C4.51782 57.5282 5.18947 55.5386 7.09899 54.9437C6.40203 54.814 5.84575 54.6453 5.43032 54.4331C4.65376 53.7335 4.67285 52.5297 5.16927 50.8913C5.56654 50.2037 5.71342 48.507 5.25768 47.9797C4.5914 47.2022 2.91123 46.6805 1.42531 45.8678C-0.308788 44.6224 -0.459835 43.3296 0.968269 41.9971C4.25742 39.6683 6.56365 38.4164 7.60486 35.1953C7.21167 32.6645 7.11066 30.0744 7.34585 27.5047C7.33881 27.224 7.34456 26.971 7.36717 26.7551C8.97144 11.4093 21.9308 0 37.0256 0C38.0635 0 39.1116 0.0537338 40.1661 0.164009C54.0895 1.6189 64.7704 12.423 66.6311 25.6885C67.9646 34.2723 65.3783 43.2879 60.5846 49.7701C59.6023 51.1434 58.7525 52.4055 58.0167 53.5908C55.916 48.2281 53.5826 43.1387 51.0231 38.3515C50.898 38.1161 50.6691 37.9364 50.4356 37.8437C50.4967 37.6315 50.4717 37.397 50.3392 37.183C49.9676 36.5825 49.5905 35.9672 49.2198 35.3658C49.0085 35.022 48.6184 34.8209 48.2468 34.8209C48.1245 34.8209 48.003 34.8422 47.8918 34.8885C47.5666 35.0229 47.2441 35.1647 46.9281 35.325C46.803 35.1202 46.576 34.9988 46.3526 34.9988C46.2655 34.9988 46.1784 35.0173 46.0987 35.0572C46.0366 35.0878 45.9708 35.1183 45.9088 35.1573C44.5391 32.7859 43.2603 30.3126 42.3475 27.9403C41.4468 25.5967 40.9798 23.3301 41.4301 21.5091C39.2154 20.1756 36.9811 18.9283 34.7423 17.8006C32.5674 16.7062 30.3711 15.7202 28.2246 14.762C30.2729 17.5578 32.344 20.3814 34.4244 23.2189C32.344 20.3814 30.2729 17.5578 28.2246 14.762C29.2721 16.43 30.1107 18.0739 30.9827 19.729C29.8633 18.2065 28.7499 16.6941 27.6438 15.1883C27.8893 17.5485 28.1492 19.9217 28.42 22.3089C28.6903 24.6951 28.9718 27.0794 29.159 29.3396C31.2496 29.7621 33.2355 30.9816 35.0814 32.6534C36.9376 34.3344 38.5936 36.5223 40.0744 38.7342C38.5936 36.5223 36.9376 34.3344 35.0814 32.6534C33.2355 30.9816 31.2496 29.7621 29.159 29.3396C28.9718 27.0794 28.6903 24.6951 28.42 22.3089C28.1492 19.9217 27.8893 17.5485 27.6438 15.1883C27.8046 20.1395 27.3917 24.9656 27.4487 29.916C29.5038 30.4859 31.3988 31.1948 33.1206 32.9935C34.8525 34.8023 36.3491 37.1024 37.6687 39.4135C37.6076 39.4645 37.5399 39.4941 37.4769 39.533C37.198 39.7045 37.1007 40.0751 37.2554 40.3726C36.9422 40.5589 36.629 40.7405 36.3176 40.9295C35.8812 41.1946 35.7292 41.7812 35.9599 42.213C36.2917 42.8357 36.6095 43.4306 36.9283 44.0246C37.0553 44.261 37.248 44.3972 37.4704 44.4565C37.349 44.88 37.5195 45.1404 37.7039 45.4805C39.0106 47.888 53.2434 72.95 44.6948 72.95ZM34.8275 25.8627C34.4096 25.8627 34.0074 25.6708 33.7591 25.3048C33.4069 24.7859 33.4588 24.1075 33.8351 23.6127C33.8137 23.583 33.7924 23.5543 33.7711 23.5247C34.139 23.6071 34.4745 23.8388 34.6691 24.178C34.9897 24.7349 34.8692 25.3882 34.4355 25.8043C34.5616 25.8432 34.6941 25.8627 34.8275 25.8627C35.099 25.8627 35.3771 25.782 35.6236 25.6143C35.3771 25.782 35.099 25.8627 34.8275 25.8627ZM36.2305 24.4949C36.2315 24.241 36.1564 23.9834 35.9998 23.7498C35.7422 23.368 35.3011 23.1484 34.8563 23.1475C35.3011 23.1484 35.7422 23.368 35.9998 23.7498C36.1564 23.9834 36.2315 24.241 36.2305 24.4949ZM33.6052 23.2995C33.0743 22.5748 32.5442 21.8529 32.0151 21.1329C32.5442 21.8529 33.0743 22.5748 33.6052 23.2995ZM34.8526 23.1475H34.8535H34.8526Z" fill="#CE6D79"/>
<path d="M49.2606 72.95H44.6948C53.2434 72.95 39.0106 47.888 37.704 45.4805C37.5195 45.1404 37.349 44.88 37.4704 44.4565C37.248 44.3972 37.0553 44.261 36.9283 44.0246C36.6095 43.4306 36.2917 42.8357 35.9599 42.213C35.7292 41.7812 35.8812 41.1946 36.3176 40.9295C36.629 40.7405 36.9422 40.5589 37.2554 40.3726C37.1007 40.0751 37.198 39.7045 37.4769 39.533C37.5399 39.4941 37.6076 39.4645 37.6687 39.4135C36.3492 37.1024 34.8526 34.8023 33.1206 32.9935C31.3988 31.1948 29.5038 30.4859 27.4487 29.916C27.3917 24.9656 27.8046 20.1395 27.6438 15.1883C27.8893 17.5485 28.1492 19.9217 28.42 22.3089C28.6903 24.6951 28.9719 27.0794 29.159 29.3396C31.2496 29.7621 33.2355 30.9816 35.0815 32.6534C36.9376 34.3344 38.5936 36.5223 40.0744 38.7342C40.0169 38.7889 39.9511 38.8241 39.8918 38.8667C39.7241 38.9863 39.6342 39.18 39.6342 39.3783C39.6342 39.495 39.6657 39.6137 39.7306 39.7202C39.4313 39.9278 39.131 40.1317 38.8345 40.342C38.5685 40.5301 38.4286 40.8406 38.4286 41.1482C38.4286 41.3234 38.474 41.4976 38.5685 41.6477C38.9448 42.2454 39.3034 42.8163 39.6639 43.3862C39.8075 43.6132 40.0095 43.7346 40.2347 43.7781C40.219 43.8541 40.2115 43.9246 40.2115 43.9904C40.2106 44.2989 40.3691 44.5139 40.5405 44.7827C41.9556 46.9984 52.1462 62.8668 52.1444 69.7631C52.1444 71.7166 51.3261 72.95 49.2606 72.95ZM34.8275 25.8627C34.6941 25.8627 34.5616 25.8432 34.4356 25.8043C34.8692 25.3882 34.9897 24.7349 34.6691 24.178C34.4745 23.8388 34.139 23.6071 33.7711 23.5247C33.7155 23.4496 33.6609 23.3745 33.6053 23.2995C33.0743 22.5748 32.5442 21.8529 32.0151 21.1329C31.6703 20.664 31.3266 20.196 30.9828 19.729C30.1108 18.0739 29.2721 16.43 28.2246 14.762C30.2729 17.5578 32.344 20.3814 34.4244 23.2189C34.5634 23.1707 34.708 23.1475 34.8526 23.1475H34.8535C34.8544 23.1475 34.8553 23.1475 34.8563 23.1475C35.3011 23.1484 35.7422 23.368 35.9998 23.7498C36.1564 23.9834 36.2315 24.241 36.2305 24.4949C36.2305 24.9277 36.0137 25.3484 35.6236 25.6143C35.3771 25.782 35.0991 25.8627 34.8275 25.8627Z" fill="#003366"/>
<path fill-rule="evenodd" clip-rule="evenodd" d="M52.0888 70.5879L58.0168 53.5907C55.916 48.2281 53.5826 43.1387 51.0231 38.3515C50.898 38.1161 50.6691 37.9364 50.4356 37.8428C50.4968 37.6315 50.4718 37.397 50.3392 37.183C49.9676 36.5825 49.5905 35.9672 49.2207 35.3658C48.939 34.9089 48.3422 34.7032 47.8919 34.8885C47.5666 35.0229 47.2441 35.1647 46.9281 35.325C46.753 35.0386 46.3823 34.9163 46.0988 35.0572C46.0367 35.0877 45.9709 35.1183 45.9088 35.1572C44.5392 32.7859 43.2603 30.3126 42.3476 27.9403C41.4468 25.5967 40.9798 23.33 41.4302 21.5091C39.2154 20.1756 36.9812 18.9283 34.7423 17.8006C32.5674 16.7061 30.3712 15.7202 28.2246 14.762C30.2729 17.5578 32.3441 20.3814 34.4245 23.2188C34.9934 23.0215 35.6579 23.2429 35.9998 23.7498C36.4252 24.3818 36.2426 25.1936 35.6236 25.6143C34.999 26.0387 34.1687 25.909 33.7591 25.3048C33.407 24.7849 33.4589 24.1066 33.8351 23.6127C31.7556 20.7752 29.6864 17.9692 27.6439 15.1883C27.8894 17.5485 28.1493 19.9217 28.42 22.3088C28.6904 24.695 28.9719 27.0794 29.1591 29.3396C31.2497 29.7621 33.2355 30.9816 35.0815 32.6534C36.9376 34.3344 38.5936 36.5222 40.0744 38.7342C40.017 38.7889 39.9512 38.8241 39.8919 38.8667C39.6259 39.0576 39.5555 39.4339 39.7306 39.7202C39.4313 39.9278 39.1311 40.1317 38.8345 40.342C38.4175 40.6376 38.3082 41.2335 38.5686 41.6477C38.9448 42.2454 39.3034 42.8162 39.6639 43.3862C39.8075 43.6132 40.0096 43.7346 40.2347 43.7781C40.1439 44.209 40.333 44.4574 40.5405 44.7827C42.0149 47.0919 53.0229 64.2318 52.0888 70.5879Z" fill="white"/>
</svg>
