<svg width="35" height="39" viewBox="0 0 35 39" fill="none" xmlns="http://www.w3.org/2000/svg">
<path d="M8.00839 27.653C8.00362 27.5993 8.00243 27.5666 8.00243 27.5666C8.00454 27.5955 8.00631 27.6239 8.00839 27.653C8.03719 27.9621 8.22048 29.0472 9.37772 29.6543C9.38007 29.6483 9.38259 29.6425 9.38494 29.6365C8.52448 28.2334 8.31109 26.9394 8.69902 25.3696C9.0907 23.7874 9.29502 21.7975 8.65255 21.1832C9.91501 21.3472 10.0499 23.2379 10.2244 24.4776C9.92589 22.1958 10.6192 17.9862 10.9449 17.3433C11.4813 16.2848 15.5701 10.7828 16.6528 9.26166C15.4395 11.1143 17.0567 14.6383 17.2536 16.5092C17.2574 16.5041 17.2616 16.4987 17.2655 16.4939C17.3309 15.641 17.9471 7.54885 18.5297 7.28144C21.4507 5.93938 23.3663 3.56091 23.7265 3.09043C23.7534 3.05378 23.768 3.034 23.768 3.034C22.1927 4.44516 20.1136 5.20783 19.1115 5.51558C17.8639 5.18462 16.554 5.0074 15.2026 5.0074C6.80645 5.0074 0 11.8137 0 20.2097C0 25.0416 2.25455 29.3466 5.76859 32.1312C6.52021 35.2347 6.63714 39 6.63714 39C6.85149 37.2811 8.10148 28.9895 8.00839 27.653Z" fill="#4B9DDC"/>
<path d="M29.7088 12.1701C29.7167 12.1591 29.7247 12.1481 29.7326 12.1373L29.5709 12.2084C29.6202 12.1985 29.6662 12.1857 29.7088 12.1701Z" fill="#4B9DDC"/>
<path d="M29.7055 12.1745C28.6212 12.721 23.8609 17.7167 22.4174 20.0339C21.9906 20.719 17.604 20.8617 15.5208 20.4538C17.0177 20.8652 20.2237 21.8189 21.7007 21.1972C20.5002 21.8434 18.0287 25.5002 16.4617 26.5042C14.8951 27.5086 10.7521 29.26 10.1984 30.159C11.4314 29.4598 12.8438 28.9436 13.7264 29.0499C12.8396 29.3058 10.8372 30.1878 10.0475 31.2329C11.0038 30.5091 11.2966 30.9813 11.3575 31.2376C11.2009 30.9851 9.68343 31.9175 8.86226 32.623C12.2978 23.5974 17.4389 15.9923 24.4749 9.5087C23.922 9.90061 23.3589 10.3432 22.7898 10.8297C22.7875 10.8319 22.7849 10.8341 22.7825 10.8357C14.1898 18.8681 10.1526 27.3275 8.09442 33.6498C10.2158 34.7741 12.6344 35.4122 15.2028 35.4122C23.5989 35.4122 30.4054 28.6059 30.4054 20.2096C30.4054 17.8603 29.8722 15.6354 28.9205 13.6492C29.1198 13.1584 29.3836 12.6142 29.7055 12.1745Z" fill="#4B9DDC"/>
<path d="M23.5986 10.2269C26.2642 10.3105 30.1957 10.5909 30.4286 10.3071C32.2022 8.14644 35.2725 0.556466 34.7359 0.217665C33.7884 -0.380318 28.21 0.29446 26.1907 1.74368C24.6001 2.88572 23.8341 6.6848 23.3646 9.1775C23.8843 8.74981 31.694 2.89024 32.1991 2.54042C31.7067 2.98426 24.5306 9.04318 23.5986 10.2269Z" fill="#4B9DDC"/>
</svg>
