<svg width="71" height="68" viewBox="0 0 71 68" fill="none" xmlns="http://www.w3.org/2000/svg">
<path d="M66.8667 19.2666H30.6C29.6983 19.2666 28.8335 19.6248 28.1958 20.2624C27.5582 20.9001 27.2 21.7649 27.2 22.6666V64.5999C27.2 65.5017 27.5582 66.3665 28.1958 67.0041C28.8335 67.6417 29.6983 67.9999 30.6 67.9999H66.8667C67.7684 67.9999 68.6332 67.6417 69.2708 67.0041C69.9085 66.3665 70.2667 65.5017 70.2667 64.5999V22.6666C70.2667 21.7649 69.9085 20.9001 69.2708 20.2624C68.6332 19.6248 67.7684 19.2666 66.8667 19.2666ZM63.4667 60.0666H34C33.6994 60.0666 33.4112 59.9472 33.1986 59.7347C32.9861 59.5221 32.8667 59.2338 32.8667 58.9333C32.8667 58.6327 32.9861 58.3444 33.1986 58.1319C33.4112 57.9193 33.6994 57.7999 34 57.7999H63.4667C63.7673 57.7999 64.0555 57.9193 64.2681 58.1319C64.4806 58.3444 64.6 58.6327 64.6 58.9333C64.6 59.2338 64.4806 59.5221 64.2681 59.7347C64.0555 59.9472 63.7673 60.0666 63.4667 60.0666ZM63.4667 49.8666H35.1333C34.8328 49.8666 34.5445 49.7472 34.332 49.5347C34.1194 49.3221 34 49.0338 34 48.7333C34 48.4327 34.1194 48.1444 34.332 47.9319C34.5445 47.7193 34.8328 47.5999 35.1333 47.5999H63.4667C63.7673 47.5999 64.0555 47.7193 64.2681 47.9319C64.4806 48.1444 64.6 48.4327 64.6 48.7333C64.6 49.0338 64.4806 49.3221 64.2681 49.5347C64.0555 49.7472 63.7673 49.8666 63.4667 49.8666ZM63.4667 39.6666H34C33.6994 39.6666 33.4112 39.5472 33.1986 39.3347C32.9861 39.1221 32.8667 38.8338 32.8667 38.5333C32.8667 38.2327 32.9861 37.9444 33.1986 37.7319C33.4112 37.5193 33.6994 37.3999 34 37.3999H63.4667C63.7673 37.3999 64.0555 37.5193 64.2681 37.7319C64.4806 37.9444 64.6 38.2327 64.6 38.5333C64.6 38.8338 64.4806 39.1221 64.2681 39.3347C64.0555 39.5472 63.7673 39.6666 63.4667 39.6666ZM63.4667 29.4666H35.1333C34.8328 29.4666 34.5445 29.3472 34.332 29.1347C34.1194 28.9221 34 28.6338 34 28.3333C34 28.0327 34.1194 27.7444 34.332 27.5319C34.5445 27.3193 34.8328 27.1999 35.1333 27.1999H63.4667C63.7673 27.1999 64.0555 27.3193 64.2681 27.5319C64.4806 27.7444 64.6 28.0327 64.6 28.3333C64.6 28.6338 64.4806 28.9221 64.2681 29.1347C64.0555 29.3472 63.7673 29.4666 63.4667 29.4666Z" fill="#47B4D5" fill-opacity="0.25"/>
<path d="M28.3333 0C22.7295 0 17.2516 1.66172 12.5922 4.77503C7.9328 7.88833 4.30124 12.3134 2.15676 17.4906C0.0122765 22.6679 -0.548818 28.3648 0.54443 33.8609C1.63768 39.357 4.33617 44.4055 8.29865 48.368C12.2611 52.3305 17.3097 55.029 22.8058 56.1222C28.3019 57.2155 33.9988 56.6544 39.176 54.5099C44.3533 52.3654 48.7783 48.7339 51.8916 44.0745C55.005 39.4151 56.6667 33.9371 56.6667 28.3333C56.6583 20.8214 53.6705 13.6196 48.3588 8.30792C43.047 2.99621 35.8452 0.00839921 28.3333 0V0ZM28.3333 54.4C23.1778 54.4 18.1381 52.8712 13.8515 50.007C9.56484 47.1427 6.22381 43.0717 4.25089 38.3086C2.27796 33.5456 1.76175 28.3044 2.76754 23.248C3.77333 18.1915 6.25594 13.5469 9.90143 9.90142C13.5469 6.25593 18.1916 3.77332 23.248 2.76753C28.3044 1.76174 33.5456 2.27795 38.3086 4.25087C43.0717 6.2238 47.1427 9.56483 50.007 13.8515C52.8712 18.1381 54.4 23.1778 54.4 28.3333C54.3925 35.2443 51.6438 41.8701 46.757 46.757C41.8701 51.6438 35.2444 54.3925 28.3333 54.4V54.4Z" fill="#100F0D"/>
<path d="M49.8667 27.1999C44.5996 27.1948 39.4968 29.0327 35.4427 32.3951C36.0049 28.8628 35.7267 25.2477 34.6307 21.8429C33.5347 18.4382 31.6518 15.3397 29.1346 12.7986C28.9221 12.5862 28.6338 12.4668 28.3333 12.4668C28.0328 12.4668 27.7446 12.5862 27.5321 12.7986C25.0149 15.3397 23.1319 18.4382 22.0359 21.8429C20.9399 25.2477 20.6618 28.8628 21.2239 32.3951C17.1698 29.0327 12.067 27.1948 6.79999 27.1999C6.49941 27.1999 6.21114 27.3193 5.9986 27.5318C5.78606 27.7444 5.66666 28.0326 5.66666 28.3332C5.66666 34.3448 8.05474 40.1102 12.3056 44.361C16.5564 48.6118 22.3217 50.9999 28.3333 50.9999C34.3449 50.9999 40.1103 48.6118 44.3611 44.361C48.6119 40.1102 51 34.3448 51 28.3332C51 28.0326 50.8806 27.7444 50.668 27.5318C50.4555 27.3193 50.1672 27.1999 49.8667 27.1999ZM7.96619 29.4994C10.751 29.6589 13.4734 30.3885 15.9647 31.6432C18.456 32.898 20.663 34.6509 22.4491 36.7936C22.4627 36.8094 22.4717 36.8264 22.4842 36.84C25.2782 40.1881 26.9201 44.3466 27.1671 48.7004C22.1701 48.4079 17.4544 46.2911 13.9149 42.7516C10.3755 39.2121 8.25865 34.4964 7.96619 29.4994V29.4994ZM24.3168 35.5004C23.1378 32.0712 22.8884 28.3909 23.594 24.8341C24.2995 21.2772 25.9347 17.9707 28.3333 15.2512C30.7319 17.9707 32.3672 21.2772 33.0727 24.8341C33.7782 28.3909 33.5288 32.0712 32.3499 35.5004C30.5682 37.6721 29.2062 40.1563 28.3333 42.8263C27.4605 40.1563 26.0985 37.6721 24.3168 35.5004V35.5004ZM29.4995 48.7004C29.7472 44.3292 31.401 40.1551 34.2142 36.8004C34.2312 36.7811 34.2505 36.7641 34.2663 36.7426C36.0517 34.6155 38.253 32.8759 40.7352 31.6307C43.2174 30.3855 45.928 29.661 48.7005 29.5017C48.4075 34.4983 46.2904 39.2135 42.751 42.7524C39.2116 46.2914 34.4961 48.408 29.4995 48.7004V48.7004Z" fill="#100F0D"/>
<path d="M7.27941 23.7794C7.56901 23.8583 7.87806 23.819 8.13875 23.6703C8.39945 23.5216 8.59051 23.2755 8.67001 22.9861C9.84886 18.6711 12.4107 14.8619 15.9626 12.1428C19.5144 9.42377 23.8602 7.94494 28.3333 7.93317C28.6339 7.93317 28.9222 7.81377 29.1347 7.60122C29.3473 7.38868 29.4667 7.10042 29.4667 6.79984C29.4667 6.49926 29.3473 6.21099 29.1347 5.99845C28.9222 5.78591 28.6339 5.6665 28.3333 5.6665C23.3633 5.67873 18.5345 7.32114 14.5876 10.3418C10.6408 13.3625 7.79397 17.5945 6.48381 22.3888C6.40504 22.6787 6.44459 22.9881 6.59378 23.2488C6.74296 23.5096 6.98957 23.7004 7.27941 23.7794V23.7794Z" fill="#100F0D"/>
</svg>
