<svg width="20" height="20" viewBox="0 0 20 20" fill="none" xmlns="http://www.w3.org/2000/svg">
<path d="M12.338 0.417664H0V3.95323H12.338C14.1247 3.95323 15.579 5.40753 15.579 7.19424C15.579 8.98084 14.1247 10.4352 12.338 10.4352H5.02525L8.56083 13.9708H12.338C12.7223 13.9708 13.0994 13.9389 13.4671 13.8765C16.668 13.3379 19.1146 10.5472 19.1146 7.19424C19.1146 3.45711 16.0752 0.417664 12.338 0.417664Z" fill="#E41D25"/>
<path d="M19.1984 19.6077H14.1978L0.00012207 5.4099V0.417664H0.00834076L13.4672 13.8765L19.1984 19.6077Z" fill="#12100E"/>
<path d="M9.19725 19.6077H4.19677L6.10352e-05 15.4109V10.4104L9.19725 19.6077Z" fill="#12100E"/>
</svg>
