<svg width="80" height="18" viewBox="0 0 80 18" fill="none" xmlns="http://www.w3.org/2000/svg">
<path d="M28.3588 15.16C27.4841 15.16 26.6468 15.0373 25.8468 14.792C25.0468 14.536 24.4121 14.2107 23.9428 13.816L24.6628 12.2C25.1108 12.552 25.6655 12.8453 26.3268 13.08C26.9881 13.3147 27.6655 13.432 28.3588 13.432C28.9455 13.432 29.4201 13.368 29.7828 13.24C30.1455 13.112 30.4121 12.9413 30.5828 12.728C30.7535 12.504 30.8388 12.2533 30.8388 11.976C30.8388 11.6347 30.7161 11.3627 30.4708 11.16C30.2255 10.9467 29.9055 10.7813 29.5108 10.664C29.1268 10.536 28.6948 10.4187 28.2148 10.312C27.7455 10.2053 27.2708 10.0827 26.7908 9.944C26.3215 9.79467 25.8895 9.608 25.4948 9.384C25.1108 9.14933 24.7961 8.84 24.5508 8.456C24.3055 8.072 24.1828 7.58133 24.1828 6.984C24.1828 6.376 24.3428 5.82133 24.6628 5.32C24.9935 4.808 25.4895 4.40267 26.1508 4.104C26.8228 3.79467 27.6708 3.64 28.6948 3.64C29.3668 3.64 30.0335 3.72533 30.6948 3.896C31.3561 4.06667 31.9321 4.312 32.4228 4.632L31.7668 6.248C31.2655 5.94933 30.7481 5.73067 30.2148 5.592C29.6815 5.44267 29.1695 5.368 28.6788 5.368C28.1028 5.368 27.6335 5.43733 27.2708 5.576C26.9188 5.71467 26.6575 5.896 26.4868 6.12C26.3268 6.344 26.2468 6.6 26.2468 6.888C26.2468 7.22933 26.3641 7.50667 26.5988 7.72C26.8441 7.92267 27.1588 8.08267 27.5428 8.2C27.9375 8.31733 28.3748 8.43467 28.8548 8.552C29.3348 8.65867 29.8095 8.78133 30.2788 8.92C30.7588 9.05867 31.1908 9.24 31.5748 9.464C31.9695 9.688 32.2841 9.992 32.5188 10.376C32.7641 10.76 32.8868 11.2453 32.8868 11.832C32.8868 12.4293 32.7215 12.984 32.3908 13.496C32.0708 13.9973 31.5748 14.4027 30.9028 14.712C30.2308 15.0107 29.3828 15.16 28.3588 15.16ZM38.7733 15.112C37.824 15.112 36.992 14.9253 36.2773 14.552C35.5733 14.168 35.024 13.6453 34.6293 12.984C34.2453 12.3227 34.0533 11.5707 34.0533 10.728C34.0533 9.87467 34.24 9.12267 34.6133 8.472C34.9973 7.81067 35.52 7.29333 36.1813 6.92C36.8533 6.54667 37.616 6.36 38.4693 6.36C39.3013 6.36 40.0426 6.54133 40.6933 6.904C41.344 7.26667 41.856 7.77867 42.2293 8.44C42.6026 9.10133 42.7893 9.88 42.7893 10.776C42.7893 10.8613 42.784 10.9573 42.7733 11.064C42.7733 11.1707 42.768 11.272 42.7573 11.368H35.6373V10.04H41.7013L40.9173 10.456C40.928 9.96533 40.8266 9.53333 40.6133 9.16C40.4 8.78667 40.1066 8.49333 39.7333 8.28C39.3706 8.06667 38.9493 7.96 38.4693 7.96C37.9786 7.96 37.5466 8.06667 37.1733 8.28C36.8106 8.49333 36.5226 8.792 36.3093 9.176C36.1066 9.54933 36.0053 9.992 36.0053 10.504V10.824C36.0053 11.336 36.1226 11.7893 36.3573 12.184C36.592 12.5787 36.9226 12.8827 37.3493 13.096C37.776 13.3093 38.2666 13.416 38.8213 13.416C39.3013 13.416 39.7333 13.3413 40.1173 13.192C40.5013 13.0427 40.8426 12.808 41.1413 12.488L42.2133 13.72C41.8293 14.168 41.344 14.5147 40.7573 14.76C40.1813 14.9947 39.52 15.112 38.7733 15.112ZM49.7401 15V13.272L49.6281 12.904V9.88C49.6281 9.29333 49.4521 8.84 49.1001 8.52C48.7481 8.18933 48.2147 8.024 47.5001 8.024C47.0201 8.024 46.5454 8.09867 46.0761 8.248C45.6174 8.39733 45.2281 8.60533 44.9081 8.872L44.1241 7.416C44.5827 7.064 45.1267 6.80267 45.7561 6.632C46.3961 6.45067 47.0574 6.36 47.7401 6.36C48.9774 6.36 49.9321 6.65867 50.6041 7.256C51.2867 7.84267 51.6281 8.75467 51.6281 9.992V15H49.7401ZM47.0521 15.112C46.4121 15.112 45.8521 15.0053 45.3721 14.792C44.8921 14.568 44.5187 14.264 44.2521 13.88C43.9961 13.4853 43.8681 13.0427 43.8681 12.552C43.8681 12.072 43.9801 11.64 44.2041 11.256C44.4387 10.872 44.8174 10.568 45.3401 10.344C45.8627 10.12 46.5561 10.008 47.4201 10.008H49.9001V11.336H47.5641C46.8814 11.336 46.4227 11.448 46.1881 11.672C45.9534 11.8853 45.8361 12.152 45.8361 12.472C45.8361 12.8347 45.9801 13.1227 46.2681 13.336C46.5561 13.5493 46.9561 13.656 47.4681 13.656C47.9587 13.656 48.3961 13.544 48.7801 13.32C49.1747 13.096 49.4574 12.7653 49.6281 12.328L49.9641 13.528C49.7721 14.0293 49.4254 14.4187 48.9241 14.696C48.4334 14.9733 47.8094 15.112 47.0521 15.112ZM54.1948 15V6.456H56.0988V8.808L55.8748 8.12C56.1308 7.544 56.5308 7.10667 57.0748 6.808C57.6295 6.50933 58.3175 6.36 59.1388 6.36V8.264C59.0535 8.24267 58.9735 8.232 58.8988 8.232C58.8241 8.22133 58.7495 8.216 58.6748 8.216C57.9175 8.216 57.3148 8.44 56.8668 8.888C56.4188 9.32533 56.1948 9.98133 56.1948 10.856V15H54.1948ZM64.6773 15.112C63.7813 15.112 62.9813 14.9253 62.2773 14.552C61.584 14.168 61.04 13.6453 60.6453 12.984C60.2506 12.3227 60.0533 11.5707 60.0533 10.728C60.0533 9.87467 60.2506 9.12267 60.6453 8.472C61.04 7.81067 61.584 7.29333 62.2773 6.92C62.9813 6.54667 63.7813 6.36 64.6773 6.36C65.5093 6.36 66.24 6.53067 66.8693 6.872C67.5093 7.20267 67.9946 7.69333 68.3253 8.344L66.7893 9.24C66.5333 8.83467 66.2186 8.536 65.8453 8.344C65.4826 8.152 65.088 8.056 64.6613 8.056C64.1706 8.056 63.728 8.16267 63.3333 8.376C62.9386 8.58933 62.6293 8.89867 62.4053 9.304C62.1813 9.69867 62.0693 10.1733 62.0693 10.728C62.0693 11.2827 62.1813 11.7627 62.4053 12.168C62.6293 12.5627 62.9386 12.8667 63.3333 13.08C63.728 13.2933 64.1706 13.4 64.6613 13.4C65.088 13.4 65.4826 13.304 65.8453 13.112C66.2186 12.92 66.5333 12.6213 66.7893 12.216L68.3253 13.112C67.9946 13.752 67.5093 14.248 66.8693 14.6C66.24 14.9413 65.5093 15.112 64.6773 15.112ZM74.8241 6.36C75.5067 6.36 76.1147 6.49333 76.6481 6.76C77.1921 7.02667 77.6187 7.43733 77.9281 7.992C78.2374 8.536 78.3921 9.24 78.3921 10.104V15H76.3921V10.36C76.3921 9.60267 76.2107 9.03733 75.8481 8.664C75.4961 8.29067 75.0001 8.104 74.3601 8.104C73.8907 8.104 73.4747 8.2 73.1121 8.392C72.7494 8.584 72.4667 8.872 72.2641 9.256C72.0721 9.62933 71.9761 10.104 71.9761 10.68V15H69.9761V3.128H71.9761V8.76L71.5441 8.056C71.8427 7.512 72.2747 7.096 72.8401 6.808C73.4161 6.50933 74.0774 6.36 74.8241 6.36Z" fill="white"/>
<path d="M7.20006 1.8506C4.86031 4.19035 4.76729 7.90559 6.86488 10.3893L6.00904 11.2451C5.42499 10.9587 4.70787 11.0202 4.19438 11.4685L0.701473 14.504C-0.181546 15.2514 -0.240889 16.5987 0.580184 17.4198C1.40604 18.2457 2.75407 18.1744 3.49119 17.3047L6.53111 13.806C6.97967 13.2922 7.04126 12.575 6.75488 11.9909L7.61065 11.1351C10.0944 13.2327 13.8096 13.1397 16.1494 10.8C18.6169 8.33249 18.6169 4.31811 16.1494 1.85064C13.6819 -0.616837 9.66753 -0.616908 7.20006 1.8506V1.8506ZM14.6578 9.30832C13.0129 10.9532 10.3365 10.9532 8.69156 9.30832C7.04671 7.66347 7.04671 4.98695 8.69156 3.3421C10.3365 1.69725 13.0129 1.69725 14.6578 3.3421C16.3026 4.98695 16.3027 7.66347 14.6578 9.30832Z" fill="white"/>
</svg>
