<svg width="20" height="20" viewBox="0 0 20 20" fill="none" xmlns="http://www.w3.org/2000/svg">
<g opacity="0.25">
<path d="M8.00007 2.05622C5.40034 4.65594 5.29699 8.78399 7.62765 11.5436L6.67671 12.4946C6.02777 12.1763 5.23097 12.2447 4.66042 12.7428L0.779414 16.1156C-0.201717 16.946 -0.267655 18.443 0.644649 19.3553C1.56226 20.273 3.06007 20.1938 3.8791 19.2274L7.25679 15.34C7.75518 14.7691 7.82362 13.9722 7.50542 13.3232L8.45628 12.3724C11.216 14.703 15.344 14.5997 17.9438 12C20.6854 9.25832 20.6854 4.7979 17.9438 2.05626C15.2021 -0.685375 10.7417 -0.685453 8.00007 2.05622ZM16.2864 10.3426C14.4588 12.1702 11.485 12.1702 9.65729 10.3426C7.82968 8.51496 7.82968 5.54106 9.65729 3.71345C11.485 1.88583 14.4588 1.88583 16.2864 3.71345C18.114 5.54106 18.1141 8.51496 16.2864 10.3426Z" fill="#1F304F"/>
</g>
</svg>
