<svg viewBox="0 0 21 21" fill="none" xmlns="http://www.w3.org/2000/svg">
<path d="M8.40007 2.15903C5.67036 4.88874 5.56184 9.22318 8.00903 12.1208L7.01055 13.1193C6.32916 12.7851 5.49252 12.857 4.89345 13.3799L0.818385 16.9214C-0.211803 17.7933 -0.281038 19.3651 0.676881 20.3231C1.64038 21.2866 3.21308 21.2035 4.07305 20.1888L7.61963 16.1069C8.14295 15.5075 8.21481 14.6708 7.88069 13.9894L8.8791 12.991C11.7768 15.4382 16.1112 15.3297 18.841 12.6C21.7197 9.72124 21.7197 5.03779 18.841 2.15907C15.9622 -0.719644 11.2788 -0.719726 8.40007 2.15903ZM17.1007 10.8597C15.1818 12.7787 12.0592 12.7787 10.1402 10.8597C8.22116 8.94071 8.22116 5.81811 10.1402 3.89912C12.0592 1.98012 15.1818 1.98012 17.1007 3.89912C19.0197 5.81811 19.0198 8.94071 17.1007 10.8597Z" fill="#464B4E"/>
</svg>
