<svg width="24" height="24" viewBox="0 0 24 24" fill="none" xmlns="http://www.w3.org/2000/svg">
<path d="M9.60008 2.46747C6.48041 5.58713 6.35638 10.5408 9.15318 13.8524L8.01205 14.9935C7.23332 14.6115 6.27716 14.6937 5.59251 15.2913L0.935297 19.3387C-0.242061 20.3353 -0.321186 22.1315 0.773578 23.2264C1.87472 24.3275 3.67209 24.2325 4.65492 23.0729L8.70815 18.4079C9.30622 17.7229 9.38835 16.7666 9.0065 15.9879L10.1475 14.8469C13.4592 17.6436 18.4128 17.5196 21.5325 14.3999C24.8225 11.11 24.8225 5.75748 21.5325 2.46751C18.2426 -0.82245 12.89 -0.822544 9.60008 2.46747ZM19.5437 12.4111C17.3506 14.6042 13.782 14.6042 11.5888 12.4111C9.39561 10.218 9.39561 6.64927 11.5888 4.45614C13.782 2.263 17.3506 2.263 19.5437 4.45614C21.7368 6.64927 21.7369 10.218 19.5437 12.4111Z" fill="#EDEDED"/>
</svg>
