<svg width="19" height="19" viewBox="0 0 19 19" fill="none" xmlns="http://www.w3.org/2000/svg">
<path d="M16.3974 7.56894H16.014C15.8894 7.17917 15.7323 6.80054 15.544 6.43677L15.8156 6.16523C16.4739 5.50756 16.4563 4.45359 15.8158 3.81373L15.0147 3.01267C14.3752 2.37235 13.321 2.3538 12.6632 3.01242L12.3914 3.28417C12.0277 3.09595 11.649 2.93877 11.2593 2.81422V2.43076C11.2593 1.51404 10.5134 0.768219 9.59668 0.768219H8.46325C7.54653 0.768219 6.80071 1.51404 6.80071 2.43076V2.81422C6.41097 2.93873 6.03231 3.09591 5.66854 3.28417L5.39704 3.01267C4.74049 2.35535 3.68635 2.37076 3.04557 3.01246L2.24441 3.81355C1.60413 4.45313 1.58561 5.50717 2.2442 6.16505L2.51594 6.4368C2.32769 6.80058 2.17055 7.17917 2.046 7.56897H1.66258C0.745855 7.56894 0 8.31476 0 9.23148V10.365C0 11.2817 0.745855 12.0275 1.66258 12.0275H2.046C2.17055 12.4173 2.32769 12.7959 2.51594 13.1597L2.24441 13.4312C1.58603 14.0889 1.60367 15.1428 2.2442 15.7827L3.04529 16.5838C3.68476 17.2241 4.73894 17.2426 5.39679 16.584L5.66854 16.3123C6.03231 16.5005 6.41097 16.6577 6.80071 16.7822V17.1657C6.80071 18.0824 7.54656 18.8282 8.46328 18.8282H9.59672C10.5134 18.8282 11.2593 18.0824 11.2593 17.1657V16.7822C11.649 16.6577 12.0277 16.5005 12.3915 16.3123L12.663 16.5838C13.3195 17.2411 14.3736 17.2257 15.0144 16.584L15.8156 15.7829C16.4559 15.1433 16.4744 14.0892 15.8158 13.4313L15.5441 13.1596C15.7323 12.7958 15.8895 12.4172 16.014 12.0274H16.3974C17.3141 12.0274 18.06 11.2816 18.06 10.3649V9.23141C18.06 8.31476 17.3141 7.56894 16.3974 7.56894ZM9.02998 13.7277C6.86325 13.7277 5.10053 11.9649 5.10053 9.79822C5.10053 7.63151 6.86325 5.86876 9.02998 5.86876C11.1967 5.86876 12.9594 7.63151 12.9594 9.79822C12.9594 11.9649 11.1967 13.7277 9.02998 13.7277Z" fill="#1F304F"/>
</svg>
