<svg width="25" height="21" viewBox="0 0 25 21" fill="none" xmlns="http://www.w3.org/2000/svg">
<path d="M23.8636 1.90909H10.5C10.5 0.856227 9.64377 0 8.59091 0H6.68182C5.62895 0 4.77273 0.856227 4.77273 1.90909H0.954545C0.427636 1.90909 0 2.33577 0 2.86364C0 3.3915 0.427636 3.81818 0.954545 3.81818H4.77273C4.77273 4.87105 5.62895 5.72727 6.68182 5.72727H8.59091C9.64377 5.72727 10.5 4.87105 10.5 3.81818H23.8636C24.3905 3.81818 24.8182 3.3915 24.8182 2.86364C24.8182 2.33577 24.3905 1.90909 23.8636 1.90909ZM6.68182 3.81818V1.90909H8.59091L8.59186 2.85982C8.59186 2.86173 8.59091 2.86268 8.59091 2.86364C8.59091 2.86459 8.59186 2.86555 8.59186 2.86745V3.81818H6.68182Z" fill="#464B4E"/>
<path d="M23.8636 9.54546H18.1364C18.1364 8.4926 17.2801 7.63637 16.2273 7.63637H14.3182C13.2653 7.63637 12.4091 8.4926 12.4091 9.54546H0.954545C0.427636 9.54546 0 9.97214 0 10.5C0 11.0279 0.427636 11.4545 0.954545 11.4545H12.4091C12.4091 12.5074 13.2653 13.3636 14.3182 13.3636H16.2273C17.2801 13.3636 18.1364 12.5074 18.1364 11.4545H23.8636C24.3905 11.4545 24.8182 11.0279 24.8182 10.5C24.8182 9.97214 24.3905 9.54546 23.8636 9.54546ZM14.3182 11.4545V9.54546H16.2273L16.2282 10.4962C16.2282 10.4981 16.2273 10.499 16.2273 10.5C16.2273 10.501 16.2282 10.5019 16.2282 10.5038V11.4545H14.3182Z" fill="#464B4E"/>
<path d="M23.8636 17.1818H10.5C10.5 16.129 9.64377 15.2727 8.59091 15.2727H6.68182C5.62895 15.2727 4.77273 16.129 4.77273 17.1818H0.954545C0.427636 17.1818 0 17.6085 0 18.1364C0 18.6642 0.427636 19.0909 0.954545 19.0909H4.77273C4.77273 20.1438 5.62895 21 6.68182 21H8.59091C9.64377 21 10.5 20.1438 10.5 19.0909H23.8636C24.3905 19.0909 24.8182 18.6642 24.8182 18.1364C24.8182 17.6085 24.3905 17.1818 23.8636 17.1818ZM6.68182 19.0909V17.1818H8.59091L8.59186 18.1326C8.59186 18.1345 8.59091 18.1354 8.59091 18.1364C8.59091 18.1373 8.59186 18.1383 8.59186 18.1402V19.0909H6.68182Z" fill="#464B4E"/>
</svg>
