<svg viewBox="0 0 161 38" fill="none" xmlns="http://www.w3.org/2000/svg">
	<path d="M22.0123 0.0245729L11.7808 12.4754L9.43829 4.02497C11.0567 2.75086 12.9067 1.72956 14.9596 1.02378C17.2985 0.219713 19.6844 -0.0950755 22.0123 0.0245729Z" fill="#F78E19" />
	<path d="M31.6683 3.243L28.9167 6.59529L27.3889 1.08862C28.8986 1.62063 30.3395 2.34493 31.6683 3.243Z" fill="#F14C1C" />
	<path d="M42.2004 5.39736L32.0194 17.7902L28.9167 6.59527L31.6683 3.24298C33.3229 4.35471 34.8036 5.72994 36.0491 7.33382L42.2004 5.39736Z" fill="#EE2B21" />
	<path d="M11.7807 12.4754L2.75121 23.4672C0.922789 16.1284 3.69613 8.52888 9.43827 4.02496L11.7807 12.4754Z" fill="#F9A82D" />
	<path d="M28.9167 6.5953L14.8836 23.6736L11.7808 12.4754L22.0123 0.0245972C23.8625 0.115046 25.6726 0.476843 27.3889 1.08862L28.9167 6.5953Z" fill="#F47217" />
	<path d="M20.188 37.7955L30.4197 25.3446L32.7622 33.7948C31.1438 35.0692 29.2937 36.0903 27.2408 36.7962C24.9019 37.6001 22.516 37.915 20.188 37.7955Z" fill="#F14C1C" />
	<path d="M10.5321 34.5768L13.2837 31.2243L14.8116 36.7311C13.3018 36.199 11.8608 35.4748 10.5321 34.5768Z" fill="#F78E19" />
	<path d="M0 32.4227L10.1809 20.0296L13.2838 31.2243L10.5321 34.5768C8.87756 33.4654 7.39676 32.0897 6.15128 30.4856L0 32.4227Z" fill="#F9A82D" />
	<path d="M30.4197 25.3446L39.4492 14.3527C41.2774 21.6915 38.5042 29.2908 32.7622 33.7948L30.4197 25.3446Z" fill="#EE2B21" />
	<path d="M13.2838 31.2243L27.3168 14.1462L30.4197 25.3446L20.188 37.7955C18.3379 37.705 16.5277 37.3429 14.8116 36.7311L13.2838 31.2243Z" fill="#F47217" />
	<path d="M49.9171 28.5434H47.5511V27.6857H53.259V28.5434H50.893V34.5865H49.9171V28.5434ZM57.6474 34.6654C56.9507 34.6654 56.3232 34.5143 55.7645 34.2119C55.2058 33.9031 54.7656 33.4792 54.4435 32.9402C54.128 32.4012 53.9703 31.7998 53.9703 31.1361C53.9703 30.4724 54.128 29.871 54.4435 29.332C54.7656 28.7931 55.2058 28.3726 55.7645 28.0702C56.3232 27.7613 56.9507 27.6068 57.6474 27.6068C58.3375 27.6068 58.9618 27.7613 59.5205 28.0702C60.0792 28.3726 60.5162 28.7931 60.8317 29.332C61.1471 29.8644 61.3049 30.4658 61.3049 31.1361C61.3049 31.8065 61.1471 32.4111 60.8317 32.95C60.5162 33.4824 60.0792 33.9031 59.5205 34.2119C58.9618 34.5143 58.3375 34.6654 57.6474 34.6654ZM57.6474 33.788C58.1534 33.788 58.6069 33.6729 59.0079 33.443C59.4153 33.213 59.7342 32.8975 59.9641 32.4966C60.2007 32.0891 60.319 31.6357 60.319 31.1361C60.319 30.6366 60.2007 30.1865 59.9641 29.7855C59.7342 29.3781 59.4153 29.0592 59.0079 28.8293C58.6069 28.5993 58.1534 28.4842 57.6474 28.4842C57.1414 28.4842 56.6813 28.5993 56.2673 28.8293C55.8598 29.0592 55.5377 29.3781 55.3011 29.7855C55.0712 30.1865 54.9561 30.6366 54.9561 31.1361C54.9561 31.6357 55.0712 32.0891 55.3011 32.4966C55.5377 32.8975 55.8598 33.213 56.2673 33.443C56.6813 33.6729 57.1414 33.788 57.6474 33.788ZM65.355 31.5206L64.0931 32.8022V34.5865H63.1073V27.6857H64.0931V31.5403L67.8393 27.6857H68.9631L66.0155 30.7911L69.1504 34.5865H67.997L65.355 31.5206ZM75.4969 33.7288V34.5865H70.4888V27.6857H75.3588V28.5434H71.4747V30.6629H74.9349V31.5009H71.4747V33.7288H75.4969ZM83.3235 27.6857V34.5865H82.5151L78.3746 29.4405V34.5865H77.3888V27.6857H78.1971L82.3376 32.8317V27.6857H83.3235ZM87.6959 34.6654C87.1766 34.6654 86.6738 34.5865 86.1876 34.4288C85.7077 34.2644 85.3299 34.0542 85.0539 33.7979L85.4186 33.0289C85.6816 33.2655 86.0168 33.4594 86.4242 33.6105C86.8382 33.7552 87.2621 33.8274 87.6959 33.8274C88.2677 33.8274 88.6948 33.7321 88.9775 33.5415C89.2601 33.3444 89.4014 33.0848 89.4014 32.7627C89.4014 32.5261 89.3225 32.3356 89.1648 32.191C89.0137 32.0399 88.823 31.9248 88.593 31.8459C88.3695 31.767 88.0508 31.6783 87.6367 31.5797C87.1175 31.4548 86.697 31.3301 86.3749 31.2051C86.0594 31.0802 85.7866 30.8897 85.5566 30.6333C85.3331 30.3704 85.2215 30.0189 85.2215 29.5785C85.2215 29.2105 85.3168 28.8786 85.5073 28.5828C85.7045 28.2871 86.0003 28.0505 86.3946 27.873C86.7889 27.6956 87.2786 27.6068 87.8635 27.6068C88.2709 27.6068 88.6719 27.6594 89.0662 27.7646C89.4605 27.8698 89.7989 28.0209 90.0816 28.2181L89.7563 29.0067C89.4672 28.8226 89.1581 28.6846 88.8296 28.5927C88.501 28.4941 88.1789 28.4448 87.8635 28.4448C87.3048 28.4448 86.8843 28.5466 86.6016 28.7504C86.3256 28.9542 86.1876 29.217 86.1876 29.5391C86.1876 29.7757 86.2664 29.9696 86.4242 30.1207C86.5819 30.2654 86.7758 30.3803 87.0058 30.4657C87.2424 30.5446 87.5611 30.6301 87.9621 30.7221C88.4813 30.847 88.8986 30.9718 89.2141 31.0967C89.5295 31.2216 89.7989 31.4121 90.0224 31.6685C90.2524 31.9248 90.3675 32.2698 90.3675 32.7036C90.3675 33.0651 90.2689 33.3969 90.0717 33.6993C89.8746 33.995 89.5756 34.2316 89.1746 34.4091C88.7737 34.5799 88.2808 34.6654 87.6959 34.6654Z" fill="#464B4E" />
	<path d="M54.9018 24.0041C53.4798 24.0041 52.0997 23.8284 50.7613 23.4771C49.4229 23.1258 48.3356 22.6574 47.4991 22.0719L49.1302 18.4081C49.9165 18.9267 50.8281 19.345 51.8654 19.6628C52.9027 19.9806 53.9231 20.1396 54.9269 20.1396C56.834 20.1396 57.7876 19.6628 57.7876 18.7093C57.7876 18.2074 57.5115 17.8394 56.9595 17.6051C56.4241 17.3542 55.5542 17.0949 54.3497 16.8272C53.0282 16.5428 51.924 16.2417 51.0373 15.9239C50.1506 15.5893 49.3895 15.0623 48.7538 14.3429C48.118 13.6236 47.8002 12.6533 47.8002 11.4321C47.8002 10.3614 48.0929 9.39945 48.6785 8.54626C49.2641 7.67635 50.1339 6.99044 51.2883 6.48856C52.4592 5.98669 53.8896 5.73575 55.5793 5.73575C56.7336 5.73575 57.8713 5.86959 58.9921 6.13725C60.1129 6.38819 61.1 6.7646 61.9532 7.26647L60.4224 10.9553C58.7496 10.0519 57.1267 9.6002 55.5542 9.6002C54.5671 9.6002 53.8478 9.75077 53.3961 10.0519C52.9445 10.3363 52.7186 10.7127 52.7186 11.1811C52.7186 11.6495 52.9862 12.0008 53.5216 12.2351C54.057 12.4693 54.9184 12.7118 56.1063 12.9628C57.4447 13.2472 58.5488 13.5567 59.4187 13.8913C60.3054 14.2091 61.0664 14.7277 61.7022 15.4471C62.3546 16.1497 62.6809 17.1116 62.6809 18.3329C62.6809 19.3868 62.3882 20.3404 61.8026 21.1936C61.217 22.0468 60.3387 22.7327 59.1677 23.2513C57.9967 23.7531 56.5746 24.0041 54.9018 24.0041ZM82.9433 6.08706V23.6528H77.9747V16.8021H71.1993V23.6528H66.2308V6.08706H71.1993V12.6867H77.9747V6.08706H82.9433ZM99.4717 20.24H92.0439L90.6638 23.6528H85.5946L93.3488 6.08706H98.2421L106.021 23.6528H100.852L99.4717 20.24ZM98.0163 16.5763L95.7578 10.9553L93.4994 16.5763H98.0163ZM116.363 18.9853H113.653V23.6528H108.684V6.08706H116.714C118.304 6.08706 119.684 6.35472 120.855 6.89007C122.026 7.40867 122.929 8.16148 123.565 9.14851C124.201 10.1188 124.519 11.2648 124.519 12.5864C124.519 13.8578 124.217 14.9703 123.615 15.9239C123.03 16.8607 122.185 17.5967 121.081 18.1321L124.87 23.6528H119.55L116.363 18.9853ZM119.5 12.5864C119.5 11.7666 119.24 11.1309 118.722 10.6792C118.203 10.2276 117.434 10.0017 116.413 10.0017H113.653V15.1459H116.413C117.434 15.1459 118.203 14.9285 118.722 14.4935C119.24 14.0418 119.5 13.4061 119.5 12.5864ZM142.617 19.8134V23.6528H128.514V6.08706H142.291V9.92642H133.433V12.8875H141.237V16.6014H133.433V19.8134H142.617ZM152.802 24.0041C151.38 24.0041 150 23.8284 148.662 23.4771C147.323 23.1258 146.236 22.6574 145.399 22.0719L147.03 18.4081C147.817 18.9267 148.729 19.345 149.766 19.6628C150.803 19.9806 151.823 20.1396 152.827 20.1396C154.734 20.1396 155.688 19.6628 155.688 18.7093C155.688 18.2074 155.412 17.8394 154.86 17.6051C154.325 17.3542 153.455 17.0949 152.25 16.8272C150.928 16.5428 149.824 16.2417 148.938 15.9239C148.051 15.5893 147.29 15.0623 146.654 14.3429C146.018 13.6236 145.701 12.6533 145.701 11.4321C145.701 10.3614 145.993 9.39945 146.579 8.54626C147.164 7.67635 148.034 6.99044 149.189 6.48856C150.36 5.98669 151.79 5.73575 153.48 5.73575C154.634 5.73575 155.772 5.86959 156.892 6.13725C158.013 6.38819 159 6.7646 159.853 7.26647L158.323 10.9553C156.65 10.0519 155.027 9.6002 153.455 9.6002C152.468 9.6002 151.748 9.75077 151.296 10.0519C150.845 10.3363 150.619 10.7127 150.619 11.1811C150.619 11.6495 150.887 12.0008 151.422 12.2351C151.957 12.4693 152.819 12.7118 154.007 12.9628C155.345 13.2472 156.449 13.5567 157.319 13.8913C158.206 14.2091 158.967 14.7277 159.603 15.4471C160.255 16.1497 160.581 17.1116 160.581 18.3329C160.581 19.3868 160.288 20.3404 159.703 21.1936C159.117 22.0468 158.239 22.7327 157.068 23.2513C155.897 23.7531 154.475 24.0041 152.802 24.0041Z" fill="#464B4E" />
</svg>
