<svg width="19" height="19" viewBox="0 0 19 19" fill="none" xmlns="http://www.w3.org/2000/svg">
<path d="M3.59011 2.57268C4.73662 1.74698 5.99695 1.18955 7.38989 0.923358C10.9036 0.250058 14.6209 1.80856 16.5724 4.81702C17.4548 6.17614 17.9915 7.66262 18.0583 9.29942C18.0928 10.1585 17.5968 10.6878 16.7312 10.694C15.7768 10.7013 14.8213 10.7024 13.8659 10.7066C13.561 10.7013 13.2551 10.7013 12.9502 10.6899C12.3706 10.6679 11.9175 10.2848 11.7963 9.71906C11.7525 9.51446 11.7316 9.30359 11.6784 9.10108C11.3286 7.79624 10.1758 6.99141 8.79118 7.07805C7.52772 7.15738 6.46474 8.16786 6.31751 9.49149C6.24024 10.1794 5.69831 10.7212 4.95694 10.7024C3.75509 10.6711 2.55114 10.6972 1.34824 10.693C0.457555 10.6899 -0.0530507 10.1523 0.00437935 9.25766C0.0680746 8.26494 0.285265 7.30666 0.650729 6.37761C1.26366 4.82328 2.30576 3.60612 3.59011 2.57268ZM7.08081 5.60619C7.16121 5.57696 7.24266 5.54982 7.32202 5.5185C8.34532 5.11348 9.38846 5.05397 10.4316 5.40994C11.9853 5.94023 13.0045 7.0008 13.4723 8.58019C13.5119 8.71589 13.5474 8.81088 13.7312 8.80775C14.4569 8.79523 15.1826 8.79836 15.9094 8.80567C16.0838 8.80775 16.1161 8.7493 16.0859 8.58645C15.9449 7.82025 15.7099 7.0864 15.3257 6.40893C14.0664 4.18965 12.1618 2.93073 9.62235 2.69273C8.11038 2.55076 6.67984 2.87436 5.37566 3.67919C3.50344 4.82328 2.35588 6.46112 1.97997 8.63238C1.94447 8.83803 2.06246 8.80045 2.17106 8.80149C2.86753 8.80253 3.564 8.79523 4.26047 8.80671C4.46826 8.80984 4.55911 8.75243 4.60923 8.54156C4.75855 7.91628 5.04152 7.34633 5.4665 6.86301C5.92281 6.34421 6.46579 5.92561 7.08081 5.60619Z" fill="#1F304F"/>
<path d="M15.5643 12.5934C15.8929 12.0281 16.2079 11.8518 16.6778 11.9707C17.2684 12.1199 17.572 12.6831 17.3422 13.2496C17.1966 13.6094 17.0105 13.9526 16.8421 14.3031C16.3836 15.0427 15.869 15.7374 15.2327 16.3351C14.1046 17.3938 12.8039 18.1365 11.3026 18.5256C9.5029 18.9929 7.72503 18.923 5.9825 18.2878C3.54753 17.4001 1.82268 15.7353 0.756989 13.3716C0.527216 12.8615 0.625987 12.2701 1.18222 12.0333C1.70311 11.8111 2.21256 12.027 2.47976 12.607C3.61719 15.0823 5.52711 16.5531 8.22304 16.8817C10.3742 17.1445 12.282 16.5009 13.8821 15.0093C14.6151 14.3271 15.2015 13.5385 15.5643 12.5934Z" fill="#1F304F"/>
</svg>
