<svg width="8" height="29" viewBox="0 0 8 29" fill="none" xmlns="http://www.w3.org/2000/svg">
<path d="M3.625 18.125C5.62703 18.125 7.25 16.502 7.25 14.5C7.25 12.498 5.62703 10.875 3.625 10.875C1.62297 10.875 0 12.498 0 14.5C0 16.502 1.62297 18.125 3.625 18.125Z" fill="#E7E7E7"/>
<path d="M3.625 29C5.62703 29 7.25 27.377 7.25 25.375C7.25 23.373 5.62703 21.75 3.625 21.75C1.62297 21.75 0 23.373 0 25.375C0 27.377 1.62297 29 3.625 29Z" fill="#E7E7E7"/>
<path d="M3.625 7.25C5.62703 7.25 7.25 5.62703 7.25 3.625C7.25 1.62297 5.62703 0 3.625 0C1.62297 0 0 1.62297 0 3.625C0 5.62703 1.62297 7.25 3.625 7.25Z" fill="#E7E7E7"/>
</svg>
