<svg width="18" height="18" viewBox="0 0 18 18" fill="none" xmlns="http://www.w3.org/2000/svg">
<path d="M9 0C4.0372 0 0 4.0372 0 9C0 13.9628 4.0372 18 9 18C13.9628 18 18 13.9628 18 9C18 4.0372 13.9628 0 9 0Z" fill="url(#paint0_linear_1756_10)"/>
<path d="M13.5615 7.09277L8.68648 11.9677C8.54022 12.1139 8.34824 12.1875 8.15625 12.1875C7.96426 12.1875 7.77228 12.1139 7.62602 11.9677L5.18857 9.53023C4.89523 9.23703 4.89523 8.76297 5.18857 8.46977C5.48177 8.17644 5.95569 8.17644 6.24902 8.46977L8.15625 10.377L12.5011 6.03232C12.7943 5.73898 13.2682 5.73898 13.5615 6.03232C13.8547 6.32552 13.8547 6.79944 13.5615 7.09277Z" fill="#FAFAFA"/>
<defs>
<linearGradient id="paint0_linear_1756_10" x1="6.02253e-10" y1="9.03322" x2="21.4722" y2="9.02346" gradientUnits="userSpaceOnUse">
<stop stop-color="#47B4D5"/>
<stop offset="1" stop-color="#29449D"/>
</linearGradient>
</defs>
</svg>
