<svg width="49" height="45" viewBox="0 0 49 45" fill="none" xmlns="http://www.w3.org/2000/svg">
<path d="M38.075 12.0984C36.3887 3.90373 28.3786 -1.37235 20.184 0.313886C13.167 1.75783 8.12101 7.91982 8.08882 15.0836C8.08882 15.4249 8.10293 15.7744 8.13322 16.144C3.14128 16.6724 -0.477164 21.1475 0.0512392 26.1395C0.541013 30.7664 4.44586 34.2765 9.09866 34.2719H10.1591C10.1348 33.9367 10.1086 33.6034 10.1086 33.262C10.1086 26.0112 15.9866 20.1331 23.2374 20.1331C30.4883 20.1331 36.3662 26.0112 36.3662 33.262C36.3662 33.6033 36.34 33.9366 36.3157 34.2719H37.3761C43.5047 34.2887 48.4865 29.334 48.5033 23.2054C48.5194 17.3248 43.9451 12.4527 38.075 12.0984Z" fill="#BBDEFB"/>
<path d="M23.2375 44.3709C29.3728 44.3709 34.3465 39.3972 34.3465 33.2619C34.3465 27.1266 29.3728 22.153 23.2375 22.153C17.1022 22.153 12.1285 27.1266 12.1285 33.2619C12.1285 39.3972 17.1022 44.3709 23.2375 44.3709Z" fill="#4CAF50"/>
<path d="M23.2376 40.3314C22.6798 40.3314 22.2277 39.8792 22.2277 39.3215V27.2026C22.2277 26.6448 22.6798 26.1926 23.2376 26.1926C23.7954 26.1926 24.2475 26.6448 24.2475 27.2026V39.3215C24.2474 39.8792 23.7954 40.3314 23.2376 40.3314Z" fill="#FAFAFA"/>
<path d="M27.2771 32.2527C27.009 32.2531 26.7518 32.1471 26.5621 31.9577L23.2374 28.6311L19.9128 31.9577C19.5116 32.3452 18.8722 32.3341 18.4847 31.9329C18.1067 31.5415 18.1067 30.9211 18.4847 30.5297L22.5244 26.49C22.9187 26.0958 23.558 26.0958 23.9524 26.49L27.9921 30.5297C28.3859 30.9247 28.3849 31.5641 27.9898 31.9579C27.8006 32.1466 27.5444 32.2526 27.2771 32.2527Z" fill="#FAFAFA"/>
</svg>
