<svg width="37" height="39" viewBox="0 0 37 39" fill="none" xmlns="http://www.w3.org/2000/svg">
<g opacity="0.25">
<path d="M8.64091 21.2233C8.83835 21.6596 9.27222 21.9375 9.74997 21.9375L14.625 21.9375L14.625 37.7812C14.625 38.454 15.171 39 15.8437 39H20.7187C21.3915 39 21.9375 38.454 21.9375 37.7812V21.9375H26.8125C27.2902 21.9375 27.7241 21.6572 27.9215 21.2233C28.1214 20.787 28.0434 20.2776 27.729 19.9168L19.1977 10.1668C18.9662 9.90112 18.6322 9.75 18.2812 9.75C17.9302 9.75 17.5963 9.90356 17.3647 10.1668L8.83347 19.9168C8.5166 20.2751 8.44347 20.787 8.64091 21.2233Z" fill="#18191D"/>
<path d="M4.875 12.1875V4.875L31.6875 4.875V12.1875H36.5625V2.4375C36.5625 1.08956 35.4705 0 34.125 0L2.4375 0C1.08956 0 0 1.08956 0 2.4375V12.1875L4.875 12.1875Z" fill="#18191D"/>
</g>
</svg>
