<svg width="31" height="33" viewBox="0 0 31 33" fill="none" xmlns="http://www.w3.org/2000/svg">
<path d="M7.31193 17.9582C7.47899 18.3274 7.84611 18.5625 8.25036 18.5625H12.3754L12.3754 31.9688C12.3754 32.538 12.8374 33 13.4066 33H17.5316C18.1009 33 18.5629 32.538 18.5629 31.9688V18.5625H22.6879C23.0921 18.5625 23.4592 18.3253 23.6263 17.9582C23.7954 17.589 23.7294 17.1579 23.4634 16.8527L16.2446 8.60269C16.0487 8.37787 15.7661 8.25 15.4691 8.25C15.1721 8.25 14.8895 8.37994 14.6936 8.60269L7.47486 16.8527C7.20674 17.1559 7.14486 17.589 7.31193 17.9582Z" fill="#4B9DDC;"/>
<path d="M4.125 10.3125V4.125L26.8125 4.125V10.3125H30.9375V2.0625C30.9375 0.921938 30.0135 0 28.875 0L2.0625 0C0.921938 0 0 0.921938 0 2.0625V10.3125H4.125Z" fill="#4B9DDC;"/>
</svg>
