<svg width="47" height="51" viewBox="0 0 47 51" fill="none" xmlns="http://www.w3.org/2000/svg">
<path d="M28.6745 35.2406L28.682 35.2352C28.472 34.6746 28.3917 34.0737 28.447 33.4776C28.5024 32.8816 28.692 32.3058 29.0016 31.7934L28.9737 31.7655C28.1296 30.9184 27.2784 30.078 26.4447 29.2207C26.292 29.0637 26.1424 28.9655 25.9796 28.9293C25.1784 29.4327 24.2522 29.7018 23.3059 29.706C22.3596 29.7102 21.431 29.4494 20.6253 28.9531C20.4579 29.0048 20.3037 29.1159 20.1443 29.2827C19.4366 30.0242 18.7169 30.7553 17.9741 31.4601C17.8657 31.5608 17.7635 31.6681 17.6682 31.7813C17.9969 32.2925 18.2037 32.8724 18.2725 33.4763C18.3414 34.0801 18.2705 34.6917 18.0653 35.2638C18.073 35.27 18.0805 35.277 18.0886 35.2827C18.8894 35.8769 19.8161 36.3115 20.5876 36.9385C20.9408 37.2276 21.3364 37.4607 21.7605 37.6296C22.2089 37.292 22.7567 37.113 23.3179 37.1207C23.879 37.1284 24.4217 37.3223 24.8607 37.6719C26.1359 36.8676 27.4072 36.0572 28.6745 35.2406Z" fill="#050505"/>
<path d="M33.9901 29.7659C34.592 28.818 35.1873 27.8659 35.7941 26.9212C35.9367 26.699 36.091 26.482 36.2155 26.2556C35.8573 25.8236 35.6528 25.2849 35.6341 24.724C35.6153 24.1631 35.7835 23.6119 36.1122 23.157C36.1083 23.1497 36.1047 23.1422 36.1005 23.135C35.4203 21.951 34.6357 20.8274 33.9355 19.654C33.9049 19.6023 33.8739 19.554 33.8425 19.509C33.2673 19.7216 32.6506 19.7978 32.041 19.7318C31.4313 19.6657 30.8453 19.4591 30.329 19.1282C30.322 19.1339 30.3147 19.1391 30.3083 19.1448C29.4165 19.9395 28.6068 20.8259 27.7522 21.6632C27.6751 21.736 27.6082 21.8189 27.5532 21.9096C28.0714 22.7203 28.3482 23.6616 28.3513 24.6237C28.3543 25.5858 28.0835 26.5289 27.5705 27.3428C27.5987 27.5306 27.6682 27.7158 27.7653 27.8254C28.4931 28.6464 29.3175 29.3809 30.0634 30.187C30.1503 30.2825 30.2431 30.3725 30.3414 30.4564C30.8491 30.1502 31.419 29.9617 32.0091 29.9048C32.5993 29.8479 33.1947 29.924 33.7516 30.1276C33.8206 30.0327 33.896 29.9139 33.9901 29.7659Z" fill="#050505"/>
<path d="M21.7659 11.9089C20.5258 12.6369 19.3219 13.4313 18.1113 14.211C18.0252 14.2663 17.9211 14.3296 17.8325 14.3986C17.9779 14.913 18.0179 15.4515 17.9501 15.9818C17.8823 16.512 17.708 17.0231 17.4377 17.4843C17.5002 17.5649 17.568 17.6411 17.6408 17.7125C18.496 18.5836 19.37 19.4367 20.2204 20.3123C20.277 20.3713 20.339 20.4249 20.4057 20.4722C21.2588 19.8829 22.2722 19.5695 23.309 19.5744C24.3459 19.5792 25.3563 19.9021 26.2039 20.4993C26.3175 20.4291 26.4208 20.3433 26.5105 20.2443C27.2311 19.4811 27.9679 18.7309 28.7362 18.0163C28.8344 17.9267 28.9267 17.8309 29.0127 17.7295C28.7285 17.2207 28.5599 16.6554 28.5191 16.074C28.4782 15.4926 28.566 14.9094 28.7763 14.3658C28.6642 14.2715 28.544 14.1873 28.4172 14.1141C27.5579 13.6023 26.7206 13.0531 25.8804 12.5098C25.4709 12.245 25.0738 11.9455 24.6403 11.7683C24.2386 12.0436 23.766 12.1974 23.2791 12.2111C22.7923 12.2249 22.3117 12.098 21.8951 11.8458C21.8504 11.8634 21.8072 11.8845 21.7659 11.9089Z" fill="#050505"/>
<path d="M18.8933 27.8223C18.9726 27.7347 19.0326 27.5957 19.0669 27.4456C18.5155 26.616 18.2207 25.6423 18.2196 24.6462C18.2184 23.65 18.5109 22.6757 19.0605 21.8448C19.0128 21.7758 18.9582 21.712 18.8975 21.6541C18.0392 20.8212 17.2285 19.9371 16.3424 19.1378C16.2419 19.0471 16.1047 18.9828 15.9548 18.9384C15.0481 19.4438 13.9795 19.5736 12.9781 19.3C12.8799 19.414 12.7926 19.5369 12.7174 19.6672C12.0997 20.6908 11.4502 21.6952 10.8002 22.6989C10.6599 22.9154 10.5147 23.128 10.4023 23.3484C10.6943 23.7656 10.8537 24.2612 10.8599 24.7704C10.866 25.2796 10.7185 25.7788 10.4367 26.2029C10.4421 26.2135 10.4476 26.2241 10.4535 26.2342C11.1988 27.4939 12.0108 28.7144 12.7769 29.9617C12.8313 30.0521 12.8943 30.137 12.9652 30.2151C13.5007 30.0167 14.0728 29.9363 14.6423 29.9794C15.2118 30.0226 15.7653 30.1882 16.2649 30.465C17.1779 29.6225 18.0604 28.7431 18.8933 27.8223Z" fill="#050505"/>
<path d="M24.4696 4.07098C24.4696 2.94741 24.4799 1.82332 24.466 0.700012C24.4799 1.82358 24.4703 2.94767 24.4688 4.07098C24.4688 4.36421 24.4595 4.6577 24.4703 4.94938C24.4595 4.65744 24.4688 4.36395 24.4696 4.07098Z" fill="#050505"/>
<path d="M22.2519 4.04613C22.2537 4.92607 22.2367 5.80627 22.2589 6.6857C22.2367 5.80731 22.2534 4.92607 22.2527 4.04613C22.2527 2.94632 22.2403 1.84626 22.2568 0.74646C22.2403 1.84626 22.2519 2.94632 22.2519 4.04613Z" fill="#050505"/>
<path d="M9.82825 7.68531C10.0364 8.01252 10.1668 8.38309 10.2095 8.76856C10.2521 9.15403 10.2058 9.54414 10.0742 9.90894C10.7524 10.5943 11.4225 11.2878 12.1361 11.9336C12.1524 11.9483 12.1697 11.9618 12.1878 11.9742C12.9135 11.5945 13.7392 11.4492 14.551 11.5584C15.3628 11.6676 16.1207 12.0259 16.7203 12.5839C17.0729 12.5219 17.3964 12.3312 17.7372 12.0522C17.8875 11.9292 18.0707 11.8476 18.228 11.7329C19.0331 11.1485 19.9696 10.7372 20.7015 10.0663C20.6176 9.51917 20.7149 8.95963 20.9787 8.47299C21.2424 7.98636 21.658 7.59932 22.1622 7.37089C22.2298 7.14873 22.2623 6.9174 22.2586 6.68523C22.2364 5.80683 22.2531 4.9256 22.2516 4.04565C22.2516 2.94585 22.2402 1.84579 22.2565 0.745986C22.2643 0.223341 22.0643 -0.0246764 21.5225 0.00193381C20.2786 0.0634215 19.032 0.0848646 17.7891 0.174771C17.5034 0.195181 17.1703 0.360526 16.9639 0.564882C14.5762 2.92776 12.2087 5.31261 9.82825 7.68531Z" fill="#050505"/>
<path d="M24.5161 7.51198C24.8895 7.73742 25.1983 8.05551 25.4127 8.43541C25.627 8.81531 25.7395 9.24414 25.7394 9.68033C25.7394 9.732 25.7376 9.78367 25.7345 9.83534C25.8427 9.99397 25.9613 10.1384 26.1088 10.2409C27.2507 11.0354 28.427 11.7841 29.626 12.4886C29.7552 12.5638 29.936 12.6056 30.119 12.6116C30.6781 12.1997 31.3357 11.942 32.0259 11.8644C32.716 11.7868 33.4144 11.892 34.0511 12.1695C34.2619 12.1248 34.4701 12.0321 34.6019 11.9127C35.3188 11.2627 35.9897 10.5623 36.6713 9.87332C36.5369 9.52159 36.4825 9.14438 36.512 8.76903C36.5415 8.39368 36.6541 8.02959 36.8418 7.70316C34.4885 5.3364 32.1475 2.95724 29.7836 0.601078C29.5614 0.379413 29.2023 0.200633 28.8933 0.176865C27.6532 0.0823083 26.4064 0.0626736 25.1627 0.00273605C24.6579 -0.021549 24.4598 0.205284 24.4652 0.700285C24.4791 1.82386 24.4696 2.94794 24.4688 4.07126C24.4688 4.36449 24.4587 4.65797 24.4688 4.94965C24.5019 5.8004 24.3706 6.68293 24.5161 7.51198Z" fill="#050505"/>
<path d="M45.6475 9.71598C44.2472 9.72244 42.8356 9.61626 41.449 9.74337C41.3431 10.0718 41.1712 10.3752 40.9439 10.6349C40.7166 10.8946 40.4387 11.1052 40.1271 11.2537C39.8156 11.4022 39.477 11.4855 39.1321 11.4986C38.7872 11.5117 38.4433 11.4542 38.1214 11.3296C37.3743 12.0096 36.6969 12.7811 36.0086 13.5256C35.9467 13.5968 35.8981 13.6785 35.8653 13.7669C36.2932 14.4836 36.4836 15.3172 36.4094 16.1485C36.3352 16.9799 36 17.7666 35.4519 18.3961C35.4638 18.4162 35.4764 18.4366 35.4896 18.4573C36.2704 19.6687 37.0235 20.898 37.797 22.1143L37.8088 22.1326C37.9271 22.1157 38.0464 22.107 38.1659 22.1068C38.5342 22.1062 38.8983 22.1863 39.2324 22.3414C39.2548 22.3199 39.2778 22.2977 39.3011 22.2747C41.1874 20.3939 43.0667 18.506 44.9391 16.6111C45.185 16.3608 45.43 16.0218 45.4891 15.6904C45.8118 13.9134 46.0758 12.1251 46.3603 10.3425C46.3887 9.80382 46.0753 9.71391 45.6475 9.71598Z" fill="#050505"/>
<path d="M3.26278 9.74694C3.56221 9.74694 3.86164 9.7534 4.16081 9.74694C3.86164 9.75237 3.56221 9.74539 3.26278 9.74565C2.57866 9.74565 1.89352 9.77149 1.21069 9.73816C1.893 9.77355 2.57866 9.74694 3.26278 9.74694Z" fill="#050505"/>
<path d="M7.35929 22.2326C7.41923 22.2922 7.47736 22.3452 7.53368 22.3917C7.78915 22.3078 8.05637 22.2652 8.32527 22.2654C8.43576 22.2654 8.54614 22.2725 8.6557 22.2868C8.71634 22.2111 8.77283 22.1322 8.82492 22.0504C9.57879 20.8801 10.3474 19.7167 11.0359 18.5084C11.0887 18.4108 11.1258 18.3055 11.146 18.1963C10.5644 17.5798 10.196 16.793 10.095 15.9515C9.99397 15.11 10.1657 14.2583 10.5848 13.5217L10.5778 13.5129C9.98363 12.834 9.30597 12.2289 8.68309 11.5753C8.6371 11.527 8.5906 11.48 8.54409 11.4335C8.22165 11.5484 7.87929 11.5968 7.53764 11.5758C7.19599 11.5548 6.86213 11.4648 6.55619 11.3113C6.25025 11.1578 5.97857 10.9439 5.75752 10.6825C5.53647 10.4212 5.37063 10.1178 5.27 9.79061C4.94445 9.74983 4.61619 9.7348 4.28827 9.74566C4.24555 9.74704 4.2025 9.74807 4.15909 9.74876C3.85992 9.75419 3.56049 9.74721 3.26106 9.74876C2.57695 9.74876 1.8918 9.7746 1.20898 9.74101C0.590741 9.71001 0.352282 9.96087 0.440639 10.5633C0.685297 12.2295 0.902571 13.9 1.18443 15.5599C1.2454 15.9192 1.46604 16.3044 1.72439 16.5692C3.58684 18.4725 5.471 20.3546 7.35929 22.2326Z" fill="#050505"/>
<path d="M31.4154 37.6817C30.841 37.5362 30.3066 37.2632 29.8522 36.8829C29.7706 36.9094 29.6926 36.9456 29.6196 36.9906C28.6436 37.5918 27.6879 38.226 26.7129 38.8293C26.399 39.0236 26.0776 39.2067 25.8087 39.4354C25.8149 39.5075 25.8183 39.5801 25.8183 39.6537C25.8185 40.1104 25.6951 40.5587 25.4613 40.951C25.2275 41.3433 24.8919 41.6651 24.4901 41.8822C24.4325 42.0279 24.3998 42.1822 24.3934 42.3387C24.3557 44.9248 24.3728 47.5117 24.3761 50.0986C24.3761 50.3327 24.4051 50.567 24.4294 50.9331C24.6851 50.8181 24.8122 50.793 24.8957 50.7189C26.9746 48.8761 29.0595 47.04 31.1088 45.1643C31.3387 44.9538 31.4578 44.5185 31.4632 44.1826C31.495 42.1334 31.486 40.0831 31.4767 38.0338C31.4756 37.9139 31.4549 37.7949 31.4154 37.6817Z" fill="#050505"/>
<path d="M20.7508 39.6537C20.7507 39.5674 20.755 39.4812 20.7637 39.3954C20.7302 39.3653 20.6948 39.3374 20.6577 39.3119C19.5303 38.5402 18.362 37.8279 17.2111 37.0901C17.115 37.0286 17.0222 36.9684 16.929 36.918C16.4438 37.3384 15.8634 37.6341 15.238 37.7794C15.2081 37.9034 15.1953 38.0309 15.2001 38.1584C15.2468 40.1105 15.2352 42.0649 15.2063 44.0178C15.1972 44.6321 15.3848 45.1085 15.8333 45.5049C17.7339 47.1847 19.6348 48.8639 21.5359 50.5427C21.6924 50.6807 21.887 50.7752 22.2334 51C22.2575 50.5138 22.2836 50.2298 22.2851 49.9459C22.2885 47.6019 22.2774 45.2579 22.2923 42.9139C22.2944 42.5886 22.3011 42.268 22.2528 41.9662C21.8058 41.767 21.4261 41.4426 21.1596 41.0322C20.893 40.6219 20.751 40.1431 20.7508 39.6537Z" fill="#050505"/>
<path d="M0.928843 7.61529C2.32136 7.59074 3.71904 7.66696 5.1069 7.58945C5.29475 7.57898 5.48185 7.55776 5.66727 7.5259C5.90306 7.21173 6.20879 6.9568 6.56023 6.78133C6.91167 6.60585 7.29916 6.51466 7.69197 6.51497C7.75466 6.51497 7.81675 6.51721 7.87824 6.52169C7.95695 6.45675 8.03368 6.38915 8.10843 6.31888C9.86729 4.65897 11.5414 2.90864 13.2476 1.1937C13.4093 1.02965 13.5522 0.846478 13.7749 0.590969C13.5307 0.544207 13.4173 0.49512 13.3098 0.506229C9.05038 0.943618 4.83589 1.63858 0.693743 2.7389C0.183499 2.87428 -0.0236988 3.18714 0.00213638 3.70255C0.0538067 4.75146 0.113228 5.80063 0.128987 6.85031C0.137771 7.41636 0.366929 7.62433 0.928843 7.61529Z" fill="#050505"/>
<path d="M45.6911 2.66863C41.9677 1.99227 38.2474 1.29937 34.523 0.627653C34.0322 0.539297 33.5263 0.543689 32.8569 0.49176C33.0262 0.755279 33.0652 0.84751 33.1308 0.91339C34.9816 2.77352 36.7805 4.69023 38.7171 6.45529C38.8237 6.44183 38.9311 6.4351 39.0385 6.43514C39.4501 6.43486 39.8555 6.53501 40.2197 6.72689C40.5838 6.91876 40.8956 7.19658 41.1281 7.53623C41.1873 7.54502 41.2461 7.55268 41.3045 7.55923C42.7771 7.72379 44.2818 7.5972 45.7727 7.6109C46.2491 7.61555 46.5018 7.45718 46.5149 6.94461C46.5408 5.91921 46.5731 4.89252 46.6519 3.87022C46.7074 3.13495 46.3791 2.79393 45.6911 2.66863Z" fill="#050505"/>
<path d="M10.306 32.8883C10.3843 32.883 10.4614 32.8656 10.5344 32.8366C10.6872 32.3016 10.9513 31.805 11.3094 31.3792C11.2959 31.3405 11.2786 31.3032 11.2578 31.2679C10.4504 29.927 9.6069 28.6069 8.75356 27.2949C8.30706 27.371 7.84836 27.3264 7.42486 27.1658C7.1585 27.4161 6.90377 27.6796 6.64981 27.9426C5.08755 29.5563 5.18211 28.9879 6.03829 31.1377C6.57256 32.479 7.26158 33.3409 8.62464 32.8945C9.33201 32.8937 9.82055 32.9162 10.306 32.8883Z" fill="#050505"/>
<path d="M37.4729 32.8927C37.5855 32.8961 37.6982 32.8994 37.8106 32.8994C37.9069 32.8994 38.0033 32.8968 38.0999 32.894C38.0033 32.8968 37.9067 32.8994 37.8106 32.8994C37.6982 32.8994 37.5855 32.8958 37.4729 32.8927Z" fill="#050505"/>
<path d="M40.9137 28.8518C40.3649 28.3294 39.8472 27.7747 39.3064 27.2441C39.225 27.1632 39.1393 27.0867 39.0496 27.0149C38.7671 27.1199 38.468 27.1736 38.1666 27.1733C38.1017 27.1733 38.0374 27.1709 37.9739 27.166C37.9204 27.2358 37.8656 27.3146 37.8088 27.404C37.0854 28.5376 36.3785 29.6803 35.6565 30.8142C35.5565 30.9713 35.4601 31.1191 35.3953 31.2723C35.7912 31.7339 36.0751 32.2807 36.2248 32.8702C36.386 32.919 36.5697 32.9317 36.7847 32.9069C36.9118 32.8932 37.0397 32.8868 37.1676 32.8877C37.2316 32.8877 37.2967 32.8877 37.3603 32.8903L37.4729 32.8934C37.5856 32.8968 37.6982 32.9001 37.8106 32.9001C37.907 32.9001 38.0033 32.8976 38.0999 32.8947L38.1966 32.8919C38.41 32.8815 38.6238 32.8866 38.8365 32.9071C39.4945 32.9846 39.8854 32.7263 40.1314 32.1075C40.4199 31.3826 40.7845 30.6866 41.1157 29.9795C41.3133 29.5558 41.2702 29.191 40.9137 28.8518Z" fill="#050505"/>
<path d="M36.1716 35.0091C35.9878 35.6035 35.6669 36.1464 35.2346 36.5939C34.8023 37.0414 34.2709 37.3809 33.6831 37.5851C33.593 37.7414 33.5281 37.9044 33.5196 38.0613C33.4581 39.1559 33.4922 40.2572 33.501 41.3545C33.5028 41.5818 33.5527 41.8089 33.5819 42.036L33.7803 42.0949C35.557 39.9382 37.1388 37.65 38.5655 34.9923C37.6305 34.992 36.897 34.9685 36.1716 35.0091Z" fill="#050505"/>
<path d="M13.1092 37.6856C12.4948 37.4837 11.939 37.1347 11.4904 36.6688C11.0418 36.203 10.7139 35.6346 10.5352 35.013C10.5183 35.0084 10.501 35.0055 10.4835 35.0042C9.76301 34.9618 9.03833 34.9861 8.06409 34.9861C9.54237 37.6402 11.0964 39.9436 12.956 42.2119C13.0673 41.926 13.1304 41.8389 13.1311 41.7511C13.1412 40.4335 13.1616 39.1159 13.1283 37.8014C13.1269 37.7621 13.1205 37.7232 13.1092 37.6856Z" fill="#050505"/>
<path d="M43.9961 20.4854C42.8555 21.6221 41.7131 22.7565 40.5936 23.9134C40.7531 24.4483 40.7321 25.0208 40.5339 25.5426C40.8915 26.1799 41.6288 26.5385 42.0755 27.1123L42.3561 27.0886L44.497 20.4319L44.2904 20.3254C44.1906 20.3779 44.0718 20.4099 43.9961 20.4854Z" fill="#050505"/>
<path d="M5.94317 25.6614C5.73737 25.0911 5.74222 24.466 5.95686 23.899C4.89581 22.7077 3.72264 21.6154 2.58641 20.491C2.5523 20.4572 2.46162 20.4804 2.22058 20.4675L4.29928 26.9607L4.61886 27.0175C5.05702 26.5633 5.57295 26.1549 5.94317 25.6614Z" fill="#050505"/>
</svg>
