<svg width="17" height="19" viewBox="0 0 17 19" fill="none" xmlns="http://www.w3.org/2000/svg">
<path d="M10.1373 12.4586L10.1399 12.4567C10.0657 12.2585 10.0373 12.046 10.0568 11.8353C10.0764 11.6246 10.1434 11.421 10.2529 11.2399L10.243 11.23C9.94464 10.9305 9.64369 10.6334 9.34895 10.3304C9.29497 10.2749 9.24209 10.2401 9.18455 10.2274C8.90127 10.4053 8.57383 10.5004 8.23929 10.5019C7.90475 10.5034 7.57648 10.4112 7.29163 10.2358C7.23245 10.254 7.17792 10.2933 7.12157 10.3523C6.8714 10.6144 6.61694 10.8729 6.35436 11.1221C6.31602 11.1577 6.2799 11.1956 6.24622 11.2356C6.36242 11.4163 6.43552 11.6214 6.45986 11.8348C6.4842 12.0483 6.45913 12.2645 6.3866 12.4668C6.38934 12.469 6.39199 12.4715 6.39482 12.4735C6.67796 12.6835 7.00557 12.8372 7.2783 13.0588C7.40318 13.161 7.54304 13.2434 7.69296 13.3031C7.85147 13.1838 8.04514 13.1205 8.24353 13.1232C8.44192 13.126 8.63379 13.1945 8.78898 13.3181C9.23981 13.0338 9.68923 12.7473 10.1373 12.4586Z" fill="#050505"/>
<path d="M12.0165 10.5231C12.2293 10.188 12.4397 9.85143 12.6542 9.51741C12.7047 9.43887 12.7592 9.36215 12.8032 9.28214C12.6766 9.12941 12.6043 8.93894 12.5977 8.74065C12.591 8.54236 12.6505 8.34749 12.7667 8.18667C12.7653 8.18411 12.764 8.18146 12.7626 8.1789C12.5221 7.76031 12.2447 7.3631 11.9972 6.94826C11.9863 6.92999 11.9754 6.91291 11.9643 6.89702C11.7609 6.97216 11.5429 6.99912 11.3274 6.97576C11.1119 6.9524 10.9047 6.87936 10.7221 6.76239C10.7197 6.7644 10.7171 6.76623 10.7148 6.76824C10.3996 7.04918 10.1133 7.36255 9.81117 7.65857C9.78393 7.68433 9.76027 7.71363 9.74084 7.7457C9.92404 8.03228 10.0219 8.36507 10.023 8.7052C10.0241 9.04532 9.92833 9.37873 9.74696 9.66647C9.75692 9.73287 9.78149 9.79836 9.81583 9.83709C10.0731 10.1273 10.3646 10.387 10.6283 10.672C10.659 10.7058 10.6918 10.7376 10.7265 10.7672C10.906 10.659 11.1075 10.5923 11.3161 10.5722C11.5248 10.5521 11.7353 10.579 11.9322 10.651C11.9565 10.6175 11.9832 10.5754 12.0165 10.5231Z" fill="#050505"/>
<path d="M7.69487 4.21013C7.25646 4.46751 6.83084 4.74837 6.40284 5.02402C6.37243 5.04356 6.33562 5.06594 6.30429 5.09033C6.35571 5.27219 6.36985 5.46256 6.34587 5.65002C6.32189 5.83749 6.26028 6.01817 6.16473 6.18123C6.18681 6.20971 6.2108 6.23665 6.23652 6.26188C6.53884 6.56986 6.84783 6.87145 7.1485 7.18098C7.16848 7.20186 7.19041 7.2208 7.21399 7.23752C7.51559 7.02919 7.87385 6.9184 8.24041 6.92012C8.60697 6.92183 8.96417 7.03596 9.26382 7.24711C9.304 7.22229 9.3405 7.19195 9.37223 7.15696C9.62696 6.88716 9.88745 6.62192 10.1591 6.36929C10.1938 6.33762 10.2264 6.30375 10.2568 6.26791C10.1563 6.08802 10.0968 5.88819 10.0823 5.68264C10.0679 5.4771 10.0989 5.2709 10.1732 5.07873C10.1336 5.04541 10.0911 5.01565 10.0463 4.98977C9.7425 4.80883 9.44649 4.61465 9.14946 4.42258C9.0047 4.32896 8.86432 4.2231 8.71106 4.16045C8.56902 4.25779 8.40195 4.31214 8.22983 4.317C8.05771 4.32186 7.88783 4.27702 7.74053 4.18785C7.72475 4.19407 7.70948 4.20152 7.69487 4.21013Z" fill="#050505"/>
<path d="M6.6793 9.83598C6.70734 9.80502 6.72853 9.75588 6.74068 9.70282C6.54572 9.40954 6.44152 9.0653 6.44112 8.71314C6.44071 8.36097 6.54411 8.0165 6.7384 7.72277C6.72154 7.69839 6.70223 7.6758 6.68076 7.65536C6.37735 7.3609 6.09074 7.04835 5.77746 6.76576C5.74193 6.7337 5.69343 6.71096 5.64046 6.69525C5.31992 6.87393 4.9421 6.91983 4.5881 6.82312C4.55338 6.8634 4.52252 6.90685 4.49594 6.95291C4.27756 7.31478 4.04794 7.66989 3.81815 8.02472C3.76855 8.10126 3.71722 8.17643 3.67749 8.25434C3.78071 8.40184 3.83707 8.57703 3.83924 8.75704C3.84141 8.93706 3.78927 9.11355 3.68964 9.2635C3.69156 9.26724 3.69347 9.27099 3.69557 9.27455C3.95908 9.7199 4.24614 10.1514 4.51695 10.5923C4.53618 10.6243 4.55848 10.6543 4.58353 10.6819C4.77287 10.6118 4.97512 10.5834 5.17645 10.5986C5.37778 10.6138 5.57345 10.6724 5.75006 10.7702C6.07284 10.4724 6.38484 10.1615 6.6793 9.83598Z" fill="#050505"/>
<path d="M8.65069 1.43922C8.65069 1.042 8.65435 0.644606 8.64942 0.247482C8.65435 0.644698 8.65097 1.0421 8.65042 1.43922C8.65042 1.54288 8.64713 1.64664 8.65097 1.74976C8.64713 1.64655 8.65042 1.54279 8.65069 1.43922Z" fill="#050505"/>
<path d="M7.86667 1.43043C7.86731 1.74152 7.86128 2.05269 7.86914 2.3636C7.86128 2.05306 7.86722 1.74152 7.86695 1.43043C7.86695 1.04162 7.86256 0.652713 7.86841 0.263901C7.86256 0.652713 7.86667 1.04162 7.86667 1.43043Z" fill="#050505"/>
<path d="M3.47455 2.71698C3.54814 2.83266 3.59425 2.96367 3.60932 3.09994C3.6244 3.23622 3.60804 3.37413 3.5615 3.5031C3.80125 3.74541 4.03818 3.99056 4.29044 4.21889C4.29621 4.22407 4.30231 4.22886 4.30871 4.23323C4.56528 4.09898 4.85718 4.04762 5.14417 4.08623C5.43116 4.12483 5.69911 4.25151 5.91109 4.44878C6.03576 4.42686 6.15011 4.35946 6.27058 4.26082C6.32374 4.21734 6.3885 4.18848 6.44412 4.14793C6.72872 3.94133 7.05981 3.79592 7.31856 3.55872C7.2889 3.3653 7.32332 3.16749 7.41655 2.99545C7.50979 2.82341 7.65673 2.68658 7.83497 2.60583C7.85884 2.52729 7.87034 2.44551 7.86903 2.36343C7.86118 2.05289 7.86712 1.74134 7.86657 1.43026C7.86657 1.04144 7.86255 0.652541 7.8683 0.263728C7.87104 0.0789576 7.80035 -0.00872383 7.60882 0.000683658C7.16904 0.0224214 6.72835 0.0300021 6.28894 0.0617867C6.18792 0.0690021 6.07019 0.127456 5.99722 0.199702C5.1531 1.03505 4.31611 1.87816 3.47455 2.71698Z" fill="#050505"/>
<path d="M8.66714 2.6557C8.79915 2.7354 8.90833 2.84785 8.9841 2.98216C9.05987 3.11646 9.09966 3.26806 9.09961 3.42227C9.09961 3.44054 9.09897 3.4588 9.09787 3.47707C9.13614 3.53315 9.17806 3.58421 9.23022 3.62047C9.63392 3.90132 10.0498 4.16601 10.4736 4.41508C10.5193 4.44166 10.5833 4.45646 10.6479 4.45856C10.8456 4.31293 11.0781 4.22183 11.3221 4.1944C11.566 4.16698 11.813 4.20418 12.038 4.30228C12.1126 4.28648 12.1862 4.25369 12.2328 4.21149C12.4862 3.9817 12.7234 3.73409 12.9644 3.4905C12.9169 3.36615 12.8976 3.2328 12.9081 3.1001C12.9185 2.9674 12.9583 2.83869 13.0246 2.72328C12.1927 1.88657 11.3651 1.04546 10.5294 0.212489C10.4508 0.134124 10.3239 0.0709202 10.2146 0.0625174C9.77622 0.0290889 9.33543 0.0221474 8.89575 0.000957726C8.71728 -0.00762775 8.64723 0.0725643 8.64914 0.247562C8.65408 0.644777 8.6507 1.04218 8.65042 1.4393C8.65042 1.54296 8.64686 1.64672 8.65042 1.74984C8.66211 2.0506 8.61572 2.3626 8.66714 2.6557Z" fill="#050505"/>
<path d="M16.1377 3.43488C15.6427 3.43716 15.1436 3.39962 14.6534 3.44456C14.616 3.56068 14.5552 3.66794 14.4748 3.75975C14.3945 3.85156 14.2962 3.926 14.1861 3.9785C14.076 4.03101 13.9563 4.06047 13.8343 4.06509C13.7124 4.0697 13.5908 4.04938 13.477 4.00535C13.2129 4.24575 12.9734 4.51847 12.7301 4.7817C12.7082 4.80685 12.691 4.83575 12.6794 4.86701C12.8307 5.12037 12.898 5.41506 12.8718 5.70898C12.8455 6.0029 12.727 6.281 12.5333 6.50355C12.5375 6.51067 12.5419 6.51788 12.5466 6.52519C12.8226 6.95346 13.0889 7.38803 13.3623 7.81804L13.3665 7.82452C13.4083 7.81853 13.4505 7.81548 13.4927 7.81539C13.623 7.81518 13.7517 7.84348 13.8698 7.89832C13.8777 7.89074 13.8858 7.88288 13.8941 7.87476C14.5609 7.20984 15.2253 6.54242 15.8873 5.87251C15.9742 5.78401 16.0608 5.66418 16.0817 5.547C16.1958 4.91879 16.2891 4.28657 16.3897 3.65636C16.3997 3.46593 16.289 3.43415 16.1377 3.43488Z" fill="#050505"/>
<path d="M1.15351 3.44584C1.25937 3.44584 1.36523 3.44812 1.47099 3.44584C1.36523 3.44776 1.25937 3.44529 1.15351 3.44538C0.911658 3.44538 0.669438 3.45452 0.42804 3.44273C0.669255 3.45525 0.911658 3.44584 1.15351 3.44584Z" fill="#050505"/>
<path d="M2.60171 7.85986C2.6229 7.88095 2.64345 7.89968 2.66336 7.91612C2.75368 7.88646 2.84815 7.87138 2.94321 7.87146C2.98227 7.87146 3.0213 7.87399 3.06003 7.87904C3.08147 7.85228 3.10144 7.82438 3.11985 7.79547C3.38637 7.38172 3.65809 6.97044 3.9015 6.54327C3.92016 6.50875 3.93329 6.47152 3.94041 6.43293C3.7348 6.21498 3.60457 5.93681 3.56886 5.63932C3.53315 5.34183 3.59385 5.04074 3.74203 4.78032L3.73956 4.77721C3.52949 4.53719 3.28992 4.32328 3.06971 4.0922C3.05345 4.07512 3.03701 4.0585 3.02057 4.04206C2.90658 4.08268 2.78555 4.09979 2.66476 4.09236C2.54398 4.08494 2.42595 4.05313 2.31779 3.99886C2.20963 3.94459 2.11358 3.86898 2.03544 3.77658C1.95729 3.68419 1.89866 3.57693 1.86309 3.46126C1.74799 3.44684 1.63194 3.44153 1.51601 3.44537C1.50091 3.44586 1.48569 3.44622 1.47035 3.44647C1.36458 3.44838 1.25872 3.44592 1.15287 3.44647C0.911011 3.44647 0.668791 3.4556 0.427393 3.44373C0.208829 3.43277 0.124527 3.52145 0.155763 3.73444C0.242257 4.32346 0.31907 4.91403 0.418716 5.50086C0.440271 5.62791 0.518271 5.76409 0.609606 5.85771C1.26804 6.53057 1.93414 7.19594 2.60171 7.85986Z" fill="#050505"/>
<path d="M11.1063 13.3216C10.9032 13.2702 10.7143 13.1736 10.5536 13.0392C10.5248 13.0486 10.4972 13.0614 10.4714 13.0773C10.1264 13.2898 9.7885 13.514 9.44381 13.7273C9.33283 13.796 9.21921 13.8608 9.12413 13.9416C9.12633 13.9671 9.12751 13.9927 9.12751 14.0188C9.12758 14.1802 9.08398 14.3387 9.00131 14.4774C8.91865 14.6161 8.80001 14.7299 8.65796 14.8066C8.63759 14.8581 8.62605 14.9127 8.6238 14.968C8.61047 15.8823 8.61649 16.7968 8.61768 17.7113C8.61768 17.7941 8.62791 17.8769 8.6365 18.0064C8.72692 17.9657 8.77185 17.9569 8.80136 17.9306C9.53633 17.2791 10.2734 16.63 10.9979 15.9669C11.0792 15.8925 11.1213 15.7386 11.1232 15.6199C11.1344 14.8954 11.1312 14.1706 11.1279 13.4461C11.1276 13.4037 11.1202 13.3616 11.1063 13.3216Z" fill="#050505"/>
<path d="M7.33603 14.0188C7.33601 13.9882 7.33753 13.9578 7.34059 13.9274C7.32877 13.9168 7.31626 13.9069 7.30314 13.8979C6.90456 13.6251 6.49154 13.3733 6.08465 13.1124C6.05067 13.0907 6.01788 13.0694 5.98491 13.0516C5.81339 13.2002 5.60819 13.3048 5.38712 13.3561C5.37653 13.4 5.37201 13.445 5.3737 13.4901C5.39023 14.1802 5.38612 14.8712 5.37589 15.5616C5.37269 15.7788 5.439 15.9472 5.59756 16.0873C6.26948 16.6812 6.94149 17.2748 7.61359 17.8683C7.66894 17.9171 7.73772 17.9505 7.8602 18.03C7.86869 17.8581 7.87792 17.7577 7.87846 17.6573C7.87965 16.8287 7.87572 16 7.88102 15.1713C7.88175 15.0563 7.88413 14.943 7.86705 14.8363C7.70903 14.7659 7.5748 14.6512 7.48056 14.5061C7.38633 14.361 7.33613 14.1917 7.33603 14.0188Z" fill="#050505"/>
<path d="M0.328373 2.69223C0.820668 2.68355 1.31479 2.7105 1.80544 2.6831C1.87185 2.67939 1.93799 2.67189 2.00355 2.66063C2.08691 2.54956 2.19499 2.45943 2.31924 2.3974C2.44348 2.33536 2.58047 2.30312 2.71934 2.30323C2.7415 2.30323 2.76345 2.30403 2.78519 2.30561C2.81302 2.28265 2.84014 2.25875 2.86657 2.23391C3.48838 1.64708 4.08023 1.02829 4.6834 0.42201C4.74058 0.364012 4.79109 0.299256 4.86982 0.208926C4.7835 0.192394 4.74341 0.175041 4.70541 0.178968C3.19958 0.333598 1.70963 0.579289 0.245259 0.968284C0.0648723 1.01614 -0.00837821 1.12675 0.000755272 1.30896C0.0190222 1.67978 0.0400293 2.05069 0.0456007 2.42179C0.0487061 2.6219 0.12972 2.69543 0.328373 2.69223Z" fill="#050505"/>
<path d="M16.1531 0.943446C14.8368 0.704331 13.5216 0.459371 12.2049 0.221901C12.0314 0.190664 11.8526 0.192217 11.6159 0.173859C11.6757 0.26702 11.6895 0.299627 11.7127 0.322917C12.367 0.980528 13.003 1.65814 13.6877 2.28214C13.7253 2.27738 13.7633 2.275 13.8013 2.27502C13.9468 2.27492 14.0901 2.31032 14.2188 2.37816C14.3476 2.44599 14.4578 2.54421 14.54 2.66429C14.5609 2.66739 14.5817 2.6701 14.6024 2.67241C15.123 2.7306 15.6549 2.68584 16.182 2.69068C16.3504 2.69233 16.4398 2.63634 16.4444 2.45513C16.4535 2.09262 16.465 1.72966 16.4928 1.36824C16.5125 1.10831 16.3964 0.987743 16.1531 0.943446Z" fill="#050505"/>
<path d="M3.64345 11.627C3.67115 11.6251 3.69839 11.6189 3.72419 11.6087C3.77821 11.4196 3.87158 11.244 3.9982 11.0935C3.99343 11.0798 3.98731 11.0666 3.97993 11.0541C3.69451 10.5801 3.3963 10.1134 3.09462 9.64956C2.93677 9.67644 2.77461 9.66068 2.62489 9.6039C2.53072 9.6924 2.44067 9.78556 2.35088 9.87854C1.79858 10.449 1.83201 10.2481 2.13469 11.0081C2.32357 11.4823 2.56716 11.787 3.04905 11.6292C3.29912 11.6289 3.47184 11.6368 3.64345 11.627Z" fill="#050505"/>
<path d="M13.2477 11.6285C13.2876 11.6297 13.3274 11.6309 13.3671 11.6309C13.4012 11.6309 13.4353 11.63 13.4694 11.629C13.4353 11.63 13.4011 11.6309 13.3671 11.6309C13.3274 11.6309 13.2876 11.6296 13.2477 11.6285Z" fill="#050505"/>
<path d="M14.4642 10.1999C14.2702 10.0153 14.0871 9.81917 13.896 9.63157C13.8672 9.60297 13.8369 9.57593 13.8052 9.55055C13.7053 9.58768 13.5996 9.60664 13.493 9.60654C13.47 9.60654 13.4473 9.60569 13.4249 9.60398C13.406 9.62864 13.3866 9.6565 13.3665 9.6881C13.1108 10.0889 12.8609 10.4929 12.6056 10.8937C12.5702 10.9493 12.5362 11.0015 12.5132 11.0557C12.6532 11.2188 12.7536 11.4122 12.8065 11.6206C12.8635 11.6378 12.9285 11.6423 13.0044 11.6335C13.0494 11.6287 13.0946 11.6265 13.1398 11.6268C13.1625 11.6268 13.1855 11.6268 13.2079 11.6277L13.2478 11.6288C13.2876 11.63 13.3274 11.6312 13.3671 11.6312C13.4012 11.6312 13.4353 11.6302 13.4694 11.6292L13.5036 11.6282C13.579 11.6246 13.6546 11.6264 13.7298 11.6336C13.9625 11.661 14.1006 11.5697 14.1876 11.3509C14.2896 11.0947 14.4185 10.8486 14.5356 10.5986C14.6055 10.4488 14.5902 10.3199 14.4642 10.1999Z" fill="#050505"/>
<path d="M12.7877 12.3767C12.7228 12.5869 12.6093 12.7788 12.4565 12.937C12.3037 13.0952 12.1158 13.2153 11.908 13.2874C11.8761 13.3427 11.8532 13.4003 11.8502 13.4558C11.8284 13.8428 11.8405 14.2321 11.8436 14.62C11.8442 14.7004 11.8619 14.7807 11.8722 14.861L11.9423 14.8818C12.5704 14.1193 13.1297 13.3104 13.634 12.3708C13.3035 12.3707 13.0442 12.3624 12.7877 12.3767Z" fill="#050505"/>
<path d="M4.63448 13.323C4.41726 13.2516 4.2208 13.1282 4.0622 12.9635C3.90359 12.7988 3.78766 12.5979 3.72451 12.3781C3.71853 12.3765 3.71242 12.3755 3.70624 12.375C3.45151 12.36 3.19531 12.3686 2.85089 12.3686C3.37351 13.3069 3.92289 14.1212 4.58032 14.9232C4.61968 14.8221 4.64197 14.7913 4.64224 14.7602C4.6458 14.2944 4.65302 13.8286 4.64124 13.3639C4.64075 13.35 4.63848 13.3363 4.63448 13.323Z" fill="#050505"/>
<path d="M15.5539 7.24216C15.1507 7.64403 14.7468 8.04508 14.3511 8.45408C14.4074 8.64318 14.4 8.84558 14.33 9.03004C14.4564 9.25536 14.717 9.38214 14.875 9.58499L14.9741 9.57659L15.731 7.22325L15.658 7.18562C15.6227 7.20416 15.5807 7.21549 15.5539 7.24216Z" fill="#050505"/>
<path d="M2.10108 9.07207C2.02832 8.87044 2.03004 8.64945 2.10592 8.44898C1.73081 8.02783 1.31606 7.64167 0.914364 7.24418C0.902308 7.23222 0.87025 7.24044 0.785034 7.23587L1.51991 9.53139L1.6329 9.55148C1.7878 9.39092 1.9702 9.24652 2.10108 9.07207Z" fill="#050505"/>
</svg>
