<svg width="13" height="13" viewBox="0 0 13 13" fill="none" xmlns="http://www.w3.org/2000/svg">
<path d="M7.67796 6.49958L12.7549 1.42264C13.0805 1.09707 13.0806 0.56992 12.7549 0.24428C12.4293 -0.0813845 11.9022 -0.0814607 11.5765 0.244255L6.49958 5.3212L1.42264 0.24428C1.09708 -0.0813591 0.569898 -0.0814607 0.244258 0.24423C-0.0814067 0.569869 -0.0814321 1.09695 0.244258 1.42261L5.32115 6.49958L0.244233 11.5765C-0.0806704 11.9014 -0.0806704 12.43 0.244233 12.7549C0.569847 13.0805 1.09697 13.0806 1.42261 12.7549L6.49953 7.67791L11.5764 12.7548C11.902 13.0805 12.4292 13.0805 12.7548 12.7548C13.0805 12.4292 13.0805 11.9021 12.7548 11.5764L7.67796 6.49958Z" fill="white"/>
<path d="M7.67789 6.49958L12.7548 1.42264C13.0804 1.09707 13.0806 0.56992 12.7548 0.24428C12.4292 -0.0813845 11.9021 -0.0814607 11.5765 0.244255L6.49951 5.32117V7.67798L11.5764 12.7549C11.902 13.0806 12.4292 13.0806 12.7548 12.7549C13.0804 12.4293 13.0805 11.9022 12.7548 11.5765L7.67789 6.49958Z" fill="white"/>
</svg>
