<svg width="68" height="73" viewBox="0 0 68 73" fill="none" xmlns="http://www.w3.org/2000/svg">
<path d="M28.904 66.7332V72.5475C30.4854 72.793 32.0959 72.95 33.7457 72.95C35.4056 72.95 37.0164 72.793 38.5978 72.5475V70.2788V66.7332V17.0007L28.904 23.7872V66.7332Z" fill="#1F4271"/>
<path d="M0 40.405C0 55.8635 10.7837 68.7665 25.2211 72.0957V67.6661V66.2032V34.5516L15.5276 41.3331V61.5872C8.27915 56.3227 3.54556 47.8151 3.54556 38.1706C3.54556 22.1521 16.5292 9.17318 32.5477 9.17318C34.1976 9.17318 35.8084 9.34018 37.3895 9.60536V8.26475C35.8084 8.03396 34.1976 7.86697 32.5477 7.86697C14.5747 7.86697 0 22.432 0 40.405Z" fill="#6ED0F6"/>
<path d="M55.6574 15.3559V17.9142C60.7841 23.139 63.9566 30.2743 63.9566 38.1706C63.9566 47.8151 59.2321 56.3227 51.9843 61.5872V29.8421V9.92463V6.78185L42.2807 0V66.2032V68.7859V72.0957C56.7182 68.7665 67.5015 55.8635 67.5015 40.405C67.5015 30.3137 62.8759 21.3222 55.6574 15.3559Z" fill="#377AC7"/>
</svg>
