<svg width="65" height="73" viewBox="0 0 65 73" fill="none" xmlns="http://www.w3.org/2000/svg">
<path d="M33.1078 64.3448C30.437 59.9533 27.8752 50.0043 27.8752 36.4745C27.8752 34.3769 27.9395 32.371 28.0534 30.4523C26.8475 29.8495 25.6804 29.2978 24.5621 28.803C24.3759 31.3245 24.2812 33.9018 24.2812 36.4745C24.2812 47.363 25.9613 58.3307 29.22 64.7407L9.7521 53.5815C13.3837 53.5781 23.0957 47.9915 22.9745 46.7487C16.0109 49.549 10.6552 50.4119 7.80998 49.8451C7.37594 49.2946 6.80858 48.8521 6.15338 48.5711V24.3791C6.81036 24.0956 7.37942 23.6519 7.81405 23.0991C12.1655 22.2384 22.3773 24.7147 35.2047 32.3234C36.9179 33.3398 38.5288 34.3663 40.048 35.3909C41.133 34.6382 42.1559 33.8924 43.1173 33.1584C41.1605 31.802 39.1251 30.4929 37.0482 29.2607C26.5126 23.012 16.3278 19.3755 9.75255 19.3673L29.2178 8.20943C27.5077 11.5766 27.6668 22.3628 28.8245 22.8992C29.8081 16.2825 31.4354 11.3552 33.1056 8.60504C33.7967 8.50871 34.4344 8.24841 34.9773 7.86308L56.1028 19.9725C56.0947 20.0782 56.0865 20.1827 56.0865 20.2907V20.5102C56.0865 20.9759 56.1658 21.4232 56.3065 21.8425C54.0927 26.3163 46.8829 33.6974 35.2047 40.6256C33.3863 41.7045 31.6228 42.6767 29.9192 43.5535C30.014 44.8893 30.1325 46.1633 30.2725 47.3758C32.4923 46.276 34.7625 45.0449 37.0482 43.6882C46.3563 38.1667 54.9096 31.1144 58.6463 25.055V47.9033C56.6309 44.6336 47.091 39.133 46.0948 39.8613C51.4536 44.2214 54.8941 48.261 56.3021 51.1182C56.1643 51.5338 56.0865 51.9777 56.0865 52.4399V52.6594C56.0865 52.7662 56.0947 52.8718 56.1028 52.9776L34.9773 65.0869C34.4351 64.7013 33.7989 64.4412 33.1078 64.3448ZM64.8013 20.5102V20.2907C64.8013 17.962 62.8993 16.0746 60.5543 16.0746H60.3328C59.4122 16.0746 58.5619 16.3685 57.8664 16.8632L36.7408 4.75403C36.749 4.64814 36.7571 4.54225 36.7571 4.43563V4.2165C36.7571 1.88765 34.8558 1.52588e-05 32.5108 1.52588e-05H32.2894C29.9444 1.52588e-05 28.043 1.88765 28.043 4.2165V4.43563C28.043 4.54225 28.0512 4.64814 28.0594 4.75403L6.93383 16.8632C6.23782 16.3685 5.38834 16.0746 4.4676 16.0746H4.24659C1.90102 16.0746 0 17.962 0 20.2907V20.5102C0 22.2432 1.05405 23.7298 2.5597 24.3791V48.5711C1.05405 49.2191 0 50.7069 0 52.4399V52.6594C0 54.9869 1.90102 56.8755 4.24659 56.8755H4.4676C5.38834 56.8755 6.23782 56.5816 6.93383 56.0868L28.0594 68.1961C28.0512 68.3008 28.043 68.4064 28.043 68.5144V68.7338C28.043 71.0614 29.9444 72.95 32.2894 72.95H32.5108C34.8558 72.95 36.7571 71.0614 36.7571 68.7338V68.5144C36.7571 68.4064 36.749 68.3008 36.7408 68.1961L57.8664 56.0868C58.5619 56.5816 59.4122 56.8755 60.3328 56.8755H60.5543C62.8993 56.8755 64.8013 54.9869 64.8013 52.6594V52.4399C64.8013 50.7069 63.7466 49.2191 62.2401 48.5711V24.3791C63.7466 23.7309 64.8013 22.2432 64.8013 20.5102Z" fill="#100F0D"/>
</svg>
