<svg width="42" height="45" viewBox="0 0 42 45" fill="none" xmlns="http://www.w3.org/2000/svg">
<path d="M8.12415 22.8817V43.7233C8.12415 44.1996 8.51027 44.5857 8.98655 44.5857H41.1376C41.6139 44.5857 42 44.1996 42 43.7233V23.5913C42 23.1994 41.6823 22.8817 41.2904 22.8817H8.12415Z" fill="#ECF4FF"/>
<path d="M38.7572 22.8817V40.4805C38.7572 40.9568 38.3711 41.3429 37.8948 41.3429H8.12415V43.7233C8.12415 44.1996 8.51027 44.5857 8.98655 44.5857H41.1376C41.6139 44.5857 42 44.1996 42 43.7233V23.5913C42 23.1994 41.6823 22.8817 41.2904 22.8817H38.7572Z" fill="#DDEAFB"/>
<path d="M33.3524 22.8817V31.8795C33.5012 31.8048 33.6364 31.7024 33.7476 31.5734L41.2399 22.8817H33.3524Z" fill="#DDEAFB"/>
<path d="M36.8419 22.8817L33.3524 26.9297V31.8795C33.5012 31.8048 33.6364 31.7024 33.7476 31.5734L41.2399 22.8817H36.8419Z" fill="#CBE2FF"/>
<path d="M33.0135 32.0167H0.862409C0.386124 32.0167 0 31.6306 0 31.1543V8.90585L0.431205 7.66888H33.4447L33.8759 8.90585V22.8817L32.8292 26.8303L33.7951 31.5194C33.6575 31.8132 33.3593 32.0167 33.0135 32.0167Z" fill="#ECF4FF"/>
<path d="M33.4447 7.66888H30.6331V27.9116C30.6331 28.3879 30.247 28.774 29.7707 28.774H6.10352e-05V31.1544C6.10352e-05 31.6307 0.386185 32.0168 0.86247 32.0168H33.0135C33.4898 32.0168 33.8759 31.6307 33.8759 31.1544V8.90585L33.4447 7.66888Z" fill="#DDEAFB"/>
<path d="M33.8758 8.90582H6.10352e-05V1.23197C6.10352e-05 0.754989 0.386703 0.368347 0.863679 0.368347H33.0123C33.4893 0.368347 33.8759 0.754989 33.8759 1.23197V8.90582H33.8758Z" fill="#5766CB"/>
<path d="M33.0135 0.368347H30.6331V8.90582H33.8759V1.23076C33.8758 0.754471 33.4898 0.368347 33.0135 0.368347V0.368347Z" fill="#3D4FC3"/>
<path d="M4.13403 5.87408C4.83059 5.87408 5.39526 5.30941 5.39526 4.61285C5.39526 3.91629 4.83059 3.35162 4.13403 3.35162C3.43747 3.35162 2.8728 3.91629 2.8728 4.61285C2.8728 5.30941 3.43747 5.87408 4.13403 5.87408Z" fill="#DD636E"/>
<path d="M7.96948 5.87408C8.66604 5.87408 9.23071 5.30941 9.23071 4.61285C9.23071 3.91629 8.66604 3.35162 7.96948 3.35162C7.27292 3.35162 6.70825 3.91629 6.70825 4.61285C6.70825 5.30941 7.27292 5.87408 7.96948 5.87408Z" fill="#FFD064"/>
<path d="M11.805 5.87408C12.5015 5.87408 13.0662 5.30941 13.0662 4.61285C13.0662 3.91629 12.5015 3.35162 11.805 3.35162C11.1084 3.35162 10.5438 3.91629 10.5438 4.61285C10.5438 5.30941 11.1084 5.87408 11.805 5.87408Z" fill="#B1E4F9"/>
<path d="M3.95206 20.2568C3.59487 20.2568 3.3053 19.9672 3.3053 19.61V13.2139C3.3053 12.9309 3.48933 12.6806 3.75956 12.5964C4.0297 12.5122 4.32342 12.6134 4.48422 12.8464L7.77849 17.6167L7.73583 13.2082C7.73238 12.851 8.0191 12.5587 8.37629 12.5552H8.38268C8.73694 12.5552 9.02591 12.8407 9.02927 13.1958L9.08912 19.3879C9.08912 19.757 8.88617 20.0549 8.57207 20.1531C8.26549 20.2487 7.94086 20.1276 7.74464 19.8442L4.59882 15.2888V19.61C4.59882 19.9672 4.30925 20.2568 3.95206 20.2568Z" fill="#90D8F9"/>
<path d="M14.0303 20.2568H11.3548C10.9976 20.2568 10.7081 19.9672 10.7081 19.6101V13.2605C10.7081 12.9032 10.9976 12.6137 11.3548 12.6137H14.0303C14.3875 12.6137 14.6771 12.9033 14.6771 13.2605C14.6771 13.6177 14.3875 13.9072 14.0303 13.9072H12.0017V18.9632H14.0303C14.3875 18.9632 14.6771 19.2528 14.6771 19.61C14.6771 19.9672 14.3875 20.2568 14.0303 20.2568Z" fill="#90D8F9"/>
<path d="M13.833 17.082H11.3549C10.9977 17.082 10.7081 16.7925 10.7081 16.4353C10.7081 16.078 10.9977 15.7885 11.3549 15.7885H13.833C14.1902 15.7885 14.4798 16.0781 14.4798 16.4353C14.4798 16.7925 14.1902 17.082 13.833 17.082Z" fill="#90D8F9"/>
<path d="M27.3402 20.2861C26.3014 20.2861 25.2874 19.8515 24.6279 19.1238C24.388 18.8591 24.4081 18.4501 24.6728 18.2102C24.9376 17.9704 25.3466 17.9905 25.5863 18.2552C26.0048 18.717 26.6605 18.9926 27.3402 18.9926C28.0402 18.9926 28.5363 18.5575 28.6114 18.1368C28.6858 17.7206 28.3436 17.34 27.6727 17.0925C26.6837 16.7277 25.8058 16.337 25.7689 16.3205C25.7378 16.3066 25.7078 16.2903 25.6792 16.2717C25.0543 15.8642 24.7324 15.1496 24.839 14.4065C24.9533 13.6106 25.5377 12.9614 26.3643 12.7125C28.0362 12.2091 29.4149 13.3462 29.4728 13.3949C29.7462 13.6247 29.7815 14.0327 29.5517 14.3062C29.3226 14.5787 28.9165 14.6147 28.6431 14.3873C28.6233 14.3714 27.7246 13.654 26.7374 13.9512C26.393 14.0548 26.1621 14.2938 26.1195 14.5903C26.0868 14.8185 26.1725 15.0293 26.3499 15.163C26.5543 15.2527 27.3084 15.5794 28.1204 15.879C29.6478 16.4424 30.0334 17.5321 29.8848 18.3642C29.6892 19.4599 28.5953 20.2861 27.3402 20.2861Z" fill="#90D8F9"/>
<path d="M17.7265 20.2861C17.3921 20.2861 17.0928 20.075 16.9808 19.7594C16.9703 19.7298 16.962 19.6994 16.9558 19.6685L15.7073 13.3567C15.638 13.0062 15.8659 12.666 16.2162 12.5967C16.5666 12.5272 16.907 12.7552 16.9762 13.1057L17.8348 17.4462L19.1951 13.0516C19.3007 12.7105 19.6629 12.5196 20.0042 12.625C20.3455 12.7307 20.5365 13.0929 20.4309 13.4341L18.4814 19.7324C18.4797 19.738 18.4779 19.7437 18.476 19.7493C18.3677 20.068 18.0687 20.2837 17.7321 20.2861C17.7302 20.2861 17.7284 20.2861 17.7265 20.2861Z" fill="#90D8F9"/>
<path d="M21.8938 20.2861C21.5593 20.2861 21.2601 20.075 21.1481 19.7594C21.145 19.7509 21.1422 19.7422 21.1395 19.7334L19.195 13.4216C19.0898 13.0803 19.2813 12.7183 19.6226 12.6131C19.9639 12.5079 20.326 12.6994 20.4312 13.0408L21.7883 17.446L22.65 13.1166C22.7198 12.7663 23.0601 12.5386 23.4106 12.6086C23.7609 12.6783 23.9884 13.0188 23.9187 13.3692L22.6652 19.6675C22.6596 19.6952 22.6523 19.7225 22.6431 19.7493C22.5349 20.0681 22.2359 20.2838 21.8992 20.2861C21.8974 20.2861 21.8955 20.2861 21.8938 20.2861Z" fill="#90D8F9"/>
<path d="M14.3528 23.839H3.81254C3.45534 23.839 3.16577 23.5494 3.16577 23.1922C3.16577 22.835 3.45534 22.5455 3.81254 22.5455H14.3528C14.71 22.5455 14.9996 22.835 14.9996 23.1922C14.9996 23.5494 14.71 23.839 14.3528 23.839Z" fill="#90D8F9"/>
<path d="M14.3528 26.8303H3.81254C3.45534 26.8303 3.16577 26.5408 3.16577 26.1836C3.16577 25.8263 3.45534 25.5368 3.81254 25.5368H14.3528C14.71 25.5368 14.9996 25.8264 14.9996 26.1836C14.9996 26.5408 14.71 26.8303 14.3528 26.8303Z" fill="#90D8F9"/>
<path d="M28.8711 23.839H18.3308C17.9737 23.839 17.6841 23.5494 17.6841 23.1922C17.6841 22.835 17.9737 22.5455 18.3308 22.5455H28.8711C29.2283 22.5455 29.5179 22.835 29.5179 23.1922C29.5179 23.5494 29.2283 23.839 28.8711 23.839Z" fill="#90D8F9"/>
<path d="M28.8711 26.8303H18.3308C17.9737 26.8303 17.6841 26.5408 17.6841 26.1836C17.6841 25.8263 17.9737 25.5368 18.3308 25.5368H28.8711C29.2283 25.5368 29.5179 25.8264 29.5179 26.1836C29.5179 26.5408 29.2283 26.8303 28.8711 26.8303Z" fill="#90D8F9"/>
<path d="M23.073 36.3296H12.5327C12.1756 36.3296 11.886 36.04 11.886 35.6828C11.886 35.3256 12.1756 35.0361 12.5327 35.0361H23.0731C23.4303 35.0361 23.7199 35.3256 23.7199 35.6828C23.7199 36.04 23.4303 36.3296 23.073 36.3296Z" fill="#90D8F9"/>
<path d="M23.073 39.3208H12.5327C12.1756 39.3208 11.886 39.0312 11.886 38.674C11.886 38.3169 12.1756 38.0273 12.5327 38.0273H23.0731C23.4303 38.0273 23.7199 38.3169 23.7199 38.674C23.7199 39.0312 23.4303 39.3208 23.073 39.3208Z" fill="#90D8F9"/>
<path d="M37.5913 36.3296H27.051C26.6938 36.3296 26.4042 36.04 26.4042 35.6828C26.4042 35.3256 26.6938 35.0361 27.051 35.0361H37.5913C37.9485 35.0361 38.2381 35.3256 38.2381 35.6828C38.2381 36.04 37.9485 36.3296 37.5913 36.3296Z" fill="#90D8F9"/>
<path d="M37.5913 39.3208H27.051C26.6938 39.3208 26.4042 39.0312 26.4042 38.674C26.4042 38.3169 26.6938 38.0273 27.051 38.0273H37.5913C37.9485 38.0273 38.2381 38.3169 38.2381 38.674C38.2381 39.0312 37.9485 39.3208 37.5913 39.3208Z" fill="#90D8F9"/>
</svg>
