<svg width="42" height="36" viewBox="0 0 42 36" fill="none" xmlns="http://www.w3.org/2000/svg">
<path d="M41.1783 28.7808H0.821707C0.36791 28.7808 0 28.4129 0 27.9591V8.72062L0.410895 7.54199H41.5892L42 8.72062V27.9591C42 28.4129 41.6321 28.7808 41.1783 28.7808Z" fill="#D3EFFB"/>
<path d="M41.5891 7.54199H38.91V24.8692C38.91 25.323 38.5421 25.6909 38.0883 25.6909H0V27.9591C0 28.4129 0.36791 28.7808 0.821707 28.7808H41.1783C41.6321 28.7808 42 28.4129 42 27.9591V8.72062L41.5891 7.54199Z" fill="#B1E4F9"/>
<path d="M42 8.72065H0V1.40601C0 0.952947 0.367254 0.585693 0.820312 0.585693H41.1797C41.6327 0.585693 42 0.952947 42 1.40601V8.72065Z" fill="#5766CB"/>
<path d="M41.1783 0.585693H38.9102V8.72065H42V1.4074C42 0.953603 41.6321 0.585693 41.1783 0.585693Z" fill="#3D4FC3"/>
<path d="M3.93912 5.83174C4.60284 5.83174 5.14088 5.29369 5.14088 4.62998C5.14088 3.96627 4.60284 3.42822 3.93912 3.42822C3.27541 3.42822 2.73737 3.96627 2.73737 4.62998C2.73737 5.29369 3.27541 5.83174 3.93912 5.83174Z" fill="#DD636E"/>
<path d="M7.59373 5.83174C8.25744 5.83174 8.79548 5.29369 8.79548 4.62998C8.79548 3.96627 8.25744 3.42822 7.59373 3.42822C6.93001 3.42822 6.39197 3.96627 6.39197 4.62998C6.39197 5.29369 6.93001 5.83174 7.59373 5.83174Z" fill="#FFD064"/>
<path d="M11.2484 5.83174C11.9121 5.83174 12.4501 5.29369 12.4501 4.62998C12.4501 3.96627 11.9121 3.42822 11.2484 3.42822C10.5847 3.42822 10.0466 3.96627 10.0466 4.62998C10.0466 5.29369 10.5847 5.83174 11.2484 5.83174Z" fill="#B1E4F9"/>
<path d="M25.3366 21.6172L21.0951 28.2296C20.9958 28.3843 20.9513 28.5679 20.9687 28.7509L21.0691 29.8092C21.1227 30.3742 20.7837 30.9027 20.2478 31.0895L19.244 31.4395C19.0705 31.5001 18.9221 31.617 18.8229 31.7718L18.4818 32.3034C18.2368 32.6854 18.3478 33.1937 18.7298 33.4387L21.4892 35.2088C21.8712 35.4538 22.3795 35.3427 22.6245 34.9608L29.4792 24.2745L25.3366 21.6172Z" fill="#5E54AC"/>
<path d="M33.683 22.9682H30.8987V18.6155H33.6831C34.1361 18.6155 34.5034 18.9827 34.5034 19.4358V22.1479C34.5033 22.601 34.136 22.9682 33.683 22.9682Z" fill="#5E54AC"/>
<path d="M10.3088 22.9682H6.62256C6.1695 22.9682 5.80225 22.601 5.80225 22.1479V19.4358C5.80225 18.9827 6.1695 18.6155 6.62256 18.6155H10.3089V22.9682H10.3088Z" fill="#5E54AC"/>
<path d="M7.89224 18.6156V20.7321C7.89224 21.1859 7.52433 21.5538 7.07053 21.5538H5.80225V22.1465C5.80225 22.6003 6.17016 22.9682 6.62395 22.9682H10.3089V18.6155H7.89224V18.6156Z" fill="#5E54AC"/>
<path d="M34.5033 14.3681C37.636 14.3681 40.1755 11.8286 40.1755 8.6959C40.1755 5.56322 37.636 3.02368 34.5033 3.02368C31.3707 3.02368 28.8311 5.56322 28.8311 8.6959C28.8311 11.8286 31.3707 14.3681 34.5033 14.3681Z" fill="#FFE07D"/>
<path d="M37.0579 3.63184C37.4461 4.39973 37.6661 5.26705 37.6661 6.18629C37.6661 9.31898 35.1265 11.8585 31.9938 11.8585C31.0746 11.8585 30.2073 11.6385 29.4394 11.2503C30.3741 13.0994 32.29 14.3681 34.5034 14.3681C37.6361 14.3681 40.1756 11.8286 40.1756 8.69587C40.1756 6.48242 38.9069 4.5665 37.0579 3.63184Z" fill="#FFD064"/>
<path d="M35.1799 8.08857C34.7666 7.94248 34.3107 7.76693 34.064 7.5735C34.0365 7.55193 34.0062 7.46481 34.0285 7.34644C34.0394 7.2891 34.0892 7.09747 34.2765 7.04104C34.702 6.91274 34.9725 7.12462 35.0019 7.14932L34.9917 7.14021L35.1693 7.2197C35.7873 7.49647 36.3198 6.69872 35.8273 6.23401C35.682 6.09997 35.4247 5.93771 35.0908 5.84436V5.76816C35.0908 5.42773 34.8148 5.15186 34.4745 5.15186C34.1341 5.15186 33.8582 5.42773 33.8582 5.76816V5.88226C33.3232 6.06888 32.927 6.53621 32.8173 7.11831C32.7115 7.6794 32.8978 8.22548 33.3033 8.54344C33.6892 8.84613 34.2359 9.06229 34.7691 9.25079C35.1077 9.37056 35.1421 9.61411 35.1113 9.79745C35.0675 10.058 34.8482 10.3397 34.4704 10.3421C34.0391 10.3445 33.9271 10.3274 33.608 10.1187C33.3027 9.9191 32.8864 10.0248 32.7182 10.3608C32.5758 10.6453 32.6889 10.9926 32.9562 11.1651C33.2933 11.3825 33.5616 11.4886 33.8581 11.5374V11.6239C33.8581 11.9643 34.134 12.2402 34.4744 12.2402C34.8147 12.2402 35.0907 11.9643 35.0907 11.6239V11.47C35.7816 11.2307 36.2241 10.613 36.3268 10.0019C36.4699 9.15047 36.009 8.38167 35.1799 8.08857Z" fill="#5E54AC"/>
<path d="M26.2331 16.9361L25.5352 16.608H21.4461C20.2883 16.608 19.1507 16.3032 18.148 15.7243L12.8074 12.641L12 12.5857V28.6166L12.8074 28.6144L18.1479 25.531C19.1507 24.9521 20.2882 24.6473 21.4461 24.6473H25.5352L26.233 24.3192V16.9361H26.2331Z" fill="#78D090"/>
<path d="M13 12.1982L10.3329 10.7026C9.7405 10.3704 9 10.7857 9 11.45V29.7214C9 30.3857 9.7405 30.801 10.3329 30.4688L13 28.9732V12.1982Z" fill="#5E54AC"/>
<path d="M31.371 16.7725H25.8393V24.8116H31.371C31.8248 24.8116 32.1927 24.4437 32.1927 23.9899V22.973L31.8464 22.2347L32.1927 21.4675V17.5941C32.1927 17.1404 31.8248 16.7725 31.371 16.7725Z" fill="#5E54AC"/>
</svg>
