<svg width="42" height="43" viewBox="0 0 42 43" fill="none" xmlns="http://www.w3.org/2000/svg">
<path d="M21 42.6934C32.598 42.6934 42 33.2913 42 21.6934C42 10.0954 32.598 0.693359 21 0.693359C9.40202 0.693359 0 10.0954 0 21.6934C0 33.2913 9.40202 42.6934 21 42.6934Z" fill="#5766CB"/>
<path d="M33.5535 4.85742C36.1687 8.35917 37.7173 12.7042 37.7173 17.4109C37.7173 29.0089 28.3153 38.4109 16.7173 38.4109C12.0106 38.4109 7.66557 36.8623 4.16382 34.2471C7.99287 39.3741 14.1087 42.6936 21 42.6936C32.598 42.6936 42 33.2916 42 21.6936C42 14.8023 38.6805 8.68648 33.5535 4.85742Z" fill="#3D4FC3"/>
<path d="M37.0118 35.2794C35.3165 31.337 31.3981 28.5762 26.8344 28.5762H15.1656C10.6019 28.5762 6.6835 31.337 4.98816 35.2794C8.84018 39.8147 14.5834 42.6935 21 42.6935C27.4166 42.6935 33.1598 39.8147 37.0118 35.2794Z" fill="#ECF4FF"/>
<path d="M37.0118 35.2792C36.1829 33.3517 34.8216 31.7078 33.1143 30.5298C29.2658 35.3335 23.3513 38.4106 16.7173 38.4106C12.4401 38.4106 8.46185 37.1316 5.14344 34.9355C5.08996 35.0491 5.03787 35.1636 4.98816 35.2792C8.84018 39.8145 14.5834 42.6933 21 42.6933C27.4166 42.6933 33.1598 39.8145 37.0118 35.2792Z" fill="#DDEAFB"/>
<path d="M13.3451 11.3958V14.5061L13.6732 15.4654H28.7232L29.0513 14.5061V11.3958C29.0513 8.29089 26.5343 5.77393 23.4294 5.77393H18.9669C15.8621 5.77393 13.3451 8.29089 13.3451 11.3958Z" fill="#784033"/>
<path d="M23.4294 5.77393H18.9669H18.9669C22.0717 5.77393 24.5886 8.29097 24.5886 11.3958V15.4654H28.7232L29.0513 14.5061V11.3958C29.0513 8.29089 26.5343 5.77393 23.4294 5.77393Z" fill="#61362B"/>
<path d="M28.5507 17.3266C27.7459 19.0354 27.6766 21.3073 28.6869 21.7831C29.6972 22.2588 31.4045 20.7584 32.2093 19.0496C33.014 17.3408 32.494 16.3203 31.4838 15.8445C30.4736 15.3687 29.3554 15.6178 28.5507 17.3266Z" fill="#FFCBBE"/>
<path d="M22.1588 33.3629H20.2376C17.7254 33.3629 15.6889 31.3263 15.6889 28.8141V24.0859H26.7075V28.8141C26.7075 31.3263 24.671 33.3629 22.1588 33.3629Z" fill="#EAAC9D"/>
<path d="M23.7236 24.0859V28.8141C23.7236 31.1464 21.9679 33.0676 19.7062 33.3309C19.8806 33.3513 20.0577 33.3629 20.2376 33.3629H22.1587C24.671 33.3629 26.7075 31.3263 26.7075 28.8141V24.0859H23.7236Z" fill="#DF9380"/>
<path d="M27.625 13.0796H14.7715C13.9837 13.0796 13.3451 13.7182 13.3451 14.5059V19.5837C13.3451 22.3473 14.7208 24.9297 17.0145 26.4714L19.2967 28.0053C19.5288 28.1614 19.7753 28.2858 20.0303 28.3788L23.7236 27.5859L25.3819 26.4714C27.6755 24.9297 29.0513 22.3473 29.0513 19.5837V14.5059C29.0513 13.7182 28.4128 13.0796 27.625 13.0796Z" fill="#FFCBBE"/>
<path d="M26.7167 13.0797V19.5837C26.7167 22.3473 25.3409 24.9297 23.0472 26.4714L20.765 28.0053C20.533 28.1614 20.286 28.2842 20.0309 28.3773C21.0395 28.7451 22.182 28.6221 23.0997 28.0053L25.3818 26.4714C27.6755 24.9297 29.0513 22.3473 29.0513 19.5837V14.5059C29.0513 13.7182 28.4127 13.0796 27.6249 13.0796H26.7167V13.0797Z" fill="#EAAC9D"/>
<path d="M13.8458 17.3266C14.6505 19.0354 14.7198 21.3073 13.7096 21.7831C12.6993 22.2588 10.992 20.7584 10.1872 19.0496C9.3824 17.3408 9.90248 16.3203 10.9127 15.8445C11.9229 15.3687 13.041 15.6178 13.8458 17.3266Z" fill="#FFCBBE"/>
<path d="M17.5823 19.1144C18.0499 19.1144 18.429 18.7353 18.429 18.2676C18.429 17.8 18.0499 17.4209 17.5823 17.4209C17.1146 17.4209 16.7355 17.8 16.7355 18.2676C16.7355 18.7353 17.1146 19.1144 17.5823 19.1144Z" fill="#784033"/>
<path d="M24.8141 19.1144C25.2818 19.1144 25.6609 18.7353 25.6609 18.2676C25.6609 17.8 25.2818 17.4209 24.8141 17.4209C24.3465 17.4209 23.9674 17.8 23.9674 18.2676C23.9674 18.7353 24.3465 19.1144 24.8141 19.1144Z" fill="#784033"/>
<path d="M24.8141 15.0981C23.2789 15.0981 21.9955 16.1956 21.7063 17.6472H20.6901C20.4009 16.1956 19.1175 15.0981 17.5823 15.0981C15.8348 15.0981 14.4131 16.5199 14.4131 18.2673C14.4131 20.0148 15.8348 21.4365 17.5823 21.4365C19.1175 21.4365 20.4009 20.339 20.6901 18.8875H21.7063C21.9955 20.339 23.2789 21.4365 24.8141 21.4365C26.5616 21.4365 27.9833 20.0148 27.9833 18.2673C27.9833 16.5198 26.5616 15.0981 24.8141 15.0981ZM17.5823 20.1962C16.5187 20.1962 15.6534 19.331 15.6534 18.2673C15.6534 17.2037 16.5186 16.3385 17.5823 16.3385C18.6458 16.3385 19.5111 17.2037 19.5111 18.2673C19.5111 19.331 18.6459 20.1962 17.5823 20.1962ZM24.8141 20.1962C23.7505 20.1962 22.8853 19.331 22.8853 18.2673C22.8853 17.2037 23.7505 16.3385 24.8141 16.3385C25.8778 16.3385 26.743 17.2037 26.743 18.2673C26.743 19.331 25.8778 20.1962 24.8141 20.1962Z" fill="#5E54AC"/>
<path d="M22.6603 24.086H19.7084C19.3659 24.086 19.0883 23.8084 19.0883 23.4659C19.0883 23.1233 19.3659 22.8457 19.7084 22.8457H22.6603C23.0029 22.8457 23.2805 23.1233 23.2805 23.4659C23.2805 23.8084 23.0028 24.086 22.6603 24.086Z" fill="#DD636E"/>
<path d="M28.5507 17.3266C27.7459 19.0354 27.6766 21.3073 28.6869 21.7831C29.6972 22.2588 31.4045 20.7584 32.2093 19.0496C33.014 17.3408 32.494 16.3203 31.4838 15.8445C30.4736 15.3687 29.3554 15.6178 28.5507 17.3266Z" fill="#EAAC9D"/>
</svg>
