<svg width="42" height="48" viewBox="0 0 42 48" fill="none" xmlns="http://www.w3.org/2000/svg">
<path d="M31.7552 7.84468C27.2326 7.84468 23.0577 6.35682 19.6928 3.84399C16.3279 6.35682 12.153 7.84468 7.63036 7.84468C6.14278 7.84468 4.69329 7.68227 3.29736 7.37678L4.73084 26.8012C5.12327 32.1191 8.01604 36.9351 12.5262 39.7797L19.6926 44.2995L26.8854 39.7906C31.4308 36.9412 34.3428 32.0932 34.7232 26.742L36.0996 7.37429C34.7002 7.68135 33.2469 7.84468 31.7552 7.84468Z" fill="#78D090"/>
<path d="M31.7552 7.84457C30.8836 7.84457 30.0252 7.7888 29.1827 7.68161L28.0866 23.1045C27.7063 28.4558 24.7943 33.3038 20.2489 36.1532L13.4921 40.3888L19.6927 44.2995L26.8855 39.7906C31.4309 36.9412 34.3429 32.0931 34.7233 26.7419L36.0997 7.37427C34.7002 7.68133 33.247 7.84457 31.7552 7.84457Z" fill="#6EC186"/>
<path d="M20.4481 47.4752C19.9834 47.7666 19.3928 47.7657 18.9289 47.4731L10.877 42.3947C5.5604 39.0415 2.11002 33.2972 1.64748 27.0284L0.00266332 4.74195C-0.0441359 4.10729 0.533178 3.60656 1.15479 3.74252L3.9584 4.356C5.16066 4.61912 6.39612 4.75249 7.63038 4.75249C11.3449 4.75249 14.8763 3.58159 17.8427 1.36639L18.8389 0.622507C19.3454 0.244321 20.0402 0.244321 20.5466 0.622507L21.5428 1.36639C24.5093 3.58159 28.0406 4.75249 31.7552 4.75249C32.9931 4.75249 34.2318 4.61839 35.4369 4.35396L38.234 3.74002C38.8548 3.60379 39.432 4.10276 39.387 4.73668L37.8076 26.9608C37.359 33.2733 33.8899 39.0489 28.5279 42.4102L20.4481 47.4752ZM7.07767 10.93C6.85339 10.9246 6.67368 11.1142 6.69024 11.338L7.81462 26.5733C8.13343 30.8938 10.5115 34.8531 14.1759 37.1642L19.2931 40.3917C19.5405 40.5477 19.8555 40.5482 20.1034 40.3928L25.2435 37.1707C28.9391 34.854 31.33 30.8734 31.6392 26.5227L32.7185 11.3365C32.7344 11.113 32.5548 10.924 32.3308 10.9295C32.1389 10.9342 31.9471 10.9367 31.7553 10.9367C27.5826 10.9367 23.5781 9.85056 20.0343 7.77548C19.823 7.65173 19.5629 7.65173 19.3516 7.77548C15.8077 9.85056 11.8033 10.9367 7.63057 10.9367C7.44615 10.9366 7.26191 10.9343 7.07767 10.93Z" fill="#5E54AC"/>
<path d="M38.234 3.7401L36.7189 4.07269L35.2032 25.4001C34.7546 31.7126 31.2855 37.4882 25.9235 40.8495L17.1484 46.3503L18.9288 47.4732C19.3927 47.7658 19.9833 47.7666 20.448 47.4753L28.5278 42.4104C33.8898 39.0491 37.3589 33.2736 37.8075 26.961L39.3869 4.73695C39.432 4.10284 38.8547 3.60387 38.234 3.7401Z" fill="#524798"/>
<path d="M26.1881 21.7253C26.1881 23.1807 25.7092 24.5243 24.9005 25.6071C23.7166 27.1924 21.8255 27.2127 19.6948 27.2127C17.5641 27.2127 15.673 27.1924 14.4891 25.6071C13.6804 24.5244 13.2015 23.1807 13.2015 21.7253C13.2015 18.1391 16.1087 15.2319 19.6949 15.2319C23.281 15.2319 26.1881 18.139 26.1881 21.7253Z" fill="#ECF4FF"/>
<path d="M19.6947 23.7264C21.1646 23.7264 22.3562 22.5348 22.3562 21.0649C22.3562 19.5949 21.1646 18.4033 19.6947 18.4033C18.2248 18.4033 17.0331 19.5949 17.0331 21.0649C17.0331 22.5348 18.2248 23.7264 19.6947 23.7264Z" fill="#524798"/>
<path d="M21.2254 23.3521H18.164C16.5596 23.3521 15.1703 24.2691 14.489 25.6071C15.6729 27.1924 17.5639 28.2187 19.6947 28.2187C21.8254 28.2187 23.7164 27.1924 24.9004 25.6071C24.219 24.2692 22.8298 23.3521 21.2254 23.3521Z" fill="#524798"/>
<path d="M34.0019 41.6176C38.04 41.6176 41.3134 38.3442 41.3134 34.3061C41.3134 30.2681 38.04 26.9946 34.0019 26.9946C29.9639 26.9946 26.6904 30.2681 26.6904 34.3061C26.6904 38.3442 29.9639 41.6176 34.0019 41.6176Z" fill="#ECF4FF"/>
<path d="M37.7417 28.0222C38.3942 29.1164 38.7694 30.3957 38.7694 31.7622C38.7694 35.8002 35.496 39.0737 31.4579 39.0737C30.0914 39.0737 28.8116 38.6976 27.7174 38.0451C28.9931 40.1842 31.3305 41.6178 34.0019 41.6178C38.04 41.6178 41.3134 38.3443 41.3134 34.3063C41.3134 31.6347 39.8808 29.2979 37.7417 28.0222Z" fill="#DDEAFB"/>
<path d="M33.8116 36.8703C33.6304 36.8703 33.4554 36.8013 33.3227 36.6764L30.0716 33.6174C29.7846 33.3474 29.7709 32.8958 30.0409 32.6087C30.311 32.3218 30.7625 32.308 31.0496 32.578L33.7574 35.1258L40.7456 27.005C41.0028 26.7062 41.4533 26.6726 41.7519 26.9295C42.0507 27.1866 42.0844 27.6371 41.8274 27.9358L34.3526 36.6221C34.2255 36.7697 34.0436 36.859 33.8492 36.8692C33.8367 36.8699 33.8242 36.8703 33.8116 36.8703Z" fill="#80E29D"/>
</svg>
