<svg width="20" height="21" viewBox="0 0 20 21" fill="none" xmlns="http://www.w3.org/2000/svg">
<path fill-rule="evenodd" clip-rule="evenodd" d="M6.18292 3.283C7.78238 2.87279 9.54159 2.42104 11.4854 1.92241C13.6418 1.36918 16.0513 0.750727 18.758 0.0559322C19.3542 -0.0972318 19.8355 0.0742909 19.8104 0.446812C19.6606 2.68146 19.4915 5.20264 19.2992 8.07217C19.0779 11.3727 18.8213 15.2027 18.5208 19.6938C18.4618 20.5741 17.6443 21.1491 16.7384 20.966C12.7957 20.1687 9.49378 19.4996 6.69252 18.9328C4.28401 18.4458 2.18905 18.022 0.352437 17.6505C0.00479868 17.5799 -0.10203 17.1146 0.105731 16.6184C1.20967 13.9794 2.20867 11.5896 3.1178 9.41633C3.94711 7.43437 4.70847 5.61574 5.40946 3.93964C5.52799 3.6565 5.87147 3.36272 6.18292 3.283Z" fill="#1F304F"/>
<path fill-rule="evenodd" clip-rule="evenodd" d="M7.20714 11.8312C8.13508 11.8235 9.11784 11.8167 10.1562 11.8133C10.3702 11.8124 10.5069 11.9834 10.4567 12.194C10.1962 13.2962 9.92424 14.4514 9.64447 15.6603C9.58698 15.9101 9.35121 16.0918 9.12461 16.0666C8.02828 15.9449 6.99465 15.8313 6.02209 15.726C5.83713 15.7062 5.74011 15.5091 5.8088 15.2863C6.1423 14.2079 6.46465 13.1715 6.77496 12.1791C6.8342 11.9887 7.02914 11.8322 7.20714 11.8312ZM13.1672 7.00485C14.295 6.87536 15.4908 6.73959 16.761 6.6014C17.0249 6.5724 17.2191 6.70964 17.1959 6.90434C17.0379 8.22966 16.8712 9.64585 16.6978 11.1519C16.5122 12.7598 16.3151 14.4814 16.1059 16.3358C16.073 16.631 15.7904 16.8392 15.4758 16.802C13.9679 16.6237 12.5638 16.46 11.2515 16.3077C10.9998 16.2788 10.8418 16.0459 10.8959 15.7869C11.2346 14.1552 11.5568 12.6299 11.8661 11.1968C12.157 9.84781 12.4377 8.57271 12.7034 7.37109C12.7425 7.19474 12.9493 7.02997 13.1672 7.00485ZM4.86283 8.04847C5.57497 7.95331 6.32236 7.85472 7.10129 7.75133C7.24812 7.732 7.32943 7.83589 7.28 7.98179C7.00405 8.79111 6.71925 9.6294 6.42517 10.5006C6.36952 10.6648 6.19777 10.8078 6.04604 10.8141C5.23881 10.8504 4.4682 10.8866 3.73588 10.9219C3.60437 10.9282 3.54752 10.8079 3.60737 10.6561C3.92555 9.85359 4.2332 9.07714 4.53368 8.32583C4.58728 8.1915 4.73505 8.06586 4.86283 8.04847ZM3.3754 11.8834C4.10487 11.8713 4.87208 11.8587 5.67478 11.8481C5.83765 11.8457 5.9239 11.996 5.862 12.181C5.54119 13.1445 5.20901 14.1504 4.8651 15.1974C4.7945 15.4125 4.59484 15.5728 4.42575 15.555C3.59169 15.467 2.79882 15.383 2.04745 15.3057C1.90192 15.2907 1.84549 15.1206 1.9212 14.9283C2.29222 13.9847 2.65102 13.0739 2.99755 12.196C3.06417 12.0269 3.23479 11.8858 3.3754 11.8834ZM8.54046 7.56726C9.41691 7.45516 10.3398 7.34451 11.3114 7.22515C11.51 7.20102 11.6409 7.32083 11.5984 7.49381C11.3795 8.38138 11.1515 9.30617 10.9181 10.2706C10.8703 10.4687 10.6557 10.6368 10.4461 10.6441C9.42368 10.6788 8.4559 10.7151 7.5403 10.7508C7.3653 10.7581 7.26772 10.6156 7.32493 10.4358C7.60407 9.55694 7.87803 8.7109 8.14136 7.89533C8.19256 7.73635 8.37277 7.58851 8.54046 7.56726Z" fill="white"/>
<path fill-rule="evenodd" clip-rule="evenodd" d="M4.52129 7.15126C6.17294 6.88309 8.0063 6.58788 10.0598 6.2738C12.3684 5.92061 14.991 5.54279 17.9973 5.12244C17.9789 5.30556 17.9581 5.49253 17.9397 5.67951C14.8973 6.06654 12.249 6.4149 9.92208 6.74297C7.8551 7.03433 6.01215 7.31165 4.35425 7.56243C4.40956 7.42519 4.46637 7.28896 4.52129 7.15126Z" fill="white"/>
<path fill-rule="evenodd" clip-rule="evenodd" d="M6.28403 4.33004C7.74708 3.99375 9.34345 3.62944 11.093 3.23371C13.018 2.79887 15.1477 2.32391 17.5201 1.79919C17.8636 1.72334 18.1308 1.8393 18.1052 2.06687C18.0298 2.73026 17.9525 3.41876 17.8728 4.12952C17.8443 4.38366 17.51 4.64166 17.1418 4.6982C14.61 5.08619 12.3599 5.43987 10.3441 5.7718C8.52547 6.07136 6.8793 6.35497 5.37714 6.61395C5.18088 6.64776 5.0897 6.51588 5.16743 6.32309C5.38675 5.77903 5.5993 5.24805 5.80879 4.73008C5.88031 4.55275 6.09093 4.37448 6.28403 4.33004Z" fill="white"/>
<path fill-rule="evenodd" clip-rule="evenodd" d="M17.0353 4.4151C17.6711 4.30395 18.3263 4.19091 19.0032 4.07349C18.9438 4.86348 18.882 5.65972 18.8216 6.46132C18.1388 6.54392 17.4798 6.62557 16.8386 6.70385C16.9048 5.93515 16.9701 5.17318 17.0353 4.4151Z" fill="white"/>
<path fill-rule="evenodd" clip-rule="evenodd" d="M18.7698 4.33054C18.2576 4.41896 17.7455 4.50787 17.2333 4.59678C17.1802 5.21814 17.127 5.83898 17.0739 6.46034C17.5899 6.39706 18.1059 6.33327 18.6219 6.27045C18.6707 5.62352 18.7205 4.9775 18.7698 4.33054Z" fill="#1F304F"/>
<path fill-rule="evenodd" clip-rule="evenodd" d="M13.4143 11.0514L15.4334 11.0045L15.5605 10.387L13.5413 10.4339L13.4143 11.0514ZM13.2152 12.0192L15.2344 11.9723L15.36 11.3606L13.3408 11.4075L13.2152 12.0192Z" fill="#1F304F"/>
<path fill-rule="evenodd" clip-rule="evenodd" d="M4.7183 9.30371L4.57849 9.70137L5.09465 9.67142L4.90553 10.2092L5.33057 10.1845L5.51969 9.64627L6.04286 9.61583L6.18273 9.21771L5.65956 9.24864L5.84718 8.71426L5.42214 8.73889L5.23452 9.27327L4.7183 9.30371Z" fill="#1F304F"/>
<path fill-rule="evenodd" clip-rule="evenodd" d="M3.81817 12.9207L3.48997 13.1802L3.74246 13.5242L3.29932 13.8745L3.5073 14.1577L3.95066 13.8069L4.20695 14.1552L4.53515 13.8958L4.27889 13.5474L4.71977 13.199L4.51156 12.9159L4.07087 13.2648L3.81817 12.9207Z" fill="#1F304F"/>
<path fill-rule="evenodd" clip-rule="evenodd" d="M8.56163 12.8155L7.18311 14.7491H7.72092L9.10372 12.8155H8.56163Z" fill="#1F304F"/>
<path fill-rule="evenodd" clip-rule="evenodd" d="M8.54851 8.96697L8.41516 9.44677C9.47185 9.37382 8.91377 9.41198 9.97723 9.33951L10.1101 8.85971C9.04908 8.93266 9.60278 8.8945 8.54851 8.96697Z" fill="#1F304F"/>
</svg>
