<svg width="34" height="34" viewBox="0 0 34 34" fill="none" xmlns="http://www.w3.org/2000/svg">
<rect x="0.25" y="-0.25" width="32.5" height="32.5" rx="5.25" transform="matrix(-1 0 0 1 33.5 1)" fill="#E7E7E7" stroke="#E7E7E7" stroke-width="0.5"/>
<path d="M18.7869 16.9997L22.9526 12.834C23.2198 12.5668 23.2199 12.1343 22.9526 11.8671C22.6854 11.5999 22.253 11.5998 21.9857 11.8671L17.82 16.0328L13.6544 11.8671C13.3872 11.5999 12.9547 11.5998 12.6875 11.8671C12.4203 12.1343 12.4202 12.5667 12.6875 12.834L16.8531 16.9997L12.6875 21.1653C12.4209 21.4319 12.4209 21.8657 12.6875 22.1322C12.9546 22.3994 13.3871 22.3995 13.6543 22.1322L17.82 17.9665L21.9857 22.1322C22.2528 22.3994 22.6854 22.3994 22.9525 22.1322C23.2197 21.865 23.2198 21.4325 22.9526 21.1653L18.7869 16.9997Z" fill="#1F304F"/>
<path d="M18.7869 16.9997L22.9526 12.834C23.2198 12.5668 23.2199 12.1343 22.9526 11.8671C22.6855 11.5999 22.253 11.5998 21.9858 11.8671L17.8201 16.0328V17.9666L21.9857 22.1322C22.2529 22.3995 22.6854 22.3995 22.9526 22.1323C23.2198 21.8651 23.2199 21.4326 22.9526 21.1653L18.7869 16.9997Z" fill="#1F304F"/>
</svg>
