<svg width="15" height="20" viewBox="0 0 15 20" fill="none" xmlns="http://www.w3.org/2000/svg">
<path d="M13.8542 7.89322H12.6667V6.30987C12.6667 3.25418 10.1807 0.768219 7.125 0.768219C4.06927 0.768219 1.58335 3.25418 1.58335 6.30987V7.89322H0.395846C0.177049 7.89322 0 8.07027 0 8.28906V18.1849C0 19.0581 0.710088 19.7682 1.58335 19.7682H12.6667C13.5399 19.7682 14.25 19.0581 14.25 18.1849V8.28906C14.25 8.07027 14.073 7.89322 13.8542 7.89322ZM8.3102 16.162C8.32256 16.2737 8.28664 16.3858 8.21164 16.4698C8.13664 16.5536 8.02917 16.6016 7.91669 16.6016H6.33335C6.22087 16.6016 6.1134 16.5536 6.0384 16.4698C5.9634 16.3859 5.92744 16.2738 5.93984 16.162L6.18955 13.9166C5.78405 13.6216 5.54169 13.155 5.54169 12.6432C5.54169 11.77 6.25178 11.0599 7.12504 11.0599C7.9983 11.0599 8.70838 11.77 8.70838 12.6432C8.70838 13.155 8.46602 13.6216 8.06053 13.9166L8.3102 16.162ZM10.2917 7.89322H3.95835V6.30987C3.95835 4.5638 5.37893 3.14322 7.125 3.14322C8.87107 3.14322 10.2917 4.5638 10.2917 6.30987V7.89322Z" fill="#1F304F"/>
</svg>
