<svg width="35" height="35" viewBox="0 0 35 35" fill="none" xmlns="http://www.w3.org/2000/svg">
<path d="M34.6482 0H23.1064V9.72423V13.723H34.6482V0Z" fill="#1F304F"/>
<path d="M34.6482 16.9947V15.2907H23.1064V15.5406L9.74695 0H0V5.22564L7.27045 13.7457H0V15.3134H8.61094L10.065 17.0174H0V18.5851H11.4055L12.8596 20.2891H0V21.8568H14.2001L15.6542 23.5608H0V25.1285H16.972L24.9013 34.4211H34.6482V28.9909V28.9228V28.741V25.1058H31.4447C30.9903 24.5832 30.5132 24.0607 30.0588 23.5381H34.6482V21.8341H28.5592C28.173 21.4024 27.7868 20.9707 27.4232 20.539L27.196 20.2891H34.671V18.5851H25.7419L24.3787 16.9947H34.6482Z" fill="#1F304F"/>
<path opacity="0.5" d="M34.6482 16.9947V15.2907H23.1064V15.5406L9.74695 0H0V5.22564L7.27045 13.7457H0V15.3134H8.61094L10.065 17.0174H0V18.5851H11.4055L12.8596 20.2891H0V21.8568H14.2001L15.6542 23.5608H0V25.1285H16.972L24.9013 34.4211H34.6482V28.9909V28.9228V28.741V25.1058H31.4447C30.9903 24.5832 30.5132 24.0607 30.0588 23.5381H34.6482V21.8341H28.5592C28.173 21.4024 27.7868 20.9707 27.4232 20.539L27.196 20.2891H34.671V18.5851H25.7419L24.3787 16.9947H34.6482Z" fill="#1F304F"/>
</svg>
