<svg width="23" height="12" viewBox="0 0 23 12" fill="none" xmlns="http://www.w3.org/2000/svg">
<path d="M12.4958 6.92973C12.3949 7.00123 12.2981 7.07895 12.2061 7.16248C11.4385 7.96389 10.6983 8.79169 9.9018 9.56362C9.07794 10.367 8.10277 10.9811 7.03888 11.3666C4.29229 12.355 1.57829 11.1168 0.45061 8.55739C-0.234 7.00576 -0.117676 5.42155 0.658068 3.92656C1.40862 2.47966 2.57483 1.54481 4.10409 1.13363C5.61038 0.729428 7.01443 1.02967 8.33179 1.85436C9.20089 2.39743 9.95588 3.09566 10.7072 3.86604C10.4353 4.12982 10.1722 4.38584 9.90772 4.64186C9.69138 4.85055 9.46984 5.05226 9.25942 5.26716C9.1305 5.39905 9.04752 5.38586 8.90526 5.26251C8.32438 4.75901 7.76276 4.21361 7.12705 3.80088C6.15274 3.17014 5.10804 3.07704 4.05149 3.65114C2.97122 4.23766 2.34737 5.66826 2.54445 6.90956C2.86527 8.92125 4.86872 9.96705 6.77289 9.04228C7.84871 8.51938 8.72818 7.72339 9.55727 6.85603C10.3582 6.0197 11.1325 5.15622 11.9504 4.33929C12.7869 3.50374 13.6079 2.6325 14.5296 1.91332C17.6533 -0.536701 22.087 1.12199 22.8938 5.20277C23.1685 6.60632 22.9052 8.06668 22.1607 9.26874C21.4162 10.4708 20.2502 11.3182 18.9144 11.6281C16.0618 12.2937 13.4271 10.521 12.6847 7.73813C12.6202 7.4953 12.5706 7.25092 12.4958 6.92973ZM14.7119 6.2315C14.6378 7.88631 15.9981 9.43406 17.72 9.43794C18.3235 9.44593 18.9156 9.26604 19.4214 8.92112C19.9271 8.57619 20.3236 8.08176 20.5605 7.50054C20.7975 6.91932 20.8642 6.2775 20.7523 5.6565C20.6404 5.0355 20.3549 4.46329 19.9319 4.01246C19.509 3.56163 18.9677 3.2525 18.3767 3.12426C17.7857 2.99603 17.1717 3.05448 16.6124 3.2922C16.0532 3.52993 15.574 3.9362 15.2357 4.4595C14.8973 4.9828 14.715 5.59955 14.7119 6.2315Z" fill="#1F304F"/>
</svg>
