<svg width="146" height="40" viewBox="0 0 146 40" fill="none" xmlns="http://www.w3.org/2000/svg">
<path d="M36.8082 29.9962V9.96057H45.9674C47.7992 9.96057 49.3734 10.2563 50.69 10.8479C52.0258 11.4394 53.0562 12.2981 53.7812 13.4239C54.5063 14.5306 54.8689 15.8473 54.8689 17.3737C54.8689 18.8812 54.5063 20.1882 53.7812 21.295C53.0562 22.3826 52.0258 23.2222 50.69 23.8138C49.3734 24.3862 47.7992 24.6724 45.9674 24.6724H39.9567L42.4754 22.2968V29.9962H36.8082ZM49.2017 29.9962L44.2214 22.6975H50.2607L55.2696 29.9962H49.2017ZM42.4754 22.8978L39.9567 20.2932H45.6239C46.8069 20.2932 47.6847 20.0356 48.2571 19.5204C48.8487 19.0052 49.1444 18.2897 49.1444 17.3737C49.1444 16.4387 48.8487 15.7137 48.2571 15.1985C47.6847 14.6833 46.8069 14.4257 45.6239 14.4257H39.9567L42.4754 11.821V22.8978ZM65.8666 30.2538C64.0348 30.2538 62.4319 29.9103 61.0581 29.2234C59.7032 28.5173 58.6442 27.5633 57.881 26.3611C57.1368 25.1399 56.7647 23.7565 56.7647 22.2109C56.7647 20.6653 57.1272 19.2914 57.8524 18.0893C58.5965 16.868 59.6173 15.9235 60.915 15.2557C62.2125 14.5688 63.6722 14.2253 65.2942 14.2253C66.8206 14.2253 68.2136 14.5401 69.473 15.1698C70.7324 15.7804 71.7342 16.6868 72.4784 17.8889C73.2225 19.0911 73.5946 20.5508 73.5946 22.2682C73.5946 22.459 73.585 22.6784 73.566 22.9265C73.5469 23.1746 73.5278 23.4035 73.5088 23.6134H61.2298V20.7512H70.6179L68.5571 21.5526C68.5761 20.8465 68.4426 20.236 68.1564 19.7208C67.8892 19.2056 67.5076 18.8049 67.0115 18.5186C66.5344 18.2324 65.9715 18.0893 65.3228 18.0893C64.674 18.0893 64.1015 18.2324 63.6054 18.5186C63.1284 18.8049 62.7563 19.2151 62.4892 19.7494C62.222 20.2646 62.0885 20.8752 62.0885 21.5812V22.4113C62.0885 23.1746 62.2411 23.8329 62.5464 24.3862C62.8708 24.9395 63.3287 25.3689 63.9203 25.6742C64.5117 25.9604 65.2178 26.1035 66.0383 26.1035C66.8015 26.1035 67.4503 25.9986 67.9847 25.7887C68.538 25.5597 69.0818 25.2163 69.6161 24.7583L72.4784 27.735C71.7342 28.5556 70.8183 29.1852 69.7306 29.6241C68.643 30.0439 67.355 30.2538 65.8666 30.2538ZM85.1567 29.9962V27.1053L84.7846 26.3898V21.066C84.7846 20.2074 84.5175 19.549 83.9831 19.0911C83.4679 18.614 82.6379 18.3755 81.493 18.3755C80.7488 18.3755 79.9951 18.4995 79.2318 18.7476C78.4685 18.9766 77.8198 19.3009 77.2855 19.7208L75.4537 16.0285C76.3315 15.4561 77.3809 15.0172 78.6021 14.7119C79.8424 14.3875 81.0732 14.2253 82.2944 14.2253C84.8132 14.2253 86.7595 14.8072 88.1334 15.9713C89.5264 17.1161 90.2228 18.9194 90.2228 21.3809V29.9962H85.1567ZM80.5771 30.2538C79.3368 30.2538 78.2873 30.0439 77.4286 29.6241C76.57 29.2043 75.9117 28.6318 75.4537 27.9067C75.0149 27.1817 74.7954 26.3706 74.7954 25.4739C74.7954 24.5198 75.0339 23.6993 75.5109 23.0123C76.007 22.3063 76.7608 21.7721 77.7721 21.4095C78.7834 21.0279 80.0905 20.837 81.6934 20.837H85.357V23.6707H82.4375C81.5597 23.6707 80.9397 23.8138 80.5771 24.1C80.2336 24.3862 80.0619 24.7678 80.0619 25.2449C80.0619 25.722 80.2431 26.1035 80.6057 26.3898C80.9683 26.676 81.4644 26.8191 82.0941 26.8191C82.6856 26.8191 83.2198 26.676 83.6969 26.3898C84.193 26.0844 84.5556 25.6265 84.7846 25.0159L85.5287 27.0195C85.2425 28.088 84.6796 28.899 83.84 29.4524C83.0195 29.9867 81.9318 30.2538 80.5771 30.2538ZM93.6554 29.9962V8.75844H99.0936V29.9962H93.6554ZM111.12 30.2538C109.135 30.2538 107.59 29.7672 106.483 28.794C105.376 27.8018 104.823 26.3134 104.823 24.329V11.0196H110.261V24.2717C110.261 24.825 110.414 25.264 110.719 25.5883C111.024 25.8937 111.416 26.0463 111.893 26.0463C112.541 26.0463 113.095 25.8841 113.553 25.5597L114.898 29.3665C114.44 29.6718 113.877 29.8912 113.209 30.0248C112.541 30.1774 111.845 30.2538 111.12 30.2538ZM102.562 19.1197V15.0553H113.81V19.1197H102.562ZM124.333 30.2538C122.635 30.2538 121.127 29.9103 119.811 29.2234C118.494 28.5364 117.454 27.5919 116.691 26.3898C115.947 25.1685 115.574 23.7756 115.574 22.2109C115.574 20.6462 115.947 19.2628 116.691 18.0607C117.454 16.8585 118.494 15.9235 119.811 15.2557C121.127 14.5688 122.635 14.2253 124.333 14.2253C126.031 14.2253 127.539 14.5688 128.855 15.2557C130.191 15.9235 131.231 16.8585 131.975 18.0607C132.719 19.2628 133.091 20.6462 133.091 22.2109C133.091 23.7756 132.719 25.1685 131.975 26.3898C131.231 27.5919 130.191 28.5364 128.855 29.2234C127.539 29.9103 126.031 30.2538 124.333 30.2538ZM124.333 25.9318C124.963 25.9318 125.516 25.7887 125.993 25.5025C126.489 25.2163 126.88 24.7964 127.166 24.2431C127.453 23.6707 127.596 22.9932 127.596 22.2109C127.596 21.4286 127.453 20.7703 127.166 20.236C126.88 19.6826 126.489 19.2628 125.993 18.9766C125.516 18.6904 124.963 18.5473 124.333 18.5473C123.723 18.5473 123.169 18.6904 122.673 18.9766C122.195 19.2628 121.805 19.6826 121.499 20.236C121.213 20.7703 121.07 21.4286 121.07 22.2109C121.07 22.9932 121.213 23.6707 121.499 24.2431C121.805 24.7964 122.195 25.2163 122.673 25.5025C123.169 25.7887 123.723 25.9318 124.333 25.9318ZM135.61 29.9962V14.4829H140.791V19.0052L140.018 17.7172C140.476 16.5532 141.22 15.685 142.25 15.1126C143.281 14.521 144.531 14.2253 146 14.2253V19.1197C145.753 19.0816 145.533 19.0625 145.342 19.0625C145.17 19.0433 144.98 19.0338 144.769 19.0338C143.663 19.0338 142.766 19.3392 142.079 19.9498C141.392 20.5413 141.048 21.5145 141.048 22.8692V29.9962H135.61Z" fill="white"/>
<path d="M9.54309 22.7376L19.0033 27.9978L29.8945 21.9419L20.4351 16.6826L9.54309 22.7376Z" fill="white"/>
<path d="M0 28.0443V38.5629L9.5434 33.2569L0.083544 27.998L0 28.0443Z" fill="white"/>
<path d="M0 28.0443V38.5629L9.5434 33.2569L0.083544 27.998L0 28.0443Z" fill="white"/>
<path d="M29.8948 11.4227H29.8925L29.8948 11.4212L9.34694 0L0.000427246 5.3215L20.435 16.6813V16.6827L29.8948 21.9421L30.8366 21.4178V11.9469L29.8948 11.4227Z" fill="white"/>
<path d="M19.0038 27.9969L9.54381 22.7373L0.000671387 17.4314V27.9506L0.083724 27.9969L9.54381 33.2568L19.8359 38.979L20.565 39.3843L29.9493 34.0827L19.0038 27.9969Z" fill="#86D5BD"/>
</svg>
