<svg width="5" height="6" viewBox="0 0 5 6" fill="none" xmlns="http://www.w3.org/2000/svg">
<path d="M4.96503 2.90765L2.3462 0.0380912C2.32384 0.0136347 2.29352 -6.0909e-05 2.26193 2.32274e-07H0.119253C0.0535112 -0.000134278 0.000122942 0.05817 1.84712e-07 0.130207C-5.5614e-05 0.164935 0.0125326 0.198257 0.0349749 0.222787L2.56976 3.00001L0.0349749 5.77721C-0.0115725 5.82808 -0.0116617 5.91067 0.0347628 5.96168C0.0571493 5.98627 0.0875596 6.00006 0.119253 6H2.26193C2.29352 6.00006 2.32384 5.98637 2.3462 5.96191L4.96503 3.09234C5.01158 3.04147 5.01167 2.95888 4.96524 2.90788C4.96516 2.90781 4.9651 2.90773 4.96503 2.90765Z" fill="#1F304F"/>
</svg>
