<svg width="19" height="21" viewBox="0 0 19 21" fill="none" xmlns="http://www.w3.org/2000/svg">
<path d="M11.6768 14.3506L11.6799 14.3484C11.5943 14.1201 11.5616 13.8754 11.5842 13.6327C11.6067 13.39 11.6839 13.1555 11.81 12.9469L11.7986 12.9355C11.4549 12.5905 11.1083 12.2483 10.7688 11.8992C10.7066 11.8353 10.6457 11.7953 10.5794 11.7805C10.2531 11.9855 9.87593 12.0951 9.49059 12.0968C9.10524 12.0985 8.72711 11.9923 8.39901 11.7902C8.33084 11.8113 8.26803 11.8565 8.20312 11.9245C7.91496 12.2264 7.62185 12.5241 7.31939 12.8111C7.27523 12.8521 7.23363 12.8958 7.19482 12.9419C7.32868 13.1501 7.41287 13.3863 7.44091 13.6322C7.46895 13.8781 7.44008 14.1271 7.35653 14.3601C7.35968 14.3626 7.36273 14.3655 7.36599 14.3678C7.69213 14.6097 8.06951 14.7867 8.38365 15.042C8.5275 15.1598 8.68859 15.2547 8.86128 15.3235C9.04387 15.186 9.26695 15.1131 9.49547 15.1162C9.72399 15.1194 9.94499 15.1983 10.1238 15.3407C10.643 15.0132 11.1607 14.6831 11.6768 14.3506Z" fill="#1F304F"/>
<path d="M13.8413 12.1212C14.0864 11.7352 14.3288 11.3475 14.5759 10.9628C14.634 10.8723 14.6968 10.7839 14.7475 10.6918C14.6017 10.5158 14.5184 10.2964 14.5108 10.068C14.5031 9.83963 14.5716 9.61516 14.7055 9.42992C14.7039 9.42697 14.7024 9.42392 14.7007 9.42097C14.4237 8.93881 14.1042 8.48128 13.8191 8.00343C13.8066 7.98239 13.794 7.96272 13.7812 7.94441C13.547 8.03097 13.2959 8.06202 13.0476 8.03511C12.7993 8.0082 12.5607 7.92407 12.3504 7.78934C12.3476 7.79165 12.3446 7.79376 12.342 7.79607C11.9788 8.11968 11.6491 8.48064 11.3011 8.82162C11.2697 8.85129 11.2425 8.88504 11.2201 8.92198C11.4311 9.25208 11.5438 9.63542 11.5451 10.0272C11.5463 10.419 11.436 10.803 11.2271 11.1345C11.2386 11.2109 11.2669 11.2864 11.3065 11.331C11.6028 11.6653 11.9385 11.9644 12.2423 12.2927C12.2777 12.3316 12.3155 12.3682 12.3555 12.4024C12.5622 12.2777 12.7943 12.2009 13.0346 12.1778C13.275 12.1546 13.5174 12.1856 13.7442 12.2685C13.7723 12.2299 13.803 12.1815 13.8413 12.1212Z" fill="#1F304F"/>
<path d="M8.86359 4.84956C8.3586 5.14603 7.86834 5.46954 7.37535 5.78705C7.34031 5.80956 7.29791 5.83534 7.26183 5.86343C7.32105 6.07291 7.33734 6.29219 7.30972 6.50813C7.28209 6.72406 7.21113 6.93218 7.10107 7.12001C7.1265 7.15281 7.15413 7.18384 7.18377 7.2129C7.532 7.56766 7.88791 7.91505 8.23425 8.27159C8.25726 8.29564 8.28252 8.31745 8.30968 8.33671C8.65709 8.09674 9.06975 7.96913 9.49198 7.97111C9.91421 7.97308 10.3257 8.10455 10.6708 8.34776C10.7171 8.31918 10.7591 8.28422 10.7957 8.24392C11.0891 7.93314 11.3892 7.62762 11.702 7.33662C11.742 7.30014 11.7796 7.26114 11.8146 7.21985C11.6989 7.01264 11.6302 6.78246 11.6136 6.5457C11.597 6.30894 11.6327 6.07143 11.7183 5.85007C11.6727 5.8117 11.6238 5.77741 11.5721 5.7476C11.2222 5.53918 10.8812 5.31552 10.5391 5.09427C10.3723 4.98643 10.2106 4.8645 10.0341 4.79233C9.8705 4.90445 9.67805 4.96706 9.47979 4.97265C9.28153 4.97825 9.08586 4.9266 8.91619 4.82389C8.89801 4.83106 8.88042 4.83964 8.86359 4.84956Z" fill="#1F304F"/>
<path d="M7.69366 11.3297C7.72595 11.2941 7.75036 11.2375 7.76435 11.1763C7.53979 10.8385 7.41977 10.442 7.4193 10.0363C7.41883 9.6307 7.53794 9.23391 7.76172 8.89557C7.74231 8.86749 7.72006 8.84147 7.69534 8.81793C7.34585 8.47875 7.01571 8.11873 6.65485 7.79322C6.61393 7.7563 6.55806 7.7301 6.49705 7.71201C6.12782 7.91782 5.69263 7.97069 5.28486 7.85929C5.24487 7.90569 5.20933 7.95574 5.17871 8.00879C4.92716 8.42562 4.66268 8.83466 4.39798 9.24338C4.34085 9.33154 4.28173 9.41813 4.23596 9.50787C4.35485 9.67777 4.41978 9.87956 4.42228 10.0869C4.42477 10.2943 4.36472 10.4976 4.24995 10.6703C4.25216 10.6746 4.25437 10.6789 4.25679 10.683C4.56031 11.196 4.89097 11.693 5.20291 12.2009C5.22506 12.2377 5.25075 12.2723 5.2796 12.3041C5.49769 12.2233 5.73066 12.1906 5.96257 12.2082C6.19448 12.2257 6.41986 12.2932 6.62329 12.4059C6.99509 12.0628 7.35447 11.7047 7.69366 11.3297Z" fill="#1F304F"/>
<path d="M9.96447 1.65779C9.96447 1.20025 9.96868 0.742499 9.963 0.285065C9.96868 0.742605 9.96479 1.20035 9.96416 1.65779C9.96416 1.7772 9.96037 1.89671 9.96479 2.01549C9.96037 1.89661 9.96416 1.77709 9.96447 1.65779Z" fill="#1F304F"/>
<path d="M9.06144 1.64761C9.06217 2.00594 9.05523 2.36438 9.06428 2.7225C9.05523 2.3648 9.06207 2.00594 9.06175 1.64761C9.06175 1.19975 9.0567 0.751786 9.06344 0.303925C9.0567 0.751786 9.06144 1.19975 9.06144 1.64761Z" fill="#1F304F"/>
<path d="M4.0022 3.12961C4.08697 3.26285 4.14008 3.41376 4.15744 3.57073C4.1748 3.7277 4.15596 3.88656 4.10235 4.03511C4.37852 4.31422 4.65142 4.5966 4.942 4.85961C4.94865 4.86557 4.95568 4.87109 4.96304 4.87613C5.25858 4.72149 5.59481 4.66233 5.92538 4.7068C6.25596 4.75127 6.5646 4.89718 6.80877 5.12441C6.95238 5.09916 7.0841 5.02152 7.22286 4.9079C7.28409 4.85782 7.35868 4.82458 7.42275 4.77787C7.75057 4.53989 8.13195 4.3724 8.42999 4.09918C8.39583 3.87639 8.43547 3.64854 8.54287 3.45037C8.65026 3.2522 8.81952 3.09459 9.02483 3.00157C9.05233 2.9111 9.06557 2.8169 9.06407 2.72236C9.05502 2.36466 9.06186 2.0058 9.06123 1.64747C9.06123 1.19961 9.0566 0.751641 9.06323 0.30378C9.06638 0.0909488 8.98495 -0.0100487 8.76434 0.000787484C8.25777 0.0258265 7.75015 0.0345585 7.24401 0.0711701C7.12765 0.0794814 6.99204 0.146813 6.90798 0.230031C5.93567 1.19224 4.97156 2.1634 4.0022 3.12961Z" fill="#1F304F"/>
<path d="M9.9834 3.05905C10.1355 3.15086 10.2612 3.28039 10.3485 3.43509C10.4358 3.5898 10.4816 3.76442 10.4816 3.94205C10.4816 3.96309 10.4808 3.98413 10.4796 4.00517C10.5236 4.06977 10.5719 4.12858 10.632 4.17034C11.097 4.49385 11.576 4.79874 12.0643 5.08563C12.1169 5.11625 12.1905 5.13329 12.265 5.13571C12.4927 4.96797 12.7605 4.86304 13.0415 4.83144C13.3226 4.79985 13.607 4.8427 13.8662 4.9557C13.9521 4.9375 14.0369 4.89973 14.0905 4.85113C14.3825 4.58643 14.6557 4.30122 14.9332 4.02064C14.8785 3.87741 14.8564 3.7238 14.8684 3.57095C14.8804 3.4181 14.9263 3.26983 15.0027 3.13691C14.0443 2.17312 13.0911 1.20428 12.1284 0.2448C12.038 0.154534 11.8917 0.0817314 11.7659 0.0720524C11.2609 0.0335471 10.7532 0.0255515 10.2467 0.00114375C10.0412 -0.0087456 9.96047 0.0836251 9.96268 0.285199C9.96836 0.742739 9.96447 1.20049 9.96415 1.65792C9.96415 1.77733 9.96005 1.89685 9.96415 2.01562C9.97762 2.36207 9.92417 2.72145 9.9834 3.05905Z" fill="#1F304F"/>
<path d="M18.5885 3.95651C18.0183 3.95914 17.4434 3.9159 16.8788 3.96766C16.8356 4.10142 16.7657 4.22496 16.6731 4.33072C16.5805 4.43647 16.4674 4.52222 16.3405 4.5827C16.2136 4.64317 16.0757 4.67711 15.9353 4.68243C15.7949 4.68775 15.6548 4.66433 15.5237 4.61362C15.2195 4.89053 14.9436 5.20467 14.6634 5.50787C14.6381 5.53684 14.6184 5.57013 14.605 5.60614C14.7792 5.89797 14.8568 6.23742 14.8266 6.57598C14.7963 6.91453 14.6599 7.23487 14.4366 7.49121C14.4415 7.49942 14.4466 7.50773 14.452 7.51615C14.7699 8.00946 15.0766 8.51003 15.3916 9.00534L15.3964 9.0128C15.4446 9.0059 15.4932 9.00239 15.5418 9.00228C15.6918 9.00204 15.8401 9.03465 15.9761 9.09781C15.9853 9.08908 15.9946 9.08003 16.0041 9.07067C16.7722 8.30477 17.5376 7.536 18.3 6.76435C18.4002 6.6624 18.4999 6.52437 18.524 6.38939C18.6554 5.66579 18.7629 4.93755 18.8787 4.21163C18.8903 3.99228 18.7627 3.95567 18.5885 3.95651Z" fill="#1F304F"/>
<path d="M1.32869 3.96915C1.45062 3.96915 1.57256 3.97178 1.69439 3.96915C1.57256 3.97136 1.45062 3.96852 1.32869 3.96863C1.05011 3.96863 0.771101 3.97915 0.493042 3.96558C0.77089 3.97999 1.05011 3.96915 1.32869 3.96915Z" fill="#1F304F"/>
<path d="M2.99677 9.05357C3.02118 9.07787 3.04485 9.09944 3.06779 9.11838C3.17182 9.08421 3.28064 9.06684 3.39014 9.06693C3.43513 9.06693 3.48008 9.06985 3.5247 9.07566C3.54939 9.04484 3.57239 9.01271 3.59361 8.9794C3.9006 8.50282 4.21358 8.02908 4.49396 7.53703C4.51545 7.49727 4.53058 7.45439 4.53877 7.40994C4.30195 7.15889 4.15193 6.83847 4.1108 6.4958C4.06966 6.15314 4.13958 5.80631 4.31027 5.50635L4.30743 5.50277C4.06545 5.22629 3.7895 4.9799 3.53585 4.71373C3.51712 4.69405 3.49818 4.67491 3.47925 4.65597C3.34794 4.70275 3.20853 4.72246 3.0694 4.71391C2.93027 4.70536 2.79432 4.66872 2.66973 4.60621C2.54515 4.54369 2.43451 4.4566 2.3445 4.35017C2.25448 4.24375 2.18695 4.1202 2.14597 3.98697C2.0134 3.97036 1.87973 3.96424 1.74619 3.96866C1.7288 3.96922 1.71126 3.96964 1.69359 3.96992C1.57176 3.97213 1.44983 3.96929 1.32789 3.96992C1.04931 3.96992 0.770303 3.98044 0.492244 3.96677C0.240487 3.95414 0.143382 4.0563 0.179362 4.30164C0.278992 4.98011 0.36747 5.66037 0.48225 6.33632C0.507078 6.48266 0.596924 6.63952 0.70213 6.74735C1.46056 7.52241 2.22782 8.28883 2.99677 9.05357Z" fill="#1F304F"/>
<path d="M12.793 15.3447C12.5591 15.2854 12.3415 15.1742 12.1564 15.0194C12.1232 15.0302 12.0914 15.0449 12.0617 15.0632C11.6642 15.3081 11.2751 15.5663 10.878 15.812C10.7502 15.8911 10.6193 15.9657 10.5098 16.0588C10.5123 16.0882 10.5137 16.1177 10.5137 16.1477C10.5138 16.3337 10.4636 16.5162 10.3683 16.676C10.2731 16.8358 10.1365 16.9668 9.97285 17.0552C9.94939 17.1145 9.93609 17.1774 9.9335 17.2411C9.91814 18.2942 9.92509 19.3477 9.92645 20.4011C9.92645 20.4964 9.93824 20.5918 9.94813 20.7409C10.0523 20.6941 10.104 20.6839 10.138 20.6537C10.9846 19.9032 11.8336 19.1555 12.6681 18.3918C12.7618 18.306 12.8103 18.1287 12.8125 17.992C12.8254 17.1575 12.8217 16.3226 12.8179 15.4881C12.8175 15.4392 12.8091 15.3908 12.793 15.3447Z" fill="#1F304F"/>
<path d="M8.45007 16.1478C8.45006 16.1126 8.45181 16.0775 8.45533 16.0426C8.44171 16.0303 8.4273 16.019 8.4122 16.0086C7.95308 15.6943 7.47734 15.4043 7.00865 15.1038C6.96951 15.0788 6.93174 15.0543 6.89376 15.0338C6.69619 15.2049 6.45983 15.3253 6.20519 15.3845C6.19299 15.435 6.18779 15.4869 6.18973 15.5388C6.20877 16.3338 6.20404 17.1297 6.19225 17.9249C6.18857 18.1751 6.26495 18.3691 6.44759 18.5305C7.22155 19.2145 7.99562 19.8984 8.76979 20.582C8.83355 20.6382 8.91277 20.6767 9.05385 20.7682C9.06363 20.5702 9.07426 20.4546 9.07489 20.339C9.07626 19.3844 9.07173 18.4299 9.07784 17.4754C9.07868 17.3429 9.08141 17.2124 9.06174 17.0895C8.87973 17.0084 8.72511 16.8763 8.61656 16.7091C8.50801 16.542 8.45019 16.347 8.45007 16.1478Z" fill="#1F304F"/>
<path d="M0.378243 3.10107C0.945302 3.09108 1.51447 3.12211 2.07963 3.09055C2.15613 3.08628 2.23231 3.07764 2.30782 3.06467C2.40384 2.93673 2.52834 2.83292 2.67145 2.76146C2.81457 2.69001 2.97236 2.65287 3.13232 2.653C3.15785 2.653 3.18313 2.65391 3.20817 2.65573C3.24023 2.62929 3.27147 2.60176 3.30191 2.57315C4.01815 1.8972 4.69989 1.18443 5.39466 0.486075C5.46052 0.419269 5.5187 0.344679 5.60939 0.24063C5.50997 0.221588 5.46378 0.201599 5.42002 0.206123C3.68549 0.384236 1.96927 0.667239 0.282506 1.11531C0.0747244 1.17044 -0.0096506 1.29784 0.000869975 1.50773C0.0219111 1.93486 0.0461085 2.3621 0.052526 2.78956C0.056103 3.02006 0.149421 3.10475 0.378243 3.10107Z" fill="#1F304F"/>
<path d="M18.6063 1.08675C17.0901 0.811322 15.5751 0.52916 14.0585 0.255625C13.8586 0.219645 13.6526 0.221433 13.38 0.200287C13.4489 0.307597 13.4648 0.345155 13.4915 0.371983C14.2452 1.12946 14.9778 1.90999 15.7664 2.62875C15.8098 2.62327 15.8535 2.62053 15.8973 2.62055C16.0649 2.62043 16.23 2.66122 16.3782 2.73935C16.5265 2.81749 16.6535 2.93062 16.7482 3.06893C16.7723 3.07251 16.7962 3.07563 16.82 3.0783C17.4197 3.14531 18.0324 3.09376 18.6396 3.09934C18.8336 3.10123 18.9364 3.03674 18.9418 2.82801C18.9523 2.41045 18.9655 1.99236 18.9976 1.57606C19.0202 1.27665 18.8865 1.13778 18.6063 1.08675Z" fill="#1F304F"/>
<path d="M4.19681 13.3927C4.22871 13.3906 4.26009 13.3835 4.28981 13.3717C4.35202 13.1538 4.45958 12.9516 4.60543 12.7782C4.59993 12.7624 4.59288 12.7472 4.58439 12.7329C4.25562 12.1868 3.91212 11.6492 3.56463 11.115C3.3828 11.146 3.19601 11.1278 3.02356 11.0624C2.91509 11.1644 2.81135 11.2717 2.70794 11.3788C2.07176 12.0359 2.11026 11.8044 2.45892 12.6798C2.67648 13.2261 2.95706 13.577 3.51213 13.3952C3.80018 13.3949 3.99913 13.4041 4.19681 13.3927Z" fill="#1F304F"/>
<path d="M15.2596 13.3945C15.3055 13.3958 15.3514 13.3972 15.3971 13.3972C15.4364 13.3972 15.4756 13.3962 15.515 13.395C15.4756 13.3962 15.4363 13.3972 15.3971 13.3972C15.3514 13.3972 15.3055 13.3957 15.2596 13.3945Z" fill="#1F304F"/>
<path d="M16.6608 11.749C16.4373 11.5363 16.2265 11.3104 16.0063 11.0943C15.9731 11.0614 15.9382 11.0302 15.9017 11.001C15.7867 11.0437 15.6649 11.0656 15.5421 11.0655C15.5157 11.0655 15.4895 11.0645 15.4636 11.0625C15.4419 11.0909 15.4196 11.123 15.3964 11.1594C15.1018 11.6211 14.814 12.0864 14.5199 12.5481C14.4792 12.6121 14.44 12.6723 14.4136 12.7347C14.5748 12.9226 14.6904 13.1453 14.7514 13.3854C14.817 13.4052 14.8918 13.4104 14.9794 13.4003C15.0312 13.3947 15.0832 13.3921 15.1353 13.3925C15.1614 13.3925 15.1879 13.3925 15.2138 13.3936L15.2596 13.3948C15.3055 13.3962 15.3514 13.3976 15.3971 13.3976C15.4364 13.3976 15.4756 13.3965 15.515 13.3954L15.5543 13.3942C15.6412 13.39 15.7283 13.392 15.8149 13.4004C16.0829 13.432 16.2421 13.3268 16.3422 13.0748C16.4597 12.7796 16.6082 12.4962 16.743 12.2082C16.8235 12.0357 16.806 11.8871 16.6608 11.749Z" fill="#1F304F"/>
<path d="M14.7297 14.2564C14.6549 14.4985 14.5242 14.7196 14.3482 14.9018C14.1721 15.084 13.9557 15.2223 13.7164 15.3054C13.6797 15.3691 13.6532 15.4355 13.6498 15.4993C13.6247 15.9451 13.6386 16.3936 13.6422 16.8404C13.6429 16.933 13.6632 17.0254 13.6751 17.1179L13.7559 17.1419C14.4794 16.2636 15.1236 15.3318 15.7045 14.2496C15.3238 14.2495 15.0251 14.2399 14.7297 14.2564Z" fill="#1F304F"/>
<path d="M5.33815 15.3463C5.08795 15.2641 4.86164 15.1219 4.67895 14.9322C4.49626 14.7425 4.36273 14.511 4.28998 14.2579C4.2831 14.2561 4.27606 14.2549 4.26894 14.2544C3.97552 14.2371 3.68042 14.247 3.28369 14.247C3.88568 15.3278 4.51849 16.2658 5.27576 17.1895C5.32111 17.073 5.34678 17.0376 5.34709 17.0018C5.3512 16.4653 5.35951 15.9287 5.34594 15.3934C5.34537 15.3774 5.34276 15.3616 5.33815 15.3463Z" fill="#1F304F"/>
<path d="M17.916 8.34207C17.4515 8.80497 16.9863 9.26693 16.5304 9.73804C16.5954 9.95586 16.5868 10.189 16.5061 10.4015C16.6517 10.661 16.952 10.807 17.1339 11.0407L17.2481 11.031L18.12 8.32029L18.0358 8.27695C17.9952 8.2983 17.9468 8.31135 17.916 8.34207Z" fill="#1F304F"/>
<path d="M2.42008 10.4499C2.33628 10.2177 2.33826 9.9631 2.42566 9.73218C1.99358 9.24708 1.51584 8.80227 1.05315 8.34441C1.03926 8.33063 1.00233 8.3401 0.904175 8.33484L1.75066 10.979L1.8808 11.0021C2.05923 10.8172 2.26933 10.6508 2.42008 10.4499Z" fill="#1F304F"/>
</svg>
